<?xml version="1.0" encoding="utf-8" ?>
<svg baseProfile="full" height="100%" version="1.1" viewBox="0,0,1000,120" width="100%" xmlns="http://www.w3.org/2000/svg" xmlns:ev="http://www.w3.org/2001/xml-events" xmlns:xlink="http://www.w3.org/1999/xlink"><defs /><rect fill="white" height="120" width="1000" x="0" y="0" /><path d="M0,0 M79.14815080844181,54.499754072125214 L78.89495487606878,54.99181252382996 L78.51284186288666,54.575875355160015 L78.69448932214537,55.36065436379606 L78.62038885125003,56.51168553826957 L78.65797986650999,58.791296884779186 L78.53548499007726,61.012225175539314 L77.73184829862325,64.04517493798348 L77.60653588135605,66.22204076413206 L76.83915759290699,68.8250103155505 L76.87425326668595,71.4667825086269 L76.60696970563251,72.13125285259821 L76.62197676636922,73.64809422435567 L75.7485576502434,73.72911978214907 L76.12858849805659,73.44935862556206 L76.59423007729008,73.06130511299313 L77.76695583598396,71.06025600692837 L77.38512581226823,68.73688621999231 L77.70050987822361,66.21247007290516 L79.06280779559985,62.79776499902495 L79.11512579260905,60.84448406396811 L80.23320067212795,58.35535799917473 L80.93853208585045,56.403009571935456 L81.57911581037716,53.79641005256818 L82.08128479277278,52.27691411829883 L82.46448210664971,51.080923947174455 L82.9540576082458,51.448700587319365 L82.98247411452212,52.14791658554593 L83.33839188193451,53.42170675753655 L83.77879928363726,55.46687271681831 L83.578148249686,58.076115464071705 L83.4692186951244,60.065646988874356 L83.44903937379785,62.659551677218005 L83.67161092833862,64.23016128966606 L83.596580090902,65.51678203781299 L84.59030636886813,66.02631003015438 L84.76190282298884,65.79921599320956 L85.1346966865305,64.59145353274744 L86.29340667127872,62.958355050272715 L87.33512321992279,61.414761860157164 L87.85087436415004,59.52527423900577 L88.68519482880855,57.225005430993725 L89.87711620158981,55.40181787547855 L91.5950434346984,53.34775918528181 L93.0409786441966,52.316376972065655 L93.73689954262063,52.3399037817828 L95.0140140906916,51.95647172805644 L95.50585029542023,52.72446474321109 L97.07093463353725,54.0705866788049 L97.5539606643847,55.354956231101966 L97.85092267611199,57.52360211666334 L98.65714234960362,60.29483146677576 L98.01308759357929,61.909766082409135 L98.06195631167522,64.53927978829076 L98.45820585849523,66.77291770001077 L97.53765898581237,67.99969311244337 L98.32771764597808,69.36991180285665 L97.89577000310405,70.67009143120535 L98.26941178488325,71.28768884758891 L98.20665586649997,71.47710834315822 L98.65405786269727,71.57017869770297 M106.8910923239323,69.70632058659749 L107.96990767690465,70.14459927249258 L107.84754028958099,70.77066930849722 L108.67349272269098,69.34877237906358 L109.58249174751005,69.246788773507 L110.3688742218109,68.16599178782091 L111.68675869635044,67.18248801077776 L113.13538571123563,65.91118882171604 L113.72240011335059,65.12263568521122 L114.17676839403293,63.78111076730344 L113.98735598229526,63.043607970981185 L114.6235648036578,62.04853687383014 L114.03066029896533,62.535546627937634 L112.92747017205957,61.48800361400639 L112.14617072583547,62.04220370113931 L110.45127820555057,62.862443522629974 L109.04066555489862,64.48897988044038 L107.98062041018946,65.79323098778926 L106.76759788020854,67.74838788746418 L106.18921463680483,69.13615859606993 L106.71981014129152,69.83956593977659 L106.87674450773099,71.60638516367183 L108.07020273727326,72.29917650787026 L108.78444909343455,72.83582504265303 L110.58179740851588,72.57778957456955 L112.26939581600935,72.55570482046787 L114.25097200797563,71.62596130847385 L116.87283280878837,70.73157465473874 L118.85226352454649,69.14399979426217 L119.58948543566561,67.94472475100807 L121.0865299179347,67.31651004908817 L122.16592947525405,65.14029491856714 L122.71343772141698,64.19982843474493 L122.66426006465868,62.9138459044253 L123.49960156376548,61.763460054452686 L123.50026220973676,60.771453622124625 L123.83971053046778,59.93342610419262 L124.33522189971255,59.64956074524097 L124.48785490146109,59.207961823382256 L124.94536813236887,59.24544693290752 L125.58094570709481,59.1313931341179 L126.94038232713952,59.51362420440982 L128.04954627631656,59.54151176690243 L129.27430901741963,59.267985319830714 L130.31329379680892,60.251207149058644 L131.9306701085054,60.456002598075344 L133.0109224029226,60.637284515469275 L133.86344295326444,61.002929444038436 L134.6496232057823,61.66154419328682 L135.45560475517624,62.52995510261706 L135.65803147237406,62.855975985729096 L134.95144871773118,63.363781607349246 L135.29155243309674,63.98067170112593 L134.62421251050023,63.87399131117667 L133.4628305326525,64.76667521439634 L132.36494038828533,65.01590932505613 L131.09055879103002,66.54126603965084 L130.4937529091692,65.58509766650049 L129.20040046146184,66.0173291115409 L128.83102614410566,66.0873021557548 L127.90270665619215,66.19226620036709 L128.65087698161722,65.90390835223553 L128.96973631925158,65.32399747458517 L129.26597988822385,65.4331358149779 L129.1100967723794,65.73930565257807 M145.90736268223537,62.78395477677519 L146.40996591785364,62.04405915669917 L145.2737072262143,61.922616553394704 L145.12688651646482,60.20321074827696 L144.39196349008495,60.81783162921308 L143.15305323569748,60.49583269162707 L141.7394970950415,60.83196844691439 L139.91093296668015,61.84108124149669 L139.77482006985645,61.75818224889178 L139.2843034696828,62.408197523025066 L139.84512301260315,63.1235783103276 L140.4769562583905,63.28771887767613 L141.99393327296568,64.3004496036374 L143.42080297358962,65.17432107417895 L144.78448369536954,65.61685235216915 L146.5585002852476,66.80281137578096 L148.5053798556524,66.99008149405988 L150.22130344884158,68.05302612499878 L149.83708422195303,68.76750505530352 L150.34488696640972,69.49434988058402 L150.30665308564602,70.29993259755514 L149.5366333012542,70.51093133017784 L148.26677465894616,70.57861650462617 L146.43691753061785,71.02641923972035 L145.2124571067941,70.7191720065108 L143.26072496218902,70.54432064542452 L141.34607973688142,69.79759860769198 L139.99105920547308,69.80838394004056 L138.8822496485929,68.98186271334288 L138.77860286503045,69.36379392161513 L138.6225435951348,67.89073923161565 L138.51758278215567,67.27066114112152 L138.56888723758482,67.13112720562347 M156.91656712022183,61.10513667735326 L157.47195979700064,61.44517027325837 L158.2081042196238,62.07219448419028 L158.15791730287623,63.21438057562573 L158.25901653947912,63.97934266204252 L158.56456581996082,65.33018620106706 L158.7821965229848,66.30012863762335 L159.17183825113665,67.4820599967686 L159.1932735767724,68.92576971713876 L159.1704968028581,69.86820033947387 L159.32283817785316,70.0580989428341 L159.1554198259724,70.1197450058651 L159.26791829593503,70.19919988396843 M161.87907475977767,54.957846405750075 L161.85668529486986,54.76877763777941 L161.88809799538217,54.555355250129615 L161.95584295081008,54.38470255181754 L162.04244226184096,54.323937623429316 M171.1348693935348,62.16707154776454 L171.46202971233106,61.865139823451344 L171.35413313699246,62.275326114376334 L171.54874561073677,62.43160006669652 L171.65341220224389,63.18156164504122 L171.76914022293943,64.5000542538886 L171.35099977581325,65.02419497995874 L172.3174250270644,67.11864503933208 L171.73101873222845,68.00951116540352 L171.05786916871773,69.18140625689692 L171.03195872933725,70.05078983965461 L171.17437558054536,71.14881136657907 L171.1920457987958,70.88550004052617 L171.4139414630066,70.61345715564975 L171.52164371001123,69.85730080370432 L172.54606925753885,68.74187410751763 L173.27113521939938,66.82153683744954 L173.5995990414056,65.56094808346694 L175.06507874458651,64.04362542935698 L176.15646872053046,62.996873089601046 L177.32004755146383,61.947453954568594 L178.72095435187626,61.787284404722364 L179.60674555568588,61.26309136897335 L180.85400258327525,61.66062757678022 L182.38016600211714,62.31815190177427 L183.07073196574754,62.644883596026524 L183.9436276049255,63.848108273479234 L184.4688339511969,66.02615986868788 L184.62507497493306,66.76977162894721 L184.25466465110583,68.40154463190392 L184.12255156351242,68.75668816479904 L183.71469561868304,69.71980781616212 L184.28181288296673,69.9479521619894 M191.69988892269654,66.92005427012046 L191.5488806203305,66.83534558287403 L191.58939045529087,66.99564659961878 L192.480995735283,66.32920476044622 L193.75007121285591,65.49853568510235 L194.4470447281212,64.8539329940268 L195.3261507819102,63.31986942460469 L196.00824957953003,62.30387968044746 L196.62162592263945,61.57916737900659 L197.78516610004775,60.38306856468823 L197.88490389338816,59.24207805007187 L197.55649474777184,59.10586019591861 L197.512772728454,58.52496401629274 L196.71961602365866,58.73139900506207 L194.86395424935446,59.353432802338496 L193.31181415262247,60.12923256082547 L192.0147558223492,61.19780739452503 L190.84575407221553,62.70431334468384 L189.79830717506346,63.80129065378335 L190.11050680633693,65.6365856360263 L190.45016393252578,66.5554786515772 L191.4527527902191,66.8222000426773 L193.41455777949062,67.79830082250072 L195.30095089032122,67.40863151796125 L196.70279598709567,67.41899261937894 L199.7523582105401,66.43854779973474 L201.0170727542319,65.80133860956963 L203.47975694870755,65.18945288350328 L204.04211547988274,64.01606695653878 M216.5954941027603,58.57325533303173 L216.44478288338308,58.36063515646058 L216.02679341328323,57.96509798444306 L215.0065654636179,57.39168276103301 L214.0208611104297,57.98441409020756 L212.6226606357228,57.735819067660614 L211.5214573076981,57.812073805975594 L210.31013795724016,58.90300749261795 L209.84830626135283,59.69451774400541 L209.44768399787318,60.427202826748946 L209.9571591704029,61.791428667535875 L211.13082750070447,61.96352930713894 L212.5266954785557,62.71450234315483 L214.72015495301468,63.73185660773107 L216.72000632199197,64.26061610235674 L218.35205813346343,64.99232283783114 L219.85805199733483,65.65176628424439 L221.40900505556837,65.9217291220117 L221.92741165399295,66.97102782788967 L221.83197302668282,67.72346550111618 L222.2736925283669,67.72805556948255 L221.06728431993793,68.60147814241945 L219.37932721968645,69.10081728777635 L218.20020792554018,69.16367164503939 L216.14495998270567,69.36745912949225 L213.81708141128166,68.76013167308929 L212.5251562889781,69.04103298451771 L210.91504037199732,68.65919272037193 L209.96525201396648,68.60841825522895 L208.84346037564407,67.88755143584258 L209.0425820822289,67.38449501926029 L208.94396009079335,67.59028761390672 L209.12036683048433,66.77432004999577 M238.95073114402717,57.533715826809164 L238.58412071974314,57.481535466506934 L238.3253281125727,57.60611921046727 L237.47994969302695,56.95147614984501 L236.59769800579951,57.033008645579145 L234.54119382714978,57.78687478466449 L233.16321349884285,58.46263763459389 L231.37013971310878,59.54092558106802 L230.9891184416936,59.725696935861436 L231.3211250238672,60.577488852130486 L231.41903245575125,61.84466277940316 L232.61127069831386,62.53694805985882 L233.83507209627467,63.036259428905325 L235.6246192501204,63.478495002474354 L237.09895376356272,64.68368935624837 L239.26526598689858,64.27771574179843 L240.6978140111364,64.29312978332499 L242.14285287516455,65.09945707664845 L242.58748153155895,65.66248586601075 L242.56946084116285,66.68000940667427 L242.57931259591695,67.20273178836324 L241.9462146141972,67.54921860904426 L240.49811950811576,68.8250279476407 L238.83995809503486,68.93063578305159 L237.0396383828834,69.88278679261435 L235.67702187308143,70.19840520596958 L234.00694196256003,69.62374339763167 L232.34790180604168,70.09932846308183 L231.9887394480139,69.76965041595689 L230.49377755368042,70.11149124113763 L230.63198760424498,68.88329208029819 L230.36113485904795,69.36591207782223 L230.66573966090115,69.09223699440548 M263.6626361861245,69.29379991520686 L263.53956192595047,68.70337424803962 L264.0752873434552,68.47956057541101 L264.1830395012007,67.7792054008242 L264.87876918559016,67.98933721241224 L265.16563092198214,67.50306131807585 L266.37994928627313,67.00349840269979 L268.1147831276105,65.59167668743069 L269.1017147575674,64.0972365216596 L269.8173223139062,61.881267230634435 L271.1308042421955,60.26653396300148 L272.93166828316623,58.37344538545767 L274.3104694706748,56.73437168132723 L275.88828037790313,54.64032511484805 L276.555437630779,52.74291036760788 L277.4782394034813,50.934685248115116 L278.9764630909914,50.429338698006376 L279.4867371796728,50.23509092879701 L279.72921173223995,49.9715849876091 L279.35669982650586,50.17231298019973 L279.42661364349783,51.02267738522583 L279.41092066251986,52.47921401290573 L278.47729009385466,54.240909109998356 L278.1359178243183,56.88045870600527 L277.60946939808184,59.24281843865114 L277.72065816269514,61.643701777428056 L277.29006853972817,63.697609734612875 L277.2226147546387,65.47085342102899 L277.53480388384037,67.31529335147945 L277.53345862636104,68.05347640747182 L277.9142062803892,68.46811432076379 L278.4274855627506,68.61423073654211 L278.3199973975236,67.66260007870807 M291.812227903245,66.9554254117862 L291.86746779682335,66.96010684953359 L291.94867299831435,66.94112321069744 L292.0277221022201,66.90777869041506 L292.07649393068345,66.86937904033363 M306.1855229524771,53.709592207678305 L306.08848115295234,53.544913765346834 L305.51951783202753,53.31270501267718 L304.87227010262154,53.466815565347744 L304.94003161396563,54.2971734952605 L303.5356588121937,55.301075550803645 L302.46376326799293,55.56252860208459 L301.004351563309,58.08248387515285 L299.98615949884095,59.867239379064856 L299.7768616810346,61.07633385846896 L299.2466950546493,63.57248155097954 L299.61823960887045,65.04165611875533 L300.29665859944794,66.3033073463225 L301.09666997113857,67.01461538032359 L302.08028191637345,67.72456517063753 L303.6274865167162,67.62497297983808 L305.00622952468984,66.74635107981766 L307.01222466061483,66.23568650186988 L308.22277736730234,64.23145300912073 L309.5976567735024,62.890430139248664 L310.26393170482277,61.303122659832866 L310.1987963624433,59.3347078455548 L311.0790808765064,57.37344266321636 L310.6524936218357,55.46464137049477 L309.7343775801346,53.785288400611286 L308.1010326269843,52.59918823267759 L306.8536503827023,51.41000001394389 L306.23689090885455,51.12128968812109 L305.58826077935953,51.25003397378016 M317.2462399883715,59.49356922060061 L316.8621155897363,59.10172867165849 L316.84667170589023,59.09345610886603 L317.00460925332015,58.91577288559178 L316.6673427755801,59.17670780708634 L316.0710424632605,59.30922091632686 L316.80916464597726,59.17883651376294 L317.0516755860308,59.479975977211545 L316.6226913216848,59.57022946139171 M321.2696267313472,64.43909695269008 L320.7008544378616,64.4993154904431 L320.6461423519911,64.16209344581324 L320.5035463610719,64.12790207823373 L321.0141976499792,64.23525490533576 L320.5433531676863,64.13224666025417 L320.7488407860309,63.93444600623241 L320.85151317204156,63.5465713049272 L320.972918274112,63.65664805646644 M345.5000315812499,45.0 L346.8089598117655,45.574722420509026 L346.56228080041944,45.30356165833622 L346.41813457141916,46.94377531391903 L346.32409621287786,47.5517421955751 L346.5160086551151,50.465593936697815 L345.6163222397381,53.341024620895446 L345.22174373510677,55.613774175431516 L345.25918214686794,58.18822754659993 L344.48776337029767,60.89418491458659 L343.95825327208377,63.23123652973344 L344.11495240017484,65.76181749525072 L343.7343371728207,67.08306361059289 L343.5835650153823,68.63509857757508 L343.9366599722333,68.94055477341081 L343.42275844844426,68.56581707160595 L344.0542620653167,68.63695432783587 M361.55859228232805,48.277834546561564 L361.5216444318439,49.059216410456585 L360.82331187093007,49.831619690423786 L361.3772327674824,50.116266379179514 L361.33719183521896,51.33471583711314 L360.9152382045701,53.49491146910971 L361.4044392491825,55.26253534147895 L361.4646025995902,58.19453293725211 L361.2784676584723,60.25856429017973 L361.072764967067,62.06618729611448 L361.4501006624031,64.09350208037034 L360.9006468652814,65.55304681055381 L361.5784284758024,66.3730615498538 L360.7319001466385,67.96078773423984 L360.46738621889085,67.74768617804075 L360.4156273027078,67.44142200192141 L360.3111265333047,67.22909775602508 M356.4551191351047,58.630894946980376 L356.93817828103397,58.59993894396268 L357.89188436625557,58.4390744828129 L359.10251538622765,58.49352856227446 L360.8004878514613,58.62503042250778 L362.7181136506588,58.39195556235493 L364.5338488889977,58.89420720617432 L366.10086861510774,58.29178864685683 L367.32211188301767,58.64448661840114 M386.7689730226866,57.930132245410256 L386.3746890855065,57.12085323376932 L385.3233993015774,57.52189097217632 L384.8063220330432,57.731730510957604 L383.84921492752983,58.50857504416199 L382.38380386294784,58.91039442108908 L380.89598883171914,59.945900711930705 L379.8577840447732,61.19229018541549 L379.75544329771253,62.52070220317903 L379.1881838733815,63.75426414776244 L379.7439290509652,64.87435229346268 L379.2739698242792,65.641167342434 L381.0424954424042,65.90606946169916 L381.46773909051876,65.712303363237 L382.95930404592264,64.81730306042687 L384.36118796107974,64.11600395940943 L386.0044676335955,63.25685609207927 L386.9377596081175,61.818953668593515 L387.3179655113446,60.294476470064026 L388.14625909595406,59.058088603354435 L388.70543200107056,58.028437242807726 L388.7811226693027,57.85495663933955 L388.82627316169135,57.57033055545989 L388.9365553106776,57.56567820155777 L388.92897320726297,57.018284921487435 L388.78103938727384,58.86382021108396 L388.5797114450555,59.3117572830331 L388.90322207717963,61.065734802723114 L389.0959247825688,61.792764582926004 L389.2340816452646,63.4437321904231 L389.1428098690784,64.51743969593429 L389.6662873089763,65.52472025924821 L389.88964731741567,66.182150117358 L390.83386653932087,66.08289334193108 L390.44489682779204,65.96218556653537 L390.5996579826177,66.31298609501944 L391.8233711242341,65.03160451782767 L392.4300832785667,64.47825344750159 L392.8466657340191,63.81844518040269 L394.06057327720464,62.08836336320507 L394.2902958966131,61.60692261144936 L395.1598866142507,60.60329037064224 L396.0941076516772,59.270662391925015 L397.1750306661687,58.740550496812354 L397.6700361955866,58.08960088940826 L398.64710216221795,57.81279264919199 L399.37574236185503,58.09491270551346 L399.58251707235024,58.41546074274871 L399.9736470371472,59.27384892887059 L400.37549168406304,60.40635690484795 L400.5685411531131,61.74390273162066 L401.07438598324336,63.37013849485319 L400.72303893346407,64.155164036712 L400.80171458346206,65.65726553867025 L400.50347387665545,65.32345747365049 L401.06556818048296,66.33816735404966 L400.3702700790557,66.33654274878253 L401.11499468728937,65.4977683734245 L401.0448676918246,65.38879430392828 L401.02279970717143,64.35725474898636 L402.08322691811884,62.72192695179908 L402.93280327791626,61.66632357068971 L403.61648914690227,60.55500855032617 L404.0433538665184,59.2529622341594 L405.6707645467112,59.09681410788225 L406.922721949946,58.761645529695365 L407.2898136576939,57.79913523094509 L408.2994544188829,57.32247347935201 L409.4883931446068,58.61327797658756 L409.79976832509806,58.897404474526226 L410.9145737548149,60.49855228382448 L411.1454666281991,61.28288931854799 L411.7508679699382,62.66346909792028 L412.05988206353834,62.668863893855224 L412.405853386588,64.36038452673013 L412.02647847483775,64.99378377845608 L412.5908787792864,65.95236910078576 M426.5143124570751,59.536378961498805 L426.711344950627,59.98364955417705 L426.4307579264945,59.616974260710464 L426.0859954368317,59.61788535862398 L425.6886190719823,59.56734863824437 L424.53030822615665,59.447434539065746 L423.3398380655865,60.178633187322426 L422.626480447472,60.55553521823702 L420.6495957185325,61.841808225004925 L420.37892782788265,62.509446853922086 L419.0218664861586,63.472539013714766 L418.9718095479443,64.72420051628967 L418.05954270720883,65.59748091864186 L419.05879856421404,66.56538575612831 L419.8104236434856,66.88491005391208 L420.92061899488147,66.74822088932562 L421.92096190112545,66.56669933015237 L422.91482604535645,65.24697341722643 L424.9775935462487,64.15789349217332 L426.089369405331,62.00195100800818 L427.1072554721104,60.64446376318012 L428.5049311039353,58.62290397321255 L428.5897521791693,56.74967211558071 L429.9614989365481,55.47044311874725 L431.0707186753971,54.067395381900994 L431.5421080140525,52.74229091936521 L431.5015383445624,52.463252016249065 L431.9437318255368,52.03483645194392 L431.8411724579694,52.21787044072859 L431.6368712199917,53.61157456559259 L431.14175058384,54.0388406937381 L429.9251581247278,56.24285069589705 L429.5114712987578,57.75678496142384 L429.3468166440746,59.88875301198531 L429.00146860840186,62.18509567969194 L428.91407386673916,63.27935676637626 L428.69224358635836,65.0022334227996 L429.4755488991999,66.14678763895479 L430.08217544365186,66.69779946843921 L430.2386225613519,67.1091314511146 L431.123361120449,67.1242640535915 L432.46983242483,66.8211625599657 L433.11765363890663,66.1514707663024 L434.44692145854674,64.99969568532573 L434.805006230593,63.24797055716797 L435.7876811363561,61.83401673168204 L436.4990056661701,60.94279018627772 L436.95282954282834,59.91751233679691 L437.27960596615833,59.2362873645486 L438.18693176289173,58.277792161455 L437.5575370748936,57.85683411968297 L438.05111030380544,58.82909105706862 L437.4743843646621,58.89146852167159 L437.0208655912613,59.51156483031011 L436.3301410115089,61.457853863423864 L436.7443020457623,61.80148010154607 L436.27716933379645,63.253449934313295 L436.5841821125167,65.4386161354491 L436.59671096767886,65.29482318166652 L436.9457527564715,65.8803145257225 L437.6184112872662,66.72073907803322 L438.73372761724397,66.32574460997822 L439.82350545644726,66.14145144948102 L440.6483800158908,65.04047815001196 L441.1648205343097,64.17912068689243 L442.3980234031528,63.193690420660815 L442.8382840682307,62.26524421158174 L442.6685336877604,61.38993218275876 L442.9397209899291,60.36004850694084 L443.49340097175957,60.39201572727124 L442.9847598079866,60.704692383394836 L443.29288557984114,61.34157336851298 L443.33643728070626,61.8682865739123 L443.3968631826226,62.12779019262358 L444.0742302324045,63.38697118479062 L443.9240143401431,64.48129354475711 L445.02968424160406,65.81062329358411 L445.17121587607346,66.26357892907656 L446.1260603298515,67.0520881607776 L447.8626514689248,66.1505613900434 L449.51438997180594,65.62749092770558 L450.51583462138524,64.62971131292332 L451.0864419758658,63.75317244990725 L451.6050986686487,61.918905454644715 L452.086763691274,60.52588029465439 L451.7366049016787,59.372936127969005 L451.3130847242941,58.06033251355376 L451.3485950132814,57.653561657382724 L450.98593386088305,56.73287055857477 M459.1010471126002,60.56700329325797 L459.13076890181924,60.66494525404524 L458.30498344551233,60.947213141673174 L458.9190828534365,61.616323935188916 L459.1276918195704,62.939370251812086 L458.45887419337043,63.3794074516114 L458.62804288018356,65.43058179845372 L457.9243361084648,66.17341365982871 L457.86277408124886,67.44890693733608 L457.63166185536693,67.83931978886356 L457.6663233640595,68.09017533167896 L458.1663829347676,68.13361199122485 L457.8207480212084,68.3038428843639 L458.4467143368088,66.71300539677134 L458.51469966490913,65.88115444300809 L459.6050558922126,64.62524869998589 L460.41081505693455,63.33917415256921 L461.1296734004153,62.14661907542397 L462.25828472575245,60.872386605362244 L463.68210035683785,59.64330633237582 L464.18604551517683,59.80124905132013 L465.5067513212281,58.98873488831454 L466.7390467090678,59.60588958776454 L466.84280312725514,59.52383337902148 L468.9497920014205,60.34141674891999 L469.0649303468723,60.526580368047696 L470.38004150235565,60.34448985217961 L470.38386043288915,61.500689373372616 L471.0574216151417,60.9511595611102 M474.7918733194143,57.13551594119074 L474.4660793724976,58.005868676550705 L474.1338854959664,58.408480627129535 L474.37748322681966,59.27669899200514 L474.0907087807441,59.87095766291664 L474.30631644351797,61.24500539425548 L473.7366304378321,62.78090376278566 L473.9779841657115,64.47745104276817 L472.8064030595017,65.6444739277544 L473.2775461690636,65.73346131121538 L473.1394040636402,67.15657837127029 L473.47361764242214,66.95620993265608 M474.6683542528996,49.48228210501593 L474.67795322434574,49.69026490242118 L474.9683731098946,49.22923179127561 L474.8839965509121,49.585315018093794 L475.1169899112989,49.066575410580235 L474.7181717849469,49.83887210496232 L475.07039149308537,49.38836203958353 L475.01073537541413,49.7410803373249 L475.87657172359184,49.40373381676767 M488.57364120852196,46.7372478144445 L488.1695798739644,46.85653719819323 L488.24922904766163,47.636815975225645 L487.3293315393397,48.78168607670626 L487.3678032077679,50.825101701955035 L486.9807741812964,52.89834269235285 L486.8734109089336,55.20968849601348 L486.6680807517555,57.72955998848197 L486.1705148820613,60.54104498639787 L486.3213175396859,62.78976693717235 L486.20558772040033,65.1756199430377 L486.2113773269124,66.73081101954965 L486.2794074860136,67.73755086814516 L487.00331265511943,69.11271572022598 L486.69030543718225,69.00703155713023 L487.13570708915665,68.65692431963606 L487.2016401236225,68.19828686851103 M487.60876221892715,60.124146889250824 L488.85563673271065,59.55460784473091 L488.71277344087673,59.504909062615525 L489.70082791130335,59.61538887378235 L491.3450539655132,59.467720740619896 L492.86608354762734,59.65287997569061 L494.7110727358479,59.34662251843987 L496.5917064270385,58.8533292631788 L499.3973771272722,58.639620740466256 L500.7583134931599,58.95740914757921 L502.33720479241106,58.85364083714799 L503.28517382100017,58.49455731457051 L504.3404861292421,58.48880907049881 L504.3659964277357,58.84617965939455 L503.98677537112997,58.875074412946674 L503.81788677037036,60.51529167501569 L503.0851579432358,61.22093901369095 L502.17450939040225,62.81438863998238 L501.88508125921953,63.81799089103226 L501.2172431710329,64.77334560775851 L500.83394522641504,65.86447893763349 L501.57812732778075,66.69071212511865 L501.188131436233,66.91364740092459 L501.82649077022734,67.08964538850506 L502.06251158052726,66.18024899466397 M502.39781835509916,49.43823562901401 L502.460459216308,49.34600896564596 L502.5925255445245,49.328848041057086 L502.7442246161593,49.380758484979594 L502.8656544865105,49.49573012510752 M505.5981289246539,58.14531892699442 L505.2484186087414,59.25012896718258 L505.5056694448465,60.29374949576808 L505.8054637141331,61.568837771961796 L505.6769783044489,62.68829794788262 L505.70895328183076,63.5609441227353 L505.8260630702247,65.27439045719126 L505.6626297502112,65.57063978425138 L505.66790037592443,65.94490292880901 L506.05194945226015,65.31664898029094 L505.9860999787021,65.12341038340955 L505.80414076283023,64.24124501626227 L506.00254947607743,63.72778079657682 L506.5011112340469,61.555017271873446 L507.80766407299757,60.715694551758745 L508.5575911916608,58.907029603281416 L509.2531984533259,57.288801589109745 L510.5121247260695,55.8471790015284 L511.5812655064834,55.653361470542926 L512.8266439504984,55.11337156029902 L514.1307358753829,54.83374319829793 L515.6388643504451,55.540470518589835 L515.6279846325604,55.360639910798575 L516.7912808596951,57.107226578983266 L517.3670013566609,58.050553780866444 L517.2023297608462,60.20497687628841 L517.5388104057758,61.33807029067417 L517.3245617676245,62.089761151296585 L517.1331310381349,62.952805187358024 M531.7895356892163,59.34250439485053 L532.3471879255915,59.36671872611561 L531.5686155386081,58.745437059840796 L531.4825363200008,57.87814867333937 L530.5856322463336,58.585685611450195 L529.4285097418533,58.313416675442674 L528.5341770925816,58.749542507969345 L527.6119964541875,59.321561839573484 L527.3124085926279,60.147453451006236 L526.8662464459654,61.02980213076407 L526.3899834124668,62.224078661614286 L526.9079729312044,62.05540046129553 L528.0409340709206,62.68956924457578 L529.5433465104838,62.32667685818966 L530.5482523680919,62.375022793094274 L532.0774431925076,61.536868923555105 L533.6413516561421,61.06125405569837 L534.7439027880066,59.9859209884872 L535.2708016621649,59.67991220940438 L535.4827038483818,59.19280879915399 L536.819670902609,58.685506704186615 L536.6219212514798,58.17985403511305 L536.5816697855304,58.55626073795975 L536.2822485137614,58.713699101047375 L535.7171508430017,58.83162038111117 L535.7054600797829,60.44318286661005 L536.0540765461976,61.37406892437086 L535.4832806226999,62.61585937016612 L535.0000613651756,64.76596492150298 L534.6231266587648,66.6018238726318 L534.1478860851877,68.70156742238237 L533.7544126233927,70.13004578079921 L533.5398370958562,71.32704847584789 L531.9786208661359,72.58437910672596 L531.9745343253087,74.05526139207973 L530.4629359805452,75.16141049157932 L529.3887411175588,75.4915291396139 L528.021872613211,75.52804380666376 L527.11557500595,74.73135617255593 L525.3089875845907,75.1757982985026 L523.4390124567838,74.15848947906997 L521.9808202646118,73.09280188690123 L521.6639392116299,72.3575681384644 L520.8802430592576,71.4370643137377 L520.8589280071557,71.01877312615945 M560.4416885300066,61.29706846567974 L560.8729566909157,61.3560627415948 L561.3098683500285,62.23654225547335 L560.6696996717424,62.345817773686036 L560.9041690638946,63.17731600808602 L561.206285815278,64.79262025946238 L560.8487762545295,66.30526154035653 L561.0176217113648,67.13609516465617 L560.5769922759737,68.7808328946525 L560.0349562713265,69.52779561785594 L560.1856572721282,69.45172569919426 L560.4487569023983,70.24476185116194 L560.2662289500131,69.7192954243938 L559.7446613981839,68.90795392967894 L560.1416750646341,68.32039302777979 L560.6073642967709,66.58013572306143 L560.8572415852277,64.41050903383301 L561.6271086771828,63.08693138531474 L562.1247626606748,61.69530093639379 L562.6718938714905,60.533737731834094 L563.972466593673,60.25768460974581 L564.8661776336808,59.336980931675356 L566.0803180957964,58.67394591361771 L566.673589305341,58.508565657598716 L567.8562528859729,59.21006783551158 L568.4610863458864,60.05394316496183 L568.3803520744826,61.61209928807515 L568.5224684614201,62.05067920979352 L568.7848397143688,64.03319885436633 L568.8665323650922,65.35771263940515 L568.5990939673371,65.40065712885477 L569.6271000942428,66.36351748148242 L569.3334073506678,66.24478957938148 L569.9544133441821,65.48241294431384 L569.4207035351003,64.88173552543796 L570.368150994076,64.0843741252656 L570.3785687946565,62.89098295121679 L570.7196578149252,61.410596015592574 L572.0046538916624,60.30625779438 L572.6057898771736,58.6575913198751 L573.5270652218356,57.609356650085964 L574.7996762492553,57.06212589453296 L575.4066499648542,57.66975738983974 L576.447277082172,56.56022825351021 L577.445501380764,57.5902413420705 L577.9932072114968,58.68106762208781 L578.9280487303982,59.754972198564055 L579.9287382115305,60.83174533696929 L579.4542376037984,62.165819476887684 L580.2288583241905,63.24474431989721 L580.8106205517323,64.35500765411496 L580.6322937295542,65.4070752165674 L582.1177432113279,65.96199769859702 L581.9643057611048,65.62611157005846 L583.0959522982197,64.66305087260685 L583.8648011846526,64.27941316639256 L584.4212767206776,62.61739048965903 L585.9194488820598,61.197525411902085 L586.5964731488469,59.82848615772657 L587.3351535219335,57.97107522022484 L587.4505900841212,57.45773507129673 L587.9906995347742,55.88156591134172 L587.4995417962913,55.039764521937705 L587.3323392978555,54.42833824681636 L586.8326821129904,54.64390442535107 L586.2799827731901,54.69005097408405 L584.6352684018282,56.033032830116774 L584.2038482896892,56.69212185666186 L583.0519696378343,58.394462045833556 L582.8997049255141,59.95907057726282 L582.4406231947161,61.88129420059961 L583.301860036587,63.0551450970128 L583.6205226165722,63.85831155370167 L584.7046381692035,64.6345570275433 L586.3238818297066,65.94238317521956 L587.4172957702798,64.85213714561826 L589.389576585161,64.49107062708876 L591.178124437042,63.625458997315974 L591.8231578194619,62.59545489229821 L593.5462314857887,60.73829543763315 L594.8535514431462,59.3936901472155 L595.9214808617389,57.95459934060392 L596.7155542134186,56.66984896687886 L597.4960480219839,55.33007536474091 L598.2942917017596,53.75350271478013 L599.14606523921,52.67150295783533 L599.3982325086426,52.576621823416154 L599.8517076516306,52.125915395355875 L600.6439906273329,51.84270528940519 L601.9280067542503,52.739490130273914 L602.8857311199135,53.53694660983542 L603.1894900229398,54.289856054959536 L603.9882315784096,55.181023128019596 L604.5008989342298,56.133895997363624 L606.0984934145758,57.22908888666434 L605.6553741028224,58.48824368220382 L606.0535796029316,59.37574070745519 L605.3152580067243,60.40722989780104 L604.2098426582209,60.161663737395926 L603.5387564892158,60.646243944664654 L602.4327038953074,60.837352666518896 L601.1856647861789,60.865348994544064 L600.4532548312683,61.212358442238106 L600.0081774818053,60.74391053707374 L599.6350817707597,60.772386999537396 M625.968284912169,57.71589702693582 L625.4635801266663,57.97478673950194 L625.1898384216631,57.544171808520055 L624.6129391783771,58.252750599499976 L623.4954101277833,58.60516508818777 L622.8865800859445,58.56520517311435 L622.0986568687069,59.47084950695467 L621.4986530815049,59.33112267522647 L621.341567969036,60.922862334073045 L621.4887009263463,61.50943177055795 L621.8879323590203,61.97257395431705 L622.9616803954335,62.780662375549 L624.1788813686446,63.066399845587256 L625.3396160810386,63.967515526579064 L627.3274637540148,64.72769478834363 L628.2141188491432,64.84549747313234 L628.2725768341915,65.49308320592004 L628.7524998305563,66.25804563592169 L628.2426631578345,66.3659623239684 L627.5509017170858,67.15054338019397 L626.3233879042134,67.30897963331012 L624.8198222096569,66.86411432781564 L623.2315104957198,67.62658584548535 L621.9567818127865,67.33511315114555 L619.9130818046297,67.29731090894698 L619.5268626606794,66.19739814142754 L619.046062552342,65.69608274479084 L619.2940459228325,65.43048333994112 L619.0864284789984,65.4566738735882 M634.9140795508919,59.87649728246384 L635.2555446285361,60.031373032153745 L634.9979463129566,60.348285425405656 L635.5187532762355,61.465813470697576 L635.5402906786368,61.88576084000076 L636.0715082178143,63.599164544951286 L635.7440529470665,64.88963857171616 L636.3938720319045,66.77493004888755 L636.1259405565615,67.15879005792091 L636.5358679997677,67.37814174473934 L636.9835513854038,67.74532131996622 L637.8114175531242,68.45154638523796 L637.5610956218188,68.5161533476655 M640.757491651871,52.57033516959483 L640.8162875241756,52.4518534530888 L640.9240020256881,52.387659386716095 L641.0410093177967,52.38878079271144 L641.1277376412752,52.46625823765681 M652.5623994069449,57.65003531850939 L652.4785412392645,58.488123187556276 L652.1078640746542,58.91419657635121 L652.0612207069247,59.80812615938422 L652.0056717961601,61.45703359704521 L652.2423441310077,63.08865025922919 L651.3179228539277,64.1695945129712 L651.4480546815016,65.66417713644427 L651.1523250551865,66.66496014401721 L650.5531636807685,67.475133535425 L651.6351641080134,67.67042531799751 L651.3078852364002,67.29276954965684 L650.9951380736431,67.13667358789266 L651.4939612400768,66.54254522742697 L651.6745321466036,64.87856869021513 L652.4924607139843,63.617278118655264 L653.1297750718958,62.10587944493826 L654.2074848099093,60.820482570286714 L655.4646976846415,59.20628901482524 L656.3435041819334,58.749487622956664 L657.0522021206615,57.69595603770052 L658.4324550115078,57.618313642242114 L659.5263625310985,57.19149883994625 L660.1975213208798,58.05990481701581 L661.382712563436,59.050133261537724 L662.0213800849298,59.29712737019976 L661.8426494275279,61.470943814452745 L662.6931417574269,61.985674964510565 L662.5088965118872,64.04497095457225 L663.4193027258806,65.21036766484575 L662.9458266109988,66.0477677554564 L663.613278617241,66.35586686852939 L663.5540814933471,67.23583943881624 L664.0398299650825,68.33074573415693 L664.7062250682699,67.82902702249592 L665.8779551394822,67.65990858531579 L666.8370289926911,66.53772391909219 L667.920243223352,64.90352058182123 L669.220841097926,63.96175009001478 L669.73483325289,62.44118360886405 L671.0376043796358,60.418392849582546 L671.0406738932738,59.97806599964552 L671.4207622070069,58.25572564691957 L670.733187461126,57.70098345113785 L670.5687278514415,56.81152054732512 L670.2468267774293,56.201311464244064 L669.3967383708376,57.664292057883074 L668.4285239811212,58.66263390841045 L667.8085589661264,59.23126734125093 L666.9778647892825,61.02306809001 L666.8726570270729,61.72929655270813 L666.5829962196239,64.26646030514011 L667.332127334658,64.90329632502738 L667.9640317348462,66.09663556324698 L668.9789037650808,66.35435959366865 L670.6174335022496,66.56519108946651 L672.8834368618639,66.76209296077538 L674.3666860792773,66.55115483631823 L675.9629669677832,65.68384276121476 L678.057141771263,63.97605828779495 L679.555815361196,62.91282339357057 L680.8134583112221,62.0495595320572 L681.4906665553722,60.67990420996414 L682.1665157908288,59.18090355381487 L683.2532584790796,58.720678698839606 L683.1479358629006,57.15908359580146 L683.6527498094646,57.8797450562345 L683.348901848096,57.14412873591044 L684.050017443041,56.65502817135778 L683.5126634458579,57.23186111165038 L684.0034704513553,58.17331122016127 L683.6537148122779,58.933828307788545 L684.3139912432938,59.687585847200964 L684.5664719204889,61.33860033892244 L685.4738666631309,62.11616340602216 L686.5340050651931,63.412283452547165 L686.509371231488,64.34655429747696 L686.9788625993747,65.73661230513538 L687.9336421876106,66.71058845861032 L688.2016060357379,67.074293791083 L688.2613698773548,67.57952141124213 L688.1985692767245,67.62649893596513 L687.2896919465699,68.30308152689393 L686.4032791184726,68.2298135316355 L684.9955160794939,68.02109364920142 L684.465970741346,67.6007927776251 L683.149580319834,67.41839888623863 L682.10871951729,67.22862964478495 L682.117397282451,66.48274944357539 M704.680818675863,60.41980096913764 L703.970858363575,60.41379167859919 L704.269886211064,59.49830705192432 L703.5455429167799,59.47014006826515 L702.8126819237559,58.621188252934964 L702.2320900288237,59.48332970816324 L701.0836354534636,59.08211946368213 L699.2416939131909,58.78985805023735 L698.8801920859318,58.911202423332796 L697.6440686296595,59.41647540598022 L697.7594985953152,60.511188289577845 L698.4034368934367,60.813504494091525 L698.3315565094748,61.8886091247432 L700.2459146250552,62.877049288391206 L701.4147283155843,64.10010186557939 L702.5064949757899,64.7755458111149 L703.7519882274146,65.91244769080099 L704.9818085219022,66.70586467676668 L705.7568933184814,67.72936210534243 L705.8065484328332,68.01039924624527 L705.6425299110246,68.23240336902785 L704.9250106666397,68.88378766994543 L703.9593283067397,68.89013269086999 L702.3718975111994,69.47982208792546 L701.4211345281517,68.75288258903421 L699.5670806520393,67.80981652310238 L698.2374780058261,67.00722185662757 L697.2160100289011,67.55503782400069 L696.1224036058838,66.65358975860802 M725.7087563954927,56.838430906671164 L725.0188397837978,56.798989136783774 L724.0561198552452,57.32345570917871 L723.0021217467835,57.978850652190076 L721.7590539392771,58.93285858705817 L720.4165398526261,60.50236622929871 L719.3028175409136,62.39084658369169 L718.8685026920838,64.26857803069653 L717.9101116982008,65.85166290955718 L718.5494632907922,67.11577934720326 L719.5793193611331,68.09138276264835 L720.5069685276939,68.94280478710003 L722.9928590911743,68.81409331161855 L725.788129585837,69.07335443021601 L727.479900502607,67.77602417786707 L729.9544612002564,66.56366025458696 L730.9349018909402,66.18113074592426 M747.6038298883055,62.83492910796782 L747.6044814940111,63.05267118649642 L746.9813342227837,62.41213266671863 L746.0974643492771,62.69826363676633 L745.5172579761661,63.49253253953884 L744.3030673814718,63.42908174541079 L743.2690037241915,64.017880554336 L742.6195550985025,65.4851234798495 L741.0564413461339,67.01846687221041 L740.3172498756925,67.9717201157077 L740.2777469039006,69.24799752579877 L740.7683551109011,70.07981316645164 L741.6224359788715,70.64459883480374 L742.2507304012879,71.18750423931439 L743.9813062358082,71.0798852284444 L745.0256324912768,70.31328735751079 L746.6465038961164,69.32339751462676 L748.0725258425671,68.2075068527613 L748.8122916386884,66.96516406912492 L750.1378095624865,66.11203229077569 L749.8649424901353,64.6828864577781 L749.8420962164387,63.02268107969408 L749.6852196679243,62.66674955387737 L749.3350966774531,61.55282369851724 L749.2389211321755,60.96812065237307 M762.1130912960336,59.64215585153809 M768.948542864258,61.23804293097156 L769.1718462446694,62.97214727977634 L768.9036751411292,63.10160937010647 L768.8375163584045,65.09335606785032 L769.4091154500019,66.80085909089175 L768.9393998279749,68.33162285697553 L768.2192557457721,69.26603393672485 L768.1204166346628,70.77735652689344 L768.3769081179174,70.83355295249946 L768.0679111270468,71.2982579986992 L768.2641750664546,70.69979784274558 L768.5864813710494,70.34806301448444 L768.858080971156,68.51609440018476 L769.4903000651753,66.7765893297703 L769.6993593893991,65.320312765859 L770.8501628670348,63.35617922192448 L771.4369964742936,61.523500105484345 L773.035812370743,60.625239238567985 L774.1721667520718,60.42267175985911 L774.936548246496,60.49315740413204 L776.050376326934,60.27694139859301 L776.7939921082781,60.97615554253442 L777.0465549729782,61.687278763877465 L776.8905233138343,63.51237392620077 L777.4996746808032,64.41737832737934 L777.8666686556084,66.24567680694074 L777.117578225009,67.69023342812835 L777.297149104526,68.33035006997108 L777.6776659553176,68.77587030582318 L776.8593325444837,68.36950253381063 L777.2903936094602,68.52945916871057 L776.8560251871787,67.38078824344821 L777.6568643405898,66.1843100422137 L778.3266149338255,64.51864335019081 L779.4259702760236,63.12853134662469 L779.6912014591263,61.96059817505347 L781.5240041849348,59.971919227290016 L781.6712706526176,59.72333044117564 L782.9076967110763,58.51342337452695 L783.5720593373068,57.991774415550836 L784.0618268837715,58.052979072813216 L784.3724902143537,58.97409165856816 L784.8886683419738,59.43282443845941 L784.9321770815747,60.857645679868625 L784.9911493468932,62.24179157421241 L785.2772704104456,64.05020135493692 L785.6604490271428,65.02797179415253 L785.8831027208913,66.00724824136795 L785.9741785657342,66.42520793634215 L786.5513920811044,66.73428922821624 L787.5407832404838,65.6447067798422 L787.8376743123146,65.561130121153 M799.37175785685,60.714017153302095 L799.294898341759,61.58438252731936 L799.2464161609968,61.683026399814324 L799.3108701449179,62.17629018542409 L798.7880571442307,63.646369116575045 L797.7269483447068,65.07100517646798 L797.5731685235259,66.86504560548069 L796.5918031863513,68.86815559880905 L795.4862140638048,70.11462066580819 L794.7311125328794,72.25932492576439 L794.1804858718218,73.9820504057088 L793.8176334571455,74.85075628107816 L792.7820088352554,76.25178895596734 L792.7790534994809,76.46549870409979 L792.149866140253,76.04935346123972 L792.3647338519257,75.58994893463162 L792.5622111195199,74.66801644218502 L793.2243032775722,73.85415380191448 L794.2157580555835,71.61167775222589 L794.8919567864558,69.54730103845175 L796.3635932473857,67.62579796380265 L797.0202030711527,65.66264929072793 L798.5929065984986,63.93346097727949 L800.1695189420099,62.40292790001324 L801.8927560400795,61.27946590214995 L803.0131393406849,60.42834696232722 L804.3677521310345,60.484503447543204 L805.8589266674195,60.31947914463414 L807.2984623587519,60.62448838016864 L808.2158287264757,61.680688549758344 L809.0423644484232,63.2796946091298 L809.1611534190264,63.94360239256959 L808.3957919815631,64.9907541079558 L808.3368046320242,67.00420981461912 L808.0736848914288,67.36768326543579 L806.3015485342979,68.19448127638599 L805.175747969104,68.20026012277198 L803.8577046034294,69.28597973691653 L802.5120093533288,68.73711029808159 L801.6661617288174,68.4304122712996 L800.9795791379287,67.78033439759282 L800.4300638754556,67.664629491071 L800.9772593298197,66.29090202414417 L801.7139869444133,65.57465421847726 L801.9704715094819,65.18187540625064 M824.5529758432593,63.41265396050316 L824.3175447807345,63.8594667402284 L822.71124739903,64.13375356283211 L822.4376388852874,64.00006965445316 L820.8449384032027,66.37158477556508 L820.1928988325923,66.29418465204724 L820.3325669857212,67.56476852611377 L819.302269288146,69.22718621660968 L820.0143273046064,69.03176542087253 L820.2710825334196,70.44476362246611 L820.264836390725,70.2142478986046 L821.5222504639388,69.61765322377703 L823.2942873957583,68.89312950610524 L823.9989182097078,68.6090333789615 L825.1463715598217,66.9831522242697 L826.0770270909485,65.2678976699032 L826.7387614416881,64.52167004171318 L827.0579587345459,63.666139789452814 L828.1170469753762,62.403478536876726 L827.939583039113,61.58365584702666 L828.129972876431,61.96683072930506 L827.7221709666336,61.06265645122171 L828.1406931998519,61.77105962893703 L827.589495669068,62.603729461135536 L827.2209725545705,63.36825187812135 L826.787758936474,64.57765680856994 L827.5209814085239,65.16179307871538 L827.7054604639349,66.53968301664278 L827.7610414419631,67.52088516267001 L829.0987283038465,67.40779117274076 L829.9051437298996,67.73215496880562 L831.5852480482414,67.20381145994443 L833.3682397005338,65.9946618958285 L834.9023990122615,66.18388001174465 L836.632994218439,64.6718701824559 L838.2515041670894,63.22126716432695 L838.7197884406909,62.377205579959124 L839.2067793980797,61.30682597631936 L838.8825867252332,59.95304263643955 L839.6486589763266,60.14063962451291 L839.0061482605971,59.64536943187143 L839.8473972679525,59.68064638725219 L838.6043248414386,60.74632261616541 L838.1801479280047,61.75601486199083 L837.5697348138859,62.74593321980262 L837.2550020659161,64.36513633340113 L836.9982748493525,65.36456900567461 L836.8986066552089,66.56081776133877 L837.2160772887331,67.12971376147532 L837.3484029062364,67.04874890147725 L837.4291317638321,67.27675777366795 L837.0963307982578,66.95072974906056 L837.7728501080702,66.4305668905476 L838.9644477618436,64.61620543241577 L839.1189150236438,63.81923305063345 L840.1100740922615,61.87711197181692 L840.9760312595866,60.0441797088673 L841.117972316819,59.93234480520195 L841.7697646828036,58.48086208396131 L843.1887740028122,58.40905546387783 L844.2450744862107,58.13822382166339 L845.1235944576171,58.25781967863955 L846.7366330330927,57.68526390318537 L846.5601710006262,57.512676708540354 L848.2422540289,58.58731591723517 L849.683682374252,58.369752443436525 L850.3313123001309,58.549118183398086 L851.073070694803,58.76130363054335 L851.5562924300044,58.344657106051685 L851.6566400783091,58.67599800030432 L852.8668110188377,58.84071301417784 L852.1907628957723,58.13605963110535 L852.385940992495,58.67845921318627 L852.4290180048332,58.507051821749386 L852.5149314201229,58.447982903238 L852.6345562446057,58.64456251000946 L852.7200536153265,58.40435350628645 L852.4646638484397,58.82813179843038 L852.0778827722128,59.03659479453277 L851.6489348536016,60.031599841378096 L851.4843033454366,60.63351184966471 L851.3325530400017,61.19993317677907 L850.7386088057368,62.39719112997736 L850.6297682834842,63.54600728859579 L850.7390163126391,65.00694341300857 L851.0257377300653,65.84401163799723 L850.7557628068001,65.50072071348696 L851.2486953406225,66.67273234382763 L850.9494745505334,66.52929761630898 L851.4624161221362,66.93180923476021 L852.7706965046704,67.21083957493757 L853.4468427115131,66.70702593649152 L854.7073561753431,65.72093497093287 L856.0743142306084,64.16482722864285 L857.2714380873598,63.164353428063954 L858.6099034883279,61.633176905492576 L859.907248345217,59.98014261678871 L861.2342479952616,58.79399856851977 L863.0888313226732,57.543501803426764 L862.7284586045097,55.6941594413223 L864.6111120370409,54.53610426437378 L864.8546019102238,53.688243162564454 L864.9344559346847,53.130131088591355 L865.1650509036086,52.62938271828017 L864.9757269737673,52.908183380099764 L864.7602188233308,52.80378342480968 L864.7522260884383,53.93096860240536 L864.8801726852631,54.81293612982927 L864.2556737612107,55.94459819129506 L863.8814089624237,56.94909745623362 L864.5159368341605,58.833523096359855 L864.4365248828054,59.93608046232351 L864.4103696119615,61.28340947501293 L864.141896844861,62.84897988266137 L864.9802102428122,63.09953355320031 L865.5062023690704,63.18615664353362 L866.0063817056617,63.31885345771163 M870.6856474894231,53.85645281636283 L870.7325487645536,53.86869788265547 L870.8458145718217,53.91160898185646 L870.9819558689497,53.96802246296283 L871.0972699237126,54.02082576641152 M883.2787403397895,58.537033822175864 L883.119521552373,58.50529275700688 L882.7612628694485,58.595775867009536 L882.3270549378603,57.83643797828346 L881.4090690903015,58.747650607266095 L880.0101654176442,58.862093668162686 L879.3075821150142,59.98052405354237 L878.5830242944296,60.90118038582894 L877.7273061157209,61.730938130061816 L876.813402119674,62.723446498845945 L877.3399883809743,64.27244843677062 L877.3239908182707,65.35607438763905 L878.3789184305649,66.30773492910502 L879.4180865274511,66.30258994625075 L881.2935203675318,66.8996451940271 L882.7467027651537,66.6185346124467 L884.4452904514569,66.06489834057152 L885.9969756778842,64.7354103243776 L887.0055006092505,63.98816780324381 L887.8947607992529,61.97162442336777 L888.6969312517951,61.33814771805655 L888.4067283876138,59.47627131147806 L888.3700019212515,58.89260933823418 L888.0365803642949,58.52723897905109 L886.8822098368773,57.32825735365665 L886.0216282865986,57.28843509389597 L885.4376164879454,57.65273873065008 L884.6480421142569,57.42172540932392 L884.2176912918783,58.25345268133984 M900.3620675516244,59.607975490863645 L900.3701841855228,60.75475502086439 L900.3516688108099,60.85198422406359 L900.5418932718361,61.60969564914174 L899.9875190407632,62.87241373638065 L900.043999272017,64.17582857414394 L899.6299715519632,65.28613133370582 L899.3423703104646,65.54590211633128 L900.0629409329921,66.46371462978526 L899.8332326851474,66.87298297909193 L900.353760965659,66.70139036233559 L900.7811947497959,65.73292147641838 L901.3534932659062,64.98508844358604 L902.1363682000375,64.09574834914046 L903.1645454603726,63.30237390353861 L903.9987644098977,61.596359654148436 L905.604758232114,60.5901206233376 L906.740086291643,58.879984362761185 L908.0483441981224,58.36372296471638 L909.1999724612489,58.695467206729894 L910.1189426016489,57.81271424842642 L911.5820398869622,58.258171783336884 L911.6440288571049,59.11378940240221 L912.1600032877428,59.77944322859067 L913.3691506139013,60.83922844497048 L913.4190353846308,61.79592035123945 L913.6464122762981,62.758904038725646 L914.2503010122074,63.90206787037224 L914.4135195672369,64.70545185519617 L915.079362390792,65.6461698733833 L915.8055799953867,65.96521268924397 L917.0236598934879,65.60963339232718 L917.4335902887809,66.17169705515529 M928.0820130403824,54.06046842704731 L928.7096849113602,54.710607996536055 L928.4744760743233,55.02214082955847 L928.2979447799744,55.484772623018905 L927.8823900413581,56.919698774852144 L927.7357293901516,58.26060693767993 L926.5068430898505,60.033737067398725 L926.0524678389704,62.31989645155528 L925.6326336847872,64.26150839051705 L924.8829380508253,66.50246600836958 L924.3404252256798,67.41717945050107 L923.6250182931151,68.62590133262248 L923.8203449089033,68.95461158339538 M920.3223400900125,59.47527760487516 L921.4297626966041,59.156464165225984 L922.2319182001517,59.114046178711746 L922.7587652000472,59.37772344159179 L923.4555172752374,60.00097980672427 L925.5917490929611,59.85767502515435 L927.7124928307065,59.905981191831856 L930.0956192882678,60.004195756094795 L932.185754687964,59.66786061878261 L934.1044082974744,59.637203005064464 L935.946281160365,59.328405412132184 L937.6246244914731,59.7324411022349 L939.8098310836448,58.849947799770234 L940.5722092976611,58.73344762741666 L940.9753798634175,58.492879200218184 L941.013153952996,58.199764166875326 L940.5925713533048,58.195348895307156 L939.5569210274024,57.87730469535855 L939.2530495089514,57.74984703913843 L937.5262836349337,58.607149394206814 L936.4201864511359,58.59622154337529 L935.1364606882313,60.01382983961816 L933.9136926963162,60.74726332876963 L933.4400133712821,61.81835537503488 L932.5169688224606,62.42416275628959 L931.8426782975401,63.982873168467535 L932.7373632202488,65.55974071974981 L933.5231691562234,65.5184393710634 L935.2053107658427,65.85462505207977 L936.7829198451492,66.79195741001669 L939.2901016640027,66.39752991439741 L941.3138726769217,66.0725709656001 L941.8986189060462,67.1994740229148 M952.5246409975529,54.152135803559034 L952.3828426677363,54.24570836771065 L951.3551537019229,54.023544021455145 L950.8506976129432,54.73175739767819 L949.65933788875,54.95246747334678 L948.9911221588571,54.84488825819919 L948.0512478120428,56.17507600670364 L948.084346987658,56.72059399685114 L948.5315065394958,57.77783624468243 L948.4425609260305,58.66583340850706 L949.5096481665281,59.07694975599298 L950.9549359647241,60.369248034015634 L951.9532359309359,61.16851397327401 L953.3911996528253,62.17319715543214 L954.9898521239476,62.25665742183762 L955.6584701310143,62.8712680913908 L956.7410831688111,63.41700661383468 L956.7511694503906,64.24195670798223 L956.5913541778945,64.83562663076043 L956.0931467383567,65.59155557988005 L954.4253168381434,66.51336195058008 L953.220253689893,66.16787460956407 L951.0795445951077,66.52969953132714 L949.3835954664177,66.5897506040782 L947.5493870456988,66.15294851231272 L946.1631966572396,65.41797194415247 L944.5014118353594,64.99768159730304 L944.7931148569359,63.788815341389835 L943.5992402574558,63.65567818689296 M964.5605517545642,50.872924055273444 L964.6425830045642,51.129268850500495 L964.7263842740955,51.69580956857911 L964.7363940397205,52.6385986463379 L964.5850878873767,53.937331403906256 L964.2358447233142,55.548415865118415 L963.712834469408,57.39537784021607 L963.0781909147205,59.393540109808356 L962.419865719408,61.43546434801331 L961.8277026334705,63.394570823128134 L961.3707324186267,65.14767023485413 L961.0750170865955,66.60435124796143 L960.9353076139392,67.64815923135987 L960.8972216764392,68.16744443338624 L960.904729000658,68.28837176721802 L960.919621578783,68.18768044870606 " fill="none" stroke="black" stroke-linecap="round" stroke-width="2" /></svg>