<?xml version="1.0" encoding="utf-8" ?>
<svg baseProfile="full" height="100%" version="1.1" viewBox="0,0,1000,120" width="100%" xmlns="http://www.w3.org/2000/svg" xmlns:ev="http://www.w3.org/2001/xml-events" xmlns:xlink="http://www.w3.org/1999/xlink"><defs /><rect fill="white" height="120" width="1000" x="0" y="0" /><path d="M0,0 M120.75284770965791,56.45622071131712 L120.75249827017808,56.58388350246124 L120.74370200952653,56.73898918063707 L120.7284486483117,56.87295030058561 M150.93897496244276,47.548900032269245 L150.87954195814746,47.45687362992535 L151.08946034959206,47.266997138376524 L151.12931234019595,47.40594461653017 L151.31889091674051,47.98888388381298 L151.46795044311978,49.35667260996035 L151.53483978371895,51.262620873644 L151.5963177709755,53.445196062310046 L151.59135610025018,55.927538191772655 L151.37053476186597,58.462266938055905 L151.244968138446,60.73464321015782 L151.13824950722585,62.82693192645861 L151.19144698296347,64.43706667237211 L151.15482534861346,65.54814940908953 L151.23167585928005,65.68558240828132 L151.3334909837998,65.34486228131992 L151.58643629218582,64.08335989741329 L151.93203201823766,62.363047470879124 L152.38048738698745,59.98007280318573 L152.907353257315,57.51819126378437 L153.49148772904664,54.89086914436634 L154.11528338815717,52.40603878585413 L154.61709770437164,50.29517546270767 L155.0816817931499,48.59785560493484 L155.42494848732497,47.387536051238094 L155.70819178982237,46.92650977055478 L155.92772161299564,46.88259710214154 L156.03156747491485,47.54793060579577 L156.22441298996722,48.760645261855586 L156.71760936604267,50.26676625244975 L156.9168767656239,52.07936503699985 L157.3376861028126,53.63761737419874 L157.9069118521157,55.11493863249434 L158.25329684451867,56.105912063999625 L158.5977880873005,56.63159142569059 L159.05284772166135,56.557918620265404 L159.82785375156138,55.96357963821066 L160.84414046282996,54.864059659517224 L162.03218592771765,53.32934419897805 L163.53050234405052,51.65605745387418 L165.27424024978203,49.846877192090616 L166.93314086275842,48.184972410940865 L168.55953945884116,46.87350144197328 L170.1889965910073,45.849010890975904 L171.68035994008204,45.24910181125214 L173.1021986732125,45.322666184518134 L174.1139038207455,45.73449371103135 L175.22672270088066,46.699853866530354 L175.95525123532283,48.335290307329004 L176.2722771509049,50.17656863504491 L176.45473301131477,52.188630820563645 L176.3939333971797,54.37424288114336 L176.3040784249279,56.242529800160625 L176.04619158075212,58.08382787198362 L175.90272251755286,59.681489574473986 L175.8171328775873,60.90246566882556 L175.9638564395524,61.85986699395458 L176.0399974616934,62.28270531977818 L176.32262022490394,62.353918390283404 L176.45921380802935,62.304535942535 L176.7248967452249,62.197389577824545 M181.78974410693493,61.79356790991828 L182.05838228274268,61.6713976674547 L182.77891753200026,61.46777877288874 L183.66816239303057,61.14213220869345 L184.76335665726606,60.4767258568186 L186.06002858288963,59.767940931129466 L187.20762695194054,58.76206843690444 L188.38551989350174,57.84683886926844 L189.1308026938376,56.88550189238646 L189.55775645217813,55.884292947604955 L189.8137317854197,55.06207555273822 L189.54177090617787,54.46421358717325 L188.92649450241566,54.124175827054316 L187.9679179092509,53.99688340277598 L186.47938379711707,54.702715490801765 L184.92497063703163,55.605834415602914 L183.38399408674078,56.78361841657054 L182.19942108090515,58.33046439932563 L181.44612162620064,59.85556979513594 L181.14969484079685,61.348037214589844 L181.53863044887046,62.50784204336745 L182.23111696603326,63.51987666817724 L183.86992472448767,64.19663345610296 L185.55761747175444,64.51954394872612 L187.60581079199318,64.37332118090008 L189.77978372621553,63.860903021190836 L191.7687274527343,63.09372527033554 L193.4149318350036,62.38238736494589 L194.35173130569262,61.89295936615228 M203.37733018561636,55.55225446044852 L203.00622134165422,55.45447688553029 L202.69468872757244,55.35003791798349 L201.75228010154797,55.390320871532 L200.5564221587297,55.56056638380953 L199.3547225837391,56.1909388897695 L197.94388363032147,56.784008649641066 L196.76689342991182,57.57752035560137 L196.43981660411458,58.37406504968219 L196.6279290211088,59.02951998669963 L197.6147259912392,59.6623731436499 L198.91886699868638,60.17732700076829 L200.80965902181953,60.62400982615718 L203.10568561917756,61.065272550626005 L204.88390817580301,61.412755428822464 L206.39040709615756,61.85680296582463 L207.44590530674054,62.037843639383375 L207.87780391135027,62.33872888286815 L207.815656294183,62.496275735105655 L207.14374453177618,62.79509676357835 L205.88988697296168,63.22212722643026 L204.24377264220703,63.5747433513417 L202.4271330769468,63.737532304976014 L200.42542219115643,63.98330618886727 L198.57993610798465,63.9400841530922 L197.03969460291876,63.96835591338364 L196.15344561902646,63.696784473516665 L195.65503424876465,63.48486870991847 L195.4668052285669,63.36297451554374 M219.61765870306584,55.309272973962166 L219.3481951661622,55.03936658870495 L218.81398533914933,54.79710607318026 L217.93418156117008,54.71182960050882 L216.64001849888484,54.74986673829099 L215.2257022417118,55.06541304254873 L214.0648252783037,55.75138906960804 L213.12291351333505,56.20873407338434 L212.71177780362882,57.00245273764638 L212.96611346419832,57.58591673248183 L213.8383627727063,58.34704815921016 L215.53466642555532,58.741616288478816 L217.16337387111128,59.35959989478219 L219.08092842618663,59.78843171200038 L221.07599831567376,60.352592595327216 L222.69009943445377,60.849052186808315 L223.89620921501057,61.13433853056906 L224.70038168925495,61.605513035558324 L224.962961797861,62.03840419169495 L224.48360628657446,62.5361787278391 L223.45588540761545,62.86259227160774 L221.79396882364722,63.21177036483559 L219.9558055649414,63.60196616862898 L217.91615099103788,63.75380055863569 L215.80861998238146,63.694735736667546 L214.0311134167877,63.5155942134702 L212.55138908913358,63.26280356748506 L211.50284396738,63.0879281196616 L211.00955527883914,62.871658045761954 M228.47655576986955,55.5080444731661 L228.58208403477695,55.707331629305195 L228.63318213260078,56.09763686857018 L228.75924443818985,56.64380389777985 L228.5554748960662,57.71967906808304 L228.83666058611405,59.02353638663818 L228.66271117169646,60.256660713829206 L228.5149631406541,61.743330436122456 L228.48158466074466,62.97599785028597 L228.37600330015417,63.976749531072294 L228.39128474415008,64.42104136458111 L228.34942734478636,64.69371320199804 L228.38271412141484,64.55666345840888 M229.86571026262422,46.76299836048403 L229.89734700412373,46.634035101228775 L229.96946631336374,46.51913371645358 L230.05337907847044,46.44949881052444 L230.12041112363158,46.45633423856047 M236.00412582620567,55.267145088031036 L236.01864494007697,55.329578267215076 L236.22331876320456,55.59757452525105 L236.35216587907706,56.01692631293941 L236.37737403326656,56.959272584277414 L236.33837288334058,58.4038703638214 L236.14630130794842,59.84904602483212 L235.96446956280408,61.381764273787 L235.7403813692809,62.58875101381524 L235.6006316261678,63.61845548461194 L235.4997954094254,64.01986398455824 L235.74009233821198,64.00313709815875 L235.80159758404346,63.46048163889406 L236.1805217232759,62.56762634739382 L237.05555141909267,61.15333534192512 L237.98623142750773,59.672674049482886 L239.10432031233222,57.92154167111323 L240.57952145709154,56.392483029070384 L241.98278349606977,55.18978329788417 L243.32373913735378,54.34350264249685 L244.65112204593922,53.89284479635615 L245.761916694033,53.949452007548544 L246.73505869709354,54.38255155784092 L247.6351906334868,55.16925441931816 L248.28954480378508,56.33265539743525 L248.68549405475463,57.732944393051426 L248.9211734962294,59.23544072282976 L249.00667290320288,60.62769215981974 L249.03067634721816,61.885974061117444 L249.15677842842092,62.615852209103856 L249.31775987756953,63.16294429184381 L249.62978063369778,63.54451158966738 L250.2161904521485,63.29310741736452 L250.9326399516261,62.64446554078204 L251.85171903667526,61.87523767256856 L252.92565694857137,60.91305247279313 L254.13141104021102,59.81245657202398 L255.41491136486061,58.621081081596046 L256.6470995591752,57.52710447930157 L257.5340518410973,56.49131514553272 L257.9595562603947,55.7766535107367 L258.40171568773985,54.92008753845835 L258.17655953534046,54.43002569848393 L257.94301326088043,54.2847344991597 L257.2396993043011,54.2622921969639 L256.31030686855945,54.615643463710235 L255.08230561448778,55.182345066212534 L253.86636307225717,55.97327180509185 L252.72676745748623,57.06205940835546 L252.0191303305894,58.136005455052945 L251.60281189940898,59.32237165359886 L251.63706698394253,60.42019120483065 L252.25833195558127,61.31799435431887 L253.40786248336605,62.09761068142347 L254.96476469764323,62.59597851886005 L256.73087600507256,62.843561501682764 L258.70408084812993,62.56336828340903 L260.95526719317564,61.87626574861241 L262.91197829016994,61.219451838210226 L264.3060090913931,60.385117672553086 L265.2526523054329,60.05328609507371 M272.7106786268114,54.1480390604913 L272.4765573924167,53.81483761622164 L272.1541248389673,53.60108637486975 L271.402223942271,53.50629788251462 L270.4102690713123,53.51174773792907 L269.08602714584777,53.84805596031214 L267.9362389426583,54.12085069085574 L267.12671297951397,54.79349493809613 L266.56853931969,55.32627276855583 L266.3747297532361,56.25267744241945 L266.965522151192,56.93760485813856 L267.8043666585037,57.83682349786837 L269.1916785504539,58.81556470329243 L270.9262288968502,59.49508257730329 L272.75536130127307,60.332311766035836 L274.3978168411946,61.1852323730064 L275.7471872799257,61.730642579100156 L276.7477371154091,62.41658938384254 L277.4811746848328,62.9740167088883 L277.81946061471683,63.2932712575141 L277.50704810350226,63.633513031954955 L276.91910522673766,63.788609282536 L275.89573882611796,63.817492807530876 L274.4910235918625,63.8687966147171 L273.0217428995536,63.74365154659415 L271.0747283492001,63.50294315487601 L269.46396929532256,63.47965542723401 L267.72994986753935,63.22938312029704 L266.6143593573493,62.879757591497516 L265.68827521430853,62.70400595409615 L265.4099276466376,62.448087746068374 L265.430695106172,62.29811550259476 L265.6123924670285,62.126570272835124 M289.7069419995082,55.60276030453602 L289.3152979997806,55.384734060909175 L288.8553581311959,55.03407719023884 L288.08334681344866,54.62419438151085 L286.7462566157574,54.411753473517976 L285.3405818249615,54.50656666619736 L283.77217086770276,54.848471231916704 L282.6001034167424,55.37324180864771 L281.6338274680195,55.93981211026335 L281.0711836791912,56.78531922083258 L281.249114184814,57.6344796177505 L282.27474099098123,58.458409101004925 L283.61379878413527,59.181900394085936 L285.49854087902486,60.1342983411504 L287.36742868293993,60.93247085907071 L289.0791596653893,61.85830341172276 L290.540499556379,62.393931612758564 L291.23722539971766,63.01091226360616 L291.38860248964,63.45436315031185 L291.0305457452354,63.799860743062624 L289.9737861083129,64.14760021005961 L288.6584260923497,64.35242658314559 L286.8615998666693,64.52902341002404 L284.9638588942847,64.60083821524795 L283.18861477552105,64.47286309753798 L281.7715257098672,64.30163836608506 L280.87671934244565,63.986479657922075 L280.25471710165436,63.69748244811033 L279.91038150098046,63.47105304318478 M313.7203098709998,53.99419470402633 L313.5448185580344,53.65784600548558 L313.0394026526352,53.184826791831476 L312.38013074649484,52.61157925310307 L311.3238820171948,52.26214494229827 L310.06121826328285,52.26964003346077 L308.3489452002792,52.43834836711201 L306.5267478242737,53.10317286800942 L304.78632972164087,54.075552269406714 L303.1204922103328,55.48583438282487 L301.7175491690904,57.088036492663626 L301.109687036561,58.70547807409845 L300.76335280213027,60.583470241696894 L301.2224800417851,61.95869852604241 L302.19970369901347,63.24611703347136 L303.71341656505774,63.734583871137914 L305.7257354237114,64.04358399272222 L307.9311113103986,63.71627397523263 L310.1939601047897,62.95406103454138 L312.22243779715427,61.59352235205376 L314.0006824287738,60.18904616564878 L315.3946382719645,58.444765380136275 L316.00722843706933,56.570952474988054 L316.2484945122241,54.91441361115918 L315.9973418509974,53.27661296033198 L315.3699090998134,51.75404412619936 L314.4383250031058,50.53041707838901 L313.49901991860406,49.90763542245904 L312.8328965396637,49.51348508039576 M321.8577718820979,66.26454564479215 L321.8830093707211,66.25485295212026 L321.97554070282865,66.2304998296652 L322.0974713809859,66.20085616881963 L322.21098172837515,66.17529184172611 M330.0402761374549,53.05495933055298 L330.38733198335467,52.875775705736935 L331.00488585362064,52.28369968894478 L332.1838222294424,51.5981351615463 L333.6902815230668,51.18303576500086 L335.4019975967341,50.95967360721015 L337.07673584293457,50.97694043716912 L338.74074444420796,51.399260878182844 L339.9828980688777,52.08634838696828 L340.8124986801273,52.697850723539894 L341.1699073883504,53.60527302241473 L340.994764219743,54.822095705956826 L340.06259968600705,56.031113455142744 L338.50870211601375,57.452219949396415 L336.7806067085628,58.898643211448615 L334.58380821717356,60.206098075355 L332.6476203414759,61.55068993188087 L330.69276467573536,62.532074027872554 L329.31978429322737,63.38118045414437 L328.44449688481154,63.83055497930863 L327.9476336963543,64.09893231339099 L328.0763292247549,63.91410749955089 L328.6903564347058,63.663004025057866 L329.8266728558832,63.27579360563344 L331.31512288047963,62.77999921831728 L333.05996312453647,62.483805952483856 L335.1841363889373,62.428367051277135 L337.4261920674774,62.42859921781313 L339.40682381489717,62.51797420699585 L341.43962154236664,62.971464524051015 L343.0625174930947,63.55052557958284 L344.412822613555,64.23291579159181 L345.4605329575157,64.97323452368433 L346.0258827944692,65.51393997105241 L346.49362068907834,66.07812013076719 L346.6388162961836,66.32273010979426 L346.69426112254064,66.53261263295421 M357.2565083660552,58.993010045258906 L357.25652900453065,58.8785975203093 L357.28518918720124,58.844343452310774 L357.3491909220605,58.82137266609051 L357.19845932615647,58.77457898745409 L357.26483386585085,58.94529018716014 L357.12714331575813,58.84554026028996 L357.2609395371723,59.04429796979979 L357.2092045327621,59.167358333674365 M358.1300768558975,65.84281433189933 L358.0450429201095,65.85259137083908 L358.11656527526026,65.88799755120112 L358.17021568080827,65.67358187155418 L358.20235019283905,65.79306269320762 L358.256418589964,65.76867645848411 L358.30146222915255,65.58824219522216 L358.3272243909994,65.56858487432237 L358.2176463253625,65.6608103177466 M380.26491781748643,49.11210329737686 L380.2520588078426,49.0363046844784 L380.433675317492,49.23803729359242 L380.4639055668628,49.60106263986232 L380.2642362871367,50.487143134978744 L380.1632785511293,51.76728778694377 L379.7660087691743,53.41222098748563 L379.3167458373466,55.3766424352314 L378.70229921060474,57.521012676224906 L378.0020911184921,59.73358519584464 L377.3674880855448,61.81696268484232 L376.9879125449045,63.66874296427438 L376.6314305885461,65.04438995937066 L376.4290849831882,65.96322506470119 L376.5913984880832,66.42103468986674 L376.7309453820045,66.54166804739423 L376.7202452448249,66.32573510010498 M388.3257006783045,48.82071743956415 L388.4631366872279,49.67224002224384 L388.23228581433636,50.89803191648748 L388.010905550989,52.629564375772894 L387.6893151043829,54.67778197156064 L387.3568966740948,56.800843080571525 L387.05094211943253,59.22530449359062 L386.66021687810183,61.25793877178455 L386.351608686399,63.257331856946934 L386.1148794181553,64.81398569895042 L385.9202502528348,65.91142908429308 L385.84190786570196,66.5774605321794 L385.8296699818283,66.98639326397078 M380.09332560602354,58.78313433218819 L380.3845737023594,58.79115902484564 L380.9616736057456,58.75391037568716 L382.2276822110259,58.63438522009142 L383.89241598176534,58.4836746886245 L386.1228808463747,58.294759355471534 L388.36459143367716,58.11879110775894 L390.3585483925406,58.074990547828534 L391.6404488769538,57.975799485538204 M401.8790398883981,58.15716621273722 L401.63006151747504,58.074298575668216 L401.11325436275814,57.928748159840566 L400.53924766809865,57.966710932621424 L399.4707553341585,58.293598829718185 L398.38128385419066,58.838811567792355 L397.03435365410047,59.75666614342842 L395.7693954145982,60.80608822206777 L394.79931667808495,62.17394091498572 L394.0142392091593,63.36678379889675 L393.80269173428496,64.38875902070923 L393.9316328423752,65.01826795961541 L394.568448694353,65.33055038061552 L395.3572158473808,65.31605661814208 L396.79549731713803,64.75059398286194 L398.2803002624418,63.80462597035513 L400.0231446525863,62.59308982078832 L401.28409402596486,61.23892530800162 L402.4935056465776,60.0015526945267 L403.55360681134874,58.864245872124876 L404.15140985223644,57.98109779816515 L404.52892852868456,57.40174254942348 L404.52595967051235,57.23172874279502 L404.5208465208493,57.451327425697784 L404.16618180983556,58.12709612685867 L404.0376176110786,59.00070595397448 L403.82431873135835,60.16199779732015 L403.6404042427017,61.458589677656875 L403.7356689681263,62.549573357828976 L403.8740263007315,63.484742026124664 L404.50998756063404,63.990589919042144 L405.3045059891227,64.08815187646368 L406.38334931809817,63.84779248433647 L407.60243144760153,63.29087610266423 L408.8354203958045,62.195036171295655 L410.01283442105387,61.0356501573398 L411.24001014676094,59.79500421295439 L412.12935774900103,58.6265953094711 L412.78606925114997,57.61278404468276 L413.18946220285926,56.906682003261956 L413.39787635641926,56.653499680462716 L413.3933246485309,56.64878896649234 L413.20384347133086,56.89862303424826 L413.112889570288,57.76455044140296 L412.8314298968078,58.77717988262299 L412.45654004054705,60.11830749222768 L412.20511046095663,61.562451763911255 L411.9936755357634,62.5094416766745 L411.9366254205201,63.45257242547796 L411.9219624986181,63.888288763091694 L411.9197150813533,64.05587891206179 L412.0517201162012,63.84498930694896 L412.2374056574997,63.36314667535817 L412.4422352282581,62.47281384854857 L413.0073272957402,61.32950559219969 L413.6398793045001,60.12153188996462 L414.39082247291594,58.98495888331671 L415.2229973473825,57.8038977368832 L416.36064720369455,56.88228535579084 L417.5120653458859,56.237915997958005 L418.82175785440944,55.90913958286375 L420.08984751202024,56.01172208899618 L421.1212914140649,56.486118585425906 L422.24696872164975,56.980961402208514 L422.9461782241854,58.057423086820705 L423.52500690428946,59.129137516203876 L423.72545365165035,60.2302533531743 L423.8209680867967,61.31591188866361 L423.84540877850617,62.43055678567029 L424.0019405549368,63.23502707633473 L424.20887605049006,63.85866663447899 L424.5965526136354,64.19148003216569 L424.8593826709371,64.30556978639856 M436.26020326333486,59.997761356640716 L436.0588740812038,59.636047348274765 L435.8595074626277,59.277305464925085 L435.46978335199384,58.84152609190146 L434.75198854009216,58.60697088736598 L433.523345451894,58.651610539226475 L432.2536012068374,58.957438293199004 L430.4471929726245,59.691333737893764 L429.17845275365875,60.72521522817289 L428.03181661948963,61.74252001511521 L427.279586503586,62.993131726440495 L427.1203800118719,63.97799678554908 L427.39031800878155,64.84583305014826 L428.24298534203905,65.35252715449354 L429.2820591246676,65.36757823085486 L430.79158427071906,64.82911754159915 L432.4556001786806,63.953596927700474 L434.3078204561246,62.68538705733494 L436.05349663364774,61.003261324670476 L437.3957971292281,59.00588451420332 L438.7297198671629,57.01923105153894 L439.66709230732494,55.10960614085783 L440.5065025335806,53.395520041950554 L441.06572205906787,52.03247352674415 L441.38854687792036,51.03195022769776 L441.57463054428047,50.4480252799861 L441.7068257189896,50.25506912176543 L441.6459168138564,50.64525304563748 L441.54880746174274,51.42721268137651 L441.19458835398984,52.78706905000465 L440.73911459523526,54.421214827535074 L440.5197498985993,56.23885651606579 L440.1963815119015,58.22609042621425 L440.02836747809926,60.0168861460769 L439.94947803592277,61.673180058354745 L440.13149299475174,62.71472715327712 L440.46596486444366,63.55566729670154 L441.0342890593203,63.79713633906139 L441.73698400102745,63.62605056508563 L442.35299159307374,63.18295943676996 L442.8829701243375,62.93142091079714 M448.3711463271146,57.23096475685115 L448.56462649749784,57.44330689497382 L448.6989882371176,57.78245216692966 L448.73611627576156,58.78153905377629 L448.6604469148675,59.85762637099952 L448.53226833272834,61.22051149215779 L448.38445562429473,62.48699787925408 L448.16405525500846,63.85360933554669 L448.07739376134185,64.92963129324285 L448.2178218294518,65.6379342396776 L448.4712036510426,65.89397236226569 L449.03001176724916,65.64138979456871 L449.6203553396607,65.03620074549576 L450.5865727182164,63.980449076557825 L451.5861855129156,62.66874516908223 L452.65253261401335,61.17343037774619 L453.60056080153726,60.10945866260754 L454.36739933412275,59.22580695987402 L454.7584383328645,58.62546011035461 L455.25432512766884,58.5587747399283 L455.1184709170599,58.67585908267007 L455.3070367413458,59.19008157571289 L455.1378114584799,60.4400486628557 L454.9509583693181,61.706588345184954 L454.6499373743636,63.07878376114431 L454.5889774078018,64.41394169177818 L454.7456248459496,65.34735757527483 L454.94876918125817,65.9431726321135 L455.3624127010254,66.11789950432467 L456.13821083526994,65.87942217551243 L456.95241880026146,65.23825516972035 L458.1194171430713,64.25232110371216 L459.33761029583235,62.93026773128806 L460.39192075334194,61.381886578971354 L461.5505312453837,59.881208859490094 L462.1965771481698,58.44324388670858 L462.648101912684,57.27686353545408 L462.9118776848768,56.318196912404055 L462.84141021390076,55.77861826385571 L462.99817460379836,55.4528209453481 M467.7398183789715,58.46654185794403 L467.6794485117993,58.94827161261672 L467.62642280054547,59.63848369385441 L467.8091961788446,60.54154848774054 L467.5537963450888,61.70875341125167 L467.2984818722273,62.81607885871587 L467.0782350184376,63.88350364441601 L466.7801198221895,64.73181211751644 L466.5525818719923,65.2524068661295 L466.39927605130754,65.6693193896933 L466.3165858004797,65.6220199685001 L466.4916142799501,65.1597763989782 L466.74001687115697,64.44882406833878 L467.1543367039189,63.17115692228353 L467.8838232044316,61.665334011634684 L468.77892174812564,60.166327512076684 L469.8306707509494,58.691173328047356 L471.0172760115581,57.5757832462589 L472.0378696974973,56.52092803116137 L473.1972283991439,56.0059838925118 L474.2680251342394,55.84767553646971 L475.3582289475307,55.83415318129854 L476.3159242386171,56.050370712388315 L477.14484847125,56.630676860149265 L477.9021597566394,57.21517587970931 L478.55984625589355,57.849088466867244 L479.01898575099347,58.46561827678714 L479.45677325341677,59.13291610901067 L479.59896405757775,59.50012658810723 L479.71638577057695,59.84484044532672 L479.993768027,60.34852414321998 L480.0270899892686,60.79795249489391 L479.9088620366756,61.445388421420276 L479.8893801327342,62.05337099913706 L479.5841197639899,63.153689394983076 L479.4396581953383,64.0312917396709 L479.0829044800126,64.82275351781897 L478.8792523822681,65.58322126278881 L478.7704439956931,65.98515214791983 L478.66512916146735,66.20429373152491 L478.6050789486088,66.10278231113026 M481.3670628905288,53.29224196712303 L481.4295384897935,53.0619270365247 L481.5015302285402,53.19984393588724 L481.5495727146603,53.138193429199056 L481.77433378413247,53.129767084099775 L481.8556085622499,53.19473853594627 L482.24877970332443,53.06390297629629 L482.3746300077113,52.85021831795413 L482.6155647582646,52.812116496444055 M493.11542757511455,48.47175897264361 L493.202900258332,48.726116958230186 L493.02445699575253,49.47049390171267 L493.00755562393726,50.55909655591249 L492.64786047811975,51.89571618485539 L492.4719235514208,53.60436646956577 L491.9787033663255,55.66371650942088 L491.55471586806743,57.61324771262436 L491.18790459007914,59.72832629141653 L490.74093469072557,61.67929689200041 L490.53155593866506,63.366088171709265 L490.48873421374236,64.35856218573323 L490.46251055409124,65.03574988034302 M488.29549612983374,59.16158966990245 L488.6638843419842,59.12168820729134 L489.2036155077483,58.96483890092927 L490.5181802366312,58.66582671651181 L492.10292530816645,58.460041851088135 L494.0178467131611,58.164623026152775 L495.9388466096615,57.87412669579842 L497.76503032974216,57.64844467428333 L499.35741043705394,57.52098127673422 L500.74254354582104,57.548648273191795 L501.68487792694117,57.46119360123127 L502.217681287787,57.69127689963203 L502.5183431787503,58.31543919358445 L502.11925382060616,59.13269237780886 L501.7471450131244,60.16522524523629 L501.15218945580307,61.49744532957456 L500.45540668685186,62.69132981899456 L499.98336432130543,63.926669159496214 L499.5481985717812,64.70171616834507 L499.4243581927179,65.29864653661495 L499.28012620895964,65.591620998314 M503.87824713207584,52.057078242392606 L504.0647191112513,51.786383626547014 L504.2943538209287,51.417728773717634 L504.4840429149343,51.221886173919394 L504.71203486997456,50.89944901872782 L505.0052822959881,51.055467028875306 L505.0700899527996,51.37037564961952 L505.21428872725517,51.65428724392926 L505.2960949589082,51.861894132474845 M509.2785948017663,55.65818246253565 L509.29146993638534,55.916194431484186 L509.3371914940097,56.93863381831096 L509.24863012044096,58.203722815980214 L509.16821644571564,59.627445777342295 L509.00252334127225,61.08194965096753 L508.73784084718613,62.3927628015479 L508.52106318688925,63.59745533911425 L508.51904305739066,64.4553254586428 L508.49257933992874,64.80046243814378 L508.7466071182383,64.79075135896746 L508.8970823772907,64.2405383397095 L509.5809125203255,63.44032954768323 L510.40951930219734,62.160603231156 L511.1839708208352,60.82856200911508 L512.4629244254413,59.32983906054089 L513.5456748522088,58.056154220026 L515.0790192818928,56.94833413392294 L516.3214156035168,56.09227330909925 L517.5424934350208,55.699052270656814 L518.823949428505,55.594353347371005 L519.993080529685,55.91840017198341 L520.9877125664797,56.73797455967314 L521.5931138660552,57.77089575468804 L521.9351218081176,59.250512864443834 L521.9863044521486,60.81768925955264 L521.8976225045407,62.343841072287546 L521.9175278228972,63.49744914580462 L521.7249506301763,64.19682242016037 M534.127176168603,57.768643594314746 L534.0038306875697,57.4034047534469 L533.6623619263983,56.89645682982623 L533.1562299472149,56.565034952134255 L532.3303588054105,56.41223626693106 L531.2203034809448,56.72640789832669 L529.8733006913071,57.35829866800625 L528.5805171215818,58.29340369767775 L527.5745748797037,59.46329703675567 L527.0039220807691,60.29649916740201 L527.0766555449276,61.03003982732688 L527.7240494358438,61.55773484982634 L528.7702141588469,61.60298851126095 L530.2349171318176,61.3739987920896 L531.8672968202195,60.800739697485106 L533.3952972932979,59.99427779514608 L535.0018718074132,59.26510575768172 L536.0816415191155,58.47945271970224 L537.1534342955704,58.05886143011502 L537.7112171280503,57.68029881484572 L538.0300449788433,57.58186618245176 L538.202869037622,57.65635023142681 L538.1245744835871,58.26795072597919 L537.9917932908211,59.28172288581773 L537.8271839031204,60.55126030811612 L537.5564168724613,62.0724747873141 L537.2559735844385,63.73029801409393 L536.6669104797443,65.46721994458053 L536.2149023947093,67.18608101939112 L535.5206802517993,68.82501694570294 L534.5782660997183,70.29088056917558 L533.5658979721131,71.32802530273469 L532.3466237426707,72.26014547225083 L531.1605860954747,72.7210144286642 L529.6523931390377,72.86930492088557 L528.6469379721625,72.92526044843977 L527.9176268005707,72.93281016249819 M553.2155978495659,55.53561696640472 L553.275184652497,55.59688926793666 L553.3635503012322,55.773855982300276 L553.2993583893096,56.26755797305463 L553.385869656405,56.93159601489437 L553.2422477796573,57.95165910917209 L553.2186402191342,59.35163090886352 L552.9080259957625,60.696985339503634 L552.6020910198954,62.06573933949358 L552.2046903166016,63.51008402393468 L551.8798053761673,64.62101592984008 L551.5254732863095,65.39744392729378 L551.2389403891714,65.85457919046328 L551.3662254480021,65.92401541664215 L551.2172734128139,65.66419678337463 L551.5354662341824,65.00311284445878 L551.9845114125352,63.83972482649794 L552.7246537331048,62.55393086358987 L553.5304939537018,60.890346489637935 L554.603172555283,59.29479630896821 L555.8703650886684,57.97215867493419 L557.1319474054819,56.7518236352332 L558.4740042845829,55.88379711933477 L559.8468683151768,55.2092777314768 L560.8819087273016,55.10807578893896 L561.7789900981215,55.57077336460508 L562.3771659890695,56.306324570103186 L562.8986278752511,57.32228068696311 L563.0902200783535,58.835258695814524 L562.9833948356415,60.38242011293637 L562.6729358872338,61.923150687982876 L562.410562855422,63.26370527521488 L562.0134303597627,64.29634414146236 L561.8364770684973,65.0617648161884 L561.6557675833305,65.22909633176835 L561.4853258226574,65.2266016750934 L561.6392098811605,64.68203374685785 L562.1455994669068,63.5262825398282 L562.7462399158474,62.23250910905024 L563.679863208725,60.60597971494297 L564.7560691074268,59.02442245908531 L565.860383853792,57.55879240111752 L567.1156028604756,56.18144291595325 L568.4388453667505,55.301380150883276 L569.6020834112296,54.60526434955277 L570.804641920273,54.446899735461436 L571.698318110829,54.58383331165848 L572.5695045160946,55.19887653278868 L573.0624678036237,56.20705357174657 L573.2092587332957,57.49890516203999 L573.2396390048802,58.99992394668284 L573.0734330416492,60.685831303241386 L573.0074800278625,62.107580739803055 L572.9608381858831,63.22961419772307 L573.0648239284346,64.12425740575779 L573.189378431388,64.75604637374205 L573.3719146465875,64.82342338069012 M578.0810944574728,61.19043603731501 L578.4200311019142,61.19144657498837 L578.9322817001221,60.84527058937317 L579.804370617921,60.37391844778012 L580.8594949144135,59.73792847993077 L581.8918613768647,58.79789474376718 L582.7208707712839,57.99525131704306 L583.4445690158898,57.06124458236107 L583.966061052104,56.20180487076006 L584.4732197370372,55.3901173684142 L584.3224821510933,54.808902239561476 L584.1707132182414,54.474808908251106 L583.5496608852266,54.53112405399886 L582.6702639139055,54.71772282378823 L581.4705041929996,55.126034529833476 L580.435099176536,55.954728265528885 L579.456563348238,57.145954483418414 L578.4548430751264,58.35698840207914 L577.8851742157038,59.81513421691636 L577.7270404887486,61.23329531246257 L577.971208292008,62.26276603417693 L578.873568171766,63.41557773105672 L580.1134965005112,64.0447594765854 L581.9189998470383,64.17356567320002 L584.0124432217592,64.02946881706903 L586.3577455561745,63.51253471869738 L588.6735743149882,62.50608257576084 L590.8962414704597,61.58758173981318 L592.8606465077462,60.19019892431216 L594.4696252005185,58.8533085016282 L595.7889629096138,57.587655515065556 L596.7109389493289,56.44554469836376 L597.3336361187702,55.501328775390064 L597.681184990246,54.905288212075334 L597.8133398151051,54.41934415247499 L597.6748612129328,54.308252482897444 L597.4312706561977,54.414245174125554 L597.3909975083782,54.80703275493957 L597.2965727743846,55.37173772846569 L597.4821073586302,56.37406649606464 L597.9608469570285,57.378955308051005 L598.6190470491348,58.49022692850737 L599.5839026171058,59.608874949503814 L600.524891180446,60.77018228405012 L601.484705185346,61.775003456741 L602.3259750231894,62.88533704696229 L602.8565540183981,63.72646770477728 L603.1316146529573,64.54054330196702 L603.1324700947719,65.1586829012896 L602.636360876834,65.46386523239262 L601.7380474376471,65.9099019013934 L600.5586305588919,65.9430762889913 L599.0966305403676,65.87186465157657 L597.4376019911583,65.4002501734084 L596.0349490575111,65.03952183554289 L594.8924888087587,64.48838481151003 L594.2126256933088,64.34829101252335 M610.3308778020162,56.951363625506204 L610.3636611583577,56.70755007612646 L610.1759911081756,56.46895755528847 L609.8952245539376,56.40602802215909 L609.3028506068579,56.36125677437145 L608.7043893224286,56.60005445852628 L607.8472408864959,57.01142837184385 L606.8486079981471,57.6133195562135 L606.1382961880144,58.29228239241291 L605.865726712419,59.210840944885454 L606.0360988230864,59.954882620820904 L606.6927265492665,60.92239279862447 L607.9156694016635,61.78718060001559 L609.3617188095277,62.631970192639436 L610.958055330745,63.34731577813032 L612.4084181774065,64.3720089302599 L613.3398020096023,65.01640650528057 L614.0883229103595,65.62858320381255 L614.0396763285939,66.09609241165252 L613.6702430389826,66.30599822437588 L612.7349171445367,66.61263839122479 L611.3040232497153,66.72949586268355 L609.72901829339,66.72522226693202 L608.0063950812416,66.54614643417285 L606.4955997585428,66.22615459822944 L605.2269796617641,65.83154238132076 L604.339251376465,65.30565798008637 L604.0310810976432,64.78816450661645 L604.0282050293072,64.57192726831398 M619.0930175531064,58.73535252579442 L619.0375213593784,58.91423805282721 L618.9580166892088,59.41464874217859 L618.7200651175951,60.408182561844846 L618.5585685687543,61.34023747343607 L618.1781618853627,62.607816408803835 L617.8620116146162,63.69807562121225 L617.5329881583502,64.54389328311659 L617.3863224629872,65.0612238451478 M621.4812751984989,50.0469329577888 L621.541613030756,49.910457823795284 L621.6513550055822,49.8152756626206 L621.7703118782495,49.783603129597815 L621.8583244777983,49.83766045625436 M627.6542457343246,56.91791322086379 L627.4772777551159,57.48600383775754 L627.4188564045301,58.50512192681984 L627.0847775347722,59.88857546709832 L626.7382498791524,61.21454236499133 L626.3693959315017,62.757982763744074 L626.1697513603674,63.969011640086634 L625.8549128614097,65.11868389870777 L625.5636835770931,65.80390559863731 L625.4270002445583,65.98493518151572 L625.523405311046,65.96079416409306 L625.8193736526939,65.35640382578345 L626.1288336704922,64.39012932962942 L626.8309357245598,63.09819287422698 L627.4926133835661,61.488018615467304 L628.5532188532168,59.935324699626115 L629.4935242281506,58.46233474473432 L630.6981436942322,57.06897376788536 L631.6728156643062,56.2815551291701 L632.6869580516607,55.508669902971455 L633.6434366227941,55.17310734286681 L634.481713689602,55.207479389495255 L635.2813458220128,55.50677175266308 L636.0256942861106,56.484385598584524 L636.6247920137214,57.600528666281825 L636.9234503199343,59.035070943270526 L637.3587014229181,60.53330364032138 L637.5793613802616,62.183612477235506 L637.6201432553244,63.56749056846579 L637.8199254000515,64.8092090157405 L638.2014624923963,65.46452668059219 L638.5841596013154,65.91735705067325 L638.9052069167483,66.16148608195692 M644.6614151613719,61.85888939547391 L645.2126025012994,61.570951152748705 L645.9797088779546,61.01827088738099 L646.7482789908063,60.19040823254503 L647.826906383995,59.42568954410942 L648.7374432499623,58.60797346729031 L649.6022900274927,57.614359353793255 L650.0335023993548,56.75545064988343 L650.4101360535021,55.96341771976448 L650.4792196501605,55.50987257280541 L650.2241791889498,55.04673466234842 L649.6728011209295,55.036116564540926 L648.8175450807571,55.33855891475668 L647.6968695606472,55.92648554533832 L646.385629466469,56.991847243585156 L645.0623449135403,58.261431890432064 L644.2678404118151,59.710219344843395 L643.785026144807,61.24348367964896 L643.6164498976293,62.53065608195402 L644.240384887255,63.50617561979934 L645.3583206057253,64.5496600770603 L646.9371350383274,64.8121397714886 L648.9086396703642,64.79388541347714 L650.6486237727156,64.48472677916601 L651.7366740570562,64.10945160675683 M659.8817513609367,54.38760930105636 L659.6633613415595,53.96994424118159 L658.9926840573053,53.75214705273382 L657.8609125069027,53.63780587037857 L656.823040488252,53.611931210728656 L655.7477123991484,54.00499109112675 L654.740990780999,54.70174882546229 L654.0982152479455,55.4657120260593 L653.9766851998206,56.50316333481492 L654.2878758144254,57.68066000540086 L655.244185482182,58.70191102375931 L656.3847506196328,59.85382523327798 L657.9164481863361,60.96050960207958 L659.3619862461317,61.89366987838387 L660.5982925528751,62.740200079166016 L661.2481966602206,63.551294514629156 L661.5257748896247,64.07358140625045 L661.2064876758677,64.5240598164245 L660.4191245978295,64.78933112686981 L659.1345151928085,64.81552500309914 L657.5643137343013,64.8661828231102 L656.0079965203047,64.69593179929035 L654.5859883316655,64.3197112204284 L653.5891446771759,64.00090254531631 L653.2464192454831,63.739968064412324 M670.7083508428734,55.33976618037437 L670.4999403807315,55.15393104767078 L670.1226848099489,54.848036482322385 L669.4967000248209,54.700536777313076 L668.4829755585233,54.69449793278916 L667.5716931913594,54.832919607390195 L666.5965375083854,54.98380575556712 L665.6481400659407,55.44064935076819 L665.0084632515261,56.0007332805066 L664.9471182875541,56.69365524530343 L665.0901340435962,57.348511348353696 L665.8059968847933,58.12435781671582 L667.0073215366822,58.80989941108464 L668.4116803809147,59.654681904544944 L670.0299528691112,60.3978872557216 L671.6411481610603,61.24004104899022 L673.0043093451122,61.78046732364244 L674.0225999901381,62.52096034281143 L674.6220876828356,62.910440856604794 L674.5532091063903,63.19528124027401 L674.1540298572193,63.65816074749681 L673.2722434056391,63.72006328144925 L671.7872657696516,63.792631372840845 L670.0039547883828,63.823021822503115 L668.1790093080085,63.88747834025847 L666.3517235917284,63.85328920840041 L664.653561377068,63.6816917023428 L663.503430429319,63.71493630005763 L662.8912069755627,63.47235583090549 M696.2746235190925,56.04856457637078 L695.9035681390503,55.89226035728891 L695.2745285167641,55.807780608990086 L694.5617419908153,55.63145249144229 L693.6578070093356,55.98297423389134 L692.3531046557966,56.515455522398696 L690.9588191382402,57.23004296978454 L689.6052465538658,58.42732848494594 L688.3302694689949,59.550010630775766 L687.4255087758825,60.85145148146595 L687.1229776865457,62.36497229523814 L687.2209420369704,63.437892553137175 L687.93569051244,64.65988800021665 L689.3441044639967,65.34701869037455 L691.1757296733163,65.81220146947994 L693.3796269897423,65.8746283687307 L695.9158148802537,65.38054538114982 L698.4926230134602,64.67310948466334 L700.9108380833075,63.64234506778658 L702.9964711190871,62.48984987340668 L704.767875805404,61.121982385509384 L706.2805534188562,59.81955842415273 L707.214846368342,58.574259508244 L707.601533196929,57.786674476386544 L707.6063566860842,56.88942526159223 L707.2603300477624,56.30501814078826 L706.6604485671457,56.14740031874424 L705.7382235557832,56.531292947806065 L704.6965812850997,57.324811533598236 L703.5626533139073,58.37327393527246 L702.5166713358678,59.80376191213257 L701.7793001502218,61.405306394477314 L701.4218429167779,62.990826135941155 L701.6176441876294,64.00439384531477 L702.127288458147,64.96366377124717 L703.1176498544198,65.30843851262524 L704.3305257674263,65.41218463905544 L705.7943666899591,64.91717303025726 L707.3028911519732,63.972019904523975 L708.7532482862348,62.775207768048084 L709.7517663927072,61.25880076318166 L710.5607269381712,59.75525703848638 L710.8326332122767,58.37122781781434 L710.7183086193274,56.8065659906024 L710.1191612006769,55.83513322259035 L709.3827469811913,55.058243505870315 L708.2633533427031,54.75991650467378 L707.2101890857512,55.04315484504164 L706.2018739543382,55.67308303579191 L705.4212038749099,56.55880998100344 L704.8482071482779,57.469307328663454 L704.6667767619085,58.27606217782972 L704.665417351323,58.63358225175391 M716.0020385550167,55.88598772603264 L716.0775193178454,55.77379149061552 L715.9041372847621,55.952639986264515 L715.946958589531,56.37468245607869 L715.9411854188154,57.347388413053956 L715.7034912915137,58.55762854923663 L715.4670251295809,60.20061549485111 L714.961264923515,61.58245566718972 L714.6506431862815,62.81426165937522 L714.257483351819,63.879701353086595 L714.150776058588,64.42626873445133 L714.1936121236643,64.65517813341505 L714.364265006365,64.2925440615596 L714.8867230971202,63.49577642924995 L715.5859447130188,62.184705859188725 L716.5968955333933,60.66353803763057 L717.9334517634584,59.033022731593874 L719.380198816632,57.54529934183151 L720.752571131427,56.40343164412804 L722.0744079770702,55.480882773188554 L723.2691028955194,54.94512469506367 L724.2067456602833,54.955594804727454 L724.9053929005454,55.35491600742992 L725.1620900970474,56.21286433928175 L725.2930282629454,57.38955831679563 L725.0139736921433,58.708698244064756 L724.5843921878029,60.06197438591577 L724.1595034338891,61.28774809652293 L723.656250949904,62.3608319632783 L723.4207601438306,63.01060525557483 L723.4203216777535,63.35902400756375 L723.5093449058008,62.988731135177176 L723.7651091076359,62.40443527324994 L724.6121547343041,61.62367077211862 L725.5192373027551,60.360264208356696 L726.7240115396132,59.09399912757426 L727.8585955368862,57.93319045392388 L729.1328600318759,56.69203292785443 L730.5215524110097,55.75914097773387 L731.6441084838546,55.39364391535299 L732.7009779687721,55.08026146034303 L733.5384646051787,55.354207244035436 L734.09469914222,55.8667542647691 L734.5446400664589,56.85943393154663 L734.7438737678006,58.10476160382358 L734.8936301559154,59.64716080210522 L734.7323213263242,61.051047092698084 L734.6818274441221,62.01071615086636 L734.6531335158652,62.836953161675794 M742.0166631632289,56.42344192040609 L742.0786298939956,56.83005783805258 L742.2041814579347,57.45875071617571 L742.4042357596538,58.458286575620264 L742.298479277825,59.77456387841191 L742.0315635644313,61.49606428713629 L741.6309593602953,63.396828479524935 L741.2403966682002,65.48525749262139 L740.7534283841808,67.46871478823603 L740.2619012442133,69.32113371388553 L739.8672100878077,70.60516603579923 L739.5473960427917,71.43833659708775 L739.5823829556841,71.65100199185963 L739.4580954937915,71.35228404542195 L739.7113256478474,70.44096614314914 L739.9790140284028,69.07598133882719 L740.2459572942068,67.25112078724813 L740.7161722820681,65.41302032887957 L741.3208532624194,63.35389789869297 L742.154443250188,61.33005795336662 L743.1593168667275,59.43662099840647 L744.2769787141137,57.75332809040722 L745.7609614509342,56.2440936953769 L747.435500931515,55.26705604142559 L749.2237961370274,54.762891574840005 L750.8080557041994,54.84455928995692 L752.6590597263639,55.115078494825354 L754.1877603196524,55.957324646068386 L755.2605307857657,56.91518339896889 L756.0187173466652,57.98129678349713 L756.3335603405005,59.02502987713836 L755.9005476644013,60.06443753486253 L755.1428008709008,61.103061560984436 L753.9339312312177,61.60240322080498 L752.0079399651129,62.03603639501577 L749.8118590239194,62.22053067933598 L747.6326075325976,62.2715553691056 L745.6655307720087,62.22286407461847 L743.8772898775978,61.94935325850351 L742.7602764778908,61.83951329217627 L742.1158551349006,61.66536251602406 M763.4279663202569,57.24169439999879 L763.3346205503483,57.00943461500798 L763.285746233995,56.81611983331302 L763.1933574270627,56.588206046777984 L762.8019629857972,56.61387712582972 L762.2133675717432,57.0352469367316 L761.1578169966704,57.902338338631154 L760.2655629203064,58.722553974865455 L759.4647674182875,59.985798973144824 L758.6754789888973,61.1544045207806 L758.3609238684494,62.25475714042102 L758.4907970737622,63.24312503142393 L758.8843882240349,63.80999156910758 L759.5250852642325,64.20376195447506 L760.5821528522622,64.09102396804424 L761.9919579474451,63.64116139124065 L763.4447418513837,62.83119966157656 L764.847202896487,61.54097984576139 L766.168381172316,60.39500544955482 L767.198113674951,59.01435449302343 L767.9912719473673,57.77534381915592 L768.3628805066396,56.84732480026228 L768.4045751894171,55.97929258412982 L768.3416271142485,55.5865115073828 L768.0036031736338,55.61692682870324 L767.5109924730564,55.782991673694525 L766.9733992046724,56.58274525184037 L766.4489699430121,57.619820229391514 L765.7730911091137,58.83062479818247 L765.481224247512,60.05137974006899 L765.4723425112109,61.072462694646354 L765.7414266463259,62.08751147680402 L766.4048188099848,62.53795729415478 L767.4596003832678,62.59915308120401 L768.9476357210788,62.16512654466376 L770.5220202079704,61.4649406727954 L772.1931416516748,60.568196957975644 L773.8002995545944,59.45194618720252 L775.0951614173275,58.15980206932307 L776.294722156108,57.30819890936857 L777.2197389350554,56.523525167578356 L777.8185235272658,55.923306311011196 L778.1132676319946,55.64134067371847 L778.1458195374003,55.71512525405115 L777.8748919723917,56.18758021413618 L777.7038727373797,56.953657745703 L777.1077792347623,58.04216775539283 L776.5116145981788,59.453750611054154 L775.8492764630564,60.68257289107929 L775.3861419415944,61.91585064501817 L774.9854112190469,62.7778363069815 L774.6861724211074,63.29741995120984 L774.6211589751354,63.59299013444108 L774.6581959507844,63.35655874233729 L774.8247500292509,62.76174553458007 L775.1845036080224,61.75042314496703 L775.8070553348998,60.501842430172225 L776.4453885057378,58.9279899694434 L777.042967121673,57.47028577671014 L777.8549467219932,56.140394253819046 L778.9396932904201,54.97286510691126 L779.8014740870433,53.95211665536908 L780.7165985884244,53.32456561871754 L781.735308236229,52.831486188789576 L782.857559376298,52.86546299509903 L783.7947334073567,52.71331385878615 L784.7372389090813,52.808437346102885 L785.8257458619316,53.09756693844664 L786.953408789042,53.354952861037575 L787.864519173708,53.30907907275647 L788.8402224102665,53.44537412996848 L789.7672323500276,53.331243440046926 L790.6164699872527,53.06845593562346 L791.1907238409574,52.86631574931913 L791.6726836598768,52.88069393427084 L791.9212689033516,52.73031305671195 L791.9669988966677,52.690660777336376 L791.9234128821106,52.860454586555946 L791.5465099198655,53.347969372220426 L790.9738696397599,54.1667637961266 L790.3167861881498,55.19041562671655 L789.76135280832,56.36071075889056 L788.9568626529692,57.776991833917336 L788.4836369995669,59.11948311950029 L788.3570527911547,60.341467416002956 L788.2406106393614,61.33807104479071 L788.6051146337895,62.022989447919 L789.2008734825354,62.08126472836048 L790.3475306491466,62.105215676413685 L791.4746153850649,61.445528195663286 L792.9245940620904,60.35861720750762 L794.6869728538484,59.162965789449174 L796.2149534501859,57.793175265468 L797.6046340333305,56.41991387917787 L798.9749111527415,55.146840001998115 L800.317906645995,53.92857317162832 L801.1052778005333,53.089861421880215 L801.7281216303747,52.522016183567715 L802.2661021682254,52.34366210832287 L802.5236423281442,52.50245345373958 L802.7137309030597,52.94957390492011 L802.5229159184289,53.71228329080819 L802.4978123983565,54.920631610966396 L802.3101045111848,56.38372436596763 L802.1874582814407,57.84010992161081 L801.9064901011327,59.32126092452933 L801.6371945596459,60.92857041322542 L801.5222459872768,62.18973393759084 L801.2820103232018,63.0618373002408 L801.0868993935576,63.50094959144232 L800.5943732525334,63.842715015312905 L800.321563683729,63.51668996444304 L800.0014479502429,63.320798407144906 M803.8168347988012,48.18979899350991 L803.9590137538794,48.12191699502204 L804.2207618007544,48.08221095217869 L804.5064356288794,48.07848941711553 L804.7200928554419,48.11854257117937 M812.9384772423409,53.64823246002197 M809.0260520395418,54.69092587276241 L808.623293202505,55.29778573543302 L808.3209028189895,56.22092705250476 L807.9246637202527,57.59597789881642 L807.8405864649471,58.99251516059596 L807.9297825293236,60.132876037366906 L808.3266300863979,61.1568560310072 L809.0678040764083,61.90958561943491 L809.9722611307539,62.492167344910975 L811.0143183500572,62.62427088388274 L812.3836191729006,62.15639779847575 L813.7174136392937,61.321050543696124 L814.9514412324011,60.12363917909849 L815.8695003127557,58.67221163549391 L816.5700117680926,57.16641760937516 L816.9340993443191,55.51738939625409 L816.706789141869,54.229446616368584 L816.1151187363109,52.874848786332656 L815.2697815995216,52.09077634316852 L814.1809872617148,51.69049787434607 L813.0362871005998,51.79460755869357 L811.9786220432943,52.31015864579204 L811.3051071837651,52.822111190799426 L810.81616188727,53.30414331848574 M821.5656568549236,52.081047121770325 L821.7088342849718,51.947064001028764 L821.855234409423,52.13021973192532 L821.9749243661929,52.346931393314065 L821.9124081840832,53.253246423566225 L821.7968109541316,54.43712025841431 L821.5175141790974,56.11577447202852 L821.1172056241035,57.68050539028262 L820.5625874856573,59.371461560418346 L820.1094653368489,60.76224866795814 L819.9332801462215,61.97231891845831 L819.7746369325914,62.6499127447396 L819.8765924631678,63.02774370092614 L820.196331314535,62.86927326176823 L820.5621841498714,62.34179600182712 L821.3066314246773,61.30504419218907 L822.3206517329652,60.009209873946226 L823.7079319372674,58.4855543869172 L825.0957840326021,57.0876797753703 L826.6274787163388,55.64581763720869 L828.2880045581053,54.684489799829564 L829.8463259654359,53.865578592376075 L831.3718874732842,53.44152377395913 L832.6592476905282,53.4074981082842 L833.5683224826305,53.496428634094464 L834.0772335489553,54.144235174908985 L834.1450157186473,54.95453751616295 L834.2404334208616,56.16671143442315 L833.9213137887814,57.520113341064516 L833.5413832274533,59.06667905442236 L833.0247584096078,60.43640177734931 L832.6990251902096,61.837135989095486 L832.577191629402,62.97776020342555 L832.7989051576394,63.902306051233936 L833.3587109275616,64.28288730589608 L833.9330261617918,64.43923563556417 L834.3571760832017,64.41127227727905 M856.9524074722938,47.561384441753425 L856.9395981516163,47.55488255713077 L857.1788492997266,47.88916092325585 L857.1211306711002,48.4379824134017 L856.9191141510628,49.35963449436886 L856.7637344767859,50.61517583208716 L856.1334358435627,52.42318222018823 L855.269963129296,54.36944555678703 L854.3240623055005,56.68260831039887 L853.4319504804093,58.70765203587292 L852.6843658538301,60.891979616212744 L852.1609574466527,62.35067555877153 L851.9090039483233,63.30734868735031 M848.7093595519054,55.19283367714514 L848.9575250804023,55.485458922417386 L849.7010302270473,55.61309247041506 L850.7706777214787,56.001626335310405 L852.4081014175586,56.424102595044076 L854.6651151837241,56.85139214013353 L857.3368064301583,57.06608957507424 L859.7893708865331,57.2104143587259 L862.5692285267121,57.055635252168095 L865.1248604518128,56.82630729007467 L867.5881082097976,56.23654728873734 L869.3355262196285,55.56181920987017 L870.719335057664,54.92980915031398 L871.5277897768738,54.18044346644285 L871.681128175069,53.559622854110444 L871.2820442664515,53.08410139739384 L870.7837685646143,52.976260762444774 L869.5740711247618,52.983637740555075 L868.3139794221281,53.519704377337256 L866.8656402757717,54.33399456627815 L865.518522555576,55.42413448061116 L864.3752167416953,56.93752636760955 L863.5485780900867,58.25812869783748 L863.270817322838,59.847833236549334 L863.7728654070495,61.08665807132043 L864.7479176787024,62.25130234168057 L866.309041646803,63.01492794888045 L868.4053990013808,63.20620331152972 L870.7943315354398,62.872313909591284 L873.4655363299623,62.16075380816165 L876.0375938046639,61.38128866044002 L878.5716583745309,59.95850747623512 L880.7008482529095,58.68662732974871 L882.4553390220221,57.23136070467168 L883.7131778218077,55.84671803726101 L884.5663953916724,54.55134742908812 L884.9997387079184,53.78696669987555 L885.220729366185,53.23296923477139 L885.1714148501542,52.793581565295455 L885.1316668814884,52.924445495127415 L885.1430361744351,53.39787482936875 L885.2855752524595,54.15033522526672 L885.5659849050155,55.32454640337415 L885.9301351826027,56.50351911755067 L886.473965396837,58.13943180708348 L887.2047278805974,59.62401201968895 L887.7660957883204,60.99841380209751 L888.2115238859349,62.35963559507961 L888.4435739100293,63.528662110011766 L888.4662583154152,64.45878825642019 L888.2178753364776,65.08012311444242 L887.5101577906523,65.33131002790365 L886.5106046140006,65.3377671267269 L885.1863581322436,65.03321108222974 L884.0429434915798,64.64479524528852 L883.0489855631263,64.02182976920918 L882.4796316166819,63.496210844269896 M895.875421103395,45.0 L895.9791198338637,45.29560375213623 L896.09880977527,45.93877124786377 L896.1603942479262,47.008121490478516 L896.0652404393325,48.46672248840332 L895.8112731541762,50.26714897155762 L895.4140563573012,52.32073450088501 L894.94207149402,54.52872323989868 L894.4592834080825,56.76766633987427 L894.0209899510512,58.91666643321514 L893.673272665895,60.85607421398163 L893.4540954198012,62.51403832435608 L893.36638790027,63.772358417510986 L893.40593868152,64.5124740600586 L893.4968810643325,64.80808782577515 L893.5796447362075,64.81327247619629 " fill="none" stroke="black" stroke-linecap="round" stroke-width="2" /></svg>