<?xml version="1.0" encoding="utf-8" ?>
<svg baseProfile="full" height="100%" version="1.1" viewBox="0,0,1000,120" width="100%" xmlns="http://www.w3.org/2000/svg" xmlns:ev="http://www.w3.org/2001/xml-events" xmlns:xlink="http://www.w3.org/1999/xlink"><defs /><rect fill="white" height="120" width="1000" x="0" y="0" /><path d="M0,0 M172.31094360351562,52.33412170410156 L172.18392944335938,53.00421142578125 L172.0068359375,54.282649993896484 L171.802490234375,56.141117095947266 L171.60919189453125,58.333335876464844 L171.41404724121094,60.66644287109375 L171.21006774902344,62.942237854003906 L171.03225708007812,64.9935302734375 L170.9315185546875,66.69276428222656 L170.9119415283203,67.92707061767578 L170.95277404785156,68.62592315673828 L171.0006103515625,68.75370025634766 L171.0277099609375,68.28227233886719 L171.06802368164062,67.18124389648438 L171.17478942871094,65.50062561035156 L171.38430786132812,63.34760665893555 L171.71617126464844,60.89087677001953 L172.1408233642578,58.319271087646484 L172.6361846923828,55.80753707885742 L173.16439819335938,53.480743408203125 L173.6854248046875,51.46430969238281 L174.151123046875,49.85406494140625 L174.52972412109375,48.71229553222656 L174.80453491210938,48.10151672363281 L175.0081787109375,48.093135833740234 L175.1732940673828,48.712703704833984 L175.32864379882812,49.93657302856445 L175.5139923095703,51.64092254638672 L175.77049255371094,53.588951110839844 L176.1182403564453,55.52815246582031 L176.55755615234375,57.242244720458984 L177.0863800048828,58.56821823120117 L177.685791015625,59.37717056274414 L178.40000915527344,59.58401107788086 L179.30108642578125,59.123878479003906 L180.41175842285156,58.012088775634766 L181.6866912841797,56.36947250366211 L183.0495147705078,54.42807388305664 L184.39686584472656,52.41025161743164 L185.66983032226562,50.539852142333984 L186.82858276367188,48.969512939453125 L187.814208984375,47.78318405151367 L188.57286071777344,47.03295135498047 L189.0717010498047,46.78466033935547 L189.316650390625,47.07070541381836 L189.33609008789062,47.933555603027344 L189.16604614257812,49.36806106567383 L188.835693359375,51.275638580322266 L188.42324829101562,53.500423431396484 L188.03790283203125,55.866172790527344 L187.77536010742188,58.17789077758789 L187.7014923095703,60.2785758972168 L187.88644409179688,62.045719146728516 L188.31488037109375,63.38511657714844 L188.9508514404297,64.2778091430664 L189.57388305664062,64.76719665527344 L190.0146942138672,64.96282958984375 M194.56838989257812,62.88932800292969 L194.86048889160156,62.809593200683594 L195.41305541992188,62.58271026611328 L196.22509765625,62.15241241455078 L197.16610717773438,61.50038146972656 L198.14572143554688,60.673702239990234 L199.057861328125,59.72943115234375 L199.7994384765625,58.73428726196289 L200.30784606933594,57.76212692260742 L200.53396606445312,56.88313293457031 L200.41978454589844,56.1676139831543 L199.9622802734375,55.708595275878906 L199.16732788085938,55.59789276123047 L198.06854248046875,55.91169357299805 L196.77468872070312,56.67806625366211 L195.4271240234375,57.84721374511719 L194.2152099609375,59.30017852783203 L193.31092834472656,60.87944412231445 L192.86398315429688,62.441036224365234 L192.95455932617188,63.85239791870117 L193.60321044921875,64.99703979492188 L194.784912109375,65.78852844238281 L196.439453125,66.1801528930664 L198.41558837890625,66.17657470703125 L200.61138916015625,65.76934051513672 L202.85609436035156,65.00669860839844 L204.9747314453125,63.97657012939453 L206.58895874023438,63.018978118896484 L207.55545043945312,62.35700988769531 M213.617431640625,55.919281005859375 L213.16390991210938,55.72557830810547 L212.29837036132812,55.571388244628906 L211.02508544921875,55.60029602050781 L209.53732299804688,55.950347900390625 L208.04714965820312,56.5624885559082 L206.8355712890625,57.33444595336914 L206.13946533203125,58.130130767822266 L206.13076782226562,58.87628936767578 L206.84951782226562,59.51491165161133 L208.232421875,60.05043029785156 L210.11924743652344,60.503787994384766 L212.28720092773438,60.936893463134766 L214.47097778320312,61.405487060546875 L216.4232177734375,61.948604583740234 L217.9403076171875,62.55986022949219 L218.9203643798828,63.21772003173828 L219.3410186767578,63.8797607421875 L219.22068786621094,64.5168685913086 L218.5928955078125,65.1001968383789 L217.48406982421875,65.59456634521484 L215.9208984375,65.95122528076172 L214.01699829101562,66.14035034179688 L211.95709228515625,66.15042877197266 L209.97030639648438,65.9997787475586 L208.30459594726562,65.74732208251953 L207.09375,65.46199035644531 L206.37753295898438,65.22814178466797 L206.0643310546875,65.08953857421875 M230.1775360107422,54.95632553100586 L229.70156860351562,54.86748504638672 L228.83230590820312,54.85525894165039 L227.56712341308594,55.03416442871094 L226.05322265625,55.48579788208008 L224.4212646484375,56.16530990600586 L222.89364624023438,56.98566818237305 L221.69020080566406,57.85212707519531 L221.02780151367188,58.70870590209961 L221.02377319335938,59.51997756958008 L221.7015838623047,60.25692367553711 L223.00933837890625,60.918270111083984 L224.81033325195312,61.516239166259766 L226.86683654785156,62.08949279785156 L228.8804473876953,62.670249938964844 L230.5706787109375,63.282554626464844 L231.73411560058594,63.921512603759766 L232.29830932617188,64.57584381103516 L232.2769012451172,65.21430969238281 L231.70945739746094,65.79479217529297 L230.65643310546875,66.26190185546875 L229.22476196289062,66.58012390136719 L227.55532836914062,66.72476196289062 L225.84237670898438,66.70487213134766 L224.27548217773438,66.51156616210938 L222.99826049804688,66.15676879882812 L222.0873260498047,65.67526245117188 L221.56094360351562,65.22819519042969 L221.3319549560547,64.91728973388672 M236.44842529296875,57.525047302246094 L236.54229736328125,57.889678955078125 L236.66949462890625,58.59770584106445 L236.80001831054688,59.654056549072266 L236.85879516601562,60.94290542602539 L236.8388671875,62.366729736328125 L236.74343872070312,63.80112838745117 L236.6136474609375,65.1481704711914 L236.48098754882812,66.2546615600586 L236.38885498046875,66.99369812011719 L236.32223510742188,67.30120849609375 L236.287353515625,67.30690002441406 L236.26849365234375,67.17767333984375 M236.90103149414062,49.02643966674805 L236.9706573486328,48.89459228515625 L237.126953125,48.824981689453125 L237.31036376953125,48.82920837402344 L237.4613037109375,48.91885757446289 M243.98489379882812,58.04540252685547 L244.02435302734375,58.39197540283203 L244.05950927734375,59.10835647583008 L244.04544067382812,60.20655822753906 L243.9385223388672,61.55570983886719 L243.74603271484375,62.992576599121094 L243.4938201904297,64.32945251464844 L243.23135375976562,65.43048095703125 L243.02401733398438,66.21105194091797 L242.89581298828125,66.5970458984375 L242.85647583007812,66.53137969970703 L242.93002319335938,65.98481750488281 L243.13275146484375,64.96261596679688 L243.5111083984375,63.57526397705078 L244.09938049316406,61.98255157470703 L244.9051055908203,60.35264205932617 L245.92599487304688,58.81488800048828 L247.14537048339844,57.482635498046875 L248.51376342773438,56.44474792480469 L249.9745635986328,55.80524444580078 L251.43072509765625,55.629417419433594 L252.78976440429688,55.95111846923828 L253.97854614257812,56.754539489746094 L254.92373657226562,57.99072265625 L255.5846405029297,59.57520294189453 L255.94744873046875,61.378604888916016 L256.05816650390625,63.22025680541992 L255.9990692138672,64.90933990478516 L255.9225311279297,66.25203704833984 L255.95205688476562,67.11760711669922 L256.16595458984375,67.48733520507812 L256.4498291015625,67.52239990234375 L256.69818115234375,67.41474914550781 M261.6202087402344,63.502235412597656 L262.0734558105469,63.15229797363281 L262.8690490722656,62.52309799194336 L263.9412841796875,61.62599563598633 L265.1102294921875,60.56721115112305 L266.2701416015625,59.41575241088867 L267.2947998046875,58.26169204711914 L268.1078796386719,57.19511413574219 L268.6324462890625,56.30127716064453 L268.79351806640625,55.625038146972656 L268.5650634765625,55.19792938232422 L267.9309997558594,55.06825256347656 L266.9178771972656,55.320472717285156 L265.6324157714844,56.02202606201172 L264.2434387207031,57.163455963134766 L262.9493103027344,58.6474609375 L261.9682312011719,60.31725311279297 L261.44451904296875,62.004486083984375 L261.4677734375,63.580810546875 L262.02630615234375,64.9430923461914 L263.1711730957031,65.97322082519531 L264.8463134765625,66.58291625976562 L266.9236755371094,66.75261688232422 L268.7868957519531,66.64995574951172 L270.05682373046875,66.46432495117188 M282.7230224609375,55.84502029418945 L282.38055419921875,55.588356018066406 L281.69635009765625,55.2970085144043 L280.63531494140625,55.121307373046875 L279.3204040527344,55.23898696899414 L277.9085998535156,55.6623420715332 L276.5923156738281,56.34210968017578 L275.56805419921875,57.19127655029297 L275.01617431640625,58.13483810424805 L275.0392761230469,59.09636688232422 L275.6969909667969,60.02239227294922 L276.95556640625,60.883750915527344 L278.683837890625,61.67835998535156 L280.6787109375,62.44303894042969 L282.69329833984375,63.190059661865234 L284.4929504394531,63.927066802978516 L285.89044189453125,64.62644958496094 L286.752685546875,65.26081848144531 L287.01641845703125,65.8141860961914 L286.6510925292969,66.2896728515625 L285.6734313964844,66.67048645019531 L284.17059326171875,66.95913696289062 L282.2781982421875,67.12789916992188 L280.19683837890625,67.18437957763672 L278.20013427734375,67.13421630859375 L276.53118896484375,66.99417114257812 L275.3607177734375,66.78662109375 L274.720947265625,66.59246826171875 L274.4794616699219,66.45158386230469 M295.45758056640625,56.89432144165039 L295.33404541015625,56.6584587097168 L294.98974609375,56.3655891418457 L294.3291015625,56.15731430053711 L293.32391357421875,56.19171905517578 L292.0588684082031,56.488521575927734 L290.73040771484375,57.003639221191406 L289.5889587402344,57.65583038330078 L288.8699951171875,58.383155822753906 L288.7459716796875,59.1483268737793 L289.2730712890625,59.90829849243164 L290.4217834472656,60.639060974121094 L292.06292724609375,61.33135986328125 L294.0164794921875,62.001773834228516 L296.0696716308594,62.673011779785156 L298.02886962890625,63.35660171508789 L299.7191467285156,64.0317153930664 L301.01983642578125,64.6572036743164 L301.8460693359375,65.20153045654297 L302.1644287109375,65.64744567871094 L301.95343017578125,65.9845199584961 L301.22955322265625,66.22225952148438 L300.0008239746094,66.3602294921875 L298.33837890625,66.38288879394531 L296.35601806640625,66.29663848876953 L294.21527099609375,66.10194396972656 L292.08258056640625,65.81169891357422 L290.1087646484375,65.46218872070312 L288.39495849609375,65.07283020019531 L287.048095703125,64.6731185913086 L286.10723876953125,64.30397033691406 L285.571533203125,64.02664947509766 L285.3507995605469,63.8661003112793 M327.12127685546875,56.375160217285156 L326.80645751953125,56.0872917175293 L326.2170104980469,55.687644958496094 L325.322509765625,55.307254791259766 L324.15264892578125,55.13322448730469 L322.7161865234375,55.25132369995117 L321.04351806640625,55.69447326660156 L319.2386474609375,56.44584655761719 L317.479736328125,57.52342224121094 L315.9403991699219,58.90118408203125 L314.77337646484375,60.51309585571289 L314.1162109375,62.24885177612305 L314.04632568359375,63.95243835449219 L314.6061706542969,65.43157958984375 L315.7804870605469,66.55501556396484 L317.4800720214844,67.21842956542969 L319.5641784667969,67.37362670898438 L321.86212158203125,67.02459716796875 L324.1776123046875,66.2151870727539 L326.3056335449219,64.99745178222656 L328.06689453125,63.47840118408203 L329.3165283203125,61.777061462402344 L329.9801940917969,60.010597229003906 L330.0496520996094,58.29881286621094 L329.562255859375,56.722015380859375 L328.64874267578125,55.34545135498047 L327.50054931640625,54.22602462768555 L326.4940185546875,53.46757125854492 L325.84405517578125,53.06159591674805 M335.76513671875,69.12913513183594 L335.7709045410156,69.12188720703125 L335.7947082519531,69.08639526367188 L335.82672119140625,69.0373306274414 L335.857177734375,68.9893798828125 M347.80206298828125,54.67403793334961 L347.51483154296875,54.52036666870117 L346.9928283691406,54.437477111816406 L346.22552490234375,54.60447311401367 L345.2630615234375,55.20151138305664 L344.1528015136719,56.252220153808594 L343.005859375,57.69361114501953 L341.9930114746094,59.395896911621094 L341.30535888671875,61.197750091552734 L341.0894775390625,62.92595291137695 L341.4024353027344,64.42536926269531 L342.2391357421875,65.56632232666016 L343.51788330078125,66.26315307617188 L345.13177490234375,66.4778823852539 L346.9315185546875,66.19294738769531 L348.76763916015625,65.44895935058594 L350.48016357421875,64.32007598876953 L351.9251708984375,62.89400863647461 L352.9820556640625,61.27923583984375 L353.5893249511719,59.58857345581055 L353.725341796875,57.93679428100586 L353.431396484375,56.434696197509766 L352.7593688964844,55.16383361816406 L351.7926940917969,54.159996032714844 L350.6092529296875,53.47101593017578 L349.32940673828125,53.1137580871582 L348.0787048339844,53.0819091796875 L347.11834716796875,53.2270393371582 L346.5450744628906,53.40767288208008 M362.54718017578125,57.8825798034668 L362.5571594238281,57.85816192626953 L362.580322265625,57.83591842651367 L362.60980224609375,57.83036422729492 L362.63983154296875,57.846900939941406 L362.66131591796875,57.85978698730469 L362.6783447265625,57.85960388183594 L362.69158935546875,57.84922409057617 L362.70281982421875,57.83407974243164 M361.1475830078125,65.0103759765625 L361.09716796875,65.10792541503906 L361.1058044433594,65.2032470703125 L361.161865234375,65.26852416992188 L361.25372314453125,65.27592468261719 M382.53533935546875,46.78904342651367 L382.57916259765625,47.015869140625 L382.6251220703125,47.50653076171875 L382.62823486328125,48.33757781982422 L382.518798828125,49.52191925048828 L382.27813720703125,51.07559585571289 L381.89678955078125,52.94818878173828 L381.414794921875,55.06367492675781 L380.88006591796875,57.310577392578125 L380.3375244140625,59.54631423950195 L379.84710693359375,61.630523681640625 L379.46923828125,63.44739532470703 L379.25482177734375,64.8468017578125 L379.2400207519531,65.74166870117188 L379.4062805175781,66.11424255371094 L379.624755859375,66.1303482055664 L379.808349609375,65.99669647216797 M389.7327575683594,47.17521667480469 L389.6201477050781,47.69129943847656 L389.4444580078125,48.67084503173828 L389.210693359375,50.118038177490234 L388.9346008300781,51.90031814575195 L388.60595703125,53.94773483276367 L388.2189636230469,56.16239929199219 L387.8055725097656,58.45704650878906 L387.40020751953125,60.699806213378906 L387.031982421875,62.722076416015625 L386.71636962890625,64.37680053710938 L386.49261474609375,65.48766326904297 L386.36407470703125,66.06104278564453 M378.06341552734375,58.26568603515625 L378.30377197265625,58.25584030151367 L378.897216796875,58.22483825683594 L379.958251953125,58.16499328613281 L381.5079040527344,58.06978225708008 L383.4813537597656,57.93008041381836 L385.7569885253906,57.73876953125 L388.180419921875,57.500789642333984 L390.6458435058594,57.22281265258789 L393.0063171386719,56.93406295776367 L395.14373779296875,56.663692474365234 L396.7253112792969,56.46048355102539 L397.6469421386719,56.341590881347656 M402.17291259765625,54.82255554199219 L401.8626708984375,54.696895599365234 L401.223388671875,54.62638473510742 L400.2054748535156,54.767112731933594 L398.8702087402344,55.28119659423828 L397.32354736328125,56.18645095825195 L395.7198486328125,57.41331481933594 L394.2660827636719,58.8177604675293 L393.1565246582031,60.25725555419922 L392.5089111328125,61.59760665893555 L392.3558654785156,62.73558044433594 L392.67193603515625,63.57848358154297 L393.3841247558594,64.0505599975586 L394.41717529296875,64.09105682373047 L395.70062255859375,63.68808364868164 L397.1236572265625,62.87586212158203 L398.57244873046875,61.74336242675781 L399.93634033203125,60.41588592529297 L401.12896728515625,59.024986267089844 L402.0873107910156,57.69505310058594 L402.8059997558594,56.53656005859375 L403.2901611328125,55.62422561645508 L403.57275390625,55.004425048828125 L403.69049072265625,54.724300384521484 L403.7024841308594,54.82023620605469 L403.6219177246094,55.32105255126953 L403.46435546875,56.22290802001953 L403.2575988769531,57.451881408691406 L403.0458679199219,58.86602783203125 L402.90020751953125,60.31953430175781 L402.8999328613281,61.66845703125 L403.0751037597656,62.803375244140625 L403.45123291015625,63.61932373046875 L404.00634765625,64.06193542480469 L404.6744384765625,64.12513732910156 L405.26226806640625,63.979434967041016 L405.6502685546875,63.7911491394043 M408.7005310058594,56.658287048339844 L408.6177673339844,57.044124603271484 L408.4479675292969,57.80024719238281 L408.182373046875,58.91588592529297 L407.8537292480469,60.21294021606445 L407.5191650390625,61.510414123535156 L407.2218322753906,62.62068557739258 L407.00537109375,63.410404205322266 L406.90350341796875,63.78733825683594 L406.9481201171875,63.70614242553711 L407.1798095703125,63.150306701660156 L407.64825439453125,62.175498962402344 L408.3523254394531,60.896812438964844 L409.2618103027344,59.47256088256836 L410.33782958984375,58.044857025146484 L411.5455322265625,56.739315032958984 L412.8427429199219,55.65087890625 L414.2018127441406,54.868865966796875 L415.577392578125,54.450809478759766 L416.895751953125,54.43818283081055 L418.1080322265625,54.816810607910156 L419.1498718261719,55.54502868652344 L419.9531555175781,56.5556640625 L420.5036926269531,57.764644622802734 L420.8223571777344,59.07670974731445 L420.9627380371094,60.37100601196289 L421.0232238769531,61.52651596069336 L421.0508117675781,62.3599739074707 L421.066162109375,62.82393264770508 M431.43292236328125,57.57276916503906 L431.22735595703125,57.30967330932617 L430.7814636230469,56.987632751464844 L430.02349853515625,56.77501678466797 L428.95257568359375,56.87799835205078 L427.5820007324219,57.358375549316406 L426.0220031738281,58.20635223388672 L424.4625549316406,59.31685256958008 L423.1180419921875,60.54490661621094 L422.1835021972656,61.74852752685547 L421.7758483886719,62.77298355102539 L421.8995666503906,63.504207611083984 L422.5013427734375,63.8487548828125 L423.4934997558594,63.74394607543945 L424.7643737792969,63.150596618652344 L426.214599609375,62.111454010009766 L427.7229919433594,60.682769775390625 L429.1648864746094,58.9658088684082 L430.4643249511719,57.080772399902344 L431.5536804199219,55.1709098815918 L432.3988037109375,53.390403747558594 L433.012939453125,51.92381286621094 L433.41058349609375,50.854461669921875 L433.619140625,50.2171630859375 L433.70672607421875,50.012115478515625 L433.707763671875,50.24835205078125 L433.64251708984375,50.96474075317383 L433.5298156738281,52.213321685791016 L433.3796691894531,53.921783447265625 L433.20745849609375,55.95896911621094 L433.0582275390625,58.127681732177734 L432.96722412109375,60.22834396362305 L432.9898681640625,62.06361770629883 L433.15191650390625,63.4866828918457 L433.44866943359375,64.40211486816406 L433.757080078125,64.85770416259766 L433.9867248535156,64.9960708618164 M438.3609313964844,56.15358352661133 L438.3899841308594,56.2801513671875 L438.4487609863281,56.634063720703125 L438.50750732421875,57.30369567871094 L438.5235900878906,58.29352569580078 L438.4764099121094,59.523841857910156 L438.4053649902344,60.83553695678711 L438.3770446777344,62.064083099365234 L438.4692077636719,63.06584930419922 L438.69757080078125,63.731380462646484 L439.0519104003906,63.9982795715332 L439.515869140625,63.85200881958008 L440.10284423828125,63.28916549682617 L440.8107604980469,62.38521957397461 L441.60498046875,61.26723098754883 L442.40118408203125,60.09918975830078 L443.1130676269531,59.0517578125 L443.663330078125,58.242305755615234 L444.0376892089844,57.722110748291016 L444.2523498535156,57.52401351928711 L444.3326416015625,57.65665817260742 L444.30828857421875,58.1377067565918 L444.2298889160156,58.960853576660156 L444.14581298828125,60.039161682128906 L444.1421813964844,61.24246597290039 L444.291259765625,62.40424346923828 L444.64593505859375,63.36620330810547 L445.2199401855469,64.01617431640625 L446.0033264160156,64.28339385986328 L446.9627685546875,64.11947631835938 L448.0542297363281,63.53359603881836 L449.1830749511719,62.58366775512695 L450.2358093261719,61.38725280761719 L451.1014404296875,60.07381057739258 L451.7099304199219,58.76168441772461 L452.0547180175781,57.550941467285156 L452.17694091796875,56.52054977416992 L452.1343078613281,55.72891616821289 L451.98590087890625,55.203304290771484 L451.8258972167969,54.92185974121094 L451.71026611328125,54.811363220214844 M457.07861328125,56.75342559814453 L456.9825134277344,57.13604736328125 L456.81207275390625,57.8535041809082 L456.5770568847656,58.89205551147461 L456.3038330078125,60.11542892456055 L456.0218200683594,61.412601470947266 L455.7583923339844,62.633419036865234 L455.5313415527344,63.66716766357422 L455.388671875,64.4233169555664 L455.3490295410156,64.82841491699219 L455.4119567871094,64.83131408691406 L455.5814514160156,64.3939437866211 L455.8693542480469,63.49219512939453 L456.28289794921875,62.205684661865234 L456.8531494140625,60.684898376464844 L457.5832824707031,59.09187316894531 L458.4656982421875,57.573631286621094 L459.4793701171875,56.230587005615234 L460.59716796875,55.126731872558594 L461.77886962890625,54.31930160522461 L462.9994201660156,53.86594009399414 L464.2273254394531,53.776832580566406 L465.446044921875,54.032958984375 L466.643310546875,54.56288528442383 L467.8069152832031,55.26744079589844 L468.92535400390625,56.026641845703125 L469.9989013671875,56.759010314941406 L471.0004577636719,57.40132141113281 L471.90631103515625,57.94270324707031 L472.6763610839844,58.36663818359375 L473.2850646972656,58.678306579589844 L473.7208557128906,58.882564544677734 L474.0150451660156,59.0189208984375 L474.1799621582031,59.15957260131836 L474.2373352050781,59.41531753540039 L474.17822265625,59.869808197021484 L474.00384521484375,60.58681106567383 L473.7211608886719,61.541900634765625 L473.3793640136719,62.655704498291016 L473.0269775390625,63.819156646728516 L472.7121276855469,64.91378784179688 L472.4454040527344,65.82176208496094 L472.22760009765625,66.47784423828125 L472.071533203125,66.8553695678711 L471.97930908203125,67.01041412353516 M473.43853759765625,49.136932373046875 L473.51055908203125,49.0296516418457 L473.6090087890625,48.907997131347656 L473.7003479003906,48.81024932861328 L473.7510986328125,48.77470016479492 M483.6842956542969,49.54779815673828 L483.537109375,50.140342712402344 L483.28125,51.21090316772461 L482.93231201171875,52.73691177368164 L482.5289306640625,54.54570007324219 L482.0740051269531,56.55870056152344 L481.5945129394531,58.66770553588867 L481.1383972167969,60.779014587402344 L480.7679138183594,62.760826110839844 L480.5425109863281,64.47357177734375 L480.4716796875,65.81080627441406 L480.495361328125,66.669677734375 L480.548583984375,67.09077453613281 M477.7086181640625,57.281253814697266 L478.0702209472656,57.250579833984375 L478.94305419921875,57.203365325927734 L480.41705322265625,57.15500259399414 L482.3784484863281,57.0986213684082 L484.6019592285156,57.03335952758789 L486.8678894042969,56.97694778442383 L488.9954833984375,56.93458938598633 L490.88916015625,56.94220733642578 L492.4508361816406,57.03837585449219 L493.6093444824219,57.235660552978516 L494.32659912109375,57.591957092285156 L494.63519287109375,58.15255355834961 L494.58587646484375,58.955718994140625 L494.2633361816406,60.021121978759766 L493.745849609375,61.303958892822266 L493.1581115722656,62.69306945800781 L492.6241149902344,64.0336685180664 L492.2506408691406,65.1386947631836 L492.058349609375,65.86408996582031 L492.0039978027344,66.21802520751953 M494.51092529296875,51.412593841552734 L494.5853576660156,51.12470245361328 L494.7398681640625,50.776363372802734 L494.9163513183594,50.480106353759766 L495.05657958984375,50.34846496582031 M499.61468505859375,55.205528259277344 L499.58154296875,55.566593170166016 L499.49822998046875,56.2813720703125 L499.32611083984375,57.35390090942383 L499.06097412109375,58.65073013305664 L498.74169921875,60.03974533081055 L498.4233093261719,61.370059967041016 L498.1743469238281,62.523895263671875 L498.06646728515625,63.38880157470703 L498.126953125,63.87474060058594 L498.402099609375,63.91910171508789 L498.93304443359375,63.510169982910156 L499.72003173828125,62.67619705200195 L500.71978759765625,61.522186279296875 L501.8896484375,60.19355010986328 L503.1632080078125,58.84392547607422 L504.5076599121094,57.6261100769043 L505.8804016113281,56.65753173828125 L507.2220153808594,56.00789260864258 L508.4540100097656,55.733612060546875 L509.51513671875,55.86433029174805 L510.3625793457031,56.3923225402832 L510.99945068359375,57.30076217651367 L511.42205810546875,58.507362365722656 L511.67742919921875,59.91706466674805 L511.838623046875,61.39067840576172 L511.9775390625,62.77906036376953 L512.101318359375,63.81928634643555 L512.2066040039062,64.4291000366211 M521.332763671875,57.785003662109375 L521.1654052734375,57.44325256347656 L520.789794921875,57.04499816894531 L520.148193359375,56.78739929199219 L519.2471923828125,56.90312957763672 L518.1301879882812,57.4150276184082 L516.9200439453125,58.24740982055664 L515.8077392578125,59.256492614746094 L514.9781494140625,60.3114128112793 L514.5875244140625,61.27482986450195 L514.7080078125,62.02881622314453 L515.3316650390625,62.48849105834961 L516.3710327148438,62.60204315185547 L517.7228393554688,62.382686614990234 L519.2061157226562,61.878421783447266 L520.6378173828125,61.19791793823242 L521.8450927734375,60.46440887451172 L522.733154296875,59.80210494995117 L523.2696533203125,59.28745651245117 L523.531494140625,58.97237777709961 L523.6102905273438,58.875579833984375 L523.5902099609375,59.03703308105469 L523.5235595703125,59.49951934814453 L523.4481201171875,60.308326721191406 L523.391845703125,61.46197509765625 L523.3858642578125,62.9316291809082 L523.4398803710938,64.67036437988281 L523.5068969726562,66.60841369628906 L523.5067138671875,68.66944885253906 L523.3441162109375,70.75497436523438 L522.9698486328125,72.74580383300781 L522.3714599609375,74.52119445800781 L521.566650390625,75.9942626953125 L520.5579833984375,77.09195709228516 L519.34716796875,77.78742218017578 L517.9262084960938,78.07084655761719 L516.3472290039062,77.93634033203125 L514.7503051757812,77.44438934326172 L513.318603515625,76.72918701171875 L512.2950439453125,76.0626220703125 L511.7436828613281,75.61917877197266 M540.3241577148438,56.21888732910156 L540.2929077148438,56.50389099121094 L540.2319946289062,57.12413024902344 L540.1177368164062,58.13174819946289 L539.930419921875,59.4615592956543 L539.64990234375,61.0076904296875 L539.2836303710938,62.58388137817383 L538.87744140625,64.0133285522461 L538.5045166015625,65.148681640625 L538.2093505859375,65.87981414794922 L538.0313720703125,66.15497589111328 L537.9807739257812,65.96581268310547 L538.0704956054688,65.29725646972656 L538.3388671875,64.18814849853516 L538.821533203125,62.73939895629883 L539.51318359375,61.09114074707031 L540.4080810546875,59.41070556640625 L541.462646484375,57.86151885986328 L542.6175537109375,56.55305099487305 L543.8245239257812,55.58613967895508 L545.02978515625,55.03834915161133 L546.1528930664062,54.949153900146484 L547.1361083984375,55.33518981933594 L547.91064453125,56.17550277709961 L548.4136962890625,57.375247955322266 L548.6229858398438,58.82408142089844 L548.5713500976562,60.3487434387207 L548.3377685546875,61.74903869628906 L548.0407104492188,62.88016128540039 L547.7901000976562,63.643943786621094 L547.651123046875,63.96830368041992 L547.6726684570312,63.849849700927734 L547.9014892578125,63.279441833496094 L548.379150390625,62.292457580566406 L549.1329345703125,61.01802444458008 L550.15283203125,59.61771011352539 L551.3623657226562,58.237178802490234 L552.682861328125,57.0109977722168 L554.0306396484375,56.029815673828125 L555.3326416015625,55.363990783691406 L556.5357666015625,55.09067916870117 L557.57666015625,55.25348663330078 L558.3856201171875,55.845916748046875 L558.91259765625,56.83391571044922 L559.1481323242188,58.144691467285156 L559.132080078125,59.650672912597656 L558.9724731445312,61.21091079711914 L558.787109375,62.68088912963867 L558.701904296875,63.90541458129883 L558.82373046875,64.76799011230469 L559.2596435546875,65.18058776855469 L560.06982421875,65.09302520751953 L561.274169921875,64.51937103271484 L562.7788696289062,63.54289627075195 L564.4212646484375,62.26712417602539 L566.0025634765625,60.82413864135742 L567.363037109375,59.32817077636719 L568.4054565429688,57.89274597167969 L569.1019287109375,56.6049690246582 L569.441162109375,55.54739761352539 L569.417724609375,54.799896240234375 L569.02685546875,54.437503814697266 L568.29833984375,54.51195526123047 L567.3094482421875,55.06267166137695 L566.1952514648438,56.059486389160156 L565.119384765625,57.4163818359375 L564.2440185546875,59.004756927490234 L563.7049560546875,60.65892028808594 L563.6022338867188,62.204994201660156 L563.9825439453125,63.48452377319336 L564.8480224609375,64.36836242675781 L566.135986328125,64.78364562988281 L567.8001098632812,64.64268493652344 L569.7034912109375,63.96474075317383 L571.6609497070312,62.858558654785156 L573.2305908203125,61.76015853881836 L574.1995849609375,60.975364685058594 M580.7106323242188,54.02105712890625 L580.1297607421875,53.988529205322266 L579.1084594726562,54.11354064941406 L577.7509765625,54.49247360229492 L576.371337890625,55.17123031616211 L575.2064208984375,56.06700897216797 L574.447998046875,57.06195831298828 L574.197998046875,58.078765869140625 L574.5010986328125,59.081298828125 L575.3153076171875,60.01260757446289 L576.5538330078125,60.840431213378906 L578.032958984375,61.55525588989258 L579.5145263671875,62.1474609375 L580.7376708984375,62.65277099609375 L581.48828125,63.10826110839844 L581.6376953125,63.52964782714844 L581.18017578125,63.92586898803711 L580.1729736328125,64.2971420288086 L578.769775390625,64.61109161376953 L577.1646118164062,64.83956146240234 L575.5859375,64.95939636230469 L574.2420654296875,64.9532699584961 L573.333740234375,64.87903594970703 L572.8626708984375,64.79743194580078 M590.8684692382812,55.67601776123047 L590.3059692382812,55.65720748901367 L589.3583984375,55.72738265991211 L588.1090087890625,55.96107482910156 L586.814208984375,56.40009307861328 L585.62646484375,57.01019287109375 L584.7137451171875,57.74186325073242 L584.214599609375,58.54771041870117 L584.232421875,59.381736755371094 L584.7802124023438,60.198795318603516 L585.8135375976562,60.96689987182617 L587.2060546875,61.6600341796875 L588.7755126953125,62.282798767089844 L590.3230590820312,62.85261917114258 L591.6414794921875,63.37532043457031 L592.5601806640625,63.83952331542969 L592.9793701171875,64.23464965820312 L592.856201171875,64.5333480834961 L592.1873779296875,64.71199035644531 L591.0296020507812,64.76604461669922 L589.472900390625,64.69483947753906 L587.7002563476562,64.50248718261719 L585.9572143554688,64.2444076538086 L584.5990600585938,63.938926696777344 L583.7842407226562,63.67333221435547 L583.4691772460938,63.501976013183594 M598.6168212890625,56.850650787353516 L598.556884765625,57.108787536621094 L598.4058227539062,57.66416931152344 L598.1376953125,58.5610237121582 L597.7662353515625,59.732505798339844 L597.3494873046875,61.08518600463867 L596.9696044921875,62.48648452758789 L596.6993408203125,63.81643295288086 L596.5999755859375,64.91638946533203 L596.6817626953125,65.6488037109375 L596.9122924804688,65.942138671875 L597.1689453125,65.93135070800781 L597.3634643554688,65.78739166259766 M599.3328857421875,50.078739166259766 L599.3650512695312,50.004337310791016 L599.4197998046875,49.93354034423828 L599.47705078125,49.886817932128906 L599.5172119140625,49.8846321105957 M602.6248168945312,57.7770881652832 L602.609375,58.29316711425781 L602.5906982421875,59.19529724121094 L602.5421752929688,60.403472900390625 L602.447509765625,61.66801834106445 L602.3023681640625,62.83599090576172 L602.1405639648438,63.778812408447266 L602.0344848632812,64.42469787597656 L602.0678100585938,64.70419311523438 L602.2994384765625,64.5738296508789 L602.7821044921875,63.999786376953125 L603.54052734375,63.02231979370117 L604.5592041015625,61.7580680847168 L605.7794189453125,60.37176513671875 L607.1294555664062,59.04402160644531 L608.5115966796875,57.924495697021484 L609.83447265625,57.10356903076172 L611.025146484375,56.6338005065918 L612.029296875,56.547908782958984 L612.78564453125,56.8543701171875 L613.2808837890625,57.55405044555664 L613.4966430664062,58.6125602722168 L613.4579467773438,59.93619155883789 L613.2525634765625,61.3913688659668 L613.03466796875,62.81547546386719 L612.9234619140625,64.03424835205078 L613.009521484375,64.92855834960938 L613.1997680664062,65.4564208984375 L613.3839111328125,65.67886352539062 M617.2039794921875,62.058807373046875 L617.515380859375,62.12013626098633 L618.1387329101562,62.143165588378906 L619.0733642578125,62.0485954284668 L620.2190551757812,61.76264953613281 L621.4503173828125,61.27568817138672 L622.6290283203125,60.6031379699707 L623.6610717773438,59.800384521484375 L624.4642333984375,58.916259765625 L624.9702758789062,58.01640319824219 L625.1668701171875,57.18992233276367 L625.03125,56.52151870727539 L624.5606689453125,56.10941696166992 L623.785888671875,56.040321350097656 L622.7691650390625,56.36474609375 L621.6041259765625,57.09112548828125 L620.440673828125,58.18095779418945 L619.444091796875,59.537254333496094 L618.7606811523438,61.04231643676758 L618.5042114257812,62.542869567871094 L618.759033203125,63.890689849853516 L619.5570678710938,64.9482421875 L620.8800048828125,65.6045913696289 L622.6572265625,65.8035888671875 L624.759033203125,65.54733276367188 L627.015380859375,64.88629913330078 L629.2535400390625,63.913787841796875 L631.3311767578125,62.73299789428711 L633.1444091796875,61.4478759765625 L634.628662109375,60.16618728637695 L635.7756958007812,58.97699737548828 L636.6053466796875,57.94935989379883 L637.15625,57.121971130371094 L637.4849853515625,56.510902404785156 L637.6541137695312,56.11085891723633 L637.7427368164062,55.93100357055664 L637.8472900390625,55.95359420776367 L638.0880126953125,56.148380279541016 L638.578125,56.46808624267578 L639.3895263671875,56.86945724487305 L640.5220947265625,57.30408477783203 L641.9248046875,57.77695846557617 L643.4873657226562,58.280784606933594 L645.0958251953125,58.815635681152344 L646.630859375,59.37374496459961 L647.9906005859375,59.95524597167969 L649.0780029296875,60.53974533081055 L649.841796875,61.12855911254883 L650.2413330078125,61.703086853027344 L650.25341796875,62.234718322753906 L649.8619384765625,62.69443893432617 L649.0567626953125,63.07292556762695 L647.8511962890625,63.3428955078125 L646.3468017578125,63.499515533447266 L644.69580078125,63.542049407958984 L643.0843505859375,63.48295593261719 L641.7206420898438,63.320098876953125 L640.7342529296875,63.07364273071289 L640.1593017578125,62.7453498840332 L639.921875,62.437599182128906 L639.8826904296875,62.21768569946289 M658.01806640625,56.65182113647461 L657.806396484375,56.421844482421875 L657.3140869140625,56.11342239379883 L656.4588623046875,55.84531021118164 L655.29443359375,55.75774383544922 L653.9688720703125,55.880516052246094 L652.7208251953125,56.197784423828125 L651.804931640625,56.665069580078125 L651.41259765625,57.26067352294922 L651.6402587890625,57.97946548461914 L652.505126953125,58.81037139892578 L653.9105224609375,59.734222412109375 L655.684326171875,60.708377838134766 L657.5877685546875,61.69138717651367 L659.328125,62.6150016784668 L660.638427734375,63.42291259765625 L661.3197021484375,64.08429718017578 L661.2427978515625,64.5796127319336 L660.4210205078125,64.90716552734375 L658.967041015625,65.0878677368164 L657.002197265625,65.11980438232422 L654.7540283203125,65.0341796875 L652.491943359375,64.87557983398438 L650.708740234375,64.71809387207031 L649.634521484375,64.61068725585938 M683.5609130859375,56.5362434387207 L683.301025390625,56.271751403808594 L682.8111572265625,55.93858337402344 L682.0452880859375,55.675811767578125 L681.02978515625,55.67896270751953 L679.7547607421875,56.02185821533203 L678.2933349609375,56.725765228271484 L676.7655029296875,57.752655029296875 L675.35107421875,59.05263900756836 L674.2186279296875,60.52959060668945 L673.5299072265625,62.06944274902344 L673.37548828125,63.556636810302734 L673.8975830078125,64.84720611572266 L675.0997314453125,65.81658935546875 L676.8653564453125,66.39617919921875 L678.5628662109375,66.6416015625 L679.7630615234375,66.67669677734375 M691.704345703125,57.205204010009766 M689.6923828125,56.91072082519531 L689.1453857421875,57.12538528442383 L688.2808837890625,57.613311767578125 L687.2353515625,58.43471145629883 L686.279541015625,59.5511360168457 L685.553466796875,60.87728500366211 L685.1597900390625,62.278324127197266 L685.154296875,63.600616455078125 L685.59619140625,64.70586395263672 L686.475341796875,65.48099517822266 L687.7296142578125,65.85002136230469 L689.259033203125,65.77909851074219 L690.932861328125,65.28184509277344 L692.59326171875,64.39883422851562 L694.0787353515625,63.2354850769043 L695.240966796875,61.91412353515625 L695.9605712890625,60.573551177978516 L696.1744384765625,59.319175720214844 L695.8927001953125,58.238162994384766 L695.160888671875,57.40477752685547 L694.1134033203125,56.87744903564453 L692.940185546875,56.65717697143555 L691.9713134765625,56.64795684814453 L691.3714599609375,56.722782135009766 M699.2650146484375,55.4788932800293 L699.3118896484375,55.65116500854492 L699.374267578125,56.072574615478516 L699.3966064453125,56.82182693481445 L699.31005859375,57.894710540771484 L699.0869140625,59.226158142089844 L698.7567138671875,60.68918991088867 L698.3897705078125,62.117897033691406 L698.0887451171875,63.35098648071289 L697.927978515625,64.24836730957031 L697.9556884765625,64.70838928222656 L698.1767578125,64.68746185302734 L698.607421875,64.18109893798828 L699.233642578125,63.25619888305664 L700.048828125,62.030906677246094 L701.0345458984375,60.66170120239258 L702.1561279296875,59.30418395996094 L703.3289794921875,58.0903434753418 L704.47216796875,57.10416030883789 L705.5050048828125,56.42372131347656 L706.379638671875,56.0999870300293 L707.059326171875,56.18594741821289 L707.528076171875,56.708946228027344 L707.747802734375,57.642852783203125 L707.702392578125,58.87215042114258 L707.454833984375,60.21992874145508 L707.104248046875,61.473960876464844 L706.7613525390625,62.472774505615234 L706.5179443359375,63.10610580444336 L706.417724609375,63.327659606933594 L706.5107421875,63.124263763427734 L706.8717041015625,62.508819580078125 L707.5606689453125,61.53541946411133 L708.5789794921875,60.338584899902344 L709.8575439453125,59.05536651611328 L711.268798828125,57.845130920410156 L712.67919921875,56.83585739135742 L713.9573974609375,56.09173583984375 L715.035400390625,55.651004791259766 L715.8778076171875,55.54620361328125 L716.4932861328125,55.772857666015625 L716.90283203125,56.337467193603516 L717.121337890625,57.226966857910156 L717.1322021484375,58.36527633666992 L716.9698486328125,59.67481231689453 L716.7076416015625,61.02467346191406 L716.4486083984375,62.2674446105957 L716.2716064453125,63.18268585205078 L716.197021484375,63.70744323730469 M723.4779052734375,57.21764373779297 L723.46826171875,57.44953918457031 L723.38671875,57.96460723876953 L723.1871337890625,58.85023498535156 L722.8326416015625,60.11347961425781 L722.3197021484375,61.75846862792969 L721.6707763671875,63.7294921875 L720.9349365234375,65.9468994140625 L720.1529541015625,68.28549194335938 L719.3968505859375,70.58775329589844 L718.72900390625,72.6556396484375 L718.1927490234375,74.34486389160156 L717.8125,75.51986694335938 L717.6141357421875,76.10725402832031 L717.58935546875,76.08172607421875 L717.7366943359375,75.45298767089844 L718.0516357421875,74.24927520751953 L718.51953125,72.60063171386719 L719.1209716796875,70.64210510253906 L719.8369140625,68.51685333251953 L720.6419677734375,66.35440826416016 L721.523193359375,64.25856018066406 L722.5018310546875,62.29030990600586 L723.606689453125,60.53302001953125 L724.8564453125,59.04395294189453 L726.242919921875,57.8879280090332 L727.72412109375,57.124996185302734 L729.23681640625,56.80614471435547 L730.724365234375,56.92578125 L732.095703125,57.44680404663086 L733.232666015625,58.28620910644531 L734.03076171875,59.34285354614258 L734.394287109375,60.498863220214844 L734.2738037109375,61.65530776977539 L733.673828125,62.70450973510742 L732.6142578125,63.57765579223633 L731.140625,64.21632385253906 L729.427978515625,64.58651733398438 L727.71337890625,64.70349884033203 L726.388916015625,64.6727523803711 L725.6220703125,64.59127044677734 M742.949951171875,56.14407730102539 L742.9010009765625,56.01121139526367 L742.724853515625,55.88575744628906 L742.33544921875,55.89567184448242 L741.6929931640625,56.19401168823242 L740.817626953125,56.826229095458984 L739.8076171875,57.77070617675781 L738.81298828125,58.94526672363281 L737.9725341796875,60.21604537963867 L737.3843994140625,61.457969665527344 L737.1280517578125,62.55830001831055 L737.2301025390625,63.41368865966797 L737.7021484375,63.95421600341797 L738.5450439453125,64.13609313964844 L739.7032470703125,63.9280891418457 L741.066650390625,63.3529167175293 L742.5008544921875,62.465087890625 L743.865966796875,61.3462028503418 L745.0576171875,60.10406494140625 L746.013427734375,58.8543815612793 L746.709228515625,57.71957015991211 L747.160888671875,56.79551315307617 L747.3818359375,56.142913818359375 L747.410400390625,55.793907165527344 L747.259521484375,55.768795013427734 L746.9273681640625,56.09150314331055 L746.432373046875,56.79450988769531 L745.845947265625,57.837432861328125 L745.2659912109375,59.12559127807617 L744.84375,60.50733184814453 L744.699951171875,61.817596435546875 L744.938720703125,62.90439987182617 L745.61279296875,63.650474548339844 L746.72021484375,63.95522689819336 L748.2015380859375,63.78215408325195 L749.9422607421875,63.15471267700195 L751.7830810546875,62.1762809753418 L753.5740966796875,60.98036575317383 L755.164306640625,59.72562026977539 L756.4404296875,58.56692123413086 L757.342529296875,57.61125564575195 L757.864501953125,56.9520378112793 L758.04736328125,56.66682052612305 L757.95361328125,56.782997131347656 L757.621337890625,57.317447662353516 L757.093017578125,58.259498596191406 L756.4232177734375,59.47637939453125 L755.7210693359375,60.8013801574707 L755.0968017578125,62.033390045166016 L754.658935546875,62.98663330078125 L754.4644775390625,63.53429412841797 L754.5289306640625,63.6319580078125 L754.8431396484375,63.246002197265625 L755.395751953125,62.405113220214844 L756.1483154296875,61.19443893432617 L757.0701904296875,59.76702880859375 L758.118896484375,58.28681182861328 L759.236328125,56.9172477722168 L760.38427734375,55.772193908691406 L761.49853515625,54.91964340209961 L762.520751953125,54.39599609375 L763.3865966796875,54.18791961669922 L764.05517578125,54.222381591796875 L764.47705078125,54.35795593261719 L764.6888427734375,54.48476028442383 M770.2041015625,55.49488067626953 L770.261474609375,55.73113250732422 L770.284423828125,56.26171112060547 L770.2005615234375,57.14509582519531 L769.9598388671875,58.32246780395508 L769.593505859375,59.66771697998047 L769.19091796875,61.033935546875 L768.874267578125,62.267372131347656 L768.767333984375,63.12965774536133 L768.941650390625,63.44754409790039 L769.4019775390625,63.142822265625 L769.924072265625,62.536258697509766 L770.3291015625,61.964324951171875 M773.3134765625,46.40008544921875 L773.232177734375,46.007850646972656 L773.1827392578125,45.54494094848633 L773.1748046875,45.15958023071289 L773.2181396484375,45.0 M781.97802734375,53.89230728149414 L781.4656982421875,53.867671966552734 L780.595703125,53.91330337524414 L779.460205078125,54.090110778808594 L778.316162109375,54.44115447998047 L777.3216552734375,54.96147537231445 L776.6639404296875,55.61210632324219 L776.4757080078125,56.36403274536133 L776.84423828125,57.2000846862793 L777.765869140625,58.08003234863281 L779.1500244140625,58.9666633605957 L780.779052734375,59.834014892578125 L782.3951416015625,60.637115478515625 L783.740966796875,61.36055374145508 L784.59423828125,61.99095153808594 L784.8218994140625,62.49686050415039 L784.3812255859375,62.87894058227539 L783.284423828125,63.138980865478516 L781.636474609375,63.27498245239258 L779.6409912109375,63.314998626708984 L777.6124267578125,63.24870300292969 L775.8995361328125,63.04678726196289 L774.75341796875,62.722267150878906 L774.1883544921875,62.389892578125 L774.0343017578125,62.13730239868164 M792.312744140625,57.600215911865234 L792.224853515625,57.497413635253906 L791.991455078125,57.356876373291016 L791.5595703125,57.24395751953125 L790.9046630859375,57.26167297363281 L790.060546875,57.48627853393555 L789.1142578125,57.96344757080078 L788.1641845703125,58.687042236328125 L787.361328125,59.618125915527344 L786.867919921875,60.68214416503906 L786.7984619140625,61.76157760620117 L787.2357177734375,62.725120544433594 L788.185302734375,63.439517974853516 L789.5706787109375,63.806373596191406 L791.2705078125,63.77946090698242 L793.1221923828125,63.373382568359375 L794.9119873046875,62.617462158203125 L796.4307861328125,61.576568603515625 L797.4947509765625,60.32957458496094 L798.00146484375,59.00311279296875 L797.8929443359375,57.727943420410156 L797.25048828125,56.64194869995117 L796.2362060546875,55.829689025878906 L795.2620849609375,55.33799362182617 L794.5899658203125,55.11101150512695 M800.8759765625,55.17788314819336 L801.0040283203125,55.288597106933594 L801.193603515625,55.59845733642578 L801.3741455078125,56.17631149291992 L801.4373779296875,57.03713607788086 L801.3355712890625,58.12698745727539 L801.083251953125,59.357215881347656 L800.755615234375,60.606327056884766 L800.4677734375,61.7481803894043 L800.294677734375,62.65098190307617 L800.28662109375,63.225059509277344 L800.476806640625,63.41480255126953 L800.88671875,63.19808578491211 L801.5440673828125,62.585670471191406 L802.4705810546875,61.647403717041016 L803.622314453125,60.497493743896484 L804.9249267578125,59.27546691894531 L806.2852783203125,58.10371398925781 L807.6300048828125,57.07493591308594 L808.9088134765625,56.245933532714844 L810.0885009765625,55.66980743408203 L811.1331787109375,55.4130859375 L811.987548828125,55.52422332763672 L812.5966796875,56.025718688964844 L812.9482421875,56.92967987060547 L813.0474853515625,58.18914031982422 L812.9677734375,59.72169876098633 L812.81201171875,61.416717529296875 L812.749755859375,63.08082580566406 L812.915283203125,64.48979949951172 L813.376708984375,65.47848510742188 L813.9171142578125,66.00581359863281 L814.3543701171875,66.18097686767578 M832.7725830078125,48.756980895996094 L832.8165283203125,48.91935348510742 L832.8338623046875,49.32722854614258 L832.77392578125,50.07712936401367 L832.5640869140625,51.18925476074219 L832.193115234375,52.65397262573242 L831.6676025390625,54.42935562133789 L831.0291748046875,56.446800231933594 L830.334716796875,58.60934066772461 L829.66845703125,60.8034553527832 L829.0958251953125,62.871299743652344 L828.6746826171875,64.6878890991211 L828.442626953125,66.0817642211914 L828.3907470703125,66.92227935791016 L828.4598388671875,67.16360473632812 L828.567138671875,67.03268432617188 L828.650634765625,66.77471923828125 M825.7073974609375,56.99626159667969 L825.893310546875,57.0294303894043 L826.4176025390625,57.122169494628906 L827.3970947265625,57.27898025512695 L828.863525390625,57.465972900390625 L830.6636962890625,57.630287170410156 L832.5640869140625,57.73100280761719 L834.0882568359375,57.7669563293457 L835.0213623046875,57.76603317260742 M838.0623779296875,61.81203079223633 L838.507568359375,61.722694396972656 L839.3248291015625,61.50826644897461 L840.465087890625,61.13603591918945 L841.744384765625,60.60945129394531 L843.0223388671875,59.9664421081543 L844.15185546875,59.248695373535156 L845.038330078125,58.50998306274414 L845.613525390625,57.805084228515625 L845.83544921875,57.186317443847656 L845.71484375,56.696044921875 L845.263671875,56.379451751708984 L844.501953125,56.30353546142578 L843.478759765625,56.52585983276367 L842.2591552734375,57.07941436767578 L840.9757080078125,57.9624137878418 L839.8026123046875,59.12127685546875 L838.912353515625,60.46013259887695 L838.470458984375,61.87771224975586 L838.56689453125,63.24834060668945 L839.3189697265625,64.40789794921875 L840.7386474609375,65.2176513671875 L842.69140625,65.60903930664062 L844.522705078125,65.68476104736328 L845.803466796875,65.60720825195312 M857.470703125,57.31692886352539 L857.016357421875,57.083900451660156 L856.2496337890625,56.8413200378418 L855.2530517578125,56.71998977661133 L854.243896484375,56.852691650390625 L853.38232421875,57.2177734375 L852.82666015625,57.7757568359375 L852.673095703125,58.468502044677734 L852.986572265625,59.25732421875 L853.7454833984375,60.091033935546875 L854.8603515625,60.92447280883789 L856.1846923828125,61.720340728759766 L857.530517578125,62.460792541503906 L858.6834716796875,63.1354866027832 L859.4759521484375,63.734161376953125 L859.776611328125,64.25338745117188 L859.5216064453125,64.70183563232422 L858.7027587890625,65.07382202148438 L857.3828125,65.35983276367188 L855.6861572265625,65.55899810791016 L853.8662109375,65.6214828491211 L852.1983642578125,65.50582122802734 L850.9188232421875,65.19522857666016 L850.1517333984375,64.83171081542969 L849.82568359375,64.53528594970703 M868.2733154296875,49.141151428222656 L868.26171875,49.224212646484375 L868.214111328125,49.53400802612305 L868.0762939453125,50.19135284423828 L867.7900390625,51.258358001708984 L867.318603515625,52.693397521972656 L866.6787109375,54.421348571777344 L865.9454345703125,56.33055877685547 L865.250732421875,58.323097229003906 L864.7100830078125,60.285186767578125 L864.404052734375,62.09973907470703 L864.3707275390625,63.669918060302734 L864.6331787109375,64.87958526611328 L865.2181396484375,65.62525177001953 L865.8690185546875,65.96610260009766 L866.3890380859375,66.0321273803711 " fill="none" stroke="black" stroke-linecap="round" stroke-width="2" /></svg>