<?xml version="1.0" encoding="utf-8" ?>
<svg baseProfile="full" height="100%" version="1.1" viewBox="0,0,1000,120" width="100%" xmlns="http://www.w3.org/2000/svg" xmlns:ev="http://www.w3.org/2001/xml-events" xmlns:xlink="http://www.w3.org/1999/xlink"><defs /><rect fill="white" height="120" width="1000" x="0" y="0" /><path d="M0,0 M120.30912264859592,50.46778002260922 L120.49832348341309,50.54865300159738 L120.93398620399813,50.711397942367896 L120.28017616264879,51.531293545745456 L120.65589108396756,52.48741249621652 L120.41494233948382,54.7126198195341 L120.53621727196023,56.680703395797934 L120.26078175626517,58.59242868502223 L120.26241237448392,60.98057185801139 L119.86729989177671,62.66224304238616 L120.51235274737203,64.19748966784218 L120.01440550773412,65.93918546013055 L119.74381406626142,66.34872920382462 L120.18780357834203,66.88415688795747 L119.97633253687276,66.78451204216456 L119.82755777041149,66.0964339027991 L120.36657668331657,64.87183946526584 L120.27203394607514,63.11386081719247 L120.28872865537134,60.82365824250083 L120.40138067232003,58.82193262133458 L120.77408393797663,56.640634430313 L120.99822461339932,54.52874830913072 L121.34625679728035,52.074763546729066 L121.99853038300444,50.386913277666274 L122.23401458319401,48.70411999998546 L122.63942002935138,47.03656014008361 L123.40324630327841,46.87814368265049 L123.35359489518552,46.41287818401656 L123.25061758217822,46.86683508700226 L123.76144537813795,47.12693393003734 L123.65289533845626,48.61723661428468 L123.82194952378795,50.397072642825464 L124.37276902765544,51.9436534747464 L124.14193749249026,53.67090589151123 L124.19655187025356,55.33602729785747 L124.99676563640995,56.69106979869307 L125.19156392124123,57.658705273857564 L125.59975045015696,57.88923255198618 L125.79774138838125,57.24410796776735 L126.816432141587,56.38004706633671 L127.45429971616501,55.59911289347792 L128.62275617473995,53.764262638370795 L129.4646756129445,51.30678760949694 L130.5408232914038,50.025702889350754 L130.79712303376053,47.98850153747724 L131.98894364275964,46.365857403762234 L132.76033766208394,45.30624226613601 L133.48515514683191,45.59832136427074 L133.75455945482895,45.0 L134.8055856536904,45.13982413329659 L135.51879924319582,45.555590517290625 L135.93467247479157,47.26903116111197 L136.7872793264345,48.21995129381209 L136.6542368534274,50.26208943616706 L136.75006946660915,52.10960103356982 L136.72763045983794,54.75509877449149 L137.08351029894084,56.80138513196405 L137.01752555428047,58.45674087266383 L137.03557410266447,60.39749800638585 L137.33423205324337,61.31817399027416 L136.78669951458008,62.446707418838955 L136.80584423320255,63.07471304269368 L137.1231939445052,63.1405817907978 L137.76350900502592,63.732776071540044 L137.96802003495708,62.594699385052 M146.48839382113692,64.37834849262863 L146.883706498495,64.08516738916798 L146.8223824587136,63.855417594242766 L147.91616067282433,64.2203430578583 L148.55881151806432,64.00739524949495 L149.52184973520983,63.23275363672865 L150.5262673443503,62.33964818013878 L151.52840948693714,60.9559688981126 L152.67398474871987,60.06118710682687 L152.77509165125574,58.39074474606215 L153.63273074211705,57.55562304348106 L153.71828751122536,56.454774677902485 L153.7739512118989,55.6933295372288 L153.38437062229968,55.234733015298175 L152.1895370541869,55.57462916307192 L151.15770078991335,55.66338107555906 L149.23177698338895,57.45100991266706 L148.42659338856365,58.25915995388933 L147.66295396419474,59.86619729015109 L146.91537761816235,61.36910989305654 L146.72275179037678,62.83308356212728 L147.08478935046722,64.12608066084049 L147.94524845050336,65.23016197156733 L149.04058378372878,66.26135017388124 L150.54014506574637,66.73215577927778 L152.27706556143175,66.41099525204426 L154.64016392355256,66.25491761632868 L155.61064642424606,66.02605383517009 L156.78975447111645,66.2929843167058 M166.29880597154352,56.83935211890264 L165.95078832169105,56.838800305826595 L166.01248292768759,56.82490472250704 L165.1361826221853,56.75242133143234 L164.0426759959129,56.194831439182884 L162.72775516725895,56.919343323669004 L161.90798729842646,57.41025249366719 L161.11287446138346,57.801680029227676 L160.7758623704828,58.384114939644746 L160.67930891110547,59.28738316785741 L160.88464940661612,60.19769203310149 L161.50128234273927,61.25811728801985 L163.0221893675607,61.668190261022644 L164.069681848725,61.790854738970964 L166.4922754941847,62.47845949611341 L167.79925157394683,62.213396142248115 L169.26888522680804,62.73297357984553 L170.07766108688486,63.134617272368665 L171.04303455855725,63.53712058481004 L171.42150120251029,63.798126632398564 L170.81264086603522,64.18453183087004 L170.30503033270384,64.73140445353695 L169.0788509263384,65.44545449089587 L167.90843327937915,66.1522919599765 L166.1951475531809,66.58305920501483 L164.92182085969324,66.94933211391793 L163.70092780273575,66.99300845441934 L163.06805386212943,67.39449944751934 L162.44702993913137,66.91803280060991 L162.02681633092254,66.92680393657103 L161.876220425006,65.98211188467658 L162.18500939324474,65.66152021148653 L162.39176645380275,65.69798131488838 M179.59204563612417,58.318768459905165 L179.16474392696261,58.702263425095694 L179.13111118493012,57.71206672631268 L178.1390528956178,57.70250008669429 L177.06545495402474,57.39571341625114 L175.60137535235327,58.21649912365139 L174.36785196425598,58.26164571088019 L173.38818167202695,58.85713764993926 L172.45867302718324,59.278766984732414 L172.16364635462588,60.70810569902526 L172.66507210866078,61.11943518154708 L173.82747697703041,62.269684017141124 L174.80608246346569,63.101734007650705 L176.82319950080006,63.86113869597933 L177.95168918166246,65.19523344952894 L179.55208281789572,65.14316943545361 L180.71118901337883,66.5572703034215 L181.81153451086954,67.2349575363448 L182.45220919181958,67.9195711909653 L182.51840386751377,68.7160795563403 L181.64667757551916,69.030892812157 L181.2708994025827,69.2997543789163 L179.56574493455597,70.15317308777475 L178.04746916204778,69.8055272198183 L176.20968872964602,69.76415228759694 L174.43653562893292,69.12650236235557 L172.94958244649808,68.83661547060501 L171.78287503767865,68.47353956584631 L171.40463125078605,68.13337701829013 M192.1036640251096,57.345338928489504 L192.3792248434233,58.019993303599904 L192.3817527821334,57.7241036935955 L192.30801720644828,58.29147107693237 L192.3102596676671,58.77160499823371 L192.29658359191234,59.90690362978712 L192.1466735193492,62.12373542710818 L191.5873060512983,62.91912061487495 L191.33467568747986,64.64439379224443 L191.1715360502485,65.6108715528029 L191.55158450065204,66.33376437114357 L192.10938934322175,66.56473850917331 L191.62334545775866,66.33250267948384 M194.67581385084839,51.31511945552682 L194.6983822541609,51.13158172412238 L194.79048027801196,50.97074731138918 L194.91408562731107,50.877091319182014 L195.03123226809373,50.89508919278855 M203.07485510268805,55.107815443183846 L203.1762096225126,54.760533841535384 L202.8680673628475,55.45467457196294 L203.17758631125412,56.11645849686913 L202.75303551410724,57.41418992896926 L202.4463003429731,58.86456387833329 L202.3063477383202,60.53833387655962 L202.24708458594347,62.12830984756022 L201.95124752864746,63.15395767361009 L202.0070702816115,64.30624646239171 L201.64612091764917,65.06297982842709 L201.37677757756234,65.43161496339167 L201.90960568200256,65.15532704759572 L202.18805477156803,65.03267745302317 L202.85818054242412,63.25774692701198 L203.37834514129094,61.73809282559529 L204.83143333101484,60.09087788138056 L205.69112722630638,58.43562112960405 L207.02335877821093,57.44396343040788 L207.46905532369254,55.93356403665778 L208.93784966700886,55.878238257363535 L210.66504917427588,55.64084711338479 L211.48424951577306,56.592032289103926 L212.50702268643482,56.86137991722603 L212.65367145216166,58.35611326914279 L212.8055595828623,59.67263567152815 L212.89860305960954,61.37232799864326 L212.51881550133018,63.28720806728382 L212.66696253308027,64.25855307141185 L212.4474185493869,66.03792715819648 L213.05926718714588,66.18418444787504 L213.63535989813104,66.65927390694355 L213.5340982531485,66.05006399584819 M222.005774588058,64.27849008780669 L222.38064230081974,64.47682420892271 L223.2013618984586,63.96528347899609 L223.96253985151745,63.62730031058784 L224.9473354844098,63.084618811477384 L225.80065703122932,62.019192610883344 L226.97327734387855,60.862312398117226 L227.64998972281543,58.91802792910167 L228.72945247438594,57.87329132509333 L228.48314950412106,56.6659821754684 L228.57562216837343,56.156755617949315 L227.96945892622,55.27215716788993 L227.78607923723084,54.77801151300751 L226.9272599326822,55.424628272730686 L225.5545322223071,55.832520189382834 L224.05748435828633,57.462764821174616 L223.2203629086333,59.14556222219382 L222.62933086492856,61.11095902325472 L222.24591586220885,62.194509519194376 L222.59593938602615,63.79305031335217 L223.6659601023366,64.94138899854555 L224.79787402016532,65.86012046060212 L226.75689967689374,65.92370417457141 L227.91311131918283,66.16133819835014 L228.74624036245436,65.66732101539769 M239.89314173869914,57.711931506220715 L239.75589472075873,57.543832675567195 L239.278694401802,57.2110648999799 L238.51994283173147,57.06166804578085 L237.70091436452884,56.72049253199965 L236.0241077730799,57.73601306907547 L234.98616935766887,58.82353093764499 L234.2727292466956,59.15872450583129 L233.9084341657679,60.56955609279096 L234.20775294750484,60.79294303495914 L234.8975231208245,61.85836358632366 L236.0322107750471,62.15579638564531 L238.29200490958678,62.385655661834996 L239.93773362761124,62.645940697759826 L242.17758177137884,63.61164738253601 L243.82837270854623,63.38325971058062 L244.70693435390157,63.860380227771955 L245.21224375938874,64.36895293357367 L245.25888903488257,64.55669557570467 L244.48963333453918,64.64734650661197 L243.5879567059542,65.27970609982233 L242.0127050532586,66.04619989689978 L240.41385077322593,66.59971560678349 L239.0523773057462,66.69237750402398 L237.46396951809194,67.03912294341359 L236.32470620086522,67.08816532968227 L235.77276951683262,67.45948773959239 L235.8281833682001,67.3633013435848 L235.36613061914002,67.14491064844627 M258.53878368915787,56.531380320049024 L258.39298547112423,56.286685189376314 L257.70849219639706,56.07515519622749 L256.54645488650465,55.81201083025791 L255.79514768918926,55.87285380022582 L253.8777374756481,56.353562272624366 L252.64184634573868,56.36102246697794 L251.50970681549057,57.31760843886789 L250.67790507956352,57.96381594846413 L249.8409835368478,58.70273725374221 L250.45603261927957,59.769342504688964 L251.56305294099124,60.320588249900275 L251.7866059458451,60.85923813479431 L253.70164810745612,61.61661654637117 L255.71862239004736,61.965657533871195 L257.81155658928395,63.09881137286017 L259.3118940048738,63.3897252237052 L261.3819058818777,63.78222504508582 L262.08124547673185,64.26548808403554 L262.03487612692965,64.40292437445534 L261.5804104794273,65.05502590556438 L261.1531695366448,65.99251129862652 L260.3357029764943,65.7987152900886 L258.4718604218698,66.25380117193333 L256.6704282404705,66.56910549868462 L254.57501964439354,66.8223871248135 L253.2379624546198,66.8147236328223 L251.48017720739517,66.80972037448281 L250.65546014009215,66.55205099362927 L249.55764110090578,66.37560964303454 L248.68808710390533,66.18198827198758 L249.31806506973425,65.71882851420833 L249.56411381889194,65.91640039576794 M288.3258910131682,54.645536642066546 L287.79359588543707,54.02903009201708 L287.38763090345935,54.2327181625622 L286.59026237418425,53.662033548653696 L285.94443956544217,53.91192478341127 L284.8604924972812,54.18105865907833 L283.2809642620994,54.287242127794556 L281.6413718947077,55.91163486687732 L280.21282279143213,56.84151756859744 L278.55170656033965,58.586735824040794 L277.5618597758497,60.97981950001683 L277.0859277502892,63.19959778246699 L277.18888311103944,64.52915832301198 L278.5896980832164,65.7379282348996 L279.51407914995434,66.33410972936674 L281.24522376894777,66.07475926276612 L283.475966257956,65.70169549570676 L285.81790842432247,64.84201162071447 L287.31590238118804,63.35528549265446 L289.0309991961218,61.561884106532524 L290.7846153127264,59.90200656553821 L291.3043197709841,57.93136530511752 L290.81559287730914,56.75904976088479 L291.3641766314124,54.754884343734645 L290.09774242280434,53.119977889269684 L288.8658099149107,52.367973419344295 L287.54300791421963,51.959474371248945 L286.28213833889356,51.25274406033158 L285.3826913835529,51.55335204483289 M301.0774812141924,70.38982421492302 L300.94943508451615,70.73539630328858 L301.0607326343538,70.21842292251159 L301.087733435609,70.6241230944527 L301.2077658369385,69.72576225398133 L301.07792163021816,70.54195697772917 L301.0651511512935,70.29835522580069 L300.81732570931854,70.19123901000707 L300.8814958477974,70.23271084528488 M321.66842035200307,50.84220276385857 L321.1351776119471,50.45666161952945 L320.9476688426132,50.32389513279377 L319.9086752765781,49.67689344652333 L318.769423835423,49.516747622176055 L317.71114789193393,49.98570141432955 L315.86205347897817,50.718587867392834 L314.65809572231296,51.68654349245478 L313.78086643281887,52.45713557491274 L312.9467017883152,53.69598798742319 L312.48522020723726,54.8777340616266 L313.3469011509417,56.42761944147084 L313.5849103627552,57.89789477258042 L315.02002326432,59.186184199283154 L316.49108545090553,60.25681869522236 L318.0113868795128,60.887467588980314 L319.5891945093074,62.5149627093164 L321.3263380086442,63.23527115357468 L323.0242427606029,63.4631024000033 L323.90762785664094,64.54176978338594 L324.85740693114496,65.4504577940658 L324.742899133545,65.9358596680882 L324.57571988208144,65.94881767170473 L323.0591379697661,66.8191852262209 L321.87857228355983,67.04991427522046 L319.75065162098474,67.6939496398734 L318.8738003836321,67.48027004029633 L316.851004050785,67.27552671433874 L315.40764678613596,66.16843056172704 L313.9925981117982,65.47121001735043 L313.6154109174761,64.45484509267564 L313.4963870091275,63.21661581018929 L313.40601521989987,61.416889935751314 L314.06666195676405,59.892810558420706 L314.537307499587,57.708288628482386 L315.8307523672893,55.409635368647 L316.92230765186605,54.07342858849952 L318.26334457430164,52.45089792952513 L319.8431808670806,50.52968217604233 L320.26465408917915,49.784974922035644 L320.6825218629792,48.78453944165947 M331.1920610814128,52.33755924047679 L331.6626922205868,52.46973744628811 L331.9136699504081,52.36864968044942 L331.883511954018,51.8436632250143 L331.8735349557411,52.053028356618306 L331.3246251044153,51.94691052163465 L331.5225764425727,51.35596726254778 L331.2764575566483,51.496716715809995 L331.9031635091477,51.68132157617161 M336.23646767574945,62.04924022525736 L336.1785381173663,61.61683789429565 L336.2660741717631,62.30667666838036 L336.5903625508408,62.06559898863705 L336.5787163490447,61.98534531072758 L336.43065099737527,61.715171133577506 L336.21811379474906,61.811970428808024 L336.4263568820354,62.234329973960115 L336.23834682198594,61.71855315998582 M355.7268283981487,48.43258394453618 L356.22802662854133,48.094604411520116 L356.16991337430346,48.205433020407014 L356.15037050535267,48.73781948583729 L355.5455354937988,49.51565792847967 L355.7827627791531,50.13749371092513 L355.8611635103327,51.51172590386568 L355.80813025251945,53.82967892820764 L355.37430968952845,55.359902501066806 L355.1109608430091,57.74548201594444 L354.79075263465546,60.12150009286007 L355.1445962785236,62.55943155327211 L354.3440288906773,64.39724993088603 L354.090121264452,66.3954804376826 L354.39808177031506,67.45368857288298 L354.62288595683265,68.29265693741702 L354.06697411905157,68.65588889255157 M361.68065596630333,49.46493815818952 L361.71166178437585,49.23916134661009 L362.30362261097287,49.69386094759348 L362.400512168263,50.109713790664024 L362.1896145155214,51.09871442193531 L362.39658348740016,52.502358658345564 L362.31055141054657,54.360151252237955 L362.4245412418471,56.24928804282438 L362.55581377611804,58.61591631173535 L362.75970034526404,60.62152006532906 L362.66970171090674,62.58453687609145 L362.7052352238812,64.39115783032511 L363.015644724784,66.02359687119414 L362.56393931518403,66.57325892329492 L363.00428217916834,67.30389956277311 L363.1015940817588,67.44593060974273 L363.29361106015176,68.02444739101648 M352.75988519831435,59.56070756847962 L353.16939575106676,59.55938503971301 L353.33778508787543,59.38050303714007 L353.38303089734177,59.61044110723011 L354.86753613137523,59.36285279831967 L356.74942826050574,58.84763463753966 L358.2009321206129,58.47958082211034 L360.7437315017925,58.32091744976421 L363.2362183533695,57.64058494436516 L364.7535681738413,57.17218802502295 L367.1061818666535,56.828025944598444 L367.9030344416397,56.89251008019366 L369.0518517616845,56.176523694062 M380.33330744957067,58.91312145401735 L379.96215012310637,59.22898007784388 L379.7569704593712,58.880451514187726 L379.752901025165,59.137449807116525 L378.6346904094784,59.81300781728368 L378.064469939068,60.755334425559056 L377.0252209551263,61.512510372892834 L376.3423920063277,62.69998501045596 L375.5514308074174,64.39372320427204 L375.321998974883,65.76540849913712 L375.1361327061109,66.86806747873115 L375.47100394655763,67.76640313937979 L375.8400229853625,68.33160597758857 L377.22420381833564,67.90869646019024 L377.571635333949,67.10789371511711 L378.97939812073844,65.46694498680273 L379.98754256927026,64.57363906193014 L381.34564104286034,62.870468105647625 L381.8311200929766,61.678313192610425 L382.73434518693836,59.66744504622662 L382.5171924655208,58.58320180643945 L382.8853009487782,57.438451483954424 L383.18096268059605,57.140523514855396 L382.5338153520124,57.20852918511368 L383.21464526630234,58.09797905279539 L383.1446173915048,59.153522331121565 L382.9708816462076,59.814028418581096 L382.97240762984705,60.858750271069844 L383.644127242243,62.188727374876535 L383.7586452192654,63.831160127447816 L384.2236344053868,64.72138149222864 L385.0836870030149,65.24610623288444 L386.0236579737694,65.52083806564973 L386.78703669676116,64.65568202230988 L387.65792109659844,64.16753735381009 L388.37227625935765,63.2897806336613 L389.49752136323326,62.23075548486315 L390.2932491885939,60.98401843333017 L390.8225563073283,59.27748658510171 L391.5402867104524,58.05182134623625 L391.880935505338,57.167319464652245 L392.26684129430515,56.56793679156262 L392.59088109488954,56.51777357002241 L393.1866214860028,56.51372868356631 L393.0713311646998,56.54398440820562 L393.56373268524777,57.78117324639742 L393.5576190150954,58.03227145815347 L393.3624948564545,59.539360504330794 L393.66832685263233,60.86156976830655 L393.9598937798816,61.78235517756087 L393.91182993234236,62.65620658472041 L394.0169617129806,63.672214897217096 L394.3263525104498,63.947614586561116 L394.3076594971931,64.32813185321454 L394.7682735207247,63.24535224091778 L394.37831220575134,62.96596612045186 L394.92790938581925,62.53292632442188 L395.2153381316452,61.12435775465314 L395.5217202670134,59.71499909777844 L396.07964573762007,58.437229394229064 L396.77861299996266,57.25351855503619 L397.9895412152338,56.16779143226795 L398.56776132350154,55.362853349236005 L399.0765636129822,55.0700015285358 L400.0236129043386,54.47385849177513 L401.503386714706,54.56034781972022 L401.8538782396492,54.943791382498745 L403.0984422442173,55.72339471516793 L403.3613096026253,57.08706185009453 L403.7626317252666,57.297660664890365 L404.95357986751316,58.637586987571716 L405.1625881578056,59.49755864615065 L405.63379696070166,60.50141005480498 L405.5918730625241,60.6786698440913 L406.0202172038256,61.05179493627181 L406.3333362031548,61.29969483398523 L406.7153273826803,61.14744098856124 M415.18694027747165,60.81267607960847 L415.60696598104425,60.80639015980304 L414.81641558026473,60.226440188897996 L414.8948661684377,60.45164723691048 L414.7192205576754,59.40517454096565 L413.5286867333442,59.56498022161578 L412.9045588043074,59.803310815543206 L412.10459250720174,59.52502813850958 L410.8818810138416,59.89469635354305 L410.061379466008,60.468595087385665 L408.78362890250054,61.117048968075025 L408.56385405701946,61.9811900054926 L408.3038445124585,62.9482072099995 L408.0857532360145,63.677702038082046 L407.9415461063964,64.20108164806872 L408.73871316003283,65.19345364144282 L409.4035167338616,64.97707661699668 L410.7412502511183,65.0023119771528 L412.160368353909,64.5398564997874 L413.01938682735124,63.56459408969209 L414.68560382117215,61.60181465536188 L415.8611791211642,60.72744796870432 L417.0592050025947,58.269496124471 L418.49362431021694,56.602189117444254 L419.36722861882663,54.78881500726743 L419.3507225680819,53.60093643998487 L420.10370779400756,52.02874580063106 L420.9983868077081,51.29296728436727 L420.9049208669602,50.83036113340758 L420.9366569883217,50.81781971106156 L420.59524302452877,51.4021306093132 L420.6889647138555,52.179507584301504 L420.2003593933627,53.74589606576762 L420.19460827239453,55.1370554095389 L419.94318772669675,57.40864861369968 L420.3812179592238,59.21221148455919 L419.65200811487597,61.30745728856811 L419.99843285810186,62.51092415047614 L419.8668536527957,64.05453806205288 L420.7053987778288,65.02218966563832 L420.4704983138859,65.24583623123638 M429.936261024572,59.40914151085908 L429.88597712712806,59.88388957117094 L430.1455183837692,60.6378501439408 L430.3029030911947,60.47424444402027 L430.60031144032536,61.316849144691155 L430.30939590102867,62.634843867853064 L430.2989940180097,63.87869613740484 L430.9942050371916,64.9886033576486 L430.69888990754566,66.07680279676721 L431.10084121613676,66.79076419998101 L431.504596409886,66.78325429193139 L432.54745039067154,66.25779839301472 L432.9734130517706,65.68987184546621 L433.7228120382818,64.59698704558578 L434.5567374859687,63.42330959675142 L435.69418133376945,62.1290791066364 L436.3309490373971,60.792506033249644 L435.87089474389006,60.34684628163856 L437.04550066640866,59.59832871720515 L437.35439439413085,59.1672140976028 L437.4069507748268,59.389454502536196 L437.30022875316234,60.353617323290344 L437.1998349543514,61.549734370188126 L437.3239483882158,62.977889800824734 L437.4775274390982,63.87453376941443 L437.7730671506771,65.3608366387485 L438.3862856673421,65.97561467868276 L439.1810722160081,66.34423570361844 L439.87212568756166,66.26893028950913 L440.7508233042345,65.94295769811622 L442.3105066071506,64.79258055942283 L443.0246315516978,64.46359002809687 L443.7194682541757,62.13923861145074 L445.1308088850516,60.653040911655296 L444.9985104366116,59.32795495464446 L445.1610761736781,58.782584759353085 L445.714776773103,57.59434058937582 M452.58621282251556,58.05907885168281 L452.9499981314034,58.72749385392984 L452.8458336493987,59.170244197379986 L452.5986385751983,59.94469415882954 L452.54415776433603,61.16908069542929 L452.50377200091543,62.83127340170973 L452.44465851701443,64.27430590302802 L452.31037897803606,65.0616248650987 L451.5109860925635,66.12630406790035 L452.05766053872674,67.23902056440413 L451.99644708690187,66.4971476521377 L452.4103174474861,66.93022492227364 L451.9971712136072,65.73234977823444 L451.8384324786284,65.48204072257438 L452.52641471216947,64.00308458216304 L453.124639501956,62.05192279511287 L453.0012494734392,61.14905960787491 L453.5811758112291,59.393077366470706 L454.010132377069,58.37855058580146 L454.7717398217103,57.405720005707266 L455.1381875629849,56.540938219524314 L456.0063575994864,56.26736325490526 L456.94796405220023,55.69224110307555 L458.00701601578123,55.88676432712134 L458.5584549188463,55.829113463472225 L459.70576263327087,55.97056767459304 L460.76470459374826,56.65229071713743 L462.0945979048183,56.41399936228997 L462.323388687827,55.79990793710708 L463.65432541198334,56.20043891282331 L463.7811401885893,55.61573707798321 L463.7803707870283,55.68498661079211 L464.0772139999193,56.4432077486141 L464.7033202490266,55.982906838507446 L464.9136089164283,56.2955271585013 L464.12071075514433,55.98294807159928 L464.37282063628606,57.29046887315985 L464.4322791707721,57.85405106021857 L464.0919471368581,58.927040101477246 L463.85331192252164,60.209800008150204 L464.01408559516995,61.35179725751826 L464.0437910974605,62.3589038568378 L463.72550522680575,63.63177800891678 L463.4698670516538,64.1293208993574 L463.88769695559347,64.33677721891792 M468.90274124557095,51.82185657860191 L468.88892093674997,51.68461025904633 L468.91521239656794,51.52191029376473 L468.96742977860026,51.385920952137695 L469.0315272610312,51.32879127959154 M478.988573517089,48.159398179655824 L479.36798521203406,48.70601494354586 L479.2593640897131,49.562475096942066 L478.8881411243037,50.79726508220529 L478.53078973035076,52.40968803594049 L478.4261048432188,54.84024187288318 L477.6269712024721,56.56426132884408 L477.3405520217477,58.97523368437869 L477.44652448680984,61.34809132321181 L476.8392334633641,62.88872888343363 L476.7852195410651,64.88526164813607 L476.4822474151154,65.59206515729899 L476.5403821214636,66.31712684362701 M473.994811806629,58.716998743265776 L474.2881790575037,58.67342012323009 L474.9199332898522,58.64560613402706 L475.65150746245394,58.6395938476541 L476.24413853343464,58.6614041190872 M482.76779736552595,55.110148782021454 L483.3680517447422,54.583098937325815 L483.51300387255793,55.384201337632874 L483.9641567144595,56.41935584880181 L484.1734065204236,57.639540021708854 L483.40257941747853,58.71678474880178 L483.3366979426768,60.403622343853094 L483.3928438623642,61.85156601634508 L482.7398807483827,63.70021692765845 L483.2987578372019,63.82573800134205 L482.98739254307657,65.08239850677997 L482.8751111743326,65.28085470562058 L483.188652149872,65.04240102885674 M484.8280463693151,49.46259075165512 L484.8399892566828,49.1925360089372 L484.910776080447,48.87145121010633 L485.0104863464306,48.60249406825484 L485.1090314043322,48.48883301981551 M493.1945886454154,59.06708515559478 L493.4339434076997,59.853491647409456 L493.40812501202436,60.96078706459605 L493.787777542958,62.1218696727407 L493.11429845321004,63.46142014745144 L493.17065868491164,64.25719528427933 L493.082684117715,65.37916257780074 L493.06692621256104,66.47315760773759 L492.6703797698796,66.86000627504296 L493.03450021895236,66.43919759405188 L493.38049227870454,66.13346203577466 L493.74838907397225,65.39725889036856 L494.2262669382227,64.68264656461432 L495.1308049923797,63.33450070892767 L496.21390978130347,61.51535261393002 L497.88676118283746,60.24509140524019 L498.6703407260379,59.21241611636881 L499.9091199160506,57.99150453051198 L501.3038724121668,57.169614324477415 L502.39961941234753,57.68506266099673 L502.76985133966764,57.68951151285547 L503.54488979087137,58.14718089722372 L504.09016079403057,59.4750442521851 L504.08598084046827,60.31713565529664 L504.19658793262215,61.91956262184198 L503.9297519530808,62.91176627384062 L503.59700732883056,64.666273213778 L503.75798006709533,65.15488800057327 L503.6508547889596,66.3158846582473 L503.78410673759413,66.8804545660787 L504.1788454440639,67.33192463273964 L504.60894207003065,66.37804408524909 L505.0514640871283,67.15103186307685 M513.9882030522547,60.33070104256653 L513.3018898800632,60.57508768740889 L513.3334007333849,59.73374814803071 L512.6356824679908,59.29891153892332 L512.0281399724291,59.17445211718867 L511.2870055332189,58.811725012113016 L510.11329128652125,59.63448432329752 L508.96626527206837,59.76334342937446 L507.7846710193502,61.3911388584054 L507.37098764986126,61.89214656994008 L506.9143230892982,62.95562544018193 L507.4164127782958,63.93598428760738 L507.4183795770291,64.55131200830493 L508.52486881314513,64.6895723350678 L509.6014714715517,64.63111431063047 L510.93784963267916,64.3433747176693 L512.0433330984755,63.28572846025844 L513.3296999542315,62.250168338797764 L514.769914566479,61.699753565023634 L515.5240555674495,60.57024395813643 L516.2988103498669,59.711722704842465 L516.0419354268312,59.38875025496514 L516.0994219319122,59.150058879901835 L516.0902219682062,58.84765692469728 L515.7893884132343,59.032284098236175 L515.3519934576989,60.226982851702935 L515.1312478772393,61.56194523761152 L514.9954652714712,63.3771926913627 L514.8202870785757,65.12216170239583 L514.6472061164368,67.54625286280232 L514.2937426065671,70.03532745862132 L514.4786326474144,71.7752468147149 L513.9242240800356,74.4130011513428 L513.5801814864334,76.09349606262029 L512.7941680329138,77.80465018681636 L511.1429141449559,78.5098086174697 L510.07429678261275,79.25585931499334 L508.7474073753885,78.76381813702008 L507.4370900991885,78.77757710941901 L505.61004309348954,78.72217190513187 L504.920935244236,77.10840248138729 L504.5641200860251,75.77879219969493 L504.83715352636733,74.27408877650207 L504.5782963099466,73.20773410354985 L504.9569240713813,72.2399644760534 M538.6839751013933,57.271522840538125 L538.5955697425557,57.443875037435056 L538.5554507752804,57.62445002735358 L539.0553643789825,58.703784785581576 L539.2308134260276,58.9087662642036 L538.9770971991957,60.48570612702266 L539.3050027067404,61.419159945721326 L539.1124289868515,63.54316315522558 L539.2801014512886,65.13954392113263 L539.3480899080378,66.3201051606548 L538.9694017581023,67.16354439455611 L539.0963990386994,68.06998783413098 L538.993172352077,67.60283249057879 L538.828121349728,67.95107748760452 L539.0545672093234,66.713957563305 L539.4513881872771,65.75203910278091 L540.2253335793794,64.47754861734234 L540.5592838994667,62.04136074062016 L541.7854054699392,60.011634259400445 L542.4897739651193,58.78177784371602 L543.4421195482407,56.66387435614748 L544.2391521443853,55.795391454005326 L545.6195176559863,55.07973794369525 L546.8426891382001,54.759207785000456 L547.4945809106592,54.98134951348759 L547.975424950158,55.4982422941138 L548.2783310867067,56.712711936583126 L548.7603833246045,58.19347300579616 L548.4712643496284,60.035384950434114 L548.3763680617578,61.22052795906656 L548.1844129835465,62.748085248912794 L548.2279931985524,64.44372806467628 L548.0233139602717,64.23429943374545 L548.5179651618753,64.91021454030141 L548.3787528740323,64.19979991822412 L548.9461239334271,63.72241339734631 L549.4442561707655,62.02288339570974 L550.4080608201949,60.52242680860148 L551.7000947301669,58.38872136940461 L552.4749988219794,56.888640822229014 L553.2249868120034,55.37856037472156 L554.9768618117721,54.60372911617437 L555.8342863225462,53.84662096080045 L557.0868055781712,53.21090666268574 L558.016482338983,53.31822007585002 L558.4195233927312,54.1595137096729 L558.7276732312555,55.92305190840757 L558.8945113937518,56.90566873546244 L559.2918707170311,58.469691630133795 L559.3749336286037,60.59892275431563 L559.0317137491697,61.17499009881157 L559.1720471081568,62.85399803608831 L558.9367447212638,63.03342800526104 M565.2405084046078,64.02847243038477 L565.4386488365972,63.193692204303325 L565.8247841813838,63.23190243698193 L566.9218138074103,62.995550713889756 L568.1203184375213,61.90846587967819 L568.7290862525615,61.623340853708186 L570.2375381802038,60.32013266671643 L571.3175904037594,59.869767179359485 L572.212158441996,58.70927122565111 L572.4884793180281,57.477090902785605 L572.7865832061316,56.41756067540631 L572.6080523082717,55.55253088316004 L572.0802863651413,56.35908430600058 L571.4570797424929,55.46841204541899 L570.3943841982798,55.7259131043933 L569.7474998012094,56.220368019719544 L568.1297517343658,57.883619800170045 L567.2317073512259,59.31928745411168 L567.2336020881266,61.600095477050886 L566.6200048215472,62.76473469311644 L566.694966645081,64.22416848276744 L568.04641051554,65.18273787971417 L569.2518507234257,66.37650064139345 L571.1710697641017,66.37006187824765 L572.6654156222361,66.26205056870538 L574.9922466281118,65.83190417808771 L576.9834639692519,64.81899951106513 L578.7449883949856,64.02905224511883 L580.1160770478673,62.27177515533871 L581.2198672347881,60.87354301512438 L582.8571479606987,60.39581647122329 L583.1850394228932,58.43686479584874 L583.4801266869886,57.81105412363026 L583.5807327937987,57.150470830982094 L583.5193579417336,57.11782243916235 L583.4065203838302,56.79976738251214 L583.3274440927152,57.33694848853308 L583.318543107947,57.41241619167336 L583.6506209859041,58.731415629735196 L584.4454393147421,59.79506799318732 L584.9941061017075,60.82420639800548 L585.1607936825677,61.8729928542414 L586.5085222012472,63.108400264945075 L587.0448190307807,64.10761212403818 L588.1533001993228,65.6046251368535 L588.794696236942,66.38159945716662 L588.860254522215,66.77182920498042 L588.8791167428506,67.57068162056294 L589.290072954663,68.45273881314884 L588.4853556577057,69.17038350069323 L587.9386087366363,69.09594661715697 L587.1023222778568,69.56418357655909 L586.12442895866,69.82444037275661 L584.3959837837024,69.33911502644965 L583.642960122223,69.25702643459601 L582.128051808704,68.28203142553114 L581.2413000491601,67.81060436320969 M594.5254011198697,55.03812033712573 L593.7839620261323,54.83258666211068 L593.7022713664196,54.38999279033374 L592.8669069524856,54.83794403112823 L592.2425838796928,54.716937222749216 L591.5395347983706,54.9787229628234 L590.6475910184615,55.213479859689684 L591.0124132911781,56.185093979658404 L590.6032241839087,57.1892688832415 L590.6592376362807,57.4558465509127 L591.0496111584174,58.76125464856378 L592.3476033754507,59.9203722540999 L593.3986606867757,60.25565271359429 L594.4335213794561,61.3126531317251 L595.5568413155022,62.42471816133308 L596.2613957430617,63.011219842141536 L596.1131408816882,63.85240697985269 L596.8225943696698,64.8298480430099 L595.5567403541993,65.25666983420125 L595.0649538413393,65.53355092767904 L593.4457039150475,65.66081213297498 L592.0036991599573,65.51697746507504 L591.0644729933044,65.37822415064142 L589.8309202095471,65.07711169659265 L589.1738992055405,64.72325593590618 M599.8248968287392,56.84622045330663 L599.7568908381993,57.42263199445492 L599.58467716525,57.76401646177158 L599.360309077746,58.85495967302103 L599.3083606867444,60.07057385632562 L598.6863546341583,61.28298903387312 L598.8529053467801,62.775260801319256 L599.0860694030366,64.19248509969853 L598.8688844766748,65.53280073782885 L599.2713851963977,66.08281782320563 L599.4969451396614,66.16713773688659 L599.7613982229443,66.89653491263293 L600.1008421640288,66.8456140125164 M607.8109179128642,50.766512211137986 L607.8582988944167,50.73363517524154 L607.9973433836503,50.77838429517633 L608.1726870945884,50.87602517438641 L608.3291329036244,51.001799066254975 M616.4320195028297,61.81694631330896 L616.4921366894164,61.857881617295284 L616.4454572503848,61.95109259978177 L616.8073062983885,62.816226792572024 L617.1785037295672,63.70149991125412 L616.8619787101113,64.78659517948286 L616.0711955683364,65.46730908696128 L616.1106997313443,66.76463079861969 L615.8237233097843,67.40658729594155 L615.7000967728634,67.89219532567475 L615.690325562711,68.84427602251954 L615.6626316424481,68.20458901112386 L615.9992586187218,67.89127623078566 L616.5447871500182,67.15434890148669 L616.6996437403664,66.41801410840523 L617.5707253313824,64.91471601986898 L618.5181929219934,63.784656339164606 L619.7839880465372,62.7905638024807 L620.9547808448565,61.45542678188033 L622.7457389428957,60.50222729515616 L623.0981647988933,60.00710607315002 L624.9202261058354,60.00368475913891 L625.4110710413638,60.19429830421534 L625.9742418034293,60.4405094031207 L626.1819659520245,61.28489099782017 L626.376959118468,61.59320113105068 L626.4363018714037,63.520153282027444 L626.2968325020277,64.27699900275964 L626.0812647367279,65.84394063626672 L626.2818815110279,66.56767623500365 L626.9796356647103,66.72027830700904 L627.373543087926,67.50706347845062 L628.3084211766859,67.75938231317461 L629.9008874430629,66.83012214815322 L631.11176225083,65.70062963915002 L632.1932103677748,64.5640597176484 L633.2396099243119,63.8774059016754 L633.6814607808974,62.24126451271763 L633.8308426651251,61.443239337486645 L634.151707138662,60.40636241384669 L634.0842734962182,59.71118924240782 L632.9461437228674,59.057915612358116 L631.9032824069141,59.92263034181965 L631.2674836982571,59.91342717686683 L629.9849245243165,60.8600732451883 L628.7807050604415,61.634970681106275 L628.6909452782206,63.02972172383479 L628.3438714548847,64.38924541461338 L628.9592149085472,65.80475106493546 L629.7074167456176,66.74748280396975 L631.7754182734973,67.19409693187932 L632.7065199488939,67.35446797268665 L633.9062521336898,68.15726880266725 M651.1353540144278,57.3816923196488 L650.6960860091649,56.81362842532068 L649.8403039072296,56.695320664274455 L648.9289954960245,56.805003254799054 L647.7511901507216,57.115547874997915 L646.7249473634847,57.3899358251758 L646.7837750118588,58.34709586770759 L646.6005965914603,58.861435662392246 L646.9498006522963,60.047529846607574 L648.0105641181594,60.578255258621056 L648.9132323563008,61.80548642267118 L650.7613054169772,62.40334374901779 L652.262641090598,63.18396961102494 L652.8944063471522,63.64086910917898 L653.9860408213569,64.30041403698317 L653.6330975176731,64.19966807182017 L653.5921327904107,64.7399675296896 L652.9382967518129,64.85188575426214 L651.8101931628971,64.3721743923203 L649.9014336755956,64.50397096610104 L648.1792848422372,64.66791778545878 L646.6666727710372,64.78308693150113 L645.6172408043647,64.0424876182327 L645.403720414155,63.5007287280636 L645.1691592415884,63.51759138287689 M668.24857765151,58.0727045307208 L668.0770709934,58.38722149699058 L667.8445588852167,58.02202676967929 L666.6879748974222,57.988222728130275 L665.756549736275,58.464680185980434 L664.8236621531473,59.061882580996155 L664.0441447698959,59.822560632466335 L663.1680748223741,60.45955228623177 L663.0277684672415,60.64298993363851 L663.6302833314182,61.80462036457064 L664.1351172691943,61.90874348556315 L665.1386087480041,62.7932055213572 L666.910208233526,63.72629485557956 L668.5998972523496,64.2435579629165 L670.2131775167086,65.02467719319286 L671.1677237948165,65.39984430341406 L671.3741525240312,66.21325483541422 L672.3019838563166,66.70684915359932 L671.4188614803793,66.53175577016279 L670.2203794665384,66.88819510986539 L669.1771286841199,67.24556187795544 L667.476042886891,67.27629036894763 L665.3620177467828,67.5727060303916 L663.936758478289,67.44233125389462 L662.6594537396657,67.14990104684107 L661.3378350310588,66.97399433756627 L660.3025711342373,66.73498202133453 L659.8257495224809,66.07208243770526 L659.9939778044024,66.00084401464476 M695.764188153348,58.68472121054348 L695.8651156974777,58.7225761337484 L695.6769458608903,58.402920014118365 L694.6524306653791,58.49984508768822 L693.2520285291573,58.7294659160562 L692.6354945564271,59.532194387970634 L690.8318725534252,60.037238689062356 L689.9303341039313,61.06039216025444 L688.9754561467612,61.82238363103092 L687.8011556020947,63.1733323790297 L687.3937690325424,64.7667082233908 L687.2644877621565,65.97578401355565 L688.0186851081121,67.28228131910774 L688.4385094066797,67.64030911636885 L689.7775618747494,68.06905582158578 L691.3034954530851,68.38846322047692 L693.0452298841278,67.93954620072806 L694.9311899828726,66.81014904375336 L697.373167962374,66.02069906032084 L699.280268113027,64.66028182928777 L701.7206981555792,63.43535216617493 L702.5333705623273,62.312160734620996 L704.1575490870325,61.89025425425697 L704.7311405346306,60.705644388760476 L704.4466914329832,60.35791373558283 L704.0817796478555,60.34661919153829 L703.7184540431401,60.66393430707678 L703.2160902825237,61.12540723577267 L702.7847461193815,61.87298245533507 L701.8998009075674,63.836978523114084 L701.3400428295067,65.04033098570632 L701.6612615063325,65.93476812861192 L701.7800574654557,66.94346791385092 L702.3731283096745,67.54694850310057 L703.9143553795316,67.76646633343744 L704.9203762991413,67.60544611870439 L707.0650008051625,67.14244791496695 L708.7159297788417,66.36107222917798 L710.0746361934537,65.50180443578775 L711.4022253669914,63.64057720006201 L711.7007882069797,61.667574384767455 L711.7660294745644,61.006383001955165 L710.9216104526029,59.48602806346419 L710.1414960407869,58.57538957813848 L708.6125319373621,57.853444773743064 L706.948921419053,57.45885956760457 L705.4624801774228,57.837332065668164 L703.9188125412638,58.86573919066295 L703.2306025696328,58.91789755478749 M721.7400341462594,59.02983492459225 L721.6370372002132,59.28365902367479 L722.0478621823513,59.873960593692594 L722.127157528043,60.6642323350609 L722.1130708170713,61.641588418782256 L722.0017037786204,62.83316470497148 L721.838327068961,64.32893597842306 L721.831235026403,65.46616990918585 L721.75562894268,66.77769393688882 L722.0843855862952,67.79419862768458 L722.2574707045492,67.87156977377138 L722.6286899718032,68.13280091905119 L723.486163315036,67.88822264235024 L724.144715144387,66.90284296938856 L724.8050995957497,65.79746355772097 L725.5338739576871,64.68311904091118 L726.742694597009,62.70543370822403 L727.768482874277,61.32676999050106 L728.5201118869452,60.526848545726075 L729.20272299762,59.58127706605974 L730.1451311830731,59.11320456664481 L730.2233749002903,59.147006393975694 L730.8251206270077,59.42067834427781 L730.6351004274593,59.723380915129574 L730.9340820085763,60.71786641415326 L730.3078863031837,62.29485053646105 L730.5691875960754,62.98026440356195 L730.8505777081664,65.27822550128391 L730.5273667347378,65.75068098176669 L730.3825159920013,66.17659722404903 L730.4595544023261,66.21495570021762 L731.3957104337062,65.75269712741691 L731.0121774345014,64.70571736558202 L732.3466091159798,64.05677848607411 L732.9375992214841,62.543045959378496 L733.2184141486716,61.27735676271589 L735.0266990746775,60.391770614913774 L735.2680397589681,59.538345875177605 L736.520464952064,58.124915434460185 L736.8908549306932,58.08993805412578 L737.4751626482284,58.46242648466942 L737.3771172746756,58.61788895837806 L737.8311006315294,59.64907777424834 L737.3637681187552,60.93962924175492 L737.5066277849915,62.028170273947104 L737.9244820495305,63.37052763596588 L737.9726334069119,63.930580462067866 L738.4677043872289,64.22233244718089 L738.5340870142031,64.64674427457396 M748.9566606753447,59.36313124695083 L749.756712062795,59.17614726428933 L749.3241733525813,60.23842376866251 L749.5947675640009,61.01359900662711 L749.2369658780515,62.38495557985081 L748.4924993931022,63.892851406298014 L748.2078722232495,66.41447768046359 L747.485900141543,68.01534629072609 L746.9925163009073,70.15612473535765 L746.2041364617814,72.10579391038975 L745.9309360152392,73.62994272277163 L745.8134511426279,74.4211805129801 L746.2882727431931,75.19132739771646 L745.7830749037412,74.99724445843187 L745.7760403848297,74.07218330407011 L746.0413464214441,72.53929236130877 L746.8466279599722,70.76848003018176 L747.2665582309855,68.75990779041166 L748.1143544192369,66.788176730099 L749.0863938284192,64.1130327352707 L749.8332461082598,61.97619450811889 L750.9339264093437,61.07305491459577 L751.9542530320182,58.7493484849724 L753.451227183029,57.75842922558002 L754.8042803343817,57.31469603386905 L756.5467255592571,57.18802852625296 L757.5018703819246,57.19081258104568 L758.3595837695248,58.172552891377194 L759.0929677505694,59.2377365834927 L759.9027383084249,60.50255263769732 L759.5708810411077,62.19178635840274 L758.5762236274354,63.32048955750756 L758.0227262942469,65.28361637248774 L756.5782438503909,65.80728942786457 L755.0918045687579,66.65128584287676 L753.52401346237,67.01720101188175 L751.9826588610749,66.97150753960364 L750.9037697755575,66.55013980695146 L749.6984277720308,65.73608747330472 L748.8876161578619,64.74578230049609 L748.7771326087116,64.77656699359534 M768.9651733662251,54.52380399757378 L768.3450167392491,54.2690222214763 L767.9486123475547,54.00219610142424 L766.9724625860088,54.203591502773655 L766.6106632584731,55.032995436382635 L765.8919433035853,55.221540466799034 L764.5550279996808,56.46867757656453 L763.7318840102314,58.00405996881685 L762.3640349652892,59.29659255663577 L762.1686825096263,60.41820603619844 L761.8597314847927,61.810768313680185 L762.0649714244955,62.471689096717945 L762.2394042570813,63.13723578344699 L763.2563142384299,63.383249353406065 L764.1757061706755,63.07395513527421 L765.5417033840952,62.42961392830417 L766.5850345141362,61.72689017135211 L767.5824274261875,60.7179239135287 L769.0529608367656,59.10583205209813 L769.7637304500101,57.967869814045415 L770.0092785247182,56.82171971017545 L770.6856216803442,56.422106290563526 L770.7746904075434,55.954963720355444 L771.023612781388,56.250698523491096 L771.0994822865596,56.02953781087739 L770.7249415762619,56.59627419895644 L770.2301728373316,57.14483657997823 L769.7725537599861,58.81744397451372 L769.8594116210097,59.902117552480625 L769.6625792550794,61.24754338128665 L769.5857762983578,62.84190104234669 L770.3169679205903,63.13449710197651 L771.1697331928535,64.18818596530521 L771.7444413308951,63.664438978454264 L774.1176534658896,63.41784981919538 L774.9000218301574,62.18835793671431 L776.9286653261986,60.83331810987324 L778.7442609752507,59.92680487964841 L779.5871060314687,58.669063316829664 L780.418358879351,58.164770879913064 L781.4064108022676,57.70076763101815 L781.242126849183,57.45441445829654 L781.2336287054893,58.03890776555872 L780.8204148425466,58.61976330025656 L780.3728501450546,59.573848649336696 L779.5539235387719,61.29792898965884 L778.7233720507429,62.38630958742679 L778.5675161252514,63.78179438958641 L778.0073538374961,64.08170333650133 L777.9481560203667,64.50112891273685 L778.8606111716747,64.1324923974059 L779.0927188567578,63.46700188527628 L779.6066624836085,62.41764482326066 L780.2453622746527,60.71167438976217 L781.1776846636858,59.04740892910931 L782.6711476498324,57.8913895188124 L783.1011910293282,56.91898710138425 L784.3091703300036,55.87546089993408 L785.2027460448405,55.110335677330475 L785.8802867967765,55.52103103755654 L787.0691000011411,55.97669095920688 L787.2050695539785,56.07594678622907 L788.35163353811,56.611636693843515 L789.1041742027949,57.11983804018126 L789.4864083433156,57.69049792918453 L790.7192593708344,58.29056026544947 L791.8477891997388,58.39270701290175 L792.4645605210048,58.24864582354763 L793.6866424853624,57.46116052121853 L794.6152157496247,57.66015046789863 L795.492016751843,57.07088180687591 L796.1524857660229,56.59924165863209 L796.1718433708177,56.50720345004598 L796.5730036701048,55.912792130163865 L795.5681010695973,56.95546956195204 L795.5028495736069,56.97738139690106 L795.1170565598668,57.72499054403469 L794.0040352159026,58.5288910538157 L793.826179469655,60.226169338259346 L792.5395291475709,61.70790496458389 L791.9563113867089,62.58128611612583 L791.437330665548,64.43078301945503 L792.0587351094941,65.44647486442102 L792.0425424955836,66.01064592779355 L792.8841411152762,66.0653822276427 L794.4773353284306,66.05994877190903 L795.8207624351933,65.97337997972387 L796.7683138617899,64.20517647633785 L798.6415058983334,63.184793473199804 L800.1101336135794,61.17175280699928 L801.7452631697734,60.37418810270374 L802.8193491220006,58.7784321360157 L804.1017722990455,56.95894344493598 L804.6551906187101,55.884343626751935 L805.285562565298,55.317535040460555 L805.7297607077176,54.86851684489793 L805.6922616232841,54.087573466509106 L805.8472770563242,53.929053840478964 L805.7395399585125,54.58225803073971 L805.8319772761729,54.20342162694705 L805.5592090961884,56.102019829615344 L805.2505046122847,56.872661874566425 L805.3646869389161,58.1559155150632 L804.9363300261105,60.05612653304825 L805.0002061676112,61.53742355220388 L805.2283616043592,63.11497885771625 L805.7041191707076,64.37984225132573 L806.1309111710498,65.75845880450098 L806.4598181563163,66.33044797840964 L807.3429797301396,67.26115104516369 L807.3968403539313,67.3383073665359 L808.2879996263321,66.58485802048614 L807.9381017806338,65.93466496392521 M813.8101022535768,51.01291818559763 L813.7792182300252,51.04293186703099 L813.7464188730717,51.154004604995094 L813.7216343422617,51.301058646946124 L813.714906811653,51.43900753927866 M817.0673643615241,56.92646511520236 L816.953514199832,57.34578224212632 L816.3880200983988,57.990168735007714 L816.179773648754,58.759984060351904 L815.8363650131316,60.06711758802534 L814.765788686024,61.518956314535124 L814.78974112882,61.886500356087566 L814.2663575996296,63.29140694224065 L814.7046517666129,64.08049278564532 L815.4918041139281,64.45824680223913 L816.4629889033206,64.82652064962387 L817.5325020626285,64.55310982816948 L818.9943500721404,63.347659845757306 L820.1911516863888,62.65063472791314 L820.9041466076039,61.84909453845432 L822.3508318461409,60.20657773570078 L822.790344326474,58.53061180415054 L822.5124077632097,57.3334934854369 L822.7096639715569,55.776845609934824 L822.4017017552428,55.06790224034496 L821.7055897889734,54.5907537628179 L820.4877083585884,54.64798111494723 L819.0023676564049,54.82153898516383 L818.4181648319077,54.99889967140068 L817.5107292525549,56.20929341645682 L816.5755618274547,57.11574608648465 L816.0161505942508,57.71669673541813 L816.3916300521769,58.943053265130324 L816.378427844779,59.05462006134537 M828.7033697854715,55.91354599283544 L829.2970421461746,56.36811141029057 L830.1548048510929,56.55543691143514 L830.4436902639627,57.21468294142927 L830.7966300996593,57.95639279096456 L830.6907720601296,59.0823289074431 L830.7598481337318,60.30750518916892 L830.5012464364636,62.01411905049913 L830.1640749950434,63.352252218440285 L830.0948161160147,64.52727669355797 L829.4488950273765,65.15616654444514 L829.5536150085143,65.86580973277418 L829.7825272175485,65.76528851020088 L830.4020813077586,65.002834869387 L831.2484298859413,64.26057365077357 L831.7750575607201,63.33788283879153 L833.3873598137905,61.07403261364744 L834.4587135617039,60.06225108970199 L835.1577692431158,58.42882513990494 L836.6173899711819,57.69289319867069 L837.7064539305891,56.86495341429608 L839.0873821809832,56.76434754209983 L839.4710532730796,56.880004892775304 L840.0574419675102,57.08357866820994 L840.4199057098892,58.15119977717608 L840.120159596446,58.98394462384185 L840.2294931174647,60.2321448466243 L840.0183600891919,61.630571875014624 L839.9472447006078,62.84413040568942 L840.5679450445507,63.97191066379793 L840.3155505254126,64.4797945590173 L842.1219744321625,64.40174517635344 L843.3233497343517,63.94455245510252 L845.1534727696642,63.205032718962855 L847.0718276898488,61.431737041270544 L848.7563675854585,59.83943706179031 L849.9175138599073,58.96840697761797 M864.0805931181603,51.359010357238986 L863.7665635439466,51.073657004791514 L863.9006366081694,51.586960406157814 L863.8261883810842,51.7584152833594 L863.9254622482188,52.74672517713009 L862.908024183128,53.69852930426708 L861.9548712305814,55.33993216870052 L860.6779294055568,57.46857084199402 L859.4964386786294,58.943266948785734 L858.1755733424006,60.47196168512333 L857.3990129019139,62.403447311497104 L857.5520942849207,63.554886960022806 L857.3682207637155,64.9831481354541 L857.5558699177388,65.93514907260054 L857.7191627617763,66.7572803483404 L858.4497479386573,66.60803079459674 L858.5028638597362,66.85930286692088 M857.7890895880703,55.79168084551012 L857.5540772342301,55.94057089359727 L858.3284702821031,56.22423849982538 L859.2091654698336,55.9451793586977 L860.9453496785629,56.04923693829342 L862.6471715631474,56.037169064113435 L864.7846642512513,56.29779577291559 L867.1052623415296,56.20025241630894 L868.7165789214828,56.19633624707892 L870.8280936064152,56.02270477065553 L872.6901122519014,56.165917361411104 L873.8741252160225,55.747436882564756 L874.3943938861839,55.68031607854188 L875.263157519212,54.8899345565979 L875.3154944402702,54.621388745183495 L875.0725419649946,54.72664504698087 L874.7764390514972,53.809840666126384 L874.1844882626724,53.088471641254465 L873.3947043149153,53.7206237059366 L872.0540606788247,53.76183434793968 L871.1060737828723,54.499773978087674 L869.9720638429717,55.42664545658813 L869.1273895121433,56.50764687201594 L868.1463447129665,57.5563832788532 L867.7379859199036,59.15582216935025 L868.5927951906826,60.04590804628281 L868.5363511996286,61.212389510623154 L869.8149138235199,62.73811326737646 L870.9999608728217,62.77776589719261 L873.0055853832077,63.00058047386094 L874.7405873019604,62.30398494002095 L876.841718519262,61.679801754861515 L878.836683576717,61.13419632720755 L880.6997187622858,59.4746316655341 L882.1275994847217,58.65655263066282 L883.6427778523375,57.936539696746514 L885.0011223193283,57.16818465922795 L885.2860437106308,55.76756791694173 L885.7138624158754,55.2737405398276 L886.3264149799352,55.11556979665336 L886.2157234321025,55.19568415497966 L885.379337416937,55.682561288923644 L885.7856297550197,55.88960324925652 L885.5996609190915,56.75962125692753 L885.1282010964774,58.21594214043767 L884.8616318369216,59.20991201295871 L885.3161851828754,61.20475523313212 L885.8529957989265,61.789792389305774 L886.3474191639593,63.22615590776629 L887.0215394024299,64.19145790019633 L887.4337884499926,65.16848315394799 L888.0380000021225,65.57097601569072 L888.5963725573572,65.94205093359926 L888.6630138335436,65.83348345073463 L889.4839513060083,64.64560936825983 L889.8404994104314,64.36128195959962 L889.8813697226294,63.245542370187984 L890.2949338729884,61.820468157434284 L890.3584391254794,61.27165925400967 L889.9184667374225,59.5260933767109 L889.816519616478,58.34575230872625 L889.9074619565977,57.84682357716838 L888.8922370585501,56.754044667317224 L888.6744157515759,56.11432034465562 L888.048368214515,55.58109626249226 L887.7001034025088,55.08520147147254 L887.6884495348934,54.32608067527047 L887.4512217075992,54.54419140798467 L888.0359429190041,54.68553054225432 M903.7524636688333,58.39446105121633 L904.1495295511761,57.75281458187491 L905.066616035369,56.86198431583066 L905.8582439006132,56.13030445385022 L907.4840296455388,55.139275243564335 L908.6951714046677,53.76473798734673 L910.5112393720892,52.09360056568265 L911.8807751798106,51.188646963795684 L913.4408028005262,49.87830862352574 L914.3054373932321,48.603859325606905 L915.6704512314705,47.294359189071294 L916.6062037698769,46.37433901941067 L916.5563281443528,45.92117330305267 L916.5548509479879,45.97949235019061 L916.5968325605506,45.919403367431016 L915.8411126609774,46.91543845517519 L914.8428161585034,48.44819231133088 L914.0120355560052,49.636355799701846 L913.0149219938726,51.76835326442773 L911.58730771163,53.93022833349067 L910.0885596454971,56.20280688110722 L909.3464599986496,58.07209111586422 L908.2099639959861,59.8708949172147 L907.7953644020542,61.55877090736945 L907.8413591992221,63.3375096687934 L908.0537753226581,64.5707138046464 L908.3974068378254,65.08462320573366 L909.2349562832371,66.12663803952307 L910.4537001320118,65.57664137737171 L911.7230839893127,64.99551668595937 L913.33453134558,63.751753561207224 L914.8823291030853,62.60776072724263 L915.6787592333615,62.428233349817546 M908.9281159744758,55.86105241646089 L909.164749275257,55.79534282554903 L909.904251228382,55.67602434028902 L911.342483650257,55.51356067528047 L913.4967194901008,55.30380000938692 L916.212356697132,55.01399173607149 L918.647171150257,54.72758235801973 L920.2990876541633,54.50790109504976 " fill="none" stroke="black" stroke-linecap="round" stroke-width="2" /></svg>