<?xml version="1.0" encoding="utf-8" ?>
<svg baseProfile="full" height="100%" version="1.1" viewBox="0,0,1000,120" width="100%" xmlns="http://www.w3.org/2000/svg" xmlns:ev="http://www.w3.org/2001/xml-events" xmlns:xlink="http://www.w3.org/1999/xlink"><defs /><rect fill="white" height="120" width="1000" x="0" y="0" /><path d="M0,0 M152.64918433146906,49.50779586602519 L152.51307367603283,49.733727445447826 L152.63274905015382,50.434197132970766 L152.43755458543973,51.49462880021349 L152.60680142659595,53.16024676579391 L152.6179525756059,55.07105838733856 L152.7598157716772,57.67793823266171 L152.6399650354699,59.73392276015977 L152.34173662309587,61.911816904936224 L152.06598583825524,63.953669018469405 L152.10573493194786,65.77236234221898 L151.84009382223934,66.59656991466657 L151.97716700430001,67.37170518883318 L151.5936056569667,67.6015896410313 L151.5417512086647,67.26616175421694 L151.59554503275632,66.53909944102739 L151.4828200405879,64.89987181233388 L151.39798480531385,62.790104331475604 L151.99796371347986,60.2469959258125 L152.20941874564014,57.68724973714669 L152.7235590908159,55.190772733728984 L153.52871154652473,52.38101155773053 L153.88672041189125,50.13372525120071 L154.53021418630544,48.71352720453783 L155.12295647810632,47.5442967051183 L155.75442816019964,47.277101443665046 L156.404922139047,47.060674816508126 L157.19438969625241,47.668054593731185 L157.67908558112444,49.06033256002388 L158.084093765481,50.55826722231009 L158.67857311670252,52.53546097729541 L159.14495919509017,54.255972288649815 L159.39497117417827,55.729520291269736 L160.06711297024196,57.03288085538134 L160.36007403013983,57.86293412899286 L160.7370210423611,57.99759169483177 L161.43006648035754,57.93348385988982 L162.1354690333449,56.696055657958496 L162.74440815126604,55.42184798292081 L163.50185155769532,53.75917389765321 L164.65108776029388,52.381071464648954 L165.491154054123,50.68993191711465 L166.50128366232872,49.45837685790156 L167.2096241922103,48.42725518167152 L168.2961275366955,47.3174386568719 L169.0954980291429,47.4990613027425 L169.7228011921791,47.58549098825031 L170.4241002034418,48.05185876460251 L171.00182574334337,48.988360322523334 L171.3488680410755,50.26114009147515 L171.76264459504,52.50688655870192 L171.7139426606626,54.57885383725899 L171.7902104148668,56.64185583005865 L171.92479151062133,58.67392112335511 L171.80754581299476,60.75455251251758 L171.90572610181607,62.34361201586382 L172.1255116499275,63.75041734899677 L172.22888351899067,64.40207553428493 L172.5147384315695,65.02488950985675 L172.75909871293675,65.11528606302407 L172.7002199365689,65.26329071530742 M177.75777658599088,62.59173144538976 L177.8230815965824,62.33390541379485 L178.85346122368068,62.184601701826146 L179.9038341126629,61.8865802557026 L181.41099199880765,61.121087415554186 L182.7106994437847,60.21361237234406 L183.74944831083582,59.286352970057386 L184.79629060915056,58.20259021339491 L185.89229938455728,57.240862834020156 L186.15297107234497,56.455537551703195 L186.03327646668762,55.536822818325554 L185.78500267054636,55.05849036970216 L184.72952114860064,55.24515262179725 L183.32233594915766,55.54378912438231 L181.83627490399113,56.350817463931506 L180.1737225382671,57.31740200824815 L178.76741555784764,59.10262639715302 L177.59338806820648,60.543244418937626 L177.31901425822662,62.05385551094249 L177.27104836264272,63.760208277268546 L178.24835852264567,64.50649903290557 L179.50633438578706,65.18963410754839 L181.34565248551763,65.34353921358685 L183.60650044780618,65.25234319959394 L185.8300829536759,64.89961444543594 L188.14904435292496,63.91351163129714 L190.0838173589446,63.0299261565247 L192.07729812216152,61.761669907251466 L192.73840062356413,61.15536232797823 M199.47707927239938,54.1359253354449 L199.284607860523,53.96700613740644 L198.78018970016825,54.059071252560905 L198.0885661109317,53.58434540990979 L196.87189014671813,53.51430104305382 L196.21397447830327,54.30208979754623 L195.12135180102476,54.509123710488225 L194.47680169727028,55.48472188195314 L194.27422267061283,56.26408356857692 L194.5724136297503,56.76928894311314 L195.5612450611008,57.71156498836907 L196.99635263264707,58.17185519648032 L198.85294179744955,59.18067835722068 L200.71852707997752,59.67659021451244 L202.42012057784825,59.75694375635414 L204.22923324184188,60.66719601840367 L205.42518799393696,61.09902977423537 L206.17913751966574,62.032920999149084 L206.37718950922007,62.12228674145501 L206.50295314235774,62.90118661738359 L205.54282754106032,63.4265489518592 L204.48127129942787,63.55998370405252 L202.9019239640706,63.61140336383937 L201.04624369159103,64.05431359574986 L198.92317397562772,64.15829750132747 L197.21713202892778,63.87739830554977 L195.290553091457,63.634518773795854 L193.86623245364098,63.48932535068227 L193.00765602747944,63.33106289423061 L191.90171381107967,62.857918819674836 L191.62918412439132,62.809975329206424 L191.35898409877421,62.62891109537503 L191.3977175227546,62.46046193754935 M216.212072047802,54.12394912589186 L215.41917066962182,54.21353450954533 L215.09091237128698,54.13369645358858 L213.9334754386203,54.20879681983361 L212.89985249728537,54.32392862726354 L211.88066918123388,54.65710552163275 L210.74117059377082,55.68123267464097 L210.0456053159086,56.32797830533034 L209.73470825542074,57.03728253813874 L210.12921955133405,58.29251978074632 L210.6020454120782,59.22588383229094 L212.02406262059895,59.9776591787165 L213.44767817952084,60.65252829926851 L215.19028723916293,61.27139269131869 L216.77863150559324,61.538171984757135 L217.8578916258104,61.982622976629436 L218.6342140097484,62.43698956266972 L218.6247345705802,62.4396513661429 L217.93461698061867,62.929588106903395 L217.02237141985782,63.22256242136323 L215.43757093574612,63.58092878206715 L213.68203159648496,63.36020826575226 L211.70189232777074,63.686060597197 L210.1145873772493,63.83421286734911 L208.74810160178032,63.63819256902749 L208.0281005363227,63.81777440500899 L207.5376556145368,63.31774069933753 L207.69777316302918,63.27975947305502 L207.8060763747973,63.026385763615686 M224.64507768717812,54.68254817336633 L224.65019023377198,54.85163637816316 L224.58572467789384,55.459670248378785 L224.66245286697142,55.94089171014534 L224.67079072948366,57.17102363326244 L224.50825915757412,58.338500535645906 L224.40189668691787,59.6906767619001 L224.3720353491206,60.98856109444584 L224.16676767718448,62.226049380773134 L224.1633106782054,63.028665061414344 L223.99399095147345,63.78323663356489 L223.99835326434956,63.70695140683321 L224.06912233233862,64.1145114961059 M226.40815846436368,49.07802464256774 L226.4598230402412,49.077687547263864 L226.58901310748394,49.15586552851718 L226.74556440703418,49.277722893967585 L226.87932735414927,49.40842365298916 M233.19508747090885,55.69181121191511 L233.3722898189443,56.18103273030203 L233.27544613518916,56.50889405755251 L233.5404096641455,57.41429835704836 L233.65084978269556,58.297601142673784 L233.54635623835622,59.40965165112019 L233.33491093806686,60.706059038846234 L233.06804687243294,61.88361425712852 L232.88903775327208,62.78974310553539 L232.56253705739897,63.584648329650435 L232.58393657036515,63.810452951444375 L232.78296594291638,63.47782698407946 L232.74691118107611,63.440009306478416 L232.77652962173727,62.79645550766984 L233.11028563609483,61.6770530658233 L233.58589964272247,60.40818697245812 L234.07172800844322,58.82464461003717 L235.12998045851282,57.29159605543555 L236.29054222097616,56.152843026805215 L237.25085858918465,54.639044427626914 L238.69034650208118,53.48936695951518 L240.348028934894,52.942951985725976 L241.4574956346864,52.618381466167776 L242.56732494888007,52.57515315603678 L243.27579288108558,53.146837847403724 L244.14483340985043,53.90921258817545 L244.81846178806205,54.83184742696707 L244.95444699439656,56.455585772343284 L245.19863563521352,57.305152183943086 L245.09833245441598,58.45663712651643 L245.24446365344363,59.7023985444214 L245.17536793406276,60.47679084644719 L245.29628062389241,60.60659702263554 M251.20602342199456,60.421141681739066 L251.5514785028292,60.28121630586604 L252.13260027474823,60.24070088496646 L252.70398518333135,59.74610540259219 L253.81222623644706,59.294608437589005 L255.06537124434297,58.39545164005259 L256.04144287717753,57.38162138355085 L257.57837084998863,56.44735344263395 L258.2523103784846,55.285456701444446 L258.7395515083045,54.50841981594214 L259.2262680512017,53.656592382705355 L259.1890742470521,53.204210164990336 L258.8616508673724,52.779302612593646 L258.19150014598887,52.79677303577739 L257.31666317170937,53.2741517115897 L256.0392788701928,53.797439791838016 L254.82622156035038,54.85168053328969 L253.77660554335782,56.224427438439285 L252.69447431561653,57.48257734814251 L252.43082512947078,58.63451219194293 L252.46216901852173,59.86224528748278 L253.13595353960085,60.79563997102308 L254.26544525923754,61.7467831769568 L255.85203862288913,62.24019078461294 L257.8335731581428,62.10394295669408 L259.76295597973444,61.90457350726231 L262.3567354854022,61.11874990102482 L264.3945198647298,60.45175570068501 L265.5790956152171,59.741985971107326 M273.30705618401674,52.93416048097651 L272.90473323461936,52.67467703378637 L272.25168659976373,52.31640556767514 L271.5724180350984,52.09993527777624 L270.2696941043007,52.40335000502654 L269.229874807849,52.904897639846034 L268.13393174733915,53.62295392809382 L267.23611956185107,54.316220053239476 L266.6168910701218,55.20964301893496 L266.53597953005186,56.315433907599 L267.2810118136848,57.02463373239635 L268.5875461886046,57.93244455233151 L270.4043542220455,58.76484645797221 L272.33056265075606,58.8587829022474 L274.17579622676527,59.46558250563267 L276.09178726452626,60.32691553319985 L277.3699007937411,60.66311189882971 L278.24912613475595,61.10571522318679 L278.42878216099496,61.349391751638144 L278.3067696573405,61.854525795190725 L277.36290018077455,62.046516087217675 L276.3644547732954,62.432244555751865 L274.6575716135533,62.51542327511769 L272.72896981682493,62.48804114858019 L270.8965190223396,62.39624525689425 L269.3968072843145,62.21082310912522 L268.0881984588328,61.95148175805077 L267.41010997911116,61.78442994360075 L266.83147364527156,61.479146651749645 M284.85783764314,52.661595667985026 L284.5129276076695,52.17623804778851 L284.2556219184478,52.092474943824364 L283.39472031835044,51.763617549458445 L282.9042865930911,51.89500451307478 L281.6306473649512,52.29274700425689 L280.14611886288685,52.97149056652898 L279.07292436565933,53.54967091740711 L278.3238595235896,54.35687838493618 L278.31007829445053,54.94408739397325 L278.53936749836157,55.91836428673154 L279.2752224520991,56.61834084942561 L280.95634823554275,57.074083842602796 L282.69580049030924,57.709478038679535 L284.75716936499236,57.86246163045247 L286.66397959457913,58.5273162408263 L288.35542044926916,58.929721527743645 L289.8444426911525,59.436177136869695 L290.8078510776995,60.12544079822427 L290.7765857371659,60.74045789048334 L290.71762641568404,61.09682512176943 L289.6267789277148,61.568158287697635 L288.26956059234004,61.72597447347522 L286.4528595828077,61.86369808160419 L284.55478570903097,61.9581433971547 L282.6771846970371,62.02505395551036 L280.5254789088525,61.308427546376485 L279.09938613041487,61.57471873629169 L277.3563218143339,60.91687003093748 L276.39680498683185,60.61886566036371 L275.50626692363096,60.26098471807643 L275.1580042663953,59.82678542083327 L275.08880776042463,59.95447327670793 M313.11325679160177,52.443096405329165 L312.71370518833965,52.21931421424442 L312.52653458097654,51.78990328226385 L311.6016390167056,51.61143448543351 L310.6259882772041,51.04866295733543 L309.568778239946,51.110811198427974 L308.2273356789612,51.10154467442081 L306.7857028936348,51.96964330877498 L305.4518202175626,52.810002124654105 L303.9322877991975,53.831705474573106 L302.6294200664301,55.400811284127926 L302.1000950717215,56.972114988435166 L301.67407977416656,58.388812391409324 L302.1695750511268,60.22701729381423 L302.9659281495593,61.06437260131189 L304.2051091768578,61.778940029505556 L305.9622298126376,62.07331250731606 L308.1400548097063,61.87273691316639 L310.5477953832303,61.02252816466439 L312.93917319944933,60.11532056629536 L314.8864643376636,58.40928236781389 L316.60749783356243,56.765576457714815 L317.84856344987395,55.06485271096353 L318.64826627501213,53.3063759196586 L318.5903538237121,51.91973333123168 L317.74164375096984,50.43871955115754 L316.93232785075406,49.17750317844928 L315.60091983137767,48.32733755232714 L314.2190351867598,47.45870398048012 L312.62349779175133,46.98882590405129 L311.4756198055162,46.87407290096765 L310.32750169570147,46.97274062490638 L309.78063329887095,46.978272500772405 M323.62153071788833,62.877208360676605 L323.57141562163986,63.16762048828579 L323.6443609789367,63.165573714845934 L323.63530140504054,63.00858572952268 L323.61438838773364,63.048253985868904 L323.59775617670505,62.8980250601124 L323.7615315820551,62.99081858299666 L323.7116261543165,62.9268545498487 L323.5741722756309,63.0868323896086 M330.8361453749617,49.40683816708005 L331.1334200872028,49.46235237472294 L330.9131722101473,49.47017847150279 L330.8224447171425,50.2287108732823 L330.73276939765844,50.88885795278983 L330.5293587755216,51.93714753947919 L330.07505668045224,52.852122085602076 L329.75076457586414,54.18293886633801 L329.40283024148926,55.31189735384785 L329.18959642708046,56.51370179057085 L329.35043241646997,57.092694722026536 L329.84199399923017,57.944548513373185 L330.64218119863733,58.190345478824426 L331.9737462126925,57.97236203128573 L333.51638350129406,57.992409688434876 L335.3927615095976,57.77902571624023 L337.25710417599703,57.11282129023708 L339.32218262630647,56.43353766171576 L340.99540448732284,55.65533812238359 L342.1524377073577,54.691200231925094 L342.8840999060134,54.42258891310859 M336.4257138628799,51.130217300336696 L336.7203555756666,51.27619672226874 L336.46823516287725,52.15962899969555 L336.3675732808183,53.15117701303397 L336.021269002914,54.10238726180317 L336.0064593593328,55.227366911923426 L335.74439120578444,56.79762059450705 L335.6630518718522,57.74514699201349 L335.1958367879619,58.89651205986884 L335.4885212006691,59.87505565462952 L335.59420783327425,60.5321532398086 L335.7154907915886,61.39630550308137 L335.8913072325242,61.448427639904395 M346.0704440507095,55.60767996795003 L345.9957847765868,55.68273313232519 L346.0612204290162,55.5900141672504 L346.05832852810545,55.52845588161974 L346.2754738686507,55.50203149787954 L346.246083611307,55.5762923838661 L345.9967332699829,55.37564467538616 L345.98450074714924,55.48506668527442 L346.11554019397613,55.5731178449664 L346.1483861683979,55.60607896935244 L345.9195315882999,55.62709705546634 L346.1051982731507,55.78350758452515 L346.2381960715737,55.86305734986586 M348.3609248656962,61.758521993160755 L348.6095380602235,61.8000443654124 L348.2099204769453,61.95960099075182 L348.27418926421706,61.887996087215996 L348.4495424389929,61.94782854804535 L348.5017878131465,61.915765126167294 L348.5515588522576,61.620684592985185 L348.3682629988404,61.614485666609774 L348.3147436018287,61.260199931437555 L348.425004426819,61.32407785148057 L348.6382681471298,61.4020929631298 L348.6766821709806,61.46898252675996 L348.66520204601045,61.43841992794995 M360.3618284492396,52.102604303987434 L360.45343905422044,52.43042585248092 L360.80787417648924,52.38843666246305 L360.41429703973677,52.2407144630978 L360.5718248156879,52.61081277308024 L360.59507275245664,53.190337085712684 L360.5590158946655,54.24077807734764 L360.25996326046993,55.534411967443326 L360.23964833938317,56.869441379495 L359.95481223235583,58.45025869491613 L359.7670478061908,59.8044123734343 L359.45690655861847,61.040353597439896 L359.5349809254728,61.98755200993065 L359.4795147565204,62.500872547919286 L359.7975390311711,63.10630057550761 L359.93241118077646,62.964066139707526 L359.9721649295953,62.69208247015901 M368.3508430822799,46.82334851097277 L368.88750480297415,46.46088538072766 L368.8806020441964,46.320999143947724 L369.09986081068985,46.36926121837557 L369.3095129311051,46.80932235560991 L369.0235787816579,47.86678124360613 L368.8234116742608,49.36468183773451 L368.81780414367563,51.22350951161697 L368.548057005141,53.120731847188004 L368.0677419571251,55.38554726074962 L368.07810420013817,57.34915343046864 L368.10857744677105,59.559226689630385 L367.9663098699165,60.8847549000299 L367.80929823055055,62.45629640644378 L367.937814050429,63.26706029288369 L367.8773558972315,63.76257490160724 L368.27281035440706,64.25831206113877 M362.68623002413796,58.13544499463756 L362.9695394028487,58.13807479765103 L363.5291482502097,58.15069434102717 L364.6374691614718,58.00735787338974 L366.36122358588716,57.667356509328165 L368.2421889337004,57.4255245468593 L370.4341700813668,57.11158428809472 L372.10531977917105,57.183680862817376 L373.16212961126735,57.01915414370492 M380.02847603840047,55.83949927813907 L379.78916837682766,55.979051090850284 L379.39996602544636,55.834529081897024 L378.34717582129133,56.22604021531679 L377.414969356914,56.61377164681209 L376.1811155782509,57.883034810652894 L375.06280583950024,59.18824532199255 L374.3717929306505,60.410382834032 L373.80048477673586,61.737466606320126 L373.7848803916133,62.53651303833529 L374.2182564929834,63.09550900664633 L375.13017373554635,63.204808796369754 L376.3214688583572,62.66180415095719 L377.92080437178504,61.948770458422196 L379.3987267837896,61.03015663398903 L381.16253500291714,59.829601915951514 L382.31712799090604,58.28106237850166 L383.35074685639427,57.324208451361436 L383.8215231210314,56.67536832647689 L383.9836295383941,56.208626461507045 L384.00126726100547,55.87063987578702 L383.7495461228046,55.87963748722952 L383.74478257637134,56.97259614420118 L383.6115090701785,57.920738978322625 L382.9414235524055,59.450142228308266 L382.78372420505787,60.94852507027064 L382.80701219558597,61.89534770038417 L382.4923796632905,62.870990625178514 L382.78213724883267,63.48918745592665 M389.86884719637504,57.11563850882092 L389.87356875534005,57.37845902788776 L389.991007525648,57.48591379880642 L390.0822465977232,58.78046991967576 L390.05281749395994,59.73864079749491 L390.1276022849172,60.79533516470129 L390.00970783675467,62.10714186043256 L389.9139798296689,62.53127753482515 L390.12032117201517,62.92940414521991 L389.954942973261,62.772187630606396 L390.3469316422867,62.3298028391428 L390.474603521401,61.31387776297574 L390.9994360547303,60.233561358092686 L391.8434379861207,58.95720908700345 L392.9805094817672,57.586762431776926 L394.39907770304757,56.5902718185511 L395.33020644764696,55.86511542793685 L396.803352876157,55.37739802385716 L398.00842083512805,55.03597876019626 L399.1350749497976,54.9951922391675 L399.99149017936134,55.93830103349667 L400.3098264116583,56.67336180312853 L400.7227308947062,57.98333730299528 L400.9178937631682,59.13294945440401 L400.9467436121321,60.50504133585121 L400.9873419076622,61.49554253449466 L401.2345102926044,61.89532023488295 L401.3970237644511,62.276837248524274 L401.8657543872686,62.50560307127873 M409.4094651380942,59.80411200321999 L409.4540129868862,59.26331329784119 L409.65097458493426,58.64308142338737 L409.4557006340764,57.9726692298823 L408.84981824910386,57.63452510415179 L408.41093249360677,57.58917280515059 L407.4633783429874,57.17384877527886 L406.25242295538925,57.88547573692545 L405.4695071723159,58.572466800614734 L404.08605536051766,59.42834301154208 L403.68442291182123,60.725729396243565 L403.4543566378349,61.83907642789471 L403.60629585963665,62.9430368332512 L404.02306105683897,63.84580456204266 L404.9792478038023,64.03916096841404 L405.9128443960638,63.806605548230365 L407.8678268456869,63.331163171866706 L409.1122899656086,62.10197670456367 L410.71556464750876,60.348448873475576 L412.16809978054397,58.5944346086218 L413.2198676975413,56.53614289003315 L413.87840916676834,54.31740577524919 L414.2463442291935,52.85034677963066 L414.79374459099563,51.38836712716494 L414.8788406441267,50.48084268907561 L414.8441781229477,49.73814306385306 L414.7715684059403,49.895078898844815 L414.67779375265474,50.26837313240698 L414.332786862185,51.33545673853518 L413.8744947763623,52.80685173323038 L413.4650284497267,54.85181329690658 L412.91344106193003,57.145677869859774 L412.7384353473434,59.03344133808195 L412.82343074286337,60.83032302632566 L413.13170235148857,62.18767186625651 L413.52359897749415,63.49257824371482 L413.8805899283814,63.950624978486765 M421.7197243271472,56.93307942520483 L422.1089636598113,57.37020842046365 L421.7576486509233,57.7599715356736 L422.11879520931336,58.48519371142124 L421.94762900386024,59.57385504698528 L421.94404397125857,61.075860337246496 L422.1573500998261,62.167685885405824 L422.50288481638773,63.39447544608637 L422.88878517502496,64.0339716161252 L423.6529374106725,64.48369418558002 L424.50888353315645,64.22342935850881 L425.61837767101645,63.61042515352387 L426.4982589264373,62.52928818145991 L427.6849787087017,61.11855890378483 L428.5092566156101,59.83931602666662 L428.753837617635,58.537344221298426 L429.4238076516472,57.54951400557126 L429.3693476631335,56.97496201534082 L429.4927647975727,57.03015152552531 L429.3574128237933,57.175335771904315 L429.32810797373116,57.76806053694296 L429.3207708053748,58.85430186450782 L429.00635451624817,59.833179694072996 L429.2015704666263,61.242920355933 L429.27289921722047,62.568838257858786 L429.92245280169675,63.27323334224325 L430.93327376323396,63.908452865259214 L431.7354997678202,63.732658825678534 L433.1727923568076,63.13300826687989 L434.430653593018,62.192301008711624 L435.62660482257445,60.96002084648889 L436.7017387436713,59.51481038264868 L437.6537050297573,58.018592043956744 L438.3462236586463,56.47162940561533 L438.61350831645694,55.41377710039922 L438.5425537522267,54.58422127880714 L438.80663279478676,54.32149757075536 M444.80597064853794,54.675456712250686 L445.0209584064674,54.99638123140921 L444.92416555740016,55.48241212525441 L445.1689295691288,56.58225312493912 L445.2004823855403,57.354527828209626 L444.7104407018295,58.559805232648245 L444.5828766446225,59.840164367009855 L444.3721653915434,60.95671672506713 L444.1418024959686,61.91506265028211 L444.0371411607827,62.64762130546201 L444.2656080064492,62.94963565572675 L444.1799889257375,62.7017191588859 L444.28729252962944,61.94261679041365 L444.618270335531,60.773047677274576 L445.13217784424836,59.44991067912514 L445.6901678865683,58.32447977252781 L446.4322098862729,56.82293652286529 L447.32504797380926,55.389251502896535 L448.705414787981,54.30680143918928 L449.8180167317115,53.50121086047429 L451.1019115037805,52.91788698223859 L452.4520119434508,52.851760403812165 L453.49766257375745,52.60195143337377 L454.7200339391971,53.066842854982994 L455.71339054519274,53.442885711049705 L456.6284053167845,53.88252265454445 L457.17083814836064,54.73453420767511 L457.92193860671983,55.30667276213814 L458.2862502796986,55.89735817867557 L458.20567896641944,56.61701948426135 L457.99374211713274,57.661135428920346 L457.40622327324434,58.64586950700424 L457.16977818543165,60.019845705230914 L456.728190337878,61.0607094753515 L456.5055882934532,62.01229185957943 L456.45544038975737,62.762516772438914 L456.2481579923313,63.013791483303855 M459.07842386196796,49.50992728038754 L459.07494709465317,49.376476086966676 L459.12201094018184,49.220619492238306 L459.1977690224229,49.09201524982771 L459.2803168096263,49.04033180693272 M470.6945110012368,46.46411300735379 L470.63303243335486,46.50989364828686 L470.76320510320903,46.73986171540114 L470.65768143111484,47.38131685346836 L470.8014537372744,48.57533194530991 L470.3971379980805,50.21182881241326 L470.05307654934063,52.12312715732879 L469.94013659823304,54.296872036203595 L469.71013672849506,56.28597354191279 L469.37871551581117,58.21444322122629 L469.2290523970834,60.379331409796144 L469.0266333761958,61.96663717974674 L469.2651463776176,63.4652311523141 L469.246173412049,64.11398057805829 L469.46788308585354,64.51674886224339 L469.73599681194,64.67738630780647 L469.5361988812086,64.89582191135048 M467.876091813535,55.467222608043684 L468.15373040984343,55.55478530562741 L468.66173221147477,55.342434621555256 L469.62150752031897,55.41472296611752 L471.0177112099253,55.37975175359007 L472.50852968054426,55.30287448347242 L474.3414696152365,55.62855526308978 L476.22314959970396,55.32542997024918 L477.43648059662377,55.247136926839104 L478.8416176459361,55.29398829047383 L480.470651566754,55.48837745055186 L480.89238431888566,55.64918786798789 L481.30886898863656,56.10706647684067 L481.555639454551,56.40823281649384 L481.38058534382924,57.61930428849395 L481.20803819472775,58.58569312695709 L480.59666975712776,60.04797474126516 L480.31006417483775,61.335559322467006 L479.8766733553107,62.25181857916321 L479.78018492304165,62.989915777501494 L479.6490967969707,63.52432629016095 M484.06393568044405,50.31594287290216 L484.1635805561371,50.332712869402926 L484.3851064709046,50.44310990860508 L484.64437956917425,50.600575497710494 L484.8571778809597,50.75854534429609 M490.65821101992907,56.0720714258886 L490.7285138217552,56.53726024421543 L490.9394427744578,56.92213817325869 L490.95769301352476,57.96946638178832 L490.6399687123346,59.01530156424929 L490.19235145668966,60.56502299359983 L490.1867203938726,61.87944507892776 L490.08946508902574,62.958633087051524 L489.86572891608074,63.754590722846885 L490.03847617863573,64.06304565277611 L490.21379734564835,64.38533172526195 L490.5883274590934,63.81593979605438 L491.4150267652455,63.11415251789593 L492.13434861606464,61.93899997520443 L493.3425044485948,60.291230890359174 L494.7013539736666,59.08335692638867 L496.15174227180034,57.7289638513589 L497.5009161799087,56.61456644140802 L498.96609035831654,56.00543858075001 L500.3650024015278,55.63238057599286 L501.16126849127687,55.8537067974632 L502.17721684326943,56.845915367729184 L502.7535389253139,57.59179216866642 L503.3892101522121,59.04609050958129 L503.5527952358069,60.21698526371334 L503.7083290796328,61.68079241826012 L503.8180929095466,62.59856569523765 L504.0847787439256,63.332229311422246 L504.15761318182075,64.06344039628765 M514.8274989624513,58.95279133425996 L514.7401655440858,58.57175905883935 L514.8674152980635,58.18846961004843 L514.6374605859739,57.57119458512092 L514.329758411284,57.057529224500094 L513.4723939901437,56.49087616672962 L512.3611195553618,56.437641034853826 L511.0788743102928,56.728359298390735 L509.58914230495935,57.41389655408147 L508.50884340099844,57.98837189873105 L507.42299840459606,59.11280687787703 L507.0713792102563,60.05685088053005 L506.9829954324667,60.98317064536056 L507.23900263429715,61.433037524101536 L507.88591018192994,61.682205110277465 L508.76461685634894,61.713257543891714 L510.467889417417,61.72474948040044 L511.9097291061698,60.72960763045236 L512.9908393837013,59.95191415639727 L514.1305581037334,58.81211853848983 L515.1273522067895,57.74025785111329 L515.6413411668932,56.81794908866202 L515.779168349732,56.03880474313928 L515.9840888735466,55.603953792012746 L515.6419206645178,55.561129170274505 L515.5787240290065,55.36137451567247 L515.4318808379012,55.86772749555744 L514.9598614775618,56.99999336393105 L514.8929787628601,58.23393729501122 L514.6792635469953,59.59462277869325 L514.5402352330549,61.85409802369907 L514.7127947736325,63.38575647129866 L514.6047546579362,65.3586701686454 L514.427679675126,67.37713317568527 L514.3520071595183,69.22281086051032 L513.9448033182161,70.52831259661707 L513.5235800496272,71.52792540139909 L512.8784129107789,72.45563411668334 L511.9844053380214,72.75362047967499 L511.0268610088924,72.55418112346501 L509.91571212481864,72.08353440465146 L508.5375973059069,71.65419733412612 L507.26884197289746,70.8624093526087 L506.43907450587847,70.31773690682384 L506.053239607407,69.85599579590406 M536.1917583121622,55.01194229219071 L536.2707177643601,55.418324806067005 L536.1438362357708,55.853839354508175 L536.0252156938443,57.16231388908672 L536.0963651216007,58.304964434953035 L535.807052986374,59.56373745967191 L535.7185243879464,60.962253166845265 L535.3988082120668,62.21014309707386 L535.1215657916277,62.899466636304865 L535.1819529742343,63.70152538175645 L535.142544091035,63.86376685300999 L534.9115583285611,63.48582689890824 L535.1958656991485,62.94522713857671 L535.4690550307905,61.7343206671318 L536.1861303707325,60.748052312691605 L536.8542953767685,58.891632531208465 L537.6581602548628,57.622111537837874 L538.6736497398788,56.38222655707631 L540.032585014375,55.32519096881468 L540.9654039480997,54.252425745907836 L542.0204557172442,54.07980443336896 L543.0846770183691,54.012065525841244 L543.9712960447207,54.45358524895697 L544.4539110055366,55.4943256673411 L544.6028027860151,56.70849201526365 L544.8855639623677,58.09080715811165 L544.8329758370745,59.61158899097214 L544.4049613238099,60.641417228878616 L544.3131323105572,61.735124021764406 L543.9090445696643,62.61068394897327 L543.903169340135,63.079924120008656 L543.5124404860114,63.08181707051652 L543.938764756817,62.104971608958685 L544.2278726286847,61.061040128491946 L544.7448671378222,59.93488726794766 L545.6386704137954,58.57036973028526 L546.8837075881156,56.92377011909158 L547.8868828089508,55.69147106830776 L549.1014141800756,54.65614357336906 L550.3534849078774,54.334562779665674 L551.7189077082196,53.91170143418537 L552.8529897529452,54.08149760805953 L553.9288342750567,54.54002330087296 L554.7299740987555,55.175353073664624 L555.166156898264,56.36283392015258 L555.7761838137758,57.48485938858844 L555.6551632001049,58.749436928063275 L555.7927097609484,60.226668693920246 L555.5917099299114,61.4635184703565 L555.5192634332097,62.29156731840854 L555.6737320910441,62.95553484835372 L555.9578475125807,63.01793054550864 L556.3866726803822,63.135670070555534 M563.0857226652217,61.723319830973864 L563.3676860181954,61.49661377493102 L564.3009594529742,60.984056453606456 L565.2898348212357,59.70042062937863 L566.1428772400498,58.62454106800787 L566.982816842698,57.285985063566095 L567.6947009492864,56.503271746857486 L567.841620335104,55.41077553111206 L567.6920539217247,54.42878025651631 L567.6359425887863,53.82824404224768 L566.9353419106244,53.75184296151151 L566.1489616592962,53.828536763771936 L565.1663435873385,54.54860389836824 L563.9129600982435,55.59425397630102 L562.9365908156929,56.80110211479739 L562.2543340276895,58.63389170360653 L561.7049927749877,60.04004523034661 L562.04733626334,61.64347579314236 L563.0737178118493,62.66351219113893 L564.1759522424752,63.32402537408123 L566.1594375385733,63.69652270252402 L568.4272093318286,63.30476410034802 L570.2823019230516,62.525243993218126 L572.4689158632901,61.70950032907962 L573.5062372401972,61.17420700693887 M579.9012109909256,53.72941766384001 L579.5526933481016,53.76634073229889 L578.5222836140724,53.618419041242404 L577.6702732912815,53.634201375697536 L576.0290764580125,53.618216627977716 L575.0299172179149,54.13348748866064 L573.9896443178445,54.93886555106076 L573.5012266563854,55.66314291172089 L573.5093701416301,56.47153646021652 L574.2581157180475,57.47238360243921 L575.4697951742976,58.10644125937562 L577.2134211828794,58.926526241602105 L579.21233947266,59.96723906524121 L581.1127040519964,60.732964773517715 L582.8950199605379,61.2299368122291 L584.2117887173523,61.94696583890079 L584.5656190281416,62.3435165699055 L584.8001677097179,62.70883748609989 L583.8268079008587,62.576679710737686 L582.7527043166953,63.089591101311385 L580.893092183424,63.239854057557295 L579.2151721828143,63.150570016857316 L576.8144866745236,63.05970075904641 L575.1770399686116,62.51950018362199 L574.21262301327,62.37080492256856 L573.2918510500883,61.81075835248478 L573.1145256881424,61.3938855115381 L573.2660508848912,61.1665001079268 M596.4020892672252,54.28276871716322 L595.8144397914418,54.321883477932126 L595.3770858908192,54.40345171479598 L594.0442353155668,54.49861443697004 L593.0395688544004,55.266297079766375 L591.9474816780059,55.40624977682996 L590.8556565283217,56.53527093530544 L590.5029184537873,57.66400091727579 L590.4096679726724,58.3751817457274 L590.8714131663481,59.37460583562249 L592.2354907017768,60.20714499913549 L593.5723272394547,60.83066114127976 L595.2524891857004,61.35489087390782 L597.0460859881853,62.02244901322635 L598.2452452592908,62.13218358145787 L598.6094671790395,62.83012646642707 L598.6060964239631,63.0463382810631 L598.1789223406696,63.24409232886842 L597.0248437692043,63.50173292534576 L595.2202702314408,63.49116781589699 L593.4076023234103,63.49942309858871 L591.2913387395986,63.510937324301366 L589.669646448234,63.10329208270035 L588.7298559050706,63.23961239720166 L588.2443455351408,63.29178385702587 M604.3559794789871,55.12173851506635 L604.6970897756133,55.09510429434366 L604.6782612959886,55.51911431617741 L604.6028561241676,55.89302673306376 L604.5580108900739,57.102324821644224 L604.5169475120738,58.26460989915556 L604.4659301863785,59.46360010634342 L604.5806905756167,60.901772493896864 L604.3670171962627,61.7511779855447 L604.4386142362033,62.58583343034958 L604.6397172028175,62.957585187923364 L604.7374421391077,63.06614108419575 L605.0102871389355,62.761130775395024 M607.3066441258948,48.46696259066898 L607.3106040009263,48.43959161986771 L607.3557376699225,48.417539965294765 L607.4223564754768,48.406602857220626 L607.4907419977887,48.41257153553596 M613.4433953966308,53.3933889594996 L613.2999033475559,53.348238859673714 L613.459872095733,53.55809240270609 L613.7082569056032,54.317304223310636 L613.6153516477196,54.941127722041486 L613.3836639853821,56.35625372649267 L613.203895516707,57.96611395995286 L613.0303591805166,59.117638299748585 L612.485755421459,60.647013163944784 L612.4791644846903,61.79664558900208 L612.3739202927766,62.64052016514676 L612.2524511767565,63.136796965489395 L612.3984476387685,63.725034199597296 L612.4640200310635,63.530758649190595 L612.4302712499837,62.957475415569725 L612.7045517389487,61.82355659333543 L613.1347227773414,60.341778310257254 L613.8738745963162,59.18718643077182 L614.7308720636287,57.69672910447338 L615.5195280428602,56.33067772423721 L616.5476469409213,55.70072497546342 L617.7732513682597,54.62333089210379 L619.1580586972583,54.163277354310374 L619.962359759935,54.23130628768038 L621.3326739049209,54.36719660083749 L622.270684110935,55.266924579472466 L623.1033735748307,56.09371103179928 L623.6442544799767,57.0925005256663 L623.9292270848292,58.51411675559071 L624.3085677626123,59.82300464551996 L624.5479239388293,61.082571917058004 L624.3487392721455,62.15244003528732 L624.0508695971732,62.7255273252678 M629.1582800281527,60.93605539462537 L629.3771847609463,60.92526886643034 L629.5428864314207,61.10433617487384 L630.3022163137348,60.68877037203807 L631.1077165065147,60.0911756436484 L632.0911679987022,59.667810781453696 L633.484557963914,59.18144881941998 L634.3413356515431,58.144799246378234 L635.1011357528449,57.36239198224384 L635.8440832828198,56.938348810553784 L636.3306589541953,55.995487637091344 L636.3169943979666,55.285300043380275 L635.7150780607136,54.846010856169144 L635.362243688407,54.54885764751404 L634.1411408443557,54.61848185341898 L633.0283723016355,55.10686297142543 L631.5710470254346,56.21455776902844 L630.562478967268,57.257874084080036 L629.6609736957679,58.43654353332222 L629.0959289944398,59.55548263487578 L629.4840699264228,61.21204254497715 L629.9044434173243,62.04741221299403 L631.1540791290506,62.83604200310305 L632.789055046781,62.93613338332878 L634.7981425728266,63.28029963384916 L636.9957676379873,62.75323721803952 L639.4400584785818,61.89397710808438 L641.7000796103043,60.80409934942264 L643.6655244947956,59.604399578539216 L645.6848164122391,58.0351015695108 L646.8786909506392,57.27463727353399 L647.9882000701649,55.71792975734264 L648.628642610466,54.75406524781263 L648.9675097671944,54.08928550921998 L649.3794518794297,53.58099356083161 L649.4423845829299,53.40697966724867 L649.4057047807868,53.1991246045323 L649.4110276398992,53.52478851352348 L649.1920931517966,54.12142105471993 L649.7612544591941,54.988790335712295 L650.0328339547673,55.984469982087106 L650.8053888720663,57.247281287644576 L651.9027616083243,58.286787770121464 L653.1746433819525,59.61805217816287 L654.1161272407672,60.57191479446564 L655.3600806121347,61.208399800699056 L655.7849005931786,62.16803417848863 L656.2015483782064,63.07579473177042 L656.0558868523179,63.80606274027195 L655.7731322670878,63.9466594071924 L654.5902364905389,64.17710074106051 L653.0436654670186,64.20193950418252 L651.4484141401887,64.26007736764892 L649.6846411095964,63.88723770203578 L648.2407735824515,63.40914615927355 L646.6048619512935,62.927728274759275 L645.8690282070801,62.323456060479295 L645.3302358926383,61.548711662353774 L645.7156635315215,60.61541313467693 L645.9412448028849,59.75189222428419 L646.3987818580123,59.25079472421918 M665.2627259448293,54.6990815960189 L665.1134609772507,54.44701570368246 L664.687899158892,54.005272727996854 L664.1154417367592,54.08665017300679 L663.5417769013338,54.11530390107263 L662.8029038479626,54.04461261293276 L662.3711892814425,54.6730398846121 L661.6529655721332,55.163198571457514 L661.5411870956187,55.80381186234193 L661.7435967190984,56.542047436887415 L662.660506713334,57.51385217547833 L663.9013733191164,58.23673957932926 L665.6640421631606,59.29218231926487 L666.9696536342132,60.05883669840844 L668.2118384155139,61.01029467424421 L668.9039579404123,61.549535655300616 L668.8526018585513,62.15382489983687 L668.547129154971,62.51365341202984 L667.510747040773,62.96521937584231 L666.0312727659943,63.03952793767015 L663.7995111626152,63.12303338373504 L661.6798647589069,62.93404596765005 L659.5202902078059,62.745879468686105 L657.8921119677649,62.67449650836199 L656.8875784537464,62.602170854487 M689.7704948749889,56.462382687041625 L689.78931450247,56.44722855542747 L689.4987750728885,56.50461931209619 L689.2317164450612,56.37930508040337 L688.6834059169726,56.59624606702024 L687.9598866766265,56.886694274429644 L686.7298388480265,57.67260802874144 L685.5797486605913,58.70434202121776 L684.4116113663187,60.05332254058777 L683.2589989154508,61.19169264807379 L682.7340924799685,62.586964623529035 L682.7450511292184,63.84940092364785 L682.977733476479,64.79283903604755 L684.2352002782332,65.566548769912 L685.7930458838474,65.95465021248107 L687.6249727595782,65.89837676948886 L688.3651473670566,65.95130778533836 M703.6285746763214,57.55043651191867 L703.3434346484479,57.43179817283315 L703.028001119355,57.07185340277489 L701.9807930656038,56.74687491576494 L700.7666006635026,56.75814727971646 L699.6619675300715,57.099588857178645 L698.4226665577153,58.17547857742009 L696.991950721194,59.110555354370476 L695.9066261547177,60.215716837214764 L695.508744984078,61.67884707599573 L695.5514439172448,62.869616958270456 L695.9272493690573,63.67075777596165 L697.0991888277811,64.18215810492194 L698.4563944118879,64.56294870005138 L700.0004969372239,64.15390375341578 L701.7224508354902,63.5762656516511 L703.2273755767759,62.20847911565339 L704.5727385081647,60.9235459359285 L705.3803645899683,59.68525411702853 L705.7008325400203,58.248594731346685 L705.5107250956177,57.19108318108071 L704.963376370227,56.67304353396683 L704.0918221883977,56.040683835639804 L703.2681313939106,55.313664195970425 L702.6709671279858,55.526935566484454 M711.6366036326218,54.71772234713158 L711.5043889317831,55.15625054977582 L711.793473052539,55.458701128068526 L711.5708009000105,56.15950931225376 L711.2727164074398,57.21375291245387 L711.2295199362709,58.517255220720855 L710.7510029433226,59.83203695499371 L710.5084987880057,61.209701252769364 L710.5176834954427,62.416503800817566 L710.2033020144397,62.852268751092346 L710.244532033457,63.300711291256086 L710.5861266858669,62.940556192555746 L710.7601534635579,62.53817559506545 L711.1038551110441,61.19666362207654 L712.1921938624403,59.87404405107839 L713.0957698062141,58.31341870542161 L714.0998670292273,56.705754291267645 L715.0729467690228,55.31828071809593 L716.4222540244589,54.43053698557127 L717.5411529453844,53.854637390495476 L718.3999267359956,53.626767094233635 L719.071249428587,54.135409473511324 L719.5498774795172,54.654527623924835 L719.9205985274033,55.725117462119215 L719.9427145690686,57.198201194677715 L719.7507795349646,58.40601799236971 L719.4558285897372,59.93106163712397 L719.2358028015788,60.93429521488648 L718.7122182968325,61.38606707803584 L718.655852029509,61.7943763594291 L719.0026059433109,61.4082227944868 L719.6433432612187,60.82394751442227 L720.4916730390063,59.81341367565486 L721.5455459291427,58.67089027192826 L722.5687973953463,57.35170604100891 L724.1803232267089,56.43427012744327 L725.5765633274664,54.92275810231943 L726.5674327215049,54.38126496348319 L727.6309240931255,54.17245738897182 L728.3356742194429,54.23704388449284 L728.7247570092162,54.70306836556016 L728.9936480293358,55.41518335182512 L729.0106773183174,56.32214647805223 L728.6845202658919,57.65547278011637 L728.3884827708217,58.80310936999673 L728.0449347916318,59.71033964799552 L728.05259128359,60.94545780614171 L728.1199233546653,61.70028579913324 L727.8801218733097,61.964176106608704 M735.4776552862775,56.23415495522795 L735.4179343993851,56.459576773401174 L735.5230005130884,56.31464651801612 L735.6909716598817,56.61295918091493 L735.6010071973003,57.18063831090079 L735.4691062206755,58.480518234689036 L734.915840034162,59.91898558228526 L734.4824859581805,61.91799460898434 L733.6867755713225,63.888822758981895 L733.2373572156612,66.11480963392108 L732.4342988406935,68.21901163734604 L731.6485934469191,70.1545492175728 L731.1266817472319,71.80831148019075 L731.0755458088123,72.98576892539884 L730.8410972132452,73.48377285823219 L730.6386559376963,73.72803851674585 L730.8002997775134,73.20407320183259 L730.6712414666603,72.40598668880538 L731.2896305797627,71.16584475126925 L731.8580583866112,69.4817266353613 L732.2816112633664,67.10302022136311 L733.1906661049749,64.90308121346575 L734.0909410259859,62.79706896377746 L735.1783037055754,60.63501499830153 L736.4490427658873,59.15692966610913 L737.647590493536,57.650493430228515 L739.0907739967997,56.40299183840027 L740.5871448113385,56.151492203626816 L741.8312148993122,56.11080037290167 L743.1046378189641,56.159776053117355 L744.0714898460357,56.95737060895608 L744.3524515743742,57.670854639919895 L744.8140148150646,58.942041171669345 L744.174992949831,60.15170589544426 L743.9898684451149,61.266701832047964 L742.9636760101071,61.93987062504899 L741.9126813527374,62.58599532541898 L740.2499719161618,62.864784578299925 L738.9166253157397,63.25461576465948 L737.9081287268157,63.105918919634874 L737.1325498470992,63.27029811399714 M753.8431660504807,56.22572813293536 L753.789857673558,56.07262999905909 L753.3261324359546,55.62293946233053 L753.0638493895377,55.05035427507337 L752.5912371739358,54.953501201721686 L751.4355441952611,55.02130392243455 L750.5831664969359,55.5772860188655 L749.3355880800523,56.208526070464245 L747.9553945607665,57.04636612712076 L747.2039516367415,58.42676543698588 L746.5158217817011,59.53975309677478 L746.2913259122375,60.79248545856039 L746.8237526913814,61.741123330519606 L747.4690739251718,62.11249633496468 L748.7759838436388,62.44285355346319 L750.0111842106475,62.03258784870137 L751.471775537989,61.324673482720165 L753.1732892567611,60.31060014517547 L754.2073549557335,59.07375128519966 L755.6847231670179,57.955223931877775 L756.2741665325045,56.8707204601129 L756.8500067656994,56.11321733346862 L756.8994092254302,55.29216823014552 L756.8074322702932,55.33770934256827 L756.7218094504,55.262389042223894 L756.3388664778416,55.689547833321576 L755.8044542935944,56.539712407592695 L755.6149982147485,57.73663274465256 L755.3399398275415,59.20727348156727 L754.982130370527,60.47859716604319 L755.2906972449023,61.621983334199065 L755.5450228962827,62.529738363083354 L756.0364347110229,62.757842484776546 M764.8290822047269,56.41974196942715 L764.52658083286,56.13081742421923 L764.6502814964696,56.419665764377 L764.4079550162104,56.28263040235718 L764.3646348488589,56.90016366498143 L764.0086596799298,57.67810359491391 L763.6599199556463,58.984812431808486 L763.445838403586,60.390289793034306 L763.2136695639824,61.128103132674774 L762.3155538725393,61.93110154824553 L762.1101299146019,62.45785550515812 L762.18837492962,62.454813655135155 L762.4183477672585,62.04870909086117 L762.478092208039,60.89123990168607 L763.222454973821,59.45150047802391 L763.9171525569847,57.77277751054237 L764.818000574143,56.51110782395374 L765.9988453141065,55.0927352814572 L767.2365830587854,53.99012957001321 L768.6737365374228,53.11051875010884 L770.1604499260345,52.65251857772442 L771.7657366316803,52.133322512732036 L773.2130358365752,52.18800563726705 L774.7615528034189,52.4352165580356 L776.3040655967663,52.64743629574258 L777.3080332360405,53.12779702175389 L778.3781743197509,53.65693550654228 L779.2703965604888,54.09780191805975 L779.9501175920296,54.06707792654459 L780.5204646827502,54.24789864331056 L780.9138119561306,54.14817493712288 L781.1262707603715,54.11930179373821 L781.3998411317234,53.784893425052935 L781.2866544370137,53.766972417521096 L781.6752839455336,53.563470907445165 L781.4166394349729,53.70761019593066 L781.6103556674144,53.93088804251196 L781.2490125023257,54.407419615582995 L781.1881262421031,55.06859943180518 L780.7750191952229,55.6223804553147 L780.2125658513892,56.99943354637701 L779.7878495946053,58.17233226352901 L779.3152365883574,59.37213636897153 L779.166860337851,60.328654956760296 L778.905474105166,61.49512471174099 L779.0119983817586,62.23188635572084 L779.2727463438779,62.720045269684434 L779.3348874115,62.78766737342355 L779.2139426781957,63.247629241094636 M779.6652083725819,47.824916739357114 L779.740238412493,47.97946178982168 L779.5293069941582,47.73516155407162 L779.7932518484122,47.50449024788415 L779.9968867590569,47.758234270378026 L779.9249065769272,47.93031357792526 L779.8680726230364,47.98818336941885 L779.9331908421871,48.05773284483048 L779.8730821211592,47.95618035089127 M792.448514719315,52.7678342946391 L792.26758835897,52.34428164491299 L791.720791522431,52.542713838365714 L791.0287677768872,52.270215625346104 L790.369302486267,52.24050388361279 L788.9134738174702,52.66316037987729 L787.7795561959741,52.82571552473013 L786.6649293939234,53.55309949386117 L785.848930554346,54.154794844091455 L785.5310891133045,55.26197470156497 L785.8169800707369,55.90120683350893 L786.4527136545713,56.82894999316062 L787.4194822297688,57.899093653156434 L788.9511506659928,58.91540402483692 L790.7169137671219,59.575688096500876 L791.9733923707328,60.20823834044437 L793.6335119913203,61.25701931370627 L794.3885657164982,61.79019470516188 L795.0246322840435,62.13800386504503 L794.784270684601,62.67853117059045 L793.9978578351198,62.89293751610698 L792.5577779859938,62.93683192406399 L790.9793034759352,63.18848249964251 L788.883556792666,63.147193023197815 L787.2093751675557,63.00512923304839 L785.3793367946545,62.675525376097795 L784.3928509204316,62.213467308449424 L783.661024359383,61.7832279972879 L783.4470199869912,61.38835773054625 M807.3412872720305,56.25786691891487 L807.2239228092201,56.14203860561286 L807.1098560556443,55.622916311056876 L806.7438826243513,55.22015915138061 L806.0143155441152,54.953958496361466 L804.7692275395256,54.861448467684056 L803.7629730368658,54.940082542837466 L802.3240510299593,55.04304708556509 L800.809078431273,56.15537239153093 L799.664236240885,57.06734200504195 L799.0069456757128,58.08757420616277 L798.6355304496024,59.39341159247381 L799.1594352122289,60.570615570139964 L800.1152699520476,61.34801524626231 L801.5805147653404,62.11858306493841 L803.3212731912436,62.594850377617846 L805.4520816452551,62.38263551189099 L807.1488182025046,61.6862884586881 L809.3315488637692,60.716158191340924 L810.5898296906491,59.42475367891809 L811.5557271671169,57.985166708265524 L811.5738382172929,56.69361934137631 L811.7258805950504,55.29903032398914 L811.4285826967608,54.31246347429349 L811.3775568257668,54.13916078918245 M817.7268558495426,53.644203161095916 L817.9428628957596,53.70253472052064 L818.0128465314452,53.90929098977479 L817.875649409925,54.41417105093013 L817.8088721644405,55.074620380646984 L817.6198892901813,56.28157493253092 L817.4802050510015,57.79299342720267 L817.045924527372,59.23228081211861 L816.7314560733071,60.341490256871666 L816.2743504801055,61.18107255302438 L816.1959820979841,61.984564285815885 L815.9703074701032,62.23638885733567 L816.1394654282212,62.04956327810315 L816.2944189617166,61.51658190390423 L816.6706666066337,60.378027690686736 L817.4057184058535,59.08700252445246 L818.0667692567804,57.616818406789186 L819.3890741018093,56.430826433223224 L820.6554578594328,54.94221606089501 L821.9220572358477,54.237072766916974 L823.3421257787321,53.45882360606274 L824.8834533725426,53.213698776301165 L826.0272767516117,53.061177348496265 L827.3515612472211,53.77156720814381 L828.6602611962201,54.550120686580485 L828.9023767150129,55.77766193178448 L829.3604619300718,56.88732839788297 L829.5909738084879,58.70144622370906 L829.275343361268,59.924979295573735 L829.1799787908142,61.53739055955637 L828.9374336382782,62.49011419583728 L828.7161363122674,63.39171206107368 L828.6822295995232,63.843478588199574 M846.1879175542445,47.068605775191216 L846.2207542397316,46.870597506610444 L846.5784739664464,46.88895266671446 L846.7596517384998,47.545439182566824 L846.7565190430063,48.147254929864204 L846.9444809654048,49.35099181431954 L846.7076846386503,50.90090448187633 L846.5901816147451,52.666334084554016 L846.8251752551295,54.714332286343236 L845.9463180928469,56.82949523157238 L845.9930665227838,58.952495125215336 L845.4096576750492,61.10287304613821 L845.2363398164201,62.478491563311756 L845.0033171893323,63.82590237711436 L844.6594392920017,64.4628338544889 L844.5370968845272,64.90212522855376 L844.4616223058754,64.73433342977421 M840.2641363031415,54.633828107460744 L840.4875630022025,54.67599242360626 L840.8554465741327,54.32741749323807 L841.6354124106301,54.457741623623235 L842.8930536654198,54.638778421327586 L844.3340237586893,54.308426391487224 L846.3212462699568,54.1392181681851 L847.961062244394,54.244725618585655 L848.8061217324585,53.96962341978594 M857.62475282043,57.86097323262737 L858.1639927660885,57.415928765567045 L858.8882218848684,57.18563458876433 L859.9266447527233,56.334292433247334 L861.1762023069513,55.64002876532008 L862.1720728930679,54.475229800043756 L862.9746945507865,53.6555628978751 L863.2384948983297,52.583283355574125 L863.6308666698008,52.2085339543511 L863.4336954068704,51.84851579307704 L862.9648068430334,51.41972285170961 L862.0968606460743,51.52005927722868 L860.7198285245433,51.97233390029656 L859.3958732024734,53.15551390889364 L858.1865154725688,54.14873100054125 L857.0888097584417,55.21219400035423 L856.3379053551442,56.965284834683494 L855.9881407087158,58.30172591171259 L856.7422999703908,59.5749523763843 L857.9305764093149,61.01485680047902 L859.464167310768,61.31887798028633 L861.9898233263608,61.52125995051516 L864.6252135557542,61.179326092244295 L866.445097406495,60.65525788619257 L868.0038855889813,60.32953026449861 M878.2959949000707,53.37507428562441 L878.0673284949885,53.10004227923042 L877.4711198096629,52.8807273308789 L876.1382996451812,52.97435653730351 L874.8588963628965,53.08476900876681 L873.6376404404292,53.52743161607558 L872.8521776241547,54.377679428476185 L872.0297871018118,54.791729112898075 L872.0677170715874,55.44934816180549 L872.678114649701,56.35867106212498 L874.0912519699068,56.95132488610663 L875.3955333911354,57.852069698603195 L877.3743964445247,58.48421574047917 L879.4765130522856,59.02838473420124 L881.1846046389118,59.77932549214801 L882.3854954594237,60.00674092872528 L882.6966743622316,60.770137485588506 L882.8982817404329,61.000927472313286 L882.2895620842709,61.52298977057567 L880.7606910510908,61.793866127871105 L879.2537158572535,62.13723295434444 L877.0869170227007,62.06677054266186 L874.9690206678155,62.20822490861423 L873.0329570333574,62.39876898385745 L871.430281725968,62.17454955874375 L870.3107512200495,61.945561276496086 L869.9671724317427,61.55850841024475 L869.9589216296667,61.15724426555115 L870.2515195713123,60.8256192439391 M890.0554277342641,45.0 L889.9734575194203,45.33615207672119 L889.7720415037953,46.04327583312988 L889.4234086912953,47.17625617980957 L888.9475786131703,48.67025566101074 L888.3963090819203,50.45670795440674 L887.8377763670766,52.46808195114136 L887.3163530272328,54.621631145477295 L886.8787309569203,56.81697905063629 L886.5532304686391,58.931543827056885 L886.3803178709828,60.83120250701904 L886.3828203123891,62.418330669403076 L886.5925981444203,63.58694076538086 L887.0382158202016,64.22307586669922 L887.5304033202016,64.43425607681274 L887.9173051756703,64.39005374908447 " fill="none" stroke="black" stroke-linecap="round" stroke-width="2" /></svg>