<?xml version="1.0" encoding="utf-8" ?>
<svg baseProfile="full" height="100%" version="1.1" viewBox="0,0,1000,120" width="100%" xmlns="http://www.w3.org/2000/svg" xmlns:ev="http://www.w3.org/2001/xml-events" xmlns:xlink="http://www.w3.org/1999/xlink"><defs /><rect fill="white" height="120" width="1000" x="0" y="0" /><path d="M0,0 M134.06756228571564,47.99358846320675 L134.25118164712734,48.41750208926237 L134.16959299068705,48.90452309285246 L133.96670361430586,50.27391571092934 L133.7940088408855,52.30738142927665 L133.62561599222914,54.99717618011247 L133.70549704625063,57.43612346342815 L133.45430193596815,59.84982592356013 L133.05965248069774,62.06074988183602 L132.99663436685734,64.0071211505195 L132.61131111028124,65.58339320749481 L132.45271247098293,66.63304309443001 L132.48048293219557,67.23666615213295 L132.69575608970854,66.7308745594202 L132.9975079944115,65.58502245898528 L132.84704104713828,64.65813829316168 L133.06680026607145,63.6056841622511 M134.17965142976175,48.87025376256679 L134.4328009969168,48.96563648880894 L134.51895664896563,48.93633013125309 L134.71767525838402,48.49136789273908 L135.28699503269593,48.71582496268662 L135.4025028308868,49.52843002810294 L136.31223769968366,50.496613144564606 L136.9348614389691,51.75693176590838 L137.82600474431925,52.517912163378654 L138.49687055525595,53.6939178143633 L139.81133378328659,54.46264399069412 L141.40328900694902,54.2057359573857 L142.83583945428393,53.56889149523324 L144.32252359451502,52.92684328386019 L145.86097300330812,51.47677357604958 L147.31031048858242,50.24963782160505 L148.88828583018227,48.773622914514306 L149.78877497706236,47.363278962099805 L151.0438859513809,46.33624808388938 L151.72956010655457,45.498453798672486 L152.12103718311675,45.0 L152.48048178639354,45.31562043395121 L152.19651487767774,46.048267419579496 L152.29299011758067,47.228250088625614 L152.41666326084263,48.69949047683753 L152.4289933221261,50.34590900352931 L151.96419586279075,52.89268250580663 L151.56052543274183,54.68086121367967 L151.49831160468,57.2771831972408 L150.8973152039656,59.47531836833038 L150.91026952320556,61.68474445957602 L151.11412053682653,63.05723654273943 L151.04911675662782,64.07717097724486 L151.40989705783392,64.81719635244643 L151.51894584504106,65.35467448170547 L151.8377997247469,65.6526190177156 L152.37464856620755,65.40759145224051 M161.50975783549507,63.506117543087704 L161.69534634656583,63.34085068082446 L161.79894054416414,63.49457069194703 L162.52781970563638,63.361277707119676 L163.4035326268425,63.36271635098425 L165.03020859079828,62.729098601155556 L166.03687274675042,61.833657073665414 L167.56943663707864,60.84764092267162 L168.4713245714833,60.028519520139426 L169.4454312626504,58.912814576073686 L170.3637524830162,57.51582196155268 L170.71982763367987,56.80660123231246 L170.55190934462604,56.36830823623117 L170.1286798414107,55.35453004684179 L169.6481596251002,55.41083506123349 L168.3107559456951,55.67147210169059 L167.04617742993628,56.52408770861597 L165.76185494059575,57.32504628720799 L164.17639004498199,58.87808121788403 L163.4923599872556,60.17311036854225 L162.66620026090638,62.156959557998 L161.98070303880098,63.538753673765 L162.26681969810696,64.74083661125823 L162.9004557227463,66.11404902853147 L163.6509393972497,66.92283423440094 L165.06735687740297,67.69146538892129 L166.98046522258818,67.95383487978296 L168.9353683841804,67.75724135926833 L170.77603532698697,67.75786498538463 L172.6926887986814,66.61198816930668 L174.4885249130014,65.81321692923144 L175.74466643458987,64.96223049759388 L176.6535616822989,64.56082558309902 M183.76891668784577,55.61582814306618 L183.40252725238025,55.28649894419596 L183.12436847179106,54.74895358015736 L182.1699015134028,54.49641214578408 L181.22188842714525,55.00990745416052 L179.8447289433966,55.32235868004698 L178.9268939675369,55.86039542536131 L177.7175523264657,56.30541862665052 L176.77869235013242,57.19191467865194 L176.4842555521807,57.954495746654764 L177.31410520148094,58.946538333246984 L178.281836765192,59.06188036240892 L180.04758877759673,59.45581976210394 L181.88547975544017,59.84102011773719 L183.404835791373,60.41853542027196 L185.52613947640927,60.88022017990392 L186.7052184332154,60.93404285506097 L188.42726284545395,61.52834822685254 L189.56247635060714,61.89512290358145 L190.26646773889587,62.71954280719058 L190.43635029501974,63.014272638611956 L190.89553045247544,63.46022162631178 L190.1762588563501,63.98749973283899 L189.62585694444473,63.98294764229016 L188.32030222165162,64.77737130125237 L186.81028262961138,65.31339251963158 L185.17270270479708,65.37438534826214 L183.23036832298902,65.19189723936795 L181.55067289307146,65.4937144280619 L179.94988555925454,65.31108290611814 L178.772270945642,64.86702778586029 L177.1470561480566,64.91508283217249 L176.4298268191325,64.70842410786335 L176.22692996324093,64.40613812341937 L176.6349274022529,64.18491379326726 L176.44893799617824,63.70241637992795 L177.10287971656692,63.33384431999741 M201.30765480715758,55.79124668367762 L200.89451220729032,55.50207161720312 L200.41830275721426,55.32102610529165 L199.57791236775947,55.34385035621727 L198.38749507884359,56.034233574648376 L197.36865129209065,55.813154556779416 L196.76115686541675,56.419486480220485 L195.7706797371244,57.101917215080285 L195.61475490401898,57.54530264563815 L195.63656999859836,58.62609819899082 L196.26168576035263,59.26496537010931 L197.38584037304588,59.62734413244144 L198.87527455259547,59.67807617483152 L200.4440495261154,60.28362674486878 L201.98459922938844,61.06994079595199 L203.95061660595286,61.66268894154824 L205.60531614911298,62.133597134820164 L206.56112938889186,62.88097047760492 L207.17387671943683,63.69198409739687 L207.07630810956152,63.99657791070175 L206.95508811869115,64.74178911894654 L206.29031277618634,65.15372411024819 L205.2001900469271,65.57920958541453 L204.10701967826384,65.97203211187579 L202.26204068851428,65.3877949915799 L200.4264434211744,65.13969678458 L198.70458068632593,64.63798646661816 L197.09209621688873,64.46483145178743 L195.68772700819446,63.612216461957345 L194.71561721122345,63.21630750855961 L193.8921336360354,62.4689819502831 L193.11007530665478,62.03932692648153 L192.97399855827268,61.792741774199555 M209.61173347019508,54.30259494678879 L209.65454574600378,55.00225285059303 L209.7190107391521,55.71193060519494 L210.02899046504132,56.390228587541266 L209.61442259283933,57.807554214494516 L209.86001390326686,58.731416759985365 L209.75258319904196,60.34480604146104 L209.94728399321355,62.11214044226331 L209.85701439339158,63.59028585374276 L209.40008796392914,64.66546233426683 L209.28723940261676,65.61382559998056 L210.07146305622564,66.32498016639033 L209.72609222826395,66.39977708463532 M211.0431100241554,48.37674701600436 L211.09753659847973,48.36694116674093 L211.21952684801926,48.40016959582131 L211.36252994374263,48.46016353333855 L211.48003094732275,48.53065329709045 M220.93723851714915,54.86862514387254 L221.12610429353765,55.40518122066995 L221.15040452935034,56.30611124946914 L220.91329821992343,57.48786405081512 L221.16903092657034,59.057313689871 L221.21536266958714,60.48369933313182 L220.43639284814952,62.08663475100861 L220.60450909695868,63.11049242963659 L220.79312622881832,64.53223385036775 L220.60797085869714,64.88140003133068 L221.020044350904,65.20214607393012 L221.01852370739226,64.77952021946707 L221.30469348100758,64.09780797348667 L221.97980573037435,62.40865664534609 L222.67818650479296,60.90560029770208 L223.48678302393517,59.230071956729894 L223.97680493193846,57.25454090744116 L225.47447674921673,55.48129686362428 L226.82668521174864,53.943751732860214 L228.05441658859237,52.95860133846778 L229.26759108025277,52.30106171764519 L231.05947465655555,51.87587167979525 L232.41462385401195,52.11583924176795 L233.09603837928898,52.92580392983682 L234.43443332396507,54.28747481663737 L235.40289159061692,55.632350622419196 L235.76793375469174,57.55809351700521 L236.32441421953376,58.944904857593244 L236.58902967986174,60.756820683840516 L237.02347416467154,61.50061081074032 L237.1330975793344,62.945406395369275 L237.0848935530132,63.16543453145882 L237.41244168567897,63.667024004224565 M241.8221249063691,62.17425988164265 L242.29300496571275,61.688266040052035 L242.89797368858547,61.431383494069735 L244.12685776208178,60.9313229585984 L245.18529386408866,60.26601598183511 L246.33981539661963,59.32115742542439 L247.5798622126068,58.516091549106896 L248.4687337122398,57.40302169865361 L249.04946270060594,56.05678187810113 L249.56394929687826,55.381588434311304 L249.39118395937922,54.685015924363356 L249.09786740863242,54.1689386859606 L248.56723783705635,54.16596243145378 L247.2753051915516,54.22791818069036 L246.21213965495338,54.912700040097874 L244.72961446807435,55.90182897008073 L243.208626785212,57.19840362576862 L241.6009453498453,58.7602464138877 L240.28530525616634,60.52605168816499 L239.78379993577965,62.092580860186224 L239.37872326390735,63.72396919508972 L239.94023475681394,64.7502839683974 L240.81852985925724,66.0122866214999 L242.1952915171005,66.79796537705404 L244.2519428777229,66.77367421468827 L246.38962375709153,66.34769017156994 L248.93997528278442,65.91786445093229 L250.9160783379469,65.23975307216251 L252.33311742023992,64.84466115003018 M263.4950726379974,54.879041184906015 L262.74414571719,54.716468498938085 L262.2221952641504,54.168793208116135 L261.0606945258106,54.54919620898646 L259.72575561087973,54.716738029492745 L258.3302500353433,54.933726873911944 L256.937522291874,55.66247825383654 L256.0410563905221,56.421407942116645 L255.62746968074606,57.48889853410808 L255.8165956737366,57.96125027808232 L256.3095519286506,59.03431474055999 L257.42741665114374,59.29185894264766 L259.06262414239484,60.17059120234416 L261.0358921141749,60.29769635077205 L262.66500512457657,61.15829113281617 L264.3999492577726,61.62695277861398 L265.96027556877794,62.57355901938186 L266.57022656403734,62.30072173977838 L267.14830667186914,62.87698627425261 L267.3685077308409,63.808480199793564 L266.92250429531356,64.18909211738772 L266.2573442775813,64.86292992947817 L264.9873407564705,65.15111588534238 L263.68894970958024,65.5702329826388 L262.4847476054563,65.4720960409588 L260.4318069200696,65.26770377820453 L258.89035555320174,65.21575785796337 L257.18014602517553,64.89406443759704 L255.8391562036673,64.94030403426223 L255.27189260154256,64.39508367288485 L254.66057450996877,63.87698123485012 L254.56165544849642,63.206927046753954 L254.52500408919985,63.18933903815102 M279.4659654514901,54.445680611157925 L279.20406444815836,54.44668337098629 L278.9579045487077,53.702982694191974 L278.2337637424374,53.437143711337754 L276.87466349478655,53.25798063732404 L275.75946495788344,53.32638200764468 L274.1875714636882,53.688378834424306 L272.69533467779297,54.345425673816244 L271.6559579713065,54.54689427696586 L270.8175842876202,55.43886993037355 L270.22370952104654,56.09370135216872 L271.07971587471,56.818498223806834 L271.8796626574558,57.680763230830976 L273.1443549183043,58.9797651381262 L275.2936466653289,59.53038067366958 L276.84628703010486,60.2282031474132 L278.5317653412834,61.07967186498317 L279.8652828892317,61.685305964710224 L280.987495357422,62.5161729325646 L281.65702830522173,62.905021739803026 L282.0625524039095,63.353153511311135 L282.45089276880503,63.76085929278328 L281.68669619821827,63.58343715345274 L281.1615863417556,64.16855313187256 L279.9662351573953,64.26634035139308 L278.7139836099653,63.9548463920718 L276.61293007066064,63.688694623503544 L274.969834451122,63.72261388902717 L273.5507820394828,62.83556926943686 L271.99279312154675,62.49985206357664 L270.75476479992585,62.1325814765094 L269.5567493334831,61.983606616650654 L269.3059215174217,61.78880940955791 M307.5709455565591,52.902070417794846 L307.03232699474574,52.718050189006185 L307.0648609358883,52.29921529397467 L306.0054483624805,52.08236846057335 L305.3612263328792,51.76668113096448 L304.5065915941731,51.55089673868438 L302.9692668858028,52.58922954497515 L300.9364214570844,52.864284925406906 L299.5994351518009,54.184023746762925 L297.77060504322907,55.57025400970823 L296.6467784234028,57.37736338943351 L295.12006534999546,59.07778495881378 L294.47027257804655,61.171570531051565 L294.4437185618573,62.93302751185634 L294.92951967640465,64.21902066346836 L296.27885299626587,65.57471253412463 L297.65096795421704,65.52948011107682 L299.4355731029675,65.24846670614461 L301.6454258895208,64.47331670779346 L304.16745735419624,63.51191670665346 L305.67391284590906,61.84720254511124 L307.52868974163476,59.81748744120772 L308.63021521700045,58.01228887048115 L309.61040356249015,55.73579557613298 L310.0754544702281,54.25977144184776 L309.55291100656655,52.30459490616101 L309.34675457415057,50.73181214940016 L308.3134709092282,49.554537110373715 L307.1256432766247,49.064621163209935 L306.2707642659676,48.23573573558805 L304.92776231469827,48.253505044889 L303.93588929273176,48.060932681339445 L303.39094264829527,48.51970303400278 M320.73285055215104,67.3021855923137 L320.7445191157209,67.32716740446158 L320.7986523432097,67.36820309238709 L320.87276573666804,67.41082671337811 L320.94438895683936,67.44056985423852 M338.49389622305716,50.43470744943594 L338.0630194119534,50.07733975353368 L337.53887274376626,50.11404784631236 L337.09706126577,50.24563081331501 L335.8888260345867,50.868088036083755 L334.9543356674196,51.606123837613204 L333.7107421983532,52.748185318054254 L332.45224032333624,54.50449145815601 L331.0885393085007,55.74918009990149 L329.6396033513271,57.86397202823602 L328.5295288493119,59.79224499827928 L328.1657310824411,61.73126556670889 L327.9468894175209,63.390414935524454 L328.73672619880426,65.1224006997884 L329.49976702526664,65.9271251078669 L331.37468229656776,66.58779512295658 L333.32126641950015,66.36505892110769 L334.99194738316857,66.19857871965283 L336.6751075265789,65.04104166625922 L338.0049902532307,63.89592189700574 L338.8677098949285,62.89162805053978 L339.78458733790376,61.65495417171487 L339.60586545825834,59.89510813677632 L338.7713209192765,58.53490784667483 L337.81732261492715,57.78235451416209 L336.0274605441043,58.08363090816363 L333.90034041612034,57.684337620458585 L332.7482013090936,58.46437183579475 L331.6923336429484,58.102060239259295 M356.6111615808833,57.078682832938746 L356.6766059069991,57.06276979006248 L356.75720100576615,57.03500555041626 L356.8273146407261,57.00636531402246 L356.86128589349744,56.98782491108586 M357.62163924096814,63.14147506280563 L357.6498163005936,63.216316985589025 L357.7178322295832,63.29345361338326 L357.79896369785325,63.34968410208768 L357.86650157717924,63.361805464976776 M378.34067860581945,47.244796103116066 L378.2347357136291,47.87667597684397 L378.60949091210864,48.1837635365586 L378.74322009285873,49.258425439202206 L378.35365989590207,50.60371593547785 L378.24438164310686,51.899188211163995 L377.9200945306715,53.8055955561932 L377.78659666626015,55.99333682249357 L377.14890755214947,58.21053533702002 L376.6532500196524,60.14544596449666 L376.1166616306332,61.603937298545155 L375.4737657231443,64.10383452553762 L375.2588742267029,65.3484775771209 L375.29180608284173,65.79988939889712 L375.24066694862404,66.9077294321453 L375.38834034898485,66.57431291666452 L375.4417285899258,66.74877004108508 M389.03157699868626,47.78076068876538 L388.70131557032295,48.225510459480354 L388.96296263983794,49.489558626182955 L388.91506316008855,50.045431387196395 L388.9328788900324,51.75967765246982 L388.02211573672656,54.072819184168424 L388.06634424202383,55.55058202600872 L387.74724277278557,58.14284952289766 L387.27638632702923,60.05166830670133 L386.5383442590901,62.30983909816052 L387.0053494883003,64.0896027886455 L386.50425070366305,65.13612111493144 L386.84796419799306,65.55274276565072 M379.2125467074119,56.851450374782274 L379.3508657616335,57.029358231784265 L380.5050084788594,56.68531413375433 L381.1218480700024,56.489058422927755 L382.6785716652721,56.44415148408177 L384.7368516316856,56.387631849757405 L386.28577946561956,56.65182702967701 L388.05007634710114,56.09642819411301 L389.02114149974955,56.25792141407707 M403.7042847691563,57.272690866105556 L403.6392268783673,56.81138743719396 L403.1700009991733,56.719265522589176 L402.5427096812804,56.52300340960425 L401.6234369798852,56.49983365919456 L400.5739652668022,57.141911256242466 L399.5811184847836,57.87704893237809 L398.5227751044859,58.38486679108362 L397.2551143128136,59.34277113725292 L396.22034765060175,60.9503079543528 L396.00391319185456,62.31932849111197 L395.85550156785314,63.52008190827925 L396.4053407298727,64.40205127819644 L397.417850410817,65.05417481260206 L398.2242128209193,64.94431676189183 L399.25254971523805,64.74093408555291 L400.9934163667149,63.52679946855557 L402.3269778116269,62.68635259087949 L403.60844316742305,60.946202094723155 L404.73348442379444,59.838655542215854 L405.5159301702865,58.63834043235089 L406.39569320091584,57.747447667038045 L406.67945522837766,56.78047724970804 L407.183395504036,56.71691449907943 L407.1588124894129,56.593839242044275 L406.8269575168749,57.20682261655497 L406.9177645185878,57.981000990828996 L406.3186222724486,58.89316154973652 L406.24202970979127,60.52706825577829 L405.8010883904881,61.771194839621224 L406.1319629525934,63.42969891583872 L406.2829240794916,64.75525365481303 L406.7890868890401,65.32543883168691 L407.2836826146639,65.57313368753977 L407.92156272235786,65.33845386164951 L409.5249993106926,64.97962839447722 L410.61793000250265,63.740667732391564 L411.72975344656254,62.51001993721364 L412.88435436196755,61.08869449837295 L414.16863596874464,59.39313198022719 L414.9173614758803,58.27995872777895 L415.452212028767,57.69986961676745 L416.26101976041934,57.02125810603527 L416.43358764862126,56.99936313567169 L416.08959280900325,57.1484348510506 L416.36985280087754,58.28077964642568 L415.3889263944981,59.08466932779897 L415.12901400571116,60.479260411626456 L414.4652048015768,62.29077380049409 L414.0776015362189,63.37917983762493 L413.5249188887874,64.66668206899945 L412.7734740975947,65.60031382769502 L413.31358703839936,66.42611172648101 L413.22513066072514,66.24023427413871 L413.518098543049,65.79984821717409 L413.93972275157415,65.04160773702212 L414.54503121161014,63.73910767731551 L415.05255156170125,62.56297342876947 L416.380160160796,60.828393231179646 L417.33323746233344,60.01059553167428 L418.46985439559035,58.587983916490984 L419.6153754696284,57.71799524698046 L421.1429548228891,56.954396593735666 L422.43947193625377,56.84611725513601 L423.57184987988416,56.99643774731499 L424.6791047810502,57.26783470076338 L425.53943165935254,58.385327871317266 L425.4366781170624,59.576361720089494 L425.4051836065234,60.7665425613389 L425.53249921408565,62.4914373079963 L425.5424766567788,63.73179605118387 L425.2380664528579,64.94663635381166 L425.2295777854465,65.25340154178829 M442.01506702145787,58.581528569378094 L442.24390595446687,58.27937257418593 L441.95826192594126,57.60948640483423 L441.29080537687474,57.056758512481686 L440.5119726028289,56.568375687068134 L440.02728653876466,56.47554982469746 L439.03745876687526,56.639356458525405 L437.8716820453249,57.457649435535515 L436.69826739459796,58.17544050367548 L435.2153656618645,59.1668682549718 L434.45480223128095,60.55218845485225 L434.2232816690376,61.938176159799596 L433.77343764311325,63.21183777728682 L433.9329314486532,63.87079886476231 L434.8019986433511,64.46404863997982 L435.3125680505019,64.54417484461953 L436.3749291553682,64.40423678025506 L438.1318273683274,63.302865082546134 L439.57120027956836,61.99036446739305 L440.79185370668444,60.48792992911372 L441.8386212976099,58.51819765205246 L443.06775747720513,56.39145330132769 L444.2982630160688,54.520192874727 L444.8808133999773,52.8546061160676 L445.4703580438313,51.35161123226348 L445.8177752837622,50.24039414925811 L446.0234646375088,49.59387506562823 L446.5142142036149,48.99917566514766 L446.43479676477887,49.24242413433121 L446.13279564380724,49.96897272950529 L446.3781805008065,50.309238872077785 L445.9050433832707,52.26956037953593 L445.4761738983973,53.98847530894015 L445.29846958101825,56.45719937370445 L444.8065133768347,58.27830913056757 L444.7262585451961,60.084046002988195 L444.36874774396756,61.97157859541952 L444.4704781565748,63.46787462191908 L444.750615793316,64.26651396650979 L444.7789182949219,64.73121015078351 L445.0860886033987,65.18795323232163 M448.8633603315814,59.32395955251552 L448.89093683658325,59.421137024523304 L449.1478045049123,59.970652433349144 L449.3831518886448,60.146569936687605 L449.16443287569615,61.10578938767351 L448.9738556641837,62.13239058988138 L448.9113712435086,63.30569277375487 L449.15381080639565,64.49722763067295 L449.46980625804423,65.5478279342604 L449.865701859907,66.29154110588118 L450.05780866681437,66.44303369717025 L450.8213214200203,66.72222954171346 L451.37575278561246,65.94419659444203 L451.9535397565586,65.25214723137007 L452.89926271314806,63.77786240206548 L453.32635381242926,62.309439631860336 L454.09119090793126,61.047132083565245 L454.7607179066597,59.89700659902811 L454.89544358965196,58.688622681448955 L455.0415484887436,57.71078757979335 L455.1957668102445,57.6039859573699 L455.09729729993273,57.26035552509915 L455.2760653234622,57.83465205686154 L455.11152195124464,58.59740621616286 L455.0592901553347,59.698666233851974 L454.83857688415753,61.04406538095629 L454.89931110062577,62.49264606251944 L455.0255699248627,63.52722811949608 L455.47229407720477,64.8969135959855 L455.8232330536015,65.8020446154336 L456.6546444333874,66.07869491067636 L457.3676378591718,66.05405322541064 L458.5739479424516,65.35198590067908 L459.6144582046802,64.69124486707481 L459.84470115287166,63.20858792148874 L460.9048019045755,61.5831343716756 L461.3505765351201,60.1175779604187 L462.1531292427949,58.99001292717162 L461.8581564852616,57.388681816885594 L462.5306604084223,56.58310708208997 L462.139756636193,56.030737880495955 L462.3707416982239,55.19213620095202 L462.23296771781423,55.25629355019122 L462.50546106821605,55.74526149474942 L462.2456100502115,55.49787168209489 M468.41124787889447,58.39597905740034 L468.24669476390534,58.647584526332636 L468.2672950170851,59.57481978502433 L468.0026859354075,60.33905716702567 L467.58085829203173,61.51621768706522 L467.1044787015237,62.581011962002556 L466.83742928224484,63.250851540447904 L466.0057468505835,64.58338321225018 L466.2628523835242,64.7935630865684 L466.02052129614754,65.21506108521045 L465.9398315276172,64.89797524596788 L466.4554328724157,64.21705217254605 L466.3392560335416,63.04779484238857 L466.7791766020154,61.70931323422088 L467.29419267759454,60.34802396876688 L468.0965558449909,58.69550151217666 L468.7773934106604,57.481996851191234 L469.5375521378843,56.476384293919665 L470.42389502328894,55.97701896614459 L471.5832622616647,55.47933898710336 L472.73785144848,55.13838435727696 L473.1081730785893,54.708817884439725 L474.0717793431274,55.40780253072324 L475.31211609711187,55.817744895685806 L475.87345694596013,55.897810718352495 L476.82127240925814,56.31376464174974 L477.9330289529915,56.85228698274174 L478.49500253359525,56.99808405810869 L479.2618157442424,56.711767003029856 L479.8110688283601,56.703371162156195 L480.1171938397114,56.423324707704566 L481.09080971465676,56.64982892156009 L481.3005211707905,56.189982710794204 L481.0395969917562,55.95428913567094 L481.543265107566,56.37929514320697 L481.5278695667704,56.67277661317835 L481.62501568502216,57.15455309587748 L481.38536769574574,57.609536892006396 L481.173945652307,59.18062628508181 L480.55056552438487,60.497657328244465 L480.86962242743454,61.92436342208351 L479.8993188573593,63.00376853069896 L479.88090382904295,64.06284524843367 L479.5135354373619,64.73216848229411 L480.04026019043096,65.22546327886863 L479.99390547749516,64.94417491321293 L479.91727924958246,64.56847984322853 L480.03738586024366,63.56688627433776 L480.1405835279913,63.129614332842806 M487.1044136930424,46.98054259423748 L487.08711755423724,46.93741245204324 L487.0974951462444,46.91770962745394 L487.12817280232565,46.92374259117508 L487.17160490657767,46.95780538867329 M492.5391921571088,48.592079891322655 L492.5702228100465,49.04898819571819 L492.5762592173855,49.703452585900955 L492.64194656402,50.50150960692211 L492.83056800760943,51.65546980733896 L492.2221047501782,53.57247260198257 L492.36092191030014,54.9312690851237 L492.0200933409003,56.77288863744823 L491.53388416985416,58.48562813950132 L491.76888887699164,60.150991781872655 L491.8498983607871,61.801596749534426 L492.21937330929745,63.020368882778186 L492.6952356942878,64.07403451816354 L492.82449040300156,64.51636030039505 L493.49157170835457,64.83663543240432 L494.2358055138917,64.7402432695605 L494.20302765986105,63.82449606313765 M492.0072529876692,57.29431866879896 L492.3730639558924,57.00581683812656 L492.7015820059486,57.15020987404401 L493.08145340929,57.08605995020237 L494.6097279458588,57.14143076445623 L496.2436529211447,56.7190354776978 L498.1247505733808,56.39043443974163 L499.728245653934,55.83292543610574 L501.3862823396362,55.760199433597165 L503.1041156101297,55.47730398506066 L504.23262142821847,55.32153896362628 L504.974833269869,54.93770267753692 L505.7465765003487,54.965950628169274 L505.9719570622782,55.71588218565762 L506.4845837828627,55.88761844942436 L506.2635938077409,56.817831048062864 L505.94259224976315,58.22816814722203 L505.3426668222535,59.92398262278024 L504.6256177370623,61.4350175169682 L504.3181885692419,62.76284912851779 L503.89216358759944,64.08042524080767 L504.2016496567395,65.1843395451173 L503.971526924531,65.3746170669821 L504.2659577096883,65.73117276603051 L503.99591034183044,65.4057779447563 M511.80186844679724,47.80303637690783 L511.8203254716686,47.77748280507703 L511.88092952427627,47.79303535607652 L511.95923551753776,47.83899115755531 L512.0307123824219,47.90464165100718 M517.9000130919019,53.0532771576481 L517.9691920475665,53.897239257226886 L518.0840810032898,54.551004599173346 L517.5513462744949,55.93829314948882 L517.2549713514596,57.13593032172712 L516.697296135771,58.6724054053199 L516.7504132241171,60.02811085690585 L516.1797729633804,60.94170942290928 L515.9867134357825,61.9972694519838 L515.4059543408371,62.58382977481584 L515.582488088353,62.393206999370534 L515.8194093171484,62.38657093009911 L516.0750943724985,61.93729670741525 L516.3740849411969,60.62053247907011 L517.2099660933206,59.43552268199451 L517.8785544986968,58.013826064464396 L518.6835270453122,56.44651000073091 L519.6034938291311,55.57883097490784 L520.5813903982546,53.886813504895116 L521.3772576109961,53.161254581639575 L522.5027146755608,53.05283038689443 L523.4812239582717,53.04152760310681 L524.0657836102304,52.95666083209029 L525.0282700000357,53.49651436972331 L525.5969793975314,54.554263487823064 L526.0205809539648,55.71766203622493 L526.4892161059715,56.8767162717011 L526.7450053617247,58.428988274305425 L527.105913618974,59.77436620747869 L527.2080449197306,60.59159314215959 L527.74281393879,60.98367302996116 L527.7033756501205,61.403899077776614 L528.0373231901383,61.697969673065074 M537.7496773260002,56.892212913533584 L537.2134610951819,56.39681876916645 L537.1101759620537,56.35043576442781 L536.7631982403591,56.05114782536682 L535.9406190027476,55.18144065881624 L535.266787844168,55.27882452503242 L534.4721476285514,55.48038800042399 L533.2916538447997,55.58933589201541 L532.1807384214336,56.23925366997383 L531.5856366484821,57.47426636298199 L531.3598813736173,58.22467270637949 L531.3114323071022,59.100444960929565 L531.6727110651232,60.00745581255548 L532.4646515078814,60.688136947723265 L532.9929028610858,60.96059390807737 L534.1384767406129,61.08215112048603 L535.2807854044078,60.773807413521894 L536.627522030281,60.216862656876145 L537.5080934841469,59.575821088219875 L538.4198771567012,58.91312544549848 L539.360791658153,58.17071507593964 L539.2200309702055,57.54554324054499 L539.5738638676223,56.855660062642535 L539.6765394875478,56.27660906235797 L539.53424210596,56.396924155111634 L539.5870226695989,56.04283894102671 L539.3875270116107,56.789626390564244 L539.314950519177,57.43923585857134 L539.2260684043897,58.60037533884173 L539.3574299554605,59.914179396711205 L539.3523388205452,61.621602861872276 L539.4520072456917,62.97294396972417 L539.3014256993927,64.66016367432988 L539.0381187676223,66.27223912940279 L539.0278216700349,67.98890167425215 L538.7730974396381,69.54362670442228 L538.5860029364932,70.84365898353036 L537.8808682998556,72.16773254546167 L537.4040142943072,73.50236758935634 L536.6868511233652,74.06924459517958 L535.9045371814332,75.09256806590712 L535.1320677779983,75.57987233325574 L533.8743567125846,75.96157305255768 L532.1808246367025,76.3081931804943 L530.7489010245611,75.73060941902979 L528.7829632720409,74.93738516067202 L527.4487127183488,74.81877473727343 L526.570440295209,74.44023349228875 L525.9656739278055,74.22214023283347 M561.7681250951097,57.08025146603304 L561.6236360519443,56.94015601513687 L561.5720536406111,57.68014830037254 L561.8652709945115,58.81198246003772 L561.3292061360864,59.712232347833556 L561.2456507507125,60.859346780749625 L560.8084306500269,62.48115653638239 L560.3275121636909,63.58598321454309 L560.4702825980428,64.80898466913033 L560.046117857813,65.48813284930823 L559.7647557416271,65.96103913854527 L559.8316754094423,65.73272886465976 L559.9504855338251,65.4633661939597 L559.6610825206587,64.68916388347125 L559.8097368906775,63.06774158059757 L560.6204226058636,62.1178690383855 L561.0021566501891,60.413357503528815 L561.5233851603259,59.16004265888893 L562.4671251609528,57.521211051057236 L563.6409102367161,56.354755276249456 L564.3567959183517,55.42358063507053 L565.1774238036248,55.13013465013858 L566.0723609298183,55.19118213121074 L567.0112040358579,55.530431407010276 L567.9042946963219,56.07191519970146 L568.1235301937417,57.278468990897615 L568.7273453539112,58.47688659051482 L568.8467424967639,59.8533988669497 L568.8605182932133,61.274725818555126 L568.6100879726334,62.57426579704641 L568.4614641951102,63.200637307439436 L568.2502828424067,63.805776381486424 L568.580875327556,64.18326000359612 L568.429418413966,63.72592843834403 L568.9025790532394,63.042904648148706 L569.2230362936318,61.92841603730247 L570.0408854146403,60.51653673751199 L570.6992644106015,59.19960944386937 L571.8426000143679,57.893833010891825 L572.8959449356216,56.74763283627869 L574.2044319500012,55.75683813051082 L575.2545219446724,55.37761989511127 L576.2955348525137,54.90482823451512 L576.8624714870073,55.09418663788996 L577.9915323835392,55.87338577021104 L578.266648818465,56.726583303146604 L578.7759637257296,58.220655556808595 L578.8294727033565,59.27536608820336 L579.0206627684898,60.521757595078576 L579.1245193253579,61.66889764418611 L579.032221555112,63.141619172192364 L579.035698453045,63.3409364230879 L578.9774612209935,64.20412293386428 L579.7441518554762,63.945287210388834 L580.3056104720129,64.19853319315348 L581.3481084977935,63.298533020580756 L582.8062993297127,62.2515698441409 L583.5794348718878,61.296443412640166 L584.4731957369436,59.72691378544226 L585.1502644962181,58.652134875476435 L586.0746682395676,57.14110883913586 L586.3109020229076,56.752180008150916 L586.6874945262095,55.094692307786666 L586.0610668360454,54.53857864611435 L585.7076495459389,54.29968976734015 L584.8896354057529,53.99074663414206 L583.9750537833588,54.67670940353287 L583.1731307846694,55.11664714598323 L582.1198822461931,56.26551322279432 L581.5215162096193,57.13338359368387 L581.2323025115184,58.813113891492655 L581.2287772949342,60.074336538681855 L581.2610672547355,61.24340200254885 L582.3364421934376,62.21597841391568 L583.1053584342809,62.682543906240156 L584.8265355479368,63.0745449339854 L586.7717918645411,63.196021971567625 L588.9195858664042,62.515613877119634 L590.1128185029554,62.152379562994795 L592.2085891669117,61.2957364597332 L594.1230574683034,60.243215004954685 L595.3661044314915,59.05375452971506 L596.4078670397024,58.0807898119316 L597.3446552892742,57.24475746645788 L598.083470364036,56.744810674301895 L598.788788064473,56.01018388959486 L599.1714433008799,55.69261211651929 L599.166068960548,55.371794428378806 L599.5627315462444,55.52795072713651 L599.4438634786306,55.57121284424101 L599.8026857204279,56.35954531709535 L600.2501463040148,57.11386638414286 L600.2916960522905,57.718947223413984 L600.9625718714947,58.8252634311471 L601.5896749118042,59.39068026861236 L602.1259893430827,60.81540740033792 L602.5756624832208,61.25643377405455 L603.3435110039791,62.38202266498091 L603.5701337273456,63.10435686799204 L603.9921083409424,63.97108464676545 L603.4997155017206,64.11135409890116 L602.7457744473634,64.60502152898422 L602.3591541989977,65.03454566071309 L601.3037340305269,64.81516288824996 L599.7841200503343,64.85702643558537 L598.0905526254498,64.78084181940991 L596.7623404861123,64.24279911883303 L595.7703048497415,63.61355015637079 L595.5393376632805,62.83971143110262 M610.0367698429402,54.601131103006615 L609.9823356231911,54.58274863284041 L609.4229288366334,54.29915544684569 L609.1030642252597,54.264604908481346 L608.0572072358118,54.773034681938945 L607.593488506855,55.61695775957279 L606.3346680761653,56.10330224737449 L605.917995545233,57.209267828945585 L605.2475897968036,58.125169943017056 L605.5581949688425,59.28811595983054 L606.2139658844933,60.289989487771884 L607.3938121591682,61.42047947715068 L608.3753767371527,61.95707140032132 L609.7937182607936,63.11664184989333 L610.841739312455,63.503283328790474 L611.9299588704675,64.4771128455749 L612.1362417298451,64.79719282570296 L612.4776805180436,65.21376786023006 L611.6322115877033,65.96949495343146 L610.3778169527682,65.95464473806261 L609.7846247387222,66.67270171103871 L607.7214555059666,66.02302658184193 L606.1672021923199,66.24706375065037 L604.3656756012545,66.56040366452606 L603.3323238752287,65.55455302208526 L602.3261476299417,65.49203884172796 L602.2851100217235,64.747902369347 L602.6464019824157,64.2134990644199 L602.6952550169005,63.64608059135814 M618.282540365466,55.61557380058602 L618.1992456300391,55.74231942317042 L618.4051046228794,56.1242140004406 L618.4743341600501,55.99267408190339 L618.4160837818215,56.9361469339908 L617.9209528166418,58.33860284100388 L617.7923041222491,59.033058788282695 L617.415602710134,60.35485033054587 L617.1394821476983,61.82851953310383 L617.0726237535914,62.35963706237936 L616.9241899637382,63.32215253168518 L616.7595696771107,63.83474325891384 L616.6693237102365,64.19860585645877 M619.5179769078104,49.530808070053695 L619.5241096242271,49.32798940752615 L619.5574486048556,49.128196239518736 L619.6039333484778,48.990413288826105 L619.6493881170647,48.973623393629964 M626.9910666653248,56.36588795386925 L626.9625679233397,56.7010798743076 L626.882479735207,57.03981190487066 L626.7980855456155,58.24688131958731 L626.7828212178963,59.69184913347533 L627.1527716793644,61.15276619519938 L626.5385597337793,62.47608014287442 L626.1988609490109,64.30364828629618 L626.4256476635976,64.78088324163934 L626.0563213756184,65.5292847310869 L625.9258852832188,66.17101611434448 L626.2942025781629,65.4220699276689 L626.5738512721359,64.789454044414 L627.023522961314,63.41420071100436 L627.5256693904914,61.73934600343759 L628.3093163416852,60.73638036156408 L629.1051928289974,58.95399293905496 L629.8652369527904,57.295355721067075 L630.8849912765677,55.9371061159656 L632.3774993574575,55.09664609693317 L633.319662087205,54.51519089386424 L634.439244603821,54.15352927662022 L635.4268623493517,54.24962389484904 L636.2998865310542,55.28565641923165 L636.7904869880797,56.10779816246085 L637.294649202591,57.543591112932475 L637.3059997577132,58.584077823879305 L637.5391628049811,60.49987831136879 L637.4141102066503,61.85587102929525 L637.6493052741971,62.92966428870878 L637.7099537143322,63.89942568642815 L637.7287992910351,64.43418209842358 L637.7752210378444,64.68799530441977 L638.0304873465814,64.43061090186112 L638.1028984405068,63.988685215557126 L638.3451903941138,62.78092094871756 L639.150050695403,62.08938529021126 L639.1193370335152,60.645553631294966 L640.0862833569149,59.479055835831154 L640.6536560773686,57.9111240128643 L640.9916077364544,56.71668540364538 L641.8249764413426,55.44096864909882 L641.9040388763119,54.8747106229736 L642.1572901074862,54.28729027091069 L642.6274047500442,53.557263442538684 L642.2386301515098,54.02176422049372 L642.1783922277714,54.2245984516991 L642.0525805233383,54.74145884849064 L641.5993202292061,55.62542377783718 L641.1424930913993,56.783295056921425 L641.1623863312759,58.152253880441634 L641.2159930944463,58.88805038524997 L640.6770533588624,60.5205557024186 L641.345844688353,61.36988882872605 L641.2129652341462,62.246896319709826 L642.2195622447516,62.44005796238048 L642.8306274727636,62.908571219534956 L643.3534942910651,62.66628827295827 L644.7349140120198,61.78317892569008 L645.6619108178222,61.12686373576089 L646.9372382061888,59.59171650648519 L647.7372062702725,58.07018441566214 L649.2522586395644,56.9232863131786 L650.1243531646423,55.865437623015744 L650.6199990652472,54.503836811518774 L651.2914056786722,53.038725367147755 L652.0191514531086,52.78154167013902 L652.4428980549926,51.78208264252915 L653.2747817372408,51.716101747558845 L653.6944781777001,51.28149959922433 L654.298929393093,51.816964879960786 L655.208620629965,52.14748496959247 L656.2518883633309,52.52979347074372 L657.2303308150804,53.118446037261045 L658.2229541891841,53.67443929151173 L658.9454163935359,54.438496608182874 L659.6968477616376,55.41065861530999 L660.4684721562589,55.930734117900656 L660.3703993357035,57.07760303202751 L661.314848937601,57.80313048762176 L660.9703551108421,58.79596679585501 L660.8079813726815,59.06625420546692 L659.8228271207745,59.488271680597116 L658.8745098312929,60.107109947937055 L657.7603824211183,60.46263418184398 L656.4032098805928,60.66002199220573 L655.4039921801887,60.211834721441036 L654.6146328679224,59.820040087617095 L654.3830072409683,59.48462216520695 M668.86325865501,56.53104542430901 L668.9986202617094,56.23113326464335 L669.2504831701699,55.68003059039174 L668.9298702523115,55.71356248425319 L668.7794795350908,55.10063098942561 L667.8462371908365,55.23523707126242 L667.8637684479988,55.16166811001294 L666.8482179846449,55.03525088043109 L666.6209977828973,55.68975206335491 L666.3617473559177,55.80073750377528 L666.156308385267,55.95318527423036 L666.4219502837734,56.44117652910968 L667.196561154851,57.40560177529166 L668.2550955927143,58.369765377075495 L669.2330847608455,59.0339254757304 L670.7794528289089,59.84378279878078 L672.3738341161779,60.4328486676608 L673.5841052455116,61.4390094253089 L674.3629188292239,62.10327652953198 L674.9753568856647,62.562776279558236 L675.1879077067026,62.96200474739819 L674.958301434395,63.397437489323394 L674.498178058398,63.67935138617013 L672.7562335986404,64.18024846787411 L671.1152133395851,64.01526612579636 L668.8750551063506,64.025432599383 L667.3121584679006,63.850327222424035 L665.5574366227384,63.39415528395357 L664.3798656465272,64.04960592761377 L663.161407843213,63.16184132307534 L662.6176846472599,62.4584817364441 L661.934792719928,61.96515343948689 L662.1076719560947,61.89237573129126 M696.9496296488387,56.87573178535187 L696.7436686888732,56.45924963230338 L696.825527528976,56.15694369612798 L696.5717745818872,55.73650209285294 L696.0944763301079,55.24155589242576 L695.4752462226468,55.113632430458 L694.3365798342666,55.30478356141599 L692.7658278396275,55.389185131772535 L691.1649429933859,56.088195696420605 L690.0147450529714,56.90247494361222 L688.2727395301513,57.615145887381104 L687.5140165041898,58.858382700163915 L687.0611619662523,60.06615212782584 L686.6020993529878,61.461436875537416 L687.7543211918264,62.55842533288397 L688.795913202059,63.65754204873676 L690.5726390089262,64.17926172760598 L692.9675840685675,63.91029886991465 L696.0540110750305,63.77808016369903 L697.6556250794388,63.093307704136556 L699.3001522214904,62.89388101610762 M711.2149867015603,56.401313769885434 L710.1302304439828,56.73177917800723 L709.8125303268309,56.51766420680063 L708.7534273190809,56.41421585275 L707.9917256301303,57.72947395733183 L706.8153698178294,58.67279048547382 L705.831452138922,59.94685204695983 L705.163945857455,61.121397773921544 L705.0160321461378,62.48446972098975 L704.9960514354814,63.509636099094294 L705.5760996092331,64.76656935439146 L706.7555455915938,64.93876619247047 L708.1505356262721,65.38203701274351 L709.9163042036266,64.57546312223627 L711.1038164329984,63.6870936041283 L712.703167801707,62.623169559091906 L713.7807790016793,60.95828207862408 L714.274095578241,59.61503373767063 L714.5200279052735,58.27995242273033 L714.4376959066396,57.0191897107311 L714.2327957178381,56.002073664921824 L713.1830108577876,55.3146983352185 L712.5257527839608,54.966151886858356 L711.4460517618675,54.59567164830415 L711.1100269223978,55.32998992590188 M722.3091049812467,55.55160433020701 L721.9561419261233,55.959170260000526 L721.8441500897391,57.055308601720576 L721.7442898644517,58.334125877610404 L721.2971297325382,59.89558796411772 L721.0090557823235,61.4103902952809 L720.6367569372776,62.93191579493441 L720.8524328357421,63.918341809375285 L720.4917717786041,64.44896400520338 L721.0936931230128,64.61533463919451 L721.3321795527584,64.31448918007247 L722.1372795951752,63.04756891045649 L722.800654788326,62.27217456456112 L723.8572329378492,60.630887406153505 L724.8610835426493,58.98159747139979 L726.0975173252107,57.58135526506284 L727.0196961517604,56.855456496098064 L727.7200951659254,55.68579852064697 L728.6928217532279,55.57053506414145 L729.6255881132556,55.43744897842542 L730.4796286758185,55.35400072212766 L730.5853804667358,56.463807728975716 L730.7228053020651,58.12764690262034 L730.794191096375,59.79078915322622 L730.8648923897138,60.799501538477244 L730.3991918156535,62.12214857609539 L730.2501430340665,63.72329564783508 L730.463761364781,64.31436069077819 L730.754237099198,64.74864297991505 L731.161696032174,63.73700970771161 L731.5372769891926,62.9352663004305 L732.6682440489888,61.84770694298192 L733.8783466668374,60.02404718056972 L734.8033879570432,58.54749984973008 L735.9357825023455,56.83831319387883 L737.0082358949335,56.09575277393089 L737.9783198997354,54.93263311099417 L739.1177791381758,54.64973939238904 L739.928253376449,54.31502065892136 L740.4136531752686,55.16037142196079 L740.9570271858252,55.82444101397352 L741.2676797475292,57.168540697417434 L741.3616572107692,57.96138137498413 L742.0189879675424,59.50381323345349 L741.8141661756711,60.39767079640489 L742.5906895018622,61.33689465937695 L742.9235488853867,61.73326873378072 L742.8576333498224,62.45793910578702 L743.349113094064,62.789046270093294 M748.1244801954788,55.791864750727655 L748.6719194649527,55.46938087145249 L748.7118683810888,55.61814696923142 L748.6329732918928,56.23853494542416 L748.6342928192507,57.315614695720846 L748.2254664629368,59.059994195857826 L748.2981225666581,60.57683009558005 L748.0893582539645,62.39895373171055 L747.5376423048538,64.69214705860351 L747.099737200369,66.85979617127099 L746.7958669444354,69.13425278768037 L746.5198429486802,71.09438420827215 L746.6488576655677,72.16512835354604 L746.2139136855747,72.90757446512542 L746.0293623909142,72.69294536749594 L746.588344092515,72.64032871140645 L746.3625263016638,71.4330259675792 L746.7188789082977,70.00966060770976 L746.6789954041867,67.75164324238419 L747.2453904365102,65.94300148435165 L747.874363606383,63.70125568436866 L748.2827329357008,61.30926360975438 L748.8421380173231,58.839351546761435 L749.5118603412195,57.32578005704614 L750.644123997449,55.61481971349789 L751.8199823935552,54.8326744004271 L753.1627277609275,53.810695234203386 L754.7717600994306,53.772504251163646 L756.1685740011287,53.66107241975264 L757.452733350126,54.036735356268764 L758.9673310710843,54.63372055340666 L759.44906331372,55.73171567217933 L760.2638204348809,57.430144732887 L759.7737559801512,58.02884058500885 L759.4792428218984,59.29257876116408 L758.2817059610163,60.234999821633394 L757.3493080159001,61.054249099887905 L755.1122454791721,61.813378480512 L753.7964326900055,61.58655434388559 L752.3017496114835,61.872704484828496 L750.9792958293226,61.26347400465534 L750.1692173531026,60.67567920741846 L749.611239141683,60.256393675237355 L749.8793936166455,59.20991262683766 L749.637419222222,59.0401800134882 M770.1821600182468,57.10924880054485 L769.8659515884324,56.89884956774876 L769.6878464277095,56.41511503098678 L768.7656807077635,56.43427528498698 L767.9166234002573,56.54873285309682 L766.5270534278327,56.3883776862755 L765.4128000753537,56.84128517199975 L764.0235099213114,57.793858485999905 L762.7582356160783,58.72100153832042 L762.2373674859139,59.761807625983934 L761.1734268069888,61.159797717085105 L761.329946568241,62.521193507932395 L761.6320085516811,63.5122800885201 L762.3071250508933,63.86108715182561 L763.2166471121459,64.31994852165172 L764.9399476558613,64.43519214004883 L765.8554791557408,63.79646935384762 L767.5232878574036,62.900876440202374 L769.2484284345851,61.49654774125583 L770.1046950946482,60.15496503900479 L770.918044317554,59.274358650788045 L771.1761948270832,58.05824469511142 L771.6494878399865,57.01734780372995 L771.7288712817547,56.78488041689663 L771.7346846897142,56.52625142793274 L771.8174317253297,57.02095092348986 L771.1014901100195,57.93827350778332 L770.8397374087403,58.933224361125056 L770.6905224959548,60.852184152743924 L770.4520438266734,62.029645464605075 L770.8593727689095,63.619877112712416 L771.4646852995536,64.54119895957207 L772.3881667582332,65.16955890314401 L773.7390983893731,64.98171010381334 L775.4211486088393,64.4889556656004 L777.3191214038029,63.93884350219182 L778.9379021858801,63.15451932015159 L780.2412796911469,61.68283964784507 L781.2698530021698,60.97484306165946 L782.2788305503577,60.41399097294228 L782.5728277860283,59.47327359571563 L782.6921232900338,59.287307802003504 L782.1170598204471,59.44729128711999 L782.1238128472996,59.821473918406454 L781.4501823246276,61.08973113995894 L781.1710961038884,62.921686627277914 L780.6300617696827,63.89875747625987 L780.1087477149908,64.65070752031737 L780.2392810955953,65.3592276362317 L779.8707861299372,66.08624924530727 L780.0484958687591,65.88840052779818 L780.3626149344673,65.38995447577462 L780.4795710814353,64.58207850779979 L780.7849038480952,63.30156309726628 L781.1877475528352,62.022032052250886 L781.4328211202828,60.32936128756476 L781.9596830906773,58.72280083457338 L782.5588000004464,57.50446281553813 L783.6656986927464,56.347508903975054 L784.1989399762863,55.56699096026143 L785.176232534265,55.43175802414554 L786.1615132969707,54.83855061704712 L787.6831883923248,54.953009991316655 L788.2170276412157,55.2890813566921 L789.6616945194999,55.865058333124594 L790.440013196282,56.0792041320002 L791.2311090644239,56.14550529324447 L791.9844562456324,56.82464227420827 L792.653937858664,57.10314218640804 L793.4524208171708,57.250098155337035 L793.8821053132199,56.998350187596834 L793.987800731144,57.28683998011253 L794.4714213855964,57.177498770558515 L794.8120548022473,57.239059322979635 L794.9449575142714,57.2507375756257 L794.8733160850018,57.721099456206375 L794.8337841198495,58.2837993211899 L794.432994240455,58.830083261425 L794.0338552067601,59.87507101964426 L793.9626549587556,60.847010701646596 L793.3390790772085,62.24929735468346 L792.9038484943135,63.323555057315104 L792.9402126943119,64.02730200014689 L792.2830679543126,65.31873396878059 L792.3350380531701,65.61139940720264 L792.9128652329575,65.97778677278274 L792.8027850068852,65.83564241546192 L793.0595668776612,65.14904164336369 L793.581602013343,64.5396491542672 M797.0033462040224,48.56999290331339 L797.0311528174889,48.621985130973655 L797.0963997748677,48.76165731718332 L797.1738726712786,48.93444794400991 L797.2385289188951,49.08580984471426 M807.0276832486504,55.16998938759682 L806.8074332834774,55.010278727518866 L806.3916700589186,54.794185227407674 L805.5630807692994,54.92118538362147 L804.6389597965526,54.76663872702036 L803.9181146765159,55.589482153322756 L802.5872780502893,55.92120806648295 L801.817537445344,56.2972399494372 L801.544996675211,57.33798546441851 L800.8418560517373,57.59222922212482 L802.0002020366169,58.607532447586976 L803.1835945155735,59.107588429779895 L804.7256754283578,59.92668375911313 L806.5236458519651,61.07062789363116 L808.1560558983258,61.76821832163676 L809.535198729001,62.44547435109955 L810.5013487526453,63.08540352370761 L810.9883425796236,63.95602617800809 L810.6195782599102,64.61334045576127 L809.8110699310539,65.34950723062084 L808.8720813828547,65.51083798142632 L806.9304679504387,65.44432279761646 L805.2404472157577,65.21177693490627 L803.1913676257302,65.68441809386366 L801.6018180012704,65.06168761513291 L799.335591880325,65.10404150275154 L798.6659406541382,63.91872487197246 L797.8500433006263,63.334040204727934 L797.9505300752646,63.16646449139844 M817.4869470274753,55.97345306983322 L817.1680260817161,55.92432545287788 L816.5821108443367,55.98661484952124 L815.7256761195908,56.38353379362085 L814.8777385827109,57.06201487818782 L814.3388075145542,57.36008407793522 L813.4177750149724,58.42654412961143 L812.3596772595918,59.39216348947812 L812.4041817757839,61.14626547853022 L811.9292366395462,62.094954081533814 L812.587268195329,63.38607065354757 L813.6662327535546,64.12051289191366 L814.566873917872,64.75737339572207 L815.9403164842215,64.65297725948439 L817.3089343123113,64.13822440464828 L819.0255351293843,63.809863470008786 L820.8500524146325,62.6264576141913 L821.7379266758239,61.42336932452933 L822.3343859755753,60.28607854585267 L823.0343059346669,58.61680144189548 L822.9738783963853,57.7479313750951 L822.2417869645876,56.73619482488068 L821.7874538388671,55.74717712635997 L820.4242592325436,55.4469212976783 L819.2578192365986,55.42556052335937 L818.2220144108487,55.54718791512706 L816.9341564584836,56.40613769296842 L816.4074559342291,56.911327196432524 L816.1591087111883,57.1475222499632 M827.5637757506145,56.20395546806444 L827.4882605909113,56.445744878629924 L827.3665600128934,56.43001051327178 L827.895207912213,56.509733874057936 L827.6854367100029,57.4377142552736 L827.6190372427627,58.519879573436 L827.4065919804275,59.43243776360962 L826.6586270843447,61.04374467085329 L826.7173750513789,62.25450997323548 L826.3767590994187,63.56795938355314 L826.365686304202,64.27926211495006 L826.1782865144612,65.1199369275019 L826.5656508191537,65.22025696329335 L826.7735192480641,64.38928982204192 L827.1737547013677,63.52477491049608 L827.744758166838,62.65666773150214 L828.664934275793,60.971318139615065 L829.6702767967304,59.50306996594168 L830.9955533738646,58.08268092688026 L831.897041120968,56.779991315855675 L833.1333068653262,55.82893020128411 L834.3536188959245,55.350451226612485 L835.7779260596203,55.28143589225266 L836.5018278252151,55.11716591810407 L837.5446144138384,55.50609959922909 L838.1798515497885,56.57551067990578 L838.7517370377709,57.54227728129733 L839.049451479397,58.748693202192634 L839.3010036923804,60.32726441148762 L839.4635203843306,61.7594996235799 L839.4121087462024,62.635349308277696 L839.5325074465081,63.65680345307864 L839.55565594837,64.09711937807488 M857.9215416875802,46.39436618382524 L857.5312880641391,47.16557957589157 L857.8619552853988,48.243572248792894 L857.4741940144283,49.68467678499914 L857.0731941407962,51.65870692229696 L856.6333022918766,53.64510662328641 L856.4424866336642,56.22087953376765 L856.0202532416158,57.994121421067916 L855.7720263541187,60.53114347548686 L855.00809551915,62.57406822482869 L855.3096563525555,64.81410639597127 L855.1085622266762,66.11494979831974 L855.290198546925,67.56293460283412 L855.7915347012304,67.82514375290998 L856.0720631791694,67.57042165264066 L856.3947879404707,67.67202936631719 L856.8484417781838,67.75814582407676 M854.3358105164843,55.81583374536805 L854.5638975597149,56.05054488047533 L855.1774521918678,55.8657603907176 L855.8963862152082,56.42270880621648 L857.5992594189927,56.34654605287788 L859.2501831634006,56.845914082961585 L861.3469682223651,57.37766075512268 L862.5703968156645,57.541210834078655 L863.9748703480464,57.183331124399274 M871.1965195780383,62.53093099240569 L871.6085803904609,62.29621674270375 L872.074629229344,62.15195418100723 L873.3061546303152,61.04523122723014 L874.7796577753318,60.26859438001706 L875.9904059440012,59.210484095999064 L877.0860590077425,58.50811346715623 L878.0601888670374,57.686857392067125 L878.3230894223964,57.1972666273889 L878.655550952308,56.384874760666214 L878.1702256207707,56.04340717527697 L877.3497557295836,55.85042625452562 L876.8936129929994,55.82424836354172 L875.1469346895647,56.81919335063361 L873.5770383330982,57.67693053442044 L872.3575518936946,58.89875495023479 L871.0728456821714,60.022915746882774 L870.3683695199986,61.23605463692001 L870.7577909251916,62.60744163752316 L871.0319392555023,63.8645722152073 L872.2759478957573,64.43557443589944 L873.6959905015649,65.25800864860489 L875.6003451528848,65.05268980071327 L877.1885440115834,65.19243396396435 L878.6440697494097,64.4936898574056 M891.8009496963048,54.9606495869365 L891.7211757334042,54.93455603833695 L890.63247225342,54.688059404547374 L890.2434913166105,55.038646786405295 L889.1413571294593,55.15892431896619 L888.2914189159494,55.76740169477687 L887.4944856945922,56.84331348539522 L887.3208642464685,57.74253035110362 L887.2856796868441,58.558420562607466 L888.0298866804876,59.386931756095535 L888.9291038881252,60.353015596785156 L890.6418814077185,60.93623641917247 L892.1826518038308,61.44758116165059 L893.4256413917251,62.347010568830115 L894.5366015196773,63.17326457117949 L895.3557116581483,63.66812150303114 L895.5080197356019,63.89177193724498 L894.7364331695235,64.70409110367555 L893.7895649732695,64.8900416357845 L892.0708832098071,65.68901381164143 L890.0518506737619,65.56533907850812 L888.2595347800263,65.56584753705775 L886.7978753504879,65.2646989255455 L886.1718832383576,64.72190985477962 L885.3607075774571,64.62250464697205 M904.9557235417017,48.34304497736287 L905.1119125065454,48.36094258325887 L905.3231551823267,48.54628441828084 L905.5032699284204,49.01416180628133 L905.5308578190454,49.837896089728595 L905.3625838932642,50.99492810266805 L904.9932601627954,52.414983492072345 L904.4887435612329,54.013640146430255 L903.9374740299829,55.73473022478414 L903.4174544987329,57.51122305887532 L902.9985091862329,59.27105737822843 L902.7060287174829,60.93089888590169 L902.5601546940454,62.36727092760396 L902.5939681706079,63.48312399881673 L902.7212875065454,64.19399998682331 L902.8581893620142,64.53731797235798 " fill="none" stroke="black" stroke-linecap="round" stroke-width="2" /></svg>