<?xml version="1.0" encoding="utf-8" ?>
<svg baseProfile="full" height="100%" version="1.1" viewBox="0,0,1000,120" width="100%" xmlns="http://www.w3.org/2000/svg" xmlns:ev="http://www.w3.org/2001/xml-events" xmlns:xlink="http://www.w3.org/1999/xlink"><defs /><rect fill="white" height="120" width="1000" x="0" y="0" /><path d="M0,0 M244.83429772529954,45.30795914134488 L244.51700495582656,45.0 L245.18148724543624,46.231988901738454 L245.0029810626952,47.50008358828185 L245.156453833414,48.36012918240332 L244.58452901225743,50.57113256562605 L243.72300379036795,52.61142585149204 L243.3522123486395,54.58317210924854 L243.3958539621953,56.0939734928173 L242.5116388885064,58.833240137226696 L242.74396974002985,59.70178311907274 L242.75081632158157,60.72994190430112 L243.55180734967172,62.06620582788574 L244.72289333217338,62.222069245769646 L245.65766623985013,61.946628142484364 L247.0686072549124,61.96109744471232 L248.37043626399068,61.26656725724306 M258.77819948766137,53.711426711279834 L258.9045392658934,53.60705181325386 L258.1700459593652,53.83650019108457 L257.7653250335975,53.16943457557 L256.2584739841297,53.07563504522592 L255.69981316214057,54.488996059850514 L254.82465121459924,55.13683674272773 L253.3260947534676,56.65485999571844 L252.48800553936235,58.46753140780756 L251.82187184194368,59.89436162269232 L252.2627031688832,61.27759113905638 L252.53458747589957,62.32142376371265 L252.81406969444367,63.245262712495744 L254.1115276877411,62.8731625020652 L255.13812241676396,62.9673204689605 L256.55649125354375,61.08195418582605 L257.25924491755325,59.93708833867805 L257.92901228968833,58.6195112991896 L258.39334100284646,56.53107089531524 L258.8716621435028,55.32342526201741 L259.18238370749987,54.163189687388744 L259.0315298765548,53.61734654544834 L259.448960799216,53.31349927288173 L258.86266406979036,53.63625732074784 L259.45621114841305,54.693541977041455 L258.94234310533966,56.29895887648698 L259.0156429538081,57.43279235708341 L258.4244683082456,59.53287307957628 L258.2707487939517,61.718355634697225 L258.6216841347994,63.27438434772305 L259.1957921294468,64.20818040302416 L259.31723508523794,64.77022742555006 L259.80603429514554,64.4934878638873 M269.91849031161195,53.37598095473963 L269.7343882964569,53.6200357050064 L269.3303954798502,53.56700915953901 L268.95279712216336,53.63409480621936 L267.72807119404524,53.417612350129886 L266.5895793410395,54.57376384408777 L266.23092754469224,55.21078660270511 L264.5165707382415,55.91099494408388 L264.64800567221005,56.93125541884963 L265.18758433834745,58.50118523790723 L265.6409162385997,58.65873546340936 L266.9529433407799,59.91523812756564 L267.88890824450243,61.0901646153975 L269.34966297059583,62.084982918795944 L270.0533000589831,62.26209625404873 L271.0700479342967,63.19936179336764 L271.16107578336766,63.72251916208286 L271.037123243571,64.2594786857761 L270.30894860287765,64.5005408746597 L269.25169346759407,64.9799676739245 L268.2224119220495,64.74054833948591 L266.3303760180439,64.84470852805639 L264.9520238688665,64.03710761235615 L264.0094200514071,64.14134379216426 L263.26688892981554,63.78259161677561 L263.32714860058474,63.69854218742899 L264.13330934059167,63.16214956156451 L264.55382953270396,63.25356803704296 L264.90883826879565,63.05736954805383 M283.31379405260793,48.13483847098948 L283.31139059282134,48.946890088418925 L283.8808008917853,49.64343933724454 L283.1743425534058,50.80716031795964 L282.9963820374431,52.5325354983133 L282.93537003113687,54.17338210416084 L282.45919742471466,55.976354917793344 L282.3891975638809,57.7587133437811 L282.55131000433227,59.75449370769488 L282.67617306331806,61.27956320122138 L282.0710004098132,62.04463210801582 L282.34333840611544,62.03714338320214 L282.1216767557739,62.13200642475109 M277.1924414489058,59.63041068681316 L277.51004994627186,59.15413968470469 L278.6375887579703,59.559737998508865 L279.6796796324042,59.481340524108255 L280.87290693988814,58.89716285809402 L282.41529817542823,58.53928804738264 L284.3971862081898,58.10769914480212 L285.71886347185847,57.72110313917417 L286.88136787219935,57.624906303750514 M303.68246767214674,58.417431939360526 L304.27218741991123,58.7283836554099 L303.478324379147,60.54381350562143 L303.8356703735489,61.92711238233207 L303.7025754195869,63.25338262218505 L303.66864182684594,65.4068451178829 L304.1461988701702,66.11624691041577 L303.71534777901036,66.82653916399723 L303.4087527018214,67.21877921329401 L303.48090236869785,66.22258793886337 L304.0902211442945,65.11071172829385 L303.20965006501496,63.96032024915305 L303.425051399071,62.44063351639715 L303.85264671866565,60.545879315109836 L304.49226584784674,59.06450080471594 L305.306298354101,57.08582924777025 L306.5306943566841,55.82938008185011 L307.36279291050744,54.968603813921476 L308.5413181853968,54.41506474249751 L309.74694974612396,54.965519443651665 L310.40457528551644,55.21000078101204 L311.3013597411025,56.376444577241436 L311.59816191346187,58.04783558141286 L312.1513714710738,59.67320490024245 L312.064825273314,61.49389301521637 L312.576245884442,62.30644999780732 L312.1769234279257,63.07473838628482 L312.39990598334714,63.98119387082577 L312.7715751216517,63.6755423262187 L312.50444405239557,62.89412750757842 L312.7305287955944,61.951851769187456 L312.9110758557057,60.74372298350622 L313.29903523058556,58.400445363109476 L314.18109934037625,56.91939079507056 L315.03149793396517,55.60297817486739 L316.1579633239186,54.020102955585585 L317.14083287050653,52.68151987865343 L318.01600915816033,52.83671502993367 L318.19718362286795,53.35625890448472 L319.5448662404613,54.149442446027614 L320.27603914647267,54.978711123963706 L320.46032948912654,57.07522657903956 L320.8440589631868,58.18897821951968 L320.8964921343086,60.27455485375184 L321.0882207908621,62.10632976836949 L321.0236490765093,62.988113524757736 L321.23791106215384,63.8132766793256 L321.6624436581335,64.16368825835733 L321.6515535974936,63.850990506046344 M329.1050352091505,56.7040091095635 L329.4136596708636,56.89391496102984 L328.97589283781684,57.2382829200915 L328.87378554905825,58.559247236495736 L329.0796165542405,59.89260036549316 L329.06907808665846,60.678654093021194 L328.80150118888474,62.770906391288776 L329.5550009297395,63.84611979794844 L328.80819241559493,64.21904696603812 M334.9451659505226,51.63599005045267 L334.985827543468,51.598227411202316 L335.08421048759703,51.667032303717775 L335.20216779660313,51.806266213651895 L335.30154527727336,51.97978750923145 M337.35178754281014,58.22709978464552 L337.2732751177098,58.55905839984202 L337.8056345557165,59.106807836323924 L337.86092548026005,60.314992596663366 L337.6599383748979,61.49830305628353 L337.2268473324598,63.80695310108348 L337.197074821318,65.3414805931801 L337.07720564433555,66.29859346892479 L337.2367317493579,68.0055354863821 L336.91778072384625,67.79265424299464 L336.70994896423497,67.19959207228774 L336.42318869393864,66.70473582481677 L337.1315345355694,65.49495028659389 L337.6452655938656,63.35770867806783 L338.10242919464196,61.88015611736762 L338.80027670923266,60.10092362224315 L339.69161797509037,58.26921685849414 L340.0553434759961,57.64490936612058 L341.2386164474567,56.255293616458964 L342.04996881669115,56.093016417535274 L342.6821192017326,56.14939559503006 L343.04622878462504,57.15124430664007 L343.9548057840774,58.81006736797909 L344.03442906274256,60.67129298783843 L344.20126400084854,62.539161447183595 L343.71647632561246,64.79356170432114 L344.0566635039099,65.76577225918564 L343.7163255230877,67.06450566841166 L344.2849425776388,67.68500372142893 M353.6832097240042,57.741543677655734 L353.69356056927404,57.86888538377417 L353.7699432220777,58.15230907818236 L353.79106877839047,59.47139090335989 L353.9839346258662,61.012195547023616 L354.15651580575104,62.60709301740549 L354.3394860462065,63.05488811676704 L354.8467722678914,64.98433285932465 L355.7110214852063,65.86190386247465 L355.9565861098742,65.35092947924137 L356.86092986378384,65.42252678496382 L358.0948697679322,65.20243811496368 L358.4353190870468,63.19763420072654 L359.4510692305738,62.120809785687705 L360.0711999529226,60.343660535684705 L360.8688240506153,59.148084842435274 L360.8347483487277,57.07897568730958 L361.312105884778,56.72456181500047 L361.1080363993964,55.94404069004409 L361.3167607787048,56.69649000553119 L361.4518763887377,57.207199895672616 L361.42773182058056,58.71789818004147 L361.17116671021483,59.77686172135748 L361.26218507430883,61.65026210258248 L361.52391684057625,63.81547772939136 L361.7659176399893,65.46311975227036 L362.1450253332626,66.53607542675532 L362.320423811601,66.94635940468015 L362.8010630090471,67.78814600899446 M366.93823875729163,51.28594586420938 L366.95659734629714,51.62344937374961 L366.6823169743492,52.69980124356243 L367.2275355234543,53.38943495451912 L367.21257634949427,54.91657124717779 L367.73759842869543,56.21431135074692 L367.63455091938283,58.536479276744764 L367.6483839168641,60.19196640358833 L367.751281400596,62.52074672461263 L368.13484147756407,64.16757108924239 L368.6796239228098,65.96065203676726 L369.1422315108703,66.30562588073772 L369.2891523005364,67.00685388549044 M368.2234313453475,57.30936532572789 L368.17687745038893,57.44482962789662 L369.432372416902,57.76272125280493 L370.5313660366986,57.819619735115154 L371.53441071728946,57.944112662064626 L373.78652775333705,58.00227779272273 L375.1879662423717,57.957449257092364 L376.92399024349083,58.39051390162382 L378.9886531929877,58.13539166399155 L379.86418193523104,58.14665776829846 L381.71337923237456,57.39462139587914 L381.70456573843126,56.73962243528419 L382.3072329396998,56.2511014570624 L382.2887668485065,55.53126342060058 L381.92638968444146,54.419502097057595 L381.0165057464201,54.69771902006042 L379.70389143518577,54.50884346139997 L378.9700936799039,55.137353583086515 L377.86941307206894,56.27293133870746 L376.89656309979216,57.158082072160994 L376.2313537132022,58.25519162785173 L375.94953980341626,59.93032221148461 L376.81447559028163,61.35366514762189 L377.46151200747533,62.953347133890006 L378.60162575419577,64.23584849211424 L380.9088744882939,65.05292041899038 L383.25128838230796,65.6545103257874 L385.40220933483306,65.03556418084221 L386.72749233574905,65.31564691733902 M402.637610629077,67.31612357914071 L403.1714458886247,67.00696617104374 L403.8374649143206,66.07210123886145 L405.2197428012431,65.30016548416907 L405.97359536508134,63.13701798032106 L406.52766350834975,62.51551560393027 L407.07743022761974,60.78288482516364 L407.8125569953839,59.21064063892674 L408.0038116160351,58.19972071885979 L407.9100960480888,57.28233454330767 L406.9196830065409,57.488423705123104 L405.7575747205772,57.49269006699293 L405.32727571683427,57.848908225973766 L403.7409015636722,59.444734256363766 L402.8564484614483,61.03808932123784 L402.49344360115515,63.4166163255089 L402.11506056336896,65.21184749988778 L402.0893601793646,67.02548175257188 L402.4129338529302,68.08888136257787 L404.20419121544944,68.90228783830476 L405.82271725265,69.69078551434295 L407.72452629030744,69.35546222524887 L410.07817331016753,68.53981213899998 L411.22840366388687,67.04213492289838 L412.480245765322,66.57835501456549 M421.7170102182778,55.611482102285144 L421.7975723088058,56.013648733890506 L421.83790584396036,56.82541526539654 L422.2318248706507,57.61905353167697 L422.18890228232056,59.00333427609472 L422.6631744300203,60.54825304732891 L423.1854031090925,61.242833633246235 L423.91680026996573,62.86640791022627 L425.02729646631144,64.26213209460303 L425.72867352384594,64.70856795380483 L426.86888523570957,64.9208530072339 L427.76857313930407,64.85603448606986 L428.0933419651185,64.65297692250837 M431.25474460796613,62.61645098265312 L431.60250075742147,62.67122804142627 L431.38415773059074,63.065181164275714 L431.1239906435095,62.477998862809 L431.3953826574641,62.624167367123 L431.35017671416136,62.83493936347971 L432.1269441255441,62.633309038792575 L431.2461546002979,62.70638041070741 L431.16137173718516,62.93995572458084 M441.48684406243285,57.21904594552573 L441.45477533246196,56.721189022616024 L440.63196257555234,57.16081050019739 L440.1834069616699,57.07793056973551 L439.6925466508354,56.57916652030765 L438.55914687123743,57.83995156895542 L437.20485150137824,58.27170858721058 L436.4874698304303,60.098231858101286 L435.41206392343963,61.63094967111903 L434.8153716788155,62.66688332245483 L434.530479261306,63.742056152753975 L434.5140641440529,65.51506705243592 L435.3114926166762,65.42566631059208 L436.0930883954404,65.74555045728586 L436.8094583055419,64.97507114588323 L438.12459360012394,64.58403557611182 L439.4686569479466,62.869542777234365 L440.39950920323247,60.98869776148498 L441.28802081878393,59.35713886385748 L441.9137046333808,58.15830227555541 L442.6082025467755,57.00292335504557 L442.68246419533193,56.263617874922545 L442.3285050489675,55.739633088334664 L442.56456794458416,55.87564409767486 L442.8793962354939,56.25379578216453 L442.445555177299,57.8597879610995 L443.13999524123415,59.27904980301188 L442.6773114483958,60.51288783077295 L443.50564828338065,61.983839176434174 L444.05671811963396,62.85493550260716 L444.77353804452326,64.2189282646686 L445.40362583103376,64.3273965526121 L445.7118257683033,64.69950190958208 M450.09376369113033,58.6459574318779 L450.03661483682833,59.01592141236306 L450.6158570607645,58.81266090364154 L450.57647892987836,59.86537551512832 L450.6751189751319,61.661519912544804 L450.4299492593597,63.34563644177366 L450.87017468004467,64.36893039598488 L450.86178758551455,66.16042764612718 L450.7453894370821,67.39429887935498 L450.84264796963896,67.2513713283912 L451.23137479629884,67.62350303739922 L450.8454810558002,66.53525448963089 L451.5962638092855,65.37406181724442 L451.6825652600542,63.66115939082785 L452.35220719131456,62.06990052896071 L453.12589817840615,59.64707185294563 L453.3740891905991,58.89152495413897 L454.32397893840107,56.96954900912392 L454.7803015394011,56.1317454427525 L455.80947568807215,56.01785702701999 L455.4260206004657,56.7351680211077 L456.9833106429804,56.859145792564455 L457.51331743546586,58.09898469367227 L457.3769639846932,59.75129487002172 L457.68786622617137,61.39331230213475 L458.32870040478974,62.96063851720116 L457.89082437687307,63.862770482376646 L458.0185738383527,65.30885531289924 L458.0820148090686,64.96363505564781 L457.90786819096235,64.9816907981721 L458.76461235084963,64.21971183845102 L458.95257368557304,62.35504108095292 L459.5588271721564,60.74868309987596 L460.5123851379615,59.252805461761575 L461.1942391047729,57.521282828835105 L462.4188379720782,56.66532070984554 L463.68182982799874,55.55574153545574 L464.31089769637265,54.93842722946091 L464.93673346083864,55.178036581416734 L465.26329903054136,55.6669964749743 L465.43437249262905,56.2786737548535 L466.19465834433714,58.68743620608255 L465.9526239799497,60.15423318603441 L466.40045808414277,61.936758261818476 L466.4318554639987,62.46725022977007 M495.5536031207125,56.13988545387034 L495.204074612748,56.27330206962039 L494.5026027911508,55.65172825712742 L493.86246723182904,55.627888325451416 L493.37350479703105,54.7357127506704 L491.60530450146723,54.928436359501646 L490.10735064845323,56.144403265895974 L489.52458583246363,58.054247496437426 L488.04946050399235,58.792602755329476 L487.9482746370868,60.22580028928557 L487.6937843127781,61.32544350502385 L487.2701754672609,62.58123062144346 L487.48356315071976,63.25697207589113 L488.25232669278023,63.90376026133121 L489.62713488468455,63.745795285873065 L490.8277080652075,63.24706746374461 L492.1048659348984,62.40010529518325 L493.50500304218224,60.38680087317696 L494.31127573863233,59.3615565891351 L495.08814801038875,57.917254650657995 L495.24738365715467,55.99800131095639 L496.15703818735375,55.83262716287606 L495.94194522064265,54.69353922935818 L495.92145473576124,54.192227190873886 L496.22273617707026,55.09229366933532 L495.77331149045,55.30935284878103 L495.7263568709316,56.42324598507474 L495.7392692469403,58.727632262424635 L495.2688589380374,59.37033392234526 L495.6230182505277,61.823583091005844 L495.66894048862656,62.659306456067334 L496.29393277851557,63.537267648964516 L496.52069870757623,64.27457739637039 M501.07629647174963,56.40026180055505 L501.0911758203808,56.787839622603016 L501.17985177202746,57.09862194905692 L501.5437029011861,57.22417456873529 L501.3877641246487,58.89989887330877 L501.101951899763,60.31493798605338 L501.16923720692995,62.33558276410842 L500.878598753956,63.43008997373202 L501.20526324709516,64.81071418732984 L501.1835224984046,65.6217851364168 L500.6532500860078,65.79217458303977 L501.3149926802739,64.99976199767505 L501.22724265956145,64.48145030084001 L501.1270717300866,63.00689059085643 L501.48127555802733,62.224487890168476 L501.8774656275735,60.44507004444161 L502.34758769133106,59.28608161062795 L503.165024086318,57.25228717959201 L504.68864445821987,56.243542982827265 L505.51586871078325,55.35355140243001 L506.32001919531905,54.98765187954294 L507.3386495389059,55.14630426822097 L507.75448987202833,55.92142224839622 L508.7619085334815,56.70414429516265 L509.9564349076882,57.53838148768284 L510.33106077999463,59.13379122513446 L510.5062304610548,60.71760583655011 L510.59595227742875,62.467397203508064 L511.2441174231213,63.89658748574076 L510.3962973250691,64.56168983152591 L510.80584474158985,65.4852909821737 L511.4345678094635,65.33863099847028 L511.6954023642975,65.23497265304759 M525.0251385113471,55.808343286013184 L525.4120678842219,54.87001997185709 L524.3828971681919,54.568679415004354 L523.7037348705178,54.534145524825085 L522.5104186405596,54.57680321941871 L522.564450057941,55.12412558333209 L522.0265055542716,56.28502941873621 L520.9446670281679,57.52681489862475 L521.4106099455412,57.897888499341974 L521.382581996201,59.4941361340374 L522.420681300995,60.670640915239154 L523.9145017486571,61.24226846304238 L524.5085338555127,62.91880483117064 L525.7369037084411,63.388034066785934 L526.8202427958631,64.65091159932396 L527.7670599184648,65.0519356039806 L528.021270431033,66.01993415340726 L527.385461283923,66.54722346198281 L527.299078432776,66.89610419143582 L525.6763183749856,67.14864409161379 L524.6885707088402,67.31902128143486 L523.1408264983345,67.40897921516209 L521.8900860668646,67.65826229155101 L520.9084850183422,66.89834841165073 L520.115222973219,66.05142849900001 M539.0947411452431,54.79880033465988 L538.6628266082191,54.41554029876768 L539.0229912948512,54.84844508675424 L539.0816833238164,55.21653421124556 L538.937066366,56.29536563868176 L538.6869309918952,57.61664875685222 L538.7840552771082,58.591528493593316 L538.4423330054171,60.04300849687369 L538.7450412078033,62.04071841592423 L538.9712706991506,62.38977371771469 L539.4739988276895,63.14878001002196 L540.2528119532367,63.408414619260206 L541.0474602110471,63.45280815619963 L542.397460237607,62.81198987468764 L542.4890960343464,61.5471789439141 L543.7798363003909,59.58050758668886 L544.5777138761662,58.291934378615714 L544.8193928408239,57.492242820689256 L545.2656450815175,56.727261973397795 L545.6657048915592,55.82264804541314 L545.7700631959475,55.70961221307938 L545.0565741995541,56.06637071403917 L544.7659362418362,56.157490890192996 L545.1056395196961,56.59885641857363 L545.4602477498884,58.13316609514261 L545.0579097690771,59.78419135166921 L545.3590462354591,60.81250403846876 L546.1691414471063,61.57465158697588 L546.6239165720847,62.59174362678369 L547.0027768439907,63.466170062221344 L548.145246601613,62.518034410883715 L549.5262511970352,62.55478222243543 L550.044099434619,62.09743302049965 L551.202760327111,60.89075966569169 L551.7658322056201,59.64821014936031 L552.8519030861846,57.87876511947529 L552.2705346126958,56.45505276673387 L552.7016882118946,54.83192164898987 L551.9939529306237,54.06983550845598 L551.862404574787,53.073048705313944 L552.0919596836825,53.06952708089804 L551.7459570244976,52.45969582642128 L552.5406433361538,52.776015064360905 L551.8292131645442,53.22745176321609 L551.9803486743787,53.614453368826005 M554.5552344807115,60.95709997712364 L555.1836283416683,60.33175139715715 L556.1468060786915,59.6858926791381 L556.4767609336009,59.02117837154306 L557.4628701166594,58.11265610736172 L558.0931335655719,56.791652076340604 L559.1346970434756,54.93610755843052 L559.4128612227869,54.19239086385276 L558.8078381527562,52.47502305881634 L558.7775808445426,52.67939877072088 L558.9756657394241,52.243930672451924 L557.5610402390625,52.196716783757495 L557.1200881335894,52.67412425081194 L556.1725991587825,53.483618971323395 L555.4757169975393,55.23012615573993 L554.8081199489151,56.422555430207545 L554.1978027075681,58.3888437592344 L554.9699225976269,60.05640661959053 L555.4064880460185,61.77219655375271 L556.5178846599829,62.877965698129174 L557.8574829246202,63.173161092654595 L559.9213732571061,64.10734525580571 L561.6591175924159,63.206367706286294 L562.9845288213821,61.90462031148402 L564.2335683983505,60.909598476162124 L565.363449297968,59.06101025723998 L566.075745425867,57.49050051972304 L566.2993850151801,56.36212613541633 L566.2951802499892,54.96013309197473 L566.0396198715491,54.5165189431479 L566.5434358880025,54.24144298431203 L566.1913230261484,54.426654835001344 L565.6975112245295,55.52604303007852 L565.9809038988567,56.42457736226406 L566.3960915093885,57.72496609040258 L565.461298503254,59.04457102198479 L565.8276585674048,60.24047552318867 L565.5454846991058,60.93387290870911 L566.6411901718081,61.78231034758484 L566.0427587608536,62.823860862965574 L565.7970384084168,62.42363749711939 L566.3397294665469,61.8935695409243 L566.0984693737562,61.26292076329605 L566.0456980124093,59.49059587969624 L566.1958044601727,58.361627798602406 L566.5026128840377,56.45418022546741 L566.2850666865235,54.82404859368012 L567.2684426391723,53.68499596616543 L567.6156802956641,51.63139105759747 L568.3037880909524,50.62003054532654 L569.6430832578371,50.23172492386377 L570.1549332700574,49.69400781089086 L570.9497748067317,49.61747040068238 M583.8492184598617,54.373137668178394 L583.7398547151429,54.14783332883776 L583.2156103418033,54.0697070187777 L582.4064230496547,54.02950626337254 L581.1656799040668,53.81424853307782 L580.3630102791865,54.31561407358716 L579.5275220379845,55.22823812835698 L577.8134968191589,55.457616456802334 L577.7504616667788,56.694209649280076 L577.335235824788,57.44971364324835 L578.1677574904721,58.56782034714293 L579.3204602623127,59.00250963505123 L580.3301860908987,59.91324722716961 L581.3765861495551,60.65175785995956 L583.2567876241569,61.358794699582404 L584.4402642349916,62.507640387292014 L585.0513769866418,62.653388442714444 L585.1939383452741,63.74375990032349 L585.3121331762236,64.20862258684195 L584.6442581382848,64.40388338353334 L583.1159285570615,64.59655020827115 L581.7707249938742,64.85361490616202 L579.5521550324802,64.8909764792634 L577.7959620199847,64.73244031643662 L576.9703551065209,64.35157711044157 M609.7777175326067,55.275720585430484 L609.6962754941263,54.96812851586908 L609.4227151062464,53.91636686799714 L608.0805324800265,53.98892617419573 L607.6738954668756,53.698506196314895 L606.5397610997952,53.34566173770254 L605.3502033914965,53.47779799682334 L604.1741682196903,54.19478307172317 L602.7893688937866,55.332047312799325 L602.1238579351163,55.38183676985208 L601.5486286788862,56.48538481918782 L602.1687071730173,57.7275559234484 L603.0703521329119,58.760749189937584 L604.2920627394799,60.17203577728247 L605.6392994862492,61.2343968553608 L606.9933125637913,62.1949982489325 L607.9606189260767,63.35007034916492 L609.1146016026914,64.17195517862488 L610.028312969615,64.30545528398657 L609.7433092695113,64.99812756372282 L608.9113091135024,65.07695152992335 L608.0358912543466,65.23503347069345 L606.2236425904355,65.40879628345107 L604.3897485182031,65.37938709740267 L602.4597868687777,65.43933570057759 L600.7983322861644,64.33917123693834 L599.4666875623606,64.60287748947538 L598.9540454612006,64.46929005368096 L598.4326179495486,64.7148906411616 M623.7158695530325,53.01095167738091 L623.1847568079495,53.10633232157558 L623.3203861105594,53.443166214028984 L622.0086984694656,53.99967476753465 L621.5114108389869,54.097637023373835 L620.5320420739138,56.045817840964425 L619.616699962465,56.97697877691163 L618.9105298121834,58.697254497750066 L618.2842886236517,60.572276024725916 L618.3654760763857,61.31676598433282 L619.420401979269,62.966955528895234 L619.7081374964112,64.8175429381728 L621.6115486762475,65.84812334425183 L623.1797486407364,66.10793129511445 L625.5262473382143,65.09325302087476 L626.6430884292283,64.37092977274938 L626.7236953733152,64.33985169623378 M637.24538543985,55.17054724718172 L636.5650710488586,55.64094588801148 L636.2444712888273,55.33003852107114 L636.9688718224509,56.0731306397135 L636.8842521577952,57.773502621170614 L636.5834128618519,58.17661045109752 L637.4361012624997,59.52826145285808 L636.8357659914457,61.55496333051566 L636.8069530971297,62.88483913297575 L636.4715583281552,63.65347086845566 L636.4433744239107,64.26495825140044 L636.1083337506755,64.49674941767373 L636.2177782220033,64.73733871794026 L636.6232454409956,64.55016873774328 L636.8470617602702,62.96756170171126 L636.8226441117316,61.99281638295311 L637.2841300907373,60.70264201781706 L637.3689290096395,58.80157582926669 L638.0821191189568,57.39278301569196 L638.7323847046923,55.828224793058254 L639.4424978568522,55.331080831520225 L640.5076111749024,55.16289875382382 L640.8729722492826,54.2155569262573 L642.4096090075669,54.33035878744686 L643.8173163876165,54.70354766493212 L644.7467628750051,55.32458797348923 L645.1522178729488,55.55477579344726 L646.1115209546354,56.34693295854664 L646.5864944517753,55.85362675246129 L646.8516273196522,56.499260126504225 L647.1057333945969,56.44553953934435 L647.3360683465797,56.708730506904814 L647.3222653424416,57.22385800014527 L647.2534679520879,56.42624121494978 L647.48642383252,56.42138845831802 L646.98248762508,56.738599781184384 L646.8323785483908,56.54165291954389 L647.1123441141108,57.29436442230865 L646.2514222689917,58.317665174312125 L646.9859226909463,59.44424903669513 L646.4970516784309,60.18045036593591 L646.2276770670069,61.20168037369055 L646.3273781373598,62.8037005771781 L646.2637988853323,64.1588091675294 L646.2091960528772,64.37146050044677 L646.4036555978782,64.50380590165688 L646.1759800492143,64.4325300301771 L646.2707238608401,64.2329206965503 L646.4632579970502,63.99501947214161 M647.6937091136175,49.8006876078412 L647.7016020759188,49.73295493054609 L647.742481911172,49.679070766561516 L647.7991038914856,49.6530836553076 L647.8541156746383,49.66907714210641 M654.5664102516075,48.3151526604659 L655.1263660135648,48.208067576598765 L654.8438787314258,48.97377842175123 L654.493306623697,50.03875707866928 L654.4118078185735,51.30132116130039 L654.6508478463721,53.44532746661034 L654.6005760234162,55.489120154980775 L654.7809020393684,57.29195889901807 L654.6828275879889,59.963315597462206 L654.3601286460616,61.6516783278088 L654.7206570670606,63.67521102064975 L654.4511919928162,65.11104449062772 L654.1958133996493,65.5364271860586 L654.7446255932205,65.8045875502327 L654.9300160926347,65.61298195255662 L654.7046556043599,64.45216535571527 L655.2407281926945,62.77701108915467 L655.2897895981117,61.26413139508717 L655.8511329115904,60.2235347308793 L656.7231140242661,58.691757633520375 L657.7140065125566,56.78895444311697 L659.1253182170158,55.46659136728741 L660.1890052021351,54.31180325585292 L661.6609592157174,54.49541743256061 L662.8395519288022,54.628303496114505 L664.0165304360642,55.0718454117227 L665.277765447855,56.30902706220137 L665.2916878588283,58.0570601119904 L665.7757938424425,59.58952327450186 L665.1280294587948,60.89620593714184 L665.3003205357563,62.06402506549631 L663.5309773834265,63.10912736709746 L662.1160875634041,63.992469782886076 L661.1304063227552,64.50408558258032 L658.7510525944331,64.66863405898599 L657.3587462556998,63.6920946039896 L655.7085865762105,63.896268130834635 L655.1263734574194,62.276037067153986 L654.1478066072398,61.42632241996518 L653.7258494325267,60.532757576843686 L653.9620514521087,59.446772421583894 M675.0026452556951,48.964115786848026 L674.8850242269846,49.214606080439665 L674.6816597861612,49.563206864560534 L674.9985988172434,50.02595553067772 L674.661784808238,51.6011380577943 L674.458140702847,53.436082187063874 L674.2160324431761,54.86689245706234 L673.5499758525683,57.477301730196714 L674.0745846388584,59.32277680267794 L673.6030663050844,61.139746010507 L673.3574858826258,63.06471992600833 L672.8986093038259,63.66389426269507 L673.4353686009599,64.54483925188498 L672.5772668097368,65.04528432949512 L672.8189619215079,65.17826092859534 L673.2414933083265,64.34064577074211 L673.1625117817289,63.438412130319186 L673.9653488539527,61.99389594013548 L674.2940798618671,60.0585288767602 L675.2054652064799,58.77357971184516 L676.5247337977323,57.67701649422397 L677.4179205735863,56.4561490926457 L679.0403318444953,55.79297373198455 L680.3878143894519,55.18207680389649 L681.1650609568258,55.4595067790483 L682.7461395035505,56.95170043854595 L683.4572195924428,57.009888249879204 L683.2128759271513,58.85651735953236 L683.3133601651575,59.641598056863195 L683.0819274913677,61.59972713518004 L682.6994779622871,62.920586978832674 L681.1799329271648,63.76031025634441 L680.1025908019069,64.12569227639452 L678.3781424537328,64.58512898363144 L676.9448919058082,64.84725283686387 L676.9409094966734,64.50310373646217 L675.1690066038655,64.23838859976172 M693.3815248003273,46.908191319397474 L692.9522903598606,47.86312339623613 L693.064647646889,48.68893145628387 L693.2526880709711,49.796402716652544 L693.2759161426495,51.55398009167511 L692.6571332934334,53.489649270820635 L692.2685560512846,55.27543630352771 L692.0834224821681,57.888215790873105 L692.1821615467761,60.09301971804233 L691.5490887374642,61.9989787413464 L692.0195949790124,63.301033644819256 L691.7642987102952,64.55845399658818 L692.1982583867648,65.32155211501912 M698.7541569186305,62.96117257481113 L699.3359034352748,63.08313788769673 L699.9180861779294,62.23264009313282 L700.6886154347644,62.315826291526164 L702.0444260312129,61.45581368899131 L703.4416770696357,60.750974820687766 L704.7789806172796,60.773354350482514 L705.253208114216,60.070172003344965 L705.92672543081,59.046165137655244 L706.7638857779652,58.313371825170876 L706.9299327804861,57.73713395445232 L706.3462705623621,57.445268098131876 L705.7278855523548,56.539042624779235 L705.0745053756511,56.830333727935525 L703.5318443555295,57.22064903168747 L702.4062835520133,58.06398717623585 L701.1005099808108,58.70815744876159 L699.9968931494136,60.154685468184454 L699.8519445994325,60.72329363478815 L700.2929520041625,62.41599993652775 L700.1351804614976,63.700621194336364 L700.725642506218,64.42417001121729 L702.6644148541645,65.68344129174925 L703.7936219894466,65.96341479166009 L704.8215560727026,65.87083344191994 M715.8834768940176,60.479315796911216 L715.8065840586025,60.00716708696804 L715.4893966546829,59.796358773721145 L714.791055841341,58.77565974075564 L713.9325143268206,59.16713226244424 L712.7662935926367,59.36452623286098 L711.8925317108824,59.32603661022261 L710.6236854635804,60.52923626333618 L710.2020293795022,61.29702747627801 L709.9429516030189,62.322271087232686 L710.1856647244952,63.441642878630674 L711.1645489629407,63.493805912714414 L712.1748665288391,64.10840753494995 L713.4146248347924,63.87870409849334 L714.6428226644097,63.51513432355761 L716.6783509927466,62.31283619787151 L717.6058873770817,61.373247310923645 L718.7015846974163,59.55900199997188 L719.7063992698316,57.43805436674678 L720.0366101891874,55.54666748764206 L721.0316484891458,53.60960286631108 L720.6127889139785,52.43673768107818 L720.6253475694165,51.66805406738174 L720.4798907375936,50.603433957076454 L720.4609008127404,49.95791560072783 L720.1958754924726,50.40384676068802 L719.8851743819175,50.770586289519 L720.4416355098105,51.39396658860542 L720.312744964132,52.96771944326862 L720.2633656557429,54.26788187218849 L720.2998536374013,56.61737279523201 L720.0653717627963,58.41066718929787 L720.6479341917218,60.90708801305243 L720.2586211856691,62.80783863948181 L720.0432314586924,64.79929419018214 L720.1674988458066,66.157112982144 L720.36582757907,66.5377015329739 M740.935523875608,59.96568076732638 L741.3935896305774,59.94070336043368 L740.7175912667723,58.99376109997663 L740.6062312131154,58.132924135130935 L740.375853672231,57.735686365555615 L739.8437313155921,57.200233539273114 L738.5813180583019,56.90382618908172 L737.5225427505236,56.91380879287691 L736.1657151676393,57.43757581280161 L734.4515698392294,57.99099776150869 L733.5165279386601,59.02313322496921 L732.6165815227923,60.37012546773365 L732.3846976761798,61.768416182850345 L731.7648910480698,63.185061460345 L732.4062651004942,64.43292862514164 L732.7600497205298,65.3945334650755 L734.1398638544692,65.88917182634474 L734.8596853918438,66.47646869639918 L736.8275758248558,65.25859783910255 L738.538155610596,63.63227759926645 L739.8339241494964,62.24463782762179 L741.4592443994061,60.386148184440366 L742.4574209316736,58.20574523171542 L743.327147751225,55.487343504872364 L744.2585747872316,53.39035490973247 L745.1002804480672,52.01580070863997 L745.1477408728558,50.90469651132021 L745.3269651987383,49.188404399001854 L745.1177247431863,49.23795302995507 L745.4052012987908,49.529038718278414 L745.1624649841164,49.640438729792216 L744.4688561852553,51.90023555517163 L744.1791847319594,54.00163213222762 L744.1417621329233,56.18466303986871 L743.681742699104,58.91769498442 L743.7412585058981,60.96123901087193 L743.5755393533353,63.33666973884457 L744.0242487663307,64.95872100474558 L744.6234120860236,65.73760260270001 L744.0683244243879,66.63545045037073 L745.3217312779383,66.0954783189081 M759.2555428450218,58.50436096591879 L759.007802064697,57.90914896363921 L758.8782980562585,57.470947288602964 L757.6058365967688,55.96455710655803 L757.1288523619666,56.63302306380478 L755.2094656526748,56.703574154798154 L754.5277295371792,56.74269474450284 L753.2931597871258,58.19415016838479 L752.8023900108307,58.92547197850526 L752.1263534801168,59.86212031464651 L752.6448657185963,61.17778599504329 L753.0430711343447,62.753100754371985 L753.7375773605961,63.61201101203642 L754.7831671791647,65.0317825666854 L756.5183617824222,64.11379315169893 L757.7057462436748,63.40003767871572 L759.4318024447052,62.36034492525433 L760.3426461124234,60.8293236611863 L761.2118719527476,60.164573969366884 L761.3459881710819,58.79858917064605 L760.5002062254,57.303516949257485 L760.1646836426271,56.74951293067015 L760.0367058895765,56.20810462353232 L759.9219365225125,56.37980471199144 L759.8718211081185,55.62387062929208 M766.1413072474865,57.8862585512289 L765.7591816131877,57.45905581677836 L766.0337045498837,57.570602929930125 L765.6633628478313,58.529964724375425 L765.9862239722931,58.253167502386404 L766.180005333027,59.251201569207936 L765.6784592931607,60.842672314688976 L764.9584918407608,61.32846381926465 L765.50052893863,62.89000140565291 L765.7803010376344,64.53631855903447 L766.0764213896872,64.61419893958303 L766.7776652713028,65.7919859707986 L767.121763195674,66.11712567588536 L768.342176814377,65.24408727154027 L768.9890332980771,64.99313575377731 L770.0534235999821,63.86219433416273 L771.3228923446505,62.678436510094926 L771.8075628593963,61.17061735745061 L772.8008489977243,60.04167398535284 L772.5797177663153,59.31117762221392 L772.5189815414581,58.70180645191478 L772.821892728015,58.805153117830706 L772.3229730210791,58.98001789595224 L772.851592228323,59.535498872435994 L772.6828737637643,61.06087248776653 L772.2048948912472,62.191213932275836 L772.3731701877633,63.03933472818077 L772.6949859197496,64.71534908664107 L772.9917913368095,65.61983213194875 L774.0486329776433,66.10055130979565 L774.2081473201148,66.43415228948061 L775.636345113006,66.46709679583597 L776.880775456226,65.6611884412833 L777.6116875570345,64.34559212044677 L778.495285860715,63.504409712691896 L779.2908340673345,61.7743078394088 L779.0461359681894,59.99845841936908 L779.322929413863,59.018051089770196 L778.9291017491937,57.48603846020303 L778.9463321280484,56.96621212760454 L778.5458932463227,56.74058904770626 M784.2481235625661,56.51899770501335 L784.2952732207692,56.74671844247062 L784.3388523223317,57.238796508342816 L784.339157498113,58.033559358150555 L784.252731716863,59.08019105199058 L784.0755771758473,60.29367676976402 L783.8443454863942,61.56126848462303 L783.6326450469411,62.766565120250775 L783.4924167754567,63.79413012269218 L783.4442295195973,64.5488279223748 L783.4875644805348,64.96047667267997 L783.5923008086598,64.974025046856 L783.7626804473317,64.56466654542167 L784.0395359160817,63.75167874100883 L784.4502109649098,62.61151293519218 L785.0081333281911,61.28388456109245 L785.7364353301442,59.91919242444713 L786.6258701445973,58.65098730328758 L787.6913608672536,57.603617227108074 L788.9000095488942,56.8583503127404 L790.1670993926442,56.46557286980827 L791.3851474883473,56.461333787471844 L792.4502720000661,56.82937887910087 L793.2876133086598,57.55003288987358 L793.8940586211598,58.60694948437889 L794.2650913360036,59.94629812839706 L794.4261325957692,61.488903200656964 L794.4311374785817,63.13765219453056 L794.3522495391286,64.79004744294365 L794.2622226836598,66.10457781556327 L794.2100681426442,66.92947796586235 " fill="none" stroke="black" stroke-linecap="round" stroke-width="2" /></svg>