<?xml version="1.0" encoding="utf-8" ?>
<svg baseProfile="full" height="100%" version="1.1" viewBox="0,0,1000,120" width="100%" xmlns="http://www.w3.org/2000/svg" xmlns:ev="http://www.w3.org/2001/xml-events" xmlns:xlink="http://www.w3.org/1999/xlink"><defs /><rect fill="white" height="120" width="1000" x="0" y="0" /><path d="M0,0 M293.1574076569324,49.502978000316084 L293.27050228373105,49.49400224820289 L293.24257235885455,50.03213307694078 L293.0626649781363,51.330671951165954 L293.0742403434301,52.90602217711797 L293.1461032668051,55.452758704221914 L292.88503218515706,57.574171189028576 L292.73019589300344,60.115522215614476 L292.2320801052559,62.27554417531659 L292.27046964760046,64.14543623308717 L291.8110089421537,65.47395490819117 L291.6602738335929,66.28799623988267 L291.76064046926706,66.48994192427955 M289.4740352621816,48.71578176765436 L290.00431041793973,48.05329094837412 L290.67317109496787,47.52162198317081 L291.7832072339261,46.24198631112631 L293.0180621171441,45.77618182435081 L294.75966791620965,45.47882225113935 L296.43757627993017,45.08412948553794 L297.84927134879007,45.5467259483142 L299.7161832586463,46.13106139599393 L300.6804259215293,46.89691968658263 L301.21361378446045,47.930024486403624 L301.00047640121613,48.94017607061181 L300.76362984357655,50.46894057760718 L299.5551289387041,51.768543404516535 L298.0418182479536,53.359505433590606 L296.8016049260717,54.68317599354756 L295.1428142106055,56.0645253701305 L293.9352855412724,57.075663967252495 L293.10087927640654,57.87871399347416 L292.4242321802858,58.71978083907554 L292.76318159608536,59.43913952165481 L292.9381650909484,60.21877816546498 L294.13709740969796,60.66703001614061 L295.0412630469668,61.52294674639292 L296.95362884849357,62.22353529195581 L298.0003837557781,62.74647743556503 L299.57270482319984,63.205640773351206 L300.81888295093876,63.12761613844426 L301.34318818190275,63.724752242965515 M304.7185814136094,54.82892738626577 L304.58106515333395,54.92600637859708 L304.69408466266106,55.03345770845755 L305.082008104057,55.873240483632465 L305.1324715788842,57.29221307598908 L304.9060810304717,58.19336566613693 L305.4395913209736,59.69702264044245 L305.47335341405295,61.28007562719249 L305.4895257503071,62.51882837901811 L306.115314513291,63.6216589557461 L307.07110171518434,63.78131892773291 L307.5494049863875,63.55035954781996 L308.23153739864017,62.504089637864794 L309.1254300807406,61.20282351729895 L309.56371603961475,59.18721953474203 L310.1871662297483,57.83705930432328 L310.8555638272788,55.55584091893741 L311.2814866275292,54.30327579203273 L311.2605171700594,53.332377221810944 L311.70926582841446,53.16572570435731 L311.741351888615,53.53689621080943 L311.3250136015489,54.334116177710385 L311.5462703579675,55.47275090438879 L311.81374753395625,57.35730194848052 L311.6546264417533,58.84051785953411 L312.2366848309234,60.455926571988094 L312.7830493479287,62.249617677416396 L313.1730765321814,62.76339269780935 L313.4840749001058,63.35922018330548 M318.8213277557386,54.26728409424386 L318.63978254193535,54.09029895023343 L318.5922711484878,55.14000836119554 L318.56355215394194,56.70965477699425 L318.8298404008948,58.07256931585692 L318.8684290013239,59.536017217851914 L318.45979797677467,60.759995101180216 L318.4876419706882,61.9911594524579 L318.92272965545976,62.86939685614195 L318.8806399952646,63.10848876843781 L319.2955495229364,62.69464220959914 L319.725998153665,61.827885349302186 L320.0549934880997,60.36866388417165 L321.02784531082574,58.90321374425691 L321.69735260413336,57.396293095594885 L322.4363376436306,55.56606278546213 L323.6237997310168,54.64606449539414 L324.5236662902643,53.63445535764067 L325.55006846722125,53.71352100353151 L326.2497228734777,54.02084516966165 L327.20781870661017,54.64446506314208 L328.0439523958925,55.24565746180539 L327.9173188278121,56.83600070778346 L328.17854392275103,58.649530543589655 L327.81679022400016,60.69371732134589 L327.81073497596,61.83085041131235 L327.5134383755331,63.24171717889397 L327.94001022270817,63.97796197359995 L327.93770291205726,64.43069523418103 M337.01028450123675,54.89224119414716 L337.0945816449017,54.84404673478122 L336.8137216219342,55.55106689191808 L337.2594749731145,56.6952138394968 L336.90089308716375,58.28366064995638 L336.6554354579748,60.07052827595685 L336.8678817573895,61.610823360311336 L336.77147861225563,62.37050497448401 L336.46282196697666,63.65410821743795 L336.88481291999426,64.03268849175609 L336.5513732238575,63.85813588788571 L336.7883290324455,62.86208421612462 L337.7000106830675,61.86987812468216 L338.231438317077,59.94665395790014 L339.0781896711061,58.487702964530015 L339.9041887190708,56.44039753499729 L340.94770582750186,55.04008761335304 L341.87707339587655,53.81512908724275 L342.4094677069493,53.255643633930234 L343.92976093257585,52.90835643028113 L344.2542701455673,53.04065791532111 L344.89155152458756,54.370853042774186 L345.1398379774794,55.577941164952364 L345.367384291343,56.88524231074613 L345.4742682959828,58.97795722565539 L345.5712629211058,60.6140705506281 L345.69891886698895,62.08868360594935 L345.37546644726933,62.66613658900182 L345.77286709030693,63.42431270683173 M353.5153679408515,55.359685726203416 L353.62385948610387,55.19917481921593 L353.7910631188539,56.266518961791114 L353.68137681164177,57.06463774677747 L354.00746928078746,58.1288470948964 L353.6439857992036,59.75304983231494 L353.26423211794406,61.62300018895316 L353.4051271873294,63.72664872462442 L353.26185351422635,64.84018213221367 L353.24147150357055,65.6628499722267 L353.5179692559583,65.83406939905586 L353.82961439113814,65.4583249056399 L354.15166928637274,64.70912105098584 M357.24014758356464,49.49279400027731 L357.2538669141039,49.465420269989096 L357.31750226519983,49.49845718950047 L357.40444721255676,49.573249660411726 L357.4881092826479,49.67115308031339 M362.1076039197677,56.07900062183698 L362.2745226256137,56.402421966107354 L362.3816144604409,56.902310801465994 L362.3759874392829,58.34469402095184 L362.72133862976386,59.86807232758061 L363.0147021840153,61.15760064103986 L363.2039544104203,62.64776294148952 L363.04239389144516,63.92736410767783 L363.4078001723621,64.74156028398079 L362.9382313211811,65.15373051998998 L363.2999079678333,65.13447408884356 L363.06845157930394,64.25366068905551 L363.4706476149205,62.744404055192554 L363.7656060241725,61.29446164029082 L364.14776601880965,59.943311877408426 L364.90051725776675,57.72870082614365 L365.66142622496534,56.34590104515482 L366.79146064420013,55.129829405580494 L367.8990973332288,54.33407590696378 L369.05042152535566,54.27731683626907 L369.9543411213088,54.407774049448975 L370.7935194077711,55.4170175216067 L371.47112666152304,56.59156617611723 L371.7102811939103,58.415401205202656 L371.81130658906295,59.86212204708064 L372.2209714030181,61.78021678025369 L371.9669374132959,62.705600327821045 L372.06883851515283,63.85223331907932 L372.06319086489987,64.61110340787583 M385.43833831424433,57.11666501770805 L385.2421149747197,56.62562662481149 L384.88709007767363,56.33640849586809 L384.383238133005,55.95040138127399 L383.8040033906793,55.63496286694264 L382.61541547474036,56.04771080508297 L381.41104550862485,56.264587940245114 L380.13826608285603,57.223507123104554 L379.1992883472012,58.23600883360513 L378.4762341400518,60.13647942403609 L378.4724226340614,61.318862520689244 L378.3214541144217,62.368272078039794 L379.3980454983563,62.945182403320636 L380.89546699678027,63.572638760890165 L381.9433020802634,62.78242854228342 L383.933110502814,62.34693350104296 L385.2896225919071,61.17877452339592 L386.30703445605485,60.01677319719782 L387.1601628777074,58.74412190951467 L387.78093621913126,57.637113980301116 L388.23149747284356,56.394858092754816 L388.30701647514604,56.334814365247084 L388.16625495512034,55.616083049537124 L388.3110245045706,55.88272623451596 L387.80667448421923,57.25215008999311 L387.81898265830955,58.01417438114613 L388.01223921945734,59.74189389187741 L388.1992400697158,61.72231518828763 L388.12869922567984,64.38245160724652 L388.296457729204,66.10628397404717 L388.3863208177032,68.53177990246414 L388.58619878693776,70.51175824302545 L387.93324596842524,71.9731803823855 L387.9081226591661,73.62013826562729 L386.7215455138469,74.24896127810524 L385.923891168389,75.27771967310943 L384.6003058739286,75.1121654414188 L383.6412818764046,74.97947072009259 L381.8635209527572,74.66005823684155 L381.24460446130115,73.99637447164197 L380.85029095228896,73.5450798654469 M409.6356821099166,47.78323949131028 L409.79676283905695,48.22995218185217 L409.79094283644565,47.87838263354766 L409.4021697561818,48.929575996029875 L409.61414137592806,50.10143064424868 L409.71387316453956,51.80819987606478 L409.2754331776721,53.98488521165978 L409.07664735469234,56.76667087044547 L408.37605578300844,59.049410449597715 L408.21803385089027,61.77822051764562 L408.2692267391908,63.917794144187944 L408.7231748690383,65.81921374814334 L408.458327289551,66.94715055617286 M421.11171634991877,55.84278256593892 L420.7288153945031,55.92632065017836 L420.2968602613524,55.52137686688746 L419.7251938702432,55.83026134370521 L419.2987665969334,56.067942535115925 L418.6933607078154,56.61199262460525 L417.6489595057104,57.71274616663496 L417.37568885841426,58.60458275580204 L417.19308886829526,60.236060646609005 L416.777738259717,61.9338395082174 L417.1667193574598,62.78206460840864 L417.7406028238904,63.4215861265653 L418.4243572834421,63.45573292256565 L419.2923162339314,63.03787413843013 L420.410302855061,62.230363991961944 L421.0780034505516,60.58036685777885 L421.685272405521,59.2598705053875 L422.73435010986736,57.23163058899665 L422.5506330186548,56.39344614588074 L422.6559990375888,55.38575976921635 L423.14580598886516,54.86123351082635 L423.07728413267955,54.68091690637307 L423.09266797657256,55.17301652283561 L422.72673180332436,55.92688255668684 L422.88381108799655,57.341679824618986 L423.0061909769517,58.54581948749445 L423.4922580864254,60.37357542768812 L424.2105133613182,62.3488935168455 L424.7093436836377,63.095639896502725 L425.2847314126627,63.7494887380341 L425.9769989776487,64.21336272728425 L426.8768435290293,63.96341499972664 L427.19641081848846,63.6141578414785 M431.0323280111445,46.514332206944935 L430.92911739610713,46.88951203390774 L431.2474714527906,47.86788909060228 L430.9296503816729,49.201510624962374 L431.6326428869498,50.64821500497612 L431.4665638121992,53.17497491855993 L431.7937368507593,55.25692357355424 L431.66946397444406,57.88053561353783 L431.927816684193,60.0776891435346 L431.92149363739486,62.189016669768364 L432.0156009958908,63.41422870474634 L432.32840595585645,64.30913993783096 L432.2543957911528,64.37530227292066 M427.735492993237,57.16344786606398 L428.0627067058334,57.10676776860875 L428.6145638770239,57.682824331089556 L429.11086618931324,57.95330757811463 L430.61550269237637,58.035363814414005 L432.36820319644676,58.67865222090565 L434.142491589145,58.241775203338946 L436.0130920527224,58.31708708877842 L437.7490406641838,57.694251537875 L439.79837591095156,57.12462495841097 L440.8958291225882,56.29911996131936 L441.97405283373257,56.06275151536704 L442.44527168897764,54.43284869309353 L441.60658414316697,54.101441632506535 L441.22316968552013,53.48643205443642 L440.4412598680007,53.29261353314378 L438.9552328911604,53.53295897853246 L438.2553079497005,54.54413174907659 L436.87148411978546,55.79361708140135 L436.66427230260143,56.92192858170155 L436.00026906483106,58.588161855439395 L436.3212166154656,60.14833184732436 L436.88507012849414,61.52955577531891 L438.22988645364535,62.764074783237064 L439.8339263718243,63.146688602425286 L442.2223634850777,63.93507801137374 L444.6192564547771,63.86694898314233 L446.43843748946534,63.82660327010322 L447.56369014039956,63.57653525399019 M466.9361461923803,53.10192284039183 L466.7193681344014,52.72937213259695 L466.5337901968276,51.71911045818828 L465.78630120035746,50.56901152057757 L465.3955249907041,49.84510572897824 L464.726931363541,48.89263056988835 L464.1201291481515,48.53682335253082 L462.93174025121675,48.460177313384214 L462.2546170715374,48.63606302054176 L460.84089748294826,49.21864436816227 L460.12719916043466,50.411726364072244 L459.5763895959185,52.48664581185688 L458.87443420225406,54.06649031742066 L458.73420669186453,56.71304484953403 L459.05078429835777,59.284199451343454 L459.4806202573214,62.15129310002501 L459.9632281104159,64.30092589130003 L460.60511173891405,66.18765947851901 L461.3944965272732,67.53104648778063 L462.230467499214,68.2752948384117 L462.4238889244624,68.70573239732433 M460.0307754695807,57.133547430820784 L460.327448153658,57.55906075822623 L460.91125180159133,57.61995490058855 L462.0537837712345,57.61616546430715 L463.9847023327348,57.92487647542157 L465.68930581466856,57.93170645229402 L467.75034862135004,57.339080067934134 L468.99999974164325,57.45727884774204 L470.1397862658379,57.68442187770612 M477.85428427877275,56.10913039664637 L477.81185890360223,56.146200749912424 L477.2244146073432,56.438641392322936 L476.3329224815601,56.55647815419725 L475.5005081830292,56.64876432790339 L474.6684326242198,57.81164590851944 L473.48325752755454,58.64448666512377 L473.27754599062854,60.19857943879196 L472.90745366647997,61.406148977073556 L473.0741493121205,62.995705167850105 L473.7777691526345,63.85329339835639 L474.61706210776106,64.57333600850477 L476.1648308067852,64.43394479538293 L477.65094292749984,64.79213393028594 L479.2473027619383,63.816985236071034 L480.7194719260343,62.63183400078533 L481.3006493992833,61.38845564428871 L481.6937862330568,59.62517190030397 L482.1185080299555,58.744154681405206 L481.701566382691,57.46316831453762 L480.4722903794874,57.108320021651174 L480.0268965318876,56.661203122978485 L478.846216659424,56.71127716178001 L478.27275488016755,56.76687579652508 L477.6391215687505,57.43264069329633 M486.01069259788875,56.63544461368174 L485.94752103635847,56.812966911260844 L485.88690405428065,57.473895403262915 L485.64131477654644,57.96389276206279 L485.6906944271259,59.2717640966803 L485.6847647939562,60.36860778536314 L485.83694119717984,61.922509557783535 L485.85376715866244,63.17194631121295 L485.6277004316502,63.709117927847515 L485.74465865503026,64.61387880680236 L485.85095495679366,64.43062114723949 L486.1134937644995,63.67270551645785 L485.92638252778534,62.52164861454908 L486.42946015789335,61.46244181863079 L486.9641356193589,59.58960438072251 L487.992294752826,57.959819322932745 L488.85992683348485,56.64717158052306 L490.0571117203175,55.19965404745586 L491.81330000730327,54.46077083762982 L492.80101839196755,53.95070971885948 L493.7301488536567,53.826279257085055 M517.8645970183258,56.168069725149685 L517.6495589617405,55.71192402532906 L516.9647767679812,55.07117525982137 L516.1677324365103,55.14643237160141 L515.120515590686,55.140032594403976 L514.1166399134883,55.34747467347527 L512.4395634227492,55.84491798236549 L511.097519635352,56.253572794811966 L510.09035651404264,57.72769088446032 L508.7955595460749,59.24561870995219 L508.65154478797,60.313319487379154 L508.37702867283474,62.11411315317403 L509.33947973690766,63.13537460166677 L510.7120673800144,64.41037615119377 L512.2784670597302,64.96267759024846 L514.1306382649874,65.36150143720913 L515.0281068605658,64.68437698596077 M527.2430333421624,45.903983363230154 L527.0069999992677,45.46012371905073 L527.1608362877214,45.51422216570516 L526.9076341594206,45.6687797380478 L526.8057912975477,46.3495579829477 L526.2564228519434,47.59420101342064 L526.4297383814666,49.571692856697666 L526.0791194281103,52.2252462691724 L525.859112046331,54.76106708137595 L525.7295198446466,57.01703141282032 L525.6275447303726,59.57032962668083 L526.1408911512328,61.17153961174234 L526.6119180188118,62.91909093983999 L527.3477052713934,63.54523145152214 L528.2351790783549,63.91617729805034 L529.0098704796735,63.781558080783896 L529.8039117015437,63.70627172518805 M537.9841218631716,56.518572953591146 L537.8147239817251,56.297084447358166 L537.4087673154363,55.84530573704913 L536.8180524951865,56.01505135215707 L535.5790360308549,55.9566352755701 L534.8187942325824,56.292836925784385 L533.8527009876266,57.065680998862 L532.6606755274346,57.79581853377346 L531.7407133851827,59.39912689469575 L531.3797572197668,60.75758653757 L531.1980002510179,62.01668010244152 L531.6514320427125,62.24343233433361 L532.3768015956495,63.404083638107494 L533.3378116659319,63.324811246293656 L534.4903850337159,63.224229793790826 L535.7273244128949,62.05399712787476 L536.7219428112317,61.392445335818294 L537.602810754563,59.747672188441506 L538.2622738566411,58.895545347020466 L538.4549654319696,57.63929352374289 L539.039234359861,56.718051721778664 L538.981596803385,55.523133065533 L538.9647188738506,55.46159605423342 L539.1960862508379,55.38228758053976 L538.8414170361401,56.24885424703126 L539.0813356579895,56.97923614585279 L538.869314471196,57.955918003333984 L539.4744854061042,59.730792885783714 L539.0920762557344,61.16591422540391 L539.6552228735811,62.66396237584529 L540.3243107631458,63.39232174228353 L540.81460207862,64.21640956165047 L541.6198556529788,64.2359894881906 M550.3361951495758,54.16422423944913 L549.7857013132045,54.25607466941606 L549.2469033194955,53.85570025183928 L548.2148244208129,53.61158776663641 L547.3039038049399,53.84923569048199 L546.3231625336483,54.114865111005855 L545.1721407889974,54.960467268006106 L544.4607876812152,55.58277678942551 L543.8699456678687,56.384823769724264 L544.1253745488918,57.57736235143965 L544.9024896466512,58.75392227083244 L545.8191040943043,59.98012557153163 L546.7458240388872,61.3466927548332 L547.8731037932071,62.527317554161314 L548.7939051102974,63.20815646885383 L549.2838226654563,63.92376104452905 L549.0404210412773,64.37154118394214 L548.480669674727,65.17687471519058 L547.8807028187333,65.036291007333 L546.6827212652322,64.88650747441525 L545.248547157853,65.17542723531976 L544.3749701162508,64.71379248984269 L544.0526892625977,64.30109609327239 L543.5468392882842,63.81208387885009 L543.5425161428618,63.82799427492238 M561.4664354318963,55.330167267060624 L561.4353554153893,55.1764881978788 L560.866768125236,55.04247453843934 L560.1775482911214,54.72737201706409 L558.9161643186873,54.81668128255009 L557.8893973415798,55.0073710650433 L557.1828804521233,55.58392065786934 L556.6426762265097,56.26427260556196 L556.8004349613989,56.74345842972731 L556.9608339899339,57.400176384254955 L557.8984372157175,58.35445424608933 L558.6558142194813,58.91128890074379 L560.1499682174552,60.237244006017434 L561.3506883544694,60.93574536452974 L562.7716903040257,61.17486513503937 L563.6895290619359,61.96719793396934 L563.5652138302901,63.0788508553514 L563.1963773029485,63.25842507766729 L562.1827425849406,63.11352081034587 L560.7069737995296,63.315522416363265 L558.5649097059768,63.37400194301609 L557.1604272391662,63.31913401547544 L555.4389413422402,63.038010480672526 L554.5356661706007,62.675858795010676 L553.9921471613991,62.44480502166478 M567.7105170651427,61.332319707230255 L568.133009959598,61.65446136473419 L567.9292346313267,61.91745457277682 L567.473350808099,62.611135518184305 L567.8552847709033,63.95172537689395 L567.3609914531398,65.87246883237754 L566.9131382478884,67.12152390404002 L566.4179304359088,68.4670074879198 L566.0423470096046,69.05415004696351 M579.505383672983,53.77551366215307 L579.5338166884555,53.88045556286533 L579.39056591886,54.85100858976753 L579.6964719232321,55.78038323219628 L579.4695028028393,57.172266112875214 L579.3904299191792,58.952433563429665 L579.1100621805409,60.52999760564642 L579.5384878526844,62.743395991543615 L579.1645023239728,64.20695302448584 L579.4097655088826,64.75815159227525 L580.2533141319177,65.0485045814006 L580.7357824221676,64.444883329533 L581.4725080587888,63.224785117734264 L582.5883284746858,61.95039555913356 L583.4502776179039,60.00283869750344 L584.3101413957883,58.33530968733874 L584.6658777909709,56.944369746620396 L585.1079951936507,56.276168411941256 L585.3139987999914,55.740407310186406 L585.3919922021439,55.66116870788914 L585.6690474085719,55.870846671313856 L585.0637047530314,57.027876515018264 L585.0929967178962,58.32058081559944 L585.247441301311,60.03291163799783 L584.8167862668711,62.01077317940485 L585.3483668418576,63.27251448132728 L586.269408468019,64.01459707523072 L586.9317127555141,64.68948778787593 L588.0588681773911,64.87983307256033 L589.1669492852034,64.7766620058767 L590.4304440975984,63.15812001157887 L591.3917381746078,61.428164697768615 L592.1606410821662,59.40194402241628 L593.1301267050577,57.84445256762478 L592.991853170288,55.82392067658111 L592.9989260357049,54.79748354958827 L592.9248144704146,54.265265552443005 M597.3303724246605,54.91119121091396 L597.1898934538158,54.87161713528473 L597.1246192837946,55.738044026579 L597.0993479924639,56.62649352191722 L596.9907080957798,57.35292247510513 L596.6837062439977,59.139524356538224 L596.4682865776078,60.46331346326244 L596.3344857043016,61.83269690434755 L596.3952638547116,63.17890440657639 L596.3571831184574,63.9125769539547 L596.1670742196395,64.02150998688501 L596.8931341296011,63.42565045682346 L597.2909463758201,62.778996560693514 L597.2743094607303,61.74529799773535 L597.7948905321857,59.69047593979037 L598.1177153758374,58.212586927968104 L598.4837701989763,56.61819717960693 L599.5960644092975,54.93887564516055 L599.9197663491148,54.19807680162534 L601.8698693572849,53.39139735921962 L603.0883181152001,52.92089460318751 L604.103839352053,53.27870190926163 L605.3598423142009,53.58786671779124 L606.6398715242448,54.483492340152544 L607.3154127321353,55.03521094453703 L608.1361287222313,56.37032992425862 L608.1945758787135,57.2930525771412 L608.408804038028,58.30900374578858 L608.4643426346067,59.46459082544093 L608.4973785885006,60.21890425955085 L608.3877272251996,61.283716622864674 L608.0751683688495,61.94695955580023 L608.3080658832043,61.92134040789458 M611.8187480320837,49.580895069850236 L611.8936047363375,49.548121075228025 L612.0914666607607,49.53679598020196 L612.3347708193777,49.54723896241281 L612.545982468858,49.579763964389386 M621.870484808737,50.3850313230088 L622.0590709702549,50.799142089704226 L622.0768420619195,51.3441586328644 L622.1097074265995,52.63440158854473 L621.803161462112,54.01304204854263 L622.1615425708264,55.73510640347748 L621.9618682930147,58.20912012062779 L621.8608331465382,59.73219126736167 L622.1061643376082,62.035767026646184 L622.2465296412994,63.419549254504616 L622.4670392117248,64.6775587722851 L622.7043462867725,64.65954878068482 L622.397612377946,64.89818996605625 M623.2503301069528,57.56120310979022 L623.6176073324189,57.22533991447754 L623.9851484080061,57.25462316335465 L625.3487194504276,57.22273979829593 L626.8289366187475,56.67692318614766 L628.9944078683318,56.64871385815738 L631.0523891459924,56.96207849965963 L632.8827312668989,56.95573387705671 L633.7594992865597,56.73788650400489 L635.0870578013878,57.029744287280785 L635.4720669073595,57.168578555289294 L635.7583757809093,57.266423232088854 L635.5044104968164,58.48398976153564 L634.9959872147147,59.56271953530825 L634.2741749146044,60.66112675209212 L633.7631870253058,62.04769789858736 L633.4879320075563,63.125648466638424 L633.1920725497616,64.49941085998074 L632.9371978877582,64.66921534217973 L633.2824222775148,65.02499207915032 L633.6277878134016,64.72860576081281 M636.2368376835839,50.459907403459134 M646.3337367723949,56.173777860185666 L646.2673090661992,56.58215976085918 L645.8683428872139,57.464979195418515 L645.5839579130082,58.56609102856386 L645.5799628444688,59.843413828325005 L645.4793373350935,61.115285577901474 L645.2189235776877,61.68488827011331 L645.1620195240115,62.573130868781476 L645.6781137375078,62.061131141762175 L645.4381705695309,61.61366072273489 L645.6298439737625,60.63627404427343 L646.0422742190856,59.64105803676036 L646.885545556563,58.20955803433267 L647.2587399416119,56.71271321148366 L648.1190055427383,55.309056601558474 L649.0644305469348,54.328047487463856 L650.7118342263548,53.621442090776945 L650.8523869249459,53.78302229180371 L651.971261914962,53.69787882908678 L652.6697435564531,54.23357646549337 L653.8286722590135,55.520471718542375 L653.7660723307267,56.8324116685377 L654.4389659801832,58.24297392260321 L654.3241630265904,59.46965317821464 L654.415743451496,60.286598715185434 M664.9427583716185,57.41396447351457 L664.5632878583676,57.070776299927935 L664.7554240639221,56.011277118611396 L664.2270917646883,55.692545776478035 L663.3127894334076,55.09031060136621 L662.2201205329338,55.521046384473976 L660.7652579508624,55.74989038802849 L659.7262505014413,56.524278101285326 L658.4459970867478,57.55084756449776 L657.9599154249013,58.56145711515557 L658.2299158322267,59.32446170478427 L658.7649990191876,60.12579723448231 L659.7627424597864,60.601741688402825 L661.4443909996703,60.65804951011478 L663.0266732332441,60.35043974126165 L664.4288032251159,59.83175452580881 L665.5987788894813,58.89309547980683 L666.6657915050815,57.744571079306525 L667.167848470899,56.90851577705253 L667.2374911992019,56.78072960678564 L667.4190286471774,56.374009442891904 L667.4634071577393,56.08829604627948 L667.0476641850172,56.6313928593191 L666.9591632249148,57.61990993017986 L667.031644941016,58.588519291110835 L666.5566911017587,60.372578059930746 L666.9521532398338,61.897416424163396 L666.6681729374986,64.13546502225923 L666.8679453282962,66.52958454048074 L666.6659948474535,68.2459248500862 L666.7833026600176,70.64360500475121 L666.3774138426155,72.28069077984718 L666.3725060103113,74.03133357474806 L665.7589113238745,74.98728651144108 L664.5961176658002,75.48652624743468 L663.6781531637359,75.6555367347505 L662.6184870371477,75.37747927164061 L661.3099361571306,74.50038911530784 L660.3849718783056,73.7177152500078 L660.2982606193177,72.78313834521857 L660.0002608777536,72.16124356833691 M692.7605646250092,48.84625324997939 L692.5898752838993,49.142523049538426 L692.3890334899095,48.91096695522603 L691.5856997308758,48.54050161632588 L691.4185801821592,48.813445297784405 L690.616002970832,49.514565163275165 L689.8852120342418,50.8599519291155 L689.613348444954,52.06733867188643 L688.9490181860881,54.24523496551791 L688.605512899888,56.19490280280511 L687.8560620447756,58.395914124554224 L687.2976573999028,60.94673356741129 L686.8616969259012,63.44079148599919 L687.0211990240746,65.61422868189682 L686.9347986853645,66.84318731418374 L687.5316952652493,67.69459909722498 L687.3314572153354,68.45556298594754 M682.9169471041973,58.49944560161169 L683.3833612887676,58.46603815543509 L684.3177961032206,58.41509702416835 L685.3720832125957,58.36448073413936 L686.1980829684551,58.3320460476257 M703.0728978308503,54.91648412311907 L702.6116629941082,54.405737081798925 L701.9803547819671,54.3383566748495 L701.0258017599324,54.49138860872577 L699.4511841238391,54.96579571838319 L698.2247271668537,56.08911499752287 L696.9600288617331,56.92278035197967 L695.9278640738863,58.22981895150102 L695.4076520833611,59.562871327893035 L695.1477589184923,60.9357438558202 L695.7989245558149,62.09162118149378 L696.1954587146206,62.43997377773574 L697.5162260825512,62.24688435731298 L698.8931116122478,61.51609116064111 L700.2123763620995,60.868884981750185 L702.0913365580341,59.28268107584557 L702.799985218019,57.51927466125134 L703.7055711786998,56.2799489112454 L704.2186290234511,55.433255999607674 L704.4872613711433,54.43299368347284 L704.0414592441529,54.11229904547235 L704.3596364532539,54.25953262228941 L703.9203663206385,54.30927890666466 L703.7617211894021,55.01792244311032 L703.9260993018763,56.42136553841742 L703.7806847677278,57.824546315271114 L704.202990496925,59.29276707837808 L704.267126793101,60.52875808474748 L704.5550851133486,61.42875959350077 M716.6924699008748,53.491185329980006 L716.4014794989898,53.21438846399003 L715.6637002120704,52.82059801635877 L715.067283221652,52.98875857559561 L713.6681522421283,52.750671236131424 L713.0872548232858,53.036620025339204 L712.0322967221591,53.788082535199024 L711.2992617400472,54.02913262629228 L711.0247649228775,55.3910173508845 L711.3067530869591,56.132390822313795 L712.2170586510902,56.936058399913655 L713.2679953478961,57.81213744461978 L714.564930827019,58.75220838258702 L715.8330424497296,60.09393713211333 L716.3572886960412,60.85846742706581 L716.7181612041256,61.550647193783504 L716.169771308706,61.9270208637566 L715.7822712903848,62.05913179864683 L714.306741109923,63.11472126416908 L712.8685592690977,62.89291218408186 L711.7802247810232,62.8998168415607 L710.6519338300377,62.7433509487188 L709.5334328821548,61.534965602037545 L709.1193876460936,61.13337422822763 L708.7461587780987,60.567959019479126 M726.4784950850496,46.21359007606142 L726.6577281039993,46.378235235461986 L726.5598450561974,46.45595090168937 L726.7285995115285,47.055512337495024 L726.5734593971507,47.62136423860801 L726.4242296033175,48.80086654073541 L726.5381265980392,50.979522657945274 L726.2159051625677,53.09385561060656 L725.9629715715214,54.788543208992344 L725.8729386962068,57.26066232270783 L725.7695528719239,59.11452082813843 L726.1145074932737,60.42700661115613 L726.1154998696272,61.19412121684257 M723.3854620837548,57.32241698555124 L723.417003823791,57.27507357673822 L723.7097202815294,57.394381544967885 L724.1131743551844,56.86215441588326 L724.9887221453773,56.75782740883755 L726.3270365471383,56.60848282830201 L727.9371565657648,56.282686244628536 L729.7974158132929,56.321552567436385 L730.4244300087337,56.573440714467374 M741.4562553739407,45.0013529269962 L741.1941726888114,45.0 L741.7917221810834,45.562449185654295 L741.6000260110686,46.15575892791893 L741.5118460190326,47.27713781701722 L741.2286531117657,48.56619608797432 L741.034043866106,50.35773385610829 L741.0174318494574,52.41193092447146 L740.9751912642921,54.04988678028724 L740.827225685064,56.025713933012234 L740.7744101890094,57.671002933664624 L740.8353077472116,59.61257259826179 L741.1048346449468,59.81261297581011 M737.3047282531007,69.1551827101608 L737.3051860167726,69.10891520070035 L737.2991130187257,69.0488241820236 L737.2883708312257,68.99366556691129 " fill="none" stroke="black" stroke-linecap="round" stroke-width="2" /></svg>