<?xml version="1.0" encoding="utf-8" ?>
<svg baseProfile="full" height="100%" version="1.1" viewBox="0,0,1000,120" width="100%" xmlns="http://www.w3.org/2000/svg" xmlns:ev="http://www.w3.org/2001/xml-events" xmlns:xlink="http://www.w3.org/1999/xlink"><defs /><rect fill="white" height="120" width="1000" x="0" y="0" /><path d="M0,0 M306.0993236390425,50.7380219655891 L305.92331033638067,51.23986574214038 L306.83613530999116,51.912448811473155 L306.69745206788497,53.62408345460622 L306.5884121414514,54.745324995824284 L306.52452446338685,56.90239714272293 L305.9556318923358,59.36464982501 L306.73108795597017,61.29730789916131 L306.1360261135289,64.15657785787958 L306.42031719541205,66.79944312622253 L306.8571794937101,67.95846993643757 L306.5618692390308,69.95870738384251 L306.4442815642139,70.20523052756981 M300.7039710439015,50.580666690196395 L301.7163929675211,51.35247140088207 L302.479406651564,50.91786651343161 L303.19320499055544,50.56399358111523 L304.82290834702496,50.18050144980395 L306.4121814707436,49.53143608828025 L308.8058912095733,49.253654946155606 L309.79301769858,48.663848165574834 L311.05786662995035,48.371434404305546 M322.04738826119365,47.69531443429416 L322.5601371834965,48.372145379791405 L322.79180330716827,48.60502659157298 L322.5956434522478,50.66427073448782 L322.42112515331485,52.11122532606264 L322.65480078461263,53.122027117133484 L322.76494629086125,55.56859099834165 L322.48913407154475,58.01455045264689 L322.82636628988234,59.7464985590206 L322.214427085547,60.944716116192964 L322.80625935660623,61.71932519913846 L323.4141574140297,62.48614977259975 L323.1927320587819,62.7245626030414 L323.5571631244727,62.28012872921636 L324.1175844382904,61.1825612711581 L324.5777198186035,60.19974275310844 L324.9104552894004,58.412149898429604 L325.68494475323337,56.87790338276828 L326.3333199402163,55.525041295969295 L327.5413298497947,54.46965729544679 L328.3694271905111,54.28894471912198 L328.88700760920545,53.8132803756055 L329.26058816865606,54.61594814989202 L329.8150761942534,55.544874281296075 L329.99661969856044,56.865438668150674 L330.46004697929516,57.85602460538432 L330.3384277359534,59.99949635281159 L330.1543040076787,61.290412433281766 L330.3565984076623,62.886831750536935 L330.8034412104941,63.633334577338296 L330.84209602759614,64.07599461817273 L330.3832073700477,64.02038951694347 L331.0654234328133,63.866592691194974 M339.4050402804969,57.77762686905359 L339.6273998019732,57.83274200950046 L339.34899548441945,58.22170491289265 L339.16934801506187,58.837754773329245 L339.4683384819402,60.083541032932295 L338.496398713652,61.48726196886347 L338.97478670329167,63.09847402645054 L339.0880091204022,64.80355350694984 L338.9653879032172,65.33500149545782 L339.176826270235,65.94120702708753 L339.4653186670624,65.37046831156196 L339.5052832375912,65.01385226894746 L339.6811252620313,64.03719450531112 M345.25390543506074,51.58922100338817 L345.001365839061,51.78858712929117 L344.95249874927816,51.43333665427112 L344.8471129646962,51.19902813838712 L345.12072589806377,50.84048049952768 L345.0967424847922,51.052987913255095 L345.0483137133804,51.387106068643924 L345.19270363911824,51.57188682018146 L345.408511689321,51.86585146835281 M359.8142809223518,55.973882838558396 L360.0112360270934,56.30298100791927 L359.27214481554665,56.10939838129273 L358.5657724019138,55.63458156830715 L357.08017396606556,56.01064128945667 L355.65712173021006,56.6367986465227 L354.635801863226,56.97997847068217 L354.24184040715664,57.4774778414042 L353.68710919046487,58.419428855414374 L353.6419973200445,58.90988111315879 L354.8079057113829,59.54968921933544 L355.6342826146915,60.16072970049999 L357.0258500296452,61.59262382751977 L359.53852786413614,62.262868570622125 L360.41643072827304,63.34764330063162 L361.2054313177179,63.912213206262265 L361.4683507848107,64.23971927388513 L361.1180333330741,64.614967667856 L360.34380167755074,65.78215161846202 L359.2174721713185,65.2026171590425 L357.61860218121296,65.11139122991395 L356.3022557438275,65.5556011107528 L355.48155503577146,65.4837665589421 L354.6388976673452,65.58204694413084 L354.0689807031263,65.00741076255632 M382.8259664770008,55.26494222942535 L382.60435115472717,55.186787976404574 L383.01778640299403,56.042012288555625 L383.4550405768853,57.393202382686034 L383.0409423753533,58.316659952151994 L383.8686962590465,59.56498168916738 L383.86862113147987,60.63175304721145 L383.5623718858952,62.31779373550139 L384.12275539195497,63.24093408961258 L384.3569995845969,64.08535799933861 L384.48057533554794,63.572803785445615 L384.6055228041972,63.196067310529855 L383.9156027101028,63.34325508235594 M383.5902627486649,46.49765887230683 L383.8192340530945,46.68220844986213 L383.0850791967058,47.235576749695326 L383.257873957926,46.80194349488349 L383.3864388206193,46.9349489980977 L383.77609054799683,47.309174806813154 L383.48852944272664,47.231341863024035 L384.1923442154511,47.28077557409036 L384.4262517837482,48.05542814775483 M399.06130481692264,52.25135664446661 L399.35471747287363,52.281611820641196 L398.5996930322765,52.59073195797279 L397.9812322261495,52.474219176002904 L396.1859413690031,52.53085281488201 L395.0398993360003,53.23749575739608 L394.19491085886045,53.57269035437864 L394.5289594905704,55.02500143585858 L393.9932249120453,56.019425874325364 L393.9323790915937,57.29679113855136 L394.7076089634288,57.91200629476176 L395.8194048409206,59.421916531198995 L397.38387510635016,60.829927081376255 L398.2619661368908,61.24597208396616 L399.6386723314386,62.38847396071475 L399.77565223988273,63.52041450503708 L399.44391256044025,63.82859597036426 L398.87235217997,64.43758410959943 L397.368791766795,64.23318297662983 L396.14246608074495,64.6234298423742 L394.79087452284523,65.14423067201486 L393.632692109705,64.06676603890497 L392.61586101398655,64.36592149484369 L392.26485558339004,64.27587835158407 L392.50481124947476,63.83264161410271 M415.75402925899016,55.35924908528245 L415.1962266409183,55.50542294142028 L414.64158138224514,56.454585018185696 L415.00898614691994,57.40150692238387 L414.64731819532915,58.817817117002804 L414.4701043494634,61.129831809894306 L414.10342867958707,63.52371781218547 L413.90076159390486,64.67622788686627 L413.56908395111657,66.64050340178183 L413.0832022551174,66.91208347541617 L413.0210691700857,67.37723948257698 L413.8975357755886,66.2569977798503 L413.7952524512169,65.28788447397346 L414.55919409658964,63.68010614643245 L415.578044103477,61.509171015983114 L416.6087726755243,59.466993586914874 L417.6119516353664,57.34783497761173 L418.19275963561506,55.94901731279107 L418.96962432726804,54.74841733624516 L420.6939882636323,54.28274867884502 L421.29689132407543,53.94989843590345 L422.086700421408,54.77360846945251 L422.21846880761126,56.34430108831412 L422.9234807442762,58.127977011440606 L422.0083988537656,60.038457481891236 L421.5550169927583,62.53858640596902 L422.0158121144211,64.16059855993284 L421.52979247894393,65.74823911201906 L421.75528727137254,66.73342971918 L421.2790596688603,66.36640184645124 L421.2792463884967,65.92591415465724 L421.67695304789777,64.44238083294647 L421.89962715569095,62.7578655016368 L423.32627413980634,60.93318813625469 L424.5001137889496,58.63544194377875 L425.34802734819164,57.496509726783046 L426.35626637689404,56.257030110964244 L427.7854177869227,54.67098096899715 L428.055359111284,54.642399913771 L429.4139266996057,55.54071234319372 L429.9219044666928,56.540169930490514 L430.3419705990326,58.18195670008668 L430.04786002638207,59.6411434075486 L429.7969652000354,62.2512483003498 L429.78898115666584,63.83147130050657 L429.023291568378,65.79068076119773 L429.2879285803929,66.43505359061585 L428.9623528595829,68.15006881760105 L429.35468134533335,68.23722897577329 M442.99774960430534,55.48482395109338 L443.2158775457193,55.6178862398224 L442.9599484028837,55.19495644505768 L442.24740051081403,54.85273372706603 L441.7012945090985,54.92770543018976 L440.9276322894332,55.69228611164471 L439.87648804553214,56.76369434666223 L439.4493848631939,58.14659556620575 L439.05825735090207,59.06686341105377 L438.09978073353966,61.58370621865053 L437.7557243901456,62.128130961215284 L438.6155281345798,62.817606182968525 L438.58725027222295,64.20509789540542 L439.1113330309222,63.85344131778864 L440.25831706634506,62.66739557494696 L441.16968933155374,62.72185046178363 L441.7983320822517,61.61403827892855 L442.6477085127964,60.403552512540315 L443.55163428833055,58.085653498563886 L443.78212103691317,56.484575479196536 L444.09110729423946,55.20701596080535 L443.935767446364,55.2203080471716 L444.37384749179967,54.323307418310144 L443.99152333308496,54.20568094810482 L444.07562657939377,54.586252801778265 L444.2673353917255,54.88384688368848 L444.567946353219,56.50069424214255 L444.30290331972606,58.534907877730845 L444.8100016694791,59.240700145873994 L444.7397055771678,60.95236339991871 L445.12301356112835,61.895893749682514 L445.50830848246073,63.37757108502071 L445.35583955640766,62.959080088468625 M453.18557256739234,54.93450370469554 L453.5553199460711,55.59948702741349 L454.06053029288637,54.849704198767846 L454.6543617031665,56.24250512946396 L454.58507442256075,56.00461882724471 L456.10165722211525,57.47033581749929 L456.3395143333802,58.496595672259296 L457.34312999143435,59.23303970665152 L458.22588700495,59.76672193367405 L458.57379472603986,60.23585041762189 L459.1632958122175,60.4426547224777 L460.3036069365039,59.92566200787823 L460.4455364578188,60.03477974647241 M454.40464019614444,60.643712769419054 L453.85098589428367,61.3647462530668 L454.0918952600674,60.98561075571662 L454.37194304855973,60.326146122554235 L454.7582866820016,59.85965463721747 L455.0570070079386,58.672372317943925 L456.4296496250555,58.25101696149081 L457.78917554527936,57.193835405725466 L458.11277093616707,55.69590141177881 L459.25058112065057,53.98862714988604 L460.6349765736706,52.95475662216163 L461.1693009739084,52.23082455619028 L461.79549223217623,51.64839791523019 M471.0259971663512,55.939632769626535 L470.6685706814154,56.64556351377088 L470.6876620970655,57.949494041172606 L470.5205674051989,59.86489810154477 L470.86569575203237,60.32546639539675 L470.5398117082334,61.81534409967968 L470.75042017512305,63.75119652413428 L470.1560009509618,64.56219786475202 L470.1416431879544,64.86327515697673 L470.9319288817162,65.75235769693943 L471.02690266694856,64.08907166354638 L470.4880047667075,63.2017609474884 L470.9721960582365,62.77314740950955 M473.58096563023935,47.534970394117714 L473.5642389456691,47.43290364955747 L473.551316277212,47.32340007410559 L473.54623510045417,47.24086611803496 M477.32057759216553,52.68225901615541 L477.88211593687316,53.368207473174984 L477.059739844785,54.50008705573724 L476.6805439514799,56.306564607753494 L475.94290616495607,58.04032743328724 L475.9021434189074,59.7613287595175 L475.76442032925826,61.70193729124849 L475.2884389594089,63.22768714599469 L475.7100535300207,63.76710217281761 L475.333510766322,64.0299597306359 L475.305152578791,63.972677105695695 L476.25660968440394,62.43968223701872 L476.5979844730915,61.02555868607529 L478.2041385230928,59.239979583974254 L479.1925702463153,57.09247659722161 L480.151664938886,55.78344388106546 L480.9756524761477,53.673086116351655 L482.4758633567212,53.20044997127329 L483.32462582370187,52.81858258695485 L484.2197745408906,52.9503495181835 L484.4655059527388,54.05922713486506 L484.5680311067721,55.233728817425295 L484.70187772381206,57.0885445849642 L483.61045499440826,58.975327380112475 L483.4441666416374,61.058512570983154 L483.2903763982711,62.64768790879707 L482.6483751997505,64.04052510817519 L482.39257681050975,64.2300689750841 L482.48364506582254,64.0630042644433 L482.5465618804834,63.19109728728595 L483.81421202176483,61.813433551898754 L484.4020399922045,60.59038933924248 L485.3034868755562,58.40694431508126 L486.3401795539926,56.05536910961767 L487.3995211894881,55.34839149978148 L488.1378867967608,53.38908964011704 L488.8845826061914,52.80835039839155 L490.52022854681434,52.66426250720124 L490.25598567222414,54.45771696963122 L490.76901184986696,55.1049676157467 L490.7718250476504,56.75362099188019 L491.09370222162386,58.588088373527974 L490.83946036961214,60.5581632178076 L490.01433486700404,62.78762281505171 L490.2079938588629,63.96877981534682 L490.0061172623158,65.41569079412433 L490.4988662553639,65.65538156740224 L490.134187439401,65.57200420011333 L490.2941892666181,65.83086408814543 M498.91422898555754,54.40442889715895 L499.03897099211304,54.50046457531862 L498.55504617819383,54.3621810263687 L499.4726206000356,55.36012379716598 L498.7088536819773,56.61664050977464 L499.4840756372389,58.30187880471441 L499.1822545130391,60.63152854129391 L499.57215830569623,61.715031218244626 L499.4500856649843,63.047688587250946 L500.1741082414077,63.87354843295285 L500.58659266111727,65.26651058042357 L501.7049314093531,64.8275594799428 L501.90284106985507,64.51311157333213 L502.8046504479721,63.657743878616984 L503.42145155202434,62.24368661803807 L504.6274734577994,60.266726562352844 L504.9311087025916,58.5064228389523 L506.32614456456645,56.80817973312967 L506.50901238328026,55.27332910606783 L506.9422634761196,54.07458224773104 L506.7749550984789,53.59832180204197 L506.401400322466,53.34671200269993 L506.81759249487243,53.873907234489344 L506.4386460760744,54.90702210419437 L506.66472716521855,56.08516876785106 L506.4562743706889,58.12827538037686 L506.4712638931079,60.37826443531875 L506.3893319259853,61.89212752471656 L506.2302967207876,63.819781885034786 L506.47262056047884,64.67629345517655 L507.00429549951104,64.98005661648943 L507.7594335397805,65.19981836555239 L508.2655160066314,64.42988103584518 M515.6989885683961,56.54570250263554 L515.9195534691839,57.52350062414722 L515.615300926492,57.8220995930734 L515.9340406488714,59.20802396878985 L516.3680179427904,59.88232662380758 L516.7536480762378,62.237367195498194 L516.2138647408167,63.971604760987695 L516.4944974809116,65.23904256615822 L516.5396684784964,66.85065794403539 L516.0498928251477,67.26306112047854 L516.2159260424453,67.62343877114897 L516.6689845199855,67.80790268380075 L516.2113180358027,66.37132115188726 L517.2295666377581,64.7761204846845 L517.2146761618609,62.97514328713832 L517.4047014884236,61.78488646713547 L518.3600759327769,58.95638587083958 L518.4885535831745,56.88689371295654 L519.5083281003112,55.39087593939667 L520.8988078903608,54.26371128599169 L521.4203475942707,53.70924943608518 L521.2036947913584,54.42152141589883 L522.4676072103994,54.488497301690614 L523.3400740812401,54.792258383534104 L523.9874543704445,56.642117978989454 L523.1074778075582,58.06265727359523 L523.6267346770082,60.698082032153074 L523.8488905495265,62.39269170533114 L523.0387903250073,63.324314172812805 L523.2559700309758,65.94163836570708 L523.1738450163404,65.77875904317452 L522.6901380830776,65.61129283598801 L523.5744364323605,64.66325100891694 L523.7667862524561,63.28421061554096 L524.0598885020954,61.931599445029214 L524.8034218043808,59.465914356520706 L525.350090423059,58.01894759668588 L526.0850438734624,55.99880375854912 L527.2796361042374,53.719674164757464 L527.7979848186453,52.52923915766209 L528.8905136845158,52.00684665303342 L530.3830604146933,51.48989859706222 L530.9533406555929,51.730898877199806 L531.9038760152073,52.768859686140445 L532.3736553899591,53.34798037195483 L532.9592016918834,55.033552500680145 L533.185310784727,57.889448546594735 L533.2031226594086,59.121424462268884 L533.206064978594,61.13280573087998 L533.2988371853169,62.327121468086894 L532.8897244359509,63.62643941230972 L533.4971155662893,64.15777453225616 L533.5218382937599,64.60182026300316 M553.260848202601,54.42957479746764 L552.8842012063258,54.346985597953 L553.3510074383348,54.94300762586574 L553.2786872248118,55.6383109221468 L552.7114582055367,56.75058011888274 L552.5614005117474,58.201433471372276 L552.4339296822536,59.84112498618286 L551.6493051357575,60.84405478967082 L551.1837863846929,62.98252109907758 L551.3470546496701,64.16172559799001 L550.1720886824899,65.57938270273772 L550.7506422737868,65.99334824863618 L550.7955956551617,65.79257429480278 L550.5650123429623,65.60291278104754 L551.1491991578471,63.81726918033157 L551.2405364862351,62.21437861145828 L552.0867783893608,60.56794522130937 L553.2743217795968,59.00370835034688 L553.6027428928518,57.09745681961628 L554.7530552474115,55.564392195334136 L555.8362932686312,54.699051109696086 L556.7525542832217,53.203178901750164 L558.0066664864987,53.37981844729947 L558.6453937749343,53.76975438546582 L559.2538327199585,54.43740863301819 L559.7332311292632,55.65983534063242 L559.7847010493031,57.419067116351265 L559.4254520459768,59.41690888107367 L559.4608753165819,60.915918470413175 L558.5066016463572,63.05129844916956 L558.2656319345712,64.06391166427413 L558.0689957608075,64.28175733041083 L557.5417639156035,64.86922199405738 L557.8381819254985,64.88675935816674 L557.7380356796683,63.64521053939781 L558.1920029272496,63.181659461735705 L558.6304492109323,61.48850038140639 L559.6466244194911,58.86247036087347 L561.1175577806629,57.16526047386562 L561.3942662269202,55.59880036148728 L563.686280772265,54.56056454710304 L564.9121840877988,53.85390851243864 L566.0860319254031,53.65021500857145 L566.4928484513057,52.82832658769778 L567.5291249318328,53.80554375516575 L567.5304399529999,55.18929679197518 L567.353933337907,56.87320888423848 L567.321951029923,57.89629139032344 L567.4550030464729,60.26939458679425 L566.5219132368103,61.23808048214027 L566.3662852038199,63.491960322242264 L565.986448666582,64.26364625840016 L565.5367927229039,65.74365254110958 L565.3244708200368,65.52700254021904 L565.3879830276303,65.61161767200417 L565.8098101546743,65.02276648348258 L566.2450934859887,64.68152518317089 M572.7848590138717,63.41904692846382 L573.504092978558,63.290256931115096 L573.9676596751274,63.106220795054384 L574.1302546107208,63.06806945828501 L575.5583296848611,62.34116063102628 L576.7366183460447,60.479684524719126 L577.2663479964194,59.33529272994025 L578.7726062215845,57.872134856550694 L579.2095400063891,55.991897387561046 L579.6440651435373,55.24201725978275 L579.5121233146576,53.683738521439466 L579.6216216349901,52.95007345006763 L579.0169350272741,52.58745206370055 L578.2156218725935,53.00803201620134 L576.6376898009052,53.06028633238274 L576.3272669335977,54.38902928862156 L574.5335725962038,56.20204525007111 L574.4275526433325,57.50567811107041 L573.655052245536,59.835840564379474 L573.4639078273431,61.33769221568321 L573.8710928296362,63.80351241268953 L574.1219747417849,64.99714568165462 L575.7914156058428,65.67010154331999 L576.7360726981341,66.19431928712905 L577.4744118511496,66.23566077150979 M593.7172856961,56.2121285722259 L593.8111931613282,55.92877931324302 L593.4098144223617,55.4257775024597 L592.2257265689257,55.412019846416094 L591.33236448808,55.36506818991182 L590.6098078254652,55.928424118970035 L589.6633240328015,56.52522888989054 L588.8195473628176,57.56186265198404 L589.2304468316752,58.67702661336481 L589.4824476482154,59.44470827424978 L590.6433864105413,60.51640565838941 L591.7007811885632,61.65244556160438 L593.0831250218899,62.13157368293875 L595.0886585315842,62.860043792398216 L595.9289070681017,63.72804852298829 L596.8201869556731,64.61606621051706 L597.2673584623088,65.6383823316903 L597.2950756861889,66.35525054284598 L596.5693757999336,67.03217217816182 L595.1390190691361,67.20996868055143 L593.9006989850233,67.48186719929188 L592.2401432483509,67.5152579396601 L590.6507234082756,68.28216450345641 L589.6603646225533,68.14924161857566 L589.3344184274931,67.48823348552179 M601.9477857662785,55.8954333809017 L601.6289844296209,56.412389528332284 L601.5021531031732,55.26652911539824 L600.7676222567784,55.74602058646462 L599.6167736690348,55.77542511808307 L598.4227848849669,55.94815707047201 L598.0016073233503,57.021724981597266 L597.4619150853515,57.54519916142589 L596.5131939904417,58.429204441385195 L596.6485906930366,59.05106695177268 L597.2941350244406,60.17884865192067 L598.2702407068487,60.918489188214686 L599.5660061861543,60.63073158828354 L601.217416470271,62.020614747836355 L602.6886678036417,63.03486781927484 L603.4178393712363,63.39937903988098 L603.9020108907761,64.08219349394511 L604.1395455323106,64.3990316559235 L604.0179355737932,64.70975698102343 L602.9918359134633,64.99938902070106 L602.1197297204135,64.80896501876018 L599.8988134713652,65.0903974555225 L598.4860567673095,64.92397995459024 L596.9915340514569,65.00122640865139 L596.8029740380709,64.55763993439298 M605.2874845730273,54.24757720089441 L605.7136830799823,54.251672349856754 L605.5710249876674,55.4726881311755 L605.9113353629107,56.522189498529826 L606.2767223305951,58.58267012555508 L605.132432373469,60.027514164675146 L605.6516772472693,62.40436048175748 L605.3325228363105,64.10668951009103 L605.305894849689,64.89934225545576 L605.2936536794587,65.01519936653774 L606.2563004906153,65.56286343137853 L605.8698297855624,65.70898171627988 L606.2580750065325,65.23944173124092 M613.2101195316682,49.86651713995411 L613.2041330759357,49.773816458087936 L613.2106081660401,49.668872620704946 L613.2253706806744,49.584663826706034 L613.2442998777494,49.55415274673007 M620.6529746186798,58.22734096629426 L620.5475150840412,57.14918986972537 L620.4738034847865,57.80875634124835 L620.9878537014285,57.97578022738913 L621.3575121029136,58.760107578028226 L620.8839216377652,59.785548114436615 L620.5373975224943,60.73617184938523 L620.2387143642463,62.43203610323335 L620.9296494135335,63.56793370202112 L621.2928243532593,64.95842571662259 L620.3333661585311,65.748212864304 L620.679110433116,65.94506127605385 L620.8463597757448,66.47629528682214 L620.9510077855127,66.14736491252205 L621.1119469815033,65.14803734508959 L621.3340603076485,64.65013899958247 L621.1055366962587,62.18015939143574 L621.4780788069856,60.821976467791124 L621.7383510714075,59.50789832960787 L622.2238613416596,58.48144860910614 L622.6622796233714,57.30246999104278 L623.8337435559777,55.979283629799895 L624.7171616886371,55.22937938693994 L624.860428393944,55.10359401047149 L625.2994450129156,55.49963210924297 L626.7129136650333,56.1900897871304 L627.3459934948014,57.112993432240145 L627.2102189429138,57.506534332425076 L627.6705498027013,59.807665267835915 L627.863747067511,60.97015998951076 L627.3405415241818,62.29391325792607 L627.2080242341204,63.40746334035488 L628.5176569529286,63.85824174324276 M628.8054965560017,59.454657314176096 L629.0702422339466,59.31447381209852 L629.5669216314348,59.568635768096556 L630.8651722220795,58.64515350166606 L631.3786917891919,59.563619187397684 L633.2650551435376,57.89965047858613 L634.3204573994556,57.07840288636905 L635.3293830899747,55.88379215674713 L635.3973594151203,54.354957891945546 L636.6887480549819,53.65638717001151 L635.9055094983289,52.183751764063246 L635.9223102099407,51.91465520369616 L635.9365260682563,51.198959769580746 L635.249791655719,51.00635142708478 L633.7155837063308,51.496493235374544 L632.6853410807701,52.401157461762054 L631.5702181793486,54.05452714211759 L630.7263670353955,56.12444636722621 L630.631764792555,57.36876002345478 L630.5394280097303,59.30927809988676 L631.5919166725826,60.43786917159979 L632.48434658163,61.94666172792879 L634.2929994786487,62.23397301273916 L635.7265736901106,62.03887526964767 L635.8730648589385,62.368984085993596 M651.5899645173606,56.780469516593186 L651.7738733129094,56.48983351242157 L650.8013290749584,55.91500830070603 L649.7471644281079,55.70258833519825 L648.6940110573862,55.597775518736114 L647.7396971973815,56.36502604278382 L646.3065430936592,57.589169809356626 L646.095533513939,58.48337414115787 L646.1008474850989,59.33022073564507 L646.1842355619489,59.39471044314958 L647.2888540832334,60.50435081028832 L648.444206698749,60.84457394586705 L649.8928678430079,61.79182576592996 L651.4528756297839,61.87014592565389 L652.8786569554518,63.02378625133895 L653.6506300708706,62.75973224094685 L654.012172947555,63.45890897031357 L653.0827573291795,63.7095218635145 L652.4348454678361,63.61484023927733 L651.2647070685514,63.89724811282815 L649.5449425715051,64.68494721669515 L648.3082389054462,64.58199300680951 L646.4523996911645,65.14198991375888 L645.7271102660627,65.67167693164699 L645.3951508282046,64.83434687605705 M662.3874388598747,53.5396661688127 L662.5070404252897,53.534781638806365 L662.2335822133512,53.3676468928878 L661.4587959023211,52.8826060974442 L660.979725666893,53.36700002967383 L659.606692920057,52.93693912128604 L658.9293261463324,54.09030112794015 L658.2284511638115,55.09631312313788 L658.329085900202,55.73204917335052 L658.2614643932131,57.56819085707977 L658.5680754557345,58.394786402284865 L660.2254186401661,58.61622358908392 L661.9093076352976,59.30078113967049 L662.7600370664653,60.967818314912456 L664.1260298662887,61.43260219046025 L665.0471887312046,62.000527051554464 L665.4072164921431,62.78795826365635 L665.3872150779915,63.762457063612594 L665.1506016739754,63.44930369869466 L664.1270893603098,64.01823137062794 L663.5512694148526,64.41420004084463 L661.2264367220556,64.0354751049921 L659.4570483443682,64.63276174041397 L658.2617184914569,64.7193325283621 L657.6715493612251,64.09227061915453 M680.4890256969848,45.0 L681.1726738638946,45.12323656714499 L681.0278769272769,46.52835466276143 L680.7564898118688,46.80967836759523 L680.3502696614265,48.273846758575445 L679.9307243200844,49.7755688433673 L679.4793284686386,52.47143174110642 L679.087389763874,54.27533536094298 L678.9048129590166,57.471113282122595 L678.5595655545112,59.73852034941347 L677.7652447314183,61.9673998402866 L677.3268588588471,63.7819414672699 L678.0025489107717,65.02088103848754 M687.6184193839235,60.95184340368821 L687.2589272459388,61.21801805301457 L688.6675674209696,61.47248839552838 L689.541184237372,61.187926277591906 L690.4408588710927,61.26026145204839 L691.6842051830797,60.972206169609166 L693.7177950034111,60.25833659656476 L694.3595378427336,59.21571908845942 L695.6601201713594,58.11700855294978 L696.4525914169169,57.59721416782557 L696.8561274339788,57.09066507007777 L696.5355469107626,55.62767230077143 L696.2416505168745,54.93519351253687 L695.4492690264149,54.56199432154759 L693.3934172574745,54.671341469382384 L692.5910036124685,56.32644168336006 L690.602043628046,56.602961365528785 L690.2514330369327,57.87212497578304 L689.1496510690697,59.39401896990952 L688.4950608597313,61.42042595251601 L688.8236236096459,63.14974632549051 L690.0846729777417,64.12121705681561 L691.1086627520101,64.97857751979816 L692.3492905052153,65.73972837576189 L693.6542571615364,66.06150377634269 M704.4660650928861,54.4684117880698 L704.4839366294557,54.78016856609332 L705.1334303942256,55.73416947546238 L704.6012108183692,56.49915299660202 L704.081013333446,57.33456963649235 L704.0134629319498,59.06460855003323 L704.5432275379007,60.56279044922261 L704.7022555318754,61.881415816029865 L704.1667271762102,63.42630124099983 L704.8441583259037,64.1040913670866 L705.6502726070793,65.2282140381223 L706.1519976858631,64.439143907251 L707.6546339515178,63.659878695943334 L708.9773402057731,62.52223305907672 L709.9902711508266,62.385108624982294 L710.894845406991,60.096366129810995 L711.4937665797604,58.23265777111523 L712.0815775589455,57.06068321684838 L711.8132721125808,56.15789802693664 L711.6394675123615,55.04566342213794 L711.6905167322751,54.53327543943987 M717.1375940421947,61.99721550691994 L717.6642282126905,60.828674703427424 L717.9425558490481,60.466801974942506 L719.003004100947,59.579987471330575 L719.0970706708501,58.704212605403846 L720.3976646785047,56.456437280758834 L721.1194498066482,54.99075791938082 L721.4801375679997,53.94462032213942 L721.5956364782346,53.25088911322532 L721.5071715606311,51.9274032893459 L720.5020696341589,52.23377976930037 L719.6926797838121,52.62702369169715 L718.9583514511143,53.26474328124283 L718.0062045826578,54.448271319094516 L717.1631934308366,55.65395263675685 L716.7827475659492,57.13104479210855 L716.5411691327106,58.964607174352444 L716.6102473490889,60.60390958300589 L717.6319048669657,62.4370125888122 L719.1288686806249,63.81627989677016 L720.3332454672952,63.95671035502865 L722.0452799692491,64.03958963990534 L723.669815346389,63.63817618417103 L725.3946577645615,62.969295962441194 L726.2116326816438,61.564149218614304 M730.5568262201098,45.326372017724495 L730.5076318841723,45.29665934072254 L730.4175439935473,45.45706831441639 L730.2728601556566,46.00398241506336 L730.0668359857348,47.08891188131092 L729.787844286516,48.698232521874885 L729.4253259759691,50.724636902673225 L728.9980188470629,53.00075613485096 L728.5779443841723,55.40711986051319 L728.2578760247973,57.89317213521717 L728.076906786516,59.93565010057209 L728.0209375482348,61.268422951562385 " fill="none" stroke="black" stroke-linecap="round" stroke-width="2" /></svg>