<?xml version="1.0" encoding="utf-8" ?>
<svg baseProfile="full" height="100%" version="1.1" viewBox="0,0,1000,120" width="100%" xmlns="http://www.w3.org/2000/svg" xmlns:ev="http://www.w3.org/2001/xml-events" xmlns:xlink="http://www.w3.org/1999/xlink"><defs /><rect fill="white" height="120" width="1000" x="0" y="0" /><path d="M0,0 M283.4290146228803,45.226231468926535 L283.5265525655425,45.705831136167674 L283.50131742691184,46.25603915729842 L283.5677398883054,47.584450855275975 L283.3277971916176,49.198240039178344 L283.4166894264008,51.19827754378075 L283.23202917584274,53.193805531628364 L283.3105064983904,55.27068167608081 L283.24505840034277,57.47396603459846 L283.08988385542807,59.82165877937685 L282.99844126528785,61.4635850044001 L283.27927051274094,62.62258191163142 L283.3190744495058,63.37479151182426 M296.5634790733746,55.46349895436964 L296.39058770555505,56.12774296488192 L296.21250267868413,57.10452029447623 L296.0295447619277,58.55821009253058 L295.93348725401137,60.15535206976565 L295.6502512550778,61.389434799537085 L295.96475185629026,62.555512918011495 L296.0979213587046,62.81086147164726 L295.9375172320516,62.805584903034735 L296.7734427673081,62.36113979812913 L297.20704737545293,60.95750047915335 L298.07953254675897,59.4466603836514 L298.9065200325615,57.64541668007604 L299.7610636979632,55.84649568854752 L300.63885971455863,54.34036277178666 L301.7326816012614,53.04110183181461 L302.77883484920676,52.595604192639584 L303.70855637314054,52.29853510980386 L304.42461058929507,52.512310940372835 L305.3105032690087,53.43798722948106 L305.6046888571318,54.75106648508963 L305.7876074525951,56.30946245040539 L305.6492810255305,58.212172259987526 L305.66122898033865,59.93227979887256 L305.9197443713505,61.67165882399748 L305.7962032729281,63.22350555936993 L306.0890431557609,63.958647901654146 L306.5227624831569,64.41072035175887 L306.7584973535706,64.70118769683056 M310.57212931666186,60.35067352612923 L310.791874571029,60.1375362737567 L311.5258699088164,59.85824626167503 L312.1021702308276,59.4280352447895 L313.22564472779555,58.419316485153004 L314.1625574390469,57.27029805719697 L315.0005270925068,56.21011946959819 L315.26461178724344,54.71509607506439 L315.63432540513617,53.759813617943934 L315.24940162071624,53.062212565182094 L315.0466596609836,52.54943556422717 L314.3780990050831,52.4181298707086 L313.5053736583783,53.01858710823031 L312.4536099147921,53.90616526577921 L311.2803929109382,55.51234757252186 L310.64149799147333,57.092294792846666 L310.3248130685612,59.24280142804658 L310.73211788086775,61.23839216602532 L311.2495446551445,62.714061276834926 L312.37860225145056,63.721209508709876 L313.1419124099825,64.15416406295014 M322.3228013108476,60.02231836352807 L322.31552011090906,59.916917541252246 L323.05810283051653,59.48845962717454 L323.83999864777576,58.78746413015176 L324.9397159071458,57.70522015259999 L326.10537944387113,56.69714190269416 L326.9153757582367,55.32066102024353 L327.7209762777087,54.23003508566724 L328.11833515464735,53.15138859537936 L328.09510724572317,52.36324915959026 L327.73527367239524,52.06551941851765 L326.907340305221,52.04853153541421 L325.8144480416949,52.70150383461745 L324.68567641871687,53.620397929322806 L323.26480306113115,55.05177024118192 L322.54893214186086,56.75689379401739 L322.0274423849284,58.58268504449983 L322.27469697438846,60.21486560577543 L323.0636035655381,61.62310135935273 L323.8546125848236,62.64391971688447 L324.84988357084677,63.027019532508106 M339.3271792881152,57.112147904620436 L338.93926635897435,56.75796007427949 L338.630324014575,56.221736165401694 L337.89082029056476,55.73079941189398 L336.946188446795,55.490990658139616 L335.8121079367205,55.78847572448361 L334.82379083188073,56.33509255830445 L333.75148998162484,57.47780474976845 L332.9421227241978,58.635398856130124 L332.3322322441454,60.17480247962256 L332.33528575386606,61.61279151962185 L332.68887035008106,62.825983254375636 L333.6885977634607,63.71975488076899 L334.80136624750367,63.818358252985696 L336.3670335768709,63.36264358888536 L338.13294971663106,62.34286114515337 L339.6921618817251,60.76914960921005 L341.113548546724,58.51997042857311 L342.42179043752884,56.12606067100778 L343.3811445393357,53.84307502253738 L343.7610583437097,51.3381384795445 L343.96090936133857,49.32416670355087 L344.31347656851284,47.73551441605191 L344.19469536062616,46.63870706912879 L344.28287492045763,46.32072571477403 L344.1636874298315,46.33825813557972 L344.02752892459307,47.07497394153818 L343.74235804589085,48.51204279093366 L343.6676981226863,50.62504284121498 L343.3683970458122,53.277040372898796 L343.42496110132333,55.77698687661795 L343.4397820964883,58.68815861466558 L343.80427955068353,61.03363814893655 L344.53224122199526,63.37336536803116 L345.27048392354016,64.73615582469569 L346.1086518934027,65.51751289273021 L346.47559674570334,65.79203814138235 M366.35947412857143,47.29625185891612 L366.34966953670323,47.5809710121914 L366.2375170975583,48.086328108540094 L366.1427172044657,49.58904691500017 L366.07963916631627,51.17989395212518 L365.5078261001431,53.04561331133381 L365.4780326285916,55.454871121590415 L365.0018420138078,57.776058020458315 L364.86599259019044,59.984901441819936 L364.7386380594831,61.773222776633695 L364.81940733248496,63.131370178292386 L365.1591121699966,63.69754637747316 L365.2239061153407,64.01115704674125 M361.9636192062618,55.98833101551509 L362.20260161277264,55.84864620617913 L362.72361541966177,55.696214527602976 L363.6678504697085,55.59093584876916 L365.44552869383165,55.664424409393035 L367.5488397385695,55.3594690851276 L369.6138421784644,55.27928834543447 L371.5274946685697,55.092201239503005 L372.6749640019871,55.13271354582987 M378.2896997804072,55.16393640132716 L378.3401961380521,55.01974289764731 L377.8832100356576,54.68570062380906 L377.0390423191195,54.60634859063816 L376.2302167236514,54.694745539834784 L375.3038639536657,55.19588381487541 L374.1011902730054,55.83960743260457 L372.81251123104676,56.97039320840415 L371.84657443104163,58.39085585885157 L371.51148907788803,59.69196756400308 L371.4991326348271,60.95805069725437 L372.07187829793133,62.04963569901007 L373.1230879805041,62.607153918790004 L374.3936015644032,62.77732407070964 L376.03136213148935,62.47747161732204 L377.61705458457135,61.64066449735277 L379.0215240826891,60.6180888439202 L380.1930921804043,59.21459926905828 L380.7729340606825,57.8877081063677 L381.0985848496997,56.60277932858446 L380.6639258213954,55.436510510475806 L380.11405135757866,54.53861828530514 L379.08519744955066,54.24054306036187 L378.187424138163,54.05927213255427 L377.7360448376303,54.03287825374979 M400.87551255021464,50.67076583211131 L400.56306991367126,49.92607436167247 L400.4267797638392,49.16193805323536 L399.83675511178205,48.23959600806589 L399.30967006752957,47.70087807071513 L398.317555061201,47.53568540659397 L397.39691758290104,47.82947426543497 L396.4981139315579,48.364063325200576 L395.47520664106577,49.566601940375286 L394.94316367804004,51.41551392243126 L394.5678366604147,53.46942456183809 L394.29677639895766,55.79951909697869 L394.76421603775856,58.17237013396483 L394.79642668882275,60.73003098482201 L395.2644102131675,62.811495254610676 L395.9272265042638,64.95986059986933 L396.45585243059753,66.06402182374102 L396.90118305985237,67.06697022879223 L397.09303267808815,67.24054448244118 L397.25714745004143,67.12391418513018 L397.3433654030987,66.70553066290645 M393.01102817748745,57.748650660253745 L393.2649567949239,57.85254378723178 L393.9404096799136,57.702921647309324 L394.8620650723701,58.18938599706692 L396.3555247365362,57.85715343871906 L397.9566710798636,57.92160696606977 L400.05247623795924,58.11796342467629 L401.60565407190074,57.817339345726765 L402.65580963443546,57.56330716317378 M409.0340949405635,54.15616769818931 L408.97766715318346,54.66220048306558 L408.951582360094,55.606409675693435 L408.8423948322878,56.764037544095224 L408.9989221248138,58.01743741965288 L408.8255003779408,59.91366322619772 L408.6997263653418,61.375950056882736 L408.957165038573,62.729601983138515 L409.27378851853007,63.7496754070369 L409.3598392581011,63.94249061566867 L409.457925629119,63.895003586023144 L409.58772777804165,63.62141558253279 M408.82846694791215,48.407377807913335 L408.8742592253858,48.24295384535213 L409.0111882229654,48.115401567499774 L409.1847500246275,48.057266888100855 L409.3404258318801,48.101093279764655 M412.9080699494307,54.29484493412748 L413.00125468983293,54.11691463065944 L412.99771549451714,54.33955957719985 L412.87757711081963,55.10405010314942 L412.7954611784869,56.003124026126414 L412.86926209970835,57.44900393637427 L412.7747325608484,58.997397193895225 L412.77370164928766,60.423151487494565 L413.14955268417316,61.77629098473452 L413.34739979802475,62.723891638454134 L413.4443601899501,63.253246031317175 L413.9496693327299,63.3316227195208 L414.1807818016339,62.28533597483338 L414.7783407499628,61.40908693672058 L415.44112934752695,59.899850453416605 L416.0158832376181,58.25413548438755 L417.02681710096255,56.54237651707499 L417.8747514304082,54.92841243541004 L419.016786634265,54.10353499627789 L420.06862194787607,53.23723759891861 L421.15255075032314,53.2808528635373 L422.16708634175836,53.51295887514802 L423.06540702799896,54.34987847776938 L423.46380406618914,55.80868417957742 L423.9650193511525,57.2814070896167 L423.8585268054637,59.0730595493693 L423.75164338030163,60.731136483086914 L423.64533046351823,62.313493317254625 L423.81261443128574,63.53962729205564 L423.7991477026355,64.14794671744917 L424.01433717553476,64.21206386142289 L424.2418642612507,63.874918263438445 L424.4210925797441,63.801668327620625 M431.01937986040843,56.158845050462915 L431.04590023398475,56.26901067242865 L431.171475097501,56.43182884186266 L431.15287227512994,57.0496388802605 L431.0547553639369,58.17616199205094 L431.1733575671761,59.66568362221268 L431.10693751558154,61.12996592724216 L431.0895001929082,62.44472480075867 L431.2585476995385,63.52932779526398 L431.4349340091553,64.03187747960547 L431.5837204774334,64.1717651148985 L431.55250043533226,64.03029087478527 M433.9304116512841,48.90747143081782 L433.9939080502098,48.84789606787278 L434.16031597867664,48.84821178100414 L434.36462933316886,48.899599256664125 L434.54184201017074,48.99323918130499 M445.57555911123825,55.046887997799004 L445.4901560099727,54.83853850105115 L444.6470605877381,54.60670652074819 L443.60555477269713,54.59627264314751 L442.3016643049948,54.462484088293095 L441.00700658233643,54.95238144147333 L439.8844336709659,55.16099662183821 L439.1999851255481,55.8309385160203 L438.689056056789,56.38488027026846 L439.1589854391856,57.313167428088505 L440.05859898034157,58.00518785979188 L441.2143615452268,58.70305754445361 L442.81442450329865,59.44257720079294 L444.2194560231544,60.11325835779491 L445.63393167238684,60.66255516918436 L446.6668509954251,61.535380687191754 L447.1873176278494,62.160025074512944 L447.1558557928081,62.83982961079838 L446.3944875056944,63.51605044336323 L445.3732921976048,63.975348811861494 L444.1232909123643,64.33093921417989 L442.59282723073443,64.33753972761548 L441.33596320264087,64.49017355084888 L440.08200593164406,64.22043315195245 L439.4501187454152,64.09517367546489 M449.2176034529924,49.69385299665041 L449.19304284530256,49.90761086027395 L449.2620313651503,50.61398332137775 L449.1410913394747,51.63642860384679 L449.15650285104584,53.24092611848975 L449.23811082188104,55.01418034238406 L449.1634996857117,56.91255539726506 L449.0317421347065,58.968187272319454 L449.1076837808397,60.50993731890382 L449.25344511763785,61.64270510065679 L449.3356079342137,62.533871849962814 L449.83506784963674,62.81851665449629 L449.8140141164255,62.5630200340019 L450.48179309048635,61.76747824394303 L451.22496049037375,60.578173026241295 L451.9447303911003,59.20295829426166 L452.8550917273982,57.57457411678553 L453.73331404839166,56.14894533258547 L454.6870409056867,54.97333665399141 L455.6584082101348,54.15352899353075 L456.55126374182794,53.83804288774628 L457.41309964944105,54.0998115447625 L458.13905901471367,54.65726012171521 L458.75767409075206,55.53450272834407 L458.99621691520144,57.05025919787319 L459.3546890470369,58.44722925062133 L459.53457174779817,60.207034863254826 L459.54861759552784,61.63841991794195 L459.5281172620595,62.93004277649908 L459.58719386236146,63.66782616177404 L459.6889514682664,64.03834723176381 L459.93655226322824,64.04362374591211 L459.8546806231936,64.12296015751403 M479.13512585934575,47.79812392015219 L479.2365428461368,47.771321142431994 L479.1195555601184,48.14438717678776 L479.036758675902,49.05624031481924 L478.94007210058794,49.989181959904066 L478.80258792773674,51.68925466294721 L478.8273792437441,53.63025418896356 L478.470141620329,55.6149468703071 L478.2671539668214,57.92418643730285 L478.22335593832025,59.840948940658706 L478.2060942364958,61.69637085455022 L478.21782190522697,62.7217062328797 L478.22897738054655,63.487068873739084 M474.7438791917946,56.13139319599412 L475.1084399601162,56.08952873139559 L475.90411841024536,56.007160436768174 L476.8295771494586,55.91485932855163 L477.58341972022663,55.8432005764577 M487.8209641284283,49.17271318450966 L487.66096860710775,49.448962034492695 L487.82433426259297,50.076526039786586 L487.78554211288576,51.15013240217584 L487.9000951179587,52.734833686835316 L487.81461357982766,54.66565795019291 L487.80697640554075,56.73342616959825 L487.56217232039785,58.60101588046264 L487.73884553715817,60.03271414500955 L487.66111959048646,61.30422883616662 L487.8776896794462,61.77109393710832 L488.5380473775525,61.68162434160324 L488.9564519129187,61.16791455233405 L489.7538580087546,60.11737561586285 L490.4999152364533,58.757936574406386 L491.6438384478133,57.098186970077364 L492.6903877029762,55.60828517626671 L493.58902481708407,54.49824178628042 L494.49892715711337,53.62553976944296 L495.3635381269157,53.14866905220448 L496.17042882294254,53.480617116133786 L496.63627421111175,54.06134543811047 L496.98317063342984,55.41525257230391 L497.10566694425336,56.557311832229786 L497.15025897354406,58.48342324135184 L497.22217041358635,59.893122926254286 L497.4677485023477,61.19860197674017 L497.5606092474311,62.06236217969543 L497.8076405947311,62.49087975848706 M503.12759893221516,55.88255235137731 L503.02069983030975,56.06299616284661 L502.9903205258483,56.43876662826288 L502.89829562365406,57.37159548188731 L502.89053550871034,58.53525886595808 L502.762692663461,59.99077463805913 L502.73546892621135,61.38430495437153 L502.5132780970022,62.95231554219547 L502.42217006590494,63.62692205063552 L502.5284048009438,64.2671362019581 L502.79943880301306,64.06336878944688 L502.8462251399604,63.52312881208719 L502.8448160404808,62.96409867401153 M504.89407594611635,50.451641871521424 L504.94307773796476,50.45875934998115 L505.0757865352221,50.55762028734811 L505.2403187254524,50.705443216126675 L505.38482030172975,50.85944657380375 M516.1583359160264,55.46273121483195 L515.9874151422896,55.218370532531935 L515.4066896264043,54.94503742677446 L514.375367459912,54.630688211351405 L513.3745359732516,54.48130641363754 L511.7529958656837,54.62893457926602 L510.87017095102897,55.02428181249674 L510.0482996240228,55.611631361013735 L509.85807640320695,56.39007066069261 L509.9371359239779,57.11555274241737 L510.71557842137753,57.967518723297964 L511.89986422732335,59.106524553853255 L513.3546706509399,60.025243579569334 L514.806300042517,61.06818217229059 L515.9458112634254,62.024117956694724 L516.9306390895306,62.736603923021754 L516.987671813268,63.30299538920211 L516.547838980985,63.67552969041829 L515.7357069571149,64.07370557796017 L514.074119412961,63.85873017258847 L512.252170062058,63.88178788662529 L510.444279950731,63.4634691814952 L508.92772979755927,62.9006647677075 L508.1964361669493,62.41527878278594 L507.8864880201554,62.07625683358964 M537.8814352711548,56.328435701078774 L537.6056489480117,56.01802582942128 L537.0824404391154,55.58190290461165 L536.5808014097289,54.941635386772994 L535.4941425755806,54.608494470657185 L534.587367970337,54.21524273278206 L533.1918352384171,54.46320501203494 L531.8377861233612,55.14816187766426 L530.8519317839055,56.01282915935872 L529.8188665823895,57.50249218528312 L529.1491926521967,58.50827815373752 L528.9932470981554,60.10339972924051 L529.2550314103762,61.11603974766756 L530.0398248049357,61.97596147397101 L531.1597005992072,62.309129822308186 L532.5016741214182,61.810466641366595 L534.0068878726802,61.013448638704205 L535.4748398206724,60.00765123784747 L536.7068757273279,58.60005628930229 L537.575321358675,57.15286120941716 L538.3114461023674,55.88626320032405 L538.5486799658945,54.81387168652871 L538.5771635977925,54.29308272075371 L538.6878858042752,53.937225051016014 L538.7151033200396,54.15731511045894 L538.4803336589911,54.72665727071773 L538.5004604309293,55.89874596232563 L538.1154931724227,57.44721763160215 L538.0979149640682,58.995909658283956 L538.1517723905702,60.81314149507405 L538.6323670021517,62.28470606412434 L538.864241577934,63.357506076658986 L539.1645956663914,63.96693903953336 M548.3071849988014,52.33560045004861 L548.1651023701634,52.39535897478159 L547.3389283303072,52.08307247095758 L546.4910734915261,51.91702879363834 L545.3000107364367,52.35606511425076 L544.220934289646,52.925417856796756 L543.1588374967472,53.5884208382292 L542.5877589230391,54.65663109899003 L542.5438335977783,55.80567265713572 L543.2116784205793,56.87310288776458 L544.2864102304686,57.799385919304484 L545.6543291532821,58.51197409141236 L547.2140975018499,59.27598751263405 L548.5515056171897,60.113168006017034 L549.6681643621312,60.574874502647546 L550.448081084494,61.18784400628624 L550.4841957318329,61.7071491972495 L549.7755303844137,62.30114868271628 L548.7990586331832,62.52370735458422 L547.4535826118779,62.758954200361266 L546.0631384913206,62.91920271068501 L544.8401670953722,62.9775541239655 L543.8332297741896,62.91362990541849 L543.2939860227821,62.589984650252354 L543.2912239157206,62.531645167603585 M557.5913388558481,53.975199298975525 L557.3970439298201,53.8262942797074 L556.9176498811507,53.23047614904406 L556.1906403713585,52.985554976094264 L554.9767194539171,52.974920555314284 L553.7624704554512,53.2072929809972 L552.4136884529712,53.7027642949623 L551.5784981638562,54.50182310978988 L551.1651572751175,55.259030576001464 L551.4319359763549,56.03692427001845 L552.4345744124138,56.89726757770042 L553.5278794730498,57.73244632759061 L555.0497972911946,58.37629512627771 L556.70947949849,59.05496903068125 L557.9913994052512,59.64328272427709 L558.7589238554249,60.42605109042452 L559.0181243825623,60.93134196699414 L558.728894347946,61.05556335156107 L557.7159339347456,61.372961061856564 L556.3326425542812,61.50732277037331 L554.7370238331703,61.33989046260232 L553.0691268313275,61.14643910586008 L551.5932010366373,60.89133491579304 L550.6926494955865,60.385621308575175 L550.2626956382658,60.109221008376615 M563.6832386519352,52.91410004592465 L563.428245636117,53.079560143324855 L563.4117598578785,53.603398467026466 L563.2445173001993,54.426447829955706 L563.1421083033306,55.445458656926405 L563.362597355297,56.90198632936534 L563.3266668900387,58.45310822067599 L562.9959866122833,59.9357709187636 L562.8172941948364,61.36197555835831 L562.9822491025627,62.31340141106995 L563.0730247648103,62.89611839779447 L563.3551691085476,62.821489741362925 L563.2400676767398,62.72813490171129 M566.3557929694521,47.475802985151915 L566.3735289763727,47.351806208487844 L566.4472279897047,47.30960487049828 L566.5464432832638,47.34976760365637 L566.6406689718976,47.47286002033272 M576.5837694227082,57.38071074237586 L576.6443981461936,57.103963522589886 L576.4486370302425,56.42592386912053 L576.1565654375703,55.74752298906442 L575.3729449225932,55.12598091257539 L574.491454873757,54.55559784066435 L573.0908337539848,54.49647483734884 L571.8721796589377,54.82425490254422 L570.8697064618832,55.57315631317289 L569.8005930881147,56.46807631558464 L569.2843574961626,57.813389206206175 L569.1804494540204,59.088328102915746 L569.6252324726181,59.94160415429133 L570.5574523954017,60.593505939284015 L571.9236080029112,60.56768134420036 L573.2551321002907,60.32195176133537 L574.8271528930813,59.48985402996009 L576.1310573158355,58.362682051238316 L577.2274097597585,57.25012564305449 L577.9163471579639,56.307474986820786 L578.1850567127907,55.48937991958375 L578.4147847499066,55.00950754219327 L578.1988672460877,55.22683139506027 L578.0696953458794,55.371760072216304 L578.1564455717801,56.52535396227831 L578.170031118704,57.62316795625744 L578.321243376256,59.32740441684793 L578.5780525931277,61.32243321641743 L578.8430511079632,63.24513553025133 L578.8697938321058,65.47327869055324 L578.9871856126979,67.12350912853682 L578.6172096074426,68.73009910224908 L578.4186072448751,69.90575052400038 L577.7218798295065,70.59189192964577 L576.9467340063262,71.22396614181181 L576.1393771516045,71.16305239647517 L575.1922837369773,70.5470720036926 L574.2927201518528,69.9255397176922 L573.6798934069623,68.9312336448108 L573.2367917605707,67.62722768841162 L573.142971787775,67.04730090872398 M584.8028765262225,53.87501314288446 L584.742133845442,53.881209952476176 L584.7603276123687,54.48616046954589 L584.8218337074809,55.136545475073646 L584.5029825649183,56.072718979849256 L584.2454427455255,57.450138723999466 L584.1589408206446,58.816804791577624 L584.0309713214305,59.924401421501486 L583.9255668635504,60.89759231882423 L583.8093597288428,61.300320210095144 L584.0021137982453,61.63232559090944 L584.3082520376718,61.161054168379586 L584.6402855883927,60.58952278206744 L585.3144439548955,59.168701741335866 L586.1464137312515,57.92930815250797 L586.890089750271,56.37984803858023 L588.0018967546118,55.05213398441677 L589.1105997400534,53.905868031159706 L590.1141099993056,53.162200626695295 L590.7478598138052,52.82021947301371 L591.5684611463179,53.031503170915805 L592.3067360946329,53.744748119567845 L592.7458311463347,54.519404000863894 L593.1345987262914,55.99369848091545 L593.1211689773635,57.517032499487925 L593.0385548200281,58.84099426985202 L592.761932637289,60.28554605025664 L592.6390950112062,61.364670489288 L592.4067111057996,61.775503129338645 M597.7875862598594,52.865049232282956 L598.0587440847944,52.962794836626436 L598.1267882785694,53.30457582149922 L598.0235211335782,54.054508838662734 L598.0455403351131,55.036579375145266 L598.1552022085749,56.29251838769942 L598.1611717914486,57.83098999861199 L597.849610217667,59.229698695066205 L597.7834311191635,60.50015465896405 L597.8295641165311,61.4506627593033 L597.673654627308,61.79555986812898 L598.1278405932851,61.86012842649797 L598.6090326178676,61.34496383541004 L598.9908742171656,60.075206505082924 L599.5518956825599,58.89936392174094 L600.3406761759431,57.129249789223735 L601.0910504552116,55.72233257351239 L601.9424394176278,54.28706128522102 L602.7438076297849,52.8177427138095 L603.4604011679767,52.208374660441855 L604.2384029751208,52.039444012005525 L604.7680591603986,52.09873087423219 L605.2221243460772,52.72832787652919 L605.5554420948599,53.826157599546754 L605.8843018902185,55.04320984639234 L606.1647602826479,56.325225225558356 L605.9650260296253,57.78629286734341 L605.9108005575913,59.027671577184165 L605.7831340942694,59.92948795309672 L605.72466090376,60.444176656570924 L605.6041829434936,60.120047034215695 L605.8015250507106,59.70683716727457 L606.2777554402321,58.62098262575026 L606.7650111636724,57.016633807605345 L607.3527360343417,55.64933411701289 L608.2049456118305,54.18820076252796 L608.9967665755416,53.00230923740036 L609.9391380738524,52.048965144885855 L610.8234739885913,51.28465915300295 L611.5703573807341,51.36479698694072 L611.9780042758553,51.60730510442886 L612.4321087181493,52.38975079193894 L613.0613783338256,53.550036958779714 L613.1339658546824,54.95366849773122 L612.9995762803048,56.91696902839793 L613.1850782608622,58.3936690707722 L613.1332866457572,59.67648488973158 L613.0408614734706,60.65122470309419 L612.9526250188769,61.12370650350159 M616.344430159794,56.19885451169205 L616.80341686821,55.99562591900998 L617.7386399863541,56.0584626920081 L618.793884269496,55.48487624063607 L619.9309195567935,54.87332509789048 L621.0283075229983,53.870234298998376 L622.256654756546,52.91031939452898 L623.0284905959331,51.831739019573476 L623.630981314097,50.85601725492744 L623.6286532350164,49.984818691972805 L623.2848284002713,49.37131610478031 L622.9799745892547,49.14707867645211 L621.8621295558851,49.12090390209549 L620.7867666633514,49.73485650544227 L619.5187918490703,50.73246014257163 L618.3087114658529,52.209892440222106 L617.4530277073834,53.776120785437286 L617.0433794473057,55.502239099595975 L617.268984988006,57.35450979017315 L618.2582861941621,58.570935373126936 L619.5444700030989,59.451367226263955 L621.3845625083715,59.915483366753705 L623.4573542552364,59.53166616526959 L625.0545600656299,59.323050869311444 L626.1473741820218,58.77922211400859 M629.7575262180958,51.85765042821761 L629.5132428796187,51.9100432056445 L629.675161786658,52.313611211317586 L629.7856706083539,53.07847453500796 L629.8249449514622,54.520124468987866 L629.7179096178954,55.93735999750544 L629.5740042888341,57.27400251140454 L629.6673176519736,58.588084997826115 L629.5866437233938,59.956303536020556 L629.6441102348949,60.61614737448726 L629.7194618420169,60.640998851166664 L630.0231086103975,60.00910206208994 L630.3124888662395,59.17323376303206 L630.7091715631902,57.85652395201486 L631.2593690648238,56.05399687323659 L632.3075368969787,54.28007859551254 L632.9375943289276,52.674007192529636 L633.9712052319978,51.19251482550882 L635.4577103953322,50.414673315341474 L636.26933928685,50.138681699385536 L637.1361863759744,50.04204653447505 L638.0980713223546,50.60123502097988 L638.5158177263813,51.5576057631385 L638.9576348599592,53.00315373251246 L639.3173717981886,54.60235439555332 L639.4570732152719,56.3638973990764 L639.5390911407299,57.9158136000576 L639.374346418314,58.91280428860569 L639.4352682718632,59.63956885559973 M645.8794848230507,45.0 L645.7958667362033,45.00570829673886 L645.9748734162386,45.14777575301697 L645.9316465575005,45.52145257824686 L645.7911547190388,46.60835638814951 L645.6200387091594,47.789689939472055 L645.32179271419,49.63265540811453 L645.0005334046339,51.61094796853368 L644.6649566739325,53.86473910058541 L644.3609015821492,55.982345608003946 L644.1432604738447,58.12375066117846 L643.9952746328489,59.33421970138382 L644.0396893247762,60.239971252938304 M642.9276148077549,52.72486081635745 L642.8464408715915,52.75949764616237 L643.2472788468701,52.80345580695534 L644.2396813538862,52.66300631839093 L645.5659436149588,52.801650988173996 L647.2007568320192,52.82484277759008 L649.4847827556007,52.94949623796721 L651.139635196444,52.87992016176629 L652.1615320136974,53.082245495818974 M675.1428361272331,54.691624769841624 L674.8505987012686,54.34021283637039 L674.6604184731693,53.90025406431891 L673.8978429997071,53.23129799684782 L672.7393445508042,53.01628733338507 L671.3452333395862,53.19409004915533 L669.7273367180846,53.36756170076726 L668.1383949564589,54.36481330979727 L666.8861266579675,55.5675516611318 L665.9443352811629,56.64764471089893 L665.6528092562712,58.01863930318335 L666.0885290828387,59.143265974004414 L667.1347450720812,59.87972124770872 L668.4822830626676,60.213033742214726 L670.1779421098652,59.94962798794459 L671.6975693159761,59.30999112497507 L673.6165524689895,58.329822018133356 L674.8457790785772,57.0891438302 L675.9327076963475,56.045131925214065 L676.581517688351,54.87316571985147 L677.0096950996906,54.354733915970364 L677.0135584157933,53.88428160976173 L676.800167184273,53.97550884978605 L676.6937232255816,54.335508041405774 L676.5298599639427,55.463820798827676 L676.3453367338116,57.147321843885244 L676.148551894738,58.940358873428046 L676.2085154806168,61.21388955357563 L676.0546442374259,63.87239882585404 L675.8863033042096,66.66228214554911 L675.9109042866344,69.07735428473693 L675.6214355106828,71.06647882079034 L676.011244397904,71.99651182579912 M679.6356861808327,54.51585591073842 L679.5340341909501,54.553302424917526 L679.7583023864868,55.28276509338105 L680.0347123060506,56.16101957571068 L680.1943980322676,57.35933189061377 L680.379905777063,58.88123527343136 L680.7861958777344,60.01665048749382 L681.1404945879028,61.247899852969326 L681.9567881929083,61.96570322765588 L682.8248325583365,62.16704429152819 L683.6527405541191,62.05511414100382 L684.5007067015258,61.271908851639836 L685.6566477041525,60.087079477212306 L686.2908931543243,58.40615442077218 L687.0360269707455,57.095989008803556 L687.6148762826693,55.521313961549055 L688.0063638305376,54.35151275992221 L688.0218076331159,53.54412769604121 L688.0991221094343,53.05332987480396 L688.3421809709841,52.99435364681095 L688.1471220892962,53.463883207055076 L688.2570410210299,54.16107724051208 L688.2171595232903,55.44042183323333 L688.1845572362406,57.033901809608984 L688.5328718616149,58.367460026528164 L688.8712489597126,59.68824312837254 L689.1642182771888,60.209019224784775 L689.4254277067348,60.72280111531227 L689.7681206338287,60.67095839958451 M695.6494394227851,53.80376972197918 L695.5873796624587,53.81391923794513 L695.67943478544,54.1964093577415 L695.7327021820879,54.86127635887122 L696.0540128808626,55.99593184450738 L695.7742387210733,57.40531777573725 L695.818746347842,59.139147471897665 L695.9606624883759,60.79703975654075 L695.949486651612,61.9260805087817 L696.0348212496301,62.449981619256704 L696.5358893798378,62.205416978665575 L696.6678802764845,61.50399338629912 L696.7605882578855,60.78190369169962 M698.7357294496061,49.34909683441446 L698.7739148728859,49.31668190547079 L698.9134534661744,49.322950182952326 L699.0976425329898,49.36046636456729 L699.2696905778164,49.421798113432686 M711.3972546277662,53.70238719030671 L711.1260353463933,53.681066918986446 L710.7640940243663,53.740144244032294 L709.8300458893805,53.67254249112432 L708.8898361646627,53.90157746185823 L707.5922622705242,54.46204408941514 L706.4175160379584,55.47997226482854 L705.393306247386,56.56579594763213 L704.5527716119511,57.97521996048271 L704.4668886297642,59.54175759472622 L704.9597429707451,60.64360837731759 L706.0205270979379,61.562765636124084 L707.7852422794979,62.19424571482189 L710.0652038491206,61.92012857458162 L712.5161230602735,61.32739434280382 L714.4187722822019,60.13817308808545 L715.5997427303583,59.59845824467896 M720.1359368363671,46.131277435116594 L720.0417467754178,46.47046838822298 L720.3026375863149,47.193297835533016 L720.3318106130519,48.16235440540411 L720.156857658326,49.42093851176379 L720.049599474967,51.460483620132536 L719.8954264089623,53.42127385468657 L719.5368501740454,55.51516279265146 L719.6498406164067,57.00016568278308 L719.5850953813917,58.43442513042193 L719.9185809389717,59.23961820636835 L720.1673660690115,59.66862745285395 L720.4974090855742,59.67638419321108 M724.5244722490811,53.970673248511936 L724.0032823378135,53.78103649953558 L723.1477894636587,53.60889708464449 L721.7747797138283,53.54068460478391 L720.6551614506608,54.042189861820965 L719.4129921038235,54.839284662999695 L718.713952700002,56.074636028092975 L718.2265401850951,57.508615794966026 L718.3969265471512,58.654313027978986 L719.6402927093402,59.82980137804446 L721.0912675625736,60.70273517386197 L723.1132720175048,61.27550486722848 L725.1815078357861,61.33594364572275 L727.5879441042758,60.830617468683684 L729.6293870824502,59.53300176732083 L730.9948282071248,58.42290936725287 L731.8328016384008,57.45557205556453 M732.4656542241717,45.7862312259755 L732.4010790288592,45.92634887123917 L732.2963732183123,46.40580386544083 L732.152269214406,47.383551782616124 L731.9997728765154,48.89173907662247 L731.8677843511248,50.79601830864762 L731.8266161382342,52.90532130623673 L731.9662035405779,55.01297683144425 L732.3851488530779,56.933723932751164 L733.1353319585467,58.502288407333836 L734.2214830815935,59.580745643623814 L735.5767992437029,60.07600492859696 L737.086839526906,59.97302550698136 L738.6043566167498,59.33785600090836 L739.9875963628435,58.298176354416356 L741.1158007085467,57.01239118600701 L741.9172838628435,55.66363424683426 L742.3833788335467,54.419681495674595 L742.5628832280779,53.405353969582066 L742.5328234136248,52.72204083824967 L742.3643968999529,52.4518224659047 L742.1183947026873,52.645734495171055 L741.8524034917498,53.33141059304093 L741.6582811772967,54.46660608673905 L741.672288745656,55.91499680901383 L742.0281542241717,57.487915537007794 L742.798753589406,58.97205967331742 L743.9829576909685,60.16225475693558 L745.5141161382342,60.905205911644444 L747.2673204839373,61.10610598946427 L749.1065843999529,60.751306718834385 L750.8745287358904,59.89354390526627 L752.425218433156,58.64436978722428 L753.6348741948748,57.146625793226704 L754.4600695073748,55.56237954521988 L754.8853014409685,54.04860228920792 L754.9564073979998,52.76250237847184 L754.7374437749529,51.82139272118424 L754.3227709233904,51.32381028557633 L753.7993334233904,51.32832593346451 L753.2712877690935,51.86110515023087 L752.8059557378435,52.90047616387223 L752.4611681401873,54.402456707008824 L752.2535570562029,56.30681104088639 L752.1652697026873,58.55514950180863 L752.1299913823748,61.07993668938492 L752.0332811772967,63.79841584587906 L751.764573901906,66.59190959359024 L751.2263048589373,69.31260127449845 L750.3480394780779,71.80721969033097 L749.1248033940935,73.92810649300431 L747.5499132573748,75.54786509896134 L745.6037767827654,76.58034724617814 L743.322923511281,76.98393649483536 L740.7668627202654,76.7661420765004 L738.0682543218279,75.99987811470841 L735.4715441167498,74.80473155403946 L733.2073534429217,73.29893321419571 L731.4702318608904,71.6226570072255 L730.4818895757342,69.85201949501847 L730.4040392339373,68.00272673989151 L730.8497484624529,66.47008819008683 L731.4367235601092,65.46191424752091 " fill="none" stroke="black" stroke-linecap="round" stroke-width="2" /></svg>