<?xml version="1.0" encoding="utf-8" ?>
<svg baseProfile="full" height="100%" version="1.1" viewBox="0,0,1000,120" width="100%" xmlns="http://www.w3.org/2000/svg" xmlns:ev="http://www.w3.org/2001/xml-events" xmlns:xlink="http://www.w3.org/1999/xlink"><defs /><rect fill="white" height="120" width="1000" x="0" y="0" /><path d="M0,0 M284.7326354980469,47.49360275268555 L284.7553405761719,47.859947204589844 L284.8132019042969,48.59955978393555 L284.9071350097656,49.755088806152344 L284.9995422363281,51.27175521850586 L285.05609130859375,53.12234115600586 L285.013916015625,55.22880935668945 L284.8856201171875,57.49131393432617 L284.7275390625,59.779380798339844 L284.61468505859375,61.89945983886719 L284.58807373046875,63.69027328491211 L284.639404296875,65.0166244506836 L284.68896484375,65.65228271484375 L284.6741943359375,65.4804916381836 L284.5673828125,64.55036926269531 L284.4269714355469,63.38787078857422 L284.31414794921875,62.45589065551758 M279.69769287109375,46.93733596801758 L279.7432556152344,46.97142028808594 L280.0235290527344,47.0705680847168 L280.7136535644531,47.22862243652344 L281.90509033203125,47.38922119140625 L283.52813720703125,47.46263122558594 L285.4156494140625,47.390499114990234 L287.3822021484375,47.17121124267578 L289.2867126464844,46.81547164916992 L291.0182189941406,46.35078811645508 L292.49395751953125,45.80775451660156 L293.5342712402344,45.327125549316406 L294.1090087890625,45.0 M294.4180908203125,45.066890716552734 L294.3139343261719,45.781768798828125 L294.16357421875,47.07535171508789 L293.984130859375,48.923038482666016 L293.8157958984375,51.10940170288086 L293.6715393066406,53.52302551269531 L293.5611877441406,56.008602142333984 L293.511474609375,58.393470764160156 L293.5464172363281,60.44426727294922 L293.65069580078125,61.976383209228516 L293.8119201660156,62.85676956176758 L294.0271911621094,63.023536682128906 L294.32568359375,62.487937927246094 L294.7729797363281,61.31765365600586 L295.41754150390625,59.67845916748047 L296.264404296875,57.84160232543945 L297.25787353515625,56.090633392333984 L298.283935546875,54.65045928955078 L299.2522888183594,53.677730560302734 L300.08587646484375,53.22294998168945 L300.7489013671875,53.294830322265625 L301.2618713378906,53.90593719482422 L301.644287109375,55.026763916015625 L301.91461181640625,56.573265075683594 L302.12591552734375,58.41802978515625 L302.3160095214844,60.35682678222656 L302.5422668457031,62.164119720458984 L302.88916015625,63.64763259887695 L303.4238586425781,64.66122436523438 L304.1888427734375,65.11287689208984 L305.1942138671875,64.96662902832031 L306.38427734375,64.22030639648438 L307.6768798828125,62.92995834350586 L308.9590148925781,61.21345520019531 L310.1062927246094,59.25813293457031 L310.9928894042969,57.28784942626953 L311.517578125,55.52326965332031 L311.6127014160156,54.145904541015625 L311.2878112792969,53.297298431396484 L310.59698486328125,53.066219329833984 L309.65496826171875,53.504425048828125 L308.6185302734375,54.59857177734375 L307.69378662109375,56.24750900268555 L307.05242919921875,58.25325393676758 L306.9638671875,60.38090133666992 L307.56292724609375,62.36096954345703 L308.8345642089844,63.983482360839844 L310.21514892578125,65.05918884277344 L311.27374267578125,65.60563659667969 M335.2212219238281,57.81976318359375 L334.9888000488281,57.52849197387695 L334.549072265625,57.074005126953125 L333.8885498046875,56.56062316894531 L333.03204345703125,56.181175231933594 L331.96575927734375,56.0618782043457 L330.71624755859375,56.31495666503906 L329.3907470703125,57.003841400146484 L328.1430969238281,58.11979675292969 L327.16961669921875,59.57424545288086 L326.61773681640625,61.19535446166992 L326.5589904785156,62.76459884643555 L326.9764709472656,64.05917358398438 L327.8337097167969,64.9165267944336 L329.01678466796875,65.21963500976562 L330.40911865234375,64.93811798095703 L331.87469482421875,64.11669921875 L333.2681579589844,62.86769485473633 L334.46197509765625,61.38179397583008 L335.3831481933594,59.89967346191406 L335.9886779785156,58.61466979980469 L336.3062744140625,57.67182922363281 L336.40167236328125,57.14699172973633 L336.3416748046875,57.08142852783203 L336.19061279296875,57.539573669433594 L335.9564208984375,58.58298110961914 L335.65313720703125,60.20174789428711 L335.3061828613281,62.311302185058594 L334.96197509765625,64.76326751708984 L334.6884765625,67.38394165039062 L334.554443359375,70.00715637207031 L334.5537109375,72.46945190429688 L334.69525146484375,74.52908325195312 L334.956787109375,75.9706039428711 L335.30316162109375,76.68038940429688 L335.6235046386719,76.83661651611328 L335.8532409667969,76.71669006347656 M341.892333984375,56.67454528808594 L341.7909240722656,56.98524475097656 L341.6268310546875,57.645084381103516 L341.43780517578125,58.699562072753906 L341.2941589355469,60.06865310668945 L341.2347717285156,61.625633239746094 L341.31317138671875,63.20253372192383 L341.5474853515625,64.60664367675781 L341.95452880859375,65.65174102783203 L342.5652770996094,66.18960571289062 L343.3861083984375,66.14146423339844 L344.3896484375,65.5001449584961 L345.5251770019531,64.32674407958984 L346.7156066894531,62.74948501586914 L347.8698425292969,60.93879318237305 L348.92333984375,59.11298751831055 L349.8160095214844,57.49602508544922 L350.50360107421875,56.25400161743164 L350.94549560546875,55.47620391845703 L351.160888671875,55.21894073486328 L351.1815185546875,55.49024200439453 L351.0522766113281,56.30006790161133 L350.8329772949219,57.60810852050781 L350.58648681640625,59.269195556640625 L350.37078857421875,61.05488586425781 L350.27850341796875,62.7230339050293 L350.37860107421875,64.05611419677734 L350.71392822265625,64.90509033203125 L351.2983093261719,65.18531799316406 L352.1038513183594,64.8514633178711 L353.0745849609375,63.931365966796875 L354.14715576171875,62.54115676879883 L355.2431640625,60.87967300415039 L356.2833251953125,59.18958282470703 L357.1777038574219,57.70579528808594 L357.84820556640625,56.569278717041016 L358.25384521484375,55.86071014404297 L358.40966796875,55.62586975097656 L358.3714599609375,55.89399719238281 L358.20361328125,56.700889587402344 L357.9530334472656,58.03139114379883 L357.67095947265625,59.73550796508789 L357.40924072265625,61.575096130371094 L357.24517822265625,63.319984436035156 L357.24481201171875,64.67208862304688 L357.4173278808594,65.4365005493164 L357.7186279296875,65.55177307128906 L358.01812744140625,65.28046417236328 L358.2217102050781,64.90817260742188 M359.5540771484375,49.41702651977539 L359.5482482910156,49.35833740234375 L359.5682067871094,49.31239700317383 L359.6038818359375,49.290950775146484 L359.6451721191406,49.305755615234375 M369.4804382324219,56.26673889160156 L369.2124328613281,56.01322937011719 L368.70904541015625,55.69268035888672 L367.9444274902344,55.46552276611328 L366.959716796875,55.56043243408203 L365.7890930175781,56.08978271484375 L364.5330810546875,57.08863830566406 L363.35833740234375,58.48987579345703 L362.48779296875,60.16440963745117 L362.1079406738281,61.91688537597656 L362.32470703125,63.52827072143555 L363.1546325683594,64.81753540039062 L364.5621337890625,65.5526351928711 L366.4017028808594,65.62266540527344 L368.4443054199219,65.03878021240234 L370.1488037109375,64.22164154052734 L371.2251281738281,63.528717041015625 M374.98486328125,47.687896728515625 L374.990966796875,47.817237854003906 L375.0025329589844,48.25912094116211 L374.9880676269531,49.16990661621094 L374.911865234375,50.61079025268555 L374.7664794921875,52.511322021484375 L374.53973388671875,54.749267578125 L374.28253173828125,57.15790557861328 L374.0561218261719,59.54707336425781 L373.9117431640625,61.70881652832031 L373.9026794433594,63.44788360595703 L374.0814208984375,64.60652923583984 L374.46746826171875,65.0949478149414 L375.0916442871094,64.90521240234375 L375.9512634277344,64.10320281982422 L377.0338134765625,62.82210922241211 L378.31414794921875,61.23094177246094 L379.69342041015625,59.537105560302734 L381.0389404296875,57.935726165771484 L382.07769775390625,56.736053466796875 L382.6910705566406,56.04176330566406 M378.9814453125,59.76144790649414 L379.045654296875,60.33403015136719 L379.2834167480469,61.24650573730469 L379.7481994628906,62.37751007080078 L380.4989318847656,63.48091125488281 L381.4855651855469,64.47108459472656 L382.6050720214844,65.2696762084961 L383.5556335449219,65.8150405883789 L384.18084716796875,66.0984115600586 M400.5933532714844,50.90887451171875 L400.5989074707031,51.260414123535156 L400.5768737792969,52.033756256103516 L400.4901123046875,53.306888580322266 L400.3084411621094,55.01492691040039 L400.03741455078125,57.04538345336914 L399.7218017578125,59.19554138183594 L399.4427185058594,61.24617385864258 L399.26129150390625,62.9902229309082 L399.2144775390625,64.25720977783203 L399.310302734375,64.94395446777344 L399.52789306640625,65.0261001586914 L399.8515930175781,64.52235412597656 L400.2950744628906,63.5032844543457 L400.8518371582031,62.10895919799805 L401.5286865234375,60.5268440246582 L402.3431396484375,58.957733154296875 L403.289306640625,57.58806228637695 L404.36920166015625,56.56382751464844 L405.5514831542969,55.97067642211914 L406.7515869140625,55.875328063964844 L407.8527526855469,56.29581069946289 L408.7377014160156,57.19813537597656 L409.2874450683594,58.48685073852539 L409.4188232421875,60.01988220214844 L409.0638427734375,61.62181854248047 L408.20965576171875,63.13123321533203 L406.920654296875,64.39559173583984 L405.35345458984375,65.30070495605469 L403.7084045410156,65.75817108154297 L402.19561767578125,65.73091888427734 L400.96685791015625,65.25639343261719 L400.18585205078125,64.37879943847656 L399.94622802734375,63.222530364990234 L400.2554626464844,61.947792053222656 L400.79705810546875,60.88876724243164 L401.2919616699219,60.217689514160156 M412.6440124511719,57.153076171875 L412.6345520019531,57.63301086425781 L412.611083984375,58.51542282104492 L412.5581359863281,59.765602111816406 L412.4707946777344,61.18162155151367 L412.3533630371094,62.58805847167969 L412.22735595703125,63.8166618347168 L412.1434631347656,64.74714660644531 L412.1313171386719,65.24998474121094 L412.20599365234375,65.23458099365234 L412.3667297363281,64.64756774902344 L412.6070251464844,63.50242233276367 L412.93450927734375,61.95519256591797 L413.37274169921875,60.229759216308594 L413.9364929199219,58.548404693603516 L414.6342468261719,57.07661056518555 L415.5161437988281,55.93033981323242 L416.584228515625,55.15464782714844 L417.80377197265625,54.7564582824707 L418.8645935058594,54.63254165649414 L419.57366943359375,54.65487289428711 M426.2618408203125,56.75282287597656 L425.9732971191406,56.49917984008789 L425.40020751953125,56.19036865234375 L424.5128479003906,55.991519927978516 L423.3932800292969,56.15156173706055 L422.1420593261719,56.77048110961914 L420.9218444824219,57.852760314941406 L419.9184875488281,59.27975082397461 L419.3210754394531,60.87175750732422 L419.2493896484375,62.3967170715332 L419.74725341796875,63.67234420776367 L420.7707214355469,64.53131866455078 L422.2000732421875,64.86590576171875 L423.8805236816406,64.63362121582031 L425.6107482910156,63.85942840576172 L427.1794738769531,62.63570785522461 L428.4027404785156,61.143157958984375 L429.177978515625,59.585609436035156 L429.4838562011719,58.15052032470703 L429.4173889160156,56.986995697021484 L429.09783935546875,56.19843673706055 L428.6719665527344,55.8125114440918 L428.2561340332031,55.796875 L427.955078125,55.9705810546875 L427.7879943847656,56.16592025756836 M434.9501647949219,56.51192855834961 L434.93878173828125,56.70289611816406 L434.86865234375,57.16902542114258 L434.702392578125,58.0026741027832 L434.4457702636719,59.19845199584961 L434.1570129394531,60.667755126953125 L433.93365478515625,62.26466751098633 L433.8683776855469,63.81496810913086 L434.03546142578125,65.11793518066406 L434.4630432128906,66.00312805175781 L435.1787414550781,66.33432006835938 L436.14117431640625,66.03356170654297 L437.2872619628906,65.13792419433594 L438.4921569824219,63.79539489746094 L439.6068420410156,62.225852966308594 L440.4925231933594,60.683807373046875 L441.11065673828125,59.371585845947266 L441.4467468261719,58.396793365478516 L441.5619201660156,57.81650161743164 L441.5230712890625,57.671058654785156 L441.3948669433594,57.996273040771484 L441.2296447753906,58.821205139160156 L441.10186767578125,60.090755462646484 L441.0569763183594,61.63713836669922 L441.1629638671875,63.231605529785156 L441.47528076171875,64.63966369628906 L442.0303955078125,65.67079162597656 L442.83404541015625,66.22380065917969 L443.8431701660156,66.24842834472656 L444.9516906738281,65.73865509033203 L446.0409851074219,64.74857330322266 L446.9872741699219,63.390953063964844 L447.6755676269531,61.79643249511719 L448.0613098144531,60.15871810913086 L448.1597900390625,58.65511703491211 L448.09161376953125,57.550174713134766 L447.98260498046875,56.92295837402344 M452.59149169921875,56.96442794799805 L452.570068359375,57.21718215942383 L452.5140075683594,57.7801399230957 L452.393310546875,58.693206787109375 L452.2098083496094,59.90231704711914 L451.980712890625,61.29627227783203 L451.7605895996094,62.710166931152344 L451.5951232910156,63.97276306152344 L451.52752685546875,64.92940521240234 L451.56719970703125,65.43814086914062 L451.74530029296875,65.43974304199219 L452.0706481933594,64.91439819335938 L452.5672302246094,63.90198516845703 L453.2409362792969,62.526390075683594 L454.0811767578125,60.964412689208984 L455.0621337890625,59.41035461425781 L456.165771484375,58.04899215698242 L457.3387756347656,56.993350982666016 L458.5299377441406,56.311744689941406 L459.68133544921875,56.045570373535156 L460.7237243652344,56.2197380065918 L461.5879821777344,56.835655212402344 L462.234619140625,57.874229431152344 L462.6368713378906,59.254947662353516 L462.8323669433594,60.88832473754883 L462.90948486328125,62.609134674072266 L462.9647521972656,64.23583984375 L463.02337646484375,65.45500183105469 L463.0867004394531,66.1626205444336 M481.87347412109375,51.23374938964844 L481.74700927734375,50.66410446166992 L481.4881286621094,49.86199188232422 L481.06689453125,49.049034118652344 L480.47979736328125,48.560447692871094 L479.7157897949219,48.51498794555664 L478.79620361328125,48.99696731567383 L477.7626953125,50.01922607421875 L476.72607421875,51.58649444580078 L475.79937744140625,53.628997802734375 L475.06109619140625,56.02617263793945 L474.56219482421875,58.63090133666992 L474.32598876953125,61.294925689697266 L474.32110595703125,63.85868835449219 L474.5255126953125,66.1717300415039 L474.88800048828125,68.09778594970703 L475.33544921875,69.46248626708984 L475.81158447265625,70.15922546386719 L476.2633972167969,70.18927001953125 L476.5976257324219,69.85700988769531 L476.7919921875,69.46810913085938 M470.8212890625,58.900665283203125 L471.13348388671875,58.97163772583008 L471.88922119140625,59.0758171081543 L473.18341064453125,59.19486999511719 L475.02301025390625,59.27510070800781 L477.2597961425781,59.298912048339844 L479.6461181640625,59.26222229003906 L481.596923828125,59.201324462890625 L482.82513427734375,59.14511489868164 M487.5036926269531,57.439422607421875 L487.1425476074219,57.36419677734375 L486.4655456542969,57.388370513916016 L485.4818115234375,57.658084869384766 L484.33551025390625,58.30023956298828 L483.1783142089844,59.31612014770508 L482.224853515625,60.6159553527832 L481.6755676269531,62.0301399230957 L481.6925048828125,63.363861083984375 L482.3267822265625,64.4160385131836 L483.5205383300781,65.03046417236328 L485.12109375,65.12088775634766 L486.9180908203125,64.6726303100586 L488.6861572265625,63.75880432128906 L490.1863708496094,62.50605773925781 L491.2381591796875,61.07733917236328 L491.7376403808594,59.64590072631836 L491.68634033203125,58.344417572021484 L491.1712646484375,57.25210952758789 L490.3542785644531,56.41994857788086 L489.4114685058594,55.899513244628906 L488.5391845703125,55.70978927612305 L487.8733825683594,55.82377624511719 L487.4803161621094,56.07098388671875 L487.31640625,56.29832077026367 M500.1053466796875,56.908241271972656 L500.0516052246094,57.11234664916992 L499.9095153808594,57.54564666748047 L499.65185546875,58.249900817871094 L499.2820129394531,59.18787384033203 L498.8192138671875,60.30181121826172 L498.3251647949219,61.50925827026367 L497.87548828125,62.71463394165039 L497.5538330078125,63.78181076049805 L497.4063720703125,64.57453918457031 L497.4248352050781,64.99452209472656 L497.517333984375,65.10982513427734 L497.60540771484375,65.055908203125 M497.8134765625,60.25824737548828 L497.8639831542969,60.26509094238281 L497.9886474609375,60.28651809692383 L498.21502685546875,60.32645034790039 L498.5628356933594,60.38100814819336 L499.05181884765625,60.43688201904297 L499.7221374511719,60.48868179321289 L500.6374206542969,60.50870132446289 L501.8074951171875,60.49382781982422 L503.1571960449219,60.43880844116211 L504.3270263671875,60.37186050415039 L505.09368896484375,60.317352294921875 M514.8209228515625,57.34947967529297 L514.7769165039062,57.388771057128906 L514.7086791992188,57.568302154541016 L514.616943359375,57.997581481933594 L514.5079345703125,58.749488830566406 L514.3802490234375,59.81596755981445 L514.2593994140625,61.1575813293457 L514.1744384765625,62.70193862915039 L514.1282958984375,64.3696060180664 L514.1005859375,66.09888458251953 L514.036376953125,67.82630920410156 L513.8698120117188,69.48970031738281 L513.55126953125,71.04378509521484 L513.0440673828125,72.44306182861328 L512.3203125,73.64949035644531 L511.40704345703125,74.63277435302734 L510.3335876464844,75.29985046386719 L509.18011474609375,75.57979583740234 L508.05938720703125,75.44728088378906 L507.1953430175781,75.11038970947266 L506.6771545410156,74.7756576538086 M518.5615234375,54.35603713989258 L518.600830078125,54.510108947753906 L518.6597900390625,54.87004852294922 L518.7152099609375,55.4892692565918 L518.7438354492188,56.35313034057617 L518.75439453125,57.39712905883789 L518.7774047851562,58.52454376220703 L518.8751831054688,59.66033935546875 L519.12060546875,60.679840087890625 L519.5274658203125,61.470096588134766 L520.0618896484375,61.9536018371582 L520.5518188476562,62.157020568847656 L520.8798828125,62.17578887939453 M523.2409057617188,54.30091094970703 L523.230224609375,54.27860641479492 L523.1981201171875,54.390655517578125 L523.1177978515625,54.76852035522461 L522.9672241210938,55.519264221191406 L522.732666015625,56.63225173950195 L522.4666137695312,58.002784729003906 L522.2636108398438,59.506412506103516 L522.216064453125,60.98675537109375 L522.4108276367188,62.28993606567383 L522.89501953125,63.2755012512207 L523.6551513671875,63.820133209228516 L524.666015625,63.82930374145508 L525.8612060546875,63.29594421386719 L527.1063232421875,62.25381851196289 L528.2813720703125,60.82807540893555 L529.2755126953125,59.18708801269531 L530.0113525390625,57.537479400634766 L530.5001220703125,56.077728271484375 L530.7816162109375,54.95262908935547 L530.8807373046875,54.24617004394531 L530.8383178710938,54.015235900878906 L530.6826782226562,54.275787353515625 L530.4317016601562,55.02782440185547 L530.136962890625,56.2252082824707 L529.8673095703125,57.73610305786133 L529.687255859375,59.395877838134766 L529.662841796875,61.035579681396484 L529.8741455078125,62.45918273925781 L530.3248291015625,63.50475311279297 L530.9642944335938,64.08477020263672 L531.5719604492188,64.28064727783203 L531.9927978515625,64.25625610351562 M535.5421142578125,52.743831634521484 L535.5540161132812,52.88896179199219 L535.59814453125,53.30295181274414 L535.653564453125,54.08707809448242 L535.6986083984375,55.23896026611328 L535.7025146484375,56.66276550292969 L535.6707763671875,58.21246337890625 L535.637451171875,59.721458435058594 L535.6370849609375,61.036651611328125 L535.67626953125,62.03525161743164 L535.7835083007812,62.605899810791016 L535.9766235351562,62.682640075683594 L536.2915649414062,62.2236328125 L536.7710571289062,61.24701690673828 L537.4085693359375,59.863040924072266 L538.189208984375,58.257564544677734 L539.0753173828125,56.641902923583984 L539.9957275390625,55.21971130371094 L540.884521484375,54.12190246582031 L541.6896362304688,53.440277099609375 L542.353271484375,53.25260925292969 L542.8554077148438,53.5902099609375 L543.1685180664062,54.44535446166992 L543.2830810546875,55.75908660888672 L543.2265014648438,57.38248062133789 L543.062255859375,59.09749221801758 L542.86279296875,60.69498825073242 L542.7021484375,61.98047637939453 L542.6217041015625,62.81536102294922 L542.651611328125,63.12355041503906 L542.8341064453125,62.870201110839844 L543.20849609375,62.04576110839844 L543.7862548828125,60.74842071533203 L544.5474853515625,59.16599655151367 L545.4342651367188,57.53176498413086 L546.3682861328125,56.06866455078125 L547.2969970703125,54.93718719482422 L548.1779174804688,54.21873474121094 L548.9718017578125,53.956825256347656 L549.650634765625,54.15878677368164 L550.1646728515625,54.83427429199219 L550.4656982421875,55.95763397216797 L550.5487060546875,57.453670501708984 L550.4488525390625,59.22290802001953 L550.2691650390625,61.0994873046875 L550.1368408203125,62.84498596191406 L550.131591796875,64.27536010742188 L550.2155151367188,65.21526336669922 L550.322509765625,65.67341613769531 M555.3990478515625,55.9048957824707 L555.3900146484375,55.87442398071289 L555.3736572265625,55.97456359863281 L555.33447265625,56.36870574951172 L555.240234375,57.21744155883789 L555.0426025390625,58.5617790222168 L554.7359619140625,60.37935256958008 L554.3341674804688,62.564659118652344 L553.8748779296875,64.96733093261719 L553.4217529296875,67.3835678100586 L553.0206909179688,69.57986450195312 L552.706787109375,71.33721160888672 L552.5036010742188,72.51148986816406 L552.4124755859375,73.02064514160156 L552.4227905273438,72.86442565917969 L552.5341186523438,72.06865692138672 L552.7347412109375,70.68527221679688 L553.024169921875,68.836181640625 L553.3897705078125,66.67318725585938 L553.852783203125,64.34669494628906 L554.447998046875,62.014556884765625 L555.2012939453125,59.80866622924805 L556.1301879882812,57.832523345947266 L557.231689453125,56.19605255126953 L558.460693359375,54.989261627197266 L559.796875,54.27000427246094 L561.1729736328125,54.07456588745117 L562.4810180664062,54.39690017700195 L563.6068115234375,55.173397064208984 L564.4359130859375,56.30685043334961 L564.8717651367188,57.668521881103516 L564.8937377929688,59.09866714477539 L564.4927368164062,60.448341369628906 L563.7152709960938,61.58686447143555 L562.6416015625,62.41454315185547 L561.3814697265625,62.901206970214844 L560.089111328125,63.038780212402344 L558.9446411132812,62.867218017578125 L558.0892333984375,62.478233337402344 L557.592041015625,62.070987701416016 L557.391357421875,61.7742805480957 M573.328857421875,55.33603286743164 L573.283935546875,55.091407775878906 L573.0857543945312,54.714744567871094 L572.632568359375,54.29035949707031 L571.8814697265625,53.97911071777344 L570.900390625,53.86235046386719 L569.832275390625,53.981414794921875 L568.8731689453125,54.325130462646484 L568.2244262695312,54.87805938720703 L568.03173828125,55.599891662597656 L568.3701782226562,56.45966720581055 L569.2241821289062,57.40525436401367 L570.4326171875,58.38750076293945 L571.7506103515625,59.348636627197266 L572.9249267578125,60.24562454223633 L573.7113037109375,61.039398193359375 L573.96337890625,61.703514099121094 L573.640380859375,62.21284484863281 L572.7410888671875,62.56120681762695 L571.3480224609375,62.74700927734375 L569.6715087890625,62.77483367919922 L567.98974609375,62.68498611450195 L566.6063232421875,62.52851867675781 L565.7318115234375,62.37986755371094 L565.3386840820312,62.28477478027344 M592.680908203125,55.11798858642578 L592.468994140625,54.83732604980469 L592.038818359375,54.44483184814453 L591.3446044921875,54.09397888183594 L590.4005126953125,54.00309753417969 L589.2149658203125,54.28339385986328 L587.870361328125,54.96147537231445 L586.52685546875,55.97826385498047 L585.4061279296875,57.235137939453125 L584.7265014648438,58.60796356201172 L584.6446533203125,59.947174072265625 L585.187744140625,61.10633850097656 L586.3049926757812,61.93988037109375 L587.8636474609375,62.34688949584961 L589.6768798828125,62.26968765258789 L591.5479736328125,61.71671676635742 L593.2605590820312,60.74492645263672 L594.613525390625,59.4658317565918 L595.491943359375,58.0273323059082 L595.8736572265625,56.593055725097656 L595.8045043945312,55.321651458740234 L595.4390869140625,54.35142135620117 L594.9319458007812,53.74340057373047 L594.4860229492188,53.45694351196289 L594.203857421875,53.384254455566406 M599.500732421875,53.88959884643555 L599.4697875976562,53.89339828491211 L599.3945922851562,54.08100891113281 L599.2674560546875,54.614864349365234 L599.1034545898438,55.59831619262695 L598.9395751953125,56.974884033203125 L598.81396484375,58.57902145385742 L598.7730102539062,60.185428619384766 L598.8634033203125,61.58705520629883 L599.1029052734375,62.609310150146484 L599.5052490234375,63.1243782043457 L600.06689453125,63.05692672729492 L600.795166015625,62.39378356933594 L601.65869140625,61.20292663574219 L602.5969848632812,59.655921936035156 L603.5157470703125,57.949886322021484 L604.3529052734375,56.274715423583984 L605.0611572265625,54.800235748291016 L605.6519165039062,53.632625579833984 L606.0709228515625,52.86697006225586 L606.31201171875,52.48293685913086 M607.6635131835938,60.24463653564453 L607.8750610351562,60.23019027709961 L608.345458984375,60.104034423828125 L609.101806640625,59.779754638671875 L610.0718994140625,59.205772399902344 L611.140380859375,58.41036605834961 L612.1640625,57.42671585083008 L613.00634765625,56.32524871826172 L613.591064453125,55.193965911865234 L613.8348388671875,54.11402893066406 L613.6942138671875,53.206111907958984 L613.1656494140625,52.60011291503906 L612.302978515625,52.40989685058594 L611.214599609375,52.73095703125 L610.0638427734375,53.59056854248047 L609.0269775390625,54.91949462890625 L608.279052734375,56.602210998535156 L607.9702758789062,58.45024871826172 L608.2013549804688,60.26759338378906 L608.9841918945312,61.875091552734375 L610.3245239257812,63.03693771362305 L612.117919921875,63.5938720703125 L614.1656494140625,63.51602554321289 L615.91259765625,63.10088348388672 L617.0475463867188,62.65948486328125 M619.3311767578125,53.978397369384766 L619.2271728515625,54.1069450378418 L619.0784301757812,54.50353240966797 L618.91259765625,55.28817367553711 L618.766845703125,56.46920394897461 L618.647216796875,57.942264556884766 L618.553955078125,59.49808883666992 L618.490234375,60.922401428222656 L618.4683837890625,62.03512191772461 L618.4891357421875,62.69831085205078 L618.5514526367188,62.8144645690918 L618.6644287109375,62.36964416503906 L618.843017578125,61.38861846923828 L619.1206665039062,60.012916564941406 L619.5175170898438,58.4205436706543 L620.0711669921875,56.79190444946289 L620.8284912109375,55.26185989379883 L621.8110961914062,53.932376861572266 L623.0192260742188,52.8694953918457 L624.4229736328125,52.13060760498047 L625.9727783203125,51.749969482421875 L627.5861206054688,51.719337463378906 L629.1588134765625,51.958824157714844 L630.382568359375,52.27354049682617 L631.1239013671875,52.524749755859375 M644.0535888671875,46.00128936767578 L644.02392578125,46.123260498046875 L643.9124755859375,46.53455352783203 L643.6588134765625,47.39000701904297 L643.2314453125,48.768272399902344 L642.6658325195312,50.62930679321289 L642.0186767578125,52.87550354003906 L641.3648681640625,55.35654830932617 L640.805419921875,57.89216613769531 L640.3990478515625,60.24732208251953 L640.171142578125,62.20255661010742 L640.0941162109375,63.513999938964844 L640.0980834960938,64.18509674072266 M635.5828857421875,54.57179260253906 L635.8421020507812,54.68387985229492 L636.4667358398438,54.888458251953125 L637.54833984375,55.157249450683594 L639.0553588867188,55.39146041870117 L640.89306640625,55.505821228027344 L642.8971557617188,55.42034149169922 L644.8970947265625,55.08528518676758 L646.7574462890625,54.47027587890625 L648.356689453125,53.571495056152344 L649.6224365234375,52.39872741699219 L650.5463256835938,51.02098846435547 L651.154541015625,49.55730438232422 L651.497314453125,48.1529426574707 L651.6435546875,46.94688415527344 L651.6533203125,46.05076217651367 L651.568115234375,45.55207824707031 L651.4151611328125,45.52466583251953 L651.2091674804688,46.06019592285156 L650.9465942382812,47.2196159362793 L650.6224365234375,48.97458267211914 L650.241943359375,51.19322967529297 L649.8106689453125,53.6588134765625 L649.3641357421875,56.106407165527344 L648.9733276367188,58.307342529296875 L648.6995239257812,60.083900451660156 L648.5929565429688,61.30959701538086 L648.68798828125,61.910037994384766 L649.0,61.858909606933594 L649.557373046875,61.187862396240234 L650.379150390625,60.00848388671875 L651.44384765625,58.525779724121094 L652.68408203125,56.97460174560547 L653.9878540039062,55.568851470947266 L655.2476806640625,54.46756362915039 L656.38623046875,53.76259994506836 L657.3430786132812,53.50396728515625 L658.09521484375,53.749671936035156 L658.60791015625,54.50420379638672 L658.8649291992188,55.73689651489258 L658.9017944335938,57.3422737121582 L658.8037109375,59.136653900146484 L658.690673828125,60.910552978515625 L658.71484375,62.48434066772461 L658.974853515625,63.66681671142578 L659.5506591796875,64.32539367675781 L660.479736328125,64.3432846069336 L661.7440795898438,63.674503326416016 L663.2547607421875,62.376861572265625 L664.8624267578125,60.640628814697266 L666.3636474609375,58.68115997314453 L667.5767211914062,56.75154495239258 L668.3828125,55.03528594970703 L668.724365234375,53.6734504699707 L668.599365234375,52.76411437988281 L668.0472412109375,52.395999908447266 L667.1558837890625,52.61820983886719 L666.067626953125,53.467262268066406 L664.9765625,54.87989044189453 L664.0759887695312,56.70697784423828 L663.5389404296875,58.75248336791992 L663.4974365234375,60.79901885986328 L664.0489501953125,62.655521392822266 L665.2173461914062,64.201171875 L667.0330810546875,65.25971984863281 L669.357421875,65.71461486816406 L671.9273681640625,65.55464172363281 L674.0703735351562,65.09114074707031 L675.4309692382812,64.6235580444336 M686.9144287109375,46.08787155151367 L686.927001953125,46.3968505859375 L686.906982421875,47.07141876220703 L686.8057861328125,48.185096740722656 L686.57421875,49.711761474609375 L686.2041015625,51.61164093017578 L685.7091064453125,53.812747955322266 L685.140625,56.22643280029297 L684.5882568359375,58.766014099121094 L684.1497192382812,61.265968322753906 L683.9055786132812,63.54160690307617 L683.8348388671875,65.2212905883789 L683.8646240234375,66.18521881103516 M694.926025390625,56.330589294433594 L694.864990234375,56.020503997802734 L694.7080078125,55.593387603759766 L694.3919677734375,55.20004653930664 L693.8648681640625,55.07585144042969 L693.0848388671875,55.3417854309082 L692.0928955078125,56.069007873535156 L690.976318359375,57.225852966308594 L689.8677978515625,58.725032806396484 L688.9124755859375,60.40325927734375 L688.2255859375,62.063114166259766 L687.869384765625,63.5134162902832 L687.891357421875,64.57765197753906 L688.271240234375,65.12017059326172 L688.97216796875,65.06403350830078 L689.941650390625,64.40080261230469 L691.0995483398438,63.206974029541016 L692.3387451171875,61.650901794433594 L693.5386962890625,59.929832458496094 L694.5733642578125,58.26163864135742 L695.3598022460938,56.83708953857422 L695.8712158203125,55.76887893676758 L696.1365966796875,55.12279510498047 L696.2044677734375,54.93889617919922 L696.1170654296875,55.2288932800293 L695.8912353515625,56.02190399169922 L695.5372314453125,57.30488967895508 L695.08984375,58.965545654296875 L694.646484375,60.823753356933594 L694.3123779296875,62.622535705566406 L694.1754150390625,64.12006378173828 L694.189697265625,65.11933135986328 L694.2686767578125,65.62318420410156 M700.2264404296875,54.21782302856445 L700.4488525390625,54.00407409667969 L700.9718017578125,53.72267532348633 L701.8544921875,53.46199417114258 L703.045166015625,53.35609436035156 L704.3955078125,53.43629455566406 L705.6856079101562,53.73466873168945 L706.6505126953125,54.259864807128906 L707.0736083984375,55.01116180419922 L706.8135986328125,55.965206146240234 L705.8800048828125,57.0831413269043 L704.4329833984375,58.30280303955078 L702.7469482421875,59.54779052734375 L701.1160888671875,60.734718322753906 L699.820556640625,61.78744125366211 L699.0433349609375,62.660362243652344 L698.8784790039062,63.32384490966797 L699.3479614257812,63.766563415527344 L700.40576171875,63.969783782958984 L701.9260864257812,63.93472671508789 L703.7216796875,63.62956619262695 L705.5189208984375,63.068443298339844 L707.0668334960938,62.29521942138672 L708.122314453125,61.568359375 L708.66552734375,61.05610656738281 M700.5926513671875,57.1538200378418 L701.0859375,57.51335144042969 L701.96875,58.098228454589844 L703.182373046875,58.81273651123047 L704.573486328125,59.4390983581543 L706.045166015625,59.8714714050293 L707.4906005859375,60.05453109741211 L708.6322021484375,60.06620407104492 L709.3394775390625,60.0050163269043 M713.7371826171875,54.2042350769043 L713.7324829101562,54.21385955810547 L713.7005615234375,54.380348205566406 L713.6131591796875,54.835201263427734 L713.4583129882812,55.6579704284668 L713.269287109375,56.78365707397461 L713.12158203125,58.06306076049805 L713.1331787109375,59.31103515625 L713.3994140625,60.36104965209961 L713.9544677734375,61.095802307128906 L714.77685546875,61.44981384277344 L715.80908203125,61.37803649902344 L716.9820556640625,60.908973693847656 L718.21923828125,60.106746673583984 L719.4237060546875,59.099822998046875 L720.4716796875,58.05513381958008 L721.258544921875,57.136070251464844 L721.70947265625,56.46540832519531 L721.7890625,56.157470703125 L721.4957275390625,56.275604248046875 L720.8353271484375,56.902252197265625 L719.8389282226562,58.10841369628906 L718.5941772460938,59.913658142089844 L717.2211303710938,62.26547622680664 L715.8087158203125,65.14274597167969 L714.4715576171875,68.3622817993164 L713.293701171875,71.66099548339844 L712.4378662109375,74.3130111694336 L711.952392578125,75.95556640625 M733.6448974609375,58.68903732299805 L733.6701049804688,58.277313232421875 L733.613525390625,57.655521392822266 L733.3638305664062,56.966407775878906 L732.7952880859375,56.44585037231445 L731.84326171875,56.231834411621094 L730.5106201171875,56.423728942871094 L728.904541015625,57.080772399902344 L727.2027587890625,58.207576751708984 L725.6492919921875,59.71717834472656 L724.4686279296875,61.41757583618164 L723.8291015625,63.08667755126953 L723.8246459960938,64.49591064453125 L724.4686279296875,65.45391082763672 L725.696044921875,65.8050537109375 L727.3836059570312,65.46788024902344 L729.3455810546875,64.41905212402344 L731.3798217773438,62.7305908203125 L733.3174438476562,60.557308197021484 L735.0408935546875,58.09724807739258 L736.48388671875,55.5567741394043 L737.6159057617188,53.16707229614258 L738.427490234375,51.1107292175293 L738.9439697265625,49.51219177246094 L739.2037353515625,48.457359313964844 L739.2486572265625,47.99774169921875 L739.1019287109375,48.165748596191406 L738.7767333984375,49.01378631591797 L738.2852783203125,50.53514099121094 L737.679931640625,52.625518798828125 L737.029296875,55.11145782470703 L736.4114990234375,57.770774841308594 L735.9378662109375,60.36763000488281 L735.700439453125,62.668880462646484 L735.742431640625,64.49415588378906 L735.9393920898438,65.67463684082031 L736.1537475585938,66.25529479980469 M745.986328125,58.25745391845703 L745.8455810546875,57.904727935791016 L745.5091552734375,57.4381103515625 L744.9176025390625,57.03588104248047 L744.0729370117188,56.958072662353516 L743.0238037109375,57.29853820800781 L741.8896484375,58.08980941772461 L740.8317260742188,59.258506774902344 L739.999267578125,60.657920837402344 L739.5330200195312,62.081787109375 L739.515625,63.3271484375 L739.9737548828125,64.22001647949219 L740.866943359375,64.65465545654297 L742.0916748046875,64.57681274414062 L743.4844360351562,63.97466278076172 L744.8531494140625,62.910301208496094 L746.0069580078125,61.533111572265625 L746.81298828125,60.05002212524414 L747.2103271484375,58.67338943481445 L747.2237548828125,57.55476379394531 L746.98779296875,56.805240631103516 L746.66357421875,56.458499908447266 L746.4071044921875,56.48697280883789 L746.278076171875,56.701839447021484 L746.254638671875,56.93340301513672 M757.08447265625,58.79787063598633 L756.9903564453125,58.42763137817383 L756.742431640625,57.88829803466797 L756.2537841796875,57.32091522216797 L755.483642578125,56.95011901855469 L754.4346923828125,56.885189056396484 L753.1964111328125,57.183631896972656 L751.9271240234375,57.827877044677734 L750.8580322265625,58.74652099609375 L750.2145385742188,59.801422119140625 L750.1679077148438,60.806251525878906 L750.76171875,61.60660934448242 L751.914794921875,62.08137130737305 L753.443359375,62.18231201171875 L755.1287841796875,61.92032241821289 L756.7410888671875,61.37364196777344 L758.080810546875,60.6474609375 L759.0152587890625,59.870540618896484 L759.5169677734375,59.14793014526367 L759.6441650390625,58.587284088134766 L759.49560546875,58.271785736083984 L759.149658203125,58.30094909667969 L758.66943359375,58.77002716064453 L758.1090087890625,59.7412223815918 L757.5528564453125,61.23185348510742 L757.0653076171875,63.21043395996094 L756.65185546875,65.57186126708984 L756.2716064453125,68.17235565185547 L755.8564453125,70.82760620117188 L755.321533203125,73.33486938476562 L754.623779296875,75.52354431152344 L753.7342529296875,77.25557708740234 L752.60302734375,78.42913818359375 L751.2332763671875,78.99552917480469 L749.64794921875,78.93879699707031 L747.9384765625,78.31689453125 L746.2630615234375,77.15708923339844 L744.7880249023438,75.46099853515625 L743.7342529296875,73.80841827392578 L743.1577758789062,72.58871459960938 " fill="none" stroke="black" stroke-linecap="round" stroke-width="2" /></svg>