<?xml version="1.0" encoding="utf-8" ?>
<svg baseProfile="full" height="100%" version="1.1" viewBox="0,0,1000,120" width="100%" xmlns="http://www.w3.org/2000/svg" xmlns:ev="http://www.w3.org/2001/xml-events" xmlns:xlink="http://www.w3.org/1999/xlink"><defs /><rect fill="white" height="120" width="1000" x="0" y="0" /><path d="M0,0 M375.8224182128906,46.695255279541016 L375.5123291015625,46.33098602294922 L374.8932189941406,45.81802749633789 L373.90625,45.302181243896484 L372.5959777832031,45.00786590576172 L370.9944763183594,45.0 L369.2014465332031,45.30537414550781 L367.408935546875,45.9085693359375 L365.83514404296875,46.77234649658203 L364.70867919921875,47.843170166015625 L364.21661376953125,49.06513977050781 L364.4126281738281,50.35728454589844 L365.240234375,51.65053939819336 L366.6024169921875,52.897037506103516 L368.29833984375,54.04636001586914 L370.1649169921875,55.0981330871582 L372.0553894042969,56.081050872802734 L373.80804443359375,57.0136833190918 L375.29083251953125,57.916961669921875 L376.3956604003906,58.79842758178711 L376.993408203125,59.654754638671875 L377.0065612792969,60.506168365478516 L376.38543701171875,61.36591339111328 L375.123779296875,62.222381591796875 L373.31549072265625,63.04057693481445 L371.1363830566406,63.758705139160156 L368.8271789550781,64.3109130859375 L366.62091064453125,64.64075469970703 L364.71856689453125,64.65873718261719 L363.2554626464844,64.3483657836914 L362.3017883300781,63.75595474243164 L361.81072998046875,63.138973236083984 L361.6500549316406,62.69011688232422 M382.354736328125,47.61870574951172 L382.38018798828125,47.84626770019531 L382.4161071777344,48.42741775512695 L382.43194580078125,49.474639892578125 L382.41082763671875,50.972808837890625 L382.31414794921875,52.81507110595703 L382.148681640625,54.86210632324219 L381.9654846191406,56.98185729980469 L381.8138732910156,59.0273551940918 L381.7143249511719,60.8347282409668 L381.6883850097656,62.24527359008789 L381.6953125,63.135963439941406 L381.7022705078125,63.5519905090332 M378.05902099609375,55.94178771972656 L378.36065673828125,55.803245544433594 L379.032958984375,55.57658767700195 L380.1381530761719,55.312110900878906 L381.66845703125,55.090084075927734 L383.5080261230469,54.956912994384766 L385.4502868652344,54.89448547363281 L387.0284118652344,54.873714447021484 L388.012451171875,54.86687088012695 M391.15911865234375,53.837928771972656 L391.0992126464844,54.14099884033203 L390.995361328125,54.85939025878906 L390.8462829589844,56.05948257446289 L390.6876525878906,57.61051559448242 L390.5445251464844,59.251747131347656 L390.4470520019531,60.729373931884766 L390.42169189453125,61.85968017578125 L390.46649169921875,62.5198974609375 L390.5707702636719,62.652427673339844 L390.76171875,62.2111701965332 L391.0679931640625,61.20447540283203 L391.52435302734375,59.7588005065918 L392.132568359375,58.12834167480469 L392.8526611328125,56.5687370300293 L393.64300537109375,55.28377151489258 L394.54913330078125,54.39240264892578 L395.5912780761719,53.91495132446289 L396.7571105957031,53.80537796020508 L397.7662048339844,53.90944290161133 L398.43731689453125,54.069419860839844 M401.0357971191406,60.999759674072266 L401.35205078125,60.89032745361328 L402.017578125,60.569522857666016 L403.03900146484375,59.969093322753906 L404.2496337890625,59.09297561645508 L405.45880126953125,58.046146392822266 L406.4736633300781,56.95244598388672 L407.16387939453125,55.9006233215332 L407.4576416015625,54.96147537231445 L407.3144836425781,54.215370178222656 L406.6916198730469,53.73845672607422 L405.61505126953125,53.65065002441406 L404.1820068359375,54.033775329589844 L402.5745544433594,54.88888931274414 L401.0323486328125,56.15564727783203 L399.80865478515625,57.715755462646484 L399.19915771484375,59.40595245361328 L399.3583068847656,61.0484504699707 L400.2704162597656,62.468379974365234 L401.40155029296875,63.45634078979492 L402.3065490722656,63.983089447021484 M417.2928771972656,54.2617301940918 L416.55645751953125,54.071041107177734 L415.32373046875,53.904842376708984 L413.7586364746094,53.89570236206055 L412.22686767578125,54.15115737915039 L410.9750061035156,54.63556671142578 L410.2425842285156,55.293521881103516 L410.1435241699219,56.0640869140625 L410.7109680175781,56.94269561767578 L411.85455322265625,57.9070930480957 L413.34686279296875,58.907875061035156 L414.9031066894531,59.88335037231445 L416.24945068359375,60.77544403076172 L417.16357421875,61.524085998535156 L417.4928283691406,62.10044479370117 L417.1990966796875,62.486183166503906 L416.30047607421875,62.67082595825195 L414.9287109375,62.65742492675781 L413.335205078125,62.48662567138672 L411.9957580566406,62.270294189453125 L411.1542053222656,62.10050964355469 M427.22412109375,54.4554443359375 L426.8935852050781,54.199363708496094 L426.1800231933594,53.867679595947266 L425.03094482421875,53.60385513305664 L423.5957336425781,53.58521270751953 L422.1236572265625,53.86248016357422 L420.92376708984375,54.41828536987305 L420.2805480957031,55.17494583129883 L420.3553466796875,56.04964828491211 L421.14532470703125,56.97296905517578 L422.5306396484375,57.88333511352539 L424.2490539550781,58.74369812011719 L426.00360107421875,59.54103088378906 L427.5229187011719,60.27101135253906 L428.5935974121094,60.91147232055664 L429.095458984375,61.452152252197266 L428.9830627441406,61.88811111450195 L428.22711181640625,62.202919006347656 L426.8994445800781,62.39680862426758 L425.16009521484375,62.484012603759766 L423.2574768066406,62.45185852050781 L421.5078125,62.319034576416016 L420.1566162109375,62.12590789794922 L419.32696533203125,61.94147872924805 L418.95867919921875,61.814334869384766 M446.91729736328125,46.71747589111328 L446.958740234375,46.76091003417969 L446.9989013671875,47.00822830200195 L447.01190185546875,47.63718795776367 L446.9502868652344,48.76713180541992 L446.7955322265625,50.38236618041992 L446.57012939453125,52.384605407714844 L446.3458251953125,54.60969543457031 L446.20404052734375,56.86606216430664 L446.2178039550781,58.9798698425293 L446.3788757324219,60.778541564941406 L446.5818176269531,62.02476119995117 L446.73760986328125,62.69435501098633 M441.4993896484375,55.63569259643555 L441.674560546875,55.701751708984375 L442.195556640625,55.799739837646484 L443.2254333496094,55.89619827270508 L444.87353515625,55.927974700927734 L447.0220642089844,55.86867904663086 L449.405029296875,55.73154067993164 L451.38616943359375,55.5898323059082 L452.6273193359375,55.48855972290039 M453.0030822753906,59.21676254272461 L453.45556640625,59.29885482788086 L454.32940673828125,59.32389450073242 L455.5989074707031,59.19017791748047 L457.06719970703125,58.795860290527344 L458.5502014160156,58.147132873535156 L459.86767578125,57.32646179199219 L460.88592529296875,56.430503845214844 L461.5211181640625,55.54652404785156 L461.7073974609375,54.752872467041016 L461.42816162109375,54.11317825317383 L460.6996765136719,53.702178955078125 L459.57159423828125,53.5993537902832 L458.1749267578125,53.87323760986328 L456.68603515625,54.5476188659668 L455.3385009765625,55.5903434753418 L454.37237548828125,56.903236389160156 L453.9618835449219,58.339317321777344 L454.20880126953125,59.73319625854492 L455.1083984375,60.94639205932617 L456.6678466796875,61.80978012084961 L458.7922058105469,62.22953796386719 L461.25732421875,62.17471694946289 L463.3795166015625,61.87141799926758 L464.77362060546875,61.54650115966797 M471.16961669921875,52.23805618286133 L470.7974853515625,52.04646301269531 L470.05682373046875,51.8579216003418 L468.94049072265625,51.81262969970703 L467.6241149902344,52.0532341003418 L466.3497619628906,52.578792572021484 L465.3792724609375,53.328739166259766 L464.94537353515625,54.219215393066406 L465.19842529296875,55.171932220458984 L466.1531677246094,56.123592376708984 L467.6950988769531,57.031341552734375 L469.586181640625,57.87586975097656 L471.51458740234375,58.66827392578125 L473.17327880859375,59.42131805419922 L474.3404846191406,60.135154724121094 L474.8804931640625,60.7851676940918 L474.74639892578125,61.347373962402344 L473.9427490234375,61.784141540527344 L472.580810546875,62.08844757080078 L470.8323059082031,62.255916595458984 L468.9628601074219,62.29450988769531 L467.24285888671875,62.21138000488281 L465.8945007324219,62.04112243652344 L465.0438232421875,61.85856246948242 L464.649169921875,61.72526931762695 M480.2037658691406,45.49580383300781 L480.2430114746094,45.78035354614258 L480.2828369140625,46.445960998535156 L480.2720947265625,47.59514617919922 L480.1729431152344,49.20244598388672 L479.99017333984375,51.17558288574219 L479.77947998046875,53.365196228027344 L479.6243896484375,55.59657669067383 L479.60791015625,57.66413879394531 L479.7293701171875,59.37226867675781 L479.9441833496094,60.573734283447266 L480.1485595703125,61.24428939819336 L480.27777099609375,61.50429153442383 M475.9049987792969,53.63406753540039 L476.2689208984375,53.571990966796875 L477.11016845703125,53.449188232421875 L478.5189208984375,53.274105072021484 L480.43927001953125,53.073028564453125 L482.64141845703125,52.86087417602539 L484.837646484375,52.65567398071289 L486.536376953125,52.49919509887695 L487.5406494140625,52.39999008178711 M505.39874267578125,52.22883605957031 L505.26446533203125,52.044342041015625 L504.9896240234375,51.80043029785156 L504.5155029296875,51.60191345214844 L503.80450439453125,51.591590881347656 L502.81884765625,51.819522857666016 L501.657958984375,52.32048416137695 L500.51171875,53.05375671386719 L499.6156311035156,53.95640563964844 L499.201171875,54.94716262817383 L499.415283203125,55.94406509399414 L500.2762756347656,56.881317138671875 L501.7188415527344,57.758079528808594 L503.5414123535156,58.572418212890625 L505.4537353515625,59.32988357543945 L507.1506652832031,60.01845932006836 L508.36676025390625,60.62506103515625 L508.9039001464844,61.14457702636719 L508.688720703125,61.60367202758789 L507.7322082519531,62.01380920410156 L506.1346130371094,62.36832809448242 L504.10943603515625,62.63343811035156 L501.95013427734375,62.76772689819336 L499.93817138671875,62.747337341308594 L498.3929443359375,62.510520935058594 L497.53662109375,62.04514694213867 L497.40924072265625,61.37705993652344 L497.7061767578125,60.73326110839844 L498.103515625,60.274784088134766 M515.9649658203125,54.363948822021484 L515.8468017578125,54.21854019165039 L515.5454711914062,54.02477264404297 L514.9796142578125,53.875362396240234 L514.1246337890625,53.9248161315918 L512.992431640625,54.27382278442383 L511.68560791015625,54.97907638549805 L510.3875427246094,56.02761459350586 L509.2930908203125,57.31968307495117 L508.57476806640625,58.68375778198242 L508.363525390625,59.92620849609375 L508.68060302734375,60.85072708129883 L509.4864501953125,61.317039489746094 L510.68658447265625,61.26725387573242 L512.1504516601562,60.713722229003906 L513.692138671875,59.730133056640625 L515.1463012695312,58.45943069458008 L516.355712890625,57.088565826416016 L517.2311401367188,55.81721115112305 L517.7703857421875,54.813682556152344 L518.0330200195312,54.18357849121094 L518.0756225585938,53.96061325073242 L517.956298828125,54.16828155517578 L517.7093505859375,54.83274841308594 L517.4050903320312,55.94292068481445 L517.1514282226562,57.39701843261719 L517.0210571289062,58.99637985229492 L517.0712280273438,60.48328399658203 L517.3173828125,61.607460021972656 L517.7122802734375,62.23456954956055 L518.21142578125,62.36391830444336 L518.6652221679688,62.21183395385742 L518.9664916992188,61.995948791503906 M521.9339599609375,53.683509826660156 L521.9329833984375,53.87240982055664 L521.896484375,54.366424560546875 L521.7852783203125,55.25919723510742 L521.5660400390625,56.511512756347656 L521.2675170898438,57.98450469970703 L520.9537963867188,59.47090148925781 L520.6994018554688,60.74751281738281 L520.5631103515625,61.661224365234375 L520.5674438476562,62.10676574707031 L520.6786499023438,62.02021789550781 L520.889892578125,61.41481399536133 L521.2142944335938,60.347537994384766 L521.656005859375,58.935726165771484 L522.2357788085938,57.37004470825195 L522.954833984375,55.848785400390625 L523.7689819335938,54.538726806640625 L524.6216430664062,53.574310302734375 L525.4744262695312,53.02226257324219 L526.2550048828125,52.912567138671875 L526.9176025390625,53.26506042480469 L527.3990478515625,54.07492446899414 L527.6417236328125,55.295677185058594 L527.5948486328125,56.83440017700195 L527.2973022460938,58.491111755371094 L526.8424072265625,60.04159927368164 L526.3895263671875,61.27311706542969 L526.074462890625,62.03156280517578 L525.96337890625,62.226924896240234 L526.0418090820312,61.845619201660156 L526.3018798828125,60.894840240478516 L526.7536010742188,59.499210357666016 L527.4161987304688,57.85349655151367 L528.2847900390625,56.21084213256836 L529.2962646484375,54.78497314453125 L530.3464965820312,53.721885681152344 L531.3582153320312,53.07908248901367 L532.2754516601562,52.893150329589844 L533.0387573242188,53.183616638183594 L533.6002807617188,53.9482421875 L533.9091796875,55.16957473754883 L533.94775390625,56.71337127685547 L533.7677001953125,58.37528610229492 L533.5238037109375,59.72987365722656 L533.3275756835938,60.56904983520508 M539.2491455078125,54.06690216064453 L539.2843627929688,54.32296371459961 L539.3197021484375,54.89220428466797 L539.302001953125,55.85352325439453 L539.19140625,57.19353103637695 L538.9779052734375,58.86792755126953 L538.671630859375,60.782325744628906 L538.2990112304688,62.817222595214844 L537.9171752929688,64.82726287841797 L537.546875,66.65032958984375 L537.2476196289062,68.13626098632812 L537.0585327148438,69.18096160888672 L536.9715576171875,69.70486450195312 L536.9632568359375,69.68797302246094 L537.0176391601562,69.12242126464844 L537.1006469726562,68.0141372680664 L537.2333984375,66.4140625 L537.466552734375,64.45465850830078 L537.86083984375,62.27275848388672 L538.483642578125,60.044151306152344 L539.365478515625,57.90910339355469 L540.4749145507812,55.97509002685547 L541.7445068359375,54.33598327636719 L543.1150512695312,53.0969123840332 L544.5406494140625,52.320037841796875 L545.9754028320312,52.05620193481445 L547.335205078125,52.30226135253906 L548.4880981445312,53.00244903564453 L549.265869140625,54.06123352050781 L549.5418701171875,55.352359771728516 L549.260498046875,56.72925567626953 L548.4619140625,58.04462814331055 L547.2628173828125,59.15807342529297 L545.8220825195312,59.95253372192383 L544.2720947265625,60.36430358886719 L542.737548828125,60.40375900268555 L541.351318359375,60.107234954833984 L540.2452392578125,59.562320709228516 L539.515869140625,58.87964630126953 L539.1559448242188,58.278263092041016 L539.051513671875,57.879737854003906 M553.6892700195312,45.16648483276367 L553.7479248046875,45.52227020263672 L553.8020629882812,46.25827407836914 L553.7952270507812,47.444915771484375 L553.6604614257812,49.023258209228516 L553.3875732421875,50.928688049316406 L553.01708984375,53.06587219238281 L552.6109008789062,55.3076171875 L552.244873046875,57.49921798706055 L551.9862670898438,59.46718978881836 L551.855224609375,61.037288665771484 L551.823974609375,62.05583953857422 L551.84423828125,62.55893325805664 M554.5247802734375,59.28085708618164 L554.885986328125,59.20841598510742 L555.6839599609375,59.017520904541016 L556.9605102539062,58.66015625 L558.58203125,58.11198425292969 L560.3485717773438,57.386810302734375 L562.0452880859375,56.52634811401367 L563.4796752929688,55.6053581237793 L564.5309448242188,54.69019317626953 L565.1105346679688,53.8632698059082 L565.1552734375,53.198089599609375 L564.6427001953125,52.79843521118164 L563.6077880859375,52.76397705078125 L562.14501953125,53.17208480834961 L560.4728393554688,54.00836181640625 L558.8673095703125,55.203731536865234 L557.718017578125,56.65940475463867 L557.3065795898438,58.231597900390625 L557.7298583984375,59.76295852661133 L558.53125,60.94862747192383 L559.2783813476562,61.653343200683594 M578.2894287109375,61.1994743347168 L578.5794677734375,60.835975646972656 L579.2002563476562,60.084861755371094 L580.1795043945312,58.91432189941406 L581.4113159179688,57.40126419067383 L582.7787475585938,55.652748107910156 L584.1635131835938,53.79169464111328 L585.4876708984375,51.950584411621094 L586.69873046875,50.26786422729492 L587.7352294921875,48.8772087097168 L588.519287109375,47.87477493286133 L589.0,47.35306930541992 L589.1533203125,47.37483215332031 L588.986572265625,47.977962493896484 L588.51416015625,49.174049377441406 L587.7857666015625,50.878562927246094 L586.8888549804688,52.9481201171875 L585.939208984375,55.16914367675781 L585.0780029296875,57.3271598815918 L584.4266357421875,59.24801254272461 L584.0504150390625,60.77607727050781 L583.9564208984375,61.79081344604492 L584.100341796875,62.27186584472656 L584.32177734375,62.36457824707031 L584.5067749023438,62.270084381103516 M593.283203125,57.58015060424805 L593.6124877929688,57.51687240600586 L594.33642578125,57.41353988647461 L595.5352783203125,57.27192687988281 L597.2490234375,57.11185073852539 L599.4031372070312,56.936363220214844 L601.7908935546875,56.771827697753906 L603.8051147460938,56.647491455078125 L605.0993041992188,56.57912826538086 M617.8104858398438,50.7470588684082 L617.9189453125,50.84786605834961 L618.07177734375,51.15547561645508 L618.2102661132812,51.78914260864258 L618.2525024414062,52.818084716796875 L618.1770629882812,54.239925384521484 L617.9866943359375,55.99048614501953 L617.7388305664062,57.926204681396484 L617.4939575195312,59.85125732421875 L617.29931640625,61.53680419921875 L617.1844482421875,62.799705505371094 L617.1412963867188,63.55074691772461 L617.1385498046875,63.87458419799805 M612.8046875,49.3799934387207 L612.88232421875,49.018943786621094 L613.2571411132812,48.431854248046875 L614.10693359375,47.705074310302734 L615.5255126953125,47.026702880859375 L617.4270629882812,46.51087188720703 L619.6103515625,46.236358642578125 L621.8584594726562,46.24822998046875 L623.9491577148438,46.57024383544922 L625.6918334960938,47.17047882080078 L626.9379272460938,47.998714447021484 L627.579833984375,48.990264892578125 L627.5642700195312,50.08299255371094 L626.92138671875,51.22266387939453 L625.734619140625,52.36177062988281 L624.1845703125,53.439640045166016 L622.4948120117188,54.418128967285156 L620.918701171875,55.26091766357422 L619.6741943359375,55.9726448059082 L618.901123046875,56.57564926147461 L618.646484375,57.131526947021484 L618.8974609375,57.70821762084961 L619.5751953125,58.37804412841797 L620.595458984375,59.16056823730469 L621.873291015625,60.059932708740234 L623.2825317382812,61.011539459228516 L624.6829223632812,61.93547821044922 L625.7792358398438,62.646385192871094 L626.4354248046875,63.072898864746094 M630.0426025390625,56.6615104675293 L630.026611328125,56.74796676635742 L629.9588623046875,57.028289794921875 L629.8164672851562,57.5933723449707 L629.620361328125,58.460716247558594 L629.4453125,59.533538818359375 L629.3824462890625,60.656856536865234 L629.516357421875,61.65378189086914 L629.8990478515625,62.3550910949707 L630.539306640625,62.65055465698242 L631.409423828125,62.495975494384766 L632.459716796875,61.90209197998047 L633.5767211914062,60.943153381347656 L634.6505126953125,59.74078369140625 L635.6064453125,58.45460891723633 L636.3762817382812,57.2529182434082 L636.9395751953125,56.28169250488281 L637.321533203125,55.636985778808594 L637.54736328125,55.40061950683594 L637.650146484375,55.601478576660156 L637.6650390625,56.27606964111328 L637.5911254882812,57.34737777709961 L637.4603271484375,58.6302490234375 L637.3306274414062,59.72592544555664 L637.2427978515625,60.42412185668945 M643.0619506835938,55.87407684326172 L643.0643310546875,56.22190475463867 L643.03759765625,56.897430419921875 L642.9717407226562,57.888858795166016 L642.883056640625,59.016334533691406 L642.81787109375,60.097347259521484 L642.8033447265625,60.96439743041992 L642.8583984375,61.488014221191406 L643.0072631835938,61.57762908935547 L643.2838745117188,61.204647064208984 L643.73388671875,60.368316650390625 L644.3851318359375,59.17140579223633 L645.18896484375,57.78176498413086 L646.0791625976562,56.39338684082031 L647.010986328125,55.167274475097656 L647.9613647460938,54.20913314819336 L648.9349365234375,53.56402587890625 L649.935546875,53.26831817626953 L650.9070434570312,53.34760284423828 L651.7747802734375,53.83662414550781 L652.49072265625,54.731658935546875 L653.0173950195312,55.97800064086914 L653.345947265625,57.45576095581055 L653.4974365234375,59.01302719116211 L653.5100708007812,60.46305465698242 L653.4313354492188,61.65380096435547 L653.3402099609375,62.44390106201172 L653.2784423828125,62.8436279296875 M669.555908203125,47.50464630126953 L669.541259765625,47.61370849609375 L669.4353637695312,47.953086853027344 L669.15234375,48.62389373779297 L668.6256103515625,49.66300582885742 L667.8757934570312,51.034751892089844 L667.0054931640625,52.67939758300781 L666.2011108398438,54.51145935058594 L665.6231689453125,56.421180725097656 L665.3980712890625,58.26584243774414 L665.5790405273438,59.89841079711914 L666.1779174804688,61.1974983215332 L667.1475830078125,62.08624267578125 L668.4132080078125,62.54235076904297 L669.8290405273438,62.568519592285156 L671.2348022460938,62.20772171020508 L672.4409790039062,61.54191970825195 L673.2910766601562,60.659507751464844 L673.6854248046875,59.65927505493164 L673.581787109375,58.66843795776367 L673.0003662109375,57.81205368041992 L672.0059814453125,57.222328186035156 L670.7006225585938,57.01354217529297 L669.23095703125,57.22829055786133 L667.8109130859375,57.868080139160156 L666.6306762695312,58.88473892211914 L665.8563232421875,59.8893928527832 L665.4769287109375,60.620235443115234 " fill="none" stroke="black" stroke-linecap="round" stroke-width="2" /></svg>