<?xml version="1.0" encoding="utf-8" ?>
<svg baseProfile="full" height="100%" version="1.1" viewBox="0,0,1000,120" width="100%" xmlns="http://www.w3.org/2000/svg" xmlns:ev="http://www.w3.org/2001/xml-events" xmlns:xlink="http://www.w3.org/1999/xlink"><defs /><rect fill="white" height="120" width="1000" x="0" y="0" /><path d="M0,0 M318.82574462890625,49.5200080871582 L318.75830078125,49.91973114013672 L318.66754150390625,50.78489685058594 L318.5850524902344,52.18008041381836 L318.5169677734375,53.991851806640625 L318.44293212890625,56.083106994628906 L318.30474853515625,58.30210494995117 L318.0995178222656,60.54204559326172 L317.8319091796875,62.699859619140625 L317.55712890625,64.66211700439453 L317.2933654785156,66.27218627929688 L317.08905029296875,67.42853546142578 L316.94915771484375,68.11995697021484 L316.88677978515625,68.40206146240234 L316.87664794921875,68.32823944091797 L316.90966796875,67.9068374633789 L316.9659729003906,67.0656509399414 L317.0769958496094,65.7503433227539 L317.2812194824219,64.00265502929688 L317.58740234375,61.92434310913086 L318.0009460449219,59.64867401123047 L318.5210876464844,57.30321502685547 L319.11370849609375,54.97354507446289 L319.7561340332031,52.743499755859375 L320.402099609375,50.73271560668945 L320.9468994140625,49.054656982421875 L321.34881591796875,47.79784393310547 L321.5840148925781,47.02613067626953 L321.63641357421875,46.770729064941406 L321.55059814453125,47.061073303222656 L321.37872314453125,47.93198013305664 L321.1365661621094,49.348541259765625 L320.8951110839844,51.17641067504883 L320.7093811035156,53.218849182128906 L320.6147766113281,55.23475646972656 L320.65667724609375,57.008384704589844 L320.85223388671875,58.414390563964844 L321.17596435546875,59.37287521362305 L321.606201171875,59.81986999511719 L322.1478271484375,59.717220306396484 L322.8243408203125,59.01374053955078 L323.6950988769531,57.71355438232422 L324.7841796875,55.94709777832031 L326.0784912109375,53.92997741699219 L327.5104675292969,51.88918685913086 L329.0270690917969,50.01640319824219 L330.57159423828125,48.4095344543457 L332.08251953125,47.117427825927734 L333.4735107421875,46.168025970458984 L334.67913818359375,45.59706497192383 L335.63421630859375,45.4364128112793 L336.3511962890625,45.719482421875 L336.8548889160156,46.45193862915039 L337.140869140625,47.622535705566406 L337.1854248046875,49.164405822753906 L337.0081787109375,51.003517150878906 L336.6246337890625,53.04545593261719 L336.1427917480469,55.19894790649414 L335.6532897949219,57.351463317871094 L335.2180480957031,59.402618408203125 L334.8585510253906,61.26185607910156 L334.5943603515625,62.85323715209961 L334.40325927734375,64.12118530273438 L334.29522705078125,64.97080993652344 L334.24658203125,65.41621398925781 M344.80133056640625,57.51987075805664 L344.73773193359375,57.2818603515625 L344.5289306640625,56.998512268066406 L344.08612060546875,56.81292724609375 L343.3459167480469,56.913124084472656 L342.32843017578125,57.36384963989258 L341.13934326171875,58.18354797363281 L339.9627990722656,59.320152282714844 L338.9869384765625,60.68745422363281 L338.3782043457031,62.14791488647461 L338.21917724609375,63.53529357910156 L338.5473937988281,64.69300079345703 L339.3436584472656,65.48959350585938 L340.55096435546875,65.84871673583984 L342.0664367675781,65.74547576904297 L343.7639465332031,65.2071533203125 L345.4634704589844,64.29806518554688 L346.987548828125,63.12481689453125 L348.1636047363281,61.80278396606445 L348.8685607910156,60.4608268737793 L349.03594970703125,59.211647033691406 L348.7235412597656,58.15114212036133 L348.053955078125,57.33559799194336 L347.3631286621094,56.81904602050781 L346.8692626953125,56.565032958984375 M360.6064758300781,59.61235046386719 L360.460205078125,59.354434967041016 L360.1609802246094,59.00492477416992 L359.66925048828125,58.68915557861328 L358.9817810058594,58.5924072265625 L358.08929443359375,58.79396057128906 L357.0297546386719,59.33342742919922 L355.87774658203125,60.187721252441406 L354.76739501953125,61.310829162597656 L353.8363037109375,62.60102844238281 L353.19610595703125,63.92609786987305 L352.9051513671875,65.13273620605469 L352.9784240722656,66.08078002929688 L353.4158935546875,66.66032409667969 L354.1805725097656,66.79513549804688 L355.2452392578125,66.4366455078125 L356.5549621582031,65.57953643798828 L358.01153564453125,64.23432159423828 L359.5104064941406,62.46278762817383 L360.96697998046875,60.37375259399414 L362.2745666503906,58.09754180908203 L363.41778564453125,55.79325866699219 L364.3772277832031,53.63003921508789 L365.1204833984375,51.754066467285156 L365.63934326171875,50.267887115478516 L365.94573974609375,49.22119140625 L366.0700378417969,48.63994598388672 L366.0758972167969,48.55574417114258 L365.9791564941406,49.01129150390625 L365.796630859375,50.063255310058594 L365.53582763671875,51.677852630615234 L365.21539306640625,53.720130920410156 L364.92633056640625,56.00825500488281 L364.746826171875,58.32014846801758 L364.7436828613281,60.4464225769043 L365.009765625,62.238956451416016 L365.55828857421875,63.57670211791992 L366.3670349121094,64.38114929199219 L367.4247741699219,64.6330337524414 L368.65301513671875,64.34864807128906 L369.96746826171875,63.58723449707031 L371.28515625,62.452857971191406 L372.4827880859375,61.06877517700195 L373.48370361328125,59.567752838134766 L374.2442626953125,58.079524993896484 L374.7301025390625,56.72575759887695 L374.9394226074219,55.611968994140625 L374.8652038574219,54.82765197753906 L374.50982666015625,54.440528869628906 L373.92431640625,54.495052337646484 L373.1783142089844,55.00869369506836 L372.3658752441406,55.9559440612793 L371.60040283203125,57.253543853759766 L370.9957275390625,58.77931213378906 L370.6412353515625,60.39348220825195 L370.5928649902344,61.952754974365234 L370.88134765625,63.32742691040039 L371.481201171875,64.39056396484375 L372.3587951660156,65.03910827636719 L373.48101806640625,65.22119140625 L374.8031921386719,64.90994262695312 L376.26507568359375,64.11104583740234 L377.82415771484375,62.8588752746582 L379.39154052734375,61.20536422729492 L380.9132995605469,59.25676727294922 L382.33038330078125,57.17179870605469 L383.5968322753906,55.0858039855957 L384.65789794921875,53.1180305480957 L385.4740295410156,51.36216735839844 L386.01153564453125,49.88025665283203 L386.3103332519531,48.727760314941406 L386.41375732421875,47.941104888916016 L386.349609375,47.53199005126953 L386.13812255859375,47.52450942993164 L385.7682800292969,47.961891174316406 L385.241455078125,48.857295989990234 L384.6351318359375,50.18376159667969 L384.0415954589844,51.83734893798828 L383.5325012207031,53.70480728149414 L383.2166748046875,55.67499542236328 L383.12579345703125,57.65115737915039 L383.2778015136719,59.52633285522461 L383.7034606933594,61.19810485839844 L384.4022216796875,62.569759368896484 L385.4017333984375,63.59035110473633 L386.6982727050781,64.24356079101562 L388.176513671875,64.55133056640625 L389.44635009765625,64.62567901611328 L390.27935791015625,64.58740997314453 M415.7669677734375,57.954078674316406 L415.6165771484375,57.68695831298828 L415.2764892578125,57.311649322509766 L414.69384765625,56.94767761230469 L413.86041259765625,56.773860931396484 L412.8419189453125,56.86623764038086 L411.73785400390625,57.22749710083008 L410.69781494140625,57.80127716064453 L409.91375732421875,58.532047271728516 L409.56549072265625,59.3359375 L409.7798767089844,60.13780212402344 L410.6358642578125,60.88747024536133 L412.0868835449219,61.557525634765625 L413.9938049316406,62.17219924926758 L416.13958740234375,62.786434173583984 L418.2801208496094,63.44293975830078 L420.189453125,64.14735412597656 L421.7132568359375,64.87630462646484 L422.7513122558594,65.59439849853516 L423.234375,66.26248931884766 L423.119384765625,66.85728454589844 L422.369140625,67.37110137939453 L420.9852294921875,67.78108215332031 L419.08404541015625,68.07112884521484 L416.84423828125,68.22949981689453 L414.47503662109375,68.22149658203125 L412.21893310546875,68.03136444091797 L410.2259826660156,67.67533111572266 L408.6546936035156,67.12472534179688 L407.6470642089844,66.40215301513672 L407.2452087402344,65.5602035522461 L407.2476806640625,64.82023620605469 L407.4334716796875,64.32288360595703 M428.7547912597656,48.75988006591797 L428.7882080078125,48.967323303222656 L428.8193359375,49.48887252807617 L428.81658935546875,50.417423248291016 L428.7436218261719,51.73582458496094 L428.595458984375,53.35898208618164 L428.3957214355469,55.1806526184082 L428.170166015625,57.097686767578125 L427.9677734375,59.02643585205078 L427.83856201171875,60.868560791015625 L427.81732177734375,62.515586853027344 L427.91876220703125,63.89057922363281 L428.1073303222656,64.88694763183594 L428.30572509765625,65.43370819091797 L428.4393310546875,65.51872253417969 L428.492919921875,65.33454132080078 L428.4878234863281,65.08147430419922 M423.69293212890625,56.89419937133789 L423.95123291015625,56.89624786376953 L424.5836486816406,56.911678314208984 L425.6844482421875,56.95497131347656 L427.2760314941406,57.05221939086914 L429.24041748046875,57.215126037597656 L431.34112548828125,57.421295166015625 L433.0520324707031,57.607322692871094 L434.12066650390625,57.73056411743164 M444.507080078125,59.13713836669922 L444.3212890625,59.00756072998047 L443.9993896484375,58.820465087890625 L443.49615478515625,58.63368606567383 L442.7818603515625,58.556400299072266 L441.7819519042969,58.67818832397461 L440.50146484375,59.07377243041992 L439.0380859375,59.78125 L437.5851745605469,60.78789520263672 L436.32464599609375,62.010955810546875 L435.3983154296875,63.328224182128906 L434.8840637207031,64.60841369628906 L434.834228515625,65.7196273803711 L435.2650146484375,66.55690002441406 L436.17889404296875,67.02687072753906 L437.52716064453125,67.05522155761719 L439.1939697265625,66.60560607910156 L441.03729248046875,65.70468139648438 L442.91888427734375,64.42449951171875 L444.7002868652344,62.92405700683594 L446.2432861328125,61.39480209350586 L447.4364929199219,60.037498474121094 L448.2109680175781,58.999629974365234 L448.57318115234375,58.369789123535156 L448.6204528808594,58.16522216796875 L448.475830078125,58.395816802978516 L448.2108154296875,59.03810501098633 L447.91717529296875,60.041622161865234 L447.7024841308594,61.28608703613281 L447.6354064941406,62.58951950073242 L447.7820739746094,63.77174377441406 L448.03411865234375,64.62039184570312 L448.2552490234375,65.08428955078125 M457.1804504394531,49.3502082824707 L457.26513671875,49.25418472290039 L457.39996337890625,49.287437438964844 L457.54864501953125,49.62727737426758 L457.6410827636719,50.4406852722168 L457.6278076171875,51.73923110961914 L457.4814453125,53.43614959716797 L457.2418212890625,55.383541107177734 L456.9593505859375,57.41820526123047 L456.7120666503906,59.35756301879883 L456.56671142578125,61.036006927490234 L456.5315856933594,62.33879089355469 L456.5681457519531,63.2202033996582 L456.6326904296875,63.69096374511719 L456.6890869140625,63.782684326171875 L456.7427673339844,63.50496292114258 L456.8642272949219,62.83600616455078 L457.11846923828125,61.797359466552734 L457.5791015625,60.49741744995117 L458.291015625,59.091407775878906 L459.27142333984375,57.754573822021484 L460.46978759765625,56.626136779785156 L461.8323974609375,55.79368209838867 L463.262939453125,55.30891036987305 L464.67352294921875,55.20354461669922 L465.97686767578125,55.47095489501953 L467.1198425292969,56.0747184753418 L468.0354309082031,56.953453063964844 L468.68798828125,58.035343170166016 L469.0247802734375,59.2302360534668 L468.9962158203125,60.44255828857422 L468.55865478515625,61.5828742980957 L467.7153015136719,62.57617950439453 L466.50372314453125,63.356414794921875 L465.034912109375,63.88360595703125 L463.45184326171875,64.13169860839844 L461.89044189453125,64.09475708007812 L460.4649353027344,63.79330825805664 L459.24822998046875,63.281917572021484 L458.2602844238281,62.6338005065918 L457.533935546875,61.91900634765625 L457.0936279296875,61.20975875854492 L456.9290771484375,60.56902313232422 L456.94537353515625,60.09720993041992 L457.0345458984375,59.82514572143555 M471.6414794921875,56.23035430908203 L471.6539306640625,56.45997619628906 L471.64202880859375,56.9443244934082 L471.5903625488281,57.704402923583984 L471.4842834472656,58.681297302246094 L471.3536376953125,59.7979621887207 L471.22491455078125,60.96992111206055 L471.13177490234375,62.12159729003906 L471.11016845703125,63.12963104248047 L471.19232177734375,63.85423278808594 L471.3797607421875,64.207763671875 L471.5966796875,64.27025604248047 L471.76519775390625,64.1822509765625 M474.35382080078125,48.804141998291016 L474.4060974121094,48.8328857421875 L474.51470947265625,48.93619155883789 L474.63873291015625,49.07233428955078 L474.73724365234375,49.19959259033203 M483.6434020996094,45.0 L483.7218933105469,45.10206604003906 L483.77447509765625,45.41454315185547 L483.72412109375,46.043701171875 L483.49981689453125,47.05825424194336 L483.12176513671875,48.47789764404297 L482.62872314453125,50.269378662109375 L482.0662536621094,52.36260986328125 L481.4981689453125,54.64863967895508 L480.98614501953125,56.968265533447266 L480.58172607421875,59.16474151611328 L480.32733154296875,61.10661697387695 L480.24285888671875,62.68956756591797 L480.32354736328125,63.85646438598633 L480.5950927734375,64.5562973022461 L481.0897216796875,64.7333984375 L481.8291320800781,64.36024475097656 L482.79266357421875,63.4774169921875 L483.9172058105469,62.19655990600586 L485.08917236328125,60.7120361328125 L486.2165222167969,59.202266693115234 L487.21905517578125,57.80104064941406 L488.056884765625,56.593589782714844 L488.691650390625,55.6324462890625 L489.11529541015625,54.96142578125 L489.3291015625,54.664066314697266 L489.37579345703125,54.79813003540039 L489.28448486328125,55.4028434753418 L489.09130859375,56.47222900390625 L488.8175048828125,57.892311096191406 L488.52178955078125,59.47733688354492 L488.2774658203125,61.0424919128418 L488.1510009765625,62.36432647705078 L488.145751953125,63.28763198852539 L488.2210998535156,63.75554656982422 L488.30426025390625,63.87507629394531 L488.35552978515625,63.81208038330078 M489.7134094238281,47.619911193847656 L489.77996826171875,47.315792083740234 L489.93267822265625,46.93663787841797 L490.11285400390625,46.60635757446289 L490.2616271972656,46.44886016845703 M500.76239013671875,46.56151580810547 L500.56622314453125,46.854759216308594 L500.21563720703125,47.54383850097656 L499.7274169921875,48.72882080078125 L499.1606750488281,50.385765075683594 L498.53436279296875,52.42227554321289 L497.872802734375,54.684940338134766 L497.22393798828125,57.01850128173828 L496.6672058105469,59.25727462768555 L496.2664794921875,61.23207092285156 L496.0501708984375,62.81496047973633 L495.99664306640625,63.9222297668457 L496.0291748046875,64.43487548828125 L496.0662841796875,64.32856750488281 L496.06597900390625,63.66208267211914 L496.0281982421875,62.83256149291992 L495.980712890625,62.16887664794922 M495.4720458984375,56.45408248901367 L495.5963134765625,56.41667556762695 L495.91259765625,56.434391021728516 L496.5828857421875,56.529239654541016 L497.65130615234375,56.68017578125 L499.05230712890625,56.79209518432617 L500.3461608886719,56.836029052734375 L501.24444580078125,56.820457458496094 M505.49334716796875,53.76226043701172 L505.4708251953125,54.038272857666016 L505.4564208984375,54.61009216308594 L505.47857666015625,55.49366760253906 L505.5732116699219,56.58681869506836 L505.7838134765625,57.77938461303711 L506.1463623046875,58.94078063964844 L506.709228515625,59.96353530883789 L507.5089416503906,60.76142120361328 L508.55218505859375,61.24774169921875 L509.8250732421875,61.349708557128906 L511.28460693359375,61.046363830566406 L512.8471069335938,60.38364791870117 L514.4114990234375,59.48757553100586 L515.8236694335938,58.53425598144531 L516.9498901367188,57.67850112915039 L517.712646484375,57.04235076904297 L518.0596923828125,56.70766830444336 L517.98876953125,56.75238037109375 L517.5247802734375,57.2557487487793 L516.6480712890625,58.29945373535156 L515.3916625976562,59.88351821899414 L513.8428344726562,61.9732780456543 L512.0982055664062,64.43608093261719 L510.2630615234375,67.17713928222656 L508.4959716796875,70.00501251220703 L506.89764404296875,72.71466064453125 L505.7196044921875,74.78744506835938 L505.04656982421875,76.02921295166016 M550.7951049804688,58.251346588134766 L550.6124267578125,57.96499252319336 L550.24267578125,57.50687789916992 L549.6197509765625,56.98830795288086 L548.689453125,56.59707260131836 L547.3685302734375,56.45429992675781 L545.6679077148438,56.645389556884766 L543.683837890625,57.18378448486328 L541.5958862304688,58.04789733886719 L539.6341552734375,59.20170593261719 L538.0078125,60.563716888427734 L536.8616943359375,62.039215087890625 L536.2799682617188,63.521240234375 L536.265380859375,64.88208770751953 L536.7720336914062,66.00263977050781 L537.7769775390625,66.77413940429688 L539.266357421875,67.0923080444336 L541.204833984375,66.89387512207031 L543.5321044921875,66.17045593261719 L546.103759765625,64.98046875 L548.7353515625,63.41323471069336 L551.2584228515625,61.568565368652344 L553.5233154296875,59.51129150390625 L555.4310302734375,57.29558181762695 L556.96435546875,54.987998962402344 L558.0874633789062,52.70835494995117 L558.8134765625,50.60823440551758 L559.1844482421875,48.8511962890625 L559.2495727539062,47.558170318603516 L559.093505859375,46.80617904663086 L558.822509765625,46.62315368652344 L558.46484375,47.028106689453125 L558.031982421875,48.04625701904297 L557.510986328125,49.64033508300781 L556.8897705078125,51.702457427978516 L556.21337890625,54.061336517333984 L555.586669921875,56.49031448364258 L555.117919921875,58.759029388427734 L554.8759155273438,60.69902801513672 L554.8722534179688,62.18478012084961 L555.078857421875,63.138587951660156 L555.472900390625,63.520286560058594 L556.082763671875,63.33877182006836 L556.9598999023438,62.63552474975586 L558.1201171875,61.529640197753906 L559.5211181640625,60.20315170288086 L561.0654296875,58.84889221191406 L562.6285400390625,57.627803802490234 L564.08984375,56.67634201049805 L565.3516235351562,56.07271957397461 L566.356689453125,55.875064849853516 L567.0596923828125,56.09227752685547 L567.475341796875,56.70848083496094 L567.651611328125,57.664222717285156 L567.644287109375,58.863487243652344 L567.5446166992188,60.19133758544922 L567.4866943359375,61.53456497192383 L567.5621948242188,62.74223327636719 L567.9102783203125,63.695770263671875 L568.61474609375,64.28857421875 L569.70556640625,64.43846130371094 L571.1567993164062,64.1288833618164 L572.8759765625,63.38723373413086 L574.66357421875,62.26663589477539 L576.3435668945312,60.865318298339844 L577.7335205078125,59.321590423583984 L578.72607421875,57.79269790649414 L579.27685546875,56.44575500488281 L579.39453125,55.40752029418945 L579.0853271484375,54.77499771118164 L578.3701782226562,54.603599548339844 L577.2938232421875,54.948089599609375 L575.96923828125,55.80889129638672 L574.5691528320312,57.11591339111328 L573.3522338867188,58.73298645019531 L572.5238037109375,60.49601364135742 L572.340576171875,62.217464447021484 L572.916259765625,63.74095916748047 L574.1956787109375,64.93699645996094 L575.58447265625,65.69967651367188 L576.6463012695312,66.06659698486328 M590.6807861328125,56.946998596191406 L590.3966064453125,56.70167922973633 L589.8789672851562,56.434146881103516 L589.108154296875,56.289520263671875 L588.13427734375,56.44390106201172 L586.9552612304688,56.916282653808594 L585.660888671875,57.71382141113281 L584.4041748046875,58.79298400878906 L583.3702392578125,60.0755500793457 L582.7476806640625,61.443931579589844 L582.6788330078125,62.75309753417969 L583.191650390625,63.876060485839844 L584.377197265625,64.65137481689453 L586.1875610351562,64.97221374511719 L588.4339599609375,64.79585266113281 L590.447265625,64.38056945800781 L591.8077392578125,63.970489501953125 M601.5453491210938,47.7070426940918 L601.519775390625,47.81901931762695 L601.4492797851562,48.19458770751953 L601.2980346679688,48.97319412231445 L601.0241088867188,50.19695281982422 L600.616455078125,51.81652069091797 L600.07421875,53.73286819458008 L599.4111328125,55.834434509277344 L598.68701171875,58.02216720581055 L597.9653930664062,60.19084548950195 L597.300048828125,62.175994873046875 L596.7587280273438,63.84208297729492 L596.43212890625,65.03958129882812 L596.3775634765625,65.6941909790039 L596.6123046875,65.83982849121094 L596.9639892578125,65.70419311523438 L597.268798828125,65.49267578125 M604.7259521484375,58.21414566040039 L604.6581420898438,57.99705123901367 L604.4557495117188,57.76871109008789 L604.0410766601562,57.676719665527344 L603.3583984375,57.885963439941406 L602.3983154296875,58.40584945678711 L601.259521484375,59.17593765258789 L600.1048583984375,60.07994079589844 L599.1513671875,61.04823684692383 L598.6275634765625,62.021602630615234 L598.70849609375,62.96628952026367 L599.4422607421875,63.861270904541016 L600.8568725585938,64.67487335205078 L602.795166015625,65.3673324584961 L605.0154418945312,65.91839599609375 L606.9002685546875,66.2828140258789 L608.118408203125,66.47087860107422 M618.3414306640625,62.54087448120117 L618.713134765625,62.471435546875 L619.5161743164062,62.37534713745117 L620.80517578125,62.282386779785156 L622.5098876953125,62.223297119140625 L624.4500732421875,62.193870544433594 L626.407470703125,62.17934799194336 L627.948486328125,62.17155456542969 L628.8807373046875,62.16425323486328 M646.11181640625,51.858612060546875 L645.8460083007812,52.51179122924805 L645.4283447265625,53.69096755981445 L644.9171142578125,55.33478546142578 L644.4117431640625,57.20917892456055 L643.9181518554688,59.193275451660156 L643.4328002929688,61.188201904296875 L642.9702758789062,63.081058502197266 L642.575439453125,64.71424865722656 L642.293701171875,65.9303207397461 L642.14013671875,66.6519775390625 L642.08544921875,66.95634460449219 L642.0792846679688,67.01512145996094 M641.500244140625,49.053367614746094 L641.872314453125,48.46516036987305 L642.6849365234375,47.632598876953125 L644.01220703125,46.74927520751953 L645.7880249023438,46.10621643066406 L647.9134521484375,45.759952545166016 L650.2088623046875,45.72892761230469 L652.508056640625,45.99184799194336 L654.6364135742188,46.52726364135742 L656.4302978515625,47.26763153076172 L657.7635498046875,48.130733489990234 L658.5379028320312,49.057960510253906 L658.68603515625,50.027000427246094 L658.181396484375,51.04450225830078 L657.05029296875,52.11249542236328 L655.4247436523438,53.23394775390625 L653.5196533203125,54.38584899902344 L651.563720703125,55.53472137451172 L649.7752685546875,56.63204574584961 L648.2891845703125,57.63407897949219 L647.1884155273438,58.516727447509766 L646.515869140625,59.29637908935547 L646.2943115234375,59.997154235839844 L646.50830078125,60.65935134887695 L647.1243286132812,61.30894088745117 L648.0906982421875,61.961219787597656 L649.3442993164062,62.61122131347656 L650.7823486328125,63.25555419921875 L652.2899780273438,63.86436080932617 L653.7498779296875,64.4074935913086 L655.08740234375,64.85260009765625 L656.2808837890625,65.16055297851562 L657.3395385742188,65.27011108398438 L658.270263671875,65.16570281982422 L659.0530395507812,64.86754608154297 L659.60107421875,64.52812957763672 L659.904052734375,64.27218627929688 M662.6732177734375,57.83518600463867 L662.7109375,57.70962142944336 L662.72509765625,57.6136360168457 L662.66552734375,57.684417724609375 L662.48681640625,58.06110763549805 L662.1753540039062,58.76411819458008 L661.7753295898438,59.75234603881836 L661.3349609375,60.920860290527344 L660.9546508789062,62.15357208251953 L660.7386474609375,63.35395431518555 L660.8003540039062,64.41720581054688 L661.1995849609375,65.25076293945312 L661.9594116210938,65.75423431396484 L663.025146484375,65.858642578125 L664.3525390625,65.5351791381836 L665.8477783203125,64.81121826171875 L667.4344482421875,63.7416877746582 L669.0128784179688,62.438411712646484 L670.4571533203125,61.01864242553711 L671.6522827148438,59.62641143798828 L672.5608520507812,58.409786224365234 L673.1500244140625,57.46871566772461 L673.4576416015625,56.8494873046875 L673.5317993164062,56.596046447753906 L673.40087890625,56.71322250366211 L673.1063232421875,57.2230110168457 L672.7064208984375,58.1291389465332 L672.2529296875,59.355220794677734 L671.8187866210938,60.75065231323242 L671.4884033203125,62.15681457519531 L671.3348388671875,63.41594696044922 L671.41064453125,64.4344711303711 L671.7569580078125,65.13838195800781 L672.38525390625,65.4768295288086 L673.2311401367188,65.39047241210938 L674.2364501953125,64.87755584716797 L675.3197021484375,63.99417495727539 L676.4158325195312,62.84925842285156 L677.5069580078125,61.559139251708984 L678.5794677734375,60.26885223388672 L679.5442504882812,59.086700439453125 L680.3560791015625,58.11551284790039 L680.9683837890625,57.42570877075195 L681.38623046875,57.05526351928711 L681.6557006835938,57.02425765991211 L681.8060302734375,57.35813522338867 L681.7987670898438,58.0545539855957 L681.617919921875,59.08448028564453 L681.2547607421875,60.34832000732422 L680.798828125,61.70458221435547 L680.3676147460938,62.99348831176758 L680.0504150390625,64.07386779785156 L679.8775024414062,64.85919952392578 L679.8211669921875,65.31329345703125 L679.8438110351562,65.427490234375 L679.9725952148438,65.210693359375 L680.2515869140625,64.66108703613281 L680.7086791992188,63.80467224121094 L681.3468017578125,62.71977996826172 L682.11669921875,61.5026969909668 L682.980224609375,60.26087188720703 L683.9348754882812,59.0955810546875 L685.012451171875,58.073238372802734 L686.2357788085938,57.25848388671875 L687.614013671875,56.70522689819336 L689.0748901367188,56.44572448730469 L690.5001831054688,56.480491638183594 L691.76806640625,56.80596160888672 L692.77099609375,57.397430419921875 L693.4332885742188,58.228057861328125 L693.748046875,59.25897979736328 L693.7171630859375,60.44363021850586 L693.380615234375,61.69850158691406 L692.8115844726562,62.93894958496094 L692.11669921875,64.08634948730469 L691.4229125976562,65.07658386230469 L690.8643798828125,65.85993194580078 L690.516845703125,66.42161560058594 L690.3677978515625,66.75296783447266 L690.3424072265625,66.89884948730469 M715.7303466796875,52.88591766357422 L715.553466796875,52.51424789428711 L715.1837158203125,51.96908187866211 L714.5517578125,51.37394714355469 L713.6317138671875,50.91903305053711 L712.4169921875,50.64916229248047 L710.989501953125,50.57221221923828 L709.508056640625,50.655025482177734 L708.1813354492188,50.90271759033203 L707.1715087890625,51.32497787475586 L706.5991821289062,51.92703628540039 L706.532958984375,52.693641662597656 L706.986328125,53.575679779052734 L707.9298095703125,54.52045440673828 L709.2933349609375,55.47724914550781 L710.91845703125,56.42936325073242 L712.6458129882812,57.3765983581543 L714.3153076171875,58.32773208618164 L715.7723999023438,59.27650451660156 L716.8871459960938,60.216041564941406 L717.5623779296875,61.10528564453125 L717.7039794921875,61.902252197265625 L717.2935791015625,62.56084442138672 L716.3515625,63.036598205566406 L714.9688110351562,63.280967712402344 L713.2890625,63.256568908691406 L711.4801025390625,62.943572998046875 L709.7073974609375,62.364898681640625 L708.1189575195312,61.5713996887207 L706.806396484375,60.628257751464844 L705.8704223632812,59.562957763671875 L705.398193359375,58.37890625 L705.466796875,57.08030700683594 L706.11767578125,55.678131103515625 L707.3226318359375,54.1961784362793 L708.9749755859375,52.70429611206055 L710.9390869140625,51.27141571044922 L713.0765380859375,49.98507308959961 L715.249267578125,48.920780181884766 L717.3322143554688,48.11578369140625 L719.2303466796875,47.55024719238281 L720.84375,47.18455505371094 L722.0902099609375,46.958316802978516 L722.9683227539062,46.83135223388672 L723.4451904296875,46.73698425292969 L723.5184326171875,46.61904525756836 L723.3770751953125,46.49395751953125 L723.1777954101562,46.38616943359375 " fill="none" stroke="black" stroke-linecap="round" stroke-width="2" /></svg>