<?xml version="1.0" encoding="utf-8" ?>
<svg baseProfile="full" height="100%" version="1.1" viewBox="0,0,1000,120" width="100%" xmlns="http://www.w3.org/2000/svg" xmlns:ev="http://www.w3.org/2001/xml-events" xmlns:xlink="http://www.w3.org/1999/xlink"><defs /><rect fill="white" height="120" width="1000" x="0" y="0" /><path d="M0,0 M356.71673583984375,45.950164794921875 L356.6234130859375,45.63568115234375 L356.281494140625,45.255470275878906 L355.5540466308594,45.0 L354.39569091796875,45.12302780151367 L352.901611328125,45.713218688964844 L351.238525390625,46.74968338012695 L349.6383056640625,48.122154235839844 L348.3294677734375,49.707977294921875 L347.5207824707031,51.359222412109375 L347.3535461425781,52.966793060302734 L347.8802795410156,54.44606399536133 L349.04681396484375,55.746803283691406 L350.74395751953125,56.86872863769531 L352.79376220703125,57.851112365722656 L355.0033874511719,58.75362014770508 L357.1297607421875,59.64611053466797 L358.9412536621094,60.576480865478516 L360.248779296875,61.574127197265625 L360.9637451171875,62.65508270263672 L361.0755920410156,63.80482864379883 L360.6435241699219,64.98548889160156 L359.7477722167969,66.13475799560547 L358.4823913574219,67.19286346435547 L356.9388122558594,68.08824920654297 L355.2308044433594,68.76549530029297 L353.5010070800781,69.17536926269531 L351.88702392578125,69.30442810058594 L350.5627136230469,69.13853454589844 L349.65460205078125,68.72744750976562 L349.2059020996094,68.14227294921875 L349.09320068359375,67.59601593017578 L349.152587890625,67.21929168701172 M365.74951171875,46.820430755615234 L365.7395324707031,46.99598693847656 L365.7347412109375,47.506717681884766 L365.7471618652344,48.487186431884766 L365.7870178222656,49.955421447753906 L365.8448486328125,51.82248306274414 L365.91217041015625,53.97268295288086 L365.9884948730469,56.3061637878418 L366.057861328125,58.72274398803711 L366.1206359863281,61.113609313964844 L366.18145751953125,63.33270263671875 L366.25244140625,65.24945068359375 L366.3323669433594,66.71430206298828 L366.4080810546875,67.65013122558594 L366.4530029296875,68.0516128540039 L366.4652404785156,68.09512329101562 L366.45367431640625,67.98039245605469 M361.95623779296875,58.462257385253906 L362.23834228515625,58.434959411621094 L362.8132629394531,58.378395080566406 L363.6977233886719,58.30463790893555 L364.8319091796875,58.244590759277344 L366.12481689453125,58.22629928588867 L367.4373779296875,58.27185821533203 L368.4844055175781,58.34846115112305 L369.1295471191406,58.41508102416992 M373.4556579589844,57.76382827758789 L373.4256591796875,58.19374084472656 L373.35498046875,59.006019592285156 L373.2297058105469,60.201515197753906 L373.036865234375,61.657691955566406 L372.7785339355469,63.29621124267578 L372.4576110839844,64.98202514648438 L372.1324768066406,66.55841064453125 L371.8758850097656,67.8506088256836 L371.7648620605469,68.6994857788086 L371.8382568359375,68.98797607421875 L372.1003112792969,68.67382049560547 L372.525390625,67.76518249511719 L373.0891418457031,66.35791778564453 L373.7386779785156,64.63148498535156 L374.42156982421875,62.807579040527344 L375.0611877441406,61.092674255371094 L375.5972900390625,59.63853454589844 L376.0239562988281,58.537376403808594 L376.3738708496094,57.820072174072266 L376.7070617675781,57.495933532714844 L377.1025695800781,57.555381774902344 L377.6112976074219,57.97600173950195 L378.2662048339844,58.695682525634766 L379.1102600097656,59.62804412841797 L380.1443176269531,60.60257339477539 L381.350830078125,61.44293212890625 L382.6888427734375,62.001487731933594 L384.086669921875,62.18386459350586 L385.4364013671875,61.944129943847656 L386.6390380859375,61.30263137817383 L387.57135009765625,60.32957077026367 L388.1265563964844,59.162960052490234 L388.260986328125,58.00614547729492 L387.978759765625,57.06812286376953 L387.30841064453125,56.51703643798828 L386.34033203125,56.46632385253906 L385.1774597167969,56.981834411621094 L383.95361328125,58.05031967163086 L382.8483581542969,59.578556060791016 L382.03094482421875,61.404945373535156 L381.6265869140625,63.32466506958008 L381.72393798828125,65.13558959960938 L382.3374938964844,66.68356323242188 L383.5562438964844,67.79020690917969 L385.35064697265625,68.33236694335938 L387.5851135253906,68.28720092773438 L389.596923828125,67.93148803710938 L390.96075439453125,67.54220581054688 M398.40203857421875,57.19681930541992 L397.8313293457031,56.9748649597168 L396.743896484375,56.765689849853516 L395.1755676269531,56.72396469116211 L393.4032287597656,56.99456787109375 L391.7135009765625,57.53947067260742 L390.4023132324219,58.2706298828125 L389.6707458496094,59.07368087768555 L389.63751220703125,59.87760543823242 L390.3160705566406,60.63431930541992 L391.6492614746094,61.3298454284668 L393.4866027832031,61.98066329956055 L395.6123046875,62.62540817260742 L397.7353515625,63.28633499145508 L399.5751647949219,63.9643669128418 L400.91094970703125,64.63910675048828 L401.6094970703125,65.2907943725586 L401.6272888183594,65.91271209716797 L400.9920654296875,66.49693298339844 L399.78460693359375,67.01727294921875 L398.1483459472656,67.45000457763672 L396.27642822265625,67.76129913330078 L394.3924255371094,67.94608306884766 L392.7427062988281,67.9951400756836 L391.496337890625,67.9138412475586 L390.7398986816406,67.72006225585938 L390.40106201171875,67.50962829589844 L390.3218994140625,67.34562683105469 M409.1236572265625,55.86629867553711 L408.5439453125,55.76376724243164 L407.5564880371094,55.743682861328125 L406.2714538574219,55.92266082763672 L404.9808044433594,56.41053771972656 L403.8909606933594,57.18235778808594 L403.1917724609375,58.1584587097168 L403.01031494140625,59.24013900756836 L403.4237060546875,60.360130310058594 L404.430908203125,61.43357467651367 L405.92913818359375,62.43475341796875 L407.7455749511719,63.3648567199707 L409.6322937011719,64.23404693603516 L411.2764892578125,65.03321075439453 L412.4100646972656,65.74929809570312 L412.832763671875,66.335205078125 L412.44183349609375,66.7898941040039 L411.28521728515625,67.14298248291016 L409.51580810546875,67.43614196777344 L407.3424072265625,67.69478607177734 L405.0272521972656,67.9137954711914 L402.82293701171875,68.05008697509766 L400.9361877441406,68.0761489868164 L399.626953125,68.02880096435547 L398.9220275878906,67.9579849243164 M429.75152587890625,46.50294876098633 L429.7671813964844,46.80963897705078 L429.7819519042969,47.470497131347656 L429.8016052246094,48.56317138671875 L429.81005859375,50.05598068237305 L429.794677734375,51.91722106933594 L429.76220703125,54.09684371948242 L429.7090759277344,56.53242492675781 L429.6627197265625,59.10243225097656 L429.6654968261719,61.642127990722656 L429.7176818847656,63.93281555175781 L429.805419921875,65.81373596191406 L429.893798828125,67.12836456298828 L429.938720703125,67.82073974609375 L429.9228515625,67.93891143798828 L429.8753662109375,67.74639892578125 L429.8232421875,67.4810791015625 M424.2083435058594,58.4488525390625 L424.2474670410156,58.51301574707031 L424.4963073730469,58.65126419067383 L425.1083068847656,58.87123107910156 L426.1728210449219,59.142024993896484 L427.679443359375,59.41965866088867 L429.53924560546875,59.63776397705078 L431.6435546875,59.75373077392578 L433.86260986328125,59.73762130737305 L436.0503234863281,59.56690979003906 L438.0342102050781,59.24000930786133 L439.6794738769531,58.75899887084961 L440.879638671875,58.12716293334961 L441.5901794433594,57.3824348449707 L441.79949951171875,56.6103515625 L441.51312255859375,55.917572021484375 L440.7598571777344,55.45342254638672 L439.6265869140625,55.33739471435547 L438.22833251953125,55.63752365112305 L436.7367248535156,56.35857391357422 L435.3504638671875,57.44710159301758 L434.24603271484375,58.795677185058594 L433.5814514160156,60.27370834350586 L433.46087646484375,61.73014450073242 L433.9312438964844,63.037139892578125 L435.018798828125,64.09243774414062 L436.6934509277344,64.83747863769531 L438.86004638671875,65.27388000488281 L441.4749755859375,65.36101531982422 L444.35919189453125,65.09033203125 L447.29327392578125,64.50113677978516 L449.6504211425781,63.85698699951172 L451.11602783203125,63.3609619140625 M455.0950622558594,54.82990646362305 L454.54486083984375,54.46598434448242 L453.4912109375,54.07199478149414 L451.9498291015625,53.859710693359375 L450.15625,54.05701446533203 L448.378173828125,54.6404914855957 L446.936767578125,55.50227355957031 L446.1004333496094,56.50456619262695 L446.0606689453125,57.55014419555664 L446.8837890625,58.5385627746582 L448.50128173828125,59.41564178466797 L450.73297119140625,60.17012405395508 L453.2727355957031,60.83626937866211 L455.73529052734375,61.46623992919922 L457.74456787109375,62.08774948120117 L459.03350830078125,62.694000244140625 L459.4786071777344,63.27610778808594 L459.1165771484375,63.83985900878906 L458.071044921875,64.39974975585938 L456.521240234375,64.94075012207031 L454.7084045410156,65.44342803955078 L452.89697265625,65.86695861816406 L451.3073425292969,66.18081665039062 L450.1617431640625,66.340576171875 L449.5731201171875,66.32279968261719 L449.52923583984375,66.11456298828125 L449.7816467285156,65.8458023071289 L450.08721923828125,65.6204833984375 M464.3199462890625,45.275657653808594 L464.35516357421875,45.59697341918945 L464.383056640625,46.35302734375 L464.375244140625,47.648162841796875 L464.30615234375,49.46186065673828 L464.19061279296875,51.69234085083008 L464.05364990234375,54.1973991394043 L463.93841552734375,56.82364273071289 L463.88720703125,59.408973693847656 L463.92645263671875,61.752784729003906 L464.0562744140625,63.69424819946289 L464.2099914550781,65.00914001464844 L464.32891845703125,65.69857025146484 M459.21197509765625,57.353553771972656 L459.34381103515625,57.265750885009766 L459.78643798828125,57.161376953125 L460.7000732421875,57.07411575317383 L462.15032958984375,57.03830337524414 L464.07562255859375,57.043785095214844 L466.32647705078125,57.05931091308594 L468.70758056640625,57.06226348876953 L471.00482177734375,57.056800842285156 L472.998046875,57.03651428222656 L474.52813720703125,56.99472427368164 L475.48590087890625,56.951480865478516 L475.9367370605469,56.91412353515625 M494.6507568359375,57.01142883300781 L494.1812438964844,56.731624603271484 L493.3253173828125,56.369102478027344 L492.13861083984375,56.06158447265625 L490.8416442871094,55.99074935913086 L489.611083984375,56.18632507324219 L488.64178466796875,56.6309928894043 L488.081298828125,57.26586151123047 L488.05706787109375,58.049827575683594 L488.63726806640625,58.93177795410156 L489.8163146972656,59.87590789794922 L491.46368408203125,60.83576202392578 L493.34307861328125,61.778289794921875 L495.16015625,62.67592239379883 L496.619384765625,63.49968338012695 L497.4843444824219,64.21469116210938 L497.63360595703125,64.81753540039062 L497.029541015625,65.30638885498047 L495.70098876953125,65.68998718261719 L493.8070983886719,65.98714447021484 L491.55120849609375,66.19874572753906 L489.1900634765625,66.31462860107422 L486.9998779296875,66.33984375 L485.1933288574219,66.26496124267578 L483.9893798828125,66.0588607788086 L483.5357666015625,65.72097778320312 L483.81292724609375,65.26782989501953 L484.42352294921875,64.8414535522461 L485.0060119628906,64.54629516601562 M503.42144775390625,58.380401611328125 L503.46453857421875,57.99108123779297 L503.3604736328125,57.40987777709961 L502.9559326171875,56.786014556884766 L502.15240478515625,56.384010314941406 L500.99981689453125,56.33136749267578 L499.63916015625,56.71637725830078 L498.2669372558594,57.52741241455078 L497.0608215332031,58.701316833496094 L496.1782531738281,60.09861373901367 L495.72772216796875,61.55796432495117 L495.75384521484375,62.87833023071289 L496.238037109375,63.892513275146484 L497.1305236816406,64.48292541503906 L498.3241882324219,64.58950805664062 L499.69891357421875,64.18782043457031 L501.1029357910156,63.329856872558594 L502.4162902832031,62.114593505859375 L503.5269775390625,60.70131301879883 L504.3828125,59.29405975341797 L504.9725036621094,58.094078063964844 L505.3115234375,57.23423767089844 L505.41827392578125,56.814430236816406 L505.3509826660156,56.893211364746094 L505.13836669921875,57.47209930419922 L504.8329162597656,58.51261520385742 L504.52655029296875,59.904117584228516 L504.29803466796875,61.46932601928711 L504.2318115234375,63.03073501586914 L504.40399169921875,64.4288558959961 L504.8365478515625,65.51229095458984 L505.5333251953125,66.17316436767578 L506.4689636230469,66.31629943847656 L507.56622314453125,65.8881607055664 L508.74566650390625,64.9288558959961 L509.92626953125,63.575408935546875 L511.00482177734375,61.988304138183594 L511.91339111328125,60.367591857910156 L512.5983276367188,58.87928009033203 L513.0374145507812,57.63095474243164 L513.2626953125,56.70808029174805 L513.320068359375,56.18844985961914 L513.2318725585938,56.10457229614258 L513.03564453125,56.49201202392578 L512.7532958984375,57.3489990234375 L512.424072265625,58.603336334228516 L512.1179809570312,60.12185287475586 L511.87725830078125,61.719844818115234 L511.7424621582031,63.19708251953125 L511.7161560058594,64.3874740600586 L511.76776123046875,65.19556427001953 L511.8595886230469,65.56513214111328 L511.98651123046875,65.46865844726562 L512.1575317382812,64.8988265991211 L512.425537109375,63.888248443603516 L512.8074951171875,62.535865783691406 L513.3346557617188,61.00758361816406 L514.0061645507812,59.477325439453125 L514.8231201171875,58.0931282043457 L515.7720336914062,56.97051239013672 L516.8225708007812,56.17190170288086 L517.89306640625,55.74076843261719 L518.9253540039062,55.71092987060547 L519.8402099609375,56.10432815551758 L520.5589599609375,56.90050506591797 L521.00390625,58.05391311645508 L521.1235961914062,59.452186584472656 L520.8990478515625,60.93174743652344 L520.4171142578125,62.32014846801758 L519.8275756835938,63.47962188720703 L519.2990112304688,64.28461456298828 L518.959228515625,64.66242218017578 L518.87255859375,64.57164001464844 L519.0452270507812,63.99894714355469 L519.47021484375,62.987632751464844 L520.1281127929688,61.66309356689453 L520.996337890625,60.18281173706055 L522.0347900390625,58.72662353515625 L523.1654052734375,57.44819259643555 L524.302978515625,56.44544219970703 L525.34619140625,55.783592224121094 L526.21875,55.51033401489258 L526.872314453125,55.65473556518555 L527.2985229492188,56.21989440917969 L527.4963989257812,57.17650604248047 L527.4976806640625,58.430870056152344 L527.35107421875,59.873348236083984 L527.1475830078125,61.3658447265625 L527.001708984375,62.756500244140625 L527.000732421875,63.894771575927734 L527.1703491210938,64.6944808959961 L527.4028930664062,65.13359069824219 L527.595947265625,65.30244445800781 M531.215576171875,57.15725326538086 L531.2672729492188,57.384700775146484 L531.3425903320312,57.89543533325195 L531.4009399414062,58.75877380371094 L531.3740234375,59.971378326416016 L531.2327880859375,61.533267974853516 L530.9672241210938,63.39548110961914 L530.5906982421875,65.47565460205078 L530.1363525390625,67.64891815185547 L529.6402587890625,69.74085998535156 L529.1373901367188,71.56436920166016 L528.6846923828125,72.97879791259766 L528.309814453125,73.86030578613281 L528.02880859375,74.13660430908203 L527.8465576171875,73.79740142822266 L527.7770385742188,72.8727798461914 L527.8529052734375,71.44377899169922 L528.1084594726562,69.64064025878906 L528.5509643554688,67.58519744873047 L529.1658325195312,65.40133666992188 L529.929443359375,63.216896057128906 L530.821533203125,61.150638580322266 L531.8345947265625,59.32758712768555 L532.9527587890625,57.87665557861328 L534.1361083984375,56.901771545410156 L535.3253173828125,56.462242126464844 L536.4522094726562,56.57482147216797 L537.4429931640625,57.20553207397461 L538.2075805664062,58.25676727294922 L538.670166015625,59.603397369384766 L538.7499389648438,61.08076095581055 L538.4248046875,62.50167465209961 L537.7073974609375,63.70755386352539 L536.6726684570312,64.59678649902344 L535.4201049804688,65.12271118164062 L534.0928344726562,65.3186264038086 L532.848876953125,65.19200134277344 L531.8693237304688,64.78709411621094 L531.262451171875,64.17740631103516 L531.0006103515625,63.591426849365234 L530.9609375,63.17890930175781 M544.4027099609375,46.0405387878418 L544.2918090820312,46.506683349609375 L544.0746459960938,47.46148681640625 L543.7439575195312,48.9412727355957 L543.3443603515625,50.8283805847168 L542.9326782226562,52.992427825927734 L542.5617065429688,55.26921844482422 L542.2921752929688,57.504371643066406 L542.1956176757812,59.57728958129883 L542.2935791015625,61.352962493896484 L542.5726318359375,62.75410842895508 L542.8921508789062,63.672088623046875 L543.1342163085938,64.14166259765625 M543.2953491210938,63.857765197753906 L543.7504272460938,63.591121673583984 L544.62158203125,63.04685592651367 L545.9111328125,62.19356155395508 L547.4561157226562,61.09944534301758 L549.100341796875,59.83596420288086 L550.6458740234375,58.49320983886719 L551.9200439453125,57.1868896484375 L552.7841796875,56.013893127441406 L553.1461181640625,55.08460235595703 L552.9642944335938,54.509910583496094 L552.2532958984375,54.384830474853516 L551.097412109375,54.758174896240234 L549.6646728515625,55.62550735473633 L548.2029418945312,56.8889045715332 L546.9697265625,58.407833099365234 L546.2207641601562,60.0202522277832 L546.1432495117188,61.57471466064453 L546.83837890625,62.93477249145508 L548.3134765625,63.989097595214844 L550.4708862304688,64.6579360961914 L553.0860595703125,64.92999267578125 L555.8680419921875,64.88739013671875 L558.498046875,64.60755920410156 L560.709716796875,64.17430114746094 L562.3675537109375,63.64092254638672 L563.3925170898438,63.16049575805664 L563.8837890625,62.82164001464844 M571.4082641601562,63.745567321777344 L571.8150634765625,63.195899963378906 L572.5548706054688,62.13882064819336 L573.5958251953125,60.57097244262695 L574.8010864257812,58.65827560424805 L576.105224609375,56.54635238647461 L577.44580078125,54.39411163330078 L578.778564453125,52.34368896484375 L580.0228271484375,50.56423568725586 L581.0824584960938,49.1617431640625 L581.8856201171875,48.18964767456055 L582.395751953125,47.680633544921875 L582.6282348632812,47.63965606689453 L582.630859375,48.09074401855469 L582.4227905273438,49.10369873046875 L582.0084228515625,50.65987777709961 L581.413818359375,52.67854309082031 L580.6774291992188,55.0059928894043 L579.9003295898438,57.426326751708984 L579.2132568359375,59.7419319152832 L578.7197265625,61.791831970214844 L578.473876953125,63.42704772949219 L578.48388671875,64.57345581054688 L578.6171264648438,65.22663879394531 L578.7615966796875,65.49346923828125 M585.4641723632812,62.4603157043457 L585.5384521484375,62.4593505859375 L585.7691650390625,62.434593200683594 L586.2479858398438,62.3424186706543 L587.0532836914062,62.13774490356445 L588.2318115234375,61.80659484863281 L589.763916015625,61.366600036621094 L591.5594482421875,60.87314987182617 L593.539794921875,60.38903045654297 L595.5496215820312,59.96440124511719 L597.4322509765625,59.62895202636719 L598.8565673828125,59.413082122802734 L599.6974487304688,59.30511474609375 M606.4029541015625,50.88642501831055 L606.4505615234375,51.15107345581055 L606.4676513671875,51.802490234375 L606.4083251953125,52.95193862915039 L606.2360229492188,54.57170486450195 L605.9872436523438,56.544036865234375 L605.7164306640625,58.722328186035156 L605.468505859375,60.939979553222656 L605.2753295898438,63.02082443237305 L605.1470947265625,64.77855682373047 L605.0697021484375,66.06471252441406 L605.0330810546875,66.81594848632812 L605.0201416015625,67.13448333740234 M601.7494506835938,50.99565887451172 L601.815185546875,50.532493591308594 L602.1317749023438,49.83012390136719 L602.8345336914062,49.02082824707031 L604.0057373046875,48.33439636230469 L605.5877685546875,47.860557556152344 L607.461181640625,47.65647506713867 L609.4742431640625,47.731754302978516 L611.472900390625,48.0948371887207 L613.2850952148438,48.717227935791016 L614.7647705078125,49.5468864440918 L615.7696533203125,50.52999496459961 L616.21044921875,51.62232208251953 L616.08203125,52.7944450378418 L615.4430541992188,54.01969909667969 L614.4174194335938,55.29327392578125 L613.1448974609375,56.61385726928711 L611.7664184570312,57.97792053222656 L610.43212890625,59.38414001464844 L609.30224609375,60.82029342651367 L608.5203857421875,62.23958206176758 L608.220947265625,63.587554931640625 L608.4661865234375,64.80747985839844 L609.2586669921875,65.8432388305664 L610.525146484375,66.64532470703125 L612.1375732421875,67.17218780517578 L613.9371337890625,67.38455200195312 L615.756103515625,67.2687759399414 L617.4273071289062,66.82968139648438 L618.8281860351562,66.0918197631836 L619.8909912109375,65.09207153320312 L620.635498046875,63.89165496826172 L621.1329345703125,62.585147857666016 L621.4542236328125,61.29786682128906 L621.6427001953125,60.142906188964844 L621.7408447265625,59.219268798828125 L621.7757568359375,58.57943344116211 L621.7696533203125,58.24925994873047 L621.72900390625,58.2529296875 L621.634765625,58.60554504394531 L621.451171875,59.30460739135742 L621.197509765625,60.322017669677734 L620.9239501953125,61.56477355957031 L620.6970825195312,62.88894271850586 L620.6050415039062,64.14849853515625 L620.7088623046875,65.19894409179688 L621.034423828125,65.95186614990234 L621.57861328125,66.3621597290039 L622.33251953125,66.41401672363281 L623.2550659179688,66.10708618164062 L624.3004150390625,65.48368835449219 L625.407958984375,64.6026382446289 L626.4915771484375,63.55951690673828 L627.4534912109375,62.45136642456055 L628.237548828125,61.38897705078125 L628.8018188476562,60.461952209472656 L629.1380615234375,59.750606536865234 L629.2779541015625,59.31187057495117 L629.2490234375,59.17249298095703 L629.1065673828125,59.34355926513672 L628.895263671875,59.83899688720703 L628.655517578125,60.62579345703125 L628.4172973632812,61.641056060791016 L628.21826171875,62.7867431640625 L628.0848388671875,63.917999267578125 L628.0740356445312,64.92227935791016 L628.1746215820312,65.72615051269531 L628.3526000976562,66.2750473022461 L628.550537109375,66.55818176269531 L628.7172241210938,66.60699462890625 L628.8253173828125,66.46817779541016 L628.8890380859375,66.27473449707031 L628.9158935546875,66.12299346923828 M632.60498046875,58.986183166503906 L632.63671875,59.02188491821289 L632.6842651367188,59.21453094482422 L632.718505859375,59.663604736328125 L632.6928100585938,60.42521286010742 L632.5562744140625,61.466148376464844 L632.3184814453125,62.667022705078125 L632.0394897460938,63.91979217529297 L631.777587890625,65.07733917236328 L631.5838623046875,66.026611328125 L631.482666015625,66.69229888916016 L631.4729614257812,67.02110290527344 L631.5704345703125,66.96742248535156 L631.816650390625,66.52947998046875 L632.237060546875,65.68769073486328 L632.8558349609375,64.51713562011719 L633.683349609375,63.15728759765625 L634.70703125,61.77996826171875 L635.86083984375,60.55000305175781 L637.0726318359375,59.593162536621094 L638.2364501953125,58.956787109375 L639.2728271484375,58.66840744018555 L640.1281127929688,58.73565673828125 L640.765625,59.16069412231445 L641.1517944335938,59.93721389770508 L641.299072265625,61.02004623413086 L641.2532958984375,62.31118392944336 L641.111572265625,63.67084884643555 L641.011474609375,64.9404296875 L641.0457153320312,65.9805908203125 L641.2415771484375,66.71776580810547 L641.4906005859375,67.1366195678711 L641.6925048828125,67.3096694946289 M653.9425048828125,66.40524291992188 L654.3380126953125,65.99992370605469 L655.0748291015625,65.23294830322266 L656.1381225585938,64.09717559814453 L657.3927001953125,62.686676025390625 L658.7603759765625,61.063968658447266 L660.1452026367188,59.30305099487305 L661.469482421875,57.48066329956055 L662.7027587890625,55.69609832763672 L663.798583984375,54.05995178222656 L664.70947265625,52.66434860229492 L665.4110107421875,51.60231018066406 L665.8651123046875,50.940185546875 L666.041259765625,50.737022399902344 L665.9696044921875,51.02998352050781 L665.662109375,51.84473419189453 L665.1513671875,53.170997619628906 L664.5009765625,54.94390106201172 L663.7684326171875,57.04813766479492 L663.0107421875,59.33230209350586 L662.3060913085938,61.615962982177734 L661.7416381835938,63.72199630737305 L661.3760986328125,65.50101470947266 L661.2379150390625,66.84449768066406 L661.3592529296875,67.64580535888672 L661.7540283203125,67.81829071044922 L662.214599609375,67.61033630371094 L662.6011962890625,67.27833557128906 " fill="none" stroke="black" stroke-linecap="round" stroke-width="2" /></svg>