<?xml version="1.0" encoding="utf-8" ?>
<svg baseProfile="full" height="100%" version="1.1" viewBox="0,0,1000,120" width="100%" xmlns="http://www.w3.org/2000/svg" xmlns:ev="http://www.w3.org/2001/xml-events" xmlns:xlink="http://www.w3.org/1999/xlink"><defs /><rect fill="white" height="120" width="1000" x="0" y="0" /><path d="M0,0 M225.9095458984375,65.46228790283203 L225.93283081054688,65.4370346069336 L225.97030639648438,65.40453338623047 L226.01089477539062,65.37574005126953 M250.60293579101562,52.770652770996094 L250.6085662841797,52.74146270751953 L250.57933044433594,52.787166595458984 L250.47640991210938,53.00606155395508 L250.2468719482422,53.50623321533203 L249.85948181152344,54.3408203125 L249.3077850341797,55.537384033203125 L248.6077880859375,57.07407760620117 L247.7960205078125,58.912437438964844 L246.93597412109375,60.96853256225586 L246.09420776367188,63.118743896484375 L245.3445587158203,65.2123031616211 L244.7422332763672,67.06690979003906 L244.32296752929688,68.56153869628906 L244.09332275390625,69.62339782714844 L244.04818725585938,70.19400787353516 L244.2077178955078,70.20745849609375 L244.6199951171875,69.6066665649414 L245.32308959960938,68.3210678100586 L246.31402587890625,66.41934204101562 L247.54611206054688,64.03953552246094 L248.9519805908203,61.3614387512207 L250.483154296875,58.562461853027344 L252.12582397460938,55.83163070678711 L253.82864379882812,53.32925033569336 L255.47459411621094,51.23176956176758 L256.9397277832031,49.666748046875 L258.1254577636719,48.69242477416992 L258.99560546875,48.30603790283203 L259.58172607421875,48.49854278564453 L259.91015625,49.27210998535156 L259.9595642089844,50.623939514160156 L259.7161865234375,52.530250549316406 L259.1806640625,54.8720703125 L258.435791015625,57.47842025756836 L257.61962890625,60.086795806884766 L256.90716552734375,62.43224334716797 L256.4087219238281,64.28357696533203 L256.16455078125,65.55355834960938 L256.1341857910156,66.21436309814453 L256.2586364746094,66.32270050048828 L256.5023498535156,65.87120819091797 L256.89794921875,64.84098052978516 L257.4947509765625,63.23165512084961 L258.3363037109375,61.18540573120117 L259.4096374511719,58.863502502441406 L260.6530456542969,56.46379470825195 L262.00421142578125,54.11299133300781 L263.4178466796875,51.92120361328125 L264.8675231933594,49.980194091796875 L266.3210144042969,48.43207931518555 L267.69122314453125,47.33108901977539 L268.89178466796875,46.709228515625 L269.8514709472656,46.53499221801758 L270.5289306640625,46.81926727294922 L270.91326904296875,47.58500671386719 L270.9781799316406,48.88410186767578 L270.6670837402344,50.67638397216797 L270.007080078125,52.90076446533203 L269.0617980957031,55.418670654296875 L267.97540283203125,58.097190856933594 L266.9187927246094,60.75138473510742 L266.0401916503906,63.17416763305664 L265.4018859863281,65.11997985839844 L265.03082275390625,66.45940399169922 L264.8794860839844,67.18350219726562 L264.9161071777344,67.40110778808594 L265.11126708984375,67.21305084228516 L265.50482177734375,66.69683074951172 L266.1492919921875,65.84850311279297 L267.0829772949219,64.71051025390625 L268.3401794433594,63.39330291748047 L269.9366149902344,62.0400390625 L271.8314514160156,60.7441291809082 L273.9817810058594,59.60980224609375 L276.302734375,58.67942810058594 L278.66766357421875,57.97998046875 L280.9723205566406,57.528343200683594 L283.1029052734375,57.30651092529297 L284.927978515625,57.223365783691406 L286.353271484375,57.22734832763672 L287.31878662109375,57.25611877441406 L287.8459167480469,57.26819610595703 L288.0281066894531,57.244728088378906 L287.9419250488281,57.16804122924805 L287.6026611328125,57.02192687988281 L286.97210693359375,56.845577239990234 L286.00933837890625,56.6998176574707 L284.7259521484375,56.68391799926758 L283.1817626953125,56.889347076416016 L281.45391845703125,57.3668098449707 L279.639404296875,58.136592864990234 L277.84033203125,59.18354034423828 L276.2124328613281,60.442142486572266 L274.93328857421875,61.830745697021484 L274.1614990234375,63.23456954956055 L273.98004150390625,64.53057861328125 L274.3992919921875,65.60440826416016 L275.3348083496094,66.35802459716797 L276.6796875,66.71101379394531 L278.3192443847656,66.62645721435547 L280.126220703125,66.10440063476562 L281.9666442871094,65.21282958984375 L283.7109069824219,64.05619812011719 L285.230712890625,62.7609977722168 L286.4580993652344,61.46685791015625 L287.3935241699219,60.29372787475586 L288.04205322265625,59.31293487548828 L288.44451904296875,58.58262634277344 L288.64593505859375,58.11100387573242 L288.69769287109375,57.86418914794922 L288.6798400878906,57.80756759643555 L288.7189025878906,57.89580535888672 L288.93634033203125,58.07365036010742 L289.4543151855469,58.304786682128906 L290.3377990722656,58.51998519897461 L291.59375,58.6588020324707 L293.1600646972656,58.68001174926758 L294.9510803222656,58.57455062866211 L296.8818054199219,58.37281799316406 L298.8440246582031,58.114288330078125 L300.6960754394531,57.8210334777832 L302.27691650390625,57.54273223876953 L303.4557800292969,57.31333923339844 L304.1723937988281,57.157203674316406 L304.5000915527344,57.08966064453125 L304.54296875,57.06446075439453 L304.41741943359375,57.037086486816406 L304.15625,57.0117301940918 L303.7486877441406,57.020103454589844 L303.1278991699219,57.10744094848633 L302.28515625,57.33571243286133 L301.19769287109375,57.718101501464844 L299.92376708984375,58.28336715698242 L298.5262451171875,59.082122802734375 L297.0982971191406,60.15359115600586 L295.7545166015625,61.485164642333984 L294.6423645019531,62.98133087158203 L293.8785400390625,64.46436309814453 L293.55010986328125,65.7629623413086 L293.65411376953125,66.72357177734375 L294.1611022949219,67.26078033447266 L295.021240234375,67.31526184082031 L296.1822509765625,66.8293228149414 L297.6253662109375,65.78749084472656 L299.2684326171875,64.25019836425781 L300.9940185546875,62.320411682128906 L302.72467041015625,60.16480255126953 L304.3623046875,57.90680694580078 L305.8404846191406,55.640262603759766 L307.160400390625,53.4443473815918 L308.258544921875,51.42153549194336 L309.0885925292969,49.710289001464844 L309.65008544921875,48.43760299682617 L309.93585205078125,47.670021057128906 L309.94439697265625,47.434906005859375 L309.69976806640625,47.745948791503906 L309.14788818359375,48.628658294677734 L308.27581787109375,50.12525177001953 L307.1363525390625,52.17841339111328 L305.867431640625,54.64030456542969 L304.654052734375,57.27617263793945 L303.7183837890625,59.834590911865234 L303.2169189453125,62.08502960205078 L303.265869140625,63.887550354003906 L303.86688232421875,65.13209533691406 L304.98309326171875,65.77447509765625 L306.5236511230469,65.7937240600586 L308.3959655761719,65.2269287109375 L310.48101806640625,64.15742492675781 L312.65032958984375,62.74554443359375 L314.6998596191406,61.156917572021484 L316.46429443359375,59.55949020385742 L317.81988525390625,58.0583381652832 L318.72998046875,56.74368667602539 L319.2100524902344,55.66065979003906 L319.3188171386719,54.8564453125 L319.0598449707031,54.35979461669922 L318.4412841796875,54.23615646362305 L317.4607849121094,54.54564666748047 L316.1558837890625,55.360198974609375 L314.64404296875,56.66725540161133 L313.1216125488281,58.357662200927734 L311.794189453125,60.243736267089844 L310.86822509765625,62.129581451416016 L310.4908447265625,63.8200798034668 L310.7596435546875,65.18013000488281 L311.72149658203125,66.10155487060547 L313.3520812988281,66.47216033935547 L315.5860595703125,66.25306701660156 L318.2724609375,65.43852996826172 L321.2774658203125,64.0882797241211 L324.45355224609375,62.30441665649414 L327.6401672363281,60.216854095458984 L330.67803955078125,57.925193786621094 L333.4450988769531,55.57059097290039 L335.8069152832031,53.2733268737793 L337.71588134765625,51.193084716796875 L339.1171875,49.45201110839844 L339.9883728027344,48.1235466003418 L340.3226623535156,47.23032760620117 L340.12939453125,46.796688079833984 L339.44500732421875,46.84564971923828 L338.30938720703125,47.43360900878906 L336.787353515625,48.59397888183594 L334.9938049316406,50.27411651611328 L333.0419006347656,52.36936569213867 L331.07513427734375,54.746551513671875 L329.27099609375,57.23067092895508 L327.7955322265625,59.658565521240234 L326.81036376953125,61.88819122314453 L326.4179992675781,63.793479919433594 L326.77874755859375,65.26480102539062 L327.9420166015625,66.26346588134766 L329.82525634765625,66.77774810791016 L331.71978759765625,66.93939971923828 L333.1062316894531,66.91423034667969 M363.07843017578125,61.81220245361328 L363.6705017089844,61.35194396972656 L364.6200866699219,60.592708587646484 L365.79876708984375,59.642486572265625 L366.94854736328125,58.70991134643555 L367.999267578125,57.917320251464844 L368.9259338378906,57.32883834838867 L369.77587890625,56.98553466796875 L370.56298828125,56.92754364013672 L371.30767822265625,57.191959381103516 L371.993896484375,57.7856559753418 L372.58013916015625,58.7138786315918 L372.99481201171875,59.91535186767578 L373.20440673828125,61.32387161254883 L373.1708984375,62.81937026977539 L372.8839111328125,64.27489471435547 L372.3414306640625,65.5710678100586 L371.5462646484375,66.60047149658203 L370.521484375,67.28809356689453 L369.3577880859375,67.61015319824219 L368.1488952636719,67.56910705566406 L366.98992919921875,67.21944427490234 L365.9794921875,66.68412780761719 L365.1695251464844,66.10352325439453 L364.574951171875,65.60387420654297 L364.216064453125,65.26470947265625 L364.0714111328125,65.0996322631836 L364.1192626953125,65.07893371582031 L364.3768310546875,65.19124603271484 L364.8830871582031,65.4161148071289 L365.677734375,65.67684936523438 L366.8276062011719,65.85992431640625 L368.34515380859375,65.83390808105469 L370.2123107910156,65.47779846191406 L372.35858154296875,64.75770568847656 L374.7106628417969,63.69719696044922 L377.1512451171875,62.31507110595703 L379.57855224609375,60.63231658935547 L381.8970947265625,58.702823638916016 L384.0293884277344,56.60068893432617 L385.896728515625,54.491146087646484 L387.45257568359375,52.572998046875 L388.6258850097656,51.01542282104492 L389.41204833984375,49.91160202026367 L389.8368835449219,49.3009147644043 L389.92333984375,49.17542266845703 L389.69708251953125,49.57538604736328 L389.1636962890625,50.53448486328125 L388.29376220703125,52.062835693359375 L387.150634765625,54.0740852355957 L385.82257080078125,56.40381622314453 L384.4187316894531,58.82352828979492 L383.0882873535156,61.119380950927734 L381.9684143066406,63.07775115966797 L381.1251525878906,64.56483459472656 L380.60162353515625,65.5128402709961 L380.37042236328125,65.90912628173828 L380.3739929199219,65.7748794555664 L380.554443359375,65.1737060546875 L380.8565673828125,64.18607330322266 L381.21978759765625,62.985774993896484 L381.587158203125,61.801841735839844 L381.89044189453125,60.80484390258789 L382.107666015625,60.096282958984375 L382.22393798828125,59.66769027709961 L382.2489318847656,59.44926452636719 L382.2357177734375,59.418861389160156 L382.25506591796875,59.584739685058594 L382.38824462890625,59.91184997558594 L382.7833251953125,60.35042953491211 L383.5792541503906,60.76356506347656 L384.89111328125,61.010047912597656 L386.7542724609375,61.01087951660156 L389.079833984375,60.75546646118164 L391.6741027832031,60.28556823730469 L394.32525634765625,59.71477508544922 L396.8427734375,59.14434814453125 L399.0628967285156,58.67145919799805 L400.84722900390625,58.343223571777344 L402.1080322265625,58.16002655029297 L402.82427978515625,58.08839797973633 L403.059814453125,58.10220718383789 L402.9465637207031,58.176692962646484 L402.5660095214844,58.31198501586914 L401.93878173828125,58.50700759887695 L401.0478515625,58.75576400756836 L399.8723449707031,59.08098602294922 L398.4298400878906,59.5405387878418 L396.80572509765625,60.19142150878906 L395.1188659667969,61.06867218017578 L393.5476379394531,62.159523010253906 L392.27099609375,63.34833908081055 L391.450439453125,64.48983764648438 L391.1834716796875,65.43497467041016 L391.4795837402344,66.04417419433594 L392.29266357421875,66.23860168457031 L393.5633850097656,65.9988021850586 L395.1871032714844,65.33441925048828 L397.01763916015625,64.31217956542969 L398.89031982421875,63.04755401611328 L400.59918212890625,61.68901443481445 L401.9787902832031,60.40565872192383 L402.95843505859375,59.34803009033203 L403.552001953125,58.585079193115234 L403.81939697265625,58.11387634277344 L403.85003662109375,57.931026458740234 L403.68310546875,58.066104888916016 L403.3147277832031,58.55892562866211 L402.7672119140625,59.45294952392578 L402.11260986328125,60.65971374511719 L401.481201171875,62.011817932128906 L401.0377197265625,63.320091247558594 L400.9313049316406,64.44779968261719 L401.22967529296875,65.28466796875 L401.9677734375,65.76805877685547 L403.1322326660156,65.80261993408203 L404.6853332519531,65.33403778076172 L406.5693359375,64.34609985351562 L408.6959533691406,62.91945266723633 L410.9336853027344,61.151519775390625 L413.1665344238281,59.14619827270508 L415.2650451660156,56.98783874511719 L417.1430969238281,54.76527786254883 L418.7395935058594,52.58665466308594 L420.0126953125,50.60374450683594 L420.9398498535156,48.951332092285156 L421.544921875,47.70079040527344 L421.83349609375,46.88337707519531 L421.7996520996094,46.50018310546875 L421.422119140625,46.587162017822266 L420.68310546875,47.22005844116211 L419.60888671875,48.43742370605469 L418.3070983886719,50.16868591308594 L416.9290771484375,52.29587173461914 L415.58447265625,54.636966705322266 L414.3919677734375,57.03787612915039 L413.4405822753906,59.3566780090332 L412.80780029296875,61.42585754394531 L412.5665283203125,63.0830192565918 L412.75201416015625,64.23416900634766 L413.3138427734375,64.8135986328125 L414.20245361328125,64.8430404663086 L415.3288269042969,64.35677337646484 L416.5944519042969,63.44417190551758 L417.906494140625,62.26486587524414 L419.14959716796875,61.01079177856445 L420.2025146484375,59.83628845214844 L421.00189208984375,58.86254119873047 L421.52716064453125,58.11652755737305 L421.79718017578125,57.60920715332031 L421.87750244140625,57.321624755859375 L421.845947265625,57.22005081176758 L421.7772216796875,57.249507904052734 L421.7763977050781,57.35398483276367 L421.9732666015625,57.464908599853516 L422.4732666015625,57.507850646972656 L423.3470458984375,57.3994026184082 L424.58319091796875,57.09782409667969 L426.1051330566406,56.61615753173828 L427.76788330078125,56.04148864746094 L429.3929443359375,55.49216842651367 L430.80718994140625,55.0570182800293 L431.88482666015625,54.78496170043945 L432.5324401855469,54.689796447753906 L432.76031494140625,54.77509689331055 L432.6022644042969,55.08147430419922 L432.071533203125,55.653751373291016 L431.20623779296875,56.50166702270508 L430.076171875,57.59981155395508 L428.79864501953125,58.87370681762695 L427.571533203125,60.21538162231445 L426.6204833984375,61.52671432495117 L426.09661865234375,62.718238830566406 L426.09930419921875,63.69938659667969 L426.6405944824219,64.40338134765625 L427.6883544921875,64.76477813720703 L429.1839294433594,64.73328399658203 L431.08258056640625,64.281982421875 L433.30804443359375,63.412017822265625 L435.78216552734375,62.140480041503906 L438.3970642089844,60.51418685913086 L441.0252380371094,58.589195251464844 L443.53802490234375,56.45521545410156 L445.81781005859375,54.22819137573242 L447.764404296875,52.06232452392578 L449.27496337890625,50.10374450683594 L450.2919921875,48.47044372558594 L450.8106689453125,47.24530792236328 L450.86651611328125,46.470645904541016 L450.52484130859375,46.174163818359375 L449.84063720703125,46.39037322998047 L448.8127136230469,47.12386703491211 L447.488525390625,48.325408935546875 L445.96575927734375,49.91902160644531 L444.39202880859375,51.78733825683594 L442.941162109375,53.820030212402344 L441.743896484375,55.9294319152832 L440.855224609375,58.012203216552734 L440.3211669921875,59.95037078857422 L440.14825439453125,61.64161682128906 L440.35552978515625,62.987831115722656 L440.9538269042969,63.92462921142578 L441.95513916015625,64.4398422241211 L443.3420715332031,64.51582336425781 L445.078369140625,64.16808319091797 L447.0694580078125,63.44561004638672 L449.206787109375,62.42568588256836 L451.3663330078125,61.22381591796875 L453.41357421875,59.97441101074219 L455.2035217285156,58.797760009765625 L456.60205078125,57.804420471191406 L457.5472106933594,57.05961608886719 L458.0345458984375,56.58408737182617 L458.10906982421875,56.39887619018555 L457.8075866699219,56.51712417602539 L457.1321716308594,56.986297607421875 L456.1199035644531,57.841285705566406 L454.9302062988281,59.025577545166016 L453.7645263671875,60.383949279785156 L452.86334228515625,61.73299026489258 L452.413330078125,62.888492584228516 L452.4959716796875,63.75237274169922 L453.12554931640625,64.27588653564453 L454.30072021484375,64.42899322509766 L455.9795837402344,64.19941711425781 L458.10443115234375,63.59797668457031 L460.56390380859375,62.649044036865234 L463.22216796875,61.397193908691406 L465.927978515625,59.87425994873047 L468.58056640625,58.1269645690918 L471.10723876953125,56.218849182128906 L473.47369384765625,54.238609313964844 L475.60626220703125,52.30060958862305 L477.4178466796875,50.54150390625 L478.79656982421875,49.08903884887695 L479.71124267578125,48.02299499511719 L480.1659851074219,47.37874221801758 L480.2268371582031,47.16440963745117 L479.92218017578125,47.37156295776367 L479.2475891113281,48.03660583496094 L478.147216796875,49.21828842163086 L476.65472412109375,50.90127182006836 L474.86260986328125,53.01736831665039 L472.9209289550781,55.42535400390625 L471.0047302246094,57.913509368896484 L469.29571533203125,60.2462043762207 L467.9087219238281,62.23038101196289 L466.9234619140625,63.71009063720703 L466.365966796875,64.60772705078125 L466.17938232421875,64.9217758178711 L466.2886047363281,64.68970489501953 L466.66119384765625,63.94925308227539 L467.24005126953125,62.79775619506836 L467.92791748046875,61.40176773071289 L468.596923828125,59.971981048583984 L469.08953857421875,58.72179412841797 L469.2884216308594,57.78657150268555 L469.18914794921875,57.200416564941406 L468.84765625,56.957130432128906 L468.3255920410156,57.03057098388672 L467.70330810546875,57.422367095947266 L467.0737609863281,58.12311935424805 L466.551025390625,59.05453872680664 L466.2591857910156,60.0920524597168 L466.3179931640625,61.11065673828125 L466.78466796875,61.95735168457031 L467.6963806152344,62.544368743896484 L469.04534912109375,62.798004150390625 L470.8045349121094,62.65178298950195 L472.87078857421875,62.09706115722656 L475.10601806640625,61.199188232421875 L477.3454284667969,60.06734848022461 L479.4021911621094,58.8847541809082 L481.0918884277344,57.807647705078125 L482.31146240234375,56.93952941894531 L483.0062255859375,56.33953857421875 L483.19647216796875,56.03866195678711 L482.9598693847656,56.068817138671875 L482.3525695800781,56.48354721069336 L481.4482116699219,57.282630920410156 L480.393798828125,58.365726470947266 L479.3947448730469,59.55351257324219 L478.64776611328125,60.63731384277344 L478.30462646484375,61.454505920410156 L478.43603515625,61.915504455566406 L479.06005859375,61.9790153503418 L480.173583984375,61.62934875488281 L481.7588806152344,60.915870666503906 L483.6857604980469,59.945011138916016 L485.76336669921875,58.904571533203125 L487.7607727050781,57.983943939208984 L489.4653625488281,57.30442428588867 L490.75054931640625,56.913299560546875 L491.588134765625,56.82177734375 L491.9514465332031,57.045799255371094 L491.8310852050781,57.66167068481445 L491.1912841796875,58.75929641723633 L489.9867248535156,60.35087585449219 L488.2613525390625,62.37883377075195 L486.12701416015625,64.68219757080078 L483.7328186035156,67.0739974975586 L481.26812744140625,69.3690414428711 L478.9489440917969,71.3978042602539 L476.9543151855469,72.99669647216797 L475.4555358886719,74.08856964111328 L474.53594970703125,74.6146469116211 L474.186279296875,74.60342407226562 L474.4117736816406,74.05329895019531 L475.17083740234375,73.02749633789062 L476.3486022949219,71.65901184082031 L477.5050048828125,70.41072082519531 L478.3330993652344,69.55966186523438 M491.0149841308594,51.46908950805664 L491.09197998046875,51.448341369628906 L491.18280029296875,51.44822311401367 L491.2563781738281,51.47761154174805 L491.2739562988281,51.52919387817383 L491.2525634765625,51.55678939819336 L491.20660400390625,51.54780960083008 L491.1610107421875,51.513587951660156 L491.1239013671875,51.47483825683594 L491.1082763671875,51.45316696166992 L491.1151123046875,51.45679473876953 L491.14556884765625,51.47517395019531 L491.1839904785156,51.50470733642578 L491.2239990234375,51.54676055908203 L491.2447509765625,51.57865524291992 L491.2444152832031,51.601219177246094 L491.22845458984375,51.619842529296875 L491.23162841796875,51.6472053527832 L491.25390625,51.67723083496094 L491.29278564453125,51.71288299560547 L491.3328552246094,51.73501968383789 L491.3588562011719,51.746551513671875 L491.3587951660156,51.75615692138672 L491.36175537109375,51.77629470825195 L491.3603210449219,51.79521942138672 L491.3465881347656,51.82450866699219 L491.3388671875,51.85761642456055 L491.35015869140625,51.90736770629883 L491.3841857910156,51.9709587097168 L491.45404052734375,52.03544235229492 L491.5415954589844,52.083900451660156 L491.6040954589844,52.1104736328125 L491.65167236328125,52.11043167114258 L491.6930236816406,52.10906219482422 L491.7415771484375,52.114013671875 L491.8020324707031,52.12684631347656 L491.8681945800781,52.145545959472656 L491.9067687988281,52.155487060546875 L491.9356384277344,52.16285705566406 L491.9672546386719,52.19144058227539 L492.0137634277344,52.240657806396484 L492.0540771484375,52.289161682128906 L492.1004333496094,52.310359954833984 L492.1311340332031,52.29824447631836 L492.1510009765625,52.26948165893555 M503.25238037109375,54.32579040527344 L503.03192138671875,54.28065490722656 L502.5761413574219,54.27352523803711 L501.8393249511719,54.389068603515625 L500.852294921875,54.715023040771484 L499.65142822265625,55.32221603393555 L498.303466796875,56.22220993041992 L496.8981628417969,57.4110221862793 L495.5885009765625,58.81801986694336 L494.5393371582031,60.33203887939453 L493.930908203125,61.809879302978516 L493.8839416503906,63.13045120239258 L494.4620666503906,64.15348052978516 L495.684326171875,64.783935546875 L497.4952087402344,64.90229034423828 L499.810302734375,64.44351196289062 L502.52288818359375,63.413330078125 L505.47845458984375,61.89811706542969 L508.4975280761719,60.005367279052734 L511.4543151855469,57.89344024658203 L514.2037353515625,55.695648193359375 L516.6602783203125,53.557655334472656 L518.7655029296875,51.63970184326172 L520.4775390625,50.08944320678711 L521.7061157226562,48.96004104614258 L522.430419921875,48.30338668823242 L522.6021728515625,48.143592834472656 L522.2019653320312,48.5096435546875 L521.250732421875,49.4600944519043 L519.8247680664062,51.010658264160156 L518.0062866210938,53.04355239868164 L515.9824829101562,55.3797492980957 L513.9393310546875,57.75894546508789 L512.0866088867188,59.90018844604492 L510.6304931640625,61.58774948120117 L509.7395935058594,62.67924499511719 L509.5056457519531,63.10746765136719 L509.9728088378906,62.89701843261719 L511.1224670410156,62.110679626464844 L512.8675537109375,60.863189697265625 L515.067626953125,59.3558235168457 L517.5183715820312,57.83382797241211 L519.9767456054688,56.532554626464844 L522.208984375,55.62229919433594 L524.0506591796875,55.15195846557617 L525.3779907226562,55.09795379638672 L526.166015625,55.437232971191406 L526.4152221679688,56.14438247680664 L526.1976318359375,57.18231201171875 L525.64306640625,58.46293258666992 L524.943115234375,59.83304214477539 L524.3244018554688,61.1328125 L524.0157470703125,62.215736389160156 L524.1629638671875,62.969215393066406 L524.85205078125,63.31856155395508 L526.1002807617188,63.21607208251953 L527.8577880859375,62.6550407409668 L530.0057373046875,61.7103157043457 L532.3484497070312,60.493621826171875 L534.6251220703125,59.15186309814453 L536.576904296875,57.820926666259766 L538.032958984375,56.62713623046875 L538.9190063476562,55.645240783691406 L539.2235107421875,54.92362976074219 L538.99462890625,54.491065979003906 L538.2684326171875,54.382057189941406 L537.1140747070312,54.61684036254883 L535.6524658203125,55.22876739501953 L534.0728759765625,56.19891357421875 L532.5843505859375,57.42811584472656 L531.4239501953125,58.78789138793945 L530.7667236328125,60.134521484375 L530.7186889648438,61.30038070678711 L531.3070678710938,62.15620803833008 L532.526611328125,62.60514831542969 L534.3203125,62.575252532958984 L536.609375,62.08717346191406 L539.277587890625,61.22248077392578 L542.1463623046875,60.09115219116211 L545.0426025390625,58.83616256713867 L547.8275146484375,57.58643341064453 L550.37890625,56.450687408447266 L552.5902099609375,55.52058029174805 L554.38037109375,54.8436279296875 L555.65771484375,54.432395935058594 L556.4290161132812,54.258514404296875 L556.7809448242188,54.26976776123047 L556.8233642578125,54.3894157409668 L556.645263671875,54.5610237121582 L556.2756958007812,54.75674057006836 L555.6495361328125,54.98452377319336 L554.7113037109375,55.260826110839844 L553.454833984375,55.63813400268555 L551.9176025390625,56.13893508911133 L550.1995239257812,56.80228805541992 L548.4163818359375,57.64349365234375 L546.7100830078125,58.64870834350586 L545.220947265625,59.76537322998047 L544.1048583984375,60.93603515625 L543.479248046875,62.08385467529297 L543.4039916992188,63.14918899536133 L543.869873046875,64.05095672607422 L544.866943359375,64.69512176513672 L546.3562622070312,64.98616790771484 L548.32666015625,64.84806823730469 L550.7626953125,64.24498748779297 L553.5672607421875,63.18550491333008 L556.5885620117188,61.71419906616211 L559.651123046875,59.89188003540039 L562.589111328125,57.794960021972656 L565.297119140625,55.51103591918945 L567.7380981445312,53.15729522705078 L569.8599853515625,50.876487731933594 L571.5816650390625,48.8489875793457 L572.8573608398438,47.21872329711914 L573.6649780273438,46.0576057434082 L574.0278930664062,45.396156311035156 L574.000244140625,45.25009536743164 L573.60009765625,45.64675521850586 L572.7810668945312,46.63874053955078 L571.5582275390625,48.214088439941406 L569.995361328125,50.257564544677734 L568.224365234375,52.6131591796875 L566.4033813476562,55.10331344604492 L564.662353515625,57.55160903930664 L563.1109008789062,59.809898376464844 L561.841552734375,61.71999740600586 L560.9310302734375,63.15330123901367 L560.413818359375,64.05256652832031 L560.2626953125,64.41564178466797 L560.4161376953125,64.26068115234375 L560.8519287109375,63.605018615722656 L561.5733642578125,62.4658088684082 L562.597412109375,60.93815231323242 L563.923828125,59.18484878540039 L565.4957275390625,57.396240234375 L567.2354736328125,55.74742889404297 L569.08056640625,54.362335205078125 L570.9765014648438,53.31498718261719 L572.8226318359375,52.64717102050781 L574.48828125,52.334712982177734 L575.8292236328125,52.3127326965332 L576.7401123046875,52.487640380859375 L577.1978759765625,52.79354476928711 L577.2191162109375,53.199012756347656 L576.8094482421875,53.693809509277344 L575.9801025390625,54.264976501464844 L574.765869140625,54.9085578918457 L573.2425537109375,55.600868225097656 L571.5341796875,56.347389221191406 L569.77880859375,57.15395736694336 L568.138427734375,58.015480041503906 L566.772216796875,58.9096565246582 L565.8126220703125,59.79552459716797 L565.3375244140625,60.61647033691406 L565.351318359375,61.350830078125 L565.7933349609375,61.97849655151367 L566.6206665039062,62.472251892089844 L567.8067626953125,62.782535552978516 L569.3448486328125,62.86027145385742 L571.23193359375,62.68873977661133 L573.4007568359375,62.30229949951172 L575.71533203125,61.77975082397461 L577.9949340820312,61.20650100708008 L580.0457153320312,60.64411544799805 L581.7116088867188,60.142822265625 L582.9410400390625,59.74464416503906 L583.7265625,59.45652770996094 L584.1505126953125,59.28919982910156 L584.3112182617188,59.227664947509766 L584.3143310546875,59.24236297607422 L584.256591796875,59.287052154541016 L584.2088623046875,59.332401275634766 M596.1534423828125,61.16402816772461 L596.03759765625,61.11314010620117 L595.9287109375,61.03947448730469 L595.8858642578125,60.96810531616211 L595.9694213867188,60.92642593383789 L596.102783203125,60.90217208862305 L596.2431640625,60.880096435546875 L596.337890625,60.85982894897461 L596.38427734375,60.83771514892578 M625.8701171875,49.36872863769531 L625.5098876953125,50.25524139404297 L624.8511962890625,51.80168914794922 L623.8995361328125,53.87577438354492 L622.7586059570312,56.10408020019531 L621.45654296875,58.28514862060547 L620.0679321289062,60.281497955322266 L618.6593017578125,62.01872634887695 L617.3699340820312,63.433387756347656 L616.3167724609375,64.44279479980469 L615.604736328125,64.96165466308594 L615.2648315429688,64.93951416015625 L615.2930908203125,64.3635482788086 L615.6771850585938,63.246681213378906 L616.419921875,61.68400192260742 L617.525146484375,59.76157760620117 L618.9862060546875,57.57991409301758 L620.7628173828125,55.26985168457031 L622.788330078125,52.95098876953125 L625.0047607421875,50.74327850341797 L627.3207397460938,48.782012939453125 L629.6671142578125,47.159568786621094 L631.9291381835938,45.958335876464844 L633.9779052734375,45.23421096801758 L635.693115234375,45.0 L636.99560546875,45.23277282714844 L637.8143310546875,45.87980651855469 L638.1250610351562,46.85022735595703 L637.9273681640625,48.06608963012695 L637.242919921875,49.42346954345703 L636.1469116210938,50.808998107910156 L634.7657470703125,52.100528717041016 L633.2095947265625,53.17127227783203 L631.614013671875,53.925716400146484 L630.1043701171875,54.34474182128906 L628.756591796875,54.46401596069336 L627.6182861328125,54.3658332824707 L626.700927734375,54.13945007324219 L625.962646484375,53.835208892822266 L625.41162109375,53.51731491088867 L625.032470703125,53.256439208984375 L624.8060913085938,53.137535095214844 L624.7025146484375,53.241859436035156 L624.682861328125,53.625396728515625 L624.6910400390625,54.28117752075195 L624.7219848632812,55.18867492675781 L624.7632446289062,56.295772552490234 L624.8649291992188,57.54561996459961 L625.0888671875,58.87629318237305 L625.4849243164062,60.21199417114258 L626.0704345703125,61.45683288574219 L626.8560791015625,62.53561782836914 L627.8197021484375,63.37952423095703 L628.9853515625,63.97269821166992 L630.3575439453125,64.30972290039062 L631.89697265625,64.38139343261719 L633.5608520507812,64.1811294555664 L635.3125,63.700531005859375 L637.1024169921875,62.92546081542969 L638.9205322265625,61.90056610107422 L640.73876953125,60.68221664428711 L642.48291015625,59.3701286315918 L644.0687255859375,58.092281341552734 L645.4010009765625,56.95867156982422 L646.3946533203125,56.06072235107422 L647.0313720703125,55.43768310546875 L647.3335571289062,55.0770263671875 L647.3651123046875,54.98418426513672 L647.1904296875,55.16867446899414 L646.8517456054688,55.67436218261719 L646.3692626953125,56.54037094116211 L645.7978515625,57.72666931152344 L645.1994018554688,59.11457061767578 L644.694580078125,60.56087112426758 L644.3963623046875,61.89815139770508 L644.3922119140625,63.01377868652344 L644.7156982421875,63.81340789794922 L645.3963623046875,64.24871063232422 L646.4351806640625,64.28706359863281 L647.8222045898438,63.93616485595703 L649.4937133789062,63.23788070678711 L651.3351440429688,62.26923370361328 L653.1998291015625,61.10796356201172 L654.968994140625,59.86056900024414 L656.541748046875,58.63664245605469 L657.833740234375,57.55210876464844 L658.7892456054688,56.7065544128418 L659.3900756835938,56.14925765991211 L659.6567993164062,55.88227081298828 L659.649658203125,55.890743255615234 L659.3919067382812,56.1954345703125 L658.890625,56.8417854309082 L658.1689453125,57.82720947265625 L657.3272705078125,59.08855438232422 L656.5186767578125,60.47886276245117 L655.9134521484375,61.81389617919922 L655.6389770507812,62.9494743347168 L655.767333984375,63.79344940185547 L656.3173217773438,64.27330780029297 L657.3309326171875,64.36653900146484 L658.7926635742188,64.04389953613281 L660.62548828125,63.324317932128906 L662.7478637695312,62.28263473510742 L664.9879150390625,61.029415130615234 L667.178466796875,59.6867561340332 L669.2120361328125,58.38174819946289 L670.9403076171875,57.220088958740234 L672.26220703125,56.295921325683594 L673.187744140625,55.671844482421875 L673.6766357421875,55.363834381103516 L673.7623291015625,55.36190414428711 L673.5126953125,55.66890335083008 L672.9390258789062,56.303340911865234 L672.0849609375,57.249942779541016 L671.0509033203125,58.447235107421875 L669.9300537109375,59.7590446472168 L668.8589477539062,61.0003776550293 L667.98681640625,62.02433395385742 L667.3699340820312,62.75273132324219 L667.006103515625,63.15227508544922 L666.8695068359375,63.23185348510742 L666.9591064453125,62.980709075927734 L667.3213500976562,62.36259460449219 L668.0657958984375,61.40127944946289 L669.2301025390625,60.202186584472656 L670.7761840820312,58.903682708740234 L672.6102294921875,57.67268371582031 L674.6077880859375,56.6297492980957 L676.6571044921875,55.83152389526367 L678.663330078125,55.321510314941406 L680.534423828125,55.108741760253906 L682.1714477539062,55.14720916748047 L683.5137939453125,55.38753128051758 L684.53369140625,55.782676696777344 L685.234130859375,56.289710998535156 L685.611328125,56.91168975830078 L685.6947021484375,57.647674560546875 L685.5036010742188,58.47749710083008 L685.1005859375,59.38489532470703 L684.558349609375,60.354454040527344 L683.9412841796875,61.35625457763672 L683.3192749023438,62.368263244628906 L682.7794189453125,63.33879089355469 L682.3966064453125,64.21685791015625 L682.2722778320312,64.95899963378906 L682.4727783203125,65.52192687988281 L683.0286254882812,65.86399841308594 L683.9739379882812,65.9532470703125 L685.3157348632812,65.7624740600586 L686.9949951171875,65.33177185058594 L688.9165649414062,64.72404479980469 L690.9521484375,64.0206527709961 L692.964599609375,63.286861419677734 L694.84716796875,62.58515930175781 L696.5049438476562,61.93601989746094 L697.8618774414062,61.38289260864258 L698.88037109375,60.941471099853516 L699.58056640625,60.61601638793945 L700.0211181640625,60.38643264770508 L700.278076171875,60.245418548583984 L700.399658203125,60.15835189819336 L700.430908203125,60.1153678894043 L700.408447265625,60.100425720214844 L700.3719482421875,60.09891128540039 L700.33837890625,60.09252166748047 L700.3309936523438,60.07960510253906 L700.3441162109375,60.06070327758789 L700.377685546875,60.03940200805664 L700.4144287109375,60.021018981933594 L700.4646606445312,60.007530212402344 L700.5082397460938,59.98769760131836 L700.552490234375,59.95695495605469 L700.5931396484375,59.92485809326172 L700.6389770507812,59.89689636230469 L700.6729736328125,59.89118576049805 L700.7093505859375,59.9026985168457 L700.7364501953125,59.926170349121094 L700.7576904296875,59.9433708190918 L700.767822265625,59.94364547729492 L700.7776489257812,59.928184509277344 L700.78515625,59.90994644165039 L700.7952270507812,59.880043029785156 L700.7999267578125,59.85847854614258 L700.807373046875,59.845054626464844 L700.8203125,59.8406867980957 L700.850830078125,59.85422134399414 L700.893798828125,59.87958526611328 L700.94384765625,59.896514892578125 L700.9873046875,59.90269470214844 L701.0274658203125,59.89368438720703 L701.0633544921875,59.87863540649414 L701.0968017578125,59.86727523803711 L701.1212158203125,59.86409378051758 L701.1433715820312,59.86664962768555 L701.16064453125,59.87583541870117 L701.183837890625,59.889434814453125 L701.2188720703125,59.908897399902344 L701.273681640625,59.932132720947266 L701.3441162109375,59.957279205322266 L701.4134521484375,59.97343063354492 L701.4468994140625,59.97770690917969 L701.44677734375,59.9663200378418 L701.4266967773438,59.9425048828125 L701.4232177734375,59.926727294921875 L701.4369506835938,59.92409133911133 L701.4473876953125,59.925899505615234 L701.4160766601562,59.922576904296875 L701.361083984375,59.91179656982422 L701.3035278320312,59.89496994018555 M708.3748168945312,55.733882904052734 L708.4235229492188,55.69650650024414 L708.741943359375,55.62538528442383 L709.5234375,55.49605941772461 L710.8853759765625,55.3027229309082 L712.7313232421875,55.03223419189453 L714.8312377929688,54.74173355102539 L716.8916625976562,54.481903076171875 L718.6364135742188,54.282142639160156 L719.899169921875,54.137046813964844 L720.697509765625,54.037933349609375 L721.0821533203125,53.945701599121094 L721.1080932617188,53.887351989746094 L720.764404296875,53.90623092651367 L719.9403076171875,54.055450439453125 L718.5615234375,54.401092529296875 L716.7110595703125,54.974937438964844 L714.5707397460938,55.71365737915039 L712.4447021484375,56.552032470703125 L710.64599609375,57.40108871459961 L709.3909912109375,58.19884490966797 L708.8004150390625,58.958702087402344 L708.8720703125,59.70541763305664 L709.5440063476562,60.4498291015625 L710.7474365234375,61.211524963378906 L712.3524780273438,61.965824127197266 L714.1968994140625,62.69635009765625 L716.0770263671875,63.395511627197266 L717.7611083984375,64.04934692382812 L719.076416015625,64.64794921875 L719.903564453125,65.19234466552734 L720.1361083984375,65.68415069580078 L719.6914672851562,66.1541748046875 L718.5044555664062,66.61125183105469 L716.606689453125,67.07218933105469 L714.1053466796875,67.5218276977539 L711.2012939453125,67.9228744506836 L708.1407470703125,68.20552062988281 L705.1743774414062,68.32213592529297 L702.5108642578125,68.23876953125 L700.3453979492188,67.98652648925781 L698.7509765625,67.63070678710938 L697.7163696289062,67.27027893066406 L697.1111450195312,66.97500610351562 L696.9432983398438,66.80799102783203 L697.2241821289062,66.7740478515625 L698.004150390625,66.83341217041016 L698.9263916015625,66.91768646240234 L699.68994140625,66.98197937011719 M751.854736328125,64.08158874511719 L751.8499145507812,64.10528564453125 L751.8860473632812,64.11297607421875 L752.0897216796875,64.09456634521484 L752.6255493164062,64.02766418457031 L753.6083984375,63.88145446777344 L755.1107177734375,63.62342071533203 L757.1050415039062,63.20338439941406 L759.4906616210938,62.55183029174805 L762.157958984375,61.63213348388672 L764.9956665039062,60.41863250732422 L767.8386840820312,58.90791320800781 L770.558349609375,57.15776824951172 L772.9972534179688,55.27089309692383 L775.0488891601562,53.40597915649414 L776.602294921875,51.70949935913086 L777.6328125,50.29861831665039 L778.1289672851562,49.238853454589844 L778.1080322265625,48.56298828125 L777.5703125,48.2943229675293 L776.5513916015625,48.5052604675293 L775.0810546875,49.234962463378906 L773.2551879882812,50.4819221496582 L771.1830444335938,52.19799041748047 L768.9815673828125,54.2892951965332 L766.7550659179688,56.63962173461914 L764.5927734375,59.149818420410156 L762.5496215820312,61.70497512817383 L760.6822509765625,64.16287231445312 L759.0355224609375,66.39213562011719 L757.6775512695312,68.26150512695312 L756.6778564453125,69.66523742675781 L756.0484619140625,70.57372283935547 L755.7462768554688,71.03012084960938 L755.7313842773438,71.08649444580078 L755.9555053710938,70.78536224365234 L756.4406127929688,70.1109390258789 L757.2472534179688,69.03978729248047 L758.380615234375,67.62064361572266 L759.818115234375,65.98065948486328 L761.5222778320312,64.25173950195312 L763.4188842773438,62.543914794921875 L765.4660034179688,60.90742874145508 L767.6296997070312,59.380882263183594 L769.841796875,58.00624465942383 L772.0496826171875,56.838443756103516 L774.1939697265625,55.8897819519043 L776.2252807617188,55.141117095947266 L778.1976318359375,54.51661682128906 L779.7724609375,54.060157775878906 L780.7857666015625,53.77545166015625 " fill="none" stroke="black" stroke-linecap="round" stroke-width="2" /></svg>