<?xml version="1.0" encoding="utf-8" ?>
<svg baseProfile="full" height="100%" version="1.1" viewBox="0,0,1000,120" width="100%" xmlns="http://www.w3.org/2000/svg" xmlns:ev="http://www.w3.org/2001/xml-events" xmlns:xlink="http://www.w3.org/1999/xlink"><defs /><rect fill="white" height="120" width="1000" x="0" y="0" /><path d="M0,0 M237.0169219970703,49.04446792602539 L236.9664764404297,49.923152923583984 L236.91629028320312,51.355865478515625 L236.8912353515625,53.19236755371094 L236.9324951171875,55.12765121459961 L237.073974609375,57.13084030151367 L237.28738403320312,59.16075134277344 L237.508544921875,61.18447494506836 L237.70565795898438,63.07440948486328 L237.82669067382812,64.64595031738281 L237.87388610839844,65.76915740966797 L237.88441467285156,66.40846252441406 L237.8841552734375,66.66241455078125 M236.74478149414062,45.485103607177734 L236.94845581054688,45.38920593261719 L237.45333862304688,45.24529266357422 L238.36080932617188,45.094207763671875 L239.682373046875,45.00434112548828 L241.34771728515625,45.0 L243.28720092773438,45.10645294189453 L245.41351318359375,45.31377029418945 L247.69363403320312,45.59503173828125 L250.04843139648438,45.919715881347656 L252.35079956054688,46.25221252441406 L254.14874267578125,46.51285934448242 L255.24855041503906,46.67521667480469 M253.51914978027344,57.66954803466797 L253.61483764648438,57.49534606933594 L253.84234619140625,57.23633575439453 L254.2548828125,56.935585021972656 L254.8554229736328,56.65647888183594 L255.63360595703125,56.39372634887695 L256.5458068847656,56.16518020629883 L257.5108337402344,55.97465896606445 L258.4326477050781,55.839683532714844 L259.2280578613281,55.77640914916992 L259.8027648925781,55.766807556152344 L260.11376953125,55.80121612548828 L260.14471435546875,55.89807891845703 L259.90185546875,56.071197509765625 L259.39404296875,56.329437255859375 L258.6632385253906,56.680904388427734 L257.75726318359375,57.09178924560547 L256.7490234375,57.53886413574219 L255.71990966796875,58.00667953491211 L254.73867797851562,58.48748016357422 L253.8348388671875,58.98567581176758 L253.04440307617188,59.49030685424805 L252.39620971679688,59.989280700683594 L251.92771911621094,60.48112487792969 L251.690185546875,60.98413848876953 L251.71253967285156,61.51346206665039 L252.0132293701172,62.089603424072266 L252.61962890625,62.67919921875 L253.5348663330078,63.244544982910156 L254.760009765625,63.72575378417969 L256.2630615234375,64.07969665527344 L257.97540283203125,64.26988220214844 L259.81207275390625,64.27777099609375 L261.68609619140625,64.09265899658203 L263.5071105957031,63.72655487060547 L265.2016296386719,63.200469970703125 L266.72216796875,62.51754379272461 L268.0407409667969,61.72232437133789 L269.135986328125,60.86057662963867 L269.9045715332031,60.141090393066406 L270.3367919921875,59.67696762084961 M272.4436950683594,59.9952507019043 L272.8251037597656,59.99170684814453 L273.4117736816406,59.969242095947266 L274.1062316894531,59.90127944946289 L274.74615478515625,59.7557487487793 L275.3164978027344,59.508358001708984 L275.8260498046875,59.15283966064453 L276.2930603027344,58.69261932373047 L276.7313232421875,58.1745491027832 L277.1448059082031,57.63715362548828 L277.55029296875,57.120018005371094 L277.9752197265625,56.6586799621582 L278.46649169921875,56.29355239868164 L279.0606994628906,56.04929733276367 L279.81805419921875,55.96068572998047 L280.76959228515625,56.054622650146484 L281.92144775390625,56.34905242919922 L283.2342224121094,56.8671760559082 L284.64312744140625,57.60262680053711 L286.0373229980469,58.50069808959961 L287.3282165527344,59.49153518676758 L288.4124450683594,60.487548828125 L289.2247009277344,61.39706802368164 L289.724609375,62.176944732666016 L289.8817443847656,62.77112579345703 L289.6638488769531,63.13227462768555 L289.0736083984375,63.252689361572266 L288.11505126953125,63.14254379272461 L286.8568420410156,62.84381866455078 L285.4027099609375,62.43273162841797 L283.85296630859375,61.960575103759766 L282.3064270019531,61.462554931640625 L280.87713623046875,60.93750762939453 L279.68536376953125,60.392234802246094 L278.84063720703125,59.85207748413086 L278.37213134765625,59.423179626464844 L278.19647216796875,59.15834426879883 M290.9362487792969,48.84487533569336 L290.7623291015625,49.23928451538086 L290.51300048828125,50.01179504394531 L290.23651123046875,51.19688034057617 L290.0218505859375,52.7005500793457 L289.87078857421875,54.458045959472656 L289.7793884277344,56.348228454589844 L289.7108154296875,58.2637939453125 L289.6334228515625,60.08038330078125 L289.5042724609375,61.657127380371094 L289.3200988769531,62.867774963378906 L289.134765625,63.62668991088867 L289.0005798339844,63.977867126464844 M290.63177490234375,55.18281555175781 L291.36090087890625,55.10901641845703 L292.5914306640625,55.01919174194336 L294.1925964355469,54.91654968261719 L295.87847900390625,54.8424072265625 L297.52032470703125,54.79071044921875 L299.0343933105469,54.78340530395508 L300.37811279296875,54.83915710449219 L301.50860595703125,54.98358154296875 L302.3955383300781,55.208831787109375 L303.0496826171875,55.5660285949707 L303.4798278808594,56.08978271484375 L303.71417236328125,56.82299041748047 L303.797607421875,57.76945495605469 L303.7637023925781,58.873802185058594 L303.6502380371094,60.04568862915039 L303.5013427734375,61.210880279541016 L303.3565979003906,62.26823043823242 L303.24005126953125,63.13911437988281 L303.17132568359375,63.69798278808594 L303.1396484375,63.95522689819336 L303.1281433105469,63.99808120727539 M303.3764343261719,49.27586364746094 M312.5105895996094,56.32121276855469 L312.3255615234375,56.55033874511719 L312.0063171386719,56.938087463378906 L311.598876953125,57.48535919189453 L311.20849609375,58.13817596435547 L310.90191650390625,58.9069709777832 L310.7294616699219,59.772945404052734 L310.70263671875,60.68364715576172 L310.7976379394531,61.52463912963867 L310.98858642578125,62.181243896484375 L311.23712158203125,62.535911560058594 L311.5142517089844,62.530250549316406 L311.8188171386719,62.15507507324219 L312.1517639160156,61.45600128173828 L312.55413818359375,60.502174377441406 L313.08447265625,59.37205123901367 L313.7839660644531,58.15864562988281 L314.69293212890625,56.96113586425781 L315.8266906738281,55.88179016113281 L317.1436462402344,55.009681701660156 L318.6074523925781,54.42241287231445 L320.15826416015625,54.163021087646484 L321.70849609375,54.273258209228516 L323.1880798339844,54.74246597290039 L324.5260314941406,55.539268493652344 L325.6677551269531,56.595848083496094 L326.61376953125,57.825706481933594 L327.392578125,59.113182067871094 L328.07794189453125,60.35788345336914 L328.7332763671875,61.42261505126953 L329.3821716308594,62.22342300415039 L329.91131591796875,62.71240997314453 L330.25299072265625,62.935707092285156 M339.325439453125,54.7496337890625 L338.7445373535156,54.67674255371094 L337.70770263671875,54.76362228393555 L336.314208984375,55.136619567871094 L334.85052490234375,55.84040069580078 L333.5242919921875,56.7496223449707 L332.5426330566406,57.73918151855469 L332.017333984375,58.70271682739258 L331.9855041503906,59.58565902709961 L332.4654846191406,60.326595306396484 L333.3944396972656,60.83696365356445 L334.673095703125,61.058170318603516 L336.17840576171875,60.97218704223633 L337.7397766113281,60.60105895996094 L339.1676025390625,59.988670349121094 L340.3448486328125,59.2275276184082 L341.1778564453125,58.419212341308594 L341.67291259765625,57.69374084472656 L341.88482666015625,57.14577102661133 L341.9047546386719,56.86458206176758 L341.82464599609375,56.90568161010742 L341.7426452636719,57.33668899536133 L341.71221923828125,58.21188735961914 L341.7732238769531,59.54427719116211 L341.9227600097656,61.269752502441406 L342.13092041015625,63.29386901855469 L342.3426513671875,65.4704360961914 L342.46441650390625,67.655029296875 L342.35308837890625,69.70614624023438 L341.8655700683594,71.46168518066406 L340.9195556640625,72.78192901611328 L339.5130615234375,73.57159423828125 L337.7624816894531,73.7959213256836 L335.828369140625,73.49838256835938 L333.8721008300781,72.78339385986328 L332.0211486816406,71.76188659667969 L330.4303894042969,70.52987670898438 L329.2313537597656,69.19852447509766 L328.51507568359375,67.88706970214844 L328.2139892578125,66.86245727539062 L328.1773986816406,66.24604034423828 M374.1793212890625,56.606868743896484 L373.2270812988281,57.03963088989258 L371.85186767578125,57.80849075317383 L370.36883544921875,58.887413024902344 L369.2695007324219,60.12142562866211 L368.6891174316406,61.43031692504883 L368.69390869140625,62.75236892700195 L369.2498474121094,64.04310607910156 L370.36053466796875,65.24720764160156 L371.9602966308594,66.31112670898438 L373.9410095214844,67.14659118652344 L376.1494140625,67.6803970336914 L378.478759765625,67.80763244628906 L380.7747802734375,67.48820495605469 L382.88787841796875,66.7626953125 L384.4724426269531,65.97145080566406 L385.407470703125,65.36819458007812 M391.58843994140625,57.85041427612305 L390.6841125488281,58.0931282043457 L389.31292724609375,58.5532112121582 L387.74090576171875,59.24180603027344 L386.41656494140625,60.10544204711914 L385.4814453125,61.1179084777832 L384.9981384277344,62.219295501708984 L384.94207763671875,63.35551834106445 L385.3423156738281,64.4289779663086 L386.1443786621094,65.33392333984375 L387.2800598144531,65.97295379638672 L388.67608642578125,66.27549743652344 L390.2556457519531,66.18465423583984 L391.93560791015625,65.7132797241211 L393.618408203125,64.89811706542969 L395.14044189453125,63.821041107177734 L396.31591796875,62.53730392456055 L397.02374267578125,61.146575927734375 L397.2398681640625,59.744869232177734 L397.1532287597656,58.62993240356445 L396.97308349609375,57.93820571899414 M402.4447326660156,58.727577209472656 L402.39306640625,59.26289367675781 L402.2530822753906,60.137516021728516 L402.03485107421875,61.25959014892578 L401.7686767578125,62.3928108215332 L401.5250549316406,63.4306526184082 L401.35955810546875,64.28605651855469 L401.280029296875,64.90650177001953 L401.2601318359375,65.19803619384766 L401.301025390625,65.14012908935547 L401.42340087890625,64.72438049316406 L401.6934509277344,63.99834442138672 L402.1744079589844,63.05851364135742 L402.9155578613281,62.03279495239258 L403.90594482421875,61.007530212402344 L405.1091003417969,60.09693145751953 L406.4799499511719,59.37184143066406 L407.93597412109375,58.887916564941406 L409.3871765136719,58.69636917114258 L410.76043701171875,58.82869338989258 L411.99365234375,59.24995040893555 L413.0758972167969,59.93973922729492 L414.0093994140625,60.83434295654297 L414.777587890625,61.86100769042969 L415.3878173828125,62.953365325927734 L415.8519287109375,64.04144287109375 L416.2069091796875,65.03303527832031 L416.5257263183594,65.88579559326172 L416.89990234375,66.50547790527344 L417.3711853027344,66.83089447021484 L417.96173095703125,66.83863830566406 L418.50360107421875,66.67092895507812 L418.87872314453125,66.46673583984375 M424.15838623046875,52.411128997802734 L424.0828857421875,53.04203414916992 L423.94085693359375,54.130802154541016 L423.744140625,55.60053253173828 L423.5361328125,57.254878997802734 L423.35394287109375,59.050254821777344 L423.181640625,60.90132141113281 L423.00628662109375,62.74304962158203 L422.81829833984375,64.44436645507812 L422.61431884765625,65.86915588378906 L422.4456787109375,66.84886169433594 L422.34429931640625,67.37964630126953 M423.3008117675781,59.565982818603516 L424.06121826171875,59.562076568603516 L425.29412841796875,59.5324592590332 L426.8675537109375,59.47208786010742 L428.4934997558594,59.40644836425781 L430.106689453125,59.35800552368164 L431.6154479980469,59.35890579223633 L432.9171142578125,59.40041732788086 L433.8916015625,59.496768951416016 L434.4915771484375,59.70054244995117 L434.7397155761719,60.091758728027344 L434.72186279296875,60.7011833190918 L434.53485107421875,61.537044525146484 L434.2602844238281,62.552791595458984 L433.955322265625,63.66767120361328 L433.692626953125,64.84819793701172 L433.48834228515625,66.03401184082031 L433.3204345703125,67.11947631835938 L433.17987060546875,68.01383972167969 L433.07373046875,68.61357116699219 L432.99835205078125,68.90625 M436.0687561035156,53.99250793457031 L436.0904541015625,53.961280822753906 L436.1051330566406,53.92870330810547 L436.0941467285156,53.91349411010742 L436.08544921875,53.94490051269531 L436.1380920410156,54.02631759643555 L436.302734375,54.16200637817383 L436.5144348144531,54.301143646240234 L436.6986083984375,54.405303955078125 M442.18389892578125,57.994239807128906 L442.14984130859375,58.36668014526367 L442.0566101074219,59.07986068725586 L441.89404296875,60.1197509765625 L441.6847839355469,61.356475830078125 L441.4735412597656,62.689334869384766 L441.2969970703125,64.02069854736328 L441.17529296875,65.26553344726562 L441.09796142578125,66.33319854736328 L441.0447998046875,67.12345123291016 L441.00311279296875,67.56851959228516 L440.9837646484375,67.63198852539062 L441.02056884765625,67.3294906616211 L441.1699523925781,66.71134948730469 L441.4675598144531,65.85346984863281 L441.9373779296875,64.84764099121094 L442.5751953125,63.790496826171875 L443.3784484863281,62.762691497802734 L444.3269958496094,61.8431510925293 L445.4287414550781,61.09107208251953 L446.6885986328125,60.571659088134766 L448.094482421875,60.33888244628906 L449.5733642578125,60.40283203125 L451.0263671875,60.75334930419922 L452.3193359375,61.346656799316406 L453.40423583984375,62.129329681396484 L454.297607421875,63.06261444091797 L455.06646728515625,64.09297943115234 L455.76177978515625,65.1408920288086 L456.4195251464844,66.12541961669922 L457.04669189453125,66.9453353881836 L457.68292236328125,67.54521179199219 L458.35418701171875,67.87324523925781 L459.10736083984375,67.91178894042969 L459.94720458984375,67.64789581298828 L460.84808349609375,67.08580780029297 L461.75885009765625,66.24757385253906 L462.601806640625,65.20651245117188 L463.3099365234375,64.0281753540039 L463.8396301269531,62.84498596191406 L464.192626953125,61.76048278808594 L464.3936767578125,60.86471939086914 L464.47894287109375,60.232479095458984 L464.45391845703125,59.91285705566406 L464.3301696777344,59.913394927978516 L464.11077880859375,60.254798889160156 L463.88592529296875,60.89052200317383 L463.75390625,61.74586486816406 L463.83135986328125,62.726478576660156 L464.2010498046875,63.73408126831055 L464.89239501953125,64.6585922241211 L465.8714599609375,65.40040588378906 L467.0881652832031,65.869873046875 L468.4331359863281,66.01771545410156 L469.7944030761719,65.813232421875 L471.07952880859375,65.28348541259766 L472.2139587402344,64.47051239013672 L473.13909912109375,63.441734313964844 L473.84161376953125,62.31985855102539 L474.3143005371094,61.259063720703125 L474.58154296875,60.38923645019531 L474.6908264160156,59.82377243041992 L474.6900329589844,59.608192443847656 L474.62371826171875,59.75177001953125 L474.5600891113281,60.237579345703125 L474.5650329589844,61.02608871459961 L474.7319641113281,62.04528045654297 L475.1405334472656,63.21207809448242 L475.8385009765625,64.40266418457031 L476.8092346191406,65.51070404052734 L477.9895935058594,66.42957305908203 L479.2734680175781,67.0844497680664 L480.62725830078125,67.3802261352539 L482.0012512207031,67.29698944091797 L483.3559875488281,66.8556900024414 L484.4360046386719,66.3195571899414 L485.1156311035156,65.89287567138672 M488.0896911621094,59.261600494384766 L487.3168029785156,59.321754455566406 L486.0779113769531,59.5504150390625 L484.5749206542969,60.02266311645508 L483.1997375488281,60.7673454284668 L482.1560363769531,61.73744583129883 L481.5987548828125,62.84404754638672 L481.57891845703125,63.99184799194336 L482.1097106933594,65.07797241210938 L483.1482238769531,65.97675323486328 L484.5479431152344,66.58625793457031 L486.1352233886719,66.82183074951172 L487.7478942871094,66.63700866699219 L489.2046813964844,66.02166748046875 L490.3439636230469,65.0363998413086 L491.1020812988281,63.78954315185547 L491.3851013183594,62.425113677978516 L491.2085876464844,61.110050201416016 L490.6856384277344,59.967960357666016 L490.1029357910156,59.15668487548828 L489.6617736816406,58.7094841003418 M495.0457458496094,59.382469177246094 L494.9595642089844,59.75409698486328 L494.8602600097656,60.411895751953125 L494.8322448730469,61.31623840332031 L494.9606018066406,62.31117630004883 L495.2892150878906,63.31694793701172 L495.8338928222656,64.25237274169922 L496.5498962402344,65.07122039794922 L497.3931579589844,65.70542907714844 L498.3306579589844,66.09310913085938 L499.2958679199219,66.16557312011719 L500.2444763183594,65.9013671875 L501.1380310058594,65.29888153076172 L501.9273986816406,64.42716217041016 L502.5912170410156,63.37138748168945 L503.1309509277344,62.242088317871094 L503.5308532714844,61.15617752075195 L503.8092956542969,60.2252311706543 L503.9879455566406,59.52682113647461 L504.0754699707031,59.1348991394043 L504.0848083496094,59.08012771606445 L504.0552062988281,59.39729690551758 L504.0152282714844,60.083553314208984 L504.0484924316406,61.10319137573242 L504.2394104003906,62.36463165283203 L504.6471862792969,63.72663879394531 L505.3052062988281,65.03375244140625 L506.1949768066406,66.17286682128906 L507.3063049316406,66.98593139648438 L508.5833435058594,67.39411926269531 L509.9394226074219,67.38861083984375 L511.0588073730469,67.15641784667969 L511.7782897949219,66.89421844482422 M520.052001953125,58.104827880859375 L519.43310546875,58.088890075683594 L518.38671875,58.12358856201172 L517.0657958984375,58.25098419189453 L515.8057861328125,58.50277328491211 L514.8236083984375,58.86835861206055 L514.2900390625,59.31794738769531 L514.268310546875,59.825599670410156 L514.779052734375,60.380821228027344 L515.7799072265625,60.96428680419922 L517.1702880859375,61.574928283691406 L518.7803955078125,62.205970764160156 L520.4342041015625,62.8555793762207 L521.951904296875,63.50636672973633 L523.173095703125,64.13722229003906 L523.9595947265625,64.7126235961914 L524.2220458984375,65.19898223876953 L523.886474609375,65.56251525878906 L522.975341796875,65.79315185546875 L521.5755615234375,65.87250518798828 L519.7701416015625,65.8017349243164 L517.71142578125,65.60394287109375 L515.6014404296875,65.31999206542969 L513.904052734375,65.0553970336914 L512.8543701171875,64.87970733642578 M553.1636962890625,58.13655090332031 L552.65625,57.8258171081543 L551.6805419921875,57.462493896484375 L550.25634765625,57.2320671081543 L548.5819091796875,57.34480667114258 L546.847900390625,57.81957244873047 L545.273193359375,58.62590789794922 L544.0819091796875,59.67348861694336 L543.3974609375,60.868804931640625 L543.2901611328125,62.11870193481445 L543.7274169921875,63.285457611083984 L544.613037109375,64.24855041503906 L545.8394775390625,64.9232177734375 L547.3013916015625,65.24699401855469 L548.8707275390625,65.19185638427734 L550.4320068359375,64.79249572753906 L551.85986328125,64.08855438232422 L553.0697021484375,63.19353103637695 L554.033203125,62.2601318359375 L554.7489013671875,61.43212890625 L555.2562255859375,60.81109619140625 L555.6087646484375,60.494361877441406 L555.8551025390625,60.527488708496094 L556.05224609375,60.974124908447266 L556.244873046875,61.895328521728516 L556.4156494140625,63.301849365234375 L556.5142822265625,65.12045288085938 L556.4627685546875,67.23179626464844 L556.1778564453125,69.43490600585938 L555.5762939453125,71.51959991455078 L554.5986328125,73.29959106445312 L553.2095947265625,74.65042877197266 L551.420166015625,75.48412322998047 L549.2847900390625,75.77241516113281 L546.9468994140625,75.51194763183594 L544.5472412109375,74.71795654296875 L542.259033203125,73.42340087890625 L540.2794189453125,71.80062866210938 L538.7476806640625,70.07011413574219 L537.770751953125,68.6740493774414 L537.307861328125,67.82852935791016 M561.7454833984375,63.47722625732422 L562.289306640625,63.415016174316406 L563.2120361328125,63.26264953613281 L564.43896484375,62.98353958129883 L565.76953125,62.56734085083008 L567.087890625,62.02381896972656 L568.258056640625,61.38557815551758 L569.192626953125,60.70759963989258 L569.7708740234375,60.027584075927734 L569.92822265625,59.398963928222656 L569.6663818359375,58.880245208740234 L568.992431640625,58.5507926940918 L567.96337890625,58.47785568237305 L566.7166748046875,58.7269287109375 L565.3974609375,59.30463790893555 L564.162109375,60.20038986206055 L563.1611328125,61.352386474609375 L562.4774169921875,62.687957763671875 L562.1722412109375,64.10565948486328 L562.292724609375,65.49799346923828 L562.85595703125,66.74628448486328 L563.86376953125,67.7486572265625 L565.30419921875,68.40447998046875 L567.0986328125,68.67477416992188 L569.141357421875,68.47293090820312 L571.2294921875,67.78301239013672 L573.1468505859375,66.67884826660156 L574.5516357421875,65.58068084716797 L575.347412109375,64.78211212158203 M576.623291015625,58.44173049926758 L576.489501953125,59.038970947265625 L576.2764892578125,60.10417938232422 L576.046875,61.54903793334961 L575.8743896484375,63.1010856628418 L575.779052734375,64.57720184326172 L575.763427734375,65.82987213134766 L575.7781982421875,66.7746810913086 L575.7928466796875,67.33172607421875 L575.8150634765625,67.45121002197266 L575.856689453125,67.12159729003906 L575.9547119140625,66.39684295654297 L576.1578369140625,65.3598861694336 L576.4996337890625,64.13119506835938 L577.0003662109375,62.82109069824219 L577.6656494140625,61.51827621459961 L578.50537109375,60.297183990478516 L579.518310546875,59.250789642333984 L580.6795654296875,58.44961929321289 L581.960693359375,57.966331481933594 L583.297607421875,57.841373443603516 L584.6292724609375,58.06022644042969 L585.90576171875,58.58738327026367 L587.0849609375,59.395233154296875 L588.123046875,60.44220733642578 L589.0087890625,61.66669464111328 L589.7379150390625,62.97160339355469 L590.3453369140625,64.21111297607422 L590.88037109375,65.25259399414062 L591.4051513671875,66.00360107421875 L591.961669921875,66.40435791015625 L592.584716796875,66.4354248046875 L593.264404296875,66.0981216430664 L593.976806640625,65.40515899658203 L594.6771240234375,64.42289733886719 L595.2994384765625,63.248374938964844 L595.7713623046875,61.97848129272461 L596.04248046875,60.7341194152832 L596.0814208984375,59.61969757080078 L595.8843994140625,58.70682907104492 L595.4649658203125,58.0548095703125 L594.8709716796875,57.70219421386719 L594.17822265625,57.68145751953125 L593.473388671875,58.02773666381836 L592.868896484375,58.746604919433594 L592.4471435546875,59.77776336669922 L592.2623291015625,61.01082229614258 L592.3770751953125,62.316734313964844 L592.84521484375,63.58989334106445 L593.6563720703125,64.73143768310547 L594.7821044921875,65.6592788696289 L596.15283203125,66.2990951538086 L597.650146484375,66.59576416015625 L599.129638671875,66.5169448852539 L600.4781494140625,66.07705688476562 L601.571044921875,65.32481384277344 L602.3514404296875,64.3448486328125 L602.831298828125,63.26124572753906 L603.0546875,62.21886444091797 L603.0859375,61.33564376831055 L603.014404296875,60.694820404052734 L602.891845703125,60.357948303222656 L602.7525634765625,60.357208251953125 L602.59521484375,60.69941329956055 L602.4119873046875,61.36647415161133 L602.2318115234375,62.29256820678711 L602.0728759765625,63.334651947021484 L601.962890625,64.34748077392578 L601.899169921875,65.20387268066406 L601.85400390625,65.79244995117188 L601.8016357421875,66.05015563964844 L601.74755859375,65.95874786376953 L601.702392578125,65.49829864501953 L601.6961669921875,64.70459747314453 L601.7425537109375,63.64979934692383 L601.8609619140625,62.430999755859375 L602.0791015625,61.174495697021484 L602.4427490234375,59.99619674682617 L603.0513916015625,58.977882385253906 L603.9608154296875,58.17388916015625 L605.2012939453125,57.614173889160156 L606.759521484375,57.31739807128906 L608.578369140625,57.29167938232422 L610.58740234375,57.51413345336914 L612.72900390625,57.91585159301758 L614.8826904296875,58.4034423828125 L616.90869140625,58.88998031616211 L618.655029296875,59.289466857910156 L619.9942626953125,59.55813217163086 L620.8782958984375,59.698753356933594 L621.299560546875,59.71289825439453 L621.2900390625,59.64237976074219 L620.8726806640625,59.547882080078125 L620.096923828125,59.48390579223633 L619.0426025390625,59.540828704833984 L617.84765625,59.79472732543945 L616.6322021484375,60.27752685546875 L615.537109375,60.98313903808594 L614.644287109375,61.85673904418945 L614.0294189453125,62.80308151245117 L613.7381591796875,63.743873596191406 L613.8077392578125,64.59514617919922 L614.2252197265625,65.2853012084961 L614.9674072265625,65.73391723632812 L615.951904296875,65.88016510009766 L617.0814208984375,65.67647552490234 L618.2470703125,65.1232681274414 L619.3560791015625,64.27662658691406 L620.34912109375,63.23801803588867 L621.1951904296875,62.121665954589844 L621.878662109375,61.07039260864258 L622.410400390625,60.216373443603516 L622.8115234375,59.66258239746094 L623.1019287109375,59.478111267089844 L623.2933349609375,59.704307556152344 L623.381103515625,60.31953048706055 L623.3529052734375,61.27201843261719 L623.2635498046875,62.48300552368164 L623.183349609375,63.83280944824219 L623.236572265625,65.14537048339844 L623.4833984375,66.25740814208984 L623.927734375,67.02513885498047 L624.378662109375,67.4264144897461 L624.7125244140625,67.55754852294922 M633.1627197265625,51.57777786254883 L633.2501220703125,51.76840591430664 L633.302001953125,52.21788024902344 L633.2454833984375,53.01035690307617 L633.03857421875,54.15413284301758 L632.7491455078125,55.6161003112793 L632.4576416015625,57.30940628051758 L632.2413330078125,59.13532638549805 L632.1187744140625,60.982120513916016 L632.076904296875,62.711421966552734 L632.0850830078125,64.1854248046875 L632.108154296875,65.21004486083984 L632.1275634765625,65.75758361816406 M631.98974609375,59.74571990966797 L632.5010986328125,59.583160400390625 L633.43212890625,59.36194610595703 L634.737548828125,59.148685455322266 L636.23193359375,59.013431549072266 L637.7906494140625,58.931312561035156 L639.3333740234375,58.88746643066406 L640.7939453125,58.86189270019531 L642.0819091796875,58.8638801574707 L643.1026611328125,58.93265914916992 L643.783447265625,59.09859085083008 L644.0833740234375,59.40690231323242 L644.0350341796875,59.91262435913086 L643.710693359375,60.63430404663086 L643.2115478515625,61.56012725830078 L642.6539306640625,62.628334045410156 L642.1627197265625,63.74266815185547 L641.82763671875,64.8030776977539 L641.68017578125,65.69502258300781 L641.6685791015625,66.30036163330078 L641.7130126953125,66.61692810058594 M643.598876953125,53.79376220703125 L643.6162109375,53.657230377197266 L643.619140625,53.500789642333984 L643.609130859375,53.3739013671875 L643.5869140625,53.326026916503906 M652.615966796875,59.270721435546875 L652.028564453125,59.262935638427734 L651.063720703125,59.341583251953125 L649.8753662109375,59.56563186645508 L648.77685546875,59.9760856628418 L647.9605712890625,60.541133880615234 L647.5614013671875,61.239837646484375 L647.625732421875,62.017364501953125 L648.17529296875,62.81201934814453 L649.169189453125,63.515499114990234 L650.5015869140625,64.04299926757812 L652.050537109375,64.30093383789062 L653.6650390625,64.25751495361328 L655.1904296875,63.89179229736328 L656.503173828125,63.22966003417969 L657.4827880859375,62.317604064941406 L658.0279541015625,61.27128982543945 L658.1470947265625,60.22285079956055 L657.917236328125,59.31037902832031 L657.5703125,58.675071716308594 L657.2938232421875,58.339473724365234 M662.0325927734375,58.90778350830078 L662.0316162109375,59.28122329711914 L661.9822998046875,59.9371337890625 L661.88232421875,60.83320999145508 L661.75537109375,61.81983947753906 L661.6767578125,62.7950439453125 L661.6785888671875,63.65412521362305 L661.7744140625,64.31570434570312 L661.9365234375,64.70198822021484 L662.153076171875,64.77394104003906 L662.428466796875,64.52339172363281 L662.8245849609375,63.963104248046875 L663.3560791015625,63.14665603637695 L664.052001953125,62.158851623535156 L664.8984375,61.085636138916016 L665.8680419921875,60.018798828125 L666.934814453125,59.043148040771484 L668.1009521484375,58.234806060791016 L669.3341064453125,57.66145706176758 L670.61767578125,57.379676818847656 L671.906005859375,57.42586135864258 L673.153564453125,57.79344940185547 L674.32177734375,58.45802307128906 L675.3837890625,59.3700065612793 L676.3316650390625,60.44219970703125 L677.1737060546875,61.577301025390625 L677.9210205078125,62.68062210083008 L678.5897216796875,63.65256118774414 L679.203857421875,64.40902709960938 L679.7608642578125,64.89738464355469 L680.2564697265625,65.09749603271484 L680.6231689453125,65.10494995117188 L680.836669921875,65.03180694580078 M694.287109375,59.58413314819336 L694.3009033203125,59.58869934082031 L694.3724365234375,59.640716552734375 L694.4718017578125,59.717376708984375 L694.5694580078125,59.7958869934082 M712.1053466796875,52.459075927734375 L711.954833984375,53.4508056640625 L711.7064208984375,55.12305450439453 L711.3875732421875,57.29696273803711 L711.0472412109375,59.56911849975586 L710.701416015625,61.735572814941406 L710.370361328125,63.62907409667969 L710.11669921875,65.00782775878906 L709.9627685546875,65.79257202148438 M711.99951171875,49.3983154296875 L712.70556640625,49.07136535644531 L713.962158203125,48.69457244873047 L715.6688232421875,48.43990707397461 L717.4951171875,48.51695251464844 L719.1986083984375,48.93164825439453 L720.5174560546875,49.62432861328125 L721.3135986328125,50.46608352661133 L721.54296875,51.38256072998047 L721.2486572265625,52.297760009765625 L720.5224609375,53.196407318115234 L719.48681640625,54.073036193847656 L718.2457275390625,54.905418395996094 L716.944580078125,55.6707878112793 L715.72119140625,56.35620880126953 L714.6763916015625,56.96083450317383 L713.87841796875,57.530372619628906 L713.398681640625,58.10984802246094 L713.2974853515625,58.73227310180664 L713.6287841796875,59.45066833496094 L714.3729248046875,60.26964569091797 L715.443603515625,61.166351318359375 L716.7423095703125,62.085914611816406 L718.177978515625,62.97489929199219 L719.7061767578125,63.78754425048828 L721.245361328125,64.50759887695312 L722.6793212890625,65.09736633300781 L723.7528076171875,65.50346374511719 L724.376220703125,65.7162094116211 M725.595947265625,57.368896484375 L725.655517578125,57.512535095214844 L725.7423095703125,57.82433319091797 L725.867919921875,58.342010498046875 L726.04150390625,59.04560852050781 L726.295654296875,59.89516067504883 L726.650634765625,60.816062927246094 L727.1129150390625,61.72080993652344 L727.67333984375,62.5162353515625 L728.353759765625,63.12635803222656 L729.171875,63.490234375 L730.1114501953125,63.56553268432617 L731.159423828125,63.33333969116211 L732.252685546875,62.81071472167969 L733.29736328125,62.0176887512207 L734.2254638671875,61.013729095458984 L734.9942626953125,59.87826156616211 L735.5850830078125,58.7252311706543 L736.036865234375,57.68014144897461 L736.3621826171875,56.867156982421875 L736.5860595703125,56.356529235839844 L736.7095947265625,56.21583557128906 L736.736572265625,56.465797424316406 L736.6812744140625,57.11558151245117 L736.5811767578125,58.122737884521484 L736.46240234375,59.38021469116211 L736.4093017578125,60.725189208984375 L736.4700927734375,62.01558303833008 L736.69775390625,63.08879852294922 L737.109375,63.838680267333984 L737.7030029296875,64.20096588134766 L738.425048828125,64.14320373535156 L739.2322998046875,63.663211822509766 L740.0736083984375,62.84269332885742 L740.9110107421875,61.75938415527344 L741.689453125,60.57065963745117 L742.3961181640625,59.44398498535156 L743.0108642578125,58.54172134399414 L743.5164794921875,57.929473876953125 L743.9127197265625,57.68778991699219 L744.1959228515625,57.78378677368164 L744.3555908203125,58.22798538208008 L744.41064453125,58.96046447753906 L744.3935546875,59.91259765625 L744.3360595703125,60.91295623779297 L744.2606201171875,61.85246276855469 L744.1934814453125,62.58799743652344 L744.1463623046875,63.099979400634766 L744.112548828125,63.329612731933594 L744.0897216796875,63.25054168701172 L744.107177734375,62.82433319091797 L744.19140625,62.0776481628418 L744.4017333984375,61.07636642456055 L744.7969970703125,59.98003005981445 L745.4228515625,58.895118713378906 L746.29833984375,57.91450500488281 L747.430419921875,57.10331726074219 L748.7744140625,56.51824951171875 L750.247802734375,56.21403884887695 L751.725341796875,56.25981140136719 L753.1053466796875,56.656700134277344 L754.29931640625,57.38249206542969 L755.2657470703125,58.35679626464844 L756.008056640625,59.49065399169922 L756.5673828125,60.7021484375 L756.9718017578125,61.89704895019531 L757.276611328125,62.965911865234375 L757.47998046875,63.74696350097656 L757.5927734375,64.18355560302734 M772.56494140625,45.96388244628906 L772.7655029296875,45.89883804321289 L773.1448974609375,45.853248596191406 L773.7271728515625,45.889896392822266 L774.5032958984375,46.059513092041016 L775.51513671875,46.36029815673828 L776.729736328125,46.77510070800781 L778.1177978515625,47.2847900390625 L779.61279296875,47.87541580200195 L781.1385498046875,48.52526092529297 L782.6307373046875,49.20207214355469 L784.0567626953125,49.900672912597656 L785.3162841796875,50.60091781616211 L786.3353271484375,51.30796432495117 L787.030517578125,52.01192855834961 L787.35791015625,52.724143981933594 L787.33251953125,53.477027893066406 L787.0521240234375,54.3123779296875 L786.57861328125,55.21242904663086 L785.9931640625,56.129669189453125 L785.3406982421875,56.9989013671875 L784.67236328125,57.78644943237305 L784.0247802734375,58.495330810546875 L783.434814453125,59.135494232177734 L782.8897705078125,59.71855545043945 L782.3834228515625,60.23044967651367 L781.8944091796875,60.6985969543457 L781.5084228515625,61.05887222290039 L781.2645263671875,61.28866195678711 M779.63525390625,58.44676971435547 L779.60595703125,58.290199279785156 L779.6761474609375,58.049102783203125 L779.9566650390625,57.770545959472656 L780.5556640625,57.535831451416016 L781.4957275390625,57.37293243408203 L782.7720947265625,57.28197479248047 L784.2906494140625,57.26457977294922 L785.9395751953125,57.31217575073242 L787.60791015625,57.41050338745117 L788.936767578125,57.51500701904297 L789.7628173828125,57.593345642089844 " fill="none" stroke="black" stroke-linecap="round" stroke-width="2" /></svg>