<?xml version="1.0" encoding="utf-8" ?>
<svg baseProfile="full" height="100%" version="1.1" viewBox="0,0,1000,120" width="100%" xmlns="http://www.w3.org/2000/svg" xmlns:ev="http://www.w3.org/2001/xml-events" xmlns:xlink="http://www.w3.org/1999/xlink"><defs /><rect fill="white" height="120" width="1000" x="0" y="0" /><path d="M0,0 M251.12722778320312,76.32965087890625 L251.33218383789062,76.12032318115234 L251.53611755371094,75.90253448486328 M276.173583984375,48.00709915161133 L276.22515869140625,48.34860610961914 L276.28375244140625,49.03019714355469 L276.31640625,50.09324645996094 L276.2724609375,51.496543884277344 L276.1377868652344,53.24623489379883 L275.88787841796875,55.31926727294922 L275.5390319824219,57.689178466796875 L275.1072998046875,60.295143127441406 L274.6177062988281,63.03075408935547 L274.1078796386719,65.76420593261719 L273.6253356933594,68.33041381835938 L273.1814880371094,70.5106430053711 L272.82391357421875,72.12319946289062 L272.5640869140625,73.09014129638672 L272.4043884277344,73.51070404052734 L272.33172607421875,73.59878540039062 M268.13922119140625,52.563106536865234 L268.08428955078125,51.74574279785156 L268.23687744140625,50.51608657836914 L268.8182067871094,49.07634735107422 L269.99072265625,47.757286071777344 L271.7546081542969,46.61871337890625 L274.02667236328125,45.72907638549805 L276.6333923339844,45.15091323852539 L279.4072570800781,45.0 L282.1589050292969,45.33160400390625 L284.6514587402344,46.10279846191406 L286.6907958984375,47.21784973144531 L288.1318054199219,48.56908416748047 L288.8619079589844,50.065494537353516 L288.8584289550781,51.627037048339844 L288.168212890625,53.20682144165039 L286.8377685546875,54.73072814941406 L284.9763488769531,56.099037170410156 L282.7486267089844,57.242919921875 L280.3420104980469,58.117225646972656 L277.9963073730469,58.712242126464844 L275.9613037109375,59.06790542602539 L274.3868103027344,59.22956085205078 L273.3929443359375,59.263492584228516 L272.9163818359375,59.244178771972656 M284.758544921875,71.96700286865234 L284.92529296875,72.01361083984375 L285.34136962890625,72.05329132080078 L286.114990234375,72.04426574707031 L287.29449462890625,71.9322509765625 L288.8471374511719,71.68765258789062 L290.6732177734375,71.283935546875 L292.64459228515625,70.72698974609375 L294.556396484375,70.0127182006836 L296.2207946777344,69.16598510742188 L297.48431396484375,68.2347640991211 L298.20062255859375,67.28292846679688 L298.3027648925781,66.3851547241211 L297.7791748046875,65.64942169189453 L296.64984130859375,65.16812896728516 L295.0004577636719,65.01200103759766 L292.9878845214844,65.226806640625 L290.8172912597656,65.81271362304688 L288.73529052734375,66.72503662109375 L286.9798889160156,67.9018325805664 L285.767333984375,69.25588989257812 L285.24267578125,70.67093658447266 L285.50555419921875,72.01544189453125 L286.60955810546875,73.1683578491211 L288.5063781738281,74.02265167236328 L291.0554504394531,74.52127838134766 L294.0222473144531,74.6757583618164 L297.0760498046875,74.5522232055664 L299.927001953125,74.19660949707031 L302.34600830078125,73.68738555908203 L304.1942138671875,73.0874252319336 L305.368408203125,72.5634994506836 L305.9539794921875,72.21476745605469 M307.7449645996094,67.93092346191406 L307.72955322265625,67.67216491699219 L307.72265625,67.37001037597656 L307.74578857421875,67.18302154541016 L307.7984619140625,67.30071258544922 L307.840576171875,67.78004455566406 L307.827880859375,68.60533142089844 L307.72991943359375,69.69571685791016 L307.53570556640625,70.93365478515625 L307.2813415527344,72.15673065185547 L307.0262451171875,73.20893859863281 L306.81524658203125,73.96482849121094 L306.6786193847656,74.32455444335938 L306.6334228515625,74.23680114746094 L306.6778564453125,73.68563842773438 L306.80096435546875,72.70046997070312 L307.00604248046875,71.39962005615234 L307.28350830078125,69.92208862304688 L307.63311767578125,68.40145874023438 L308.0697021484375,66.96922302246094 L308.6115417480469,65.72883605957031 L309.25299072265625,64.75760650634766 L309.9872741699219,64.12886810302734 L310.826416015625,63.85927200317383 L311.8035888671875,63.92963790893555 L312.9798583984375,64.31504821777344 L314.4136962890625,64.96101379394531 L316.075439453125,65.76415252685547 L317.8607177734375,66.59383392333984 L319.65203857421875,67.29151916503906 L321.3160095214844,67.7500228881836 L322.80181884765625,67.88848114013672 L324.1036376953125,67.70865631103516 L325.21990966796875,67.25682830810547 L326.0255126953125,66.76154327392578 L326.50006103515625,66.3841323852539 M340.276123046875,54.03081512451172 L340.3359375,53.289432525634766 L340.2730712890625,52.1388053894043 L339.93646240234375,50.746543884277344 L339.22552490234375,49.43751525878906 L338.1806335449219,48.314453125 L336.8775634765625,47.44817352294922 L335.44366455078125,46.888797760009766 L333.9621276855469,46.738243103027344 L332.4909362792969,47.055763244628906 L331.0851135253906,47.8922004699707 L329.7855224609375,49.26636505126953 L328.59326171875,51.13602828979492 L327.52239990234375,53.44024658203125 L326.54345703125,56.08889389038086 L325.65301513671875,58.970306396484375 L324.8624267578125,61.98468780517578 L324.2410888671875,65.03585052490234 L323.8219909667969,68.0094985961914 L323.6121520996094,70.7977523803711 L323.54034423828125,73.28563690185547 L323.5552978515625,75.3653564453125 L323.600341796875,76.98092651367188 L323.69683837890625,78.1387939453125 L323.8405456542969,78.79051971435547 L324.0122985839844,78.93006896972656 L324.1632080078125,78.59147644042969 L324.26837158203125,78.06158447265625 L324.3128662109375,77.59429931640625 M317.01361083984375,65.1518783569336 L317.077392578125,65.08006286621094 L317.3427734375,64.99158477783203 L317.9355773925781,64.91898345947266 L318.91912841796875,64.91146087646484 L320.2835998535156,64.97350311279297 L321.9930725097656,65.08978271484375 L323.95379638671875,65.2189712524414 L326.1388854980469,65.34722137451172 L328.4571228027344,65.46680450439453 L330.76116943359375,65.59064483642578 L332.5910339355469,65.69950103759766 L333.72845458984375,65.77840423583984 M346.3675842285156,66.81285095214844 L346.3688659667969,66.61314392089844 L346.2206726074219,66.29096984863281 L345.7954406738281,65.90155792236328 L345.0052185058594,65.5634994506836 L343.8532409667969,65.35240936279297 L342.4057312011719,65.32210540771484 L340.7752990722656,65.50965881347656 L339.0552673339844,65.94468688964844 L337.35333251953125,66.60679626464844 L335.8191223144531,67.4697494506836 L334.5999450683594,68.48654174804688 L333.84619140625,69.58561706542969 L333.6814880371094,70.70362854003906 L334.1424255371094,71.75132751464844 L335.19677734375,72.59982299804688 L336.78875732421875,73.15078735351562 L338.792236328125,73.34346771240234 L341.0567626953125,73.16761779785156 L343.394775390625,72.66868591308594 L345.56658935546875,71.89741516113281 L347.3666687011719,70.91104125976562 L348.656005859375,69.76874542236328 L349.3592529296875,68.55791473388672 L349.4959411621094,67.38140869140625 L349.1333312988281,66.34192657470703 L348.35003662109375,65.50440216064453 L347.25885009765625,64.90379333496094 L346.0093688964844,64.56975555419922 L344.7790832519531,64.51512145996094 L343.7377624511719,64.71560668945312 L343.0400085449219,65.01203918457031 L342.68975830078125,65.26507568359375 M355.5924377441406,63.497928619384766 L355.5494689941406,63.57512283325195 L355.46710205078125,63.82417297363281 L355.3492431640625,64.34091186523438 L355.20050048828125,65.17089080810547 L355.0112609863281,66.29058837890625 L354.78753662109375,67.63037109375 L354.53607177734375,69.09339141845703 L354.2881774902344,70.5389175415039 L354.08563232421875,71.83497619628906 L353.94464111328125,72.84841918945312 L353.847900390625,73.47223663330078 L353.8026123046875,73.64114379882812 L353.80230712890625,73.35228729248047 L353.879150390625,72.62761688232422 L354.0401611328125,71.55984497070312 L354.27667236328125,70.26471710205078 L354.55438232421875,68.864013671875 L354.8986511230469,67.47367858886719 L355.3378601074219,66.2045669555664 L355.94012451171875,65.13196563720703 L356.7481689453125,64.329833984375 L357.7851257324219,63.834625244140625 L359.0429992675781,63.6494140625 L360.5229797363281,63.74834442138672 L362.1677551269531,64.07418823242188 L363.9129943847656,64.54206085205078 L365.6554260253906,65.05924987792969 L367.3086853027344,65.5527572631836 L368.78997802734375,65.97883605957031 L370.04644775390625,66.32591247558594 L370.92840576171875,66.56566619873047 L371.4241943359375,66.70262908935547 M371.3096923828125,66.47078704833984 L371.30322265625,66.5013427734375 L371.3079528808594,66.65147399902344 L371.3271789550781,67.01312255859375 L371.32318115234375,67.64926147460938 L371.2578125,68.57862854003906 L371.0916748046875,69.77458190917969 L370.83514404296875,71.16150665283203 L370.5374755859375,72.61336517333984 L370.25860595703125,73.97236633300781 L370.0113220214844,75.06673431396484 L369.8268127441406,75.78361511230469 L369.7025451660156,76.05403900146484 L369.6767578125,75.85872650146484 L369.78411865234375,75.20797729492188 L370.0504150390625,74.1507797241211 L370.4697265625,72.77143859863281 L371.0521240234375,71.19772338867188 L371.770263671875,69.5483169555664 L372.6360168457031,67.94147491455078 L373.6380310058594,66.4766616821289 L374.75921630859375,65.25145721435547 L375.9842529296875,64.36784362792969 L377.29315185546875,63.8999137878418 L378.5920715332031,63.8693733215332 L379.79644775390625,64.2729263305664 L380.8038330078125,65.04845428466797 L381.5331726074219,66.1058349609375 L381.97564697265625,67.35084533691406 L382.15802001953125,68.6585693359375 L382.11151123046875,69.88538360595703 L381.89208984375,70.9098129272461 L381.5594787597656,71.62094116210938 L381.19268798828125,71.95511627197266 L380.88323974609375,71.89341735839844 L380.7059631347656,71.44805908203125 L380.73626708984375,70.65019989013672 L381.0126953125,69.5622329711914 L381.539794921875,68.2799301147461 L382.33209228515625,66.9346694946289 L383.3389587402344,65.64923858642578 L384.488525390625,64.53352355957031 L385.727294921875,63.67146301269531 L387.0049743652344,63.11670684814453 L388.2667236328125,62.89190673828125 L389.51116943359375,63.01861572265625 L390.6557922363281,63.480712890625 L391.64068603515625,64.24368286132812 L392.4081115722656,65.25689697265625 L392.9203186035156,66.43526458740234 L393.1461181640625,67.65660095214844 L393.14959716796875,68.83251953125 L392.98089599609375,69.88274383544922 L392.75872802734375,70.7567367553711 L392.56549072265625,71.42794799804688 L392.44970703125,71.86087799072266 L392.39605712890625,72.07218933105469 M407.5639953613281,66.96849060058594 L407.6303405761719,66.49720764160156 L407.6065979003906,65.77735900878906 L407.3796691894531,64.9541244506836 L406.8387451171875,64.26966094970703 L405.9552001953125,63.82091522216797 L404.74713134765625,63.66310119628906 L403.2610778808594,63.80926513671875 L401.5789794921875,64.27994537353516 L399.86712646484375,65.0895767211914 L398.323486328125,66.20626068115234 L397.12481689453125,67.55879974365234 L396.4314270019531,69.02782440185547 L396.3243408203125,70.45619201660156 L396.8190612792969,71.6591796875 L397.8858642578125,72.51319122314453 L399.4140625,72.90709686279297 L401.22467041015625,72.80846405029297 L403.1268310546875,72.24974060058594 L404.94329833984375,71.3057632446289 L406.51116943359375,70.06422424316406 L407.7408447265625,68.65815734863281 L408.58087158203125,67.21173858642578 L409.03411865234375,65.87574768066406 L409.17877197265625,64.78409576416016 L409.139404296875,64.03227233886719 L408.9874267578125,63.660057067871094 L408.80517578125,63.67803192138672 L408.6380615234375,64.08271026611328 L408.49798583984375,64.84819793701172 L408.45587158203125,65.92505645751953 L408.57257080078125,67.20763397216797 L408.8785400390625,68.57423400878906 L409.39166259765625,69.88288116455078 L410.0655517578125,71.01158142089844 L410.67047119140625,71.80018615722656 L411.0836486816406,72.23157501220703 M417.30731201171875,65.3169174194336 L417.32952880859375,64.9698486328125 L417.34161376953125,64.53634643554688 L417.33349609375,64.19635772705078 L417.28277587890625,64.20022583007812 L417.16790771484375,64.63907623291016 L416.99871826171875,65.53963470458984 L416.7364501953125,66.81830596923828 L416.4296875,68.36561584472656 L416.14031982421875,69.98554992675781 L415.92254638671875,71.46571350097656 L415.7833251953125,72.64733123779297 L415.72625732421875,73.41259002685547 L415.70733642578125,73.69072723388672 L415.7653503417969,73.46324920654297 L415.93719482421875,72.74850463867188 L416.2745056152344,71.5946044921875 L416.7845153808594,70.1192398071289 L417.498046875,68.46402740478516 L418.4017639160156,66.77781677246094 L419.4888916015625,65.172119140625 L420.7301940917969,63.75779724121094 L422.07373046875,62.62104415893555 L423.44970703125,61.842674255371094 L424.82427978515625,61.49775314331055 L426.1202697753906,61.62540054321289 L427.2686767578125,62.20126724243164 L428.20758056640625,63.171043395996094 L428.88226318359375,64.45228576660156 L429.2883605957031,65.94796752929688 L429.47113037109375,67.56018829345703 L429.45611572265625,69.16898345947266 L429.359375,70.64839172363281 L429.3031005859375,71.86422729492188 L429.3945007324219,72.73284912109375 L429.58038330078125,73.23401641845703 L429.78143310546875,73.44701385498047 M442.4180908203125,67.17079162597656 L442.44940185546875,66.67610168457031 L442.39373779296875,65.9004135131836 L442.12481689453125,64.98657989501953 L441.5258483886719,64.17642974853516 L440.563720703125,63.57853317260742 L439.2630615234375,63.24715805053711 L437.74176025390625,63.209022521972656 L436.14544677734375,63.481040954589844 L434.6353759765625,64.06725311279297 L433.3682861328125,64.91649627685547 L432.4758605957031,65.97855377197266 L432.0570983886719,67.16287994384766 L432.184814453125,68.37393188476562 L432.8931884765625,69.50591278076172 L434.171875,70.47367858886719 L435.92230224609375,71.19151306152344 L438.01373291015625,71.63319396972656 L440.28973388671875,71.79888153076172 L442.59039306640625,71.71836853027344 L444.7814636230469,71.39949798583984 L446.7374267578125,70.8870620727539 L448.33245849609375,70.23145294189453 L449.4114990234375,69.63931274414062 L449.9796142578125,69.2373275756836 M451.1186218261719,69.8429183959961 L451.3271789550781,69.93634796142578 L451.77032470703125,70.00325012207031 L452.4933776855469,69.96275329589844 L453.4789733886719,69.71995544433594 L454.6920166015625,69.2846908569336 L456.05450439453125,68.67597198486328 L457.441650390625,67.95398712158203 L458.6921081542969,67.147216796875 L459.65045166015625,66.309814453125 L460.1947937011719,65.48509979248047 L460.2264404296875,64.73109436035156 L459.7254638671875,64.11512756347656 L458.69732666015625,63.71429443359375 L457.2021179199219,63.57038497924805 L455.3840026855469,63.732276916503906 L453.4163818359375,64.21741485595703 L451.4908447265625,64.99726867675781 L449.83734130859375,66.04100799560547 L448.65362548828125,67.28659057617188 L448.13299560546875,68.64408111572266 L448.42364501953125,70.01399230957031 L449.5679931640625,71.29461669921875 L451.51910400390625,72.39091491699219 L454.14874267578125,73.24017333984375 L457.2363586425781,73.8086166381836 L460.54534912109375,74.0955581665039 L463.81805419921875,74.11329650878906 L466.80633544921875,73.90204620361328 L469.30560302734375,73.52681732177734 L471.2051696777344,73.06886291503906 L472.4608154296875,72.59395599365234 L473.1417236328125,72.1560287475586 L473.3821105957031,71.78248596191406 L473.3837890625,71.51692962646484 L473.3053894042969,71.3655776977539 M490.76715087890625,63.80085754394531 L490.66351318359375,63.49729919433594 L490.53765869140625,63.12428283691406 L490.4200439453125,62.83824157714844 L490.3659973144531,62.869075775146484 L490.35552978515625,63.288700103759766 L490.39923095703125,64.13241577148438 L490.48309326171875,65.33613586425781 L490.6219177246094,66.82215118408203 L490.8402404785156,68.42359161376953 L491.202880859375,69.96415710449219 L491.78369140625,71.24267578125 L492.62213134765625,72.0875244140625 L493.73260498046875,72.37187957763672 L495.07525634765625,72.05530548095703 L496.55267333984375,71.16458129882812 L498.0650329589844,69.81288146972656 L499.52508544921875,68.1624984741211 L500.8083190917969,66.39802551269531 L501.87286376953125,64.73663330078125 L502.6773376464844,63.363033294677734 L503.1731872558594,62.39112854003906 L503.3877258300781,61.89168930053711 L503.3766784667969,61.89380645751953 L503.2032470703125,62.41408920288086 L502.9390869140625,63.47123336791992 L502.6324157714844,64.99239349365234 L502.2986755371094,66.80294036865234 L502.0207824707031,68.68421936035156 L501.8759765625,70.38545989990234 L501.9285583496094,71.73162078857422 L502.08807373046875,72.60162353515625 L502.2594299316406,73.03070831298828 M509.1654052734375,64.07384490966797 L509.1710510253906,64.08355712890625 L509.1622314453125,64.23428344726562 L509.1027526855469,64.65686798095703 L508.9370422363281,65.4226303100586 L508.6456298828125,66.515625 L508.26129150390625,67.81700134277344 L507.8689880371094,69.14932250976562 L507.5338134765625,70.31961822509766 L507.3038635253906,71.17521667480469 L507.1911926269531,71.593994140625 L507.2080993652344,71.53488159179688 L507.3808898925781,71.00322723388672 L507.756103515625,70.04935455322266 L508.3354187011719,68.76821899414062 L509.1169128417969,67.28787231445312 L510.08929443359375,65.76454162597656 L511.1998291015625,64.34213256835938 L512.3843994140625,63.164859771728516 L513.562255859375,62.33231735229492 L514.6639404296875,61.905330657958984 L515.6583862304688,61.90443420410156 L516.5521850585938,62.336936950683594 L517.3446044921875,63.16635513305664 L517.9967041015625,64.33248138427734 L518.4635009765625,65.73478698730469 L518.7411499023438,67.24549865722656 L518.853515625,68.72114562988281 L518.889892578125,70.04036712646484 L518.9482421875,71.10700225830078 L519.0796508789062,71.8682861328125 L519.2401123046875,72.31425476074219 L519.3795166015625,72.51329803466797 M528.9170532226562,68.18670654296875 L528.9698486328125,67.73939514160156 L528.9671020507812,66.99332427978516 L528.8283081054688,66.03208923339844 L528.490234375,65.05711364746094 L527.9530029296875,64.1449966430664 L527.232177734375,63.37136459350586 L526.376708984375,62.793861389160156 L525.406494140625,62.464569091796875 L524.365478515625,62.44053649902344 L523.3158569335938,62.76625061035156 L522.3291015625,63.4443244934082 L521.485107421875,64.45818328857422 L520.8837280273438,65.7386474609375 L520.597412109375,67.15033721923828 L520.691162109375,68.53333282470703 L521.2110595703125,69.7169189453125 L522.177734375,70.55892944335938 L523.580322265625,70.9662857055664 L525.3424072265625,70.87971496582031 L527.3297729492188,70.27371215820312 L529.366943359375,69.16083526611328 L531.3108520507812,67.59886169433594 L533.0465698242188,65.66825866699219 L534.5037841796875,63.480926513671875 L535.6461181640625,61.15359878540039 L536.465576171875,58.80711364746094 L536.9656982421875,56.57182693481445 L537.1865234375,54.580745697021484 L537.1744384765625,52.93157196044922 L536.9696044921875,51.70984649658203 L536.66015625,50.96278762817383 L536.313232421875,50.75127029418945 L535.986572265625,51.123146057128906 L535.7176513671875,52.10157012939453 L535.5343627929688,53.64691162109375 L535.4354858398438,55.65480422973633 L535.4591064453125,57.95974349975586 L535.579345703125,60.42412185668945 L535.7383422851562,62.87955856323242 L535.89208984375,65.1894760131836 L536.0086669921875,67.19406127929688 L536.0889282226562,68.7683334350586 L536.1512451171875,69.77973175048828 L536.197265625,70.2860107421875 M540.778076171875,68.18077850341797 L541.1435546875,68.0920181274414 L541.8045654296875,67.88610076904297 L542.745361328125,67.54579162597656 L543.859619140625,67.08554077148438 L545.09912109375,66.53633117675781 L546.3748168945312,65.91317749023438 L547.572998046875,65.22473907470703 L548.570556640625,64.49513244628906 L549.24462890625,63.75984191894531 L549.4896240234375,63.062660217285156 L549.253173828125,62.4742431640625 L548.5142211914062,62.06145477294922 L547.315185546875,61.88372802734375 L545.790283203125,62.00075912475586 L544.1214599609375,62.430442810058594 L542.5115356445312,63.16020584106445 L541.1898193359375,64.16509246826172 L540.3087158203125,65.36890411376953 L540.0045166015625,66.66670227050781 L540.3768920898438,67.94563293457031 L541.4420166015625,69.07716369628906 L543.155517578125,69.96127319335938 L545.388916015625,70.53105926513672 L547.917724609375,70.74162292480469 L550.5040893554688,70.58960723876953 L552.9081420898438,70.11600494384766 L554.9271240234375,69.38434600830078 L556.4400634765625,68.49285888671875 L557.394287109375,67.54701232910156 L557.8533935546875,66.65957641601562 L557.9514770507812,65.9100341796875 L557.8426513671875,65.39151000976562 L557.6773071289062,65.1729965209961 L557.55029296875,65.30297088623047 L557.4970092773438,65.80184173583984 L557.5198974609375,66.6572265625 L557.6234741210938,67.76008605957031 L557.788818359375,68.98185729980469 L558.0037231445312,70.13481140136719 L558.2294921875,71.06371307373047 L558.4306640625,71.6506576538086 L558.54833984375,71.84159088134766 L558.5867919921875,71.60689544677734 L558.544677734375,70.95308685302734 L558.4464111328125,69.90143585205078 L558.3226318359375,68.57172393798828 L558.229736328125,67.09490203857422 L558.214111328125,65.60627746582031 L558.3473510742188,64.20008087158203 L558.6727294921875,62.93318557739258 L559.2291870117188,61.838314056396484 L560.0548095703125,60.96952819824219 L561.1465454101562,60.35327911376953 L562.4842529296875,59.99748611450195 L563.9868774414062,59.8802604675293 L565.61083984375,60.002811431884766 L567.293212890625,60.33184051513672 L568.9804077148438,60.817989349365234 L570.3323974609375,61.281856536865234 L571.1937255859375,61.60580062866211 M588.048095703125,49.88199996948242 L588.1033935546875,50.30947494506836 L588.1361083984375,51.16303634643555 L588.0745239257812,52.49575424194336 L587.8580322265625,54.230384826660156 L587.501953125,56.343421936035156 L587.0281372070312,58.75345993041992 L586.5006103515625,61.3652229309082 L585.970947265625,64.03191375732422 L585.5054931640625,66.58660125732422 L585.1617431640625,68.84315490722656 L584.9813232421875,70.68228149414062 L584.9881591796875,71.98008728027344 L585.1813354492188,72.69107818603516 L585.5281982421875,72.86767578125 L585.8914794921875,72.74544525146484 L586.1630859375,72.54163360595703 M595.8009033203125,66.32076263427734 L595.8986206054688,65.98843383789062 L595.9317016601562,65.45159912109375 L595.757568359375,64.80201721191406 L595.2417602539062,64.23773193359375 L594.32470703125,63.869544982910156 L593.0584716796875,63.78871154785156 L591.5868530273438,64.046630859375 L590.0826416015625,64.65032196044922 L588.77392578125,65.55927276611328 L587.9097900390625,66.70453643798828 L587.6621704101562,67.94926452636719 L588.1283569335938,69.13008880615234 L589.3214721679688,70.09469604492188 L591.1199340820312,70.70641326904297 L593.3194580078125,70.87806701660156 L595.6633911132812,70.58788299560547 L597.8734741210938,69.8564682006836 L599.692138671875,68.76545715332031 L600.9637451171875,67.4395980834961 L601.59912109375,66.02365112304688 L601.6060791015625,64.66131591796875 L601.0777587890625,63.45915985107422 L600.169189453125,62.51417541503906 L599.0697021484375,61.96057891845703 L598.0105590820312,61.86127853393555 L597.16357421875,62.202354431152344 L596.6317138671875,62.71206283569336 L596.3924560546875,63.140708923339844 M611.7998046875,65.44013214111328 L611.5087890625,64.950927734375 L610.9105224609375,64.21776580810547 L609.982177734375,63.408973693847656 L608.81396484375,62.79166030883789 L607.4710693359375,62.44591522216797 L606.0826416015625,62.45160675048828 L604.7534790039062,62.81288146972656 L603.585693359375,63.523963928222656 L602.6800537109375,64.5233383178711 L602.1690063476562,65.69329833984375 L602.1161499023438,66.86311340332031 L602.591064453125,67.89702606201172 L603.5728149414062,68.6587905883789 L604.9639892578125,69.07250213623047 L606.5931396484375,69.10122680664062 L608.3173828125,68.76409912109375 L609.945556640625,68.10810852050781 L611.341552734375,67.21302795410156 L612.39111328125,66.17850494384766 L613.0335693359375,65.14771270751953 L613.304931640625,64.26367950439453 L613.3177490234375,63.64790725708008 L613.20361328125,63.362998962402344 L613.0806884765625,63.41979217529297 L613.0097045898438,63.80874252319336 L613.0145263671875,64.50601959228516 L613.135498046875,65.44137573242188 L613.4569091796875,66.54800415039062 L614.05712890625,67.6997299194336 L614.9313354492188,68.78472137451172 L615.7855224609375,69.60346221923828 L616.39892578125,70.08821105957031 M628.1728515625,65.93920135498047 L628.0446166992188,65.42334747314453 L627.715576171875,64.63459014892578 L627.1065673828125,63.71809005737305 L626.193359375,62.92727279663086 L624.9873046875,62.35765838623047 L623.554443359375,62.092689514160156 L621.9907836914062,62.1671142578125 L620.4244384765625,62.59697723388672 L619.0135498046875,63.350242614746094 L617.9158325195312,64.3345947265625 L617.2955322265625,65.42007446289062 L617.2613525390625,66.431884765625 L617.8653564453125,67.20112609863281 L619.07958984375,67.5572509765625 L620.8065185546875,67.3875961303711 L622.885986328125,66.63568115234375 L625.15576171875,65.30646514892578 L627.422119140625,63.44102096557617 L629.533203125,61.17060852050781 L631.38623046875,58.64280700683594 L632.9371337890625,56.048362731933594 L634.17822265625,53.56166458129883 L635.1044921875,51.34852600097656 L635.7182006835938,49.53407287597656 L636.0379638671875,48.24456787109375 L636.0836181640625,47.54109191894531 L635.9048461914062,47.506935119628906 L635.538330078125,48.1530647277832 L635.0325927734375,49.489681243896484 L634.45849609375,51.440155029296875 L633.9082641601562,53.888763427734375 L633.4439697265625,56.63899612426758 L633.1168212890625,59.521636962890625 L632.9146728515625,62.31373977661133 L632.81982421875,64.84563446044922 L632.8016967773438,66.9435806274414 L632.8544921875,68.5106201171875 L632.9512939453125,69.52542114257812 L633.0781860351562,70.0770034790039 L633.204833984375,70.22714233398438 L633.3133544921875,70.07613372802734 L633.408203125,69.69886779785156 L633.48388671875,69.28578186035156 L633.5321044921875,68.97220611572266 M646.7694091796875,66.69841766357422 L647.3809814453125,66.70282745361328 L648.5606689453125,66.69339752197266 L650.2612915039062,66.65807342529297 L652.2471923828125,66.6014175415039 L654.27978515625,66.54312133789062 L656.1427612304688,66.49322509765625 L657.68994140625,66.47528839111328 L658.7916259765625,66.47682189941406 L659.3788452148438,66.4829330444336 L659.5200805664062,66.49076843261719 L659.408447265625,66.49639129638672 L659.2376098632812,66.496337890625 M676.8650512695312,55.733192443847656 L676.775390625,56.16232681274414 L676.5909423828125,57.06050109863281 L676.3145751953125,58.47891616821289 L675.9720458984375,60.32672882080078 L675.5921630859375,62.495033264160156 L675.1669921875,64.84400939941406 L674.70263671875,67.22860717773438 L674.2280883789062,69.45648193359375 L673.8167724609375,71.31120300292969 L673.5371704101562,72.64498138427734 L673.4067993164062,73.4077377319336 L673.3798828125,73.7203369140625 M673.69677734375,55.65256118774414 L674.0118408203125,55.09370422363281 L674.7200927734375,54.33856964111328 L675.92919921875,53.58644485473633 L677.6385498046875,53.12730026245117 L679.7606201171875,53.00532531738281 L682.0955810546875,53.23454284667969 L684.4068603515625,53.75493621826172 L686.5069580078125,54.54338455200195 L688.2565307617188,55.50506591796875 L689.5858154296875,56.54309844970703 L690.4193725585938,57.58183288574219 L690.6959228515625,58.579124450683594 L690.3880615234375,59.5223274230957 L689.5238037109375,60.41489791870117 L688.1915893554688,61.25507354736328 L686.543212890625,62.04222106933594 L684.7640380859375,62.7728385925293 L683.0514526367188,63.445438385009766 L681.5657958984375,64.06117248535156 L680.415771484375,64.62928771972656 L679.6534423828125,65.15474700927734 L679.307373046875,65.67374420166016 L679.3912353515625,66.22872924804688 L679.90234375,66.87544250488281 L680.7958984375,67.64607238769531 L682.00390625,68.55170440673828 L683.4142456054688,69.54617309570312 L684.9048461914062,70.58393859863281 L686.3597412109375,71.60223388671875 L687.7075805664062,72.54899597167969 L688.896484375,73.35566711425781 L689.9600830078125,73.95292663574219 L690.9320678710938,74.27972412109375 L691.8275146484375,74.33320617675781 L692.5172119140625,74.23042297363281 L692.9459228515625,74.0970458984375 M696.8631591796875,66.48280334472656 L696.8259887695312,66.29098510742188 L696.8099365234375,66.09262084960938 L696.820556640625,66.01628875732422 L696.8610229492188,66.22001647949219 L696.8778076171875,66.74380493164062 L696.866943359375,67.58199310302734 L696.8757934570312,68.67013549804688 L696.990478515625,69.93177795410156 L697.2547607421875,71.2303466796875 L697.71728515625,72.4289779663086 L698.3660278320312,73.39823150634766 L699.1932983398438,74.04173278808594 L700.1888427734375,74.2861557006836 L701.3402099609375,74.11921691894531 L702.5648803710938,73.54534149169922 L703.787841796875,72.6153335571289 L704.9065551757812,71.40568542480469 L705.8375244140625,70.02449035644531 L706.5426025390625,68.58531951904297 L707.03466796875,67.25198364257812 L707.3397216796875,66.15941619873047 L707.509765625,65.38706970214844 L707.602294921875,64.97359466552734 L707.6211547851562,64.92036437988281 L707.576416015625,65.22027587890625 L707.4775390625,65.89568328857422 L707.34814453125,66.9271011352539 L707.2323608398438,68.20205688476562 L707.215087890625,69.56885528564453 L707.345703125,70.84750366210938 L707.6396484375,71.89198303222656 L708.1179809570312,72.59130859375 L708.75390625,72.91504669189453 L709.4859619140625,72.87940979003906 L710.1212158203125,72.67031860351562 L710.5477294921875,72.45283508300781 M712.3162231445312,66.31291198730469 L712.32275390625,66.26627349853516 L712.3193969726562,66.28841400146484 L712.29150390625,66.48052978515625 L712.2459106445312,66.94928741455078 L712.204833984375,67.70951843261719 L712.1739501953125,68.71151733398438 L712.1910400390625,69.84822845458984 L712.25830078125,70.96237182617188 L712.3604736328125,71.91607666015625 L712.4857177734375,72.59432983398438 L712.61328125,72.91826629638672 L712.7236328125,72.83053588867188 L712.8658447265625,72.33004760742188 L713.0908813476562,71.45642852783203 L713.443115234375,70.33485412597656 L713.95849609375,69.0892562866211 L714.6417236328125,67.84849548339844 L715.5028686523438,66.7182388305664 L716.537109375,65.78231048583984 L717.7337646484375,65.10503387451172 L719.0504150390625,64.75261688232422 L720.4368896484375,64.74052429199219 L721.7719116210938,65.04963684082031 L722.9630126953125,65.67046356201172 L723.8809814453125,66.5572509765625 L724.455810546875,67.65724182128906 L724.6912841796875,68.89891815185547 L724.6860961914062,70.1808853149414 L724.53369140625,71.35462188720703 L724.3783569335938,72.3191909790039 L724.277587890625,72.95684051513672 L724.2376708984375,73.27896118164062 M741.85888671875,60.28111267089844 L741.8414306640625,60.200836181640625 L741.7656860351562,60.15624237060547 L741.58544921875,60.233089447021484 L741.260498046875,60.53955078125 L740.810546875,61.12779998779297 L740.3195190429688,61.95391845703125 L739.9237060546875,62.974609375 L739.7868041992188,64.10948944091797 L740.0748291015625,65.23440551757812 L740.9031372070312,66.25945281982422 L742.3358154296875,67.11373138427734 L744.3436279296875,67.71576690673828 L746.79150390625,68.06320190429688 L749.4865112304688,68.18063354492188 L752.2276611328125,68.09127044677734 L754.7890625,67.78221130371094 L756.95361328125,67.24940490722656 L758.555419921875,66.5066909790039 L759.5089111328125,65.7950439453125 L759.91943359375,65.29142761230469 M751.73388671875,61.12091827392578 L751.3338012695312,61.51864242553711 L750.7189331054688,62.297367095947266 L749.9926147460938,63.45842361450195 L749.3267211914062,64.86959838867188 L748.7415161132812,66.42304992675781 L748.2869873046875,67.984375 L747.9906616210938,69.46304321289062 L747.896240234375,70.76417541503906 L748.044677734375,71.8113021850586 L748.2991943359375,72.50715637207031 L748.5263671875,72.87071990966797 " fill="none" stroke="black" stroke-linecap="round" stroke-width="2" /></svg>