<?xml version="1.0" encoding="utf-8" ?>
<svg baseProfile="full" height="100%" version="1.1" viewBox="0,0,1000,120" width="100%" xmlns="http://www.w3.org/2000/svg" xmlns:ev="http://www.w3.org/2001/xml-events" xmlns:xlink="http://www.w3.org/1999/xlink"><defs /><rect fill="white" height="120" width="1000" x="0" y="0" /><path d="M0,0 M322.7636413574219,46.536590576171875 L322.7792053222656,46.53887939453125 L322.7315368652344,46.7080192565918 L322.5632629394531,47.24699020385742 L322.22540283203125,48.34923553466797 L321.75433349609375,50.1157341003418 L321.2025451660156,52.524330139160156 L320.58819580078125,55.433895111083984 L319.9453125,58.641483306884766 L319.281005859375,61.944034576416016 L318.6004943847656,65.14871978759766 L317.96484375,68.09821319580078 L317.4178771972656,70.50677490234375 L317.0118103027344,72.12955474853516 L316.8217468261719,72.83197784423828 L316.79248046875,72.87151336669922 L316.84490966796875,72.61527252197266 M321.92535400390625,47.87019348144531 L321.947021484375,48.02177047729492 L321.92254638671875,48.50025939941406 L321.8634033203125,49.46278381347656 L321.81964111328125,50.942535400390625 L321.92364501953125,52.82207107543945 L322.2720642089844,54.85392379760742 L322.9042663574219,56.782684326171875 L323.7698059082031,58.382781982421875 L324.831787109375,59.510528564453125 L326.0431823730469,60.07817459106445 L327.42803955078125,60.06288146972656 L328.966064453125,59.46047592163086 L330.6228942871094,58.33230209350586 L332.2832336425781,56.764686584472656 L333.82330322265625,54.90261459350586 L335.1264343261719,52.91797637939453 L336.1695556640625,51.007694244384766 L336.94036865234375,49.3421745300293 L337.49664306640625,48.04412078857422 L337.8485107421875,47.14891052246094 L338.0110168457031,46.66834259033203 L337.9915771484375,46.636962890625 L337.8238220214844,47.142982482910156 L337.5246887207031,48.2851448059082 L337.1298828125,50.095149993896484 L336.63385009765625,52.48876190185547 L336.0546875,55.30073547363281 L335.43310546875,58.3571891784668 L334.83013916015625,61.48356628417969 L334.2952880859375,64.50054931640625 L333.85430908203125,67.20893096923828 L333.51727294921875,69.34823608398438 L333.297607421875,70.7212905883789 L333.2164001464844,71.30328369140625 L333.2293701171875,71.34821319580078 L333.2847900390625,71.1701431274414 M340.0482177734375,62.864723205566406 L340.2631530761719,62.880226135253906 L340.62078857421875,62.82823944091797 L341.11572265625,62.64463806152344 L341.7185363769531,62.26593780517578 L342.45025634765625,61.672607421875 L343.2751159667969,60.87443161010742 L344.117919921875,59.902244567871094 L344.860595703125,58.82920837402344 L345.39178466796875,57.76170349121094 L345.6654968261719,56.81953048706055 L345.6470031738281,56.10963821411133 L345.33563232421875,55.718963623046875 L344.7494812011719,55.70335388183594 L343.9455871582031,56.123443603515625 L343.0055236816406,56.99213409423828 L342.06036376953125,58.28668975830078 L341.2130432128906,59.91999435424805 L340.5743103027344,61.76540756225586 L340.22698974609375,63.6630859375 L340.23175048828125,65.44865417480469 L340.58624267578125,66.95652770996094 L341.2700500488281,68.06380462646484 L342.2121887207031,68.68087768554688 L343.3515930175781,68.77632904052734 L344.6485900878906,68.36131286621094 L346.0460205078125,67.47941589355469 L347.45916748046875,66.2107162475586 L348.8279724121094,64.66967010498047 L350.0671081542969,62.96836853027344 L351.1363830566406,61.240142822265625 L352.0306396484375,59.634796142578125 L352.7403564453125,58.291603088378906 L353.2608337402344,57.30410385131836 L353.58099365234375,56.7359733581543 L353.6630859375,56.6148681640625 L353.5280456542969,57.012149810791016 L353.2099609375,58.024269104003906 L352.781005859375,59.67222595214844 L352.31402587890625,61.803470611572266 L351.86053466796875,64.11668395996094 L351.4390869140625,66.22232055664062 L351.0833435058594,67.84062957763672 L350.831298828125,68.85021209716797 L350.7404479980469,69.24676513671875 L350.8387756347656,69.0488510131836 L351.1571044921875,68.25676727294922 L351.6944580078125,66.85556030273438 L352.41424560546875,64.92826080322266 L353.3041076660156,62.682037353515625 L354.339111328125,60.42243576049805 L355.45068359375,58.43021011352539 L356.5820617675781,56.908409118652344 L357.66156005859375,55.922508239746094 L358.61065673828125,55.48402404785156 L359.39080810546875,55.617977142333984 L359.97247314453125,56.38707733154297 L360.32574462890625,57.80604934692383 L360.45867919921875,59.77227020263672 L360.40234375,61.99913024902344 L360.2223815917969,64.12202453613281 L359.97869873046875,65.83332061767578 L359.7301940917969,66.97480010986328 L359.5152893066406,67.52622985839844 L359.3880615234375,67.51001739501953 L359.419677734375,66.93157958984375 L359.69085693359375,65.79009246826172 L360.22259521484375,64.16567993164062 L361.040283203125,62.25662612915039 L362.0914611816406,60.33610534667969 L363.2979736328125,58.65922164916992 L364.5760498046875,57.40903091430664 L365.83404541015625,56.6650505065918 L366.9615783691406,56.43898391723633 L367.92279052734375,56.73344421386719 L368.6591796875,57.540000915527344 L369.133056640625,58.80511474609375 L369.3412170410156,60.424293518066406 L369.29486083984375,62.22560501098633 L369.0433044433594,63.98896026611328 L368.7009582519531,65.5286865234375 L368.37469482421875,66.72889709472656 L368.1583251953125,67.54695129394531 L368.0682373046875,68.00624084472656 L368.0616149902344,68.20111083984375 M382.25421142578125,58.708160400390625 L382.47344970703125,58.34670639038086 L382.64080810546875,57.80841827392578 L382.5835876464844,57.21296691894531 L382.1241760253906,56.750850677490234 L381.2864685058594,56.510345458984375 L380.1664123535156,56.569637298583984 L378.8899841308594,56.96939468383789 L377.56866455078125,57.75949478149414 L376.3250732421875,58.927391052246094 L375.26434326171875,60.406253814697266 L374.4832763671875,62.09220886230469 L374.0840148925781,63.867095947265625 L374.124755859375,65.5956039428711 L374.6171569824219,67.14460754394531 L375.5067443847656,68.36365509033203 L376.691162109375,69.13676452636719 L378.0389709472656,69.36954498291016 L379.43792724609375,69.03289031982422 L380.7890625,68.15754699707031 L382.0059814453125,66.83448791503906 L383.00323486328125,65.19359588623047 L383.72186279296875,63.4073486328125 L384.1430969238281,61.63554763793945 L384.2869567871094,60.02438735961914 L384.243408203125,58.67758560180664 L384.13128662109375,57.64604949951172 L384.0614013671875,56.931312561035156 L384.1357116699219,56.49407196044922 L384.4260559082031,56.262264251708984 L384.95343017578125,56.164241790771484 L385.7286682128906,56.134944915771484 L386.70367431640625,56.138919830322266 L387.80181884765625,56.182960510253906 L388.9100341796875,56.31692886352539 L389.897216796875,56.624515533447266 L390.63470458984375,57.20381164550781 L391.0572509765625,58.12797164916992 L391.14453125,59.418949127197266 L390.9649963378906,61.01766586303711 L390.6170349121094,62.78554153442383 L390.1979064941406,64.5261459350586 L389.76995849609375,66.03744506835938 L389.3826599121094,67.18209075927734 L389.07904052734375,67.89445495605469 L388.90020751953125,68.14178466796875 L388.8971862792969,67.90636444091797 L389.09698486328125,67.16880798339844 L389.4825439453125,65.9322280883789 L390.02362060546875,64.31600952148438 L390.69512939453125,62.522857666015625 L391.4552001953125,60.789493560791016 L392.2796936035156,59.338172912597656 L393.12139892578125,58.297550201416016 L393.9217834472656,57.67489242553711 L394.6456298828125,57.420108795166016 L395.273193359375,57.421260833740234 L395.82696533203125,57.55979537963867 L396.36627197265625,57.729244232177734 L396.93231201171875,57.824424743652344 L397.57122802734375,57.752315521240234 L398.294921875,57.47820281982422 L399.0618591308594,57.00058364868164 L399.80633544921875,56.382354736328125 L400.4664306640625,55.72856521606445 L400.9684143066406,55.13050842285156 L401.2942199707031,54.670127868652344 L401.4349670410156,54.434139251708984 L401.395263671875,54.493316650390625 L401.1772155761719,54.93726348876953 L400.818603515625,55.85128402709961 L400.3829345703125,57.218692779541016 L399.9813232421875,58.93843460083008 L399.70538330078125,60.81175994873047 L399.62310791015625,62.58428192138672 L399.76171875,64.04692840576172 L400.1353759765625,65.08061981201172 L400.75201416015625,65.63024139404297 L401.6134033203125,65.70376586914062 L402.67864990234375,65.32939147949219 L403.880615234375,64.5263671875 L405.1078186035156,63.36395263671875 L406.256103515625,61.952144622802734 L407.2557373046875,60.4539794921875 L408.0622863769531,59.045406341552734 L408.6806640625,57.89101791381836 L409.13824462890625,57.054988861083984 L409.44622802734375,56.56624984741211 L409.6165771484375,56.43457794189453 L409.6764221191406,56.700801849365234 L409.6310729980469,57.436832427978516 L409.53472900390625,58.71506118774414 L409.4197082519531,60.50434875488281 L409.3175354003906,62.70769500732422 L409.2387390136719,65.19686889648438 L409.14227294921875,67.81521606445312 L408.96771240234375,70.42700958251953 L408.67474365234375,72.90947723388672 L408.204345703125,75.13958740234375 L407.5395812988281,77.00916290283203 L406.70306396484375,78.44731140136719 L405.68182373046875,79.37689208984375 L404.520751953125,79.76345825195312 L403.2804870605469,79.63357543945312 L402.029052734375,78.98632049560547 L400.8664855957031,77.90222930908203 L399.90869140625,76.53484344482422 L399.2563781738281,75.3057632446289 L398.9192199707031,74.47571563720703 M424.49053955078125,54.29916763305664 L424.4869384765625,54.380859375 L424.3761291503906,54.68303680419922 L424.1079406738281,55.374263763427734 L423.6971435546875,56.58241653442383 L423.2746887207031,58.33639907836914 L422.95220947265625,60.513648986816406 L422.83038330078125,62.847320556640625 L422.9471435546875,65.00076293945312 L423.2791748046875,66.68900299072266 L423.80926513671875,67.75331115722656 L424.5387268066406,68.17076110839844 L425.47113037109375,67.98258972167969 L426.618408203125,67.23977661132812 L427.9566650390625,66.00786590576172 L429.3665771484375,64.39241027832031 L430.7283630371094,62.55768966674805 L431.9144287109375,60.68701171875 L432.8648376464844,58.95315933227539 L433.5757141113281,57.4937744140625 L434.0809020996094,56.39505386352539 L434.39227294921875,55.69340515136719 L434.5264892578125,55.40589904785156 L434.4834899902344,55.553707122802734 L434.2765808105469,56.174232482910156 L433.9232177734375,57.29886245727539 L433.494384765625,58.901611328125 L433.0635986328125,60.83552551269531 L432.75653076171875,62.87784957885742 L432.685302734375,64.76708984375 L432.8858947753906,66.27523803710938 L433.19598388671875,67.24082946777344 L433.4750671386719,67.7103271484375 M444.49224853515625,55.376853942871094 L444.5076904296875,54.9693603515625 L444.39300537109375,54.41747283935547 L444.03924560546875,53.89738845825195 L443.3919677734375,53.65964126586914 L442.521484375,53.77729034423828 L441.5654602050781,54.25819396972656 L440.7027587890625,55.03102111816406 L440.0785827636719,56.02878952026367 L439.7918701171875,57.1635627746582 L439.9178466796875,58.367469787597656 L440.45233154296875,59.60232162475586 L441.330322265625,60.857295989990234 L442.4259033203125,62.13430404663086 L443.56854248046875,63.424129486083984 L444.57025146484375,64.69474029541016 L445.30792236328125,65.87841033935547 L445.6786804199219,66.89620208740234 L445.646728515625,67.68070983886719 L445.19580078125,68.2067642211914 L444.2969970703125,68.4505844116211 L443.0059814453125,68.42855072021484 L441.46923828125,68.17837524414062 L440.1258544921875,67.86543273925781 L439.24847412109375,67.6129150390625 M455.5040588378906,56.60814666748047 L455.40667724609375,56.3273811340332 L455.12860107421875,55.95761489868164 L454.607177734375,55.654258728027344 L453.84130859375,55.655372619628906 L452.89276123046875,56.0698127746582 L451.84619140625,56.95649719238281 L450.7926330566406,58.28662109375 L449.8130798339844,59.98687744140625 L448.9832763671875,61.90817642211914 L448.36419677734375,63.85758590698242 L448.0072021484375,65.60687255859375 L447.93255615234375,66.9940414428711 L448.15533447265625,67.9159927368164 L448.684814453125,68.3236083984375 L449.5171813964844,68.19256591796875 L450.6092224121094,67.51203918457031 L451.880126953125,66.31580352783203 L453.18402099609375,64.73085021972656 L454.37579345703125,62.96608352661133 L455.3442077636719,61.274566650390625 L456.03887939453125,59.851409912109375 L456.4571533203125,58.81804656982422 L456.6249084472656,58.2413444519043 L456.568359375,58.160858154296875 L456.32421875,58.62986373901367 L455.9439392089844,59.69334030151367 L455.5260009765625,61.2557373046875 L455.1885986328125,63.107872009277344 L455.0279235839844,64.97217559814453 L455.1092529296875,66.59236145019531 L455.44854736328125,67.80120086669922 L456.0179443359375,68.50959014892578 L456.8065185546875,68.65203094482422 L457.8037109375,68.20528411865234 L458.9754638671875,67.20619201660156 L460.2795104980469,65.784423828125 L461.6507568359375,64.11046600341797 L463.0103454589844,62.351871490478516 L464.2967224121094,60.654727935791016 L465.46807861328125,59.141929626464844 L466.485595703125,57.92285919189453 L467.3157043457031,57.07262420654297 L467.92889404296875,56.585166931152344 L468.3154296875,56.39226150512695 L468.4998474121094,56.37892150878906 L468.5511474609375,56.445281982421875 L468.53826904296875,56.53260040283203 L468.4820556640625,56.59257507324219 L468.33697509765625,56.59522247314453 L468.010498046875,56.55113220214844 L467.4198303222656,56.52131652832031 L466.5557556152344,56.62078857421875 L465.48486328125,56.98667526245117 L464.33953857421875,57.69271469116211 L463.268798828125,58.741275787353516 L462.403564453125,60.03740692138672 L461.84564208984375,61.42220687866211 L461.6314697265625,62.70402908325195 L461.7584228515625,63.73722457885742 L462.18548583984375,64.39759826660156 L462.85137939453125,64.6270980834961 L463.69232177734375,64.40141296386719 L464.66143798828125,63.728572845458984 L465.65185546875,62.66975402832031 L466.58612060546875,61.37803649902344 L467.3750305175781,60.031776428222656 L467.96844482421875,58.81513595581055 L468.36309814453125,57.856380462646484 L468.60400390625,57.20423126220703 L468.7040710449219,56.87376403808594 L468.70233154296875,56.90339660644531 L468.62554931640625,57.35866928100586 L468.5072021484375,58.336341857910156 L468.37725830078125,59.873191833496094 L468.25738525390625,61.907318115234375 L468.117919921875,64.2940444946289 L467.89837646484375,66.8453140258789 L467.54339599609375,69.35247802734375 L467.01116943359375,71.6697006225586 L466.2784423828125,73.6710433959961 L465.35693359375,75.25944519042969 L464.2834777832031,76.38027954101562 L463.1295166015625,77.02757263183594 L462.01849365234375,77.19674682617188 L461.0816345214844,76.93101501464844 L460.42889404296875,76.28722381591797 L460.13665771484375,75.31886291503906 L460.256591796875,74.08004760742188 L460.8287658691406,72.65011596679688 L461.8742370605469,71.11266326904297 L463.36761474609375,69.56544494628906 L465.2351379394531,68.08848571777344 L467.36334228515625,66.71133422851562 L469.6279296875,65.40450286865234 L471.90362548828125,64.11573028564453 L474.065673828125,62.80735778808594 L476.00250244140625,61.47438049316406 L477.60357666015625,60.12377166748047 L478.79656982421875,58.785987854003906 L479.52911376953125,57.49662780761719 L479.79736328125,56.30839157104492 L479.63037109375,55.30624771118164 L479.09765625,54.6119384765625 L478.2493896484375,54.330196380615234 L477.1717834472656,54.54789733886719 L475.93389892578125,55.27402114868164 L474.6539306640625,56.44339370727539 L473.4739685058594,57.94121170043945 L472.5394287109375,59.62089157104492 L471.9497375488281,61.324771881103516 L471.7676086425781,62.90564727783203 L471.98114013671875,64.22403717041016 L472.557373046875,65.18895721435547 L473.45916748046875,65.7551498413086 L474.6404113769531,65.89286804199219 L476.04986572265625,65.61644744873047 L477.5897216796875,64.95479583740234 L479.15380859375,63.99342727661133 L480.6433410644531,62.87059783935547 L481.97857666015625,61.732173919677734 L483.0933837890625,60.71381378173828 L483.9438171386719,59.92743682861328 L484.48974609375,59.400108337402344 L484.7608642578125,59.13309860229492 L484.84185791015625,59.069549560546875 L484.8228759765625,59.12638473510742 L484.78204345703125,59.215484619140625 L484.7567138671875,59.2882194519043 M504.4906005859375,54.73820114135742 L504.5564270019531,54.77434158325195 L504.6191101074219,55.00435256958008 L504.6335144042969,55.60755157470703 L504.583984375,56.741973876953125 L504.50244140625,58.449119567871094 L504.426025390625,60.63932418823242 L504.38958740234375,63.109134674072266 L504.38824462890625,65.55732727050781 L504.38067626953125,67.69068908691406 L504.36895751953125,69.28255462646484 L504.38677978515625,70.18846893310547 L504.5048828125,70.34306335449219 L504.8102111816406,69.7686996459961 L505.3576965332031,68.51231384277344 L506.10980224609375,66.7259521484375 L506.975830078125,64.62049865722656 L507.8638610839844,62.41306686401367 L508.7135925292969,60.27939987182617 L509.4912414550781,58.357139587402344 L510.22235107421875,56.740570068359375 L510.91265869140625,55.531715393066406 L511.5382995605469,54.77482604980469 L512.0078735351562,54.41328811645508 L512.2894287109375,54.31119155883789 M521.246826171875,57.150177001953125 L521.312255859375,56.8555908203125 L521.30224609375,56.342384338378906 L521.1224365234375,55.67616271972656 L520.6881103515625,55.04466247558594 L520.000732421875,54.62388610839844 L519.1025390625,54.597354888916016 L518.0631103515625,55.07538604736328 L516.955810546875,56.104679107666016 L515.8837280273438,57.62824249267578 L514.9569702148438,59.541019439697266 L514.27294921875,61.68696594238281 L513.8958740234375,63.880027770996094 L513.845947265625,65.87811279296875 L514.11328125,67.44622039794922 L514.6654052734375,68.37696075439453 L515.44970703125,68.59446716308594 L516.40283203125,68.11328125 L517.4534301757812,67.01516723632812 L518.4982299804688,65.4103775024414 L519.46728515625,63.458072662353516 L520.312744140625,61.370548248291016 L520.9854736328125,59.42734146118164 L521.47265625,57.869964599609375 L521.769287109375,56.839595794677734 L521.850830078125,56.38544464111328 L521.74169921875,56.4993782043457 L521.4705810546875,57.1787109375 L521.0813598632812,58.42241668701172 L520.6697387695312,60.158634185791016 L520.331787109375,62.20901107788086 L520.1287841796875,64.31724548339844 L520.1304321289062,66.23162841796875 L520.38427734375,67.77944946289062 L520.9236450195312,68.87763977050781 L521.7801513671875,69.49688720703125 L522.9560546875,69.60518646240234 L524.393798828125,69.16329956054688 L526.004150390625,68.16796875 L527.6806640625,66.66284942626953 L529.3142700195312,64.74647521972656 L530.82666015625,62.557518005371094 L532.1768798828125,60.21968460083008 L533.34912109375,57.84783172607422 L534.3096313476562,55.55360412597656 L535.025390625,53.44381332397461 L535.466796875,51.63566970825195 L535.6220092773438,50.23214340209961 L535.4830932617188,49.31078338623047 L535.0608520507812,48.93291473388672 L534.3656616210938,49.14942932128906 L533.4501953125,49.99700927734375 L532.3956909179688,51.48427200317383 L531.31689453125,53.53278350830078 L530.3138427734375,56.02145004272461 L529.472412109375,58.776268005371094 L528.8614501953125,61.59421157836914 L528.5269165039062,64.24869537353516 L528.4724731445312,66.52161407470703 L528.6846923828125,68.23725891113281 L529.1569213867188,69.28309631347656 L529.9022827148438,69.6127700805664 L530.9227294921875,69.23421478271484 L532.18505859375,68.19499969482422 L533.5725708007812,66.62516784667969 L534.953369140625,64.75968170166016 L536.2222290039062,62.81605529785156 L537.3201293945312,61.02167892456055 L538.1973266601562,59.53263854980469 L538.8538208007812,58.42282485961914 L539.237548828125,57.73929977416992 L539.3570556640625,57.52758026123047 L539.2141723632812,57.80205535888672 L538.8347778320312,58.61307144165039 L538.2651977539062,59.954551696777344 L537.6446533203125,61.722381591796875 L537.0771484375,63.73227310180664 L536.7146606445312,65.73021697998047 L536.6182861328125,67.47467803955078 L536.8037719726562,68.81527709960938 L537.2466430664062,69.69767761230469 L537.94482421875,70.12211608886719 L538.871337890625,70.11101531982422 L540.0145263671875,69.67222595214844 L541.3167114257812,68.81665802001953 L542.7055053710938,67.59724426269531 L544.119140625,66.12293243408203 L545.5012817382812,64.51335144042969 L546.8189086914062,62.873138427734375 L548.03564453125,61.3123779296875 L549.106201171875,59.9261360168457 L549.96142578125,58.819480895996094 L550.5904541015625,58.0711784362793 L550.9732666015625,57.66716766357422 L551.1424560546875,57.508033752441406 L551.11572265625,57.51386642456055 L550.88623046875,57.63170623779297 L550.4227294921875,57.87385559082031 L549.7437744140625,58.290645599365234 L548.8731689453125,58.893123626708984 L547.9049072265625,59.66102600097656 L546.919189453125,60.599769592285156 L545.9844360351562,61.72538375854492 L545.1669921875,63.037052154541016 L544.5311889648438,64.4887466430664 L544.1304931640625,65.94583129882812 L544.022216796875,67.2306137084961 L544.2251586914062,68.18986511230469 L544.7130737304688,68.72069549560547 L545.4446411132812,68.7641830444336 L546.3781127929688,68.29922485351562 L547.47314453125,67.31417083740234 L548.679443359375,65.82793426513672 L549.9674072265625,63.92026901245117 L551.261962890625,61.69378662109375 L552.4907836914062,59.29605484008789 L553.612060546875,56.903385162353516 L554.5804443359375,54.70819091796875 L555.355712890625,52.886451721191406 L555.9417114257812,51.55281066894531 L556.316650390625,50.72201156616211 L556.4573974609375,50.37928771972656 L556.37548828125,50.527809143066406 L556.0718994140625,51.241455078125 L555.6026611328125,52.59646987915039 L555.0586547851562,54.57069778442383 L554.5157470703125,57.0211181640625 L554.0457763671875,59.70061492919922 L553.720703125,62.331180572509766 L553.55908203125,64.67098236083984 L553.587646484375,66.54716491699219 L553.789794921875,67.87091827392578 L554.1834716796875,68.5533447265625 L554.7926025390625,68.59010314941406 L555.6151123046875,68.05919647216797 L556.3944091796875,67.34225463867188 L556.9576416015625,66.74676513671875 M565.96875,59.532020568847656 L565.9388427734375,59.20265197753906 L565.77978515625,58.69608688354492 L565.4150390625,58.14312744140625 L564.7994384765625,57.75135040283203 L563.9560546875,57.64908218383789 L562.9190673828125,57.91379928588867 L561.74755859375,58.5864372253418 L560.4986572265625,59.66835021972656 L559.263671875,61.13990783691406 L558.1539306640625,62.89142990112305 L557.302978515625,64.7579116821289 L556.7979736328125,66.51066589355469 L556.6806030273438,67.9548568725586 L556.9453125,68.94219970703125 L557.5565185546875,69.41282653808594 L558.469970703125,69.33173370361328 L559.629150390625,68.69647979736328 L560.9302978515625,67.53776550292969 L562.2305908203125,65.96985626220703 L563.4034423828125,64.20693969726562 L564.3349609375,62.517425537109375 L564.98828125,61.12120056152344 L565.3704833984375,60.13435745239258 L565.515625,59.58283233642578 L565.4471435546875,59.44457244873047 L565.20654296875,59.72884750366211 L564.820068359375,60.48854446411133 L564.372314453125,61.73178482055664 L563.97900390625,63.353458404541016 L563.7578125,65.17066955566406 L563.791259765625,66.93006134033203 L564.10498046875,68.38007354736328 L564.6785888671875,69.33570098876953 L565.495849609375,69.66047668457031 L566.5396728515625,69.27955627441406 L567.7762451171875,68.20964813232422 L569.1611328125,66.54432678222656 L570.595458984375,64.42735290527344 L572.0078125,62.03359603881836 L573.3487548828125,59.51789474487305 L574.5828857421875,57.010780334472656 L575.66064453125,54.651737213134766 L576.534912109375,52.61442184448242 L577.14990234375,51.032249450683594 L577.5174560546875,50.00740432739258 L577.671630859375,49.575477600097656 L577.63525390625,49.73530578613281 L577.402099609375,50.51413345336914 L576.9781494140625,51.95454406738281 L576.40673828125,53.993412017822266 L575.7918701171875,56.488040924072266 L575.2197265625,59.206153869628906 L574.7027587890625,61.8842887878418 L574.232421875,64.28308868408203 L573.782470703125,66.23677825927734 L573.3453369140625,67.56243133544922 L572.9610595703125,68.19586181640625 L572.645751953125,68.190673828125 L572.4217529296875,67.8662109375 L572.3013916015625,67.5084457397461 M574.468505859375,54.12200164794922 L574.7398681640625,54.0919303894043 L575.2264404296875,54.08802795410156 L575.919921875,54.13543701171875 L576.76171875,54.23349380493164 L577.745849609375,54.32086181640625 L578.8216552734375,54.36844253540039 L579.90966796875,54.35361862182617 L580.8917236328125,54.293800354003906 L581.6588134765625,54.21696090698242 L582.1641845703125,54.15704345703125 L582.4102783203125,54.17396926879883 L582.40771484375,54.37764358520508 L582.1845703125,54.88263702392578 L581.75244140625,55.80561828613281 L581.169189453125,57.18672180175781 L580.5272216796875,58.97772979736328 L579.9305419921875,61.04856491088867 L579.4705810546875,63.1964111328125 L579.21142578125,65.20632934570312 L579.23974609375,66.84136962890625 L579.6201171875,67.93017578125 L580.3427734375,68.41551208496094 L581.110107421875,68.47908020019531 L581.6915283203125,68.34981536865234 M586.2884521484375,49.36365509033203 L586.2679443359375,49.31061553955078 L586.2755126953125,49.2903938293457 L586.3048095703125,49.304222106933594 L586.349365234375,49.35335922241211 M592.8016357421875,55.55432891845703 L592.5499267578125,55.18157958984375 L592.0787353515625,54.626976013183594 L591.40576171875,54.057456970214844 L590.6253662109375,53.748390197753906 L589.7960205078125,53.850006103515625 L588.969482421875,54.447792053222656 L588.2049560546875,55.520999908447266 L587.5560302734375,57.01025390625 L587.08642578125,58.79029083251953 L586.8419189453125,60.69294738769531 L586.835205078125,62.511959075927734 L587.0654296875,64.07720184326172 L587.52783203125,65.26118469238281 L588.19873046875,65.9937744140625 L589.0574951171875,66.21578216552734 L590.047119140625,65.88458251953125 L591.090087890625,64.96903991699219 L592.1036376953125,63.54022979736328 L592.987060546875,61.75708770751953 L593.67578125,59.86436462402344 L594.157470703125,58.112056732177734 L594.4659423828125,56.6892204284668 L594.6978759765625,55.65864944458008 L594.982666015625,54.99238586425781 L595.411865234375,54.57539749145508 L596.043212890625,54.297401428222656 L596.861083984375,54.08246612548828 L597.7908935546875,53.91379165649414 L598.748291015625,53.80831527709961 L599.6572265625,53.80209732055664 L600.439208984375,53.90709686279297 L601.038818359375,54.160484313964844 L601.3863525390625,54.612979888916016 L601.42138671875,55.34995651245117 L601.1331787109375,56.46112823486328 L600.5606689453125,57.98216247558594 L599.7747802734375,59.82598876953125 L598.9085693359375,61.80240249633789 L598.0767822265625,63.624603271484375 L597.391845703125,65.05677795410156 L596.9239501953125,65.97516632080078 L596.722900390625,66.35653686523438 L596.7999267578125,66.2143783569336 L597.17626953125,65.54378509521484 L597.837646484375,64.31835174560547 L598.766845703125,62.635169982910156 L599.901611328125,60.69834518432617 L601.1978759765625,58.79362106323242 L602.5892333984375,57.172325134277344 L603.9820556640625,55.962947845458984 L605.2723388671875,55.190345764160156 L606.3828125,54.84910202026367 L607.2509765625,54.92396545410156 L607.82421875,55.439239501953125 L608.0751953125,56.4204216003418 L607.9658203125,57.829715728759766 L607.5401611328125,59.56521224975586 L606.9520263671875,61.45732116699219 L606.3956298828125,63.31727600097656 L606.065185546875,64.95211791992188 L606.09765625,66.23251342773438 L606.481201171875,67.0921401977539 L606.9710693359375,67.55204772949219 L607.3719482421875,67.72185516357422 M603.6778564453125,45.06810760498047 L603.6861572265625,45.017921447753906 L603.726318359375,45.0 L603.7813720703125,45.01493453979492 L603.834716796875,45.063331604003906 M621.8428955078125,58.7041130065918 L621.86376953125,58.63704299926758 L621.8983154296875,58.544456481933594 L621.980712890625,58.50387954711914 L622.1610107421875,58.619873046875 L622.5078125,58.99155044555664 L623.0362548828125,59.635292053222656 L623.7178955078125,60.472320556640625 L624.539306640625,61.35768127441406 L625.4656982421875,62.15692901611328 L626.4541015625,62.769622802734375 L627.2841796875,63.15432357788086 L627.8243408203125,63.341468811035156 M644.4229736328125,50.5577278137207 L644.444580078125,50.74372100830078 L644.403564453125,51.225860595703125 L644.2354736328125,52.13410568237305 L643.885009765625,53.517173767089844 L643.3524169921875,55.35720443725586 L642.67578125,57.570960998535156 L641.8638916015625,60.03071594238281 L640.9508056640625,62.56132125854492 L639.97998046875,64.95561218261719 L639.0032958984375,66.9964828491211 L638.089111328125,68.51316833496094 L637.332763671875,69.39618682861328 L636.7686767578125,69.58716583251953 L636.43212890625,69.0735092163086 L636.351806640625,67.87344360351562 L636.536376953125,66.0604476928711 L636.9959716796875,63.8072395324707 L637.738037109375,61.32284164428711 L638.7181396484375,58.78990936279297 L639.8756103515625,56.34178924560547 L641.1710205078125,54.059444427490234 L642.5625,51.99726104736328 L644.0269775390625,50.255104064941406 L645.5361328125,48.94111251831055 L647.0240478515625,48.1292610168457 L648.4183349609375,47.84654235839844 L649.634033203125,48.050636291503906 L650.5877685546875,48.65481948852539 L651.2113037109375,49.55777359008789 L651.44775390625,50.66246795654297 L651.2523193359375,51.872215270996094 L650.6514892578125,53.09914016723633 L649.679443359375,54.23603439331055 L648.447021484375,55.213077545166016 L647.1016845703125,55.959842681884766 L645.8115234375,56.451759338378906 L644.73046875,56.71302795410156 L643.968994140625,56.79515075683594 L643.5321044921875,56.77153015136719 L643.3858642578125,56.7418327331543 L643.4549560546875,56.767677307128906 L643.704833984375,56.91511917114258 L644.1304931640625,57.25222396850586 L644.720947265625,57.835384368896484 L645.44482421875,58.72412872314453 L646.256591796875,59.93121337890625 L647.0760498046875,61.393890380859375 L647.8555908203125,63.011878967285156 L648.563720703125,64.64263153076172 L649.197021484375,66.15335083007812 L649.755615234375,67.44429016113281 L650.2835693359375,68.38221740722656 L650.7896728515625,68.87290954589844 L651.2803955078125,68.90755462646484 L651.669189453125,68.68374633789062 L651.91748046875,68.41474914550781 M655.4052734375,59.18962860107422 L655.3154296875,59.176273345947266 L655.1378173828125,59.28146743774414 L654.844970703125,59.63887405395508 L654.4591064453125,60.37002182006836 L654.01416015625,61.4996223449707 L653.582763671875,62.970237731933594 L653.2406005859375,64.61976623535156 L653.0494384765625,66.23466491699219 L653.02783203125,67.60696411132812 L653.1864013671875,68.59602355957031 L653.5322265625,69.15484619140625 L654.056640625,69.28379821777344 L654.7691650390625,69.0086441040039 L655.6561279296875,68.33177947998047 L656.6942138671875,67.24630737304688 L657.8363037109375,65.79499816894531 L659.0345458984375,64.09647369384766 L660.193359375,62.32601547241211 L661.219970703125,60.74653625488281 L662.029052734375,59.537837982177734 L662.55810546875,58.79789733886719 L662.764404296875,58.540061950683594 L662.6689453125,58.74238586425781 L662.2965087890625,59.418060302734375 L661.7099609375,60.60042953491211 L661.0445556640625,62.20841979980469 L660.447021484375,64.08433532714844 L660.0455322265625,65.9671859741211 L659.939208984375,67.6173324584961 L660.1383056640625,68.89795684814453 L660.62255859375,69.70941162109375 L661.3583984375,69.99911499023438 L662.2869873046875,69.74407958984375 L663.336669921875,68.92766571044922 L664.440673828125,67.6286849975586 L665.52685546875,66.00685119628906 L666.576416015625,64.22710418701172 L667.575927734375,62.48862075805664 L668.5030517578125,60.96397018432617 L669.312255859375,59.7618293762207 L669.9578857421875,58.967002868652344 L670.3828125,58.63764953613281 L670.5595703125,58.79226303100586 L670.49169921875,59.456153869628906 L670.1988525390625,60.63190460205078 L669.7078857421875,62.215335845947266 L669.0911865234375,64.0049057006836 L668.4410400390625,65.72836303710938 L667.84912109375,67.1383285522461 L667.3936767578125,68.088623046875 L667.119384765625,68.53704833984375 L667.0203857421875,68.48304748535156 L667.104736328125,67.91741943359375 L667.4111328125,66.82853698730469 L667.9661865234375,65.29702758789062 L668.7650146484375,63.511322021484375 L669.7760009765625,61.717857360839844 L670.8909912109375,60.158843994140625 L672.0103759765625,58.9842643737793 L673.0540771484375,58.236995697021484 L673.9425048828125,57.89277648925781 L674.6416015625,57.9246711730957 L675.1458740234375,58.30143356323242 L675.4315185546875,59.001747131347656 L675.526123046875,60.00736999511719 L675.4578857421875,61.2442741394043 L675.2720947265625,62.60686111450195 L675.0628662109375,63.98549270629883 L674.907470703125,65.26728820800781 L674.8358154296875,66.35752868652344 L674.858642578125,67.21062469482422 L674.9503173828125,67.7701187133789 L675.102294921875,68.01972198486328 L675.343994140625,67.9676284790039 L675.6978759765625,67.64807891845703 L676.1693115234375,67.10707092285156 L676.7303466796875,66.41549682617188 L677.361572265625,65.61494445800781 L678.04443359375,64.74134826660156 L678.7913818359375,63.806976318359375 L679.6033935546875,62.82731246948242 L680.4754638671875,61.81053924560547 L681.379150390625,60.82246017456055 L682.3040771484375,59.93441390991211 L683.2008056640625,59.241981506347656 L684.007080078125,58.782615661621094 L684.6484375,58.54730987548828 L685.0665283203125,58.47007751464844 L685.269775390625,58.50703430175781 L685.2991943359375,58.63282012939453 L685.246826171875,58.785648345947266 L685.1829833984375,58.912376403808594 M700.9119873046875,52.23577117919922 L700.91845703125,52.17466354370117 L700.9112548828125,52.11510467529297 L700.833984375,52.08943176269531 L700.615478515625,52.143733978271484 L700.1690673828125,52.28684997558594 L699.490234375,52.560062408447266 L698.5906982421875,53.00634002685547 L697.5445556640625,53.678627014160156 L696.4111328125,54.591888427734375 L695.262451171875,55.72911834716797 L694.144775390625,57.02030944824219 L693.1339111328125,58.39213180541992 L692.2763671875,59.76765823364258 L691.6378173828125,61.08378219604492 L691.2545166015625,62.288246154785156 L691.1480712890625,63.32349395751953 L691.31884765625,64.12710571289062 L691.7669677734375,64.64344787597656 L692.4638671875,64.84616088867188 L693.3980712890625,64.7374038696289 L694.5302734375,64.3436508178711 L695.7952880859375,63.7021484375 L697.1165771484375,62.87779235839844 L698.4326171875,61.95895004272461 L699.6630859375,61.048545837402344 L700.7822265625,60.24567413330078 L701.7545166015625,59.5904541015625 L702.575439453125,59.09749221801758 L703.2445068359375,58.73762130737305 L703.7882080078125,58.489261627197266 L704.2138671875,58.3233757019043 L704.53857421875,58.2074089050293 L704.7386474609375,58.08930969238281 L704.8330078125,57.96045684814453 L704.849365234375,57.81562423706055 L704.8209228515625,57.68083572387695 L704.7666015625,57.578285217285156 L704.6466064453125,57.49495315551758 L704.3734130859375,57.416893005371094 L703.898193359375,57.35471725463867 L703.23388671875,57.354000091552734 L702.416259765625,57.4608268737793 L701.5157470703125,57.735050201416016 L700.593505859375,58.17893981933594 L699.6904296875,58.76515197753906 L698.8349609375,59.41942596435547 L698.0946044921875,60.07985305786133 L697.487548828125,60.67335891723633 L697.0208740234375,61.18817901611328 L696.71044921875,61.6148567199707 L696.5828857421875,61.97105407714844 L696.6258544921875,62.242095947265625 L696.873291015625,62.42686080932617 L697.3294677734375,62.54469299316406 L697.9642333984375,62.636253356933594 L698.7449951171875,62.75394058227539 L699.662841796875,62.97709655761719 L700.6416015625,63.32719039916992 L701.6497802734375,63.8120231628418 L702.6669921875,64.44476318359375 L703.647705078125,65.20028686523438 L704.558349609375,66.07159423828125 L705.3782958984375,67.06185913085938 L706.0435791015625,68.12437438964844 L706.5130615234375,69.20706176757812 L706.750244140625,70.26074981689453 L706.7242431640625,71.20874786376953 L706.414306640625,72.01506805419922 L705.783203125,72.6561050415039 L704.7935791015625,73.09672546386719 L703.4305419921875,73.31111145019531 L701.73974609375,73.29956817626953 L699.8438720703125,73.05387115478516 L697.90380859375,72.62496948242188 L696.0499267578125,72.07786560058594 L694.3765869140625,71.39460754394531 L692.8924560546875,70.4973373413086 L691.7896728515625,69.64323425292969 L691.12646484375,68.9930648803711 " fill="none" stroke="black" stroke-linecap="round" stroke-width="2" /></svg>