<?xml version="1.0" encoding="utf-8" ?>
<svg baseProfile="full" height="100%" version="1.1" viewBox="0,0,1000,120" width="100%" xmlns="http://www.w3.org/2000/svg" xmlns:ev="http://www.w3.org/2001/xml-events" xmlns:xlink="http://www.w3.org/1999/xlink"><defs /><rect fill="white" height="120" width="1000" x="0" y="0" /><path d="M0,0 M257.2211608886719,54.05896759033203 L257.2452392578125,54.115291595458984 L257.3238220214844,54.36054229736328 L257.44244384765625,54.93639373779297 L257.5389404296875,55.9372444152832 L257.52764892578125,57.38152313232422 L257.36639404296875,59.239601135253906 L257.0882263183594,61.42914581298828 L256.79736328125,63.85063552856445 L256.58709716796875,66.39802551269531 L256.48651123046875,68.94165802001953 L256.446533203125,71.36390686035156 L256.4043273925781,73.55828857421875 L256.31298828125,75.41255187988281 L256.1759033203125,76.82907104492188 L256.05023193359375,77.79254150390625 L255.971435546875,78.25979614257812 L255.9365234375,78.25526428222656 L255.9265594482422,77.84269714355469 L255.9196319580078,77.30459594726562 L255.9045867919922,76.85198211669922 M249.3509063720703,50.59187316894531 L249.5872039794922,49.90440368652344 L250.24966430664062,48.83701705932617 L251.477294921875,47.57899475097656 L253.2884063720703,46.46470642089844 L255.57591247558594,45.619911193847656 L258.20989990234375,45.124603271484375 L261.0292053222656,45.0 L263.9068908691406,45.28050994873047 L266.6733703613281,45.97798156738281 L269.1204528808594,47.04271697998047 L271.03326416015625,48.38673782348633 L272.2612609863281,49.86711120605469 L272.710693359375,51.3620491027832 L272.3622131347656,52.76113510131836 L271.2637939453125,54.00762176513672 L269.4981384277344,55.05184555053711 L267.2145080566406,55.856834411621094 L264.6451110839844,56.376041412353516 L262.0559387207031,56.63874435424805 L259.66912841796875,56.666202545166016 L257.66015625,56.523590087890625 L256.1205749511719,56.281494140625 L255.1324920654297,56.050025939941406 L254.63726806640625,55.88373565673828 M272.423583984375,67.05734252929688 L272.9979553222656,66.86082458496094 L273.98284912109375,66.52806091308594 L275.29248046875,66.05619049072266 L276.6634216308594,65.50133514404297 L277.944091796875,64.87361145019531 L278.96954345703125,64.21437072753906 L279.66015625,63.56867599487305 L279.9615173339844,62.97817611694336 L279.88958740234375,62.45269775390625 L279.45196533203125,62.02484130859375 L278.6633605957031,61.72404098510742 L277.5473327636719,61.605552673339844 L276.1496276855469,61.7120361328125 L274.5601501464844,62.060401916503906 L272.91510009765625,62.63390350341797 L271.31561279296875,63.410526275634766 L269.8515625,64.35302734375 L268.60626220703125,65.43142700195312 L267.619873046875,66.61009979248047 L266.95745849609375,67.8572998046875 L266.6642761230469,69.1163330078125 L266.7390441894531,70.3193130493164 L267.1727294921875,71.41899108886719 L267.9443664550781,72.37019348144531 L269.0238342285156,73.14765167236328 L270.4314880371094,73.74945831298828 L272.17431640625,74.15642547607422 L274.2126770019531,74.33595275878906 L276.4704284667969,74.31842803955078 L278.8031921386719,74.12296295166016 L281.0278015136719,73.7790756225586 L283.03125,73.3013916015625 L284.7309875488281,72.7117919921875 L286.0901794433594,72.04413604736328 L287.0155029296875,71.48165130615234 L287.5216369628906,71.1205825805664 M289.2254943847656,64.36405944824219 L289.2181701660156,64.369140625 L289.2120361328125,64.5121841430664 L289.1930847167969,64.9178466796875 L289.151123046875,65.6700668334961 L289.06719970703125,66.73206329345703 L288.9459228515625,68.008544921875 L288.85516357421875,69.40998840332031 L288.79766845703125,70.82825469970703 L288.77215576171875,72.1716079711914 L288.7655334472656,73.33895111083984 L288.7740173339844,74.23155975341797 L288.79241943359375,74.8088150024414 L288.83709716796875,75.07383728027344 L288.8478088378906,75.01481628417969 L288.80682373046875,74.6083984375 L288.7000732421875,73.835205078125 L288.5852966308594,72.7382583618164 L288.5130310058594,71.44636535644531 L288.5229187011719,70.07122039794922 L288.6039733886719,68.71699523925781 L288.7835998535156,67.43566131591797 L289.044677734375,66.24861907958984 L289.40728759765625,65.1935043334961 L289.8766174316406,64.32138061523438 L290.4812927246094,63.639339447021484 L291.2552795410156,63.182891845703125 L292.2364196777344,62.95195770263672 L293.4114990234375,62.920936584472656 L294.7410888671875,63.048484802246094 L296.17999267578125,63.29410934448242 L297.67608642578125,63.590240478515625 L299.20556640625,63.877681732177734 L300.6766052246094,64.09516143798828 L302.0015869140625,64.20130920410156 L302.9676208496094,64.21269226074219 L303.52142333984375,64.18380737304688 M320.8458251953125,57.5186882019043 L320.7799987792969,57.08332061767578 L320.5736083984375,56.39796447753906 L320.14520263671875,55.576786041259766 L319.4737548828125,54.82715606689453 L318.549072265625,54.20143508911133 L317.4269104003906,53.76054763793945 L316.16339111328125,53.52322006225586 L314.8074645996094,53.54018020629883 L313.4007568359375,53.86640930175781 L312.0266418457031,54.55857467651367 L310.73876953125,55.61576461791992 L309.61016845703125,57.01042175292969 L308.712158203125,58.671897888183594 L308.06402587890625,60.52858352661133 L307.6545715332031,62.507057189941406 L307.46954345703125,64.57482147216797 L307.4769592285156,66.68750762939453 L307.63250732421875,68.79473876953125 L307.9295654296875,70.83517456054688 L308.35455322265625,72.74771881103516 L308.891845703125,74.46095275878906 L309.5062255859375,75.91290283203125 L310.1465148925781,77.08865356445312 L310.7381591796875,77.95401763916016 L311.22052001953125,78.48858642578125 L311.5731201171875,78.70858001708984 L311.78656005859375,78.72203063964844 L311.8839111328125,78.63748168945312 M301.4079284667969,66.82254028320312 L301.571533203125,66.8587646484375 L302.0222473144531,66.90435028076172 L302.89447021484375,66.95855712890625 L304.25250244140625,66.997802734375 L306.04547119140625,67.0154037475586 L308.1564025878906,67.00637817382812 L310.4254150390625,66.98324584960938 L312.7452087402344,66.94326782226562 L314.989501953125,66.90950012207031 L317.0416259765625,66.8734359741211 L318.56646728515625,66.84191131591797 L319.4576721191406,66.81689453125 M327.7910461425781,65.94660949707031 L327.64654541015625,65.9479751586914 L327.36346435546875,65.99388885498047 L326.90960693359375,66.14881134033203 L326.29144287109375,66.47566223144531 L325.4935607910156,67.01714324951172 L324.5350341796875,67.78148651123047 L323.4830322265625,68.73928833007812 L322.47705078125,69.826416015625 L321.6542053222656,70.98648071289062 L321.14874267578125,72.14480590820312 L321.052978515625,73.23690795898438 L321.3582763671875,74.17042541503906 L322.0689697265625,74.87056732177734 L323.1866455078125,75.26446533203125 L324.6616516113281,75.30912780761719 L326.4196472167969,74.9952163696289 L328.3475341796875,74.35831451416016 L330.23095703125,73.43289184570312 L331.90533447265625,72.30856323242188 L333.2259216308594,71.06982421875 L334.0940246582031,69.7866439819336 L334.466064453125,68.53746795654297 L334.36968994140625,67.38101196289062 L333.83184814453125,66.3519515991211 L332.9083557128906,65.4839096069336 L331.6841125488281,64.80428314208984 L330.2637634277344,64.34381103515625 L328.74530029296875,64.15261840820312 L327.2737121582031,64.25819396972656 L325.96527099609375,64.65385437011719 L324.9034118652344,65.26484680175781 L324.2870178222656,66.00605010986328 L324.243896484375,66.77599334716797 L324.7803039550781,67.49148559570312 L325.5379943847656,68.0235595703125 L326.1846008300781,68.33565521240234 M340.9559326171875,66.60067749023438 L341.0126037597656,66.6672592163086 L341.09136962890625,66.88002014160156 L341.16375732421875,67.32842254638672 L341.1979675292969,68.05406188964844 L341.1722106933594,69.06053924560547 L341.05999755859375,70.29558563232422 L340.858642578125,71.66650390625 L340.60589599609375,73.07261657714844 L340.32867431640625,74.403076171875 L340.08837890625,75.53621673583984 L339.9168395996094,76.39968872070312 L339.8167419433594,76.96880340576172 L339.76824951171875,77.25678253173828 L339.77099609375,77.27603149414062 L339.7921142578125,77.00163269042969 L339.8524169921875,76.37725067138672 L339.9515380859375,75.38054656982422 L340.09326171875,74.08421325683594 L340.28167724609375,72.63111114501953 L340.5339660644531,71.1502456665039 L340.87310791015625,69.72734069824219 L341.3724060058594,68.412109375 L342.04571533203125,67.23824310302734 L342.91131591796875,66.25151824951172 L343.98699951171875,65.52075958251953 L345.253173828125,65.0781478881836 L346.68115234375,64.92952728271484 L348.2375793457031,65.0572738647461 L349.8172302246094,65.4020004272461 L351.3201904296875,65.87517547607422 L352.6852111816406,66.40971374511719 L353.84527587890625,66.93473052978516 L354.7698059082031,67.40459442138672 L355.45013427734375,67.77618408203125 L355.86572265625,68.01505279541016 L356.0576477050781,68.12770080566406 M360.495849609375,66.408203125 L360.49029541015625,66.39844512939453 L360.5181884765625,66.43496704101562 L360.6049499511719,66.59424591064453 L360.73681640625,66.95925903320312 L360.849365234375,67.606689453125 L360.8818054199219,68.53907775878906 L360.7868347167969,69.7257080078125 L360.605224609375,71.08441925048828 L360.41162109375,72.51001739501953 L360.2591552734375,73.8792495727539 L360.174560546875,75.07958984375 L360.1553039550781,76.01585388183594 L360.1571044921875,76.65838623046875 L360.1962890625,77.007080078125 L360.2628479003906,77.05583953857422 L360.33660888671875,76.77056121826172 L360.4407958984375,76.10920715332031 L360.5893249511719,75.06718444824219 L360.7781982421875,73.722900390625 L361.05816650390625,72.1997299194336 L361.40948486328125,70.59888458251953 L361.8258056640625,69.010009765625 L362.3380126953125,67.51531982421875 L362.99261474609375,66.18482208251953 L363.81201171875,65.09867095947266 L364.8212890625,64.32730102539062 L365.9565734863281,63.91091537475586 L367.1526184082031,63.889835357666016 L368.303466796875,64.27700805664062 L369.3468322753906,65.04766082763672 L370.216796875,66.1495132446289 L370.87738037109375,67.49153137207031 L371.30560302734375,68.9632339477539 L371.5267028808594,70.44068145751953 L371.56243896484375,71.78300476074219 L371.48724365234375,72.88684844970703 L371.340087890625,73.6783218383789 L371.15081787109375,74.1176528930664 L370.9398193359375,74.19609069824219 L370.7467041015625,73.90823364257812 L370.62811279296875,73.24930572509766 L370.69403076171875,72.26811218261719 L371.01776123046875,71.02322387695312 L371.6607666015625,69.61970520019531 L372.6239013671875,68.1751937866211 L373.86663818359375,66.78544616699219 L375.296142578125,65.53697967529297 L376.8302001953125,64.50640869140625 L378.36529541015625,63.72838592529297 L379.8390808105469,63.25484848022461 L381.208984375,63.124610900878906 L382.43463134765625,63.345157623291016 L383.46380615234375,63.93016052246094 L384.2642517089844,64.8526840209961 L384.80657958984375,66.03913116455078 L385.1070251464844,67.4239501953125 L385.236083984375,68.91134643554688 L385.2417297363281,70.39360046386719 L385.188232421875,71.79988861083984 L385.1740417480469,73.059814453125 L385.27001953125,74.10902404785156 L385.5207214355469,74.92356872558594 L385.82861328125,75.4500961303711 L386.076904296875,75.71179962158203 M396.916748046875,65.88583374023438 L396.6946716308594,65.6293716430664 L396.2840576171875,65.22500610351562 L395.6953430175781,64.76317596435547 L394.97662353515625,64.40191650390625 L394.16009521484375,64.2471694946289 L393.27386474609375,64.38163757324219 L392.3129577636719,64.83606719970703 L391.344482421875,65.6272964477539 L390.44415283203125,66.74259948730469 L389.6767578125,68.1054458618164 L389.11236572265625,69.61604309082031 L388.8321533203125,71.15499114990234 L388.84246826171875,72.5948257446289 L389.176025390625,73.82174682617188 L389.81842041015625,74.75128936767578 L390.72991943359375,75.2939224243164 L391.8233642578125,75.39453125 L393.0618591308594,75.04158782958984 L394.339111328125,74.26034545898438 L395.59283447265625,73.11125183105469 L396.7640686035156,71.70449829101562 L397.8059387207031,70.15544891357422 L398.65423583984375,68.57511901855469 L399.2962951660156,67.07661437988281 L399.7016296386719,65.76142120361328 L399.9153747558594,64.71146392822266 L399.99896240234375,63.99189376831055 L400.00677490234375,63.63393783569336 L399.97161865234375,63.62537384033203 L399.91583251953125,63.966251373291016 L399.834716796875,64.66050720214844 L399.75775146484375,65.6953353881836 L399.715087890625,67.01577758789062 L399.7214660644531,68.52371978759766 L399.7943115234375,70.09812927246094 L399.93212890625,71.63453674316406 L400.115966796875,73.05292510986328 L400.3482666015625,74.29052734375 L400.6597900390625,75.29469299316406 L401.0881652832031,75.98493957519531 L401.6544494628906,76.3294677734375 L402.3149108886719,76.33860778808594 L402.8861083984375,76.17218780517578 L403.2561340332031,75.9832534790039 M408.951904296875,64.74713897705078 L408.966796875,64.72188568115234 L408.98443603515625,64.7879867553711 L408.98193359375,65.05741882324219 L408.9267578125,65.63628387451172 L408.7967529296875,66.55000305175781 L408.6048583984375,67.75296020507812 L408.3758544921875,69.12683868408203 L408.1724853515625,70.57157897949219 L408.0205993652344,71.95854949951172 L407.91650390625,73.16493225097656 L407.8339538574219,74.09434509277344 L407.75714111328125,74.6840591430664 L407.69940185546875,74.88903045654297 L407.7215576171875,74.70860290527344 L407.8771667480469,74.14114379882812 L408.1929931640625,73.19805908203125 L408.65093994140625,71.95094299316406 L409.2295837402344,70.49930572509766 L409.9059143066406,68.95222473144531 L410.6759948730469,67.40504455566406 L411.5655517578125,65.9493408203125 L412.56927490234375,64.66513061523438 L413.6470947265625,63.64167404174805 L414.75164794921875,62.9363899230957 L415.8087463378906,62.588172912597656 L416.7451171875,62.594120025634766 L417.5433349609375,62.94446563720703 L418.1995849609375,63.62037658691406 L418.7213134765625,64.58467102050781 L419.1387634277344,65.7603759765625 L419.47247314453125,67.0728988647461 L419.7346496582031,68.43801879882812 L419.95599365234375,69.7790298461914 L420.1785888671875,71.05644989013672 L420.39886474609375,72.21588134765625 L420.6256103515625,73.2032699584961 L420.8416748046875,73.98284149169922 L421.0525817871094,74.546875 L421.2605285644531,74.90574645996094 L421.4947509765625,75.10635375976562 L421.7254638671875,75.17456817626953 L421.93310546875,75.15095520019531 L422.0740661621094,75.0887222290039 L422.14898681640625,75.03275299072266 M436.52520751953125,66.15562438964844 L436.37615966796875,65.9140853881836 L436.08770751953125,65.55696868896484 L435.62945556640625,65.16620635986328 L435.0062255859375,64.87992858886719 L434.2013854980469,64.74365997314453 L433.23712158203125,64.78492736816406 L432.1964111328125,65.00524139404297 L431.17510986328125,65.4186019897461 L430.24774169921875,66.04275512695312 L429.4608154296875,66.87723541259766 L428.8309020996094,67.9012222290039 L428.4006042480469,69.07456970214844 L428.24969482421875,70.33172607421875 L428.4411926269531,71.59439086914062 L429.0330810546875,72.7962417602539 L430.038330078125,73.84571838378906 L431.4323425292969,74.67047119140625 L433.17340087890625,75.2272720336914 L435.1677551269531,75.50495147705078 L437.3518371582031,75.46753692626953 L439.61566162109375,75.13206481933594 L441.806396484375,74.54000854492188 L443.50750732421875,73.93144989013672 L444.54266357421875,73.4842529296875 M448.618896484375,71.22953796386719 L448.7901611328125,71.34088897705078 L449.1461181640625,71.49481964111328 L449.721435546875,71.6286849975586 L450.5082702636719,71.6681137084961 L451.4871826171875,71.5836410522461 L452.56787109375,71.34774780273438 L453.6861572265625,70.95404052734375 L454.713623046875,70.40161895751953 L455.5562744140625,69.684326171875 L456.13922119140625,68.8508071899414 L456.43975830078125,67.9715805053711 L456.40472412109375,67.11459350585938 L456.0517578125,66.34639739990234 L455.36895751953125,65.72692108154297 L454.4056396484375,65.28254699707031 L453.21002197265625,65.052001953125 L451.8788757324219,65.0684585571289 L450.4471435546875,65.34584045410156 L449.0081787109375,65.89216613769531 L447.61224365234375,66.69451141357422 L446.3746337890625,67.71207427978516 L445.41278076171875,68.889892578125 L444.81024169921875,70.166259765625 L444.58709716796875,71.47367095947266 L444.763427734375,72.76342010498047 L445.28472900390625,73.97399139404297 L446.1556701660156,75.04524993896484 L447.3986511230469,75.9280014038086 L448.9914855957031,76.57933044433594 L450.90985107421875,76.99517822265625 L453.05206298828125,77.22000885009766 L455.29534912109375,77.27752685546875 L457.4891357421875,77.20222473144531 L459.48431396484375,77.02685546875 L460.9517822265625,76.8304672241211 L461.80755615234375,76.67724609375 M481.2555236816406,65.8481216430664 L481.1896667480469,65.95584106445312 L481.05487060546875,66.25617980957031 L480.8468017578125,66.83207702636719 L480.60260009765625,67.70076751708984 L480.37811279296875,68.81150817871094 L480.2429504394531,70.0835189819336 L480.2686767578125,71.43630981445312 L480.492919921875,72.78157806396484 L480.9372253417969,74.03623962402344 L481.6047668457031,75.10123443603516 L482.4955139160156,75.87879180908203 L483.6316833496094,76.30198669433594 L484.99560546875,76.31621551513672 L486.5484619140625,75.90769958496094 L488.23724365234375,75.09253692626953 L489.94927978515625,73.91136169433594 L491.5756530761719,72.45459747314453 L493.0240478515625,70.84636688232422 L494.1932678222656,69.21094512939453 L495.0505676269531,67.69263458251953 L495.63153076171875,66.40773010253906 L495.9734802246094,65.41082763671875 L496.1559753417969,64.7159194946289 L496.2296447753906,64.31580352783203 L496.23980712890625,64.21725463867188 L496.1977233886719,64.4559555053711 L496.13238525390625,65.08045959472656 L496.03729248046875,66.08501434326172 L495.940185546875,67.40856170654297 L495.8431091308594,68.94678497314453 L495.77545166015625,70.57606506347656 L495.7423095703125,72.1664047241211 L495.7674255371094,73.6089096069336 L495.8543701171875,74.81417083740234 L496.0049743652344,75.76256561279297 L496.2096252441406,76.42542266845703 L496.4523010253906,76.78367614746094 L496.7312927246094,76.83627319335938 L496.9756164550781,76.7114028930664 L497.1468200683594,76.53477478027344 M503.1336364746094,65.8929214477539 L503.1329040527344,65.8389892578125 L503.11968994140625,65.8703842163086 L503.08984375,66.09207153320312 L503.0509338378906,66.60671997070312 L503.0070495605469,67.40647888183594 L502.93707275390625,68.44574737548828 L502.8235168457031,69.64552307128906 L502.6676330566406,70.91389465332031 L502.4956970214844,72.14878845214844 L502.3551025390625,73.24679565429688 L502.2730712890625,74.11622619628906 L502.26092529296875,74.70874786376953 L502.284423828125,75.0003662109375 L502.3177795410156,74.99705505371094 L502.3355712890625,74.68743896484375 L502.3464660644531,74.04843139648438 L502.3784484863281,73.10140228271484 L502.4823913574219,71.93097686767578 L502.6678161621094,70.63803100585938 L502.966552734375,69.33712005615234 L503.384521484375,68.08248138427734 L503.9409484863281,66.90785217285156 L504.6394348144531,65.86317443847656 L505.4615173339844,65.00812530517578 L506.3909606933594,64.40141296386719 L507.4253234863281,64.0828628540039 L508.5397033691406,64.0569076538086 L509.6900634765625,64.3119888305664 L510.799560546875,64.83981323242188 L511.73712158203125,65.60694885253906 L512.4404296875,66.5931396484375 L512.8697509765625,67.76275634765625 L513.03515625,69.07039642333984 L512.9979248046875,70.44927978515625 L512.8502197265625,71.82965087890625 L512.6507568359375,73.11333465576172 L512.4814453125,74.202392578125 L512.3644409179688,75.02960205078125 L512.304443359375,75.57013702392578 L512.3403930664062,75.79487609863281 L512.50048828125,75.73342895507812 L512.8004150390625,75.43162536621094 L513.1298828125,75.06492614746094 L513.385498046875,74.77466583251953 M523.2593994140625,67.83883666992188 L523.1749267578125,67.63619995117188 L522.984130859375,67.33857727050781 L522.6405029296875,67.01830291748047 L522.1231689453125,66.79415893554688 L521.416259765625,66.72049713134766 L520.524658203125,66.84639739990234 L519.4971923828125,67.1983871459961 L518.4107666015625,67.8031997680664 L517.3768310546875,68.65731811523438 L516.515380859375,69.73434448242188 L515.9432373046875,70.9742202758789 L515.7467041015625,72.30181121826172 L515.94580078125,73.61544036865234 L516.5315551757812,74.8127670288086 L517.4631958007812,75.78925323486328 L518.6536865234375,76.47016906738281 L520.0428466796875,76.79476165771484 L521.548583984375,76.7325210571289 L523.0477294921875,76.24738311767578 L524.46044921875,75.33203125 L525.7163696289062,74.01079559326172 L526.7608642578125,72.35282135009766 L527.6257934570312,70.45144653320312 L528.3505249023438,68.41231536865234 L528.9632568359375,66.29019927978516 L529.5091552734375,64.1328353881836 L530.0026245117188,61.99482345581055 L530.4256591796875,59.94386291503906 L530.7723388671875,58.08277130126953 L531.0231323242188,56.53204345703125 L531.1746826171875,55.36623001098633 L531.2506103515625,54.62759780883789 L531.2596435546875,54.32881164550781 L531.2096557617188,54.46259307861328 L531.109619140625,55.04397201538086 L530.94580078125,56.096290588378906 L530.7384643554688,57.60219955444336 L530.532470703125,59.4833869934082 L530.38623046875,61.620147705078125 L530.349853515625,63.857566833496094 L530.476806640625,66.0562973022461 L530.7496337890625,68.12088775634766 L531.1387939453125,69.97319793701172 L531.5984497070312,71.55431365966797 L532.0851440429688,72.82678985595703 L532.52734375,73.7695083618164 L532.8577270507812,74.3529281616211 L533.0433349609375,74.63829803466797 M534.8154296875,73.37106323242188 L535.161376953125,73.18428802490234 L535.8123779296875,72.82308197021484 L536.75634765625,72.28994750976562 L537.8673095703125,71.62867736816406 L539.08837890625,70.87040710449219 L540.3364868164062,70.05240631103516 L541.5281982421875,69.18897247314453 L542.573486328125,68.3145523071289 L543.354736328125,67.46907806396484 L543.7698364257812,66.67481231689453 L543.8006591796875,65.98424530029297 L543.42724609375,65.45426940917969 L542.6793823242188,65.1505355834961 L541.605224609375,65.14037322998047 L540.2711791992188,65.4546890258789 L538.77734375,66.08435821533203 L537.282470703125,66.9962158203125 L535.9385986328125,68.1225357055664 L534.88720703125,69.39639282226562 L534.22705078125,70.74739074707031 L534.0064086914062,72.08341217041016 L534.232666015625,73.33793640136719 L534.8963012695312,74.42662048339844 L535.9744873046875,75.27810668945312 L537.3967895507812,75.83265686035156 L539.0960083007812,76.06611633300781 L540.9612426757812,75.95397186279297 L542.8876953125,75.5295639038086 L544.757080078125,74.82019805908203 L546.4808349609375,73.88636779785156 L547.9590454101562,72.78791046142578 L549.1500244140625,71.6113510131836 L550.012939453125,70.44959259033203 L550.564453125,69.42790985107422 L550.8391723632812,68.6307373046875 L550.9354248046875,68.1008071899414 L550.93505859375,67.84642028808594 L550.8951416015625,67.86338806152344 L550.8294677734375,68.1776123046875 L550.7518310546875,68.84636688232422 L550.6483154296875,69.86662292480469 L550.5625,71.14818572998047 L550.52880859375,72.5411148071289 L550.54150390625,73.8294677734375 L550.5869140625,74.8578109741211 L550.6369018554688,75.54550170898438 L550.6383056640625,75.86569213867188 L550.5630493164062,75.81245422363281 L550.4287719726562,75.39024353027344 L550.2560424804688,74.5716323852539 L550.1160888671875,73.42098236083984 L550.0863037109375,72.03429412841797 L550.2381591796875,70.53141021728516 L550.594482421875,69.02638244628906 L551.1798706054688,67.61566162109375 L551.9613037109375,66.3623046875 L552.91796875,65.35942840576172 L554.0507202148438,64.65253448486328 L555.353271484375,64.2574234008789 L556.802734375,64.16251373291016 L558.329833984375,64.32730102539062 L559.8387451171875,64.67700958251953 L561.247802734375,65.14679718017578 L562.5538330078125,65.64036560058594 L563.7282104492188,66.07742309570312 L564.7735595703125,66.39056396484375 L565.5439453125,66.56513214111328 L565.99365234375,66.62361145019531 M585.90966796875,50.83051300048828 L585.8543701171875,50.838768005371094 L585.7846069335938,50.92707061767578 L585.7005615234375,51.19588088989258 L585.58056640625,51.737945556640625 L585.37060546875,52.626155853271484 L585.0667724609375,53.8494758605957 L584.6915283203125,55.37109375 L584.3115234375,57.17572784423828 L583.9954833984375,59.24481201171875 L583.7493896484375,61.53770446777344 L583.544677734375,63.99884796142578 L583.3867797851562,66.51888275146484 L583.2880249023438,68.95314025878906 L583.2841186523438,71.18245697021484 L583.437744140625,73.0793685913086 L583.7540283203125,74.55364227294922 L584.226318359375,75.58600616455078 L584.8414306640625,76.1832046508789 L585.5771484375,76.373779296875 L586.4405517578125,76.15267944335938 L587.423828125,75.53585052490234 L588.4769287109375,74.60106658935547 L589.3636474609375,73.69818115234375 L589.9398803710938,73.05879211425781 M598.8814697265625,64.4894027709961 L598.3193969726562,64.37776184082031 L597.3828125,64.31993103027344 L596.1588745117188,64.45526885986328 L594.8655395507812,64.92738342285156 L593.5784301757812,65.76512145996094 L592.37109375,66.92207336425781 L591.2933349609375,68.2811279296875 L590.4904174804688,69.74901580810547 L590.08837890625,71.20189666748047 L590.1863403320312,72.52635955810547 L590.8231201171875,73.62034606933594 L591.9376220703125,74.39317321777344 L593.4200439453125,74.78240966796875 L595.1495361328125,74.78611755371094 L596.977294921875,74.41191101074219 L598.7672119140625,73.69453430175781 L600.4017333984375,72.69454193115234 L601.7706909179688,71.486572265625 L602.8233642578125,70.16969299316406 L603.518798828125,68.83927917480469 L603.8358154296875,67.58385467529297 L603.786865234375,66.44731140136719 L603.3927612304688,65.46159362792969 L602.7376708984375,64.67247772216797 L601.9193115234375,64.13394165039062 L601.018310546875,63.86213302612305 L600.1177978515625,63.85450744628906 L599.3499755859375,64.06119537353516 L598.82373046875,64.40721130371094 L598.6411743164062,64.83547973632812 L598.7005615234375,65.21560668945312 L598.852783203125,65.46796417236328 M612.650390625,65.60627746582031 L612.2869873046875,65.41551208496094 L611.6273193359375,65.19725036621094 L610.6611938476562,65.098876953125 L609.47021484375,65.27593231201172 L608.1295166015625,65.79551696777344 L606.75732421875,66.65451049804688 L605.48828125,67.78321838378906 L604.4734497070312,69.09418487548828 L603.8074951171875,70.48600006103516 L603.519775390625,71.80464172363281 L603.6455078125,72.94795989990234 L604.1519165039062,73.8233642578125 L605.0286865234375,74.37117767333984 L606.2421875,74.54843139648438 L607.7235717773438,74.33028411865234 L609.375244140625,73.70281982421875 L611.0796508789062,72.72671508789062 L612.6781005859375,71.49564361572266 L614.0718994140625,70.14163970947266 L615.1632080078125,68.79981231689453 L615.8975830078125,67.5944595336914 L616.3052978515625,66.62488555908203 L616.445556640625,65.96505737304688 L616.400390625,65.62271881103516 L616.2650146484375,65.60591888427734 L616.0726318359375,65.9107894897461 L615.849853515625,66.5513687133789 L615.6456298828125,67.51945495605469 L615.4854736328125,68.76715850830078 L615.4201049804688,70.16304779052734 L615.4951171875,71.5868148803711 L615.7570190429688,72.91246032714844 L616.2203979492188,74.05950927734375 L616.872314453125,74.9771499633789 L617.4859008789062,75.59403991699219 L617.91845703125,75.91573333740234 M630.60498046875,68.24943542480469 L630.427734375,67.9999008178711 L630.057861328125,67.6375503540039 L629.4481201171875,67.25641632080078 L628.6044921875,67.01531982421875 L627.527099609375,66.99260711669922 L626.28125,67.26044464111328 L624.9638061523438,67.8250503540039 L623.7093505859375,68.66754913330078 L622.66064453125,69.72402954101562 L621.9357299804688,70.91162872314453 L621.6114501953125,72.13309478759766 L621.736083984375,73.28580474853516 L622.3060302734375,74.25041198730469 L623.28759765625,74.90740203857422 L624.6076049804688,75.1750717163086 L626.1661987304688,75.01443481445312 L627.859130859375,74.41046142578125 L629.569580078125,73.38237762451172 L631.1912841796875,71.9786148071289 L632.655029296875,70.24971008300781 L633.910888671875,68.29131317138672 L634.947265625,66.20863342285156 L635.7716064453125,64.09783172607422 L636.4111328125,62.07138442993164 L636.8961181640625,60.229984283447266 L637.2496337890625,58.670509338378906 L637.5021362304688,57.47067642211914 L637.6689453125,56.68132019042969 L637.7382202148438,56.31547546386719 L637.7284545898438,56.39968490600586 L637.662109375,56.94607162475586 L637.5596923828125,58.004756927490234 L637.4613037109375,59.54597473144531 L637.4111328125,61.49830627441406 L637.4158935546875,63.712791442871094 L637.4946899414062,66.0407485961914 L637.696533203125,68.33380889892578 L638.0323486328125,70.49213409423828 L638.490966796875,72.39533996582031 L639.10400390625,73.94898986816406 L639.8345947265625,75.06846618652344 L640.6329345703125,75.74360656738281 L641.3187866210938,76.05392456054688 L641.7698364257812,76.13822937011719 M660.2661743164062,70.06504821777344 L660.1834716796875,70.02071380615234 L660.1136474609375,69.98077392578125 L660.1480712890625,69.96356201171875 L660.3837890625,69.98251342773438 L660.8970336914062,70.01634216308594 L661.7362060546875,70.04341125488281 L662.9288330078125,70.05125427246094 L664.4471435546875,70.01921081542969 L666.2403564453125,69.93616485595703 L668.130859375,69.80811309814453 L669.916015625,69.6727523803711 L671.3807983398438,69.568115234375 L672.39599609375,69.52679443359375 L672.9293212890625,69.5217514038086 L673.1281127929688,69.53108215332031 L673.1439208984375,69.5336685180664 M687.5,57.93349838256836 L687.5462646484375,57.89714050292969 L687.5848388671875,57.91273498535156 L687.5869140625,58.1203498840332 L687.5263671875,58.692901611328125 L687.37939453125,59.76106643676758 L687.125732421875,61.31916427612305 L686.7491455078125,63.2672004699707 L686.2806396484375,65.45597076416016 L685.7796630859375,67.73564147949219 L685.3389892578125,69.98295593261719 L684.9866943359375,72.08625793457031 L684.727294921875,73.90473937988281 L684.549560546875,75.31744384765625 L684.4451293945312,76.24673461914062 L684.3917236328125,76.72358703613281 L684.3822021484375,76.88301849365234 M682.788330078125,56.338035583496094 L683.165771484375,55.83053207397461 L683.9354248046875,55.10670852661133 L685.1668701171875,54.32949447631836 L686.7960815429688,53.759647369384766 L688.7402954101562,53.442901611328125 L690.852294921875,53.406150817871094 L692.9722290039062,53.62176513671875 L694.97119140625,54.07572555541992 L696.771728515625,54.700035095214844 L698.301025390625,55.44286346435547 L699.4906005859375,56.23891067504883 L700.2340698242188,57.06068420410156 L700.46240234375,57.89813995361328 L700.134765625,58.7193603515625 L699.2682495117188,59.479461669921875 L697.917724609375,60.16580581665039 L696.1798095703125,60.7587890625 L694.1932983398438,61.26835632324219 L692.1519775390625,61.719032287597656 L690.2069091796875,62.10722732543945 L688.4993896484375,62.41111755371094 L687.1226806640625,62.628807067871094 L686.1220092773438,62.77451705932617 L685.5186767578125,62.87997817993164 L685.3035888671875,63.00849151611328 L685.4129638671875,63.22185134887695 L685.8013916015625,63.554176330566406 L686.4398803710938,64.03032684326172 L687.322021484375,64.67047882080078 L688.4285888671875,65.45235443115234 L689.72314453125,66.36125946044922 L691.1456909179688,67.37638854980469 L692.6346435546875,68.46147918701172 L694.1441650390625,69.58897399902344 L695.6217041015625,70.72007751464844 L697.008544921875,71.80563354492188 L698.2586059570312,72.80979919433594 L699.3359375,73.70529174804688 L700.1951293945312,74.46118927001953 L700.8302001953125,75.0710678100586 L701.2327880859375,75.50667572021484 L701.430419921875,75.77526092529297 L701.4942016601562,75.90543365478516 L701.4964599609375,75.94784545898438 M704.579345703125,65.89423370361328 L704.5924072265625,65.99142456054688 L704.5988159179688,66.24796295166016 L704.5968627929688,66.75017547607422 L704.579833984375,67.54035186767578 L704.5701904296875,68.60806274414062 L704.615234375,69.90414428710938 L704.781005859375,71.34027099609375 L705.08154296875,72.77677154541016 L705.5399169921875,74.08900451660156 L706.1421508789062,75.16023254394531 L706.8943481445312,75.89730834960938 L707.802001953125,76.24800109863281 L708.8758544921875,76.18842315673828 L710.0462646484375,75.70211791992188 L711.241455078125,74.82526397705078 L712.3843383789062,73.64358520507812 L713.418701171875,72.27840423583984 L714.28369140625,70.8384780883789 L714.9553833007812,69.4245376586914 L715.38525390625,68.11707305908203 L715.5933837890625,67.00244140625 L715.6513671875,66.1546401977539 L715.6226806640625,65.61336517333984 L715.556884765625,65.3849105834961 L715.486328125,65.46117401123047 L715.4093017578125,65.85477447509766 L715.3600463867188,66.5862808227539 L715.3497924804688,67.6231689453125 L715.3873901367188,68.87200927734375 L715.4979248046875,70.24090576171875 L715.71435546875,71.60227966308594 L716.051513671875,72.86559295654297 L716.4991455078125,73.95098114013672 L716.98193359375,74.78302764892578 L717.4287109375,75.33455657958984 L717.783447265625,75.62972259521484 L718.0399169921875,75.69776153564453 L718.2100830078125,75.59701538085938 L718.3089599609375,75.43768310546875 L718.3548583984375,75.29655456542969 M721.4907836914062,66.00424194335938 L721.6043701171875,66.04863739013672 L721.7945556640625,66.2095718383789 L722.013671875,66.56510925292969 L722.1759643554688,67.16510009765625 L722.2164306640625,68.00830841064453 L722.1007080078125,69.05782318115234 L721.85546875,70.24612426757812 L721.5350341796875,71.47941589355469 L721.2251586914062,72.66641235351562 L720.98095703125,73.69837951660156 L720.8179931640625,74.49068450927734 L720.7158813476562,74.9931640625 L720.65234375,75.16949462890625 L720.620849609375,75.00862884521484 L720.6594848632812,74.51563262939453 L720.794189453125,73.70879364013672 L721.0404663085938,72.65332794189453 L721.4197998046875,71.45693969726562 L721.921630859375,70.2016830444336 L722.5596923828125,68.9493179321289 L723.3355712890625,67.75003051757812 L724.244384765625,66.6537857055664 L725.253662109375,65.72023010253906 L726.3771362304688,65.03107452392578 L727.5535278320312,64.63284301757812 L728.766357421875,64.5374984741211 L729.9564819335938,64.75282287597656 L731.060791015625,65.26549530029297 L731.98486328125,66.04361724853516 L732.7211303710938,67.04763793945312 L733.246337890625,68.22877502441406 L733.6181030273438,69.51480102539062 L733.8775634765625,70.82086944580078 L734.0628051757812,72.08213806152344 L734.1649169921875,73.23643493652344 L734.2200927734375,74.21815490722656 L734.24462890625,74.99182891845703 L734.2667846679688,75.51770782470703 L734.2904663085938,75.79638671875 L734.313720703125,75.89862060546875 M774.6077880859375,58.84585952758789 L774.4893798828125,58.39988708496094 L774.1971435546875,57.69565200805664 L773.67431640625,56.82909393310547 L772.9013671875,55.994625091552734 L771.8822021484375,55.24747085571289 L770.59912109375,54.628910064697266 L769.0711669921875,54.12118911743164 L767.36328125,53.76175308227539 L765.532958984375,53.569339752197266 L763.6480712890625,53.60743713378906 L761.75830078125,53.93095016479492 L759.903076171875,54.592315673828125 L758.184326171875,55.58818054199219 L756.746337890625,56.884498596191406 L755.7435302734375,58.38902282714844 L755.2916259765625,59.99684524536133 L755.4525146484375,61.57175064086914 L756.2376708984375,62.99120330810547 L757.5946044921875,64.1555404663086 L759.408203125,64.99604797363281 L761.560791015625,65.47288513183594 L763.8389892578125,65.55786895751953 L766.0545654296875,65.25896453857422 L768.0787353515625,64.61837768554688 L769.76806640625,63.69524002075195 L771.029296875,62.559757232666016 L771.8492431640625,61.29875564575195 L772.2005615234375,59.98942184448242 L772.1395263671875,58.74159240722656 L771.791015625,57.66622543334961 L771.2489013671875,56.82896423339844 L770.62158203125,56.26499938964844 L769.99169921875,56.004058837890625 L769.37353515625,56.05891418457031 L768.800048828125,56.45881652832031 L768.308837890625,57.23695373535156 L767.962646484375,58.380489349365234 L767.8240966796875,59.84725570678711 L767.9378662109375,61.57036590576172 L768.2813720703125,63.458274841308594 L768.821533203125,65.41697692871094 L769.50634765625,67.39007568359375 L770.3297119140625,69.3134536743164 L771.251220703125,71.14629364013672 L772.2423095703125,72.85829162597656 L773.2012939453125,74.42564392089844 L774.0169677734375,75.82586669921875 L774.586181640625,77.05345153808594 L774.8692626953125,78.08792877197266 L774.9317626953125,78.8204345703125 L774.8929443359375,79.23474884033203 " fill="none" stroke="black" stroke-linecap="round" stroke-width="2" /></svg>