<?xml version="1.0" encoding="utf-8" ?>
<svg baseProfile="full" height="100%" version="1.1" viewBox="0,0,1000,120" width="100%" xmlns="http://www.w3.org/2000/svg" xmlns:ev="http://www.w3.org/2001/xml-events" xmlns:xlink="http://www.w3.org/1999/xlink"><defs /><rect fill="white" height="120" width="1000" x="0" y="0" /><path d="M0,0 M297.3996276855469,48.02001190185547 L297.26556396484375,48.120338439941406 L297.0931396484375,48.428470611572266 L296.919189453125,49.03147888183594 L296.7744445800781,49.97355651855469 L296.6163024902344,51.24251174926758 L296.3757019042969,52.81863021850586 L296.0293884277344,54.670536041259766 L295.629150390625,56.72840118408203 L295.2346496582031,58.870361328125 L294.89544677734375,60.966156005859375 L294.64208984375,62.888206481933594 L294.4472351074219,64.51046752929688 L294.274169921875,65.72954559326172 L294.0986633300781,66.47755432128906 L293.94580078125,66.8127670288086 L293.83502197265625,66.8814697265625 M288.28271484375,45.34376907348633 L288.29840087890625,45.24361038208008 L288.474609375,45.119667053222656 L288.94366455078125,45.02051544189453 L289.8462219238281,45.0 L291.23614501953125,45.04824447631836 L293.0857849121094,45.13039016723633 L295.2936096191406,45.20246505737305 L297.769287109375,45.275962829589844 L300.31103515625,45.38724899291992 L302.73553466796875,45.5701904296875 L304.5903625488281,45.77104187011719 L305.69256591796875,45.93372344970703 M306.12078857421875,61.61726760864258 L306.4590148925781,61.63534927368164 L307.1733703613281,61.52708435058594 L308.2957458496094,61.18172836303711 L309.6899108886719,60.53171920776367 L311.167236328125,59.631282806396484 L312.5368347167969,58.585113525390625 L313.6439208984375,57.51466369628906 L314.3894958496094,56.50244903564453 L314.7436218261719,55.600746154785156 L314.6711120605469,54.858314514160156 L314.1480712890625,54.34666442871094 L313.1684875488281,54.16780471801758 L311.72515869140625,54.41078567504883 L309.88018798828125,55.116783142089844 L307.79766845703125,56.23627471923828 L305.68853759765625,57.6557502746582 L303.8037109375,59.22743606567383 L302.3926696777344,60.83032989501953 L301.59991455078125,62.36627960205078 L301.61834716796875,63.75129318237305 L302.4798583984375,64.88716888427734 L304.0494384765625,65.6939697265625 L305.6611328125,66.14899444580078 L306.8424987792969,66.32686614990234 M323.36700439453125,56.36425018310547 L323.0780029296875,56.067623138427734 L322.4916687011719,55.719459533691406 L321.559326171875,55.48472595214844 L320.341796875,55.56971740722656 L318.9281005859375,55.98070526123047 L317.48828125,56.67802429199219 L316.2305908203125,57.555213928222656 L315.41552734375,58.537139892578125 L315.23150634765625,59.53013610839844 L315.77386474609375,60.469688415527344 L316.9990539550781,61.28586196899414 L318.763671875,61.972984313964844 L320.83941650390625,62.554073333740234 L322.99395751953125,63.089359283447266 L324.99090576171875,63.612972259521484 L326.6323547363281,64.1441879272461 L327.756103515625,64.66773986816406 L328.2583312988281,65.171630859375 L328.060302734375,65.6470947265625 L327.1703186035156,66.10401153564453 L325.6513977050781,66.535888671875 L323.6459655761719,66.92427062988281 L321.36077880859375,67.2420654296875 L319.05767822265625,67.41039276123047 L317.013427734375,67.37950897216797 L315.4664306640625,67.1480712890625 L314.53167724609375,66.85181427001953 L314.1226806640625,66.60912322998047 M333.8107604980469,47.24537658691406 L333.830078125,47.264381408691406 L333.86285400390625,47.4705810546875 L333.876708984375,48.01630783081055 L333.83197021484375,49.00674057006836 L333.7062683105469,50.41069030761719 L333.4989013671875,52.13159942626953 L333.2420654296875,54.051048278808594 L332.9828796386719,56.0728645324707 L332.727783203125,58.12055969238281 L332.4825439453125,60.1305046081543 L332.26055908203125,62.02322769165039 L332.0841369628906,63.699424743652344 L331.990234375,65.05396270751953 L331.996337890625,66.0263442993164 L332.05426025390625,66.59220886230469 L332.1172180175781,66.8348617553711 M330.29913330078125,57.01036834716797 L330.483642578125,56.77204895019531 L330.9503173828125,56.43787384033203 L331.80767822265625,56.09558868408203 L333.0723571777344,55.871803283691406 L334.6896057128906,55.76871109008789 L336.54620361328125,55.77025604248047 L338.46575927734375,55.833560943603516 L340.24774169921875,55.92483901977539 L341.7298278808594,56.025821685791016 L342.81500244140625,56.14906311035156 L343.5099182128906,56.30940246582031 L343.88006591796875,56.550228118896484 L344.0195007324219,56.929222106933594 L343.9862060546875,57.495208740234375 L343.80584716796875,58.281002044677734 L343.5087890625,59.30710220336914 L343.13134765625,60.5372200012207 L342.7015380859375,61.90006637573242 L342.28192138671875,63.28921890258789 L341.9198913574219,64.55135345458984 L341.6397705078125,65.5382080078125 L341.47320556640625,66.17354583740234 L341.4049072265625,66.47947692871094 L341.39166259765625,66.56462097167969 M344.0153503417969,49.940635681152344 L344.0466613769531,49.885406494140625 L344.1109619140625,49.83741760253906 L344.18402099609375,49.80988311767578 L344.2415771484375,49.816017150878906 M347.86358642578125,56.54607391357422 L347.9349365234375,56.92487335205078 L348.0318603515625,57.636199951171875 L348.11309814453125,58.67049789428711 L348.1212463378906,59.9160041809082 L348.0204162597656,61.28908920288086 L347.8266296386719,62.6929931640625 L347.5744323730469,64.0185546875 L347.3324279785156,65.1362533569336 L347.16387939453125,65.9615707397461 L347.0964660644531,66.45085906982422 L347.12420654296875,66.56977081298828 L347.23974609375,66.2846450805664 L347.46875,65.56314086914062 L347.86785888671875,64.41682434082031 L348.4903869628906,62.970157623291016 L349.35687255859375,61.38180160522461 L350.4592590332031,59.805519104003906 L351.74932861328125,58.36764144897461 L353.1717529296875,57.168941497802734 L354.656005859375,56.307559967041016 L356.088623046875,55.88766860961914 L357.37042236328125,55.968990325927734 L358.4083557128906,56.548065185546875 L359.1176452636719,57.56867218017578 L359.44781494140625,58.932769775390625 L359.41693115234375,60.511661529541016 L359.09576416015625,62.15645980834961 L358.6728210449219,63.70325469970703 L358.3409729003906,64.98553466796875 L358.2220153808594,65.89290618896484 L358.2684631347656,66.40420532226562 L358.3803405761719,66.60660552978516 M367.2890930175781,61.2426643371582 L367.4261169433594,60.7996826171875 L367.565673828125,60.157901763916016 L367.58526611328125,59.459529876708984 L367.326171875,58.92436981201172 L366.72076416015625,58.6168327331543 L365.78973388671875,58.58713150024414 L364.65966796875,58.84981155395508 L363.50360107421875,59.44252014160156 L362.5071105957031,60.32038497924805 L361.8212890625,61.37746047973633 L361.5263671875,62.46327590942383 L361.6397705078125,63.43035125732422 L362.16632080078125,64.1507568359375 L363.0581970214844,64.54216766357422 L364.2442626953125,64.53992462158203 L365.6353759765625,64.14569091796875 L367.1002502441406,63.403297424316406 L368.49688720703125,62.418678283691406 L369.731201171875,61.32677459716797 L370.7087097167969,60.27059555053711 L371.3913269042969,59.3621711730957 L371.796142578125,58.67538833618164 L371.97711181640625,58.23192596435547 L372.01800537109375,58.04524612426758 L372.00811767578125,58.13825607299805 L371.9775390625,58.555850982666016 L371.9495849609375,59.336570739746094 L371.9388732910156,60.4638671875 L371.95794677734375,61.8671875 L372.02789306640625,63.46891784667969 L372.1488342285156,65.20634460449219 L372.2865295410156,67.0336685180664 L372.4090881347656,68.90137481689453 L372.4775390625,70.74845123291016 L372.4413757324219,72.4962158203125 L372.2584228515625,74.076904296875 L371.8838806152344,75.43643188476562 L371.2691650390625,76.53199768066406 L370.39154052734375,77.31975555419922 L369.2642822265625,77.78585815429688 L367.9273681640625,77.92852020263672 L366.4374084472656,77.75584411621094 L364.8925476074219,77.30914306640625 L363.371826171875,76.63414764404297 L361.9625549316406,75.76030731201172 L360.73583984375,74.72228240966797 L359.7457275390625,73.5676040649414 L359.0069885253906,72.32111358642578 L358.5419006347656,71.0782699584961 L358.315673828125,69.9344711303711 L358.25408935546875,69.08280944824219 L358.2686767578125,68.5880355834961 M395.3841552734375,57.95090103149414 L394.95611572265625,57.970924377441406 L394.140625,58.12568283081055 L392.945068359375,58.52463150024414 L391.5194091796875,59.23198699951172 L390.0025634765625,60.23335266113281 L388.5806884765625,61.46416091918945 L387.4134521484375,62.82386779785156 L386.64544677734375,64.20941162109375 L386.3840026855469,65.53248596191406 L386.6582336425781,66.6886978149414 L387.42510986328125,67.59381103515625 L388.6893310546875,68.1305923461914 L390.3619384765625,68.24317169189453 L392.286376953125,67.94831848144531 L393.95147705078125,67.50309753417969 L395.0489501953125,67.12077331542969 M404.30816650390625,58.4988899230957 L403.969970703125,58.36981201171875 L403.3828125,58.271305084228516 L402.543701171875,58.332420349121094 L401.51617431640625,58.701904296875 L400.3247985839844,59.43326187133789 L399.04913330078125,60.509212493896484 L397.83306884765625,61.85200500488281 L396.895263671875,63.33677291870117 L396.40924072265625,64.79940032958984 L396.46795654296875,66.08354949951172 L397.088623046875,67.06974029541016 L398.2039794921875,67.65631103515625 L399.7142028808594,67.79393005371094 L401.494140625,67.47248840332031 L403.3780517578125,66.71967315673828 L405.169189453125,65.61866760253906 L406.67071533203125,64.30103302001953 L407.720947265625,62.90577697753906 L408.25103759765625,61.56360626220703 L408.2439270019531,60.39604187011719 L407.77923583984375,59.48255157470703 L407.0102844238281,58.86186218261719 L406.26495361328125,58.52372360229492 L405.74755859375,58.395206451416016 M412.30633544921875,57.245452880859375 L412.2567443847656,57.471214294433594 L412.17413330078125,57.97667694091797 L412.060302734375,58.82653045654297 L411.9250793457031,59.9788818359375 L411.753173828125,61.355831146240234 L411.5235290527344,62.84238815307617 L411.2449645996094,64.29708862304688 L410.9605712890625,65.58778381347656 L410.726318359375,66.6264877319336 L410.57720947265625,67.33168029785156 L410.49945068359375,67.6583251953125 L410.4779357910156,67.57076263427734 L410.52197265625,67.01715850830078 L410.68841552734375,65.99913787841797 L411.0484313964844,64.62458801269531 L411.62384033203125,63.03961181640625 L412.40850830078125,61.432228088378906 L413.3743896484375,59.96184158325195 L414.48602294921875,58.732730865478516 L415.71795654296875,57.831321716308594 L417.02789306640625,57.341026306152344 L418.3183898925781,57.295631408691406 L419.51666259765625,57.71049880981445 L420.516357421875,58.54768753051758 L421.23846435546875,59.73225021362305 L421.65960693359375,61.17892074584961 L421.81744384765625,62.77891159057617 L421.7789611816406,64.399169921875 L421.666015625,65.88446807861328 L421.53973388671875,67.08345031738281 L421.4466552734375,67.8631362915039 L421.39703369140625,68.2463150024414 M428.6158142089844,46.776145935058594 L428.6885681152344,46.96356964111328 L428.8094482421875,47.50168991088867 L428.92279052734375,48.52159881591797 L428.9337463378906,50.03150177001953 L428.75872802734375,51.93293380737305 L428.39923095703125,54.106624603271484 L427.93994140625,56.426475524902344 L427.47467041015625,58.7855110168457 L427.0830078125,61.06336975097656 L426.7934265136719,63.12942886352539 L426.5926513671875,64.89318084716797 L426.45556640625,66.24674987792969 L426.3538818359375,67.11682891845703 L426.2562255859375,67.48784637451172 L426.17340087890625,67.51556396484375 L426.11309814453125,67.38848114013672 M423.54449462890625,60.20532989501953 L423.609619140625,59.927528381347656 L423.91448974609375,59.50406265258789 L424.595947265625,59.00530242919922 L425.7011413574219,58.553077697753906 L427.150146484375,58.176090240478516 L428.7889404296875,57.883296966552734 L430.4539794921875,57.666717529296875 L432.0506896972656,57.54315185546875 L433.5264892578125,57.51764678955078 L434.8296813964844,57.58802795410156 L435.93255615234375,57.762203216552734 L436.7770690917969,58.05637741088867 L437.31451416015625,58.49614334106445 L437.51385498046875,59.11891555786133 L437.41009521484375,59.93724822998047 L437.0674133300781,60.9268798828125 L436.6033630371094,62.035640716552734 L436.11871337890625,63.20849609375 L435.6787109375,64.37630462646484 L435.30926513671875,65.498779296875 L435.02484130859375,66.52129364013672 L434.8294677734375,67.39720916748047 L434.7464294433594,68.01909637451172 L434.78143310546875,68.31684875488281 L434.90966796875,68.25553894042969 L435.0606689453125,68.0113754272461 L435.175048828125,67.752197265625 M437.25732421875,49.832881927490234 L437.29736328125,49.50877380371094 L437.3778076171875,49.125816345214844 L437.4781188964844,48.81001281738281 L437.594970703125,48.722869873046875 L437.7276611328125,48.82667541503906 L437.8878173828125,49.05863571166992 L438.0387878417969,49.28532409667969 L438.15557861328125,49.454627990722656 M443.24725341796875,55.03361511230469 L443.28363037109375,55.35552215576172 L443.31634521484375,55.96912384033203 L443.3153991699219,56.86651611328125 L443.256591796875,57.96177673339844 L443.12249755859375,59.20742416381836 L442.9160461425781,60.5595817565918 L442.6507568359375,61.97221755981445 L442.36279296875,63.33782196044922 L442.0981140136719,64.52812957763672 L441.9014892578125,65.44091796875 L441.7829284667969,66.00421905517578 L441.759521484375,66.1812515258789 L441.837158203125,65.94841003417969 L442.0533142089844,65.26177215576172 L442.4461364746094,64.15027618408203 L443.0415344238281,62.71677017211914 L443.8468017578125,61.11701583862305 L444.87322998046875,59.530357360839844 L446.077392578125,58.10244369506836 L447.42401123046875,56.91879653930664 L448.83892822265625,56.054161071777344 L450.2301025390625,55.55210876464844 L451.51220703125,55.43720626831055 L452.62274169921875,55.731014251708984 L453.4986572265625,56.42517852783203 L454.11431884765625,57.50059509277344 L454.4463195800781,58.906394958496094 L454.5059509277344,60.545005798339844 L454.3774108886719,62.29204177856445 L454.1683349609375,64.0021743774414 L454.00054931640625,65.51915740966797 L454.03204345703125,66.63583374023438 L454.342041015625,67.1908950805664 L454.93359375,67.12374114990234 L455.5710144042969,66.72542572021484 L456.0534973144531,66.29417419433594 M460.0854797363281,57.002323150634766 L460.0269470214844,56.80868911743164 L459.94183349609375,56.703590393066406 L459.8181457519531,56.879371643066406 L459.6485595703125,57.53303146362305 L459.37371826171875,58.64418411254883 L459.02410888671875,60.09799575805664 L458.6885070800781,61.71552276611328 L458.4727478027344,63.329681396484375 L458.49090576171875,64.7724838256836 L458.8250427246094,65.92000579833984 L459.48602294921875,66.66901397705078 L460.4921569824219,66.9500732421875 L461.82855224609375,66.72367858886719 L463.4287109375,66.00382995605469 L465.1905822753906,64.87265014648438 L466.94757080078125,63.446659088134766 L468.55126953125,61.88544464111328 L469.873291015625,60.37224578857422 L470.8681945800781,59.065223693847656 L471.54541015625,58.08522415161133 L471.92852783203125,57.50946044921875 L472.02203369140625,57.359832763671875 L471.8729553222656,57.646942138671875 L471.49261474609375,58.3791389465332 L470.9698486328125,59.51310729980469 L470.43658447265625,60.93968200683594 L469.9985046386719,62.50715637207031 L469.74395751953125,64.06041717529297 L469.7366638183594,65.48278045654297 L469.966552734375,66.69445037841797 L470.503173828125,67.60315704345703 L471.3663330078125,68.13668823242188 L472.49334716796875,68.270751953125 L473.53717041015625,68.16064453125 L474.2630310058594,67.98161315917969 M482.7130126953125,59.24253463745117 L482.49359130859375,58.93193435668945 L482.0771789550781,58.527408599853516 L481.445068359375,58.18586349487305 L480.618896484375,58.12042236328125 L479.62054443359375,58.41180419921875 L478.49969482421875,59.04990768432617 L477.3427734375,59.97626495361328 L476.29754638671875,61.10734558105469 L475.52435302734375,62.344661712646484 L475.1427001953125,63.587669372558594 L475.2568359375,64.74736022949219 L475.89080810546875,65.7005844116211 L477.0126037597656,66.35662841796875 L478.53692626953125,66.62506103515625 L480.3217468261719,66.49089813232422 L482.1554260253906,65.97090148925781 L483.835205078125,65.12261199951172 L485.18682861328125,63.99797058105469 L486.11651611328125,62.70073318481445 L486.59521484375,61.335845947265625 L486.6556091308594,60.04386520385742 L486.3446960449219,58.9214973449707 L485.7300720214844,58.04770278930664 L484.90106201171875,57.444602966308594 L483.9933166503906,57.12248229980469 L483.13623046875,57.03643035888672 L482.50714111328125,57.08451843261719 L482.15924072265625,57.16317367553711 M490.5888671875,57.784297943115234 L490.4408874511719,58.029048919677734 L490.21051025390625,58.549041748046875 L489.9254150390625,59.38158416748047 L489.6516418457031,60.478214263916016 L489.42352294921875,61.7645378112793 L489.2921447753906,63.127838134765625 L489.330322265625,64.46185302734375 L489.6026611328125,65.65274047851562 L490.1344299316406,66.59573364257812 L490.93963623046875,67.21515655517578 L492.0080871582031,67.45040130615234 L493.2813720703125,67.24275970458984 L494.6879577636719,66.5809326171875 L496.13409423828125,65.49712371826172 L497.51025390625,64.08826446533203 L498.73760986328125,62.500186920166016 L499.75830078125,60.904415130615234 L500.53271484375,59.45158386230469 L501.05914306640625,58.26093292236328 L501.36895751953125,57.385501861572266 L501.52593994140625,56.86241912841797 L501.5669860839844,56.70992660522461 L501.5088195800781,56.95746994018555 L501.33905029296875,57.64201354980469 L501.046142578125,58.75723648071289 L500.6531677246094,60.187217712402344 L500.25128173828125,61.78644943237305 L499.93890380859375,63.39036560058594 L499.8082275390625,64.83712005615234 L499.8741149902344,66.02716827392578 L500.03253173828125,66.8393783569336 L500.17999267578125,67.26509094238281 M512.9234008789062,58.165733337402344 L512.5986938476562,57.99824523925781 L511.9937744140625,57.80472183227539 L511.10601806640625,57.697933197021484 L510.03314208984375,57.79907989501953 L508.877197265625,58.124568939208984 L507.77056884765625,58.63602828979492 L506.86669921875,59.27814865112305 L506.3302001953125,59.99917221069336 L506.240478515625,60.76948928833008 L506.60736083984375,61.55898666381836 L507.374755859375,62.350955963134766 L508.43438720703125,63.13197326660156 L509.66595458984375,63.905029296875 L510.96453857421875,64.6588134765625 L512.1956787109375,65.38248443603516 L513.2362670898438,66.04998779296875 L513.9498291015625,66.63565063476562 L514.2235717773438,67.1311264038086 L513.9808349609375,67.54737091064453 L513.2106323242188,67.88835144042969 L511.9705810546875,68.16773223876953 L510.385009765625,68.38031005859375 L508.60040283203125,68.51124572753906 L506.7850341796875,68.56562805175781 L505.1104736328125,68.56793212890625 L503.70928955078125,68.5449447631836 L502.75421142578125,68.52603912353516 L502.2528991699219,68.52057647705078 M539.5255126953125,60.68935012817383 L539.2906494140625,60.2842903137207 L538.8094482421875,59.73506546020508 L538.0181274414062,59.214569091796875 L536.9158935546875,58.99245071411133 L535.5137939453125,59.171878814697266 L533.9102783203125,59.78927993774414 L532.2640991210938,60.782859802246094 L530.79345703125,62.060203552246094 L529.7054443359375,63.44053268432617 L529.1362915039062,64.74110412597656 L529.151611328125,65.77497863769531 L529.72119140625,66.40496826171875 L530.7635498046875,66.54515075683594 L532.1597290039062,66.18659210205078 L533.7926025390625,65.3768081665039 L535.5075073242188,64.23644256591797 L537.1832275390625,62.90304946899414 L538.6495361328125,61.54292678833008 L539.7802734375,60.30333709716797 L540.5066528320312,59.29569625854492 L540.851806640625,58.593318939208984 L540.8892211914062,58.256317138671875 L540.7640991210938,58.3342170715332 L540.5484619140625,58.887939453125 L540.298828125,59.95832443237305 L540.0435180664062,61.508331298828125 L539.79833984375,63.45547866821289 L539.5707397460938,65.67344665527344 L539.3732299804688,68.01811981201172 L539.1509399414062,70.35846710205078 L538.8515014648438,72.58177185058594 L538.3956298828125,74.57862854003906 L537.7247314453125,76.25846099853516 L536.8063354492188,77.54796600341797 L535.6611328125,78.38522338867188 L534.32177734375,78.74480438232422 L532.8795776367188,78.6379623413086 L531.4395141601562,78.13167572021484 L530.128662109375,77.31785583496094 L529.1048583984375,76.2315444946289 L528.4974365234375,74.92266845703125 L528.3422241210938,73.4602279663086 L528.4667358398438,72.20158386230469 L528.6746215820312,71.36669158935547 M543.9549560546875,62.77713394165039 L544.1908569335938,62.76624298095703 L544.667236328125,62.70478057861328 L545.41064453125,62.54955291748047 L546.3596801757812,62.257293701171875 L547.445556640625,61.80940628051758 L548.5562744140625,61.24296569824219 L549.5612182617188,60.593475341796875 L550.344482421875,59.91625213623047 L550.827880859375,59.24557876586914 L550.9721069335938,58.607826232910156 L550.7784423828125,58.036659240722656 L550.2647705078125,57.60901641845703 L549.4326171875,57.40496063232422 L548.2974243164062,57.5245475769043 L546.9157104492188,57.99394226074219 L545.4068603515625,58.810096740722656 L543.9458618164062,59.91598129272461 L542.7464599609375,61.23927307128906 L541.9761962890625,62.672969818115234 L541.7445678710938,64.1021728515625 L542.0922241210938,65.34852600097656 L542.9940185546875,66.2685317993164 L544.3667602539062,66.76837158203125 L546.0827026367188,66.8165054321289 L547.9717407226562,66.43446350097656 L549.8600463867188,65.68658447265625 L551.6021728515625,64.63192749023438 L553.08935546875,63.34964370727539 L554.277587890625,61.95487976074219 L555.1507568359375,60.55376052856445 L555.7459716796875,59.27614974975586 L556.1033935546875,58.22001266479492 L556.2968139648438,57.450721740722656 L556.3790283203125,57.00455856323242 L556.3909301757812,56.92734146118164 L556.3137817382812,57.24272537231445 L556.1290283203125,57.99768829345703 L555.7910766601562,59.170677185058594 L555.314453125,60.68147277832031 L554.7510986328125,62.3900260925293 L554.1939086914062,64.1019058227539 L553.7271728515625,65.60271453857422 L553.4065551757812,66.7584228515625 L553.2356567382812,67.4889907836914 L553.197998046875,67.76470184326172 L553.2874145507812,67.5744857788086 L553.5235595703125,66.8909683227539 L553.9505004882812,65.71994018554688 L554.5751342773438,64.18692779541016 L555.3865966796875,62.493412017822266 L556.3340454101562,60.85545349121094 L557.3734130859375,59.44230651855469 L558.45263671875,58.34375 L559.542724609375,57.593017578125 L560.58935546875,57.20331954956055 L561.5578002929688,57.17302322387695 L562.393310546875,57.496788024902344 L563.0679931640625,58.16735076904297 L563.541259765625,59.145057678222656 L563.8018798828125,60.3641242980957 L563.8731079101562,61.71467971801758 L563.8195190429688,63.07340621948242 L563.70068359375,64.32892608642578 L563.6060180664062,65.37870025634766 L563.5857543945312,66.1310806274414 L563.6600952148438,66.5487060546875 L563.7781982421875,66.69799041748047 L563.8878173828125,66.69348907470703 M567.7015991210938,63.192657470703125 L568.029296875,63.231658935546875 L568.6528930664062,63.20966720581055 L569.599853515625,63.058868408203125 L570.7849731445312,62.70331954956055 L572.1419677734375,62.133724212646484 L573.5758056640625,61.37307357788086 L574.9656372070312,60.4676513671875 L576.175537109375,59.46258544921875 L577.1099243164062,58.44071578979492 L577.6502685546875,57.4715690612793 L577.7401733398438,56.64625549316406 L577.3447875976562,56.0515251159668 L576.4502563476562,55.77019500732422 L575.1259765625,55.858402252197266 L573.521484375,56.343406677246094 L571.796875,57.19269943237305 L570.2171630859375,58.35421371459961 L568.9949340820312,59.72977828979492 L568.2769165039062,61.2049674987793 L568.1663208007812,62.665462493896484 L568.6766357421875,63.99782943725586 L569.729248046875,65.08941650390625 L571.25390625,65.8681411743164 L573.1152954101562,66.27021789550781 L575.1483764648438,66.25482940673828 L577.173095703125,65.83428955078125 L579.008544921875,65.054931640625 L580.506103515625,63.99322509765625 L581.5872802734375,62.75905990600586 L582.2703247070312,61.463069915771484 L582.6259765625,60.20425033569336 L582.7333984375,59.083824157714844 L582.7059936523438,58.1669921875 L582.6401977539062,57.50851058959961 L582.5816040039062,57.15672302246094 L582.5690307617188,57.151222229003906 L582.5795288085938,57.54277420043945 L582.550537109375,58.368629455566406 L582.449462890625,59.58695602416992 L582.275390625,61.090145111083984 L582.0520629882812,62.6993408203125 L581.8423461914062,64.20176696777344 L581.6765747070312,65.43848419189453 L581.5723266601562,66.3047866821289 L581.5112915039062,66.73107147216797 L581.4732055664062,66.6845474243164 L581.4447631835938,66.15420532226562 L581.4388427734375,65.15895080566406 L581.4813842773438,63.802303314208984 L581.6402587890625,62.23005676269531 L581.9692993164062,60.579872131347656 L582.5087280273438,58.97260665893555 L583.272705078125,57.50031661987305 L584.2408447265625,56.225303649902344 L585.3568115234375,55.21424865722656 L586.6219482421875,54.53852081298828 L588.0029907226562,54.2108268737793 L589.4326171875,54.19219970703125 L590.6065673828125,54.33099365234375 L591.3596801757812,54.48675537109375 M600.8601684570312,57.61311721801758 L600.7422485351562,57.36628723144531 L600.4430541992188,56.991477966308594 L599.8794555664062,56.58699035644531 L599.0133056640625,56.32914352416992 L597.8556518554688,56.33009338378906 L596.4830322265625,56.68157196044922 L595.0150756835938,57.404850006103516 L593.599365234375,58.47355651855469 L592.3555908203125,59.814273834228516 L591.396240234375,61.30412673950195 L590.806396484375,62.800537109375 L590.6383056640625,64.14990234375 L590.9483032226562,65.20524597167969 L591.7352905273438,65.8368148803711 L592.9285888671875,65.97657012939453 L594.4332275390625,65.59626007080078 L596.0828247070312,64.75086212158203 L597.69189453125,63.541770935058594 L599.1197509765625,62.11278533935547 L600.2500610351562,60.6385383605957 L601.0463256835938,59.30567169189453 L601.542724609375,58.238407135009766 L601.78759765625,57.538387298583984 L601.8392944335938,57.254878997802734 L601.7374877929688,57.40013122558594 L601.496337890625,57.981346130371094 L601.1583251953125,58.97626495361328 L600.7752075195312,60.270774841308594 L600.4366455078125,61.72435760498047 L600.23876953125,63.193572998046875 L600.2506713867188,64.55767059326172 L600.5712280273438,65.66383361816406 L601.2381591796875,66.38728332519531 L602.2080078125,66.63188171386719 L603.1497192382812,66.54682922363281 L603.8233032226562,66.33578491210938 M612.60009765625,46.934139251708984 L612.6068115234375,46.69025802612305 L612.6228637695312,46.51122283935547 L612.6231689453125,46.61208724975586 L612.55078125,47.21611404418945 L612.3593139648438,48.34351348876953 L612.0171508789062,49.94099426269531 L611.5200805664062,51.89263916015625 L610.9243774414062,54.11528396606445 L610.2901611328125,56.47774887084961 L609.668701171875,58.845760345458984 L609.1142578125,61.0783576965332 L608.650146484375,63.0697135925293 L608.2813110351562,64.72515106201172 L608.0083618164062,65.98951721191406 L607.8364868164062,66.79479217529297 L607.75,67.19474792480469 M604.3720092773438,58.49400329589844 L604.4199829101562,58.492515563964844 L604.6815795898438,58.508338928222656 L605.3028564453125,58.538429260253906 L606.4011840820312,58.56764221191406 L607.9898681640625,58.58161163330078 L609.9896240234375,58.559844970703125 L612.2748413085938,58.50591278076172 L614.69384765625,58.41426467895508 L617.0350952148438,58.269325256347656 L619.1008911132812,58.062808990478516 L620.7279663085938,57.82640838623047 L621.8135986328125,57.594539642333984 L622.3716430664062,57.44008255004883 L622.4956665039062,57.43893814086914 L622.2801513671875,57.65991973876953 L621.8358154296875,58.14802551269531 L621.2692260742188,58.92195129394531 L620.6507568359375,59.92722702026367 L620.0751953125,61.08327102661133 L619.6033935546875,62.285865783691406 L619.2504272460938,63.407936096191406 L619.031005859375,64.33958435058594 L618.9263916015625,64.97074127197266 L618.888427734375,65.29436492919922 M622.2415771484375,49.41795349121094 L622.3538208007812,49.12371063232422 L622.5482788085938,48.76815414428711 L622.754150390625,48.46548843383789 L622.9005737304688,48.329925537109375 M631.5401000976562,57.42913055419922 L631.3317260742188,57.363014221191406 L630.9252319335938,57.33911895751953 L630.2566528320312,57.46126174926758 L629.348388671875,57.843135833740234 L628.2454223632812,58.52488708496094 L627.0938720703125,59.48073959350586 L626.087158203125,60.636505126953125 L625.4275512695312,61.87412643432617 L625.2184448242188,63.0684700012207 L625.5065307617188,64.09510803222656 L626.2688598632812,64.83853149414062 L627.4119873046875,65.21666717529297 L628.808837890625,65.18873596191406 L630.291748046875,64.73031616210938 L631.679931640625,63.87405776977539 L632.8141479492188,62.70819854736328 L633.566650390625,61.34588623046875 L633.8416137695312,59.95014572143555 L633.6162109375,58.66862869262695 L632.9322509765625,57.611305236816406 L631.961669921875,56.85169982910156 L630.9326782226562,56.42236328125 L630.1306762695312,56.246055603027344 L629.67333984375,56.22532653808594 M638.8698120117188,56.60667037963867 L638.8975219726562,56.5853271484375 L638.9221801757812,56.702880859375 L638.9058227539062,57.083526611328125 L638.8057250976562,57.81450653076172 L638.6121826171875,58.85306930541992 L638.35009765625,60.0995979309082 L638.0750122070312,61.419189453125 L637.8268432617188,62.69768524169922 L637.6195068359375,63.83039855957031 L637.447021484375,64.75196075439453 L637.2943725585938,65.40752410888672 L637.1685791015625,65.74118041992188 L637.1126098632812,65.68292236328125 L637.1868286132812,65.20366668701172 L637.4564819335938,64.30901336669922 L637.9647827148438,63.10745620727539 L638.714599609375,61.7508659362793 L639.7059936523438,60.378849029541016 L640.9205932617188,59.095767974853516 L642.3428344726562,58.010108947753906 L643.9388427734375,57.191314697265625 L645.6152954101562,56.71195983886719 L647.243896484375,56.60622024536133 L648.7060546875,56.85932922363281 L649.8904418945312,57.43704605102539 L650.7672119140625,58.313175201416016 L651.3480834960938,59.42924880981445 L651.6796264648438,60.7301025390625 L651.8107299804688,62.14665603637695 L651.797607421875,63.58663558959961 L651.6749877929688,64.96393585205078 L651.5158081054688,66.179931640625 L651.3856811523438,67.12077331542969 L651.3699951171875,67.74009704589844 L651.4346923828125,68.0594711303711 L651.5297241210938,68.16458129882812 M663.4949951171875,61.18916702270508 L663.8899536132812,61.164981842041016 L664.6898803710938,61.1382942199707 L665.8685302734375,61.12006378173828 L667.3114624023438,61.11649703979492 L668.8652954101562,61.1154670715332 L670.4053344726562,61.10858154296875 L671.6214599609375,61.09511184692383 L672.3834228515625,61.08165740966797 M688.3355712890625,50.28737258911133 L688.2598266601562,50.5836296081543 L688.107666015625,51.25910949707031 L687.8726806640625,52.39039993286133 L687.5875244140625,53.93474578857422 L687.2763671875,55.79519271850586 L686.9503173828125,57.85063934326172 L686.6187133789062,59.972442626953125 L686.2893676757812,62.04045104980469 L685.9778442382812,63.89681625366211 L685.7127685546875,65.40999603271484 L685.5274047851562,66.4169921875 L685.4263305664062,66.9349594116211 M682.1826782226562,48.351715087890625 L682.2337646484375,47.91641616821289 L682.52685546875,47.26774978637695 L683.2369384765625,46.536766052246094 L684.4912109375,45.92855453491211 L686.2689208984375,45.510902404785156 L688.4218139648438,45.33293533325195 L690.734130859375,45.40251922607422 L692.9950561523438,45.736328125 L695.0322265625,46.28987121582031 L696.7184448242188,46.98497009277344 L697.9744873046875,47.75537109375 L698.72314453125,48.545936584472656 L698.886474609375,49.33319854736328 L698.406982421875,50.12773513793945 L697.2907104492188,50.930076599121094 L695.6131591796875,51.7598762512207 L693.5842895507812,52.62946701049805 L691.46142578125,53.52328109741211 L689.4943237304688,54.44194030761719 L687.85107421875,55.39046859741211 L686.6282348632812,56.39095687866211 L685.8651733398438,57.488677978515625 L685.5665283203125,58.71190643310547 L685.691162109375,60.042457580566406 L686.2000732421875,61.437965393066406 L687.0095825195312,62.803489685058594 L688.0394287109375,64.0454330444336 L689.2811889648438,65.05645751953125 L690.6704711914062,65.75648498535156 L692.1014404296875,66.11515808105469 L693.2686157226562,66.22179412841797 L694.001708984375,66.19386291503906 M699.8350219726562,57.235347747802734 L699.795654296875,57.1213493347168 L699.7557983398438,57.04838943481445 L699.6965942382812,57.134151458740234 L699.5933837890625,57.52956008911133 L699.3797607421875,58.28413391113281 L699.0834350585938,59.386695861816406 L698.7633666992188,60.76008605957031 L698.5387573242188,62.269798278808594 L698.5067749023438,63.74329376220703 L698.7042846679688,65.03154754638672 L699.1181640625,66.02506256103516 L699.7282104492188,66.65150451660156 L700.5223388671875,66.86963653564453 L701.5154418945312,66.66064453125 L702.6957397460938,66.03260803222656 L703.981201171875,65.035888671875 L705.2654418945312,63.787471771240234 L706.448974609375,62.431358337402344 L707.4696655273438,61.1073112487793 L708.2952880859375,59.954017639160156 L708.9052124023438,59.0411376953125 L709.2944946289062,58.421756744384766 L709.4735717773438,58.14779281616211 L709.4944458007812,58.26542282104492 L709.3919067382812,58.791893005371094 L709.1903686523438,59.723880767822266 L708.93115234375,60.94350051879883 L708.6807861328125,62.31815719604492 L708.5033569335938,63.69640350341797 L708.5507202148438,64.98844909667969 L708.733154296875,65.96468353271484 L708.9429321289062,66.55962371826172 M715.9979248046875,60.77404022216797 L716.00341796875,60.706817626953125 L715.9594116210938,60.737430572509766 L715.8236083984375,61.00389099121094 L715.5659790039062,61.618751525878906 L715.1994018554688,62.53457260131836 L714.7521362304688,63.605960845947266 L714.316162109375,64.66238403320312 L713.9528198242188,65.55961608886719 L713.7125244140625,66.21846008300781 L713.626220703125,66.59439849853516 L713.6910400390625,66.64521789550781 L713.9064331054688,66.31918334960938 L714.29931640625,65.614013671875 L714.8770751953125,64.58333587646484 L715.631591796875,63.3396110534668 L716.5639038085938,62.00325393676758 L717.65283203125,60.70602798461914 L718.8937377929688,59.540794372558594 L720.2459716796875,58.59156036376953 L721.6588134765625,57.94728469848633 L723.043212890625,57.657386779785156 L724.3088989257812,57.74481964111328 L725.3645629882812,58.213191986083984 L726.15185546875,59.032569885253906 L726.6104736328125,60.139305114746094 L726.7466430664062,61.46590805053711 L726.6087036132812,62.911109924316406 L726.2893676757812,64.38427734375 L725.9115600585938,65.75765991210938 L725.5839233398438,66.9156265258789 L725.3670043945312,67.70730590820312 L725.2650146484375,68.1216812133789 M737.5423583984375,52.77193069458008 L737.960205078125,52.455322265625 L738.7783813476562,51.985626220703125 L739.9963989257812,51.469970703125 L741.4882202148438,51.08481216430664 L743.160400390625,50.89128112792969 L744.9364013671875,50.91716384887695 L746.7236938476562,51.14802551269531 L748.446533203125,51.57994079589844 L750.0184936523438,52.17878341674805 L751.3663940429688,52.92512893676758 L752.4358520507812,53.81568145751953 L753.1694946289062,54.85572052001953 L753.4266967773438,56.03562927246094 L753.1029052734375,57.33828353881836 L752.158935546875,58.6943359375 L750.6416625976562,60.05086898803711 L748.7060546875,61.364044189453125 L746.5337524414062,62.59650421142578 L744.2604370117188,63.69767761230469 L742.0372314453125,64.62747192382812 L739.9993286132812,65.33250427246094 L738.2548828125,65.80313110351562 L736.885498046875,66.02626037597656 L735.9114990234375,66.01380920410156 L735.2759399414062,65.77478790283203 L734.9082641601562,65.33041381835938 L734.7264404296875,64.72518920898438 L734.6614379882812,64.03248596191406 L734.6627197265625,63.29386901855469 L734.6912841796875,62.558937072753906 L734.7156982421875,61.864376068115234 L734.7218627929688,61.23747253417969 L734.7124633789062,60.740055084228516 L734.6956176757812,60.419307708740234 L734.6785888671875,60.26181411743164 L734.6575317382812,60.24819564819336 L734.6484375,60.36537551879883 L734.6596069335938,60.612449645996094 L734.6929321289062,61.04591369628906 L734.7354125976562,61.698829650878906 L734.7842407226562,62.52701187133789 L734.8648681640625,63.470619201660156 L735.0484619140625,64.45601654052734 L735.4169311523438,65.4036865234375 L736.0315551757812,66.27630615234375 L736.919677734375,67.04238891601562 L738.09375,67.66172790527344 L739.558349609375,68.12319946289062 L741.2698974609375,68.43832397460938 L743.1589965820312,68.61451721191406 L745.1069946289062,68.67552185058594 L746.9959106445312,68.61516571044922 L748.7705688476562,68.40616607666016 L750.1378784179688,68.15011596679688 L750.9776611328125,67.93525695800781 " fill="none" stroke="black" stroke-linecap="round" stroke-width="2" /></svg>