<?xml version="1.0" encoding="utf-8" ?>
<svg baseProfile="full" height="100%" version="1.1" viewBox="0,0,1000,120" width="100%" xmlns="http://www.w3.org/2000/svg" xmlns:ev="http://www.w3.org/2001/xml-events" xmlns:xlink="http://www.w3.org/1999/xlink"><defs /><rect fill="white" height="120" width="1000" x="0" y="0" /><path d="M0,0 M365.630615234375,51.98328399658203 L365.3142395019531,52.99277877807617 L364.8254699707031,54.81268310546875 L364.2559814453125,57.322818756103516 L363.7696533203125,60.088714599609375 L363.4332580566406,62.79247283935547 L363.238525390625,65.13127899169922 L363.1368713378906,66.92523956298828 L363.1091003417969,68.11962890625 L363.11199951171875,68.76741027832031 L363.1112976074219,68.95947265625 L363.0877380371094,68.72404479980469 L363.0325927734375,67.98790740966797 L362.9944763183594,66.6509017944336 L363.0567626953125,64.73485565185547 L363.25006103515625,62.38374710083008 L363.5425109863281,59.79202651977539 L363.8954772949219,57.1422119140625 L364.2724914550781,54.54094696044922 L364.7066650390625,52.058815002441406 L365.25360107421875,49.810646057128906 L365.88555908203125,47.928897857666016 L366.51007080078125,46.49834442138672 L367.04473876953125,45.59638977050781 L367.38311767578125,45.27327346801758 L367.5162353515625,45.58732604980469 L367.4736633300781,46.61846923828125 L367.294677734375,48.375633239746094 L367.0606384277344,50.70988845825195 L366.87054443359375,53.35734939575195 L366.7701416015625,55.97605514526367 L366.814453125,58.256221771240234 L366.9924621582031,60.01542282104492 L367.2765197753906,61.181739807128906 L367.6491394042969,61.72593307495117 L368.10479736328125,61.61826705932617 L368.6659240722656,60.80575180053711 L369.3912353515625,59.273406982421875 L370.3047790527344,57.13585662841797 L371.40252685546875,54.62971496582031 L372.6170654296875,52.04845428466797 L373.84344482421875,49.67347717285156 L374.9779052734375,47.698265075683594 L375.9379577636719,46.22020721435547 L376.6566162109375,45.3033561706543 L377.10205078125,45.0 L377.24432373046875,45.361793518066406 L377.0933837890625,46.46290588378906 L376.6590881347656,48.3081169128418 L375.9747314453125,50.78755569458008 L375.09698486328125,53.71728515625 L374.11016845703125,56.85391616821289 L373.1213684082031,59.94379425048828 L372.272216796875,62.76274108886719 L371.6471862792969,65.1180419921875 L371.28515625,66.82976531982422 L371.1552429199219,67.83238983154297 L371.1750793457031,68.17930603027344 L371.2452392578125,68.13536071777344 L371.30792236328125,67.9577865600586 M375.943115234375,62.0952262878418 L376.063720703125,62.17131042480469 L376.37615966796875,62.20977783203125 L376.9364013671875,62.08967971801758 L377.7456359863281,61.68437957763672 L378.7391357421875,60.94707489013672 L379.79840087890625,59.90109634399414 L380.8315124511719,58.650596618652344 L381.75750732421875,57.318870544433594 L382.5205078125,56.02614974975586 L383.08587646484375,54.875274658203125 L383.387451171875,53.93267059326172 L383.3551025390625,53.24539566040039 L382.94219970703125,52.88745880126953 L382.15093994140625,52.946170806884766 L381.0447082519531,53.531463623046875 L379.73382568359375,54.72111511230469 L378.33685302734375,56.502044677734375 L376.98699951171875,58.73917007446289 L375.82244873046875,61.204132080078125 L374.98236083984375,63.60108947753906 L374.5699157714844,65.66004943847656 L374.6602478027344,67.18167877197266 L375.229248046875,68.06520080566406 L376.2598571777344,68.19284057617188 L377.6488037109375,67.57057189941406 L379.2412414550781,66.30866241455078 L380.59613037109375,64.97327423095703 L381.4822082519531,63.98047637939453 M387.01593017578125,53.3810920715332 L387.0119934082031,53.58759689331055 L386.9681396484375,54.182151794433594 L386.84197998046875,55.32233428955078 L386.60394287109375,57.019805908203125 L386.26190185546875,59.14363098144531 L385.8415832519531,61.475521087646484 L385.4071960449219,63.74461364746094 L385.03350830078125,65.71659088134766 L384.7679443359375,67.244873046875 L384.6451110839844,68.25247192382812 L384.66070556640625,68.69956970214844 L384.79693603515625,68.53931427001953 L385.0653076171875,67.68346405029297 L385.4834289550781,66.08491516113281 L386.0805969238281,63.869205474853516 L386.8946228027344,61.326107025146484 L387.897705078125,58.81761932373047 L389.017578125,56.654563903808594 L390.15234375,55.02061462402344 L391.1952209472656,53.97595977783203 L392.0685119628906,53.53776168823242 L392.730224609375,53.729454040527344 L393.137451171875,54.60173034667969 L393.2552185058594,56.143638610839844 L393.0707702636719,58.24038314819336 L392.62939453125,60.64821243286133 L392.0445556640625,63.0082893371582 L391.4532775878906,65.00349426269531 L390.9787292480469,66.46192169189453 L390.70465087890625,67.28285217285156 L390.67108154296875,67.40355682373047 L390.91119384765625,66.77696990966797 L391.4803771972656,65.34416961669922 L392.40655517578125,63.233154296875 L393.6746520996094,60.78491973876953 L395.2173767089844,58.40144729614258 L396.8994140625,56.42477798461914 L398.56231689453125,55.04895782470703 L400.05120849609375,54.26764678955078 L401.22698974609375,54.035972595214844 L402.0035400390625,54.34347915649414 L402.36004638671875,55.204261779785156 L402.3248291015625,56.63502502441406 L401.969970703125,58.58345031738281 L401.40411376953125,60.87439727783203 L400.7555236816406,63.24864959716797 L400.1723327636719,65.41112518310547 L399.7681884765625,67.1177978515625 L399.5965576171875,68.2554931640625 L399.58782958984375,68.85353088378906 L399.64849853515625,69.06888580322266 M410.7681579589844,58.10537338256836 L410.97003173828125,57.719581604003906 L411.215087890625,57.140071868896484 L411.4039001464844,56.48381805419922 L411.38116455078125,55.93394088745117 L411.1025695800781,55.540687561035156 L410.5374450683594,55.35092544555664 L409.7008056640625,55.38771057128906 L408.62860107421875,55.742706298828125 L407.4013977050781,56.51866149902344 L406.1000061035156,57.80012130737305 L404.8399658203125,59.58383560180664 L403.7729797363281,61.73152160644531 L403.038818359375,63.96277618408203 L402.7483825683594,65.95669555664062 L402.94024658203125,67.43948364257812 L403.555908203125,68.27253723144531 L404.48699951171875,68.40818786621094 L405.63232421875,67.85688781738281 L406.881103515625,66.66658020019531 L408.13848876953125,64.95646667480469 L409.3204040527344,62.917816162109375 L410.3427429199219,60.817115783691406 L411.1553955078125,58.90208053588867 L411.75372314453125,57.34220886230469 L412.1831359863281,56.208744049072266 L412.49151611328125,55.477664947509766 L412.7239685058594,55.07504653930664 L412.8978576660156,54.98138427734375 L413.01513671875,55.251617431640625 L413.0613708496094,55.98509216308594 L413.0243835449219,57.254669189453125 L412.89654541015625,59.002777099609375 L412.676025390625,61.029151916503906 L412.393798828125,63.07279968261719 L412.1100158691406,64.87577819824219 L411.87518310546875,66.2640151977539 L411.7078857421875,67.18696594238281 L411.6243591308594,67.69497680664062 L411.6119384765625,67.8500747680664 L411.67840576171875,67.65522003173828 L411.8596496582031,67.02307891845703 L412.19952392578125,65.88050079345703 L412.7073669433594,64.27420806884766 L413.377685546875,62.40035629272461 L414.1884765625,60.510528564453125 L415.0850524902344,58.804351806640625 L416.0074462890625,57.38298034667969 L416.89471435546875,56.27338409423828 L417.6609191894531,55.48194122314453 L418.23687744140625,54.9954948425293 L418.62384033203125,54.77689743041992 L418.83697509765625,54.74647903442383 L418.92205810546875,54.81670379638672 L418.9403381347656,54.905921936035156 L418.9129943847656,54.97660827636719 L418.86749267578125,55.01729202270508 L418.86004638671875,55.03974151611328 L418.929443359375,55.04264450073242 L419.11376953125,55.00211715698242 L419.43975830078125,54.86795425415039 L419.8680725097656,54.59822082519531 L420.3768615722656,54.18989944458008 L420.92181396484375,53.68683624267578 L421.4473876953125,53.1794548034668 L421.9036560058594,52.793888092041016 L422.23187255859375,52.646907806396484 L422.37982177734375,52.84867858886719 L422.3361511230469,53.481346130371094 L422.10302734375,54.55342483520508 L421.7464904785156,55.98147964477539 L421.364013671875,57.6009635925293 L421.05950927734375,59.1816291809082 L420.9422607421875,60.5046501159668 L421.069091796875,61.40785598754883 L421.45947265625,61.82514190673828 L422.12603759765625,61.74478530883789 L423.0531311035156,61.1908073425293 L424.2156066894531,60.22404861450195 L425.5386657714844,58.9668083190918 L426.8998107910156,57.60565948486328 L428.162353515625,56.374977111816406 L429.1916809082031,55.44913864135742 L429.8922424316406,54.94094467163086 L430.23779296875,54.915462493896484 L430.2088317871094,55.439517974853516 L429.8294677734375,56.564640045166016 L429.14727783203125,58.29173278808594 L428.22930908203125,60.5212516784668 L427.1678466796875,63.12443923950195 L426.0782775878906,65.97942352294922 L425.0516662597656,68.98725891113281 L424.15899658203125,72.02896118164062 L423.415771484375,74.96482849121094 L422.8179931640625,77.62455749511719 L422.3285217285156,79.86236572265625 L421.92205810546875,81.58756256103516 L421.60809326171875,82.77290344238281 L421.39697265625,83.45220947265625 L421.28125,83.75128173828125 L421.2443542480469,83.8268051147461 M436.7411193847656,55.518035888671875 L436.7525939941406,55.699676513671875 L436.76092529296875,56.17832946777344 L436.74444580078125,57.07560729980469 L436.6725158691406,58.42815399169922 L436.5289001464844,60.180938720703125 L436.34991455078125,62.198883056640625 L436.1963195800781,64.24312591552734 L436.1394958496094,66.0577163696289 L436.2207946777344,67.421875 L436.4416198730469,68.19995880126953 L436.78533935546875,68.34654235839844 L437.26910400390625,67.85800170898438 L437.9188537597656,66.71605682373047 L438.7572021484375,64.99407958984375 L439.76165771484375,62.86998748779297 L440.8531494140625,60.63758087158203 L441.9026184082031,58.63426208496094 L442.780029296875,57.095237731933594 L443.4106140136719,56.069091796875 L443.7585144042969,55.51880645751953 L443.84320068359375,55.39793014526367 L443.70947265625,55.73749542236328 L443.3929138183594,56.645751953125 L442.9248962402344,58.17662048339844 L442.3880920410156,60.22044372558594 L441.85638427734375,62.556053161621094 L441.42242431640625,64.89701843261719 L441.16412353515625,66.98307800292969 L441.1022033691406,68.64297485351562 L441.19830322265625,69.7955322265625 L441.354736328125,70.44013214111328 L441.48272705078125,70.70343780517578 M452.1121826171875,55.036895751953125 L452.0257568359375,54.86122131347656 L451.75970458984375,54.64060974121094 L451.2313232421875,54.47725296020508 L450.4224853515625,54.54164505004883 L449.4009094238281,54.934513092041016 L448.29443359375,55.71754837036133 L447.2760009765625,56.85325622558594 L446.5221862792969,58.24296569824219 L446.176513671875,59.72418212890625 L446.298828125,61.16822052001953 L446.84185791015625,62.494590759277344 L447.6681213378906,63.68638610839844 L448.5850830078125,64.7295913696289 L449.3953857421875,65.61917114257812 L449.95623779296875,66.34376525878906 L450.17767333984375,66.935302734375 L450.0243225097656,67.44500732421875 L449.4837951660156,67.92301177978516 L448.5951232910156,68.38758087158203 L447.4464111328125,68.80899810791016 L446.2082214355469,69.12955474853516 L445.0787048339844,69.33118438720703 L444.2803955078125,69.42510986328125 L443.85223388671875,69.44717407226562 M456.9124755859375,54.79424285888672 L456.9760437011719,54.7705192565918 L457.1164245605469,54.802616119384766 L457.3357238769531,54.9456901550293 L457.61016845703125,55.211387634277344 L457.8928527832031,55.54327392578125 L458.15155029296875,55.83604049682617 L458.375,55.995609283447266 L458.5450134277344,55.96689224243164 L458.62322998046875,55.751617431640625 L458.5690612792969,55.38988494873047 L458.3307189941406,54.988285064697266 L457.8730773925781,54.67849349975586 L457.19317626953125,54.60634994506836 L456.2984619140625,54.90633773803711 L455.21240234375,55.686973571777344 L454.0050048828125,57.002845764160156 L452.7884216308594,58.821781158447266 L451.68951416015625,60.986209869384766 L450.8548278808594,63.20654296875 L450.3720703125,65.16751861572266 L450.2654113769531,66.6190414428711 L450.5108337402344,67.4390640258789 L451.07293701171875,67.58952331542969 L451.8988037109375,67.0782470703125 L452.9632873535156,65.9266357421875 L454.20233154296875,64.24072265625 L455.5131530761719,62.25837707519531 L456.7469787597656,60.30503845214844 L457.7706298828125,58.66852569580078 L458.4715576171875,57.54899978637695 L458.8226013183594,57.03374481201172 L458.85504150390625,57.14491271972656 L458.6404724121094,57.905982971191406 L458.25128173828125,59.29397964477539 L457.7745361328125,61.16029357910156 L457.3238525390625,63.25868225097656 L457.0160827636719,65.26519775390625 L456.927490234375,66.90791320800781 L456.99462890625,67.98042297363281 L457.1146240234375,68.51325988769531 M467.0390625,57.67752456665039 L466.985107421875,57.292667388916016 L466.8478698730469,56.75236511230469 L466.59521484375,56.23041534423828 L466.1914367675781,55.986839294433594 L465.614013671875,56.148738861083984 L464.86676025390625,56.788604736328125 L464.00250244140625,57.87178421020508 L463.1226806640625,59.33374786376953 L462.3692932128906,61.023136138916016 L461.8581237792969,62.73786926269531 L461.6607666015625,64.2880630493164 L461.789794921875,65.53125762939453 L462.20062255859375,66.36843872070312 L462.84149169921875,66.77821350097656 L463.65203857421875,66.72187805175781 L464.5751647949219,66.14010620117188 L465.5523986816406,65.0105209350586 L466.5257263183594,63.40113067626953 L467.4333190917969,61.51201629638672 L468.23529052734375,59.66456985473633 L468.873779296875,58.123504638671875 L469.3291015625,57.016746520996094 L469.5927429199219,56.370018005371094 L469.6956787109375,56.149314880371094 L469.67657470703125,56.37474060058594 L469.5692443847656,57.11231231689453 L469.36480712890625,58.36284637451172 L469.07574462890625,60.029335021972656 L468.71173095703125,61.963687896728516 L468.31304931640625,64.00946807861328 L467.8911437988281,66.09905242919922 L467.44805908203125,68.21247100830078 L466.95050048828125,70.33650207519531 L466.36492919921875,72.42366027832031 L465.6816711425781,74.37287139892578 L464.9269714355469,76.04824829101562 L464.14892578125,77.34394836425781 L463.409423828125,78.19029235839844 L462.75665283203125,78.59622192382812 L462.1962890625,78.61115264892578 L461.7223205566406,78.2754135131836 L461.3336181640625,77.5993881225586 L461.07275390625,76.60292053222656 L461.00079345703125,75.32432556152344 L461.19061279296875,73.83796691894531 L461.67303466796875,72.23176574707031 L462.4413146972656,70.58218383789062 L463.445556640625,68.91975402832031 L464.6408996582031,67.27427673339844 L465.9847717285156,65.68534851074219 L467.4342041015625,64.18342590332031 L468.9307861328125,62.785728454589844 L470.3989562988281,61.501487731933594 L471.7527160644531,60.310203552246094 L472.91644287109375,59.195472717285156 L473.8572692871094,58.18253707885742 L474.5536804199219,57.291038513183594 L475.0023193359375,56.52265167236328 L475.20794677734375,55.87649154663086 L475.1932373046875,55.332515716552734 L474.9744567871094,54.880767822265625 L474.5762634277344,54.545204162597656 L474.0025634765625,54.37776184082031 L473.2481994628906,54.43366622924805 L472.3448791503906,54.78266906738281 L471.3543395996094,55.4676513671875 L470.36236572265625,56.5025634765625 L469.45562744140625,57.82468795776367 L468.72283935546875,59.334434509277344 L468.23773193359375,60.87294387817383 L468.0841979980469,62.29930114746094 L468.3663024902344,63.47187042236328 L469.1012878417969,64.30912017822266 L470.201904296875,64.77409362792969 L471.26531982421875,64.95321655273438 L472.01177978515625,64.9627456665039 M484.29254150390625,54.1854133605957 L484.23834228515625,54.06422805786133 L484.17071533203125,53.909366607666016 L484.1070556640625,53.764339447021484 L484.0429382324219,53.691001892089844 L483.949951171875,53.714908599853516 L483.8216552734375,53.95269775390625 L483.65240478515625,54.49031448364258 L483.47930908203125,55.41010284423828 L483.32415771484375,56.70657730102539 L483.1693115234375,58.291831970214844 L483.0179443359375,60.04576873779297 L482.87530517578125,61.875885009765625 L482.76226806640625,63.642879486083984 L482.7131042480469,65.21167755126953 L482.73779296875,66.46197509765625 L482.828369140625,67.32819366455078 L482.9794006347656,67.7868423461914 L483.175048828125,67.83946990966797 L483.44036865234375,67.44977569580078 L483.81488037109375,66.5645980834961 L484.3571472167969,65.18930053710938 L485.109375,63.43758010864258 L486.0638732910156,61.483642578125 L487.17669677734375,59.52275466918945 L488.3739013671875,57.709495544433594 L489.56201171875,56.14328384399414 L490.6529235839844,54.883750915527344 L491.54608154296875,53.99021911621094 L492.1727294921875,53.47161102294922 L492.53814697265625,53.28160095214844 L492.69512939453125,53.28757858276367 L492.7332763671875,53.36308670043945 M498.36932373046875,54.42671585083008 L498.44793701171875,54.2411994934082 L498.4986267089844,53.955692291259766 L498.42193603515625,53.637779235839844 L498.1131591796875,53.41663360595703 L497.52294921875,53.400394439697266 L496.651123046875,53.69684600830078 L495.5567932128906,54.41493225097656 L494.31048583984375,55.624427795410156 L492.98907470703125,57.313385009765625 L491.69842529296875,59.368900299072266 L490.5386657714844,61.56747055053711 L489.62091064453125,63.62453079223633 L489.05926513671875,65.3053207397461 L488.91455078125,66.4463882446289 L489.18414306640625,66.96521759033203 L489.8304748535156,66.83604431152344 L490.80596923828125,66.04075622558594 L492.0451965332031,64.60926818847656 L493.47979736328125,62.67811584472656 L495.016845703125,60.49153137207031 L496.5048828125,58.36996078491211 L497.7899169921875,56.59471893310547 L498.76171875,55.325252532958984 L499.3327941894531,54.6160774230957 L499.50836181640625,54.461429595947266 L499.35321044921875,54.856719970703125 L498.9233093261719,55.84406280517578 L498.3277587890625,57.39906311035156 L497.6636962890625,59.37526321411133 L497.0240478515625,61.53459167480469 L496.526611328125,63.599151611328125 L496.2772216796875,65.27381896972656 L496.31341552734375,66.39368438720703 L496.62982177734375,66.90875244140625 L497.02130126953125,66.99375915527344 L497.33074951171875,66.88105773925781 M506.0374755859375,47.679508209228516 L506.05792236328125,47.517127990722656 L506.09320068359375,47.41200637817383 L506.1278076171875,47.55329895019531 L506.11669921875,48.1444091796875 L505.99908447265625,49.227603912353516 L505.7392578125,50.76454162597656 L505.3275146484375,52.64811325073242 L504.8232727050781,54.78102111816406 L504.2909240722656,57.05278396606445 L503.78399658203125,59.35469055175781 L503.33612060546875,61.562538146972656 L502.98419189453125,63.53907012939453 L502.746826171875,65.14282989501953 L502.662353515625,66.28931427001953 L502.6787109375,66.95140075683594 L502.73455810546875,67.22941589355469 M509.69525146484375,54.13060760498047 L509.66265869140625,54.34526062011719 L509.5447998046875,54.93360900878906 L509.29736328125,56.03340530395508 L508.8999328613281,57.62997817993164 L508.38787841796875,59.57921600341797 L507.8128662109375,61.64698791503906 L507.25799560546875,63.62134552001953 L506.8309631347656,65.3197250366211 L506.6143798828125,66.60902404785156 L506.633544921875,67.41157531738281 L506.78497314453125,67.78840637207031 L506.94610595703125,67.87702178955078 M511.8897399902344,47.82246398925781 L511.9610595703125,47.535057067871094 L512.065185546875,47.1878662109375 L512.1658935546875,46.892921447753906 L512.2269287109375,46.76226806640625 M519.490234375,56.432777404785156 L519.4284057617188,56.24458694458008 L519.2625732421875,55.91423034667969 L518.948486328125,55.50637435913086 L518.4476318359375,55.14314651489258 L517.7362060546875,54.952823638916016 L516.830322265625,55.05537796020508 L515.7798461914062,55.54859924316406 L514.6490478515625,56.51778793334961 L513.519287109375,58.01106262207031 L512.4577026367188,59.950340270996094 L511.5452880859375,62.162872314453125 L510.86669921875,64.37260437011719 L510.5008850097656,66.28564453125 L510.5152282714844,67.68431854248047 L510.9158630371094,68.42861938476562 L511.6717529296875,68.41789245605469 L512.7260131835938,67.5914077758789 L513.9970703125,65.94622039794922 L515.3986206054688,63.60535430908203 L516.8394775390625,60.81057357788086 L518.2132568359375,57.858036041259766 L519.4285278320312,54.997493743896484 L520.4153442382812,52.391021728515625 L521.1419067382812,50.16611099243164 L521.622802734375,48.410789489746094 L521.8880004882812,47.177085876464844 L521.9737548828125,46.499725341796875 L521.891357421875,46.39894485473633 L521.6402587890625,46.91669845581055 L521.207763671875,48.14400100708008 L520.6105346679688,50.08301544189453 L519.8871459960938,52.6497688293457 L519.1008911132812,55.660423278808594 L518.32568359375,58.86308288574219 L517.66064453125,61.985198974609375 L517.2059936523438,64.76860046386719 L517.0147705078125,66.97737884521484 L517.1040649414062,68.4468002319336 L517.3234252929688,69.21212768554688 L517.5302734375,69.47288513183594 M525.96337890625,58.11631774902344 L526.147705078125,57.704322814941406 L526.44970703125,57.088863372802734 L526.8262939453125,56.410762786865234 L527.184326171875,55.86882781982422 L527.4735107421875,55.48438262939453 L527.65966796875,55.23660659790039 L527.7305297851562,55.06496047973633 L527.6490478515625,54.98667526245117 L527.3783569335938,55.09534454345703 L526.8587646484375,55.49741744995117 L526.0709838867188,56.302303314208984 L525.0570068359375,57.55918502807617 L523.9313354492188,59.23236846923828 L522.8278198242188,61.195865631103516 L521.894775390625,63.252498626708984 L521.216552734375,65.1413345336914 L520.86181640625,66.6429672241211 L520.8656616210938,67.59619903564453 L521.240966796875,67.93138885498047 L521.9830322265625,67.64173126220703 L523.0562744140625,66.75251007080078 L524.3580932617188,65.31616973876953 L525.7603759765625,63.46654510498047 L527.1126708984375,61.432586669921875 L528.2708129882812,59.502384185791016 L529.1467895507812,57.930641174316406 L529.7062377929688,56.87403106689453 L529.9326171875,56.39242172241211 L529.861328125,56.50615692138672 L529.5296630859375,57.23084259033203 L528.98583984375,58.55253219604492 L528.3087158203125,60.34932327270508 L527.6143188476562,62.406005859375 L527.0134887695312,64.45623779296875 L526.6107788085938,66.27792358398438 L526.499755859375,67.6370849609375 L526.697998046875,68.39900207519531 L527.1643676757812,68.53104400634766 L527.6748046875,68.29472351074219 L528.0611572265625,67.96686553955078 M537.0128784179688,48.13067626953125 L536.9752197265625,48.26902770996094 L536.83203125,48.72819519042969 L536.5210571289062,49.67359924316406 L536.0106201171875,51.15744400024414 L535.31982421875,53.11763000488281 L534.515625,55.453426361083984 L533.6766357421875,58.03657531738281 L532.8799438476562,60.73982238769531 L532.1942138671875,63.38268280029297 L531.65576171875,65.71627044677734 L531.2869262695312,67.55892181396484 L531.09716796875,68.71989440917969 L531.0708618164062,69.13494873046875 L531.1708984375,68.88743591308594 L531.3126831054688,68.35518646240234 L531.4246826171875,67.84986877441406 M531.079345703125,57.97345733642578 L531.2020263671875,57.84302520751953 L531.5418090820312,57.686180114746094 L532.1895141601562,57.53677749633789 L533.1989135742188,57.424747467041016 L534.5663452148438,57.28119659423828 L536.2159423828125,57.06205749511719 L538.0369873046875,56.74124526977539 L539.8904418945312,56.3660888671875 L541.5968627929688,55.99465560913086 L543.0284423828125,55.704322814941406 L544.0895385742188,55.564788818359375 L544.703369140625,55.67546463012695 L544.862060546875,56.16417694091797 L544.574462890625,57.16804504394531 L543.8748779296875,58.743316650390625 L542.8890380859375,60.82398986816406 L541.803955078125,63.191341400146484 L540.7996826171875,65.54802703857422 L540.0750122070312,67.54701232910156 L539.7044677734375,68.92353057861328 L539.6687622070312,69.56829071044922 L539.8064575195312,69.68134307861328 L539.9718017578125,69.54127502441406 M546.7586059570312,50.2654914855957 L546.7380981445312,50.05703353881836 L546.7247314453125,49.81269073486328 L546.72119140625,49.61029052734375 L546.7301635742188,49.52765655517578 M553.5570678710938,55.4614143371582 L553.5985107421875,55.474979400634766 L553.5592651367188,55.50193405151367 L553.3247680664062,55.568580627441406 L552.8238525390625,55.747676849365234 L552.0728759765625,56.151634216308594 L551.1159057617188,56.8900146484375 L550.0376586914062,58.03076171875 L548.919677734375,59.585140228271484 L547.8538818359375,61.4661865234375 L546.9998168945312,63.51222610473633 L546.4879760742188,65.49545288085938 L546.383056640625,67.1954574584961 L546.6857299804688,68.4384765625 L547.2982788085938,69.11848449707031 L548.11181640625,69.18694305419922 L549.0513916015625,68.62699890136719 L550.0537719726562,67.46305847167969 L551.0552978515625,65.81605529785156 L551.9861450195312,63.874534606933594 L552.7827758789062,61.85709762573242 L553.4269409179688,59.95966339111328 L553.9405517578125,58.31565856933594 L554.385009765625,56.994266510009766 L554.7927856445312,56.05954360961914 L555.1663818359375,55.56441116333008 L555.514404296875,55.56854248046875 L555.8148193359375,56.08949661254883 L556.038818359375,57.11655044555664 L556.1649780273438,58.58177947998047 L556.1505126953125,60.379638671875 L555.9703369140625,62.36036682128906 L555.6495971679688,64.33394622802734 L555.2429809570312,66.07923889160156 L554.8396606445312,67.44631958007812 L554.5393676757812,68.3359146118164 L554.4022216796875,68.69033813476562 L554.45361328125,68.47247314453125 L554.6997680664062,67.63856506347656 L555.149169921875,66.20755004882812 L555.813720703125,64.36383056640625 L556.735107421875,62.35064697265625 L557.92041015625,60.4235954284668 L559.325439453125,58.77776336669922 L560.8411254882812,57.50481414794922 L562.313232421875,56.64719009399414 L563.5789184570312,56.26048278808594 L564.5565795898438,56.36451721191406 L565.215087890625,56.979583740234375 L565.5707397460938,58.09154510498047 L565.6463623046875,59.61943054199219 L565.487548828125,61.429805755615234 L565.1464233398438,63.35865783691406 L564.7034912109375,65.21875762939453 L564.237060546875,66.86695098876953 L563.820068359375,68.22685241699219 L563.509765625,69.21751403808594 L563.3572998046875,69.80767822265625 L563.3775024414062,70.01371765136719 L563.4888916015625,69.97535705566406 L563.60888671875,69.84550476074219 M569.2598266601562,60.443359375 L569.29345703125,60.41609191894531 L569.4091796875,60.382930755615234 L569.6810302734375,60.35483169555664 L570.16748046875,60.32551193237305 L570.92431640625,60.27657699584961 L571.9237060546875,60.19415283203125 L573.1111450195312,60.07342529296875 L574.4533081054688,59.92270278930664 L575.883544921875,59.76389694213867 L577.3025512695312,59.59963607788086 L578.4366455078125,59.468326568603516 L579.1347045898438,59.384830474853516 M588.095947265625,51.61882019042969 L588.0640869140625,51.84624099731445 L587.9530029296875,52.41016387939453 L587.7222900390625,53.44935607910156 L587.3458251953125,54.999366760253906 L586.8407592773438,57.04940414428711 L586.2520141601562,59.51189422607422 L585.6287231445312,62.224403381347656 L585.0184326171875,65.00065612792969 L584.4671630859375,67.60404968261719 L583.995849609375,69.80516052246094 L583.6614990234375,71.32461547851562 L583.4760131835938,72.13911437988281 M586.4354858398438,48.695167541503906 L587.1268920898438,48.11833953857422 L588.297119140625,47.315330505371094 L589.8546142578125,46.50114440917969 L591.496337890625,45.992496490478516 L593.0609130859375,45.862937927246094 L594.3868408203125,46.14165496826172 L595.3693237304688,46.77314376831055 L595.8970947265625,47.726749420166016 L595.93505859375,48.93809509277344 L595.4502563476562,50.33787155151367 L594.463134765625,51.86613464355469 L593.0795288085938,53.490135192871094 L591.4761962890625,55.16160202026367 L589.8556518554688,56.83981704711914 L588.4188232421875,58.47332763671875 L587.2958984375,60.0115852355957 L586.5242309570312,61.427146911621094 L586.1021728515625,62.74164581298828 L586.02294921875,63.97926330566406 L586.2484130859375,65.15394592285156 L586.735595703125,66.23237609863281 L587.461181640625,67.16383361816406 L588.3577880859375,67.8884506225586 L589.4117431640625,68.32667541503906 L590.6000366210938,68.43152618408203 L591.8460083007812,68.20850372314453 L592.8658447265625,67.84884643554688 L593.521240234375,67.53314971923828 M599.037353515625,56.51668930053711 L599.0756225585938,56.43241882324219 L599.0814208984375,56.38866424560547 L598.9855346679688,56.52850341796875 L598.7083740234375,57.00889587402344 L598.2112426757812,57.9172248840332 L597.5626220703125,59.22586441040039 L596.85595703125,60.84354782104492 L596.2115478515625,62.61778259277344 L595.7459106445312,64.38204956054688 L595.5068359375,65.95481872558594 L595.4935302734375,67.19915771484375 L595.720703125,68.01177215576172 L596.1787109375,68.34021759033203 L596.86083984375,68.15066528320312 L597.77978515625,67.42796325683594 L598.900390625,66.18121337890625 L600.166259765625,64.50682067871094 L601.5208740234375,62.58600997924805 L602.8898315429688,60.6641960144043 L604.162109375,58.97944259643555 L605.2438354492188,57.68735885620117 L606.0323486328125,56.84758758544922 L606.4608154296875,56.4930419921875 L606.5111083984375,56.65266036987305 L606.2041625976562,57.37767028808594 L605.5820922851562,58.685020446777344 L604.734130859375,60.47528839111328 L603.7883911132812,62.53889846801758 L602.9053344726562,64.62287139892578 L602.225830078125,66.47523498535156 L601.830810546875,67.92872619628906 L601.7406005859375,68.90022277832031 L601.9329833984375,69.35282135009766 L602.3660278320312,69.2710952758789 L603.0228271484375,68.6546859741211 L603.8881225585938,67.5222396850586 L604.9117431640625,65.98058319091797 L606.0503540039062,64.19152069091797 L607.259765625,62.345130920410156 L608.458251953125,60.616233825683594 L609.5672607421875,59.148895263671875 L610.50439453125,58.0299072265625 L611.1640625,57.34465026855469 L611.5086669921875,57.16516876220703 L611.5496826171875,57.53597640991211 L611.3090209960938,58.471614837646484 L610.831787109375,59.90147018432617 L610.187744140625,61.6474723815918 L609.4649047851562,63.46630859375 L608.7880249023438,65.1316146850586 L608.25830078125,66.47077941894531 L607.9315185546875,67.38932800292969 L607.8140258789062,67.81643676757812 L607.8863525390625,67.69918823242188 L608.1502685546875,66.99747467041016 L608.6309814453125,65.74913024902344 L609.3598022460938,64.09799194335938 L610.3680419921875,62.24852752685547 L611.6408081054688,60.412750244140625 L613.0985107421875,58.75775146484375 L614.628662109375,57.41465759277344 L616.075927734375,56.45698928833008 L617.2977294921875,55.96319580078125 L618.1966552734375,55.97446823120117 L618.70556640625,56.504764556884766 L618.8094482421875,57.50598907470703 L618.56396484375,58.9168586730957 L618.0426025390625,60.6036376953125 L617.3543701171875,62.43672180175781 L616.63330078125,64.26625061035156 L615.9788818359375,65.95655822753906 L615.4755249023438,67.36414337158203 L615.171142578125,68.40264892578125 L615.0491943359375,69.03973388671875 L615.0379638671875,69.34109497070312 L615.0732421875,69.427978515625 M627.9736328125,64.28666687011719 L628.3895874023438,63.879600524902344 L629.1781616210938,63.09935760498047 L630.3225708007812,61.94869613647461 L631.6800537109375,60.531593322753906 L633.1665649414062,58.926029205322266 L634.679931640625,57.22097396850586 L636.156494140625,55.507850646972656 L637.5380859375,53.89952850341797 L638.75830078125,52.523582458496094 L639.7581787109375,51.44321060180664 L640.5170288085938,50.68804931640625 L641.005859375,50.271820068359375 L641.21435546875,50.23286819458008 L641.1337890625,50.66163635253906 L640.758056640625,51.67317581176758 L640.0880737304688,53.30098342895508 L639.1783447265625,55.470794677734375 L638.1135864257812,58.025657653808594 L636.99560546875,60.74256896972656 L635.9336547851562,63.43498229980469 L635.0267333984375,65.9373779296875 L634.338134765625,68.11270904541016 L633.906005859375,69.8360595703125 L633.791259765625,70.91204833984375 L634.0067138671875,71.2039794921875 L634.5253295898438,70.73368072509766 L635.1029052734375,69.94414520263672 L635.548828125,69.24473571777344 M648.05078125,51.778045654296875 L647.9917602539062,51.50012969970703 L647.78271484375,51.21855926513672 L647.3458251953125,51.164772033691406 L646.625,51.60686492919922 L645.63916015625,52.63379669189453 L644.46826171875,54.20962142944336 L643.2086181640625,56.198490142822266 L641.9778442382812,58.454811096191406 L640.9005126953125,60.8233642578125 L640.0582275390625,63.142459869384766 L639.5230102539062,65.25707244873047 L639.3319091796875,67.02214813232422 L639.4832763671875,68.32716369628906 L639.9447021484375,69.12394714355469 L640.6784057617188,69.40962982177734 L641.6168212890625,69.19477844238281 L642.7015380859375,68.49781036376953 L643.8724365234375,67.34713745117188 L645.0748901367188,65.78334045410156 L646.2401123046875,63.87910079956055 L647.3207397460938,61.745399475097656 L648.256103515625,59.49977493286133 L649.0078125,57.270023345947266 L649.5274047851562,55.14726257324219 L649.7784423828125,53.20395278930664 L649.7208251953125,51.500797271728516 L649.3472900390625,50.11115264892578 L648.6336669921875,49.123714447021484 L647.576904296875,48.62889099121094 L646.53857421875,48.502906799316406 L645.77197265625,48.57815933227539 " fill="none" stroke="black" stroke-linecap="round" stroke-width="2" /></svg>