<?xml version="1.0" encoding="utf-8" ?>
<svg baseProfile="full" height="100%" version="1.1" viewBox="0,0,1000,120" width="100%" xmlns="http://www.w3.org/2000/svg" xmlns:ev="http://www.w3.org/2001/xml-events" xmlns:xlink="http://www.w3.org/1999/xlink"><defs /><rect fill="white" height="120" width="1000" x="0" y="0" /><path d="M0,0 M254.5664522116039,48.344337617197006 L254.33908452736947,47.686077928320884 L253.87460611747153,47.01425012684258 L253.18338967828856,46.13094143366402 L251.86386606965507,46.29066415125605 L250.01260796243002,45.732284918909414 L248.00528395728358,46.13398721397837 L246.18415900344047,46.63197874723541 L243.761303002416,47.26091703930964 L242.68426307799837,48.404476579628366 L241.02730075304584,49.555468306965224 L239.1461835821541,51.1900569290749 L238.90783651767197,52.68727977385676 L238.9951501813187,54.43474576040882 L239.6083242342377,56.069842804761365 L240.6897644600556,58.03460207679625 L242.50810661645664,59.37894726021141 L244.7239982826768,60.724023092734924 L246.99821487057065,62.41594060211136 L250.28819626078524,64.25192129578967 L252.13678108576383,65.45125951215682 L254.52308064170734,66.81605640160576 L255.83178367461468,68.49307690029283 L256.93238555709576,69.79364344458527 L257.1778604784562,70.51516540154343 L257.3949603106557,71.63087056447057 L256.90019959841834,72.51281375032221 L255.83240994801474,73.49682064086535 L253.53068451375103,73.91535555692383 L251.68668932887277,74.53940419664147 L248.90107408822442,74.67861845490195 L246.28009583126857,74.87683024405878 L243.50965590987897,74.72890337420844 L241.1687972348011,74.47013447345103 L239.3747431207842,74.37131450439917 L237.77431428804297,74.02016209689629 L236.60557194504972,73.9692562183201 L236.9024905830043,73.21544246549492 L237.34340033558263,72.94037233210919 L237.5579492205273,72.38271353307881 L238.40145218016968,72.16652807353408 M262.3762477808078,45.346010059081365 L262.39732085401056,45.36731157229464 L262.6169268165267,45.0 L262.8138515270108,46.09314791477857 L263.11620666495037,47.11808871345801 L263.0053673420192,48.53321008782269 L263.1484660407869,50.37206356058863 L263.6640568188432,52.752854629447846 L263.85264222017406,55.86579276680731 L264.1726133980611,58.70094415195912 L264.2120514572765,62.08339677626979 L264.5607793122886,65.75588627135079 L264.26834027192876,68.48019222401363 L264.2673676760245,71.11225251535714 L264.41463373752674,73.15351746017106 L264.3826541476695,74.54294012386134 L264.59193069273147,75.38284579950525 L264.68466953966254,75.37240885057155 L264.36505795648975,75.14783048622446 L264.20743836768145,74.27010079276342 L264.02542286297233,73.77244766385542 M259.762186661906,64.43159901078525 L259.6727094019823,64.50952736465679 L259.78245819954,64.13891759541593 L260.34463321258437,64.89771090166641 L261.46990242427825,64.48945586040249 L262.10375712558056,64.84470741345874 L263.601880570015,64.96748744748564 L265.4636512865382,65.38887849251796 L267.3393763824288,65.07400789731075 L269.2865010839629,65.47255194223999 L270.8258536621472,65.2635250097022 L272.01981057841397,65.13799978803024 M275.29063570188185,65.49986515376904 L274.9984075212208,65.34176083924822 L274.60596097319325,65.41732917809692 L275.1781186489753,65.53466178716484 L274.95691481534453,65.63167062047471 L274.9762259824356,66.31721549518558 L275.03787011788006,66.44896451395724 L274.84747792073745,67.40126022856263 L274.5682271996662,68.78195604687251 L274.4305637624822,70.20132021213331 L274.81730847970687,71.88670501785123 L275.5849930827974,72.94180577270312 L276.3509182130384,73.37190351120842 L277.1349924213507,73.9874342564684 L278.3011498444614,74.17237717167735 L280.12120393848915,73.74793275239533 L281.33762154224934,73.07077662528357 L282.70353857263285,72.24745158798862 L284.1950958429889,70.51027261447801 L285.5839545722739,69.52281750408181 L286.6639019449482,67.56834346873083 L286.6712438100145,67.19437620314287 L287.35710483427926,66.41167178005207 L286.98960790298514,65.54494746496931 L286.13914428270016,64.94842329810398 L286.29191946205685,65.33819372466446 L285.45900285466223,65.68151639594497 L285.06911189800525,66.54261480269454 L284.1846433039243,68.01453249069341 L284.25473759524647,69.77440452386425 L283.41949638969743,72.24009293580964 L283.4263237518386,74.21592418991716 L283.44667150374266,76.56669996637319 L282.77198677786413,78.85971093676802 L282.9290163770642,81.04506765602908 L283.10596365033564,83.07164212130881 L282.9755948063781,84.7320582056293 L283.3241800075096,85.70213745376623 L283.3649473922658,87.03244699039844 L283.569006564283,87.81482203112935 L283.4559767406116,87.66567975459446 L283.6018904024611,87.9415051179878 L283.6157969973532,87.05004364412557 L283.1631327319159,86.00898644750447 L283.43280423188946,85.02408990441273 L283.32605828486004,83.55810853362351 L284.00464894482775,82.10883585156829 L284.25537284246246,80.32925280506393 L284.72899779751685,78.27595896893924 L285.4275895515555,75.88689629470457 L286.48317668039175,74.44979267765797 L287.2931838408085,72.77787154076546 L288.6368506427482,70.92113136704201 L289.8338056164882,69.53977006984783 L291.26637338353197,67.91616793768141 L293.00010407365664,66.78936409652249 L293.9565641749135,65.62438426691996 L295.08285887656405,63.92640160586114 L296.40830541196897,62.71891514604018 L297.75903742507677,61.58628638079215 L298.96455172219567,60.02305159770305 L298.99916428528735,57.77466075401005 L299.23920255944716,56.03628187781094 L299.5807016865944,55.10845581743097 L299.6579293186957,53.184858595227325 L299.532211028248,51.60235048416424 L299.27089199168034,50.387968843203986 L297.85698905421134,49.44024505018803 L297.2775115643376,48.91613130945437 L296.6308788010357,49.25565943404034 L296.03045978889776,49.489949001271654 L294.9629005057722,50.83679212857902 L294.2065922051816,51.8788713635732 L293.94011327852934,54.00795362375426 L293.4094950774607,55.97027346736334 L292.6827013512985,58.05232413230193 L293.0612256275914,60.36281370368101 L292.8560833965942,62.74948290705472 L293.32662172104705,64.79287883641645 L293.4788706217073,66.62303160197924 L293.8168318423852,68.22603302904795 L295.06185510196076,69.64367858071049 L296.4023697818317,70.06731008028348 L297.3709229301303,70.39432203176281 L298.7448732291178,70.60489601313185 L299.60685455879997,69.69861752073837 L301.4393700311699,68.72994138187951 L302.74247081578636,68.03083303377949 L304.2547121892788,66.50894870918988 L304.4504147643207,65.55243432658705 L305.3767394421808,63.93159281720319 L305.196830391362,62.36467956995241 L305.09089832648147,62.50912468110445 L304.5195192018881,60.852913148404184 L303.4657887443061,60.43817766881157 L302.3451367823103,61.019395677672236 L300.7079531771043,61.631324494864444 L299.583445813961,62.66713313980232 L298.9400609573502,63.54394683721252 L298.27440528619536,65.00006715263909 L298.8680669218809,66.36173125422602 L299.09935385314014,67.84840912812557 L300.7073639814986,68.6560878401214 L302.55742352772245,69.50919098291043 L304.7677548858678,69.86707413428493 L307.550086255779,69.6779938956839 L310.14105247246,69.79736118130455 L311.7846519927376,69.49071339346438 L313.1913477421583,69.37395355592862 M327.48955399815276,52.98729418220733 L327.8140901487176,52.57698958032147 L327.75612453336515,52.11495632752277 L329.1017424685914,50.706226201041616 L329.3463522035514,50.10364317817675 L330.50313874523715,49.03437323864553 L332.57679172761675,48.02197989353762 L333.8156979230155,47.26467117456195 L335.9531744659058,47.60264933540115 L337.35746547302267,47.92751540550263 L338.97607259125255,47.9629799024676 L340.48302126679357,48.07179615223496 L341.5156449974077,48.82487722831167 L341.6576879914225,49.481058432825314 L341.24871676745806,50.27312959476919 L340.8023603688267,50.970187165271334 L339.6673457821962,52.15758603687037 L338.47665714621314,52.533878743395505 L337.1978474867135,52.9660858540547 L336.1922055023625,53.63810158075741 L334.97333271974173,53.656852159785466 L334.3182402824982,54.265728467421994 L334.1689185851894,54.1854548624292 L334.5810155617983,54.577765736247656 L335.44166809411263,54.63316142174664 L336.52704443215686,54.9937739965996 L338.2654855121578,55.17781341636913 L339.6464981248463,55.510378227614865 L342.17147954033743,56.48756330881188 L344.201456201099,57.36888685939399 L346.4614254777695,57.56548426879017 L347.84969747525724,59.10296200332062 L349.47984866404875,60.023510918638394 L351.21601043449846,61.1188642392782 L352.1255588691183,62.224209979451615 L352.46082357305767,62.71054593061184 L353.1808477959265,63.3986400929756 L352.59450692877755,63.86340325438197 L352.00717471507255,63.97375366022126 L350.9509907051848,64.20468696243644 L350.10483424281955,65.2230943489882 L347.87406009891663,65.00396103134108 L346.04025599577636,65.30372457379387 L343.458557853572,65.73772357823073 L340.6690454714594,64.90604030000613 L338.12274812972623,65.47497500229669 L335.0303114893302,65.26587270523866 L332.97846703058747,64.81993611795458 L329.81973773022077,64.79138025963866 L328.47074583493753,64.69843738896257 L326.5539217958744,64.0129913739799 L325.47752633209075,63.78844821215981 L324.63682137720184,63.12978688581412 L324.6707734834175,62.71174189926631 L324.4081348507783,62.432241983672284 L324.83076791581664,62.449334786281064 L325.434711632488,62.25372067779476 M356.5873522389435,60.99669381148636 L357.06317773244405,61.15835399674513 L356.69730688957657,60.7884484753282 L356.87252855962953,60.89802120237119 L356.74131603379135,61.195513893492866 L356.783836869025,61.20720846235496 L357.02690863801297,60.90367376485124 L356.9258383092816,61.078754185698784 L357.0767568324901,60.96490312004887 L356.60709039384824,61.20340891992435 L356.74785973004475,61.19970214695907 L356.68607874899664,61.05840107485737 L356.7251645085421,61.14577650183705 M360.3175285185857,63.78357560327204 L360.37670109441444,63.45687539736693 L359.8516411672822,63.73408354436822 L360.1659491095925,63.471598254725116 L360.1099421600147,63.63827526465962 L360.4225462953864,63.28925262063086 L360.0349926834849,63.172782168648205 L360.0399803941199,63.318860508151836 L360.4811761274652,63.90770305041399 M380.6989598215471,50.9552281085184 L380.80456059152993,50.84921886732572 L380.9029126454453,50.85893235213569 L380.9242801637969,50.67218972130238 L380.7418332418458,50.32862431991983 L380.41234516292866,49.36564684378237 L380.20104244964864,49.14412925798226 L379.32870610641226,49.396703072802865 L377.8415791815628,49.20518212047216 L376.60255992337346,48.977653298442725 L375.0658582456409,49.322706880628346 L373.44517448709735,49.93973886613845 L372.34412981179685,50.69759975682117 L371.7503071937511,51.58530139802511 L371.8621682663788,52.407408425436266 L371.7807376088681,53.26067257690345 L372.65977508556784,54.45630116307049 L373.7315561718941,55.59228992916229 L376.1149923407989,56.812599094992116 L378.1361061386554,58.240819506640385 L380.6484811510241,59.506246158132605 L382.7708723119995,60.63428385053094 L385.33587330704313,61.594419227262144 L386.7410664219039,62.88217562259052 L388.4472205523459,64.03920649932955 L389.395462528499,65.47110689934267 L389.3680229438434,66.5271386334773 L388.71901038565886,67.37292447215539 L387.5601743531479,68.24605325005025 L386.453595484047,69.22386959711227 L384.4784709930522,69.56258370435958 L382.56239563324755,68.80429789520998 L380.5242248316499,68.99015539670553 L378.2472548803696,68.2909538292752 L376.1975337662604,67.59443438541736 L374.2905190906754,66.83350328619063 L372.7873633869008,65.9992554614446 L371.52181743819335,65.13184406107037 L371.19175102656425,64.22281618620923 L370.45823113939207,63.46007866513074 L370.31025531205216,63.331245863996294 M395.57616768657834,46.27331649490044 L395.6009081018524,46.62031656357238 L395.23382998543025,46.81453937939113 L395.65676781522507,46.71934610972673 L395.9286079898201,46.949978911597086 L395.90375850144267,48.53047629868678 L395.766971392347,50.444066317431584 L396.45759391642605,51.99245140562878 L396.6142941381231,54.44269332690422 L397.17613095608857,56.72580266007719 L397.2774573559833,59.578331602162585 L397.22515784180825,62.31918422057435 L397.21319868059743,64.66993291037318 L397.59156065938555,67.17466596450224 L397.80794638299835,69.56447770729129 L397.9225889412614,70.92879833972502 L397.82694438102345,71.68447419540605 L398.1372863114222,71.92196092332325 L398.0537097373269,71.37994599479147 L398.51946047069157,71.28842537664835 L397.62891024262325,70.95440217162 M395.5610164292593,62.96122045030528 L395.73220545832226,62.80708981943538 L395.88191362886494,62.80209508249837 L396.0051279990977,62.914537752303175 L396.63692829690046,63.217760321624375 L398.1463096597223,63.15643829101265 L399.5610949891525,63.57630349230793 L401.3237945174378,63.12081914047572 L402.9339831398124,62.59022665707453 L404.75525507041027,62.301229320542106 L406.3965437527324,62.40903718401004 L407.40213864234454,62.04837509273232 L408.52984378511394,61.56625578706609 M413.1856931943736,58.933784322101836 L413.6091189760294,59.27608309306231 L413.23146002090044,59.67782084733738 L413.9136286695705,59.77959069875359 L414.4110763814326,60.80503275278585 L415.36206242902676,61.27562629012174 L416.306059545517,62.22956472693136 L417.19963721557957,63.2573584826709 L418.591990521346,64.58539172365835 L419.36854263215525,64.95462418335572 L420.7672618677086,66.17226793680568 L421.6910106214223,66.54991559831895 L422.72088440219795,66.64652942606466 L423.67958324804766,67.39093567605049 L424.04417663281106,66.32272905568122 L424.8287974345287,66.69971689475473 L424.76408311476223,66.19894872208579 M429.38148358048255,62.65945896187855 L429.5131040286533,62.46419408814543 L429.5332711942554,63.13307434160262 L429.3485698633142,62.91518225344103 L429.31504110533035,63.80802230873269 L428.48249687910936,64.20662233022071 L427.583570345565,65.39249746986972 L426.96215545452276,66.52906672733712 L425.89558618699033,68.33839610667626 L425.2807366639905,70.24195569158022 L423.6800820201179,72.33833567985408 L422.96654646783395,74.74644278420362 L422.22391402070775,76.28808120120756 L421.12346382346664,78.55376757732049 L420.99479212664033,79.87084975726694 L420.6460241275622,80.98561979236558 L420.5297092912642,81.7508586813787 L421.0728432119555,81.73795503543738 L421.9211606662875,80.83035289866929 L423.2052572538118,79.89352370707051 L424.07929776288756,78.83495350526897 M441.1659360457819,48.360765195843385 L441.45565268346843,48.317818094782744 L441.23919534002835,48.98032315938241 L441.260064351487,49.487386147065855 L441.1101705475334,49.87607977421518 L440.99960670988474,51.337137751498844 L440.3993895075714,53.37004017356331 L440.43877524850654,55.610678035571226 L440.2312936541937,57.637769822691084 L439.67875140935973,60.18584424769813 L439.96424364042855,62.50281821234657 L439.62193909601217,64.64325905316413 L439.6132659720173,66.00290336700152 L439.8117210672451,68.04060718369946 L439.90372545167713,69.02040819102213 L439.7615614454594,69.63789045019763 L440.1099991831299,70.29337936186876 M445.7889466014269,68.25324625392484 L446.07075449073443,68.24982608851366 L446.3085198892294,67.99573476668282 L446.60978791029044,68.50955551097898 L447.89548232587435,67.97402437157555 L448.9409705921147,67.20074539936218 L450.4309693432723,66.79389050139878 L452.5346491328525,65.82876966851263 L453.5830679752146,64.92319830091972 L455.40524567939883,63.289242316491155 L456.48235044792074,62.89413367980364 L457.3477104693477,61.49423146592107 L457.3736452756431,60.705629617925936 L456.7209772352825,60.12430856255752 L456.3485532728844,60.13149848469449 L455.29098520878335,59.85930913518288 L453.2221638253203,59.82198045937252 L451.55914222974167,61.14231960079895 L449.7490535536023,62.220421433558904 L448.06215021367177,63.48290290007455 L447.15262605995144,64.31232172393528 L446.46693911127136,66.46394676227669 L446.9743805560271,67.9344470694123 L447.7038584102224,69.32164192444282 L449.18614640146075,70.11584710388063 L451.7320393153052,70.92407631482239 L453.8402853595293,71.32669633016738 L456.8883766698956,71.48056662350986 L459.70202174056965,71.12316889369012 L461.83494944913537,70.71460239440745 L463.90989901696156,70.54672202267612 L464.9103143993622,70.2875335529877 L466.0672997932698,70.07248704249227 M486.2670620049027,65.34732986766161 L486.3208689457346,65.17319939945584 L485.7459749144792,64.34961011757768 L485.79375037953565,63.9422949554361 L485.156906062543,63.53728561147097 L484.67515617405985,63.020950449754885 L483.4095846498279,63.04145530635624 L482.1924255913494,63.49916493422494 L481.24506617968524,64.32816393712102 L480.2049252682113,65.04077120358825 L479.3196926462961,66.29418658542902 L479.3324978441896,67.7250540114578 L478.24824505723683,69.23131616861914 L479.21437831888517,70.44858516899191 L479.89913614379367,71.37307158199853 L481.0955714103034,71.56915929852838 L482.45286707673796,72.05721426123878 L484.2443969182976,71.25932407031642 L486.5591116533978,70.41976013154505 L487.79325733923434,69.57322634196855 L488.8815900516111,67.75564531135299 L490.62813702183433,66.03933230464774 L491.01527952642135,64.50417922057703 L491.43777867190323,63.35427039370261 L491.2554101869911,61.70808956373052 L491.0029160492931,61.192168408162914 L490.8890897696146,60.751889524519555 L490.71642289253845,60.672217571905826 L489.99100695738076,60.98406875420308 L489.53308764206,61.61698286574533 L489.13564717315074,62.96417152877477 L489.510510431192,64.17804293862042 L489.7204031265223,65.15707227386132 L490.4348723845795,66.60875743787741 L491.07754080327715,67.67671114113816 L492.5456936740134,68.7523865563943 L493.6683993315335,69.81359552338739 L494.3587898144544,69.88504410711818 L495.3522735507633,70.06768547613645 L496.5914378774591,69.39175266200756 L496.8042461929529,69.36350012322119 M502.8237018532914,61.15143109444703 L503.09117217766214,61.15649762121952 L503.15311130517017,61.66291048580936 L502.8595502483693,62.52553246147805 L503.15388705804395,63.51751115598272 L502.55459452635506,64.84574042362237 L502.4957175729409,66.79576593096438 L502.11918184579537,67.36857939132426 L502.45102877431685,68.30790541088706 L502.0865564801383,69.46614030236655 L502.26300574920623,69.59849485651675 L502.20060881256455,69.0660684811264 L502.15822522654975,68.3267390131589 L502.78464821980555,67.95577230504243 L503.1275914050663,65.98865877598497 L503.6669402084431,64.93886752277047 L504.66730089630715,63.120436809700145 L505.4912561048313,61.84008184262408 L506.36606440521615,60.57927651248659 L507.3743043990224,59.968606939702916 L508.33604145030137,59.81683897487149 L509.141052807186,59.35225033409269 L510.5245066508673,60.71813067862354 L511.0021380278002,61.22392061633368 L511.66045719615494,62.21849944409432 L512.501730197401,63.52440526337768 L512.4698309401417,64.90605268772327 L512.4024754322852,66.77824719858218 L512.8360961430851,68.2629352674914 L512.7745133427161,68.88859650921293 L512.7152491788236,69.85884703053553 L513.4908872520764,69.89191096254748 L513.4851183138035,70.31531243329108 M529.6186079496292,64.43170647680626 L529.2881908216063,64.30036123807314 L529.299690906528,63.88146391624092 L528.5034734629987,62.86012917341286 L528.1286157242941,62.81349343157661 L527.1324114335764,62.36182991844911 L525.4636690148889,62.08516393710111 L523.6748168546626,62.624132664246744 L522.375940477337,63.06657332853192 L521.5750307951587,63.24780462313514 L520.2513047658019,64.52282673098908 L519.5596902514633,65.89153743662442 L519.4093175867874,66.8251109642824 L519.8191282094306,68.09094293452338 L520.9224416594543,69.09718078592455 L521.9515633629921,69.67996379482383 L523.8495720573478,69.7950323772972 L525.8356568432146,69.40908630959507 L527.1610712570373,68.48057875271441 L529.6361107259406,67.67020385023486 L530.8147238171325,66.04409033801774 L532.372657568242,63.99014021775025 L533.2828006845966,62.27229449100734 L533.9422692624173,60.41330265774846 L534.5287630580403,58.32404988139021 L534.6777924377604,56.004479355976656 L535.1073542692811,54.27180369644792 L534.9675857758452,53.45110031990512 L535.2401809130711,52.5425928162241 L534.8028978464163,52.106157860282224 L534.7988871124978,52.08754002900044 L534.8967728264838,52.207113947595786 L535.3055167887906,53.56200325037946 L534.6843961787285,54.65273732391497 L535.1404044224794,56.65969864417786 L535.2446991297309,58.76876063804919 L535.3551909118498,61.0657296257316 L535.5391507764461,63.026028873557216 L536.0492462442337,64.82884237148032 L536.2691474414146,66.30629652493707 L536.3987712190903,68.10786535677806 L536.5554342508262,69.12211478938298 L537.2253360361101,69.44211759664395 L537.7022073399644,69.38750100441449 L538.0124874476696,69.59177054976402 M559.1070926771777,63.19719910763696 L559.2056704470599,63.42425643036583 L559.3494376780616,63.82944879393229 L559.2933017507887,64.89055428695042 L558.9800092325513,65.49843017848903 L559.2969070171512,66.56941512259976 L558.8284364044714,67.5572711611594 L558.4341782418287,68.49161582146516 L558.1151573144025,69.77124241752918 L557.9117182148282,70.34349586981338 L557.6099927518567,70.73564672131185 L557.4532820826614,71.24228017296997 L557.4714194181502,70.35345695945847 L557.5784104960801,69.52119344650364 L557.5334033865126,68.59991059742404 L558.1073968877774,67.4265066985826 L558.423627827086,65.52180145873123 L559.2775898738403,64.05078547822626 L559.9268077979318,62.20068580409772 L560.9829567824174,61.16024155954633 L562.0864998281891,60.38863742182719 L562.7368692596062,60.05209794539566 L564.1787168623086,59.5077279271421 L565.1254042207447,59.54059278424128 L566.2298597652357,60.53773279307208 L567.036288456073,61.55834871183298 L567.8433396045598,62.93098060163228 L568.5409319069317,64.32372133712752 L568.1441992678351,65.76428702610858 L568.0752839010693,66.88287152657111 L567.5866105762968,67.9590602998278 L567.2372802715709,68.87476643406383 L567.4003508024789,68.19283267859095 L567.1709894927394,68.65324422638136 L567.294801647827,67.95245391734731 L567.1994535630804,66.86314976204373 L567.5774555137598,65.88851933703472 L567.9620727287413,64.32221666706668 L568.2769710773355,63.56066928534524 L569.4159052150678,61.84098500861361 L570.5094405135694,61.11187123632483 L571.1242845645222,59.55641442393285 L572.3294443520422,59.621583653050685 L573.7920187602042,59.401000158786516 L574.7786412446351,59.81987322793803 L575.8085851595783,59.794927517248745 L576.7058335286363,60.76833117293299 L577.3513987189801,62.02504600723728 L578.2140128766882,63.29233585951672 L578.4061554855843,65.00557179340758 L578.7656848935808,66.22380267674863 L578.6543875660873,67.32401078557191 L578.5942715127603,68.66110252891978 L578.8891659798535,69.67952985627038 L579.0202272816589,70.32610901152304 L579.0457601253672,70.51107350532106 L579.1796398998285,70.61822644957617 L579.5824883977568,70.61509070985376 L579.356834456778,70.37604638655462 L580.2547527926699,69.8976609197349 L580.2114012521854,70.04065576111736 M586.9776365322434,67.40762717070297 L587.2018855975389,67.50507995789283 L587.5978263037566,67.26826165139101 L588.9640862482731,66.76178017961263 L589.6765459224628,66.63628047288064 L590.7652073904053,65.64178204930532 L592.1791291094432,65.11173356111107 L593.5960073371004,63.92371711883551 L593.9486035049472,62.8276863890108 L595.2461114564737,61.86747478731961 L595.020143673009,61.17592570004942 L595.0256184637174,60.51467877448448 L594.3232588714677,59.93449187556756 L593.0713394517823,59.99173081607255 L591.7047630411005,59.94510546779944 L590.2997861526303,60.82806283333906 L588.9803965782305,62.0513569716323 L588.2147672482356,63.497515970345574 L587.3009667971496,64.87904772289474 L586.8255979680362,66.70028319797778 L587.2568040827632,67.08957948828639 L587.4224133078437,68.80804230150333 L588.3062064188284,69.23875146808831 L590.3418230695383,70.03941377930806 L591.5936213125663,69.9548338304574 L593.7105514289665,69.6502841649548 L596.0372800784203,69.12918921236826 L597.6357611164733,68.8338180741588 L598.804442179536,67.88796710038999 M609.6737755240438,61.8663023883184 L609.6160292100265,61.95638516612698 L609.3040587978414,61.68073644826272 L608.241738373194,61.14996403665247 L607.2868380913771,61.28236063067915 L605.7052998631709,61.75294288430685 L604.6034365206099,62.187629102654164 L604.0004221538763,62.94387274947495 L603.5439743840307,63.25310970281522 L603.1988406643859,64.13937480655139 L603.8586492376057,64.92980745204888 L605.7724031471828,65.75639928758423 L607.2700266561153,66.33688923377656 L609.1945439717554,66.88650355626203 L611.2568616251674,67.04466796351468 L613.431599911703,67.09656937128244 L614.206629071904,67.6700782988238 L615.3705655110587,67.63207533941213 L615.7008759414243,68.12432741608494 L615.360347059644,68.30989566340325 L614.4463677433,68.90148330781271 L613.0481705738966,69.26889620403949 L611.6599147613224,69.80301355821618 L609.5911654243173,69.89835261123797 L607.5485989092831,70.27144277313855 L605.9149874781415,70.4731931552455 L604.7302866172588,70.31336839610886 L603.5408796938241,70.79240561483269 L602.9836141918652,70.63296184335171 M625.5102867707249,61.242594227707805 L624.9229036172169,61.42559685123754 L624.5392823560851,61.117057309624656 L623.4775357858332,61.000738355492246 L623.1667862247152,60.890210655223875 L621.3232826367557,61.07345178974583 L620.8591419506581,61.174804115278135 L620.4911709576979,62.40441820137042 L619.5979678080732,63.094118742163154 L619.731239865547,63.80916492122339 L620.6574171832804,64.00104397210306 L621.9114332912332,65.0226649905156 L623.1387899125891,65.53856660422048 L625.5708261154837,65.77615957073375 L626.9464363783368,66.24841545291194 L628.9256998235635,66.30857811424458 L630.1968792976706,66.6674716602004 L631.0516364845034,66.76897427717446 L631.2558242967193,67.36845845780402 L631.5209589563826,67.14229732076481 L630.7744313729429,67.65272651479404 L630.2603104332545,68.0897685760069 L628.2367720532854,68.36064375118228 L627.1989677190954,68.83670081213114 L625.2129066837556,68.91936505268465 L623.342173300282,69.24398809824581 L621.5508559550178,69.50692528036632 L619.9141109297111,70.01709056213835 L619.3602776349996,69.23054828314747 L618.7950568309373,69.09692876264808 L618.8045424561344,68.68466882210198 L619.4216052515872,68.60235628602892 L619.6084792662487,67.94917542834395 M633.0985385553467,61.5013947094569 L633.1784422880421,61.10347807494103 L632.8098226459035,61.74500157958779 L633.2758315225014,62.16589963759799 L633.6800048582181,63.56195600963005 L633.6523758299938,64.48766118480535 L634.2722324924705,65.6356623065097 L634.4675349872559,66.81686485301596 L634.7947395472713,68.1357348303267 L634.7476320010458,68.6969396504196 L634.6205611848161,69.0594807687428 L635.1174583879072,69.44534754601933 L635.3613358869432,69.55140667424115 M639.0142748685944,54.95271968065747 L639.006423349593,54.74938945444727 L639.0243665699395,54.532988086577305 L639.0581457374763,54.36839525763227 L639.0977168821385,54.32049176798204 M646.5930094134758,61.36949854823972 L647.1452258361583,61.519969313988824 L647.5211683012842,61.32322663404775 L646.8928594916492,62.14038906097449 L647.5346095566306,62.80320288945754 L647.2378846182285,63.0484547079666 L647.4473791136977,64.33463551678808 L647.2548350249074,65.61956122943818 L647.1204491546957,66.27386523663864 L647.1315329313186,67.73331500838587 L647.3864525828174,68.19116714650995 L647.4635079425348,68.74597826624746 L647.2549513316412,69.08552619554035 L647.1287842918218,68.78867238367079 L647.6882925441016,68.27525309222891 L647.7078068621813,66.79982414691709 L647.9687637140996,65.57806507607852 L648.8418125380333,64.66997062931863 L649.3550647978502,63.43040153939161 L650.1469212581367,61.816084055598644 L650.9244729844484,60.77537356052428 L652.0635218785587,60.755640515113036 L653.3217184378409,59.90099023927981 L654.1177718917147,59.94082732262339 L655.0662438736974,60.564743152820476 L655.7873337388519,61.141608109705984 L656.7452374545562,61.98402153272241 L657.0417600273288,62.979967351224005 L657.941089291679,64.36281986443096 L657.9421542755817,65.17695360308878 L658.7740727009029,66.32432835931616 L658.5467937263813,67.5193972873961 L658.4902773957945,67.67242047392264 M665.3259103615587,66.56642043688345 L665.8959440692154,66.68768421665557 L666.1232970371364,66.14276898486679 L667.4717395232224,65.85713521907296 L668.257124254905,65.43677713042591 L669.4544608295946,65.25215321529382 L670.2272803867854,64.80002090609698 L671.4855839016959,63.61409638690488 L672.1290920854162,63.008498145041905 L673.0809920210543,61.97524807927121 L672.8691278242006,62.01675966822175 L672.7113986429194,60.896782230041914 L671.5760692176452,60.95967919109783 L670.606858572929,61.181488529181294 L668.6761751499778,60.70713724111714 L667.3025996126694,61.66146200963356 L665.6292793977186,62.10676633825044 L664.8110900580541,63.71857681221399 L664.257053941913,64.65337189595446 L663.944591765506,65.84891103352979 L664.4520564586167,67.23886488193406 L665.8427483678963,68.23542532098402 L667.6291870820169,69.04407663824381 L669.3738038960832,69.13395134610246 L671.9671475314153,69.68355693184347 L674.1658294794408,69.40900982055327 L677.1192139180475,69.06952162821361 L679.133609044595,68.411308947688 L679.5989838719272,68.19197386214825 M685.3195298558974,61.4881452276264 L685.429959494033,61.16272776198275 L684.9154049998153,60.77502837162746 L683.907728532138,59.973471916365426 L683.2691178967596,59.88940923818797 L681.9514208508047,60.07822957087677 L680.5153347674325,59.718140475873604 L679.401832639292,60.444307804986494 L678.714079043119,60.726721032811035 L678.5458938499578,61.37216196439342 L678.7521239919959,61.81362407918772 L679.5340063569786,63.206011223113904 L681.4588146282485,63.50953009649142 L683.1419644104808,64.91896084451938 L685.1553445887321,65.51477103231183 L687.1675336676458,66.6930559502784 L688.4550431305454,67.26815811939781 L689.2207385472673,68.2038433783471 L689.57337214067,68.36566530645692 L689.1101461923424,68.79688837738762 L688.0524820920073,68.81362249145288 L687.2200016836603,68.57440633757149 L685.4427414407276,68.82356305844192 L683.2392258806069,68.53630563558562 L681.7769174670907,68.42619135615926 L679.9127457918225,67.86731888806797 L678.7161104630595,67.46364681326666 L677.6204180605853,67.6735144302677 L677.3335074633467,66.36427699826744 L676.8561832252517,66.82440274384189 L677.5140351735752,66.320924344225 L677.6202924205293,66.21009214215277 M700.3465621579376,62.46074392938158 L700.0966912231545,62.29580868814257 L699.8726253383213,61.76531993254524 L699.1318987860757,60.68049078127596 L698.2911886858767,60.200975261931575 L696.588170035217,60.56057768410022 L695.063913601628,60.46300378651207 L693.5326708275186,60.89230712596859 L692.4540108920507,61.241269067745414 L691.5698195033544,62.087982606178294 L691.4475948301354,62.66227935141004 L692.3009384811053,63.26754552287763 L693.9116285245386,64.06047282309885 L695.1787854584697,64.51438903662306 L697.3433936472386,65.07798018919759 L699.7212238989055,65.94076626130158 L701.3924572705873,66.38942446629406 L703.2724684849811,66.91560834720943 L703.9872700555825,67.13270071371707 L704.7976263057346,68.00204520770183 L704.6528021940665,67.7897782794172 L703.6431898068695,68.7811712787577 L702.272234812639,69.27768105526289 L701.188321225995,69.03189363198275 L699.0750886971675,69.0595574576669 L696.7442176811423,69.18060773102033 L695.0125491781282,69.54523871229365 L693.7843840642927,69.75697539310382 L692.7475426092419,69.61573432414319 L692.6223823273297,69.35701390459117 L692.4887253140191,69.02617215437006 L693.4332039926801,68.39956556564717 L693.4906723001764,68.87983312966612 M727.0008961634487,51.39535661019508 L726.6811132973748,51.46270888676367 L726.6239567801215,51.62499420787127 L726.8595991336681,52.50373645399473 L726.730406105595,53.27117561975295 L726.5645158771392,54.41649376295948 L726.8813819583165,56.61307859515158 L726.7030398241575,58.28366319845699 L726.7294917597428,60.073928781904286 L726.9609120914843,61.5911466756081 L727.0604195577068,63.63482838551838 L727.5461497155611,65.90818528210164 L727.6798408948657,66.84113795106788 L728.1337778973445,67.88883301950506 L728.3968091159593,68.923452450147 L728.3604388034335,69.02929707614143 L728.683138639665,69.4644807667838 M723.0742329689256,62.807739601002346 L723.3908371656219,62.445804664271996 L723.9161229113779,62.272635868939 L724.601329181065,62.2466236671848 L725.7957830257815,62.739364203249586 L727.2755731607174,63.0017783700757 L729.0639045835958,62.37871302571788 L731.6676611628718,62.35684569278999 L734.172229650859,62.37989725475555 L736.3085477948785,62.79504577219294 L738.323231518523,62.48538651589602 L740.0735812708956,62.144806800850915 L740.9162798987484,62.17428749972724 M742.9190533198021,67.50743805525042 L743.0145522241394,67.05374402440677 L744.1150122178585,66.94353733935232 L744.6614484794591,66.74108476581546 L745.6565162282327,65.96040437769524 L746.9235349249334,64.73772161257064 L748.3673516053652,64.71925745129714 L749.5765845982853,63.6351638186756 L750.1785055832163,63.123891797822466 L750.6267809654466,61.53729754012224 L751.0985117884625,61.57867701855204 L750.9137202196955,60.95459541251911 L749.8448619623655,60.58367404659544 L748.8111904177852,60.3364384909101 L746.9165528445308,61.01926604013577 L745.4658951845081,61.47828443640248 L743.916330889029,62.77679136870252 L742.1766231169513,63.827942818564566 L741.0433407335274,65.13736591162255 L740.7378674243648,66.77974004513919 L740.7040496697009,67.932750687172 L741.2804813643725,68.90349438138657 L742.7315206631304,70.04904690528092 L744.9958330093139,70.11491702310441 L747.0111556691684,70.66242729422005 L749.7061318810306,70.17339307119784 L751.8572737666404,69.8942682285289 L753.7531017247493,69.44013067133304 L755.3755255075657,68.93237602164085 M762.9889450385272,62.44975953710435 L762.8991303900066,61.898330164214194 L762.4473937465386,61.76946027669911 L761.481802610798,61.26300370714862 L760.3846583497843,60.80523905000694 L759.3519589364616,61.11422909926779 L757.9595823623029,60.861295353654405 L756.2029589808326,61.48627719034576 L755.6742471885243,61.64915183363864 L754.8095402417957,62.222211641634686 L754.9584844109268,62.589794026613184 L755.4068515511697,63.59104553008476 L757.0748144488173,64.29172189497046 L758.7205231535884,64.87420848329211 L760.9441667279584,65.75415367764296 L762.8770000394272,66.35038054157582 L764.9400909625965,66.92352829554112 L766.2451687721825,67.72991681948983 L766.7472216725589,68.19518703391748 L767.0649355747671,68.95159151615985 L767.0301840391198,68.61918802390147 L765.7612094997585,69.24255686973038 L764.7082312804398,69.45354939134089 L762.9662943122764,69.48281284411303 L761.3417083716492,69.78453891048711 L759.5319117985359,69.28623790205424 L758.0968801839863,68.96695714158123 L756.9138057854616,68.64009125781374 L755.7206552780074,68.38020265256209 L755.3531771657867,68.40220997888188 L754.9033478916708,67.48090223187097 L755.1466227873514,67.16590475088854 L755.2531204925165,67.12708560732007 M779.6537079789057,51.46398834272395 L779.9744749530498,51.70817699501808 L779.9166753374104,52.32090951477612 L779.9725532935436,52.933260735923525 L780.0466384386555,53.93622240301262 L780.2025298539843,55.439669471751614 L780.4528743668939,56.89781158124311 L779.8978848141453,58.969538790227276 L779.3402892653621,60.92486354020622 L779.6879035175364,62.91343111540508 L779.8486814658993,64.88513628944975 L780.2606669574313,67.32152357356114 L780.1767112325147,68.85685741984051 L779.9850004270118,69.68330626695472 L779.882296360191,70.71742020534992 L780.0157388795508,70.95341414805101 L779.9281005001621,70.89330334644913 M775.1810766061558,61.91319580833411 L775.4854284127964,61.74685879508948 L776.2054601510777,61.513841350478884 L777.4673620065464,61.281878192825076 L779.2498632272495,61.13882156173682 L781.4361120065464,61.09680839340186 L783.8088842233433,61.14435954849219 L786.1617284616245,61.270236690444705 L788.3003087838902,61.438287456435916 L790.1096349557652,61.60380907814002 L791.3766027292027,61.724187095565554 L792.0794530709995,61.78368206779456 " fill="none" stroke="black" stroke-linecap="round" stroke-width="2" /></svg>