<?xml version="1.0" encoding="utf-8" ?>
<svg baseProfile="full" height="100%" version="1.1" viewBox="0,0,1000,120" width="100%" xmlns="http://www.w3.org/2000/svg" xmlns:ev="http://www.w3.org/2001/xml-events" xmlns:xlink="http://www.w3.org/1999/xlink"><defs /><rect fill="white" height="120" width="1000" x="0" y="0" /><path d="M0,0 M335.4611144274482,45.910731229717996 L335.44129743635983,45.9942360211365 L334.8251737699279,45.54246617457561 L333.6437453568334,45.0 L331.8492990099036,45.553373986773465 L330.81546543242,45.823766687566675 L329.0220944811326,46.870536897046996 L327.4875426927386,47.45470485524748 L326.31084310709696,49.05902585967784 L325.01194740976695,50.708788313270624 L324.93333670186524,52.13267514089649 L325.367901432781,53.74869702075983 L326.9060787913466,55.27191905025984 L328.42065202804963,56.786968733516176 L330.37399510550426,58.497576041610394 L332.75076318772085,59.46297826605745 L334.949739037583,61.07617923651857 L335.98581629964497,62.15822159548207 L337.46619372308913,63.6108846193995 L337.841052684992,64.49423985747416 L337.39000515355065,65.72631444908573 L336.0466232415622,66.83344826862238 L334.6116865855485,67.92914600086138 L333.1129935244982,68.37377558720976 L331.1472983246808,69.35559067443265 L329.09259592875134,69.48398841882418 L328.47904528205504,69.97088884813775 L327.0109517411453,69.77348171819193 L326.01791011417964,69.27520461015247 L325.9508757749618,68.9547077223328 L326.0515397655046,68.1958640354472 L326.5936286262592,67.61917555941776 L327.1927256118385,66.98705959778513 M347.62634764394363,49.31998512914535 L347.25226948143063,49.50564673547372 L347.1714178629998,50.19554676591332 L346.947793250137,51.455049609118575 L347.7590292394087,52.585572514303145 L347.17254543798646,54.861738035097474 L347.16398807667065,56.88803712446478 L347.0378924209598,59.49251644919966 L346.7154914973119,61.48468368536637 L346.6903612633031,63.80053408902627 L346.5271318041599,65.8301126232228 L346.9078648892858,67.05802345732981 L346.75027750066124,67.89009874225353 M348.28486221084063,60.24647447155308 L347.96071078662686,60.633941015553496 L348.54918713067246,60.74836599611036 L349.92341594268464,59.96826228269621 L350.32681448696803,60.35454780852575 L352.4665615182229,60.27304695359961 L353.2467035542654,60.431507315559394 L354.6553053223434,60.31434765293195 L355.27437686387026,60.24045154757468 M363.5325390355955,59.149766457698874 L364.26451504461056,59.19402857165753 L364.35800959631126,59.7209173714663 L364.6766106356057,60.51619968361279 L365.11679742547983,61.44199313324032 L365.94371991386015,62.45118432885438 L366.77913457631416,63.190669380436624 L367.1417420493926,64.69598738828876 L368.02434753604564,65.44535945402863 L369.21984393670334,66.48097503384197 L370.03502143975834,66.41793424417148 L370.524786764644,67.21643535311223 L371.0713648146699,67.11690556352889 M371.9600244274704,60.261253303800814 L371.74124029312316,60.3851045066526 L371.86171181391785,60.09741674966079 L371.7089890343815,60.76658001606833 L371.5341420088868,61.42644901543273 L370.94752520271663,62.52603226151454 L370.4485778160656,63.75690531080916 L370.08947195893654,65.21481318713921 L369.17327151111635,67.19457520869956 L368.2380305863295,69.20749814556312 L368.2023598683459,72.01451988450755 L367.3291416114894,73.60052398644953 L366.8803974481264,75.60197873210058 L366.4897939855418,77.63823012073084 L366.2325153038741,78.97087215448737 L366.3531476657454,79.66438692906483 L366.2617704663381,79.92618239864615 M374.4922714164703,49.2645911497176 L374.4861876270095,49.2260756410515 L374.54253247831247,49.871349980930944 L374.421635289338,50.33110711543605 L374.24079018259073,51.34252184102685 L374.105749685827,53.35978726444914 L373.9501951851932,55.10800396317168 L373.79717674853407,57.48168061280343 L374.224129860859,59.18316204793307 L374.1699601620141,61.668244874912006 L373.8133523428569,63.87542917702108 L374.58996275073923,65.34231297010217 L375.06557545098775,66.78402550214008 L375.51333776779126,67.29178135920645 L375.8409395581927,67.61616008060017 L376.1655611007837,66.94198624634097 L376.9774046491607,66.21935460824979 L377.43634770115364,65.2280493993293 L378.29558052189384,63.76758540615913 L378.9281961656842,62.51794633194304 L379.2364717035937,60.973253029771584 L379.6971491573945,59.3598884182056 L379.9035349669923,57.95845665844444 L379.7854457626975,56.862364237068824 L379.57086033402584,56.18273372518392 L379.3087481229363,55.936713403384495 L379.0545960486468,55.990829884947544 L378.46809299253306,56.429193374373455 L378.0377513764056,57.788877574717326 L377.70513506786983,58.938923957209916 L377.4433145188097,60.862732295113695 L377.2179814528084,62.273843699810826 L377.49544475199446,63.972306201966674 L378.288343827985,65.45060154163892 L379.7243956057238,66.396860369752 L380.3387580198528,67.78012048200257 L381.4758928185357,67.64804628573098 M397.6527268500372,54.169046590813196 L397.303398587551,53.70352337535379 L396.6755142657307,53.14055821921457 L396.2984075033424,52.15820470619756 L395.3175371546724,51.93225735862991 L394.38996311404765,52.091914671089604 L393.4336196847284,52.48343111627417 L392.3010458426387,52.73267387423066 L391.3104631768697,54.215141616190806 L390.2829692174928,56.23918312604254 L389.27544923804743,58.185751997897626 L389.0000537034196,59.985843412894404 L389.0785227309279,61.926786649357446 L389.72209061627547,63.590232402174024 L390.3432640597604,65.22484263736266 L391.67623149133067,65.90097386987472 L393.35880732456724,66.43821225090825 L394.5931258840982,66.40952281269577 L396.25201610738566,65.5516380029032 L397.7324237492458,64.55106220138495 L399.1540121628407,62.77865999015817 L399.9351373876724,61.54300841826173 L400.4934357748871,59.72053447033363 L400.17586062279486,57.71383111822348 L400.41273653510336,56.19284281153685 L400.2608925187085,54.71832495342226 L398.9339797110558,53.12924550069939 L397.8609698450283,52.23951360470252 L396.4568815785441,51.598019644082385 L395.1403341550702,51.07052918651196 L394.0049837434115,50.870256046653324 L393.0514017411559,50.674464769903615 L392.8436562004613,50.68149708503189 M407.1678473547118,59.63157283112399 L407.13260396378126,60.28876814824226 L407.188301489316,60.041490087425124 L407.1966590645649,59.9047460963998 L406.8826224002134,59.78685519533688 L406.6387266615851,60.10647142323073 L406.62801630849987,60.2943198172799 L406.665843572694,60.58048827432139 L406.1200668419657,60.170442346837454 L406.6283346386974,60.47921103739149 M410.0292955026801,63.20790705832899 L410.05964811204234,63.252764074009555 L410.12635568281183,63.3055608107459 L410.20404628228914,63.34946432656487 L410.2673486040054,63.367645649707015 M433.2711973508058,48.00559733997424 L433.26167415485406,47.6394502696387 L432.547723683877,46.92862976682254 L431.95787977755157,46.82142371194579 L430.52631323000196,46.3496921753504 L429.32280327712465,46.923779137044804 L427.7952864542749,47.518843273832005 L426.0275710638316,48.26842217332078 L425.14900020801167,49.656377205862206 L423.78366740840414,50.93357503392546 L423.1405936696674,52.32855458213447 L423.6141188013394,53.89608973876595 L424.20301009813227,55.353712993290095 L425.2137594987962,56.3838442049559 L426.94540520556484,57.877010743701256 L428.69094473276107,59.39035845024333 L430.90285947242234,60.674416006642275 L432.0764773236177,61.891219887590445 L433.62315068815906,62.70688953765912 L434.1617279837782,64.04377133367157 L434.8807298722926,64.42260208058096 L434.5906185945187,65.46370077241028 L433.439416915812,66.21875799469316 L431.9201111241497,67.10352963184673 L430.336078608842,67.65549167299906 L428.34211752198746,68.24203382495521 L426.4020607665204,68.26203989744704 L424.4475775259024,68.55690364188764 L422.91566838213237,68.2648759363087 L422.10574014520836,68.14131470200188 L421.8865880850167,68.13244482595212 L421.6561917651797,67.5344538325432 L421.5673983030367,66.83837399291995 M438.79245143099376,48.15268157924331 L438.83162379236717,48.68632393184822 L438.96597756050767,48.79642665092865 L438.95244828390054,49.89400838945425 L438.8459850066704,50.55671580129945 L438.7551480780075,52.42989199927277 L438.8108460349766,54.88680825944381 L438.80789904315253,57.418426405657506 L439.0137482931376,59.94364013571361 L438.8161979722972,62.44525569278821 L438.4832864175122,64.13965768087301 L438.68614843087266,66.00420372856776 L439.1274128892752,67.12769345842791 L438.87057897040717,67.89976467248641 L438.73744339562256,67.77895329876613 L438.6552436353935,67.27504725181564 L439.2525209981532,66.16199694699291 M439.3832100912613,58.80821322319485 L439.09997073128557,58.86449135940471 L439.6596702594578,59.086691938721685 L440.11783929530503,59.76870434009142 L440.7141745202678,59.908823079824884 L441.45980700995256,59.964248939708284 L442.6513783124643,60.30778773667367 L444.4771313523732,59.70541549716989 L446.3972870365734,59.36102954226207 L447.94113134849994,59.23562886823024 L449.0171446408848,57.91299744019719 L449.95330782808287,57.340223081792615 L451.0013985797044,57.138673969735244 M448.2160137051425,56.12469083325352 L448.46039164745264,56.88935764779769 L447.99480495078996,57.07074686208771 L448.17105000561014,58.36200834811874 L447.992441977661,59.0600618141161 L448.31990771439945,60.19465271418204 L448.9520102481081,61.24974738622103 L449.85122354217583,62.670938168215756 L450.1787026114018,62.63760035157805 L451.78982010934203,63.07281927220394 L452.78277259727787,62.88600689206009 L453.89768291339504,62.445199046424804 L454.55428497271436,61.21416603144986 L455.7778723993974,60.5503043995157 L456.47836148945146,59.303694838504065 L457.2792395488377,57.90449679721965 L457.9228306916961,57.33629059277213 L457.86821941933147,56.9622710512185 L457.7296072440711,56.96567004222459 L457.272906655721,57.36601056541122 L457.3242207619857,58.547086854284444 L457.0655381022063,60.13580478765811 L456.2611070373486,61.923691015725375 L455.97343307450353,63.81651469277413 L455.19825987000314,66.05859316742021 L454.67209867300994,68.7461003617675 L454.26558664140214,71.31912045015775 L453.56387523653115,73.94262991516658 L453.22521814941786,76.13596390440514 L453.0887179409299,78.0428915366648 L451.9323901754552,79.5785842673461 L452.175074891842,81.09859491381357 L452.2041571554741,81.40942719290356 L451.7528949180698,81.49714861366279 L451.7169008258654,81.12965186702546 L451.26858966079897,80.27678361076298 L451.2723618665406,79.34989075594845 L451.6914318777914,77.9921931214913 L452.37179166519866,76.08530770344426 L452.77943418538973,74.27129350300744 L453.4572435807218,73.00032228081535 L454.53447257970555,71.24403104062273 L455.2452958830001,69.35675867057982 L456.83635008306067,67.39102514498194 L457.69017346511663,65.79644380791657 L459.5250846501698,64.23868424296877 L460.48875118699004,62.55993290173178 L461.2843049601841,61.1897950346448 L462.42202602441705,59.68559651661753 L462.9523554196939,58.051444302419526 L463.42895686561155,56.85526620998761 L463.9074238039438,55.24552268547018 L464.3239332276936,53.67249410069514 L464.2776643175356,51.978013374041836 L464.63437698117906,50.58600258280565 L464.3429187467213,49.67936568193351 L464.376851782316,48.12793671591576 L463.7078341807395,47.29836532646232 L463.8425826999833,46.743926297071226 L463.9566902069498,46.86283657182396 L463.2085358662402,47.584530087039845 L462.5645166994847,48.181777678822634 L461.97058584896655,49.84190292446768 L461.77238132541004,51.378233130252 L460.99403640665844,53.835093972115914 L460.4476478779918,56.31205008784985 L460.4341179008802,58.71366718764828 L460.4060445736812,61.20384192057033 L460.53330209064177,63.26583372159789 L461.05515141870205,64.76484382806522 L461.324111813122,65.70878660651087 L462.49189477280544,66.64690199655675 L463.68139313158287,66.22217698294527 L464.96864040988487,65.90797159655739 L466.0531491634244,64.7918276627533 L467.8997701211943,63.25187702567573 L469.17791144604314,61.29069678694894 L470.0305413559634,59.50602530579954 L470.26453029954075,57.881060985226554 L470.86785998006087,56.62995536331154 L470.46278952100835,55.291618727907746 L469.76308247414556,54.88446881313901 L469.24553843207326,55.14228889294171 L468.17906886808447,55.79156965315883 L467.0155484595567,56.69782720903466 L466.2257586192189,57.63600937541883 L465.62126176257163,59.4819725342652 L465.3467160279961,61.452760768411856 L466.30774154578677,63.133213841764004 L467.14676221485166,63.899992577266744 L468.37287763095037,65.14449243885493 L469.89704858438097,65.94182250959884 L470.5711809965562,65.83191818397533 M492.231103783655,58.32697645926228 L492.39421752495133,58.240324333103295 L491.8589179713377,57.61442812230251 L490.9340054498907,57.4160006538793 L489.91616553924695,56.92102280884755 L489.1177133509065,56.9586976622798 L487.9529286185759,58.31177520967233 L486.3115367358896,59.29314884091439 L485.33146865854104,60.66836553423566 L484.23183149141715,62.04298779092071 L483.51470615838673,63.304449817807 L483.88657024060336,64.93111432757159 L483.853744823426,65.82160343994683 L484.58760791349147,65.78334809436365 L485.85612284690603,65.49049159312187 L487.1750003485495,64.78923316566316 L487.92020756109144,63.749590744802006 L489.6744323943164,62.21770258330744 L490.19247015668316,60.28977525957308 L491.31479644086664,59.083736973814325 L491.9084430296134,58.23478950226345 L492.61082531112163,56.96306638421761 L492.88712142943706,56.634618364843064 L492.732335585309,56.07298153857447 L492.6416635156541,56.59172162102064 L492.36598596317697,57.50005941782823 L491.97210366500326,58.95025518065043 L491.64812077894277,60.54071669295506 L491.09746386937746,62.595064431660234 L491.1646709364589,64.2032995585982 L490.776332903623,65.4485497192628 L491.0211232547825,66.38845722423034 L491.34287524436246,66.85160754919899 L491.92775815173616,66.94092581298877 L492.7046911259564,66.12991190499707 L493.46033859806886,65.09267156762627 L494.52092262391494,63.10567016536019 L496.01944033606253,61.92642850194182 L496.67272038671945,60.68242754094663 L497.8379038018354,59.2852710223634 L498.5342129837195,58.31387278170059 L498.4279021990153,58.309078845537414 L499.0074213749648,58.46311463121688 L498.85647487255613,58.943937550533576 L498.9233771243843,59.52286230272726 L498.3065811408899,60.86707854819563 L498.2517063507459,62.12653329249254 L497.46297719198594,63.29855540738017 L497.45654265108817,64.39986730561832 L497.2568361162938,64.95845872405576 L497.1262057036235,64.53128557175367 L497.8269991956116,64.54168523946933 L498.4575198290408,64.03730493515803 L498.90213915552084,62.872872962013204 L499.910093632839,61.3495787915885 L500.9211812442839,60.61059357044668 L502.22778411512815,58.87137604067215 L503.538808968598,58.31796722574126 L503.93957017215183,57.95113592711477 L504.50686728600454,58.11387521268023 L504.76187022788304,57.961095155667 L505.4301615489986,59.50740172283851 L504.72358976239155,60.285425667945646 L504.93064967731493,61.56161624464335 L504.3635226738139,63.287291010440605 L503.9086138389462,65.01948987625981 L503.9740211389517,65.36612898907097 L504.4608468665845,66.23961616568735 L504.60149331361487,66.6442098173672 M517.8182901360447,61.767504819618296 L518.0068410784806,60.95709712051723 L517.6039417770174,60.36603732799382 L517.0222138461795,59.76901035363383 L516.3220897793449,59.80404235487814 L515.0094868667636,60.31698154808026 L514.2712782065969,60.333223586837065 L513.1199455819653,61.40117077496325 L512.4859086219083,62.48796341346801 L511.300770808607,63.40089048755498 L511.33299763380194,64.88301778559236 L511.3333013099274,65.542667857772 L511.85980241458907,66.38861168273603 L512.5438445911881,66.85448483674351 L513.6052311494373,66.44977495206243 L514.8285089340461,65.96262774950206 L516.007742866459,64.84628945605607 L517.2547124907633,63.160679931710916 L518.2912335817373,61.158387797955676 L519.3715345209125,58.96361469105712 L519.4662893124375,56.17215510900673 L520.2480185397928,54.53764428510213 L521.0908554786647,52.85666369921907 L521.2054127826449,50.83598283625054 L521.3344150317325,50.50737190433342 L521.2134945370447,49.20787982313648 L521.1779081599648,49.6758912527871 L521.0603294623752,50.25204895999924 L521.0137232545047,50.98583475487266 L520.864360611448,52.88945100542524 L520.104632691877,55.447973254801724 L520.5235318212408,57.45989046578601 L520.0451692224817,59.62053106844295 L520.8610562497493,61.501994895664964 L520.9095962825762,63.285293659902415 L521.3518728117224,64.65595953193916 L521.9562692911411,65.55827719849717 M531.4961771602423,58.81914980642431 L531.6416603891694,59.05794137751487 L531.4910429317133,59.108800008182605 L531.6963363283456,60.26165038297466 L531.7098785187136,61.018230250551674 L531.29692856485,62.677046698856756 L531.4783956909899,64.55137149590173 L530.8285487963017,66.06797072577079 L530.9108178917452,67.13068352606022 L530.5391874306749,68.32021800621658 L530.8553590790813,69.00407400237718 L530.7869859649454,69.28524475522606 L530.8251540182591,68.74292274807888 L530.7475210484608,68.16581863282408 L531.4780960758588,66.16706755176735 L531.9189300989863,64.87690251505862 L532.4953292632335,63.1164410344544 L533.4623537375712,60.96778429474982 L534.4872984328317,59.61287057117731 L535.5749091673492,58.16158517228175 L535.9972997484349,57.73397651576126 L536.9727361671166,57.94124815867896 L537.8544486610167,57.76812208103016 L538.4680007293712,58.81516176997066 L538.4723615774053,60.593672614180235 L538.5961793941057,61.92589121990312 L538.6802616816599,63.49113213169063 L537.9472727592913,65.6579521798891 L537.3340526492817,66.71131249817404 L537.6918349740988,67.61307075778983 L536.8645349113322,67.70553680067644 L537.2289019840789,67.00024837834091 L537.536420351643,66.81987077763618 L537.9816348909337,65.21932991411435 L538.6247702776301,63.56486227251922 L539.5584495316361,61.9059135319786 L540.2210061165594,60.7020435592165 L541.6866943580019,59.51353849240365 L542.7408231710091,58.12563889003652 L543.8054690060701,58.09096503784409 L544.2863868953217,58.09699645195775 L544.6771148359074,58.49738920314917 L545.0267914636438,59.770553392145345 L544.9001259725492,61.33428467240674 L544.9505507117767,62.24374255255065 L545.1731471229034,64.00479440656507 L544.5856998741319,65.50107062389671 L544.7553632109439,66.51850321494373 L545.450616619125,66.55950932180338 L545.570606921312,67.5424768694369 L546.1337851957878,67.31304692042943 L546.2328118811611,66.52217658520973 L547.212348052831,65.79082573147967 L548.0944543357643,65.0905492531692 L548.9614160685602,63.027123673248624 L549.9592163358682,61.65119480259045 L550.44903896135,59.74991098764766 L550.4161384229569,59.10134773321004 L550.2709170496256,58.041837911119416 L550.4145606168263,57.942127294543866 L549.5278992525843,57.89210116338378 L549.0541828639189,58.13163589458873 L548.4223111833228,59.0529352607585 L548.0596874505189,60.63021314830089 L547.3934105065371,61.236129990629024 L546.9134134276369,62.968419342531774 L546.9076693334043,64.7338987267092 L547.2723110231825,66.01158145082573 L548.2877479549816,66.58279853456139 L549.0394717659034,66.92428220809586 L550.4862661282468,67.32326365944726 L551.2860719819223,67.04072368989026 L551.7791442804213,66.97039155219713 M565.1466174948055,57.54611939088605 L564.9067047741147,57.44971669214299 L564.2151636410765,56.7569156367554 L563.7195008874578,56.69552494051063 L562.1943346574834,56.37229243103742 L561.2093773114009,57.29575091859858 L560.1928615158045,57.506174590645784 L560.2084560518157,58.56963175275423 L560.0287323986463,59.51812249012127 L560.6337365990134,60.892111751931125 L561.6769909612174,61.81976585645277 L562.9411440749896,62.516562375127144 L563.5520940372552,63.849671526670896 L565.3366644235825,64.19773427959325 L566.0349270679105,65.81644795788496 L566.2964586004771,66.04215576095025 L565.3801416616508,66.40093519182065 L564.6973515363698,66.55370402742307 L563.4988940878849,67.17270211384184 L562.3640319148271,66.93793996027412 L560.9649954993063,67.43128846149668 L559.7983091274893,66.5585886902439 L559.1265887363656,66.91716563355222 L559.405366030242,66.39417799069547 L559.6066721817909,66.65387103762723 M572.6823553929264,57.829506964784656 L572.1586495215832,57.6385944241063 L572.0810627535925,57.500672126228125 L571.0279854880197,57.35986327842241 L570.011917402895,57.74240652903511 L568.4728719932358,58.03313100727956 L567.7055933672955,58.59192512310319 L567.2222418710546,59.52241647527194 L567.3709557628575,60.494507075459794 L568.3017456830651,61.28149964434678 L569.5436175865934,61.83968386560929 L570.446866531425,62.33159174939698 L572.4346795279232,63.11810269246052 L574.00516538627,62.97890442376136 L575.2382943384938,63.4971092643602 L575.37115977026,63.91488806014921 L575.4702070574228,64.39977487375916 L574.487076389935,65.13992420861574 L573.0562978027145,65.15267614297757 L571.4405839088222,65.59224629421318 L569.7472660286659,65.86903078738969 L568.2956518798446,65.52007001847613 L566.6394537115957,65.2615191719944 L566.406887509772,64.87911962100192 L566.1117029274599,64.34441031087925 M581.7439136943419,56.251370840446 L581.7130391863732,56.33447492085305 L581.2729048383248,57.474686268012825 L581.5992149415786,58.126154400915354 L581.0639989160535,60.44744601679475 L580.6650673277348,62.01922045096436 L581.4490116848478,63.33920153920836 L581.2959914096848,65.13163766206623 L581.6729248682083,66.0665312875887 L582.2172948177215,66.11881493446062 L582.2700973771512,66.52655385537143 L582.480642017952,65.83641354782227 M587.5852641013886,50.618207634235816 L587.5508750088003,50.378151275592344 L587.5530219589302,50.12169854559624 L587.5852541954539,49.92770065413124 L587.6411344760115,49.87500221812451 M593.0386079206115,56.122034889572724 L592.8563972106401,56.30539455376079 L592.6968709475423,57.5651870419481 L592.2911265872704,58.90773484655533 L592.0990707726719,60.586159011290476 L591.5461826821191,62.292767633559556 L591.7036522685851,63.54580966068284 L591.0929468627137,64.78958856549507 L591.1180981214385,65.66275041892547 L590.6280186168657,66.3241534625485 L590.8768661251722,65.75188242948063 L590.7279462913735,64.59622053883999 L591.7024740216617,63.70408322133742 L591.9581630440207,62.1895082746463 L593.0506756535187,60.388940302296355 L594.1755075952985,59.01174170411305 L594.9786158156799,57.56593418846174 L595.8725742486586,55.97822943852575 L596.8876464598677,55.29873402948371 L597.7184568298608,54.738204057847824 L598.6590882084558,55.11093930106901 L599.5080917003847,55.82016868112675 L599.113660628694,56.88844969127653 L599.1159754352552,58.23949698441236 L599.1620683425053,60.05887257185473 L598.2080069757608,61.974922255874816 L598.2311544885986,63.424407006395214 L598.1265058575823,64.49503645174964 L597.787030040387,65.1173641910082 M604.9924656749748,61.56352495530609 L605.0369518348007,61.24812227757389 L605.7605737864674,61.030131574131 L606.7327866082132,60.0100546383071 L607.6359423050266,59.25088668678371 L608.70588598768,58.39727844253068 L609.0968205013723,57.08398712493309 L610.0610618885054,56.096029134869326 L610.0037767884733,55.9442427004174 L609.8341022311101,55.23196504211939 L609.6351294397161,55.32452489850118 L609.10276539711,55.681974808517296 L607.762098959292,56.43047321668799 L607.1545118418326,57.12517909170032 L605.880269675208,58.57573817774837 L605.2805036002993,60.17963650130289 L605.0442925817943,61.50886371578427 L604.981204863632,63.0042337500464 L605.7328206781845,63.97043080023684 L606.2121270227212,64.87341765152851 L607.3729297955597,64.97925838083697 M623.3378643650476,58.22745045978575 L623.5199884673932,57.79970443312052 L622.197003975964,57.45265336663856 L621.7795831339058,57.87681836847795 L620.5527405297923,57.70681325527566 L619.7293610097081,58.445498708292895 L618.8682650677406,58.91821837482631 L618.331218899216,59.380815909548225 L619.1357732493468,60.40626236333529 L619.8064050718075,61.205521756549366 L621.1417824810339,62.38678603844216 L622.7989863396908,62.64131909777504 L624.5626644615836,63.05444547466838 L625.7026694654319,64.21018163005857 L625.7268403191317,64.81809810489207 L626.1832348260842,64.73267541273385 L624.8932885856309,65.96225641316184 L623.9266729531367,66.26369763125251 L622.4897297440484,67.11346370707327 L620.5500835275209,67.19853573582256 L618.7096887043288,67.58884906018693 L617.6872161010766,67.56012330996238 L616.6839754077762,67.19444109808036 L616.9082325686933,67.34151920781527 L616.9795821278553,67.22956519122326 M634.5977287358818,56.79520867081529 L634.8270138581911,56.291158120854305 L633.8709091691667,56.26072908655553 L633.0081205150489,56.16033528344796 L631.8111778908794,56.06272234504713 L630.6028668387261,56.50828743951739 L629.8910903953821,57.26990271635218 L629.0817326100407,57.616300003273736 L628.8883177356103,58.62912763914889 L629.7177038446924,59.90191900363136 L630.5421761657428,60.82697419697308 L632.219164969441,61.89209525523951 L633.7944128411932,62.726507024556106 L635.5280251397676,62.67684372142381 L637.2352352673196,63.259372893414955 L637.8887161166037,63.67058713841661 L637.7917422695796,63.65332454234369 L637.2187655639808,64.13757517191918 L636.3338918799875,64.59805534815129 L635.2415957229261,65.15009905727047 L633.2962127576108,65.33754822690571 L631.3638445195454,65.69670999877715 L629.7918467772538,65.59088653117556 L628.9781732965379,66.01688145587565 L628.3227666899394,65.984915910725 M654.4016210850492,49.235671884097734 L654.2965012332921,49.563467929001426 L654.1615223633896,50.11157667719272 L654.7112717056273,50.29131486204053 L654.3442397307572,51.65621587391442 L654.2465350279077,53.41383523662216 L653.9034753013702,55.088646121108034 L653.6645669223788,57.198631084222235 L653.5357324734573,59.62367632542218 L653.3670643351478,61.706920848542666 L653.1496041639148,63.361941207706735 L652.8215113516512,65.5505002798351 L653.0504420240147,66.51348262341986 L653.2744094687189,66.93607795419007 L653.1344269369592,66.34852283230163 L653.4816713406399,66.42254289909236 L653.4223368477928,65.02726707273368 M648.7679007525059,58.597818573293345 L648.8181821724309,58.82699276659203 L648.8441608643051,58.64147009915489 L649.0074711781307,58.8163841354349 L649.5133295119439,59.07876082214889 L650.4561354870768,59.49936603122108 L651.7981817990471,59.931096489826444 L653.7074209413156,60.58182926106368 L655.1337988506104,60.75620983936404 L657.2826866784421,60.60798502256821 L659.0536206881632,60.09861651136609 L660.7937059392355,59.53545311657889 L661.9595649701173,58.559621521206346 L661.6501256876629,57.38757026706383 L661.7057285355952,56.45908382205936 L660.9108591628217,56.378824005143926 L659.5926011104899,55.96284872146538 L658.4732219353236,56.32119513197573 L656.7207055740523,57.307206512819725 L655.8220776118669,58.94471796386218 L654.5663253247044,60.516759571588146 L654.6915112106474,61.962900881192304 L655.2644721447596,63.64577832654827 L655.963100337822,64.50869722676163 L657.5244079432529,65.72037787880683 L659.089363046186,66.25167174697216 L660.397862868377,66.25637956579929 L661.6030732150039,66.33726018694396 M674.2301533880105,59.31502836608483 L674.301315931263,59.38449608479628 L672.6913975481468,58.65195751439827 L671.5981900774277,58.5580373656917 L669.825782933781,59.567139036886715 L669.1903770087059,59.61190554409483 L668.8466343041734,60.641844335786075 L668.5883808862529,61.76676582671727 L668.927376327129,62.699762266250126 L670.5227011552846,63.37671938297318 L671.8613686372271,64.4085799836124 L673.4937667360779,65.01149488515334 L674.9535540942688,66.04201032362886 L675.8672683550892,66.41692198567627 L675.6393161679321,66.73653841277931 L674.9281413647755,67.04417404870978 L673.7091929891665,67.45915995508862 L671.9859177842557,66.90145237986744 L670.1011745408796,67.12269151988099 L668.6451666646508,67.03837504165887 L667.6849893597184,66.55556109466185 L667.6729420494905,66.48768821255078 L667.6197070346658,66.40070641072603 L668.1961237903561,65.98419389948013 M684.2435684680199,51.0674189525959 L684.2553787707543,51.30681409419746 L684.1968155383324,51.90587701381416 L684.0024185656762,52.9755057293293 L683.6332779406762,54.50255813182564 L683.1066971301293,56.40356912196846 L682.4705582141137,58.55003966869087 L681.8078690051293,60.80514462770195 L681.1845779895043,63.02887990058632 L680.6679459094262,65.04461302341194 L680.3022232531762,66.6773928600666 L680.0996780871606,67.80947675288887 L680.029487657473,68.3613380390522 L680.0305557727074,68.32184114040108 L680.0353775500512,67.73678340495796 L679.9808426379418,66.66831245006294 L679.8116837023949,65.25622834743233 L679.5200272082543,63.68970694125862 L679.1207046984887,62.13011993945808 L678.6585159777856,60.72621258081169 L678.2319412707543,59.5770317512867 L677.962837266848,58.721175809514236 L677.9923172473168,58.18059339107246 L678.471138048098,57.931869645726394 L679.5120621203637,57.91341485561104 L681.1385574816918,58.048876186024856 L683.2783279895043,58.25896086276741 L685.7629166125512,58.47773422778816 L688.3962479113793,58.652606626164626 L691.0327225207543,58.72753920139046 L693.133247423098,58.727359433781814 L694.4560318469262,58.68573154987068 " fill="none" stroke="black" stroke-linecap="round" stroke-width="2" /></svg>