<?xml version="1.0" encoding="utf-8" ?>
<svg baseProfile="full" height="100%" version="1.1" viewBox="0,0,1000,120" width="100%" xmlns="http://www.w3.org/2000/svg" xmlns:ev="http://www.w3.org/2001/xml-events" xmlns:xlink="http://www.w3.org/1999/xlink"><defs /><rect fill="white" height="120" width="1000" x="0" y="0" /><path d="M0,0 M277.24548427648864,47.165144878896214 L277.07779809783113,46.65735072534145 L276.2917206626171,46.260666156264655 L275.8737449243516,45.707086111379574 L275.1159931298674,45.4106141995114 L274.6494881957189,45.235295751290295 L273.0901361483614,45.88034420554235 L271.7958237843514,46.190815939867804 L270.0635242368343,47.15577761031868 L269.63038633330774,47.763448159804355 L268.9262116491765,48.86932175675038 L269.10783858168037,49.55890539531094 L270.48913007546173,50.744375570964614 L271.09115754948857,51.584570332703564 L273.2459396625659,52.4665272123781 L274.8808198429911,52.95812951837327 L277.8727854141754,53.59295761916277 L280.1755432008775,54.45259521213201 L281.7136650255782,55.33060594053377 L283.51077706272264,56.49284811687421 L284.59209781531126,57.14943869278232 L285.44211040737315,58.07108865991522 L285.4792390738704,58.773114293102616 L284.64112889353214,59.7146670054082 L283.5208174529186,60.78332035486195 L281.76300914194763,60.93718253362908 L279.6154171141085,62.330449799420094 L277.4475315068096,62.80884709559652 L275.393088335101,63.38106273741401 L273.00999269839,62.9405254783683 L270.95300032323087,62.52976523532783 L269.00742087440324,62.80192651475561 L267.54139557749806,62.473775100338514 L266.5340313327655,61.59106742592247 L265.82317740695123,60.943609863516116 L265.8610114004316,60.38063250810577 L265.8639761523614,59.79144180407321 M292.9783810268283,45.25008786367128 L293.2239476429305,45.651827309058994 L292.9634083784948,45.825409998900746 L293.24085841118307,46.288872679834924 L293.5039504069992,47.32094796942831 L293.45501318658626,48.475046923348394 L293.53892675931564,50.67420478844125 L293.2459913338655,52.417187995223145 L293.40924487714705,54.640496524453134 L293.4134694031232,56.361199573057284 L293.13011009954664,58.400914326677565 L293.26271608819513,60.549801613246885 L293.7926229706992,61.63694453579025 L293.9797405672548,62.66977686121924 L294.3835568826459,63.48195069077063 L294.22477979848213,63.504980798650394 L294.17272085648045,63.392810637656844 M291.36004347612254,59.714063941792446 L291.07234310509085,59.74721488107445 L291.9286321983431,60.18677142538299 L292.7835656260834,60.25542851225659 L293.844489410277,60.36824078277772 L295.48309371046446,60.16539006596286 L297.14895704146727,59.76530408197307 L299.1063516747008,59.69535501758913 L301.0183421296052,58.65559195878989 L303.00112078184185,58.44604926096496 L304.5353463865662,57.35017797518446 L305.87879238262786,56.77663418242036 L306.75327498178126,56.25952565108239 L307.0959081269774,56.505150136985534 L306.95776516158145,55.89611515532993 L307.2464521946324,56.367159658596115 L306.735266248716,56.47674833208363 L305.7947262761852,57.307306894573955 L306.0785302317585,58.513908037693774 L305.5064778631234,59.92714178994707 L305.64267212387347,60.89776299009903 L305.6961136736545,61.42505121517549 L306.549962334591,62.12123081149271 L307.6598918280397,62.50587442333503 L308.55095690090013,61.82302766277911 L309.6655350169584,61.6662680640346 L311.06234463149747,60.63958462972895 L312.78802072816507,59.17715538674513 L313.88731358738323,58.41775259098478 L314.47829211477233,57.41598454111782 L315.4601951522731,56.7421413674712 L315.6886075167213,55.39054657554435 L316.24986478027444,55.13674001698227 L316.1431436235506,55.09011441979238 L316.5335271690034,54.83186184316009 L315.8778284645581,55.58197746266271 L316.39596725382705,56.63664479565459 L316.20443238358575,57.74211596282912 L315.5710094356541,59.21399117298778 L315.8442294667153,60.527219838093636 L315.58903715358076,63.16106971766579 L315.55966995802316,64.8608448171629 L315.94532796817515,66.78378650000126 L315.8979666653606,68.98815292139268 L315.6111728786983,71.09428908274069 L315.22042930970156,72.2575611695741 L314.5808850096164,72.96329898486563 L313.6292393084676,74.19065075109454 L312.2537405389548,74.50776448247073 L311.65699672968555,74.2710363605853 L309.8189495605475,73.67363108536048 L308.478773415423,72.71069623001053 L306.939328064408,71.33781623406915 L306.3994680635659,70.31785011140275 L305.74441184595565,68.84940336160285 L305.5465688776843,68.00308222291677 L304.97441443847873,67.27175162033211 M324.1925650198804,46.0831544501059 L324.1166844312855,46.26330985699122 L324.3148283526148,46.48658801759142 L324.3321183464152,47.5632502845398 L323.84593100164716,48.82115351989768 L323.9159581438659,50.5075455977552 L323.94154326157167,52.26236573028765 L324.0442633027942,55.12578521648235 L323.7566484068903,57.04872314964575 L323.4107557328982,59.13731916029703 L323.610678236043,61.11319036290599 L323.94699852020796,62.85860187659565 L324.7620723677524,63.71037456015581 L325.39611510335743,64.11291482927255 L326.734403207057,64.16190845364609 L327.9945851935419,63.42842733634743 L329.55703469468455,63.0332871547026 L330.8947015595463,61.61601354732101 L332.68309098241434,60.249995925034725 L334.1516840335005,58.41794900657964 L334.4527683534219,56.99738992512143 L335.38978992434573,55.956355129132376 L335.69158482636095,54.48942965096429 L335.5206923129565,53.82122448359551 L335.23704208493535,53.432203254349 L334.76920532819315,52.6054431458599 L334.19284877222765,53.08744224043002 L333.11681836053776,53.6548479664525 L332.43059443787666,54.547398570519725 L331.92685513965114,55.769721497289964 L331.2730421265111,57.36280141398446 L330.7349345640288,58.96717966935936 L331.1537381980163,60.20969057424488 L331.3221389342553,61.223410334465655 L333.10324738472997,62.60578648190788 L333.8982819292095,63.60224960279481 L336.3036055453767,63.541111361980455 L338.4156041121452,63.20045374076742 L340.24767919097275,63.29892576270303 L342.3026496678801,62.95085136112384 L343.67912993078625,62.18960577887982 M362.94134693300435,46.9871068717222 L363.0663856661881,46.63392415313954 L363.3202627720792,46.29137506688273 L364.16350052160516,46.09861043601485 L365.70473408254907,45.85509154242923 L366.80492759233715,45.462543328100296 L368.34354857775236,45.61858157750518 L370.12883075664706,45.67946900155921 L371.1913760441365,45.61396806903326 L373.08875477796346,45.994510102198475 L374.83423173156086,46.292910655561 L375.66457384357443,46.31685839806318 L376.74376144515895,46.996135789257025 L377.239656970883,47.23065433912197 L377.62722145998646,47.88940098495136 L377.82954719924953,48.64513517479713 L377.6707473340636,49.53438237079239 L377.52127471808757,50.646746509585945 L376.604719469175,51.58365802650715 L376.10969826507903,52.609799940184615 L374.8548093248828,54.75899824970227 L374.01169265886404,56.5126824633423 L373.0595228657255,57.64446730657096 L371.95148778859476,59.72215268651121 L371.1173321202453,61.638747463869414 L370.77340464326585,63.1616719053917 L369.66075366642735,64.32345674991987 L369.6100919564951,65.5960270272438 L369.508712674776,66.02150113971904 L369.78260277314996,66.53719030415509 L369.34788029343315,66.2962765342883 L369.594782884432,66.38714966631967 L369.95475913261726,65.57034166939496 M371.92223243360877,55.71822451643108 L372.1769048100948,55.30651147151194 L372.53794994592636,55.58133242090778 L373.9776865972261,55.37025473811424 L375.6534490999063,55.301440878324854 L376.79678645232843,55.02368878339667 L378.51807864650897,55.12486456056667 L380.3810664495743,54.879481643130134 L381.52509861229447,54.54727708022097 L382.2313777887938,54.466620744559236 L382.9902101963064,54.43000572488028 L383.40913099423045,54.69021434403693 L384.01866824618264,54.80259809094237 M392.6441725593686,57.21894274100313 L392.8910695466739,57.64555032059292 L393.1593507469158,57.15906740309304 L392.57169021164066,56.9333058020291 L392.7113726130806,57.100687247767944 L392.5608055759062,56.9195571416314 L392.95785392094535,56.480259187980465 L393.1200728363014,56.7497655476685 L392.4943543744016,56.76109153557639 M390.54502318361347,63.76939921847142 L390.9190682145394,63.74931318545662 L390.69750544210274,63.524148284161264 L390.6110947462207,63.895349915282694 L390.5667031545264,63.91743567216392 L390.6676947155519,63.70493466295022 L390.6455647012592,63.80712154784511 L391.03933477303383,63.119979729001955 L390.66635573877,63.284336149192654 M423.89548250089354,47.66050195164746 L423.72539205728606,47.25946264089463 L423.3707107031171,46.56765899195667 L422.8700972016287,46.49042654997919 L421.9629834502613,46.094207725924235 L420.7744903480501,46.28980140835141 L419.06554062251223,46.107993753781855 L416.84534495444234,46.39989881850551 L415.68756000626973,47.61901752735969 L414.24098689294374,48.17575708688842 L413.6791474235532,49.1568793319465 L413.2255314303582,50.225063115194885 L413.7472408995973,50.608848090961786 L414.5309731087623,51.45319826806162 L415.72345107245536,52.416012815083 L417.65105308927866,53.21933050280815 L419.5869079673905,54.1667886531402 L421.3607167647594,55.35997808556959 L423.0972734945742,56.202820404548035 L424.90558364845594,57.461723344564604 L425.2759956896148,58.772770910918304 L426.0069338848432,59.709285662868986 L425.8955912854986,60.6504948452161 L425.51962034060557,61.53323202657186 L424.6552237965915,62.662443815570455 L423.077805486139,63.515937908884794 L420.94444190450224,64.11967643987369 L418.9575422223166,64.37288915816951 L416.36640741010876,65.05478711050895 L414.6518000988563,64.80489161689027 L412.82235115496474,64.49554619114176 L410.95056621104607,63.991968704776525 L409.6321711870846,63.42710644274372 L408.68794094803263,62.31741182425894 L408.5174443526819,61.331375149986876 L408.5779681274854,60.46482614177146 L408.3786259821952,59.47922523484363 M435.2475090087148,45.94620503839353 L435.3256979177971,46.473577962161855 L435.5111007791894,47.15135835569385 L435.5886423964703,49.059635482678786 L435.5668469545931,50.68685513230812 L435.5864140310566,52.39042825238284 L436.1739204548181,54.22246431468428 L436.270166836396,56.41678082210634 L436.552686147837,58.21044692853026 L436.89691520307065,60.061554719310934 L437.07395161245927,61.32760040553431 L437.44703046504617,62.38339411042968 L437.9578655872525,62.47099749536964 M437.4118290541735,55.091119797411956 L437.7848673037951,55.0013534313361 L438.0188957602043,54.76690817452628 L438.63000235633876,55.436273594903945 L439.8777482187307,55.67829174983127 L441.0357816477538,55.26198440646755 L443.1336004360362,55.22596614169624 L444.31430642249643,55.02938015730239 L444.74937792618545,55.16571626935097 M448.9546543509017,56.52171517873759 L448.5484552285408,56.580741938363076 L448.93914905369974,57.30689866923968 L449.0639766468064,57.71866236777252 L449.2296970902604,58.365443717864515 L449.5838982342848,59.58399196797107 L450.1730711201393,60.551053897217564 L450.64256624403197,61.63318610241261 L451.33803410241194,62.19748693135809 L451.4258389753197,62.73973013729079 L452.48110820615466,62.475071559336655 L453.4884004664746,62.4091764809604 L454.45737494859344,61.13244770704096 L455.8217104133915,60.48329336152062 L456.8551814816303,59.81344559791364 L457.9017677254458,58.36231781638161 L459.20157091529234,57.22528691009603 L459.84431589301244,56.1427946323431 L461.2841996220785,56.01548495781965 L461.276857899515,55.40905210360728 L461.0771139533045,55.63040552477806 L461.26625376942616,56.039275203102 L460.74349949163593,56.16630904854246 L459.84494433105874,57.47874993584557 L459.354828858393,59.01289220574893 L458.62807520215654,60.90979865887115 L457.44814602082783,62.984005340616086 L456.8081515321428,65.30896080370174 L455.46109228918965,67.27370305511185 L454.4756750374313,68.91823464904002 L453.56084714222436,71.05205957659567 L452.9048928955989,72.53747911327187 L452.1411195152224,73.6010322828319 L451.90255066030704,74.1969323067237 L451.52300395506415,74.0446886755828 L451.69827329907736,73.3590570826242 L452.2874343296779,73.37519279806402 M469.6431086636213,47.70871539900141 L469.54655311423573,48.326711730573756 L469.7616104229473,48.57726903430368 L469.5597524133458,49.42794933872585 L469.3337377023827,50.606010304882155 L469.1632121860396,52.21590113802552 L468.54960233436043,53.43863743301685 L468.1622933877685,55.33888121321646 L467.87887743879446,56.6788308490841 L467.920034670729,58.62329712803181 L467.50550638346704,59.64275717349318 L467.9994039460273,61.057660577061796 L467.9751272146915,61.43268412362113 L468.5871557410717,62.54983348870824 L469.6463416377675,62.942433264877536 L469.8616524526928,62.543314467520936 L471.60051403147463,61.9257176059257 L472.74278768391525,61.45335583509772 L474.4216065064246,60.19026808988845 L475.5064744201518,58.856777326397406 L477.1024007445395,57.98939063279137 L478.14715814981867,56.74069319154726 L478.77821929086724,55.58783800346767 L478.8376897950543,55.14639428012758 L479.17881768181905,54.171665020013926 L478.46249892805326,53.89412392260081 L477.58502575772013,54.30381730122999 L476.61650569886524,54.55152877586852 L475.3168700220373,55.59100829716422 L473.638491166784,56.725392088746744 L472.97842153595974,57.37795238718828 L472.4388191254866,59.15319637858025 L472.3770196048537,59.983844570149074 L473.2587086872046,61.21421498864044 L474.05877863142814,62.30071505140107 L475.1873153393434,62.52102318299363 L476.55558851853084,62.541607165147035 M507.0402341705101,55.30754602818727 L506.5940406217253,55.211348891410765 L506.8435259112905,54.79037920843609 L505.98112632258767,54.86434930580628 L505.0248554432101,54.663259836891 L504.56775184733885,54.48001759418529 L503.2804040545202,54.74779803261136 L501.9784211432265,55.743878917607674 L501.0691122602841,57.09487889024968 L500.2750443520791,57.785777962104696 L499.73878749777094,59.48368809319325 L498.9557220418565,60.5518561104017 L499.24905190556456,61.33485783377334 L499.35099645689934,62.348907159232475 L500.2095546325727,62.5524752599661 L501.54490736089645,62.73375894357162 L502.95514520508675,62.27426557516678 L504.29133099166904,61.433090867482335 L505.4995197579806,60.00063888329399 L506.46061995977226,58.77325394132441 L507.41543592132797,57.23091683805959 L508.52620117192197,56.33765984487204 L509.18199071393167,55.56624264645935 L509.163578466022,54.68067514338825 L509.4808380364181,54.16782407705208 L509.66121046376225,54.437701733129586 L509.35214131206396,54.96783734802732 L508.8393010145424,55.728126416030165 L508.99731135996103,57.35764844475199 L508.78022506817484,58.535947424697625 L508.7033910703308,59.44527162242644 L508.37899764470654,60.80676255538631 L508.93760938580726,61.476475782274875 L509.0029121646862,62.58170191365015 L509.6882112284969,62.53694277384407 L510.4011443296296,63.19048256662374 L511.06969172606114,62.710844627325244 M522.1599026510967,55.67919366163621 L521.9957878230655,55.20947860945164 L521.8521958798988,56.087365696558486 L521.7041141136601,56.27947063355039 L521.5101376822765,57.86136111853175 L521.7175730897916,59.209716762522724 L521.3298059348772,59.96871273631247 L520.8233307125636,61.05952006715843 L520.749299653304,61.956491956039855 L520.6875801230551,62.61265320299309 L520.452437474115,63.02692117010937 L520.7775767510616,62.46067084629806 L521.621613608954,61.53817253269048 L522.0664679131986,60.71878453480219 L522.3031829360768,59.22419330412212 L524.1592778499911,57.63653249485707 L524.5587536722885,56.56246616123964 L526.0715515812675,55.84338917088067 L527.212377008067,54.858184732658884 L528.0229296636378,54.04281199395073 L529.0814151003335,54.39343743183088 L530.1308835861648,54.46570703474906 L530.9733260678715,55.27635973609861 L531.9447763418488,55.93479788235889 L531.68438791069,57.32263356378835 L531.9678064878958,58.01518110903989 L531.7891838780818,59.33717895491437 L531.9552264776314,60.92174823246544 L531.8083163504025,61.65179315752546 L531.9825218149479,62.43729810626961 L532.2118558386896,62.649950136282136 L532.4238199517125,62.85738514793173 L532.5929284766918,62.99434013503611 M543.2077198205561,57.607140595071556 L543.0918561308401,57.37130242198235 L542.7801403159199,56.62402812953723 L542.4025392156955,56.46693997276581 L541.9471067586344,56.41821644866676 L541.2945112294417,56.0326623746183 L539.9703412706962,56.6604250362949 L539.0194052490895,56.762521906163876 L537.9938697145103,57.50206058206797 L536.916789697516,58.709040691612834 L536.4046323884177,60.40338406087992 L535.7052955087711,61.15605886095362 L535.938452166239,62.21726996804153 L536.3417922898412,63.45443488452661 L537.2290672488259,63.95789962265614 L538.0190149646548,64.27419022281488 L539.1405134420218,63.281162320489656 L540.7777014308617,62.28801992733018 L541.6021709730907,61.15206116169852 L543.0981534072481,60.195815516612335 L543.6943917262533,57.9820619992509 L545.0081539917733,56.44351181043107 L545.6693106355135,54.6642449123438 L546.3541185244067,53.120520362077485 L546.6812479751361,51.355846754793625 L547.11685011674,50.474240511406904 L547.4761885773528,49.306083552421356 L547.232892777844,48.282040198696535 L547.5356847680115,48.547207400402215 L547.2632541733799,48.63833969969252 L547.0773849742042,49.29740833369635 L547.1009685115814,49.85747327901371 L546.8376144392683,51.61522872359238 L546.7575280471356,52.80565208754983 L546.4640640329035,55.504333031757305 L546.3080001593871,56.736562789030636 L546.7307464863713,58.88483940211587 L546.6970463229267,60.33659805597995 L547.4715513145708,62.02006550114449 L547.9929263540348,62.93982050208165 L548.5607622370351,63.43997491585834 M566.2535304091895,54.05789488146499 L565.9998860818719,54.689053263054106 L566.3443274621382,55.416146663440564 L566.0748403792984,55.90468552321264 L565.7182816962813,57.21431487862649 L565.6559223324364,58.23441584069241 L565.3279791380089,59.65503217659799 L564.7201638404107,60.83183897751249 L564.6674186158775,61.22515164842257 L564.7630368044445,62.21368619609247 L564.2392606090034,62.17692336486478 L564.2989731754965,61.41022975630129 L564.3670139339484,60.98434852835166 L564.7843189818925,59.78852670162223 L565.3455107626235,59.071928214353214 L566.2259364782876,57.124457422787316 L566.6116725322374,56.080806590362535 L567.8771033385196,54.60517152868688 L568.8138785004487,53.23210389835997 L570.1380512242238,52.80045549755068 L571.320191732818,52.69709284759764 L572.0294283046751,52.9413487138297 L573.388688014138,53.10135362654354 L573.9216169767067,54.28773342106456 L574.5941089674417,55.151012644509095 L574.654413835389,56.666087495256136 L574.773094845001,57.46961039938844 L574.4361674460146,59.07929850723963 L574.2337114749338,60.24479978845738 L574.2263932371734,60.08464404574763 L573.8480076204713,60.60206702469947 L573.7876221834954,60.65278836071608 L574.061196961801,60.667535535975205 L574.4233580507009,59.62646903361704 L574.9039835876243,58.66309358537301 L576.0005112152555,57.446958745778055 L577.0747199782311,56.04454041214473 L578.4558269410388,55.19475711700513 L579.0379638919497,54.581814116141935 L581.0190111904722,53.978354347585466 L581.7558610774877,53.47272881986842 L582.9375770265124,53.752202641065324 L583.4840215139347,54.471468533728526 L584.39787388134,55.182454348925724 L584.8817710208723,56.157103040638845 L584.9695032655136,57.23922518605856 L584.5472661518875,58.591451081678436 L584.600269366978,59.87662279932071 L584.1482187424983,61.02144715977418 L584.0295425315865,61.343926286885505 L584.1771866657268,62.15102003703451 L584.0556084705573,61.87017661516546 L584.2360149762551,61.806469781963685 M593.5356694613179,60.538271935704906 L593.728717047001,60.36686930341616 L594.3342609968015,60.672246489802546 L595.6746040352787,59.820131963912246 L596.6190724384098,59.537868502658014 L597.6352064881025,58.87282564750022 L599.0700337072683,58.114139327734115 L599.9716667179587,57.08124302829755 L600.7289771661581,56.362473210166925 L601.4993536912239,55.23965035959219 L601.2001907902484,54.611826158576086 L601.1661397356761,54.05259743404879 L600.6896521835135,53.62158039910408 L599.9266901619883,53.27354224663244 L598.9063793967383,53.39693455881414 L598.1615033425786,54.346744531355284 L596.6487483065276,54.70647153417982 L595.5126047798942,56.2364116078639 L594.9390981107059,57.487120232116624 L594.3058765023725,58.4134528436192 L594.1176320708914,59.97990113584647 L594.7145421246823,61.02617380868142 L595.4854710761009,61.59858309628319 L596.3076049931245,62.04875082396058 L597.9864375700552,63.10109477456671 L600.1635176179286,62.44783941892757 L602.6993283429008,62.512528745429634 L604.1826228734122,61.51420331196153 L605.2464908166887,61.30939056189441 M619.268720591159,55.60849924105222 L618.7799574015229,55.03596466829773 L618.3689613509221,55.33585114140131 L617.5726239875014,54.65345396717404 L616.3894001633564,54.43588359311954 L615.5752389837124,54.34242259418219 L613.9493071442878,55.14455389072047 L613.3071419123844,55.309232174739286 L612.5929902436025,55.609721222258635 L612.592003275245,56.81456954214339 L612.8807289285128,57.12046755791436 L613.8898025899966,57.66721256630187 L615.1099065417877,58.59599302724565 L616.8083908399078,59.35059360305212 L618.0883131711437,59.926132326314686 L619.7229165760056,60.90190894511864 L620.8968235197278,61.64552028831294 L622.094046810834,62.48690121818627 L622.5099601871221,63.02333406820307 L622.736882911164,63.95418831717272 L622.6315038837654,64.17604194763172 L621.8189025491166,64.43987451230012 L620.6509304847046,64.4628642280357 L619.2694899719247,64.5148939138253 L617.427836232781,64.83889554431614 L615.6584725916186,64.32750382573435 L614.0110012400228,64.18211263801176 L612.2475034198825,63.33454972315563 L610.9086082443932,62.60286539311033 L610.1069995535224,62.105644696513 L609.9707730614444,61.33528589971725 L609.6113021776853,60.95590003088088 L609.7561278503135,60.438656938960726 M630.8305446967233,52.48237009725248 L630.7676743290302,51.9592317455467 L629.8890968256212,52.455556333133785 L629.2381266947424,51.964906816510606 L628.0496370639214,52.68290937684845 L627.0342794091309,52.86753351318893 L626.2714236962331,53.48674591678191 L625.4335854365306,54.51431135189915 L625.1319902447692,54.95653516027599 L625.23057853949,55.69968123816209 L626.0023336498641,56.77211104318282 L626.4257917032919,57.738889117082856 L628.1919916022205,58.37632315478391 L629.6240311085805,59.4247235777537 L630.5238673648,59.674484892699454 L632.6808553776481,60.18424633393667 L633.0555569045569,60.75378782147534 L634.1221973787393,61.166913331743736 L634.6615292059348,61.870530497666294 L633.7919926448653,62.42091061656585 L632.9568201355024,62.44340313711159 L631.9210642562089,63.29507393937431 L630.6208852916956,63.437121638486914 L628.5654896796646,63.492181018897234 L626.7991030269602,64.00017227725172 L625.2786323207857,63.968939145347896 L624.2709261733221,63.541888773536414 L623.5456141078475,62.735620567506395 L623.3394278380119,62.6860990781658 M640.4592474029646,53.551447437785676 L640.3332338296975,53.695004712101436 L640.4052138570455,54.03121725836286 L640.270741776262,54.880418344822765 L640.2390497483477,56.04614194633464 L639.7998754227635,57.59439774342339 L639.4289054219917,58.82229217718548 L639.7878928520946,60.293350685558245 L639.7157506313495,61.48730038063638 L639.9446329190574,62.44055822465947 L640.3759431402129,62.32840120119474 L640.2011911923844,62.84714420039928 L640.4535395932473,62.792998366516805 M641.0334365038995,45.50873834437644 L641.0363036325208,45.424650729115314 L641.0592081647928,45.347095214453645 L641.0920557110368,45.29812358545465 L641.1248367196341,45.29977756950983 M652.0400839555439,54.96533421654445 L651.5772553566483,55.37118191122009 L651.9962837703708,56.25216263762238 L651.9881937376413,57.89241625563907 L651.7483458024549,59.14757415851846 L651.7746825098816,60.461081236504704 L651.3677317563544,61.686118183279405 L651.0166116425613,63.27522242107445 L650.921801707488,63.57518426023128 L650.9247763476998,64.54644341378335 L650.7347061879817,64.31264559008092 L650.728410938653,64.08295775813414 L651.1768837336161,62.93630180374467 L651.3351145391989,61.95198964257386 L652.3193960274776,60.02241868444734 L653.1724670714123,58.400328495317616 L653.6492988469198,56.64212678726264 L654.6778920824361,55.11925563734347 L655.829970877411,54.27257274969827 L657.3110942458939,53.68288072514484 L657.8264130808907,53.565410193392566 L659.042523296019,53.42280875317088 L659.9616022671507,54.33377835009065 L660.5773700505124,55.09169445366306 L661.1716065397085,56.429554948080145 L661.8861996490959,57.7347778180208 L661.6899171515483,59.29045569700281 L661.6438147256761,61.001787450819926 L661.8996835706649,62.396829767335575 L662.1667275901849,63.31338153783518 L662.8087573433365,63.67875479990745 L662.972464032007,63.82128943502392 L663.9259421503898,62.82719853666396 L664.8596641093413,61.84282777027279 L665.8492262611746,60.207863188966655 L667.237979454077,58.70660887610168 L668.4482014327049,57.42419728791191 L669.0692583718433,56.2119890054167 L670.2260849257123,54.95232183568364 L670.2175350826545,53.97009329249686 L670.1102016780794,53.06191962672006 L669.8913501564341,53.2718011616716 L669.8525140762525,52.81278951437025 L669.141366429606,53.297914966756395 L668.6642354450795,53.57996602725592 L668.1055122729233,54.923882848917174 L667.4754712700944,56.421141774963715 L666.7782729194921,57.74514207850695 L666.7117141615818,59.22012445116283 L666.6825259159812,60.40452357615358 L667.5296289431053,62.11732941141694 L668.9822197952508,62.433958231802684 L670.5222700087115,62.59721140006589 L672.7706229208089,62.16328312042675 L674.2421505745701,61.2956501677181 L676.4523150697764,60.570084110893994 L677.0312496715409,60.13660440282506 M687.4977224176563,51.66869239103757 L687.1750438824772,51.41826011556039 L687.1001964228149,51.05994379176989 L685.9852253415588,50.96969055085165 L684.695215667776,51.32303187557738 L683.5611556920351,51.4552580206493 L682.7570842439416,51.73406686045134 L681.7255760952153,52.44273622251954 L681.1783039638203,53.01285631508245 L681.4449317749522,53.45482176681696 L682.4005621349115,54.58615547405654 L683.9444917805497,55.332961305408304 L685.7462462079948,56.076601446137765 L687.2980738034508,56.771451250896554 L688.8491771568945,57.24504160211184 L690.5157838976902,58.10549509945016 L691.7931749604393,58.86192092278493 L692.3654574689449,59.23604670630029 L692.6625750436024,60.362694353662896 L692.0176123487804,60.608378543728094 L691.4871957482237,61.526432275551635 L690.3384288689649,61.55239826200935 L689.0010587313513,61.78433930157718 L687.4167275074383,61.506239153632166 L685.5594173673932,61.52532798510758 L683.4342215261315,60.86425554589968 L681.6472761973769,60.788013219966075 L680.796972885706,59.26837398730152 L680.054119341095,58.81362594298642 L680.1830028811444,58.152703673659225 L680.0084943659997,57.430535707749264 L679.9560007507318,57.261059131645304 M699.2837655296914,52.74920313565563 L699.36627085688,52.325344213842335 L698.1870359448017,52.31610951853946 L697.9445945951605,51.87656116584628 L696.9230151897316,51.669419199595396 L695.700655143434,51.9775011883216 L694.9324616919304,52.602313529944574 L693.5663262472881,53.04420495921704 L693.2016935649463,53.45846066327129 L692.9422274530232,54.74991155542507 L694.0248056022966,55.03678224602451 L694.4128822595922,56.1209751564808 L696.3555713371343,56.975087607705284 L697.9286377308829,58.2793461661294 L699.458802153875,59.46311225421621 L701.3030947005977,59.668505877737886 L702.5721966208528,60.96703791447968 L702.9832300109069,61.47494795898575 L703.0835992946251,62.20234005436198 L702.9063480553289,62.63457933992656 L701.4737621657011,63.175080696013744 L700.2990087498658,63.190932808846824 L698.5355171113129,63.685859475968144 L696.250510180214,63.69566839176888 L694.2719402040691,63.2873245724989 L692.1854730057332,63.12304122741449 L691.0917445983106,62.3054089871919 L690.0837705922969,62.29801186271818 L689.9995270561574,62.06785890516961 M726.7019326163305,45.02469175415155 L726.3658520213876,45.0 L726.1915728617919,45.29737053800251 L726.2576048814326,46.39503961748055 L726.3706496856535,47.6883925612049 L725.9230027331831,49.323363514783885 L725.8396906343152,51.317816861329334 L725.7302688010293,53.353922133079394 L725.5846030575482,55.90473231704285 L725.4581709786994,57.87115225665484 L725.5035739043303,60.24525102622072 L725.3600131872197,61.82804457827999 L725.5309775837642,63.61005614039081 L725.4881736775458,65.19652270128765 L725.2480669342635,65.40377617653007 L725.5174773079716,65.36642271571954 L725.7910032303362,65.9336716141625 M723.0160225405546,55.18813486328549 L723.3960789591931,55.322040640374 L723.9380635764584,55.36033220649591 L724.9584402504486,55.22023067745353 L726.1527544341573,55.560413260234164 L728.1285253247956,55.234157261880355 L729.7546440195665,55.19095529661079 L732.3287439507305,54.551114571496875 L734.8556872077675,53.71368999212624 L736.7250488844461,53.59870268285948 L738.40296722103,53.051861179567574 L739.5670740931193,52.533953765981686 L740.6140829521441,52.12126211689051 L741.4807001128265,51.473571931184935 L741.283202433576,50.67692930795996 L740.4353551647368,50.25456839267305 L739.5629853478142,50.34789200823829 L738.3333830053145,50.50660434617841 L737.1387853524307,50.98760162258426 L735.7536656636863,52.300954686400694 L734.1373574576962,52.944729571252765 L733.0395371939253,53.93534513768296 L732.453098042484,55.14228784265813 L732.2777577129291,56.474810318361 L732.669037710157,57.941981988164784 L733.1323077086437,58.81004063262142 L734.4570434024511,59.94769668643752 L735.8043420065808,60.114871358762244 L737.6260979283446,60.380037277916834 L739.8949813608003,59.563646157606435 L742.5023062079049,59.008704925579714 L744.5286711751437,57.80517460738155 L745.6631870172688,56.60345218316359 L747.7372019393566,55.18632094354464 L748.7467401506922,54.05136269661876 L748.6943292779872,52.77528675774138 L749.0913368471255,51.714782425496665 L750.1391321281861,50.65619726449015 L749.7875596546841,49.94687982662822 L749.9060027270872,49.8209874885915 L750.0678611364633,49.4574172157337 L750.44156613261,50.00906474921386 L750.8523414962209,50.353199317867876 L751.0221704679072,51.14442450493823 L751.7416823597569,52.53708044970742 L752.3693021345106,53.44717180163353 L753.1375129238,54.62083870266533 L753.8682881940636,55.638761880018926 L754.43557646892,57.34414936004343 L754.9611570004168,58.18567387009734 L755.3631560177291,59.28442905402237 L755.2794352214188,59.11800830579205 L755.0476075452634,59.77970396060142 L754.296671083184,59.97829088296224 L753.3530953139266,60.14437117637827 L752.7633864642535,59.96992828342552 L751.6612331526217,59.82016255213769 L750.6414291651603,59.57221245779592 L749.3595819001532,59.54728416016332 L749.2958699184791,58.798699655445986 L749.0850873528448,58.70872707469706 M764.0577236422238,47.793528349500924 L763.8715664156613,48.21557214985493 L763.5895839937863,49.01665285359028 L763.2624355562863,50.19825819264057 L762.9653469332394,51.642243654829294 L762.7066494234737,53.27595403919819 L762.4768520601924,55.02866414318684 L762.2801967867549,56.854936213594705 L762.1678920992549,58.66356232891682 L762.1927944430049,60.34514406452778 L762.3830410250362,61.77631500492695 L762.7668606051143,62.87199762592915 L763.3220058687863,63.5237019373 L764.0339199312863,63.649944574934274 L764.6930080660519,63.4576561761916 L765.1591945894894,63.163512499433786 " fill="none" stroke="black" stroke-linecap="round" stroke-width="2" /></svg>