<?xml version="1.0" encoding="utf-8" ?>
<svg baseProfile="full" height="100%" version="1.1" viewBox="0,0,1000,120" width="100%" xmlns="http://www.w3.org/2000/svg" xmlns:ev="http://www.w3.org/2001/xml-events" xmlns:xlink="http://www.w3.org/1999/xlink"><defs /><rect fill="white" height="120" width="1000" x="0" y="0" /><path d="M0,0 M347.5274561971537,47.469605405454864 L347.1159182612655,46.80126764951209 L347.26834996333434,46.19637612814591 L346.31928540933814,45.43809290121294 L345.82278544598483,45.0 L345.3048001364227,45.03800311138239 L344.16555121472436,45.10307578849001 L343.44051335587585,45.469187623322824 L342.7515249557026,46.262722108357224 L341.5799491771901,47.45193381275396 L341.0277472630537,48.15941145368067 L340.6627306069931,49.51491904763333 L340.1173049472991,51.29303784516664 L341.21342594364734,53.269798006378636 L341.1372750438701,54.980255441297594 L342.3841427181262,57.10801325006804 L343.66766700584725,59.20438289801554 L344.94866124174985,60.93752737421288 L345.7200347537092,62.35486670046038 L346.9152539187373,64.44874206762536 L347.4124102551508,66.78609597828907 L348.2324586710941,67.66291357475434 L347.57895654722887,69.17739318395678 L346.9583115104908,70.60567119453023 L346.34137285855707,72.06106740286404 L345.4054076066964,72.56100151904411 L344.2074342527689,73.36263969931896 L343.202934515685,73.76306514318085 L341.75109174733774,74.17839075848637 L340.37734379955566,73.65311987961985 L339.0957841813234,73.1579628395964 L338.25257229069933,72.60069130612743 L337.4423721162771,72.2113674589841 L337.1578611858219,71.05981560465533 L337.5201857277539,69.72091998899137 L337.3965817161197,69.01085409011661 L337.0278462899766,68.47928717262356 M356.56175814152283,48.396843749237405 L356.276481226736,49.05336597361795 L356.4638413661663,48.799414785411834 L356.55121986096873,48.934907921670266 L356.6764124004918,49.239439484341965 L356.17646164128286,49.99822516646794 L355.9192129039742,51.19212057553347 L355.51768764619203,53.05738029322377 L355.1977146961697,54.849104449346356 L354.91057666146634,57.90146302373083 L354.43423187679343,59.75338173236411 L353.89271885005707,62.58590931275103 L353.3218821624659,65.09497407793768 L353.08413969561195,67.34432727614028 L353.3258152875091,69.19679639450389 L352.96531919108685,70.9674618755069 L352.5720364521472,71.79702184662384 L352.3507416104085,72.37805054442099 L352.431286124854,72.76695290608679 L352.51912264218356,72.16538832718621 L352.5775201687355,71.78779048622587 M351.99070516370756,57.82798127813465 L352.22889015991075,57.838573772534644 L352.536938726828,57.98415112212147 L352.79763300956284,58.227132096669024 L353.27088516352717,58.07441527942429 L354.4732035893027,57.492756263504596 L355.69613889830947,57.22885249415359 L356.920040877947,56.098199886974484 L358.1032835352689,55.38934454931645 L359.0593456822993,54.02774284439618 L360.29416269895756,53.00569863142878 L361.1890327483726,52.30698924221383 L361.77095412461614,52.08950021781982 L362.1148672846508,52.136232409485046 L361.9778789889824,51.922301571060984 L361.85708588860274,51.908031539073946 L361.86379927792973,53.16889689000689 L361.3126770340455,54.33115816469251 L360.91800263685684,55.652015886797344 L360.64765105634183,57.42274190722435 L359.7558999643072,59.616413641315994 L359.82414763688695,61.835567665295265 L359.7912488332318,63.37104051601894 L359.9995282946418,65.04267442129097 L360.2867476334627,66.4823185225507 L360.62750817260985,66.78355752077303 L361.3261903107236,66.99977559015913 L361.3926823728808,66.56931157140282 L362.30391275507606,66.00296818347799 L363.057869352217,64.3942041875537 L364.1674946226324,62.95735734052413 L364.87570783668457,60.65482594045506 L365.2741472120698,59.07549381135308 L366.32129629176995,57.249533485783374 L367.2223768277471,55.34071533332315 L367.69140954214697,54.51472151970137 L368.4676198765265,54.047493275231204 L369.024122734122,53.68756012442284 L369.23006759019194,53.96340527448497 L369.83893650104386,54.20501597974425 L369.8141615487542,55.33101399479523 L369.5056964202951,57.016520235081934 L369.6693673929225,59.15605538402197 L369.2955579214693,61.30570663631328 L369.4371096131427,63.90190190615908 L369.31422338557104,66.77846146660552 L369.19002812403346,69.37678359570043 L368.35976917269073,71.6875996285693 L368.7438928940555,74.1416070025692 L368.63091988026247,76.25710032291425 L368.5034686923274,77.89911608779875 L368.1352758143481,79.71120355722937 L367.87062342434547,80.44068712385726 L367.5118959754399,81.49306108420197 L367.2467737081839,81.32118981580082 L367.29116654456357,81.25728116112018 L367.2704275574596,80.82746303746399 L366.8478935764157,79.58911848343374 L366.42632629338334,79.49009236249482 L366.63005877655394,78.14119580892817 L366.519325276987,77.50488133936771 M375.03825067444615,45.253421372537304 L375.6297049767095,45.03162780096095 L375.48711006189376,45.640043678143286 L375.5328436176379,45.33789855399616 L375.52689683901906,46.45961671155179 L375.82721379661245,47.68981619417802 L375.991604856794,49.30863684350352 L375.845920154389,51.38281881079575 L375.6148417458557,54.28113511369836 L375.33899270982596,56.56990737032902 L375.41506308516534,59.26551525821577 L375.7380960642597,61.75586232751668 L375.6311068382216,64.5334037758559 L375.5421887603672,66.90340808297036 L375.58575178725016,68.54904562149335 L376.01491369633214,70.2122273548261 L375.51271584600386,70.6081934116186 L375.9965876918915,71.33474902456116 L376.5150601558611,70.73780654920019 L377.1249474387379,70.43839864523987 L377.0610661963416,69.72338526801856 M384.46138320360035,62.292295687012746 L384.49090307416986,62.53589266274653 L384.43682821141147,61.82577963545583 L385.1126483280071,61.98892202237866 L385.1955659984961,61.043265371229325 L386.4149076940696,60.26316159397982 L387.18982423464524,58.7810822970917 L387.9093927085354,57.86616842303733 L388.1910576550316,56.24265503522901 L388.66565131624384,54.50605734624851 L389.21168586852775,53.39981474872235 L388.84276757807254,52.416948466968535 L388.3799719598681,51.37974655898286 L388.40285605082073,51.2093401041499 L387.32177533748734,51.46801521848739 L386.56354902792276,51.40346095238195 L385.83352476089595,52.17235819396157 L384.59502478351817,53.99562958259661 L384.1574298952217,55.84666646376152 L383.72776217964685,58.644066228391836 L383.44346272728086,61.24374724332133 L383.0039940085803,63.809607479846015 L383.5650883403021,66.09508350803331 L383.6816791337163,67.66373477884466 L384.35143024452935,69.42633696048058 L385.9112531910965,69.84031403235771 L386.44271118161316,69.99072013969895 L387.54938423141914,69.86473104582541 L388.4961139119695,68.78629614734132 M411.01053933942177,51.70761463901283 L410.3607484707768,51.323904895503574 L410.81554106955616,50.74740659302281 L410.6119095500753,49.84939362981591 L410.5377943906332,49.173045982957774 L410.3114382641179,48.70193556793049 L409.90841264996493,48.5637237218194 L409.4246349514599,48.08361954729774 L408.3106918575502,47.87814489658816 L407.7770505582338,48.26452315322064 L407.23920926230716,48.491273033411346 L406.3062282729038,49.67197572180615 L406.36727747030614,50.73679442314625 L405.50115974141454,52.73042811358401 L405.52115125132497,54.46473495924913 L404.8236660746705,56.6661783190537 L404.6133989630506,58.1058454151207 L405.21307298651755,59.208246943787316 L405.4531539559837,60.014253161098075 L405.96904364533725,60.828907715917175 L407.36258129695955,59.463979157197265 L408.08612156161996,58.58324724667009 L409.3911131891758,57.137650036706546 L410.33546209117696,55.94660827642269 L410.95710595022365,53.72120585677777 L412.39835329726316,52.02032595298181 L412.8513850834746,50.686225038783874 L413.40072542135306,49.5863305995463 L413.9540758253345,49.63720791234835 L413.73747701580515,49.51757978514372 L414.14862844746335,49.97405885657507 L413.69489798651523,50.39860973179594 L413.5925418413909,52.14489771014555 L413.16999565900255,53.982325919670785 L412.6551754042842,56.170281466264974 L411.9941002917241,58.198775390176046 L411.89993757025644,60.70062399615256 L410.5745551953114,62.25888836187967 L410.59479855984114,64.89965470994733 L409.8462429904795,66.52974908270332 L409.4148894020164,68.10314279902018 L408.7708388408013,69.70712059377215 L408.2706863696356,71.15184863872301 L407.8475075026969,71.83166353847135 L407.5844391193726,72.50027866503615 L406.76401271781384,72.4891148818867 L406.6482950532248,72.27766314120115 L406.48371633632763,72.3909379829544 L406.5399109430475,71.70650726251745 M423.5563042514208,57.04824073021091 L423.5086594972911,57.07158608577342 L423.437603916194,57.05399812618878 L423.870839877447,56.99474988529734 L422.90405034139627,56.93998308256986 L423.46941723354604,57.131587456071244 L423.08724878981,56.53554122778914 L423.24908935102223,56.95199410474549 L423.3121133802488,56.66090875159724 M424.2926499895102,62.86248110591509 L424.06361152782677,63.01108349075441 L423.9472055098918,62.81255627512684 L423.9900396784467,63.0250647989956 L424.169669928481,62.923064674979855 L423.82844618791466,63.05782587282523 L423.88641905129504,62.8173808733206 L424.07928869793767,62.85442958819252 L424.277592249915,62.474211369931595 L424.34536907861536,62.570405929611326 L424.71261265744363,62.808455973389435 L424.3245355202656,62.677212636579036 L424.50335055737,62.25548792914829 M445.80644815694825,52.493080344775215 L444.9922491450493,52.4143272941251 L444.6975086651605,51.45297209215857 L443.9863998078777,50.99344255813803 L443.52649417022354,50.7776090295565 L443.04216416701524,50.47782100810299 L441.4282973283364,50.48709626991398 L440.8712918229786,50.61701227613462 L439.5770174890474,50.65585492488712 L439.07014410992804,51.035777648979305 L438.2198039900027,51.64576123364588 L438.3064883969924,52.50321627551457 L437.9622384903947,53.701049116634586 L438.81667777547796,54.607215447225904 L439.6822852646851,55.93638033515139 L440.5318908122508,57.83956173240637 L441.219248600004,59.04014051953938 L442.33779554323166,60.43633282694858 L443.30714235012647,62.145102416820826 L443.2152928538653,64.15405053551942 L443.84023589613753,65.89779119511812 L443.9113460837615,67.26778286741948 L443.8753580181102,68.44537468271068 L443.32531806377744,69.75225561645622 L442.4886366503787,70.9049642758425 L441.4320251660898,71.82725272886654 L440.3297574506497,72.24471571148885 L439.6722203166474,72.3575680416989 L438.8768444217476,72.77747719906955 L437.6207847536348,72.59482349427388 L436.68412731312515,71.96231372665979 L436.12851567865744,71.73780442413837 L435.9311081655504,70.12133246585068 L435.3733613441764,69.77039567691854 L435.80806316618464,68.78504922320175 L436.15170919849675,67.40268801019185 L436.7066596172649,66.41169218919254 M450.71843086699977,49.938538277760955 L450.8468842476897,50.10349580541053 L450.8511758655952,50.64163658032079 L450.70147106808884,51.42437441629651 L451.07375712086616,52.645450512674735 L450.9391067684609,54.84317119760924 L451.00243791828836,56.62700462741511 L451.1096976144348,58.858309692440436 L451.3805664817191,61.289023343092445 L451.16384195153813,63.288440983005664 L451.2024917939051,65.89115140294938 L451.3119805732822,67.3312328251904 L451.1313241625743,69.08744065701586 L451.5005824443818,70.47636926305687 L451.596743139791,70.201620050568 L451.3283556366709,70.05600789583134 L451.4816347239365,70.142252377298 M447.7431693944089,61.4004182090318 L447.5862766595062,61.012431497552 L447.5854745911478,61.234089311179495 L448.34736120322236,60.85962047131657 L449.27398243810865,60.898168414059654 L449.96148279783324,60.78213589528579 L451.78323309921143,59.4515768726182 L453.0290388791602,59.10266620976723 L454.23976697116336,58.33334956108217 L455.76703177844047,57.67525082523397 L456.54489397664923,56.75138651963727 L457.88577884776447,56.633296479124496 L457.87564720370256,56.52605434185253 L458.1502619355919,57.10411557470044 L458.0982976981794,57.69499255250121 L457.60195072526466,59.444652795806185 L456.9240351406437,61.07363335175283 L456.82766100974936,63.34570812532144 L455.7688817196328,65.00975553916255 L455.8405156263771,66.91297632025059 L455.6531262922698,67.97328163541728 L455.8123460448961,69.11160645941312 L456.41821536915467,68.72503031371807 L457.6361058957346,69.13478952660817 L458.02143518207754,67.86545580820672 L459.1256223448539,66.58759105766248 L460.0134280873362,65.04226854710446 L461.66952164672057,62.60701192853558 L462.62415903215896,61.74400288450711 L463.4204844799873,59.95990801983842 L463.7559351594133,59.252873898138546 L464.25872258726156,58.26139702112595 L464.6682390472438,58.25659758267928 L464.8646077954045,58.31380242608986 L464.7441602933145,59.37592018657934 L463.92115118640254,59.882047707680826 L464.0319117808847,61.52188056442424 L463.62524183581877,63.5657471955834 L462.7159864263409,65.75220951962724 L462.18010804678477,68.3590806359973 L461.7287330760378,70.80493307897036 L461.6295638282078,73.05771341907015 L461.0935676046604,76.06525490992115 L460.9137454878735,77.65989268000592 L460.47077645520767,79.78487888990773 L460.3097156551437,81.23017486724365 L459.6992088971932,81.93187722673247 L459.4326336309498,82.92780193620926 L459.4104279436332,83.09923892757925 M470.6042671718292,54.25157775069278 L470.2787182388594,53.67621320584416 L470.20846368070914,53.920160275555816 L470.78299399598916,54.3825888597306 L470.6328157789928,55.450296909162 L470.5479224754572,56.01399466135618 L470.9382941602121,57.93042315222129 L470.45077667113776,59.55508760329609 L470.5128672804683,61.255480341681746 L470.18909256513933,63.122845645092156 L470.5722945319246,65.76318435829992 L469.86495521389884,67.44944121704141 L469.83892767473367,69.30151925753651 L469.7466138128237,71.07999739585597 L469.49661413630724,72.71350917275258 L469.71624438943707,73.79153662546929 L469.4567244478824,74.49758761289817 M476.33193443407424,66.86374538113489 L476.22339937773313,66.65076165807585 L476.67331399287013,66.99379115729793 L477.26132275797477,66.38961454078806 L478.2353153006369,65.55927148277763 L478.8017054492685,64.64151761960629 L479.74441328670713,63.31697848588718 L480.52798807870965,61.99054441153236 L481.48920489350934,60.386193080715415 L481.7234158340606,58.97511621412524 L482.15661280569657,57.93167729510561 L481.877869956264,57.03233496758799 L481.66605452496685,56.408249772409135 L481.3254939932532,55.944392536004365 L480.1833487344712,55.90429410000145 L479.6587172727614,56.66725377778095 L478.26551395297435,57.37600650134812 L477.78655497064784,59.07241855660697 L476.7617704359641,60.89637755324824 L475.9067487560918,63.564931862244215 L475.64101174148783,66.17160225362942 L475.37002769741696,68.17327637364863 L475.3862352050197,69.443349512308 L475.9903384188721,70.90597347079932 L477.140179901155,71.29559148052579 L477.7798315269142,70.97668211538159 L479.18690832725923,70.5712243578136 L480.6618096316716,70.47250103202076 L481.5097148170525,69.29619302682146 M501.31941444108804,59.170375577818994 L501.11520803201495,58.862514752275985 L501.62458248714165,58.8753673160983 L501.1170433533521,58.76987581152862 L501.0576538875274,58.64621203976913 L500.9085679318788,58.47581950735868 L500.3704697119879,57.442808749733175 L499.45345359181283,57.745911488463236 L499.34615527979406,57.15663286368772 L498.4557772191655,56.88496360460411 L498.2225320991089,56.888576853173724 L497.2312401691323,56.92216432613735 L496.3114731581195,58.15719338541852 L495.59169733391366,59.70749129564172 L494.5490680527669,61.24725341516909 L493.6422449467352,63.135040527016145 L493.5559832747444,65.09059950679104 L493.16355042342195,67.10307980697095 L492.5485932672424,68.97575681002881 L493.00012572810795,69.83964708528289 L493.2215090246391,70.5541492869769 L494.19012509062725,71.16564847507003 L494.6477756177853,70.82313818058843 L495.20004294063733,69.72515741143863 L496.82840359907885,68.20008637806792 L497.84118311028635,66.41741745597372 L498.56046837421724,64.23036649453701 L499.37020400467,62.40934264435949 L500.48914273979153,60.87142613943292 L501.0872625766141,60.00715649933038 L501.64796379177193,59.143411043986184 L501.4498384079418,58.473857123272055 L501.75846082232897,58.606006567786935 L501.61541738917987,59.52910324069791 L501.27872034347695,60.618872770466396 L501.019316762382,62.37520987293739 L500.57214094146696,63.878871118468375 L500.1696002978583,66.42425343832167 L499.9380743373288,67.56687530140118 L500.1951856181989,68.9477638244285 L499.9885217699249,69.6089038028208 L500.58880106605295,69.95295072288748 L501.3637892110314,70.08742196764607 L501.9160658945107,68.92348904706628 L502.570161048439,67.53166095363021 L503.1970583887711,65.39463684935343 L504.1192561816506,63.546250892977 L505.4908756178612,61.62711947941573 L505.92580023073526,60.0271276611169 L506.4473017920988,58.66231328104081 L506.91148494174683,58.30145100209554 L507.3241209426383,57.55875593857809 L507.8208380284998,57.46721906382494 L507.5332156498064,58.307738328740626 L506.87542016562406,59.241421864348005 L506.90101293336704,61.30268255942381 L506.8277534884538,63.11431948417246 L506.1265683202583,65.58318120929616 L505.84399984040573,67.1139844471327 L505.41913492002413,68.11176154469061 L505.42154472248296,69.05194338558435 L505.5743785067144,69.88860991731705 L505.4914688644845,69.78294469790734 L505.16205579193786,69.43136483878527 L505.7839123256523,68.63475803810913 L506.2447524206302,67.01946330368914 L506.8954365439997,65.48280318455534 L507.8818408439711,63.03104223129836 L508.83840096481936,60.82325719720887 L510.1782771855794,59.479337435300835 L511.2678223938788,58.12877462059054 L512.5692533057618,57.428815084469285 L513.5804122766247,57.54147053404891 L514.1157469059892,57.97935371862164 L514.8458481159364,58.318985757744066 L514.6024373319849,59.731752313136106 L514.5737496943,61.606739237841346 L514.9226929705139,63.317149105771016 L514.2403637301154,65.00629682254484 L514.2997830501508,66.35417716274773 L513.8893192542731,67.6628847084553 L513.537387690794,68.35760443397668 L513.9264230336111,68.89379332205682 L513.7548293340942,68.76266662306712 L514.0073975873788,68.41018353110897 M527.5542806869278,60.814937437881866 L527.3414530345508,60.36206623733977 L526.8674165594712,59.796486868199906 L526.994288842747,59.456786616811996 L527.070321052994,59.06807187342012 L526.5606773029829,58.6639470959865 L525.9492112868726,58.508924933722184 L525.2175474994361,58.37725640566088 L524.5269433065542,58.45942268794355 L523.7616474985923,58.91017124236265 L522.5868211126598,60.44701016252982 L522.5572758903826,62.01331180013813 L521.8233203898362,63.74226281208381 L521.3997428108032,65.52682767872572 L521.3528420201418,67.46454701179307 L521.578305632891,68.6537788866003 L522.4112755265089,70.0490685403828 L522.8005043127199,70.55523553638493 L523.5496726209603,70.97877551547481 L524.3665994577544,70.41624761476768 L525.1081824110468,68.97454713952472 L526.029360573262,67.38016476301837 L526.4435881878276,65.00404847770504 L527.4582154130312,62.85070097079084 L527.861644207785,60.091690321519735 L527.8519789208344,57.4758631350303 L528.6496788772424,55.43622366025734 L528.6983675863264,53.02882501948133 L528.6581989441702,52.586684524163026 L529.0754943870033,51.643370670835964 L529.4548611025414,51.65575940563032 L529.4256673864497,52.27651159430817 L528.9115236790985,53.355186613941754 L528.4764646187998,55.24713229507429 L528.3549367409615,58.052977774988065 L528.3994478720668,60.3802153134277 L528.4439113576188,63.28938836965394 L528.3708563591649,65.97692445187741 L527.9284019998322,68.0022060224208 L528.6290225357933,69.54123526721106 L528.751785807,70.38367746139699 L529.3754781908643,70.90774749823935 L529.7353063910974,70.3600138285401 L530.6246564307364,69.86412000195794 L530.7902893130622,69.27678445261259 M545.27828125519,57.74355165447329 L545.0685918699397,57.520541634890705 L545.5142311176371,57.50740512958555 L544.918404089725,57.45442762673526 L545.2254232509994,57.94656458132786 L544.8316834944449,59.13456885169513 L544.8663831858706,60.695789311588875 L544.2713407728959,62.76136120359156 L544.619062073106,64.18889668028632 L543.6474782193104,65.91488273499763 L543.7531628051736,68.26987633511767 L543.4744920979742,69.75667460434029 L543.3445159224943,71.02327867860815 L543.5181960302106,71.762050543209 L543.5510662910553,71.15904771772769 L543.6240489465243,70.91686791902335 L544.1109305443478,69.8173368536228 L544.1947223329521,67.80172941768913 L544.5158057831377,65.6211128752362 L545.0692460794623,63.5574557315517 L545.9743224567032,60.82314151666832 L546.9938561975732,59.34602636960841 L548.0190857318894,57.83379175525375 L548.6803377951286,57.35199339751775 L549.7602283771278,56.816238063816456 L550.2481512423135,57.32598944016343 L550.964059005145,57.81998727803924 L550.7328558736623,59.424499678781096 L551.2340202153625,61.3601594903287 L550.8298524555355,63.61210273568533 L550.4293754458764,65.88706116766716 L550.0845917334304,68.46147179339316 L549.6065618147555,69.54212449782361 L549.4880731930559,70.76615762119916 L549.6949771961242,70.93183487199242 L549.6687740037834,70.77875387404865 L549.514108537389,70.07068365771252 L549.9647469647624,68.55190534595448 L550.3511204256897,66.25200974058089 L551.5762985563543,64.19415683110277 L552.36222028708,61.72973868872895 L553.9292081347552,59.76245778261463 L555.1866484832465,58.44682209306435 L556.2295823611474,56.77990309996778 L557.0844399726204,56.449297182713714 L557.6689288241271,56.18345843488438 L557.7933278325279,57.00497960289629 L557.8893868100183,58.04569818695506 L557.995013349808,59.52264786532066 L558.0598589323522,61.71859932050404 L557.2325782139676,63.79019951960705 L557.0576430645693,65.8641682372042 L556.3322535552259,67.6227433086742 L556.1699335260205,68.60782766302438 L555.9171950850484,69.27636496757474 L555.8937613530842,69.41900891835459 L556.1915826119023,69.9092297867682 M565.7201598958935,65.58110322627823 L565.8957232466964,65.51793118322863 L565.6717980748845,65.44379600187942 L566.3646372651883,64.9425807507551 L566.8190911766679,64.1415620346817 L567.3559443035956,63.24480255662266 L568.5203078516554,61.833601640132485 L568.9589471651011,60.20176746925938 L569.6495988351978,59.10625992050443 L569.9285185619433,57.93475050099258 L570.3479662260786,56.74625656360368 L570.1068268217872,55.995275171453784 L569.9343129315661,55.75092811887254 L569.0892138971268,55.56877107666627 L568.6651289501732,56.271367431136646 L568.1197100679785,57.43950204595742 L567.0326890517227,59.2363189194961 L566.7011107861495,61.368354701409984 L565.9784904949406,63.75695988131745 L565.5543701599488,65.5722407847735 L565.2899415343352,67.57699031956403 L565.7878217246798,69.18647254550847 L566.9170139136562,69.99066380997753 L567.4537207313863,70.80586897484002 L568.4300692810307,70.62115006687914 M576.4663329066526,56.28928691079599 L576.1499861603713,56.071515910358016 L576.0135095556725,55.82461179379336 L575.1261421303359,55.64007910100734 L574.304493270449,55.68684988072189 L573.3866345011061,56.50006503900459 L572.9946090867163,57.82494850224715 L572.2936037934545,58.50501003709885 L572.6687451167528,59.209734433692404 L572.6406224097965,60.73144891472385 L573.4559239025018,62.04807041570571 L574.5069148156722,62.96431059530689 L575.5540461585185,64.33854754107135 L576.8084350408452,65.04788849913514 L577.649547732844,65.95298044155264 L578.347352909373,66.5526774898363 L578.1836197820982,67.90753192616086 L577.8721324283898,68.21503545934863 L576.946697168745,69.0784446458269 L575.746275261521,69.3014228293969 L574.7968071783157,69.3725079206918 L573.9521814355146,69.8787835845652 L572.9575164418172,69.97192529806276 L572.4095083315456,69.82649343747109 L572.7048450483692,69.25496461119752 M585.6234487993579,56.58053295095224 L585.5069812493916,56.0657207044723 L585.4107330515568,56.09948447762279 L584.9224206643582,55.706254089221254 L584.0876538879381,55.46922688875877 L583.2867199214951,55.69676703674524 L582.1394855362255,56.201864008142024 L581.7724534656459,56.426972787945374 L581.3829555410957,57.348701648822605 L580.9698690894609,58.55557307831362 L581.1903242848311,59.16440794368069 L581.8862652572692,60.67951739248147 L582.7120341810919,61.0497671660055 L583.7510978831685,62.41932077127485 L584.9896260189726,63.568028088380224 L585.6249937891931,64.83617813568557 L585.8146616640029,65.6577698650661 L585.7744440684828,66.74103648399387 L585.3599738659864,66.93379706877815 L584.6026370170256,67.9652367234074 L583.0980193197449,68.23015745256652 L582.0346828830454,68.88603198952265 L580.5709018817804,69.10308922587197 L579.9622800739795,69.1399097455811 L579.3623220201858,68.39250041544103 L579.3763512676321,68.08704054947694 L579.4699795663776,67.300488578334 L579.844815501322,66.04110728220188 L580.3516258301352,65.3643499541894 M593.4632757794545,57.49156000137523 L593.6870091896244,58.084487332640386 L593.5915638014922,58.22385729185657 L593.3758006322421,59.209404447805646 L593.5423539272492,60.39904763597042 L593.0431906634558,61.53673774231727 L592.8331478011683,64.18550025604878 L592.004612256653,65.41828787657339 L591.7768976889472,67.55798464528897 L591.6461419820993,68.54511295922576 L591.592695287704,69.35635609285342 L591.8411709010661,69.87378484981335 L592.1399063688494,69.62895370704537 M596.257168813542,49.31529025846209 L596.2863920899429,49.18026905350902 L596.3413854027328,49.08734418762377 L596.4016944365221,49.05789107430793 L596.4469217448267,49.113284279744505 M604.5269897954093,55.77767792565789 L604.1756769135222,55.47609911803879 L604.4497955108559,55.433165521155665 L604.0872671203841,56.301129794964275 L604.1518609171297,57.341345647999965 L603.7641207932637,58.410544439790435 L603.6918694136514,60.255113434574035 L603.1336259347745,62.35434175156183 L602.8717301989127,64.00926458851971 L602.787266210423,65.52317580825547 L602.4779544411167,66.97259244394633 L601.9436302010528,68.3222719749086 L602.3320073075338,69.19167247448044 L602.0183526460967,69.09694512070166 L601.8167307400579,68.83610551422683 L602.4332875115756,67.37386400519554 L602.734895485065,66.02737882282268 L603.2567211909624,63.83377259681682 L603.9258048605923,61.65443307958815 L604.7848091049002,59.47863937460959 L606.1348227268315,57.625901401755556 L607.0552176286603,56.39971628694397 L608.3766677451113,55.15597160459965 L609.2110098969335,54.37438881562311 L609.9409692818443,54.630239359642076 L610.0149202402959,55.15735788989325 L610.3659201046462,56.092139828977764 L610.5064484822149,58.52796442808871 L610.1089446400597,59.82879812333117 L610.0327897267797,61.866463261736854 L609.6156612177695,64.0975711325913 L609.30343426183,65.60702284331892 L608.9055772490617,66.751851358739 L608.8321377592749,67.71918952962385 L609.0861956625856,67.93676089554076 L609.6656160940936,67.76704581064891 L609.676758127728,67.6229966784469 M611.2391585980961,64.34686501846764 L611.4384275848322,64.31264883723448 L612.5539289926711,63.72662067966307 L612.7301851382354,63.32717588566025 L614.0070189426265,61.87685381324835 L614.7147074041086,61.03780475892063 L616.2761649328554,59.51997065308263 L617.0565916005334,58.56374693138031 L617.7675303351809,56.22275190747528 L617.9615245564676,55.392672882531606 L618.4197237818779,54.50741636326493 L618.008392332327,54.1622252456498 L617.2218060128639,53.80163801227591 L616.1172113096759,54.41243162529105 L615.2094640873057,54.93396107267025 L614.7037727062252,56.71016546090172 L613.7925763338644,58.749503053562975 L612.8798322307508,61.092420879454956 L613.0542384452806,63.383139134053586 L612.7093940361092,65.1735839842425 L613.2619686000841,66.6956450321991 L614.1013068083511,67.67170657835075 L614.9194184926366,67.69441619106942 L615.9442352614254,68.08144037570078 L616.5257496330846,68.1816600335654 M629.0450121788449,53.49091047503644 L628.6134200227727,52.916912318376504 L628.253313867561,52.802897761853885 L628.1395495667748,52.160939259889616 L627.1292535913224,52.39027016584133 L626.5501436223316,52.48559371756886 L625.9370117718531,53.81114551639831 L625.2858183665548,54.640496014492854 L625.1533422937466,56.43332192811891 L625.4100122202947,57.23949840204105 L625.6022004208947,58.16095177928636 L627.0625084707297,59.34432455691343 L627.9551563666548,60.34046245511722 L628.9931384565373,61.45361835328414 L630.0570993422174,62.6289933831205 L630.5422469046329,63.52213292706895 L630.6962726793079,64.99396440889072 L630.8545186237483,66.10043142713573 L630.1964608313931,66.7464563290951 L629.2290448002286,67.28422079761876 L627.7925996712365,67.90517864122685 L626.9716218966208,67.83280152656609 L626.3692166747458,68.40566499452599 L625.0083153238363,67.76836438624588 L624.8935321191302,67.42909436009886 M636.2880348760749,57.55785897878865 L636.4717518207377,57.054675947588485 L636.3389065745992,56.86281861090166 L635.7027429770116,56.26966351179535 L634.9441092030861,56.656100022690914 L634.4326558743396,56.779726191738504 L633.3271289228874,56.89622674902519 L632.3057216343736,57.525007930901424 L632.3101722557187,58.711419150967615 L631.7304783728321,59.770361878168835 L631.5656615273222,61.16453601730989 L632.3519069204685,62.568242117159144 L633.0141086057371,63.6959626815397 L634.0822460637032,64.97327925760659 L634.5691616602904,65.87166786376542 L635.1605908211216,67.05268864815521 L635.6194695432259,67.71949728662857 L635.4155726550609,67.87061869585145 L634.5961041793453,68.51964311313925 L633.5477580849811,68.88425114552899 L632.5353925341855,68.85855072388381 L631.13013361301,69.69862913764617 L629.6759645698507,69.15225771009806 L628.7982403028284,69.49295888681661 L628.3623133433521,69.63584809479416 M653.8763777467381,48.44443590901594 L653.7958526632257,48.453119458236856 L653.5213996099577,48.121208653012964 L653.575256151693,48.42799659830043 L653.5252241735291,49.22612815861339 L653.4723382377188,49.66459086325981 L653.3625251860747,50.53233174206433 L652.9831500189695,52.1973811666258 L653.2766831116808,54.29536464766003 L652.818823078457,56.197380026790064 L652.7957117091025,58.75226252569195 L652.4878150372273,60.95569888102432 L652.3636568032794,63.119829803480556 L652.2173394785918,65.74321165827283 L652.479389648783,66.97034206865777 L652.1407882430444,68.35132110976778 L651.7865071328247,68.88581805914785 L652.8780599656806,69.10918039852052 L651.9246774737471,68.52228970213899 L652.1522645938121,67.42426958801465 L652.1351709211765,66.81128753209879 M648.6966962599787,55.549106864220754 L649.2603148694402,55.17532480428245 L649.9472501442167,55.65155311620423 L650.4640227021348,55.11121992184371 L651.4448671802606,55.82111076203114 L652.7239137476955,55.890402821461166 L654.2995683651136,55.727279609035435 L656.0870601705469,55.711166708065974 L657.2467522152238,54.991022620632265 L658.6586671533852,54.96842536551155 L659.798417886662,54.41225817580781 L660.478734749857,54.17694435785467 L661.3849751086349,53.47851634713366 L662.0335346234767,53.21579343069381 L662.0124819683244,53.00164941986344 L661.5547751634206,52.639229379192635 L661.2608501066511,52.50807436332422 L660.6940727491121,52.5632150978371 L659.7263888792613,52.62664397528126 L658.9383723373885,53.173419783941 L658.1457552567797,54.361937446226015 L657.1095672556205,55.300049567139155 L655.884246427644,56.83761962387284 L654.9654811279044,57.9706415462619 L654.6302186514523,60.42795286030007 L654.1693802998202,61.98693538646831 L655.0057116812209,63.520969852894495 L655.2243724412476,64.4547557362751 L655.9195909054795,66.00969854785458 L656.7699711568929,66.43953219092394 L657.912316940339,66.4778541383873 L659.3962162238695,66.50045203526457 L660.5060928343826,66.0133206835964 L662.223087842007,64.72606664750042 L663.4087749390204,63.47539837977705 L664.4865542693549,61.97679474389016 L665.3901685289936,60.32230197734197 L666.3026833288575,58.307601058221906 L667.571583248711,56.63245589729324 L668.0578637236288,55.638399371748775 L668.5423969400636,54.225776056453086 L669.1916276775632,53.322235590703 L669.259018366392,53.092637173888725 L669.1949885153965,53.08437678423314 L669.6955619950375,52.85100539600255 L669.1203799330126,52.919190062572355 L669.3183711404938,53.05807330706829 L668.6849667573096,53.7994255773697 L668.7363374808872,55.15866584974676 L667.9981854129747,56.19609526040309 L667.4929503763906,57.48632687169136 L667.1717732048282,58.74598001853634 L666.9383106136911,60.445248690036955 L667.0973538745436,61.607594655975085 L667.0460513833315,63.0368279243726 L667.3165937106239,64.74337349167038 L667.9178256941998,65.5997921381899 L667.5057467908931,66.45801193709687 L667.7424055259635,67.27850664358655 L667.4978498318686,67.66833971418639 L666.6841125590671,67.8155827071019 L666.2037886995674,68.58679513827009 L665.3723414996489,68.80758326805825 L664.3032577646292,68.80746415793823 L663.4959423446568,68.5613142672039 L662.7553473293034,68.38591461053011 L662.852313496667,67.71571079365079 L662.8599507538386,67.32988010532844 L662.5223091536168,66.74674476890029 M676.869148139627,46.771621711295204 L676.822273139627,46.95064736131962 L676.7427748486114,47.416831977408485 L676.6107252880645,48.27226162676151 L676.4063185497832,49.53597737078007 L676.0842970654082,51.166553504508094 L675.644538764627,53.106489188712196 L675.1139601513457,55.27895403627689 L674.5447462841582,57.60892129663761 L673.977302436502,59.996249563735084 L673.4439467236114,62.32626987222965 L672.9684523388457,64.47344685320195 L672.5907057568145,66.2523336482459 L672.343269233377,67.4639806819373 L672.2228163525176,68.10063839678105 L672.1909865185332,68.29293776277837 " fill="none" stroke="black" stroke-linecap="round" stroke-width="2" /></svg>