<?xml version="1.0" encoding="utf-8" ?>
<svg baseProfile="full" height="100%" version="1.1" viewBox="0,0,1000,120" width="100%" xmlns="http://www.w3.org/2000/svg" xmlns:ev="http://www.w3.org/2001/xml-events" xmlns:xlink="http://www.w3.org/1999/xlink"><defs /><rect fill="white" height="120" width="1000" x="0" y="0" /><path d="M0,0 M338.8839645972267,46.158370551122644 L338.932151050956,45.746792665669794 L338.12691274081766,45.235259953542126 L336.6270815891409,45.0 L335.3512962113427,45.016594731481916 L334.0490027054935,45.20237861409325 L332.9722526510259,46.24745624317309 L331.3929448859347,47.22926051570367 L330.32010668216714,48.636528809265215 L329.38030571556743,50.14387525460678 L329.95940086799,51.72882603248875 L330.9108659912833,53.03831791242359 L332.23620736670296,54.63603646923118 L333.4747673016683,55.96824643552042 L335.325413712666,56.879392685025024 L337.47688794898903,57.94420170065187 L338.83275300332616,58.78085372668785 L339.7917350829586,60.417280516497115 L340.4606274724402,61.384332559716334 L340.33529411114046,62.414618776464714 L339.71002027556096,63.240713969468004 L338.47217395598847,64.3423334919849 L336.7579359502797,64.87036236124403 L334.1092366980263,65.38006645629648 L332.0327197655189,65.77257579932407 L330.4539725537112,66.09791462331115 L328.28371255018396,66.0469863240161 L327.9096032554056,66.52263550911837 L327.0425996779237,65.87574804379653 M348.66407637939824,48.412933883534215 L347.98145620268525,49.325742698598376 L347.963781182424,50.55145749966336 L347.65436712473644,52.395526874546384 L347.8984445339715,54.04646564475075 L347.6750091156896,56.376232886064265 L347.8892960576711,58.600292070549436 L348.0126311486473,60.75766953830702 L348.2041045464937,62.948244001544914 L348.3307493423299,64.12709983292831 L349.1117617221835,65.78358690920128 L349.3587975968774,65.91831332921339 L349.4052675290584,65.52615502658097 M345.3775148201323,54.410461101550396 L345.64762515733315,54.390728681783656 L346.3404956487368,54.79455940317596 L347.93360037861083,55.2733528907562 L349.70406096156864,55.079094014854675 L351.1918940722725,55.201745953400795 L353.2529967749424,55.68340834999277 L354.70297927069157,55.56826644774481 L355.8684049961458,55.59353843842441 M355.0946356750278,54.94595445786782 L354.94601072078535,55.15500837313239 L355.1163782150193,55.318711443845544 L355.0419409522485,56.195594983442604 L355.41649124281946,57.22176289823838 L355.65960201021426,58.38006486563153 L356.6064449873535,59.776101342313346 L357.0783855818632,59.8116305129388 L358.5541652737056,60.933914140008525 L359.4138217959784,60.75244245767309 L360.16845086001274,60.09892764108526 L361.78177864008063,59.33754527597721 L362.6070929535008,57.758410113655096 L363.1566777638601,56.613911394873405 L363.86583089761655,55.26082238978585 L364.17871693614336,54.413586941220075 L364.74708902790405,54.05087954524595 L364.33826933149646,53.45170756182825 L364.27013231441987,53.56932367061583 L364.16964751664085,54.75691661320432 L363.9388054963176,56.48691735563564 L363.37255941593696,58.67200446950804 L363.5421036193725,60.671610020154915 L363.6731347726488,62.72475113541613 L363.95304882022094,65.27386226967585 L364.1316205014799,67.23054381835331 L364.39635943498456,68.63746589350453 L364.2163690725276,70.23967511535005 L364.16319853584605,70.6316475626744 L363.4169322022658,70.75350835122693 L363.16129521175736,69.4646986677102 L362.866109531318,69.13929070475682 L362.2821674574725,68.8477320138346 M372.31047668685454,47.90910570369594 L372.21572687203354,47.69008289076926 L372.18581196836806,48.23460362632814 L372.5937152184008,48.93958318997272 L372.13804937556574,50.235464773772954 L372.3680655019688,51.998970939213194 L372.0656199216905,53.52997702088504 L371.91355807449094,55.504867784384686 L372.0173881291197,57.11463416952231 L372.27799721534006,58.60020536402149 L372.7204587497069,59.49225715827726 L372.70971112904414,60.371204426196485 L373.6011605272495,60.72078722699254 L374.0197917111186,60.22625034085562 L374.6719911337601,60.1345287916866 L375.359140363979,58.82181590356249 L376.6232145511022,57.5833390729948 L377.9067866278738,56.21095628653826 L378.2737968432353,55.32055688391674 L378.4842639553258,53.83194081486506 L379.3212393103215,53.181584045975335 L378.89610145811235,52.29495093798862 L378.96898092494416,51.77067236095401 L378.8353091758196,51.82457181300674 L378.2912889608832,52.2702574883895 L378.1830437714312,53.375040787217245 L377.26545200130624,54.20951407655329 L376.63774834599167,56.371678308507015 L376.8292456665823,57.73511804251571 L376.9715227843269,58.69269328457059 L377.77155975450114,59.73240660336716 L379.04382656446853,60.61660896430608 L379.9953925185325,61.19670145716333 M394.7797227794373,50.04984363370021 L394.6151485451104,50.06779772341453 L394.85217012949295,51.2820871317523 L394.47770437579163,51.82583319118897 L393.9922697255652,52.68026228933248 L394.29101626539386,53.83148462938634 L393.98525952195655,54.4193241896209 L394.11365623791403,55.436634075823264 L394.6636667450608,56.327691436061 L395.2117433030056,57.41456354549359 L396.22397436364577,57.652665754345115 L397.48918375388985,57.99695956985533 L398.84507658741154,58.60222996518897 L400.6522260788299,58.90137516013579 L401.5256184577976,59.39396333041091 L402.75792307884547,59.45962434794024 L404.30740590313036,60.49483854550945 L405.1387938272147,60.79235449114064 L405.3786920821285,61.61117615859996 L405.2156001192069,62.614831168624136 L405.3461793633023,63.54225960673692 L404.5451045306098,64.20050774126057 L402.7739693462803,65.23636855282639 L401.0487208096289,65.5918210740123 L399.45210916992175,66.47421816300887 L396.5888425025472,65.93276974528308 L394.8068169547565,66.15609542355469 L392.2142038627096,65.90734171594747 L391.0088808946673,65.55444073598471 L389.436942352253,64.22005563357695 L389.26972819050843,63.09407957170813 L388.0904536352821,62.038682667152045 L388.50089060085446,61.52451638642543 M393.3149800449237,46.890334848144164 L393.45033709161794,46.62445677179498 L393.58186376937977,46.68675758316226 L394.8544610757202,46.653876658933804 L396.1968894867494,46.29344916305774 L398.1272454039877,45.580008981662154 L399.95271810545864,45.95526225421273 L401.8088339220783,46.024138607546384 L402.7755058403542,46.613769851901985 M415.0621100745201,53.43949280932705 L415.0345396759372,53.3009588162986 L415.67377817194165,53.468391394126904 L415.3881796733776,53.4519269946204 L415.66459043426505,53.333865209420104 L415.2924672364157,53.612982243705304 L415.42076453356486,53.34815726593299 L415.26273433455896,53.09625112113367 L415.36315658192,53.34876796078934 M414.3482373089112,57.54456393056124 L414.1239552708787,57.79605355403648 L414.60909368357466,57.7409982217443 L414.36715687415506,57.98146273974531 L414.1165993525886,57.850938648517214 L414.1747283207108,57.69940941365509 L413.95116088326444,57.62270382897227 L414.2289626947966,58.25722561683933 L414.08209842386447,57.6435996327908 M434.0412758819866,48.76591478205841 L434.01273369608157,49.08239181424382 L433.2941302974368,48.50702358135834 L432.6025187364759,47.98760024793452 L431.26080416577634,48.07067519573273 L430.34269179225885,48.572602743987446 L429.00065707540523,49.45733312062481 L427.7848254625736,50.453152436374054 L427.24297402375134,51.49411847701643 L426.6705304815099,52.861834040594644 L427.14670078643275,53.829290099182174 L427.3846422551112,54.83237017968925 L428.41765535991834,55.80033026887631 L430.06111576804193,56.36523171362026 L431.6561140033527,57.08092383654768 L433.38687550140656,57.45318009346366 L434.9363647907868,58.2812921677233 L435.90056531883295,59.244699795316144 L437.0505557225189,60.02423589035188 L436.8809328314324,60.44522052622121 L436.95931754444644,62.009485313279995 L435.83042405704566,63.07324598220993 L434.6736256237474,63.632371081472385 L433.41684011581503,64.49585230278424 L431.81195798389456,65.1427902648141 L430.02835451509975,65.32189884753979 L428.66203166192827,65.18221415714619 L427.01718309200714,65.10669532863758 L426.0200959428381,64.44336874543494 L425.486810388415,63.91699069650069 L425.81004177841737,62.75706407392092 L425.87452421090785,61.93716934265742 L425.91763062102996,61.77630428946645 M443.6518143257487,50.64458355943081 L443.66366319287323,51.408474731236076 L443.81128463996015,51.751538922791795 L444.3034745938328,53.05661113365038 L443.7253342395103,54.04384256180245 L443.8276206156585,55.989692878911804 L444.15663870547615,57.767014667051036 L444.03744609498966,60.043403088389844 L444.3410985335834,62.26462066337473 L444.61044589462426,63.47533305639595 L444.37614975264626,64.83444961920858 L444.64774291128185,65.15593965663649 L445.11541150607684,65.62860852545832 M446.96118825015503,59.3829728803097 L447.1623635282425,59.27933021761863 L447.29817653476954,59.44244649030851 L448.0941319532549,59.51210235537162 L448.6771415784865,58.99061790121541 L450.39374193403313,59.10252704548286 L452.3027268825939,58.04041709680933 L453.45468524477815,58.070254715402804 L455.0593132447303,56.97059910431677 L456.8172896832566,56.559312991822196 L457.5706056229611,55.54915904804274 L458.5877546429126,55.469252956273515 L458.96865261807125,54.65406596560649 L459.2283274164232,54.29587556157241 L459.0277025569875,54.30860145501517 L458.97811249698896,54.433841447951615 L458.96661151933597,54.53864945173851 L458.967034345503,55.045207578563705 L458.52096292412784,55.68686255396228 L457.91086002235545,56.85285597390079 L458.12268554293735,58.283041760770296 L457.9869551126736,59.93494516173707 L458.1711475859762,60.87133457047885 L458.54015413187176,61.68594912992125 L459.5584242213439,62.024616558155984 L460.09635262734844,62.14021555842814 L460.70616092513467,62.304141137380796 L462.09939772066514,61.26593970282842 L462.826267456302,59.67722193117119 L464.2345899053987,58.600553126654006 L465.0937401727897,56.84354768986844 L466.0148628915142,55.66545779908645 L466.5544141332699,54.64601411328954 L467.31742949687185,54.24515813077244 L467.3183238145831,53.54846173417629 L467.2797603445598,53.440842571863364 L467.2091455497384,53.71285929052159 L467.81382621000853,54.392014410949 L467.76238629128176,55.67187821189854 L467.60386373903305,57.26166630477217 L467.7229025607845,58.52096980329221 L467.1393487902857,60.44619673692536 L467.5704117536751,62.60619973096377 L467.29057321417645,64.05440644495081 L467.77657021756147,66.26688231357575 L467.57128821680027,67.96251828348683 L467.02609418313517,69.71291563507621 L466.7716803589793,71.00385201571794 L466.62096536308763,72.02269520213676 L465.1982211653219,72.30843688342124 L464.1112039326545,72.41140205373036 L463.293119347214,72.2922956318913 L462.43634021813455,72.17883699227362 M473.0709783750517,50.18296436961895 L472.8242547791396,50.11274059383547 L472.76818873077275,51.1634980389224 L472.4646424603434,52.1564151329446 L472.3480671579399,53.80637901809347 L471.7921207635151,55.290605954853184 L472.194918371127,57.71945721363609 L471.5484011281465,58.86463194125193 L471.71540711955674,60.02337120675635 L472.02371776667815,61.66215279810909 L472.3726583424319,62.08280799515881 L473.26011616058213,62.63739804210271 L474.2631982522441,62.32670016361136 L475.70263070734336,61.363191412167325 L476.6971862925371,60.38989915179017 L477.8405711233072,59.10845402732965 L479.0507767423785,57.5704000947064 L479.92563469273233,56.56626232867925 L480.16660069458146,55.24153092982059 L480.2353632218914,54.18858371928968 L480.1659334192585,53.280314119979835 L479.6283353799719,53.824602276253465 L478.90354825959946,53.7308784985543 L478.18396920492455,54.52631566901862 L477.042351044102,55.30105249856277 L476.2501395646183,56.791306827003105 L476.01880526620124,58.417542601053114 L476.02075790505023,59.60448627712659 L477.43058668450175,60.725126155153376 L478.4136126453238,61.50850890046359 L480.26634182544194,62.06502101471154 L481.8443163881723,62.226263874158306 L483.3411605832987,62.29889103007824 M502.1293460688771,56.89407459567833 L501.77106554682797,56.584689441619254 L501.1445398214298,56.23836222578508 L500.6767436416759,56.15585554150603 L500.0592673195497,56.31731356993764 L498.9462932690675,56.48768052893105 L497.9849413507644,56.386332427783934 L496.7787854420827,57.790914250954486 L495.74341016588585,59.079734157862674 L494.79484596767304,59.94892021898399 L493.9855451963523,61.66928839110618 L494.1756718084545,62.877250594835104 L494.5048310398132,63.97208296733396 L495.09257446506183,64.9206938885011 L495.79835378998814,64.68934781148437 L496.8441381847676,64.61990662999341 L498.4421123260922,63.656024668505864 L499.28487323070647,62.74417662820456 L500.5699138227563,61.057748352862454 L501.42561391451665,59.76510742373751 L502.23056611042136,57.674599096465315 L502.7666900231883,56.94984898917483 L503.3622407451845,55.602851958403996 L502.9656138636341,55.34219879495267 L503.0901890080328,55.358422151257486 L503.0997521474155,56.15093566867912 L502.7835496823438,56.80608645128565 L502.55988727855026,57.543798646174864 L502.3930685708929,59.805198481325206 L502.634792657886,60.82034259474271 L502.5894730392969,62.85124599855458 L503.3491666434513,63.743015092834995 L503.80192533230513,64.19007982801625 L504.725331272483,64.38363936728136 L505.20524932422,63.89274376890961 L506.3433657516366,62.640833699737065 L507.3549689755223,61.307717867020465 L508.26344454241627,59.63663826564103 L509.46066977222534,58.1318874009936 L509.6003240554332,56.95978742310279 L509.9797138785381,56.17807099653637 L510.4633600013185,55.25779212506782 L510.3939078069509,55.17681303650777 L509.97238640093985,55.54738619924452 L510.1549608868356,56.22522440827025 L509.86833269468616,57.44930321693854 L509.76502639245626,59.28925728872743 L509.8511957167249,60.58892340678718 L509.9100767172589,61.624606401091114 L509.96701692887825,62.65481380531246 L509.8421403040386,62.96279312417872 L510.3110103344881,62.763383648850734 L510.59746521918436,61.86003488636298 L511.1507169367662,60.77254222136286 L511.69278639754407,59.27488257010154 L512.3613713157326,57.332833449470634 L513.3363091907926,56.51402274625151 L513.999569277995,55.51308117646757 L514.8849853557878,53.91560396505137 L515.397878317989,53.84880939642807 L516.0228147621078,53.955768339921 L516.7013629335845,54.36140093638573 L516.5025301932594,55.22135599390947 L517.311812244703,56.10087823701374 L517.2986918412454,57.4325874557311 L517.2369319848315,58.94668960517164 L517.7031420325858,60.21253750938469 L517.692291039677,60.786444260206366 L517.7374928601853,61.397736140877356 M533.2455138532101,58.67193428988394 L532.8999180405665,58.39434560965128 L532.8884018554263,57.742221662713014 L532.4964308245126,57.51819931900196 L531.2813652963782,56.718740494202486 L531.1144764755287,56.43700645786381 L529.753696733955,57.12807278777619 L528.7889111323773,57.96026853039029 L527.6072844727337,58.24937484772129 L526.6443213125433,59.49799903575855 L526.3216530901288,60.53905425913254 L525.9847187941543,62.12611082987926 L526.2878587254024,63.2966626470944 L526.8599195401233,64.21592795785814 L527.5378105192586,64.4457709306219 L528.7839915342852,64.09520595222001 L530.1646271174109,63.33270253981743 L531.48760452807,61.874647137427196 L533.0363762141181,59.84474943717848 L533.6235534871337,58.27740137899751 L534.8058733007945,55.55302531277999 L535.1918102297248,53.42796912953162 L535.5930688212409,51.51447915929935 L536.2543542991485,49.55920411756933 L536.4196897664139,48.469591593571714 L536.2209264050263,48.2606640008979 L536.4142457859596,47.86695442281375 L536.2075896642812,48.155435089146685 L536.2455002184372,49.392754575812475 L536.0558636351598,51.15593896976355 L535.8358966483827,53.23281169590735 L536.1307050463961,55.56220187168655 L535.6714935235634,58.031199987452865 L535.4286797413238,60.80174860478845 L535.2003943896827,62.760127272691975 L535.543602815191,64.7803606149728 L535.7306297235651,65.38296563088281 M546.9067788484008,55.95196843162172 L546.8370683762795,57.06727755354616 L547.1132660695706,58.01351489136936 L546.6125575384696,60.275488186273 L546.5140575457167,62.12071502050707 L546.6541713101184,63.654349845784175 L546.9430372267678,64.8430057544445 L546.8739195456533,65.53618763361204 L547.20954001978,65.07457237326192 L547.260305383425,64.38788407258207 L547.7076705706678,63.77769980030698 L548.4085703845915,62.22976992185989 L548.9483900137606,59.99913799525613 L549.3970754163208,58.856948100425264 L550.6532176614288,57.014331739299806 L551.4862356906845,55.9908580092927 L551.6206683659254,54.853138119236895 L552.999250471398,54.9345079361607 L553.3349601189004,54.955899598308164 L553.5220725628573,56.116629449231816 L553.6796355888051,57.76867661191682 L553.9054025829735,59.093103293857894 L553.0866356678991,60.93166111910986 L553.4919699854577,62.43195100000263 L552.8393993823079,63.496497776802485 L552.975361632719,64.23955830833114 L553.2545273174131,64.17554231551568 L553.7121075894836,63.37496835438 L554.0505669198449,62.13535729299476 L554.7220086047928,60.374654104804925 L555.6301567294734,58.734388989690586 L557.229918060078,56.78443932008655 L557.9247775345256,55.30329606539383 L558.824300568831,54.60439158009315 L559.1932411639486,53.88700106370295 L560.1208674799943,54.679512981394154 L560.2903937332533,55.94364953604271 L560.0294298059895,57.00111270928676 L560.6532888624449,58.54725067317784 L560.1770769810553,60.62081980740808 L560.4173574672358,61.879476746633955 L560.8730032803383,63.70641685117926 L561.0982284619189,64.54737414977771 L562.0132523699999,64.56443366415354 L563.1422193787386,64.82904739234606 L564.5496551621743,63.65890654768045 L565.4267339352622,62.39374939816864 L566.8198305571268,60.35069125422487 L567.586158804875,58.89511676171375 L568.5333819350402,56.480893229679246 L568.9529263575764,55.23459241278833 L568.986687742499,53.71410121389326 L568.8909403314252,53.166006389337326 L568.0888397938954,53.06797670961963 L567.5705359439914,53.46566014979044 L566.3047921472943,54.393972970370854 L565.5672641948453,55.81497283332078 L564.954908028795,57.56971858965381 L564.75884525848,59.227848394542704 L564.57241467057,61.14395933009326 L565.0524046445101,62.43278118884766 L565.841679308815,63.997132388391975 L567.211662918553,64.46311656254083 L568.2360783028614,64.86343151399676 L568.7927824983676,64.56183893623638 M582.2931415147807,54.437926813850446 L582.0628799067304,54.887279938662004 L581.2268391952778,53.660884086675004 L580.497030043077,53.13508778818762 L579.9799323824689,53.75078814255387 L578.6145526927969,54.03405442633309 L577.1186536888176,54.93376571454771 L576.5365663126051,55.097427249342104 L576.277977160204,55.76736296288924 L576.7328682504844,56.96184955552097 L577.2036594364602,57.83686342045823 L578.3317783009145,58.595929912308875 L579.8759919920958,59.356936669406096 L580.8478596335759,59.880804794432535 L582.0146025816848,61.05223640345598 L582.4502957809507,61.42219598420924 L582.7051456139272,62.31307884024925 L582.0088692462883,62.56425248113687 L581.7598974645473,62.965767019299 L580.1815303882915,63.13123788897495 L578.6681313751117,63.23687792689445 L577.6746619100661,63.055434883958 L576.6585556160412,62.95811880074772 L576.2550036707515,62.85342047387866 L575.9933914029475,62.40782828486884 M593.6092159369884,52.990075299790846 L593.5133469409445,53.040374616471325 L593.0252109594487,52.811058104246044 L592.6647119877568,52.41364232423718 L591.8819096307757,52.35997151927837 L591.2645132882596,52.045794301610485 L589.9434850887963,53.107966117205635 L588.6986870245836,53.162618968430806 L588.5114742219456,53.9856296457057 L588.5659743430945,55.29188728973511 L588.571252736335,56.455822559566776 L589.2540756392034,57.62007824682095 L590.5926090981792,58.303892214858436 L591.6017112534319,59.19505171571604 L592.9620282546271,60.352012563245935 L594.0900723666011,61.047036864787614 L594.3402312720827,61.60158469118223 L594.4196403868177,62.442755674256304 L594.0308119564684,61.911079370044895 L592.8106112097345,62.96926140365494 L592.0125473472193,63.21013775884008 L590.3578851483496,63.18541286161264 L589.540591839158,62.828038945986826 L588.4734269376987,62.17291158100085 L587.4549537955666,61.849676786994365 M601.9660904717946,53.873884203732764 L601.9104939623223,54.2607202289259 L602.3146031195023,54.965144823394965 L602.1393901439612,56.17053297413111 L601.8038246864494,57.10738322414075 L601.3338572496518,58.81884581620141 L601.1253944252721,60.02516359177137 L601.2775827773116,61.71384202240624 L600.7268769034914,62.529176766520926 L601.2551997247342,62.80422367002071 L601.6872239570591,62.67679454069578 L602.2473920636869,61.86803881370764 L602.1106428469398,60.7980736687456 M608.5975218233224,47.15530283384871 L608.5515529130286,46.85889273273802 L608.5180377408459,46.5114451085743 L608.5048357988999,46.22389344184738 L608.5197218160869,46.10717929140984 M614.1752323040189,55.25699650827436 L613.8944812736797,55.665438639819506 L614.0839333675547,56.41218284032098 L613.731149196019,57.64088907502376 L613.6850968618625,58.89145573603465 L613.2119337994318,60.1572985922367 L613.1745335199307,61.57178967190897 L613.0902412549885,62.50532584016986 L613.0127525863888,63.53205082838204 L612.9115564500576,63.5893546878452 L613.1209000672434,63.630035566922416 L613.3285723060313,62.69227963078619 L613.4868281407516,62.05486316277339 L614.4580162654771,60.46178150747039 L615.3744531881803,58.77799980997014 L615.8340766053125,57.29592486363746 L617.173387079191,56.10608483903688 L618.0693045892538,55.21242586129108 L618.806849339858,54.70498087082343 L619.6160082862301,54.52981562509559 L619.9842204048705,55.03554668348306 L620.4935857713,55.62945690929956 L620.6947393021651,56.758128109370745 L620.9112745108487,58.068095189178315 L620.6123775484386,59.97770664442094 L620.8557403252798,61.223026967258356 L621.1335048932302,62.223251997478265 L621.2038813653855,62.84359348275989 L621.3347742958023,63.654433937479325 M629.9666285182941,59.08172812574339 L629.9242196454045,59.44566039138271 L630.5178534328886,59.12750565495206 L630.8168842676137,58.727560156715 L631.3702294029483,57.79199558876604 L632.6426778084798,57.2126818537094 L633.1020857268575,55.837009346168514 L634.4945665784342,54.630118506733695 L634.4874847991848,53.52199904086289 L634.5061015832831,52.82213683146078 L634.3271744246307,52.268087752679754 L633.8189022397037,51.879121242965454 L633.0474553162499,52.201064233215156 L632.0158589938468,53.31065110510912 L631.1922508638012,54.575171085816265 L630.1995902180477,56.214966442153376 L629.7575713194686,57.71861764805929 L630.4673904212916,58.91391875145946 L630.8969215818828,60.242131423329795 L632.0429884913067,60.9977917259542 L632.684726100568,61.06613131693501 M645.8068234428442,54.009113700382464 L645.5230375619329,53.60564089960765 L644.8695501072261,53.11753124209835 L643.6560117586123,53.093231792236864 L642.7377796211797,53.291661575705305 L641.2945519251846,53.733232998988704 L640.4120563838692,54.91701867874197 L639.6763875863564,55.677320651376114 L639.894893565865,56.465686120157365 L639.9710704411368,57.741711270347324 L641.2250860888851,58.663900421884016 L642.3832157322568,59.254080630013206 L644.4640808746536,60.42931288496256 L645.7449011889364,60.600380091572255 L647.0237793291046,61.111261866743284 L647.4754277749578,62.01346036930077 L647.122121937176,62.51216751017499 L646.3814626077351,62.520684497823446 L645.8076444229732,62.44730920662148 L644.0647642371662,63.08034182895766 L642.455013802915,62.95202464835668 L640.7803504066002,63.11111752389296 L639.492225413763,62.560579079574595 L639.2854724110022,62.719954496326494 L638.7778110243079,62.31851670312176 M654.9611489031811,53.60896070466353 L654.9769253877519,53.56224017105436 L653.8824241710047,53.26113715688531 L652.8614639963636,53.420005220475325 L651.8642033886903,53.78277420252659 L650.7242838795619,53.903772814551004 L649.7040567452877,54.870327442099835 L649.5565005450912,55.61460005109342 L649.643619732954,57.12550503188256 L650.6738444903481,57.710955684570024 L651.7644592311965,58.7012206863462 L653.2193684897409,59.49597435038042 L654.6678722737634,60.71670462782099 L655.7494697592728,61.12991182319476 L657.0919939696507,61.90836480947801 L657.1532723526668,62.236027607721404 L656.9083011098127,62.52427556182768 L656.5120510756047,63.12418611751484 L654.7954259282549,63.29523641628358 L652.9563105154959,63.41927210248445 L650.8970425030291,63.286822967928366 L648.8931262022754,63.092827766672464 L647.1794786868412,62.82855884595725 L646.2229810784752,62.432682682594084 L645.5808354944816,62.35302133068038 M673.3266578433013,46.08298564340535 L673.6378052422442,46.04642962288834 L673.5942176796058,46.30404063149664 L673.6397948139121,47.01114252732076 L673.5254066386547,48.580673872500434 L673.8481301109562,49.92634182994047 L673.7554379011311,52.5913576708532 L673.5148919169399,54.59303604239033 L673.7708538403509,56.71423218750403 L672.9850703489528,58.844421816059 L673.0929537368484,61.0098126629676 L673.1464001837817,62.14128394593047 L673.1046770423729,62.91702474043403 M672.8454733058275,54.0635581298423 L672.7664678857639,53.78531473127862 L672.8222233152014,53.68370717466119 L673.4266566720232,53.801086291535064 L674.5768396538904,54.06606037887141 L675.8807917153379,54.19981748544979 L677.6363326217693,54.297718307530644 L679.7804874643562,54.47144155988149 L681.2993960597547,54.4709306137745 L683.2575172302563,54.16086999688301 L684.8498672382341,53.89940784170461 L685.9000727840028,53.30961152103906 L687.0072305618386,52.569864579128776 L686.9699559769354,51.6810839076993 L687.2384562325933,51.456813360389226 L686.9761169158662,50.86383762909544 L686.3900661797045,50.259779221509675 L685.1959562611376,50.83245182183384 L684.0920608982252,50.89829139514964 L682.6416768864635,51.413007166302236 L681.4485164549659,52.8582511579016 L680.909012640961,54.458808389871194 L680.3860637866433,56.059675285336056 L680.8007922318847,57.80115793923628 L681.5089351073574,58.8396811488985 L682.8980526803189,59.74417438448341 L684.2931755834205,59.9458935913088 L686.2776944948018,60.103625953263965 L688.2075069831135,59.74588913806548 L690.7262932499743,58.5387608922086 L692.4003186466202,57.25593013103802 L693.8139241030942,55.703964562444625 L694.5240346103543,54.2240687408921 L695.3107277244958,52.41966730342027 L695.473321996326,50.9968910904186 L695.5249612062262,49.78268538507419 L694.7353567639442,49.59939078213673 L694.3576600071885,49.32402315992152 L694.061673895473,49.46085268681388 L693.6580625108757,50.161907399359826 L693.3370205056626,51.16965981287983 L693.1361115736848,52.31773232917268 L694.3508676146578,54.2471750067914 L694.4965741810099,55.62634321623412 L696.0798910868916,57.167741863488416 L697.0848512302248,58.5126539234273 L697.7120506334169,59.774864048440584 L698.503454956963,60.737120561339864 L698.7355590897088,61.75077485366576 L698.4735746625543,62.2539036409247 L698.1132179236213,63.07385688043494 L697.1496606339813,63.25693587535616 L695.9694651157723,63.431511606214485 L694.6241763732378,63.29965759723408 L692.8312578526002,63.453417859048685 L691.9879423611292,62.82839605937844 L691.3765219768543,62.623979250871244 M706.0578150032236,46.665780031481745 L706.017623352833,46.883298837939265 L705.9142297981455,47.42612072209454 L705.7206262825205,48.3929385779295 L705.4188074348642,49.765654527941706 L705.0177759407236,51.461266958514216 L704.5489954231455,53.35900589207745 L704.0652612922861,55.330331051150324 L703.628219055958,57.22317799309826 L703.2840112922861,58.90699561814404 L703.062056946583,60.11950155476666 L702.9528955696298,60.80162497738934 " fill="none" stroke="black" stroke-linecap="round" stroke-width="2" /></svg>