<?xml version="1.0" encoding="utf-8" ?>
<svg baseProfile="full" height="100%" version="1.1" viewBox="0,0,1000,120" width="100%" xmlns="http://www.w3.org/2000/svg" xmlns:ev="http://www.w3.org/2001/xml-events" xmlns:xlink="http://www.w3.org/1999/xlink"><defs /><rect fill="white" height="120" width="1000" x="0" y="0" /><path d="M0,0 M330.83862721336266,47.69836863754226 L330.55460506677446,47.290145155792175 L329.986868242579,47.07026327691628 L329.21999741290443,46.28241622389973 L327.9533502455917,46.692698028415634 L326.28861663041556,47.341585897832275 L325.16890016773533,47.91757322872926 L323.3715189640769,48.74800601249371 L322.68599225518784,50.004794356182984 L322.9741347855951,51.4070605072911 L323.5619437695557,52.15226376344726 L325.07342666608326,53.609998198053844 L327.4647886934769,55.07435599792766 L329.81137611641617,55.56147352864688 L332.4607760100939,56.37096300587405 L335.3604459210013,57.3246707834743 L337.1622856722669,58.105613426756044 L338.640513377306,58.85329731504745 L339.1108140728265,60.066755835233316 L339.47444036933496,61.244384536172184 L338.25328388705674,61.924951314854724 L336.6162076795193,63.057138893192636 L335.1492247274887,63.48412677083677 L332.8111472234944,64.70479535699953 L330.8140222896748,64.3694398966444 L328.70359211559906,65.09346396917054 L327.07509548535023,65.0210586982004 L326.0540933917966,64.89183908660057 L325.6349842225569,64.3518280466872 L325.0082834675585,63.787304180235836 L325.9393846830094,63.998023531555596 L325.734304550392,63.467451051264206 L325.967976957842,63.313091754432506 M345.290207691319,47.04139754448664 L345.5716579353496,47.557401882357375 L345.3336276217648,47.59293314363537 L345.4908846736724,49.005854614012414 L346.0228859551383,50.779825042543756 L345.4051153991205,52.655760889786755 L345.6358067842651,55.37698384449211 L345.9283357876326,57.96561287914563 L346.7521280904045,60.886499275531335 L346.6536434235916,63.36573336434715 L346.86355464243945,65.30090434596188 L347.23371552717725,66.51266915871628 L347.4108000256741,66.81919138905182 M343.27773132139805,57.968047706936055 L343.745154393861,58.04262826728547 L344.057524671632,58.50557567101285 L344.73455360218657,58.4780779731865 L346.45770700923777,58.56096911556174 L347.3687008886252,58.45592746954118 L349.31396515889196,58.18271098448547 L350.99244544853644,58.296896900883375 L352.43809798850987,58.10221485016623 L354.01808287240567,57.427916714679064 L354.1241186973456,57.31952742490729 L354.82454033219574,56.73832779200003 L354.66483921718924,56.220069500635304 L354.1705552854711,56.70756387046911 L353.83916524746303,57.49440623939737 L353.14533008537,58.46165927971851 L352.6362010435765,59.961601682766855 L352.5276143666423,61.420735327687325 L352.56338423927014,62.90602086567463 L353.02452927613507,64.02745253670345 L353.2771225424931,64.43857362215545 L354.7299586879103,64.38976133154459 L356.0522332554418,64.09106066985406 L357.59670625184515,62.545543322128445 L359.07554319338766,61.43593061270579 L360.53059940117174,60.066315819341554 L360.9982705497482,58.867307038651084 L361.72326479101673,57.65510908157338 L362.1633979715505,56.8863058272098 L362.0149089575281,56.75104681285554 L361.8950531580101,57.36656955028311 L361.7997503379837,58.74954157777226 L361.60766657385153,60.05478739752473 L361.5613364602927,62.69785801829703 L361.71676904012077,64.95000770745196 L361.39117036161036,67.55144654941893 L361.47950834051994,70.29724050586663 L361.46412437838796,72.76366234120566 L361.08595150769634,74.41379899349295 L360.2813089250868,75.7418161984112 L359.51803238045727,76.61470724604084 L358.6162133472065,75.99558130112176 L357.4018869738427,75.02514969070306 L356.5222819597316,74.2082778690487 L356.30665971431495,72.72580775958018 L355.7955976035889,70.55608948546683 L356.0327597428118,68.66057188964297 L357.1851546179504,67.2616438602872 L358.70046485401485,65.42802449628672 L360.5338868159987,63.730143083006965 L362.70965656082547,62.06720901378835 L364.9892756313238,60.40484486948236 L367.2726601455315,59.113137698883676 L368.89977869460006,57.410263558056556 L370.9468987816192,55.72213452606067 L371.9991655898765,54.44618055300467 L373.1196249835896,52.39536564022098 L373.29601782734846,51.19041704010468 L373.16841603112186,49.887189497237706 L372.4064728537647,48.78122661846564 L371.70735285159094,47.816345606007296 L371.1186809349678,48.256943114656785 L370.47790985994243,48.253240711791115 L369.21154626080374,49.32290520615945 L368.5632647776358,51.11058473453899 L368.0383243154142,53.70773038821465 L367.7813623878906,55.59201198805504 L367.95928582288934,57.6139378214819 L368.1147796381352,60.210007307268334 L369.128748997658,62.3548800765545 L370.2404129703706,63.29667734023023 L371.65673900226847,64.46578105751198 L372.85320605329184,64.54244439853252 L374.61692745804055,63.950381679508475 L376.11912461072717,62.26417144458279 L377.36002694569845,61.090217489633304 L378.6843895000912,59.64708762313287 L378.7147227008537,57.182982839356384 L379.0603458114497,56.153252374865176 L378.3495882466645,55.13828312474129 L377.83531475808644,54.78508201045826 L376.86880507771934,55.36814964785367 L376.0435610009167,55.54800670582172 L375.49180362335517,57.36927455567561 L375.43339407281724,58.95032436002913 L375.9304905115541,60.63647681977624 L377.0148278725816,62.11761210384428 L378.6130200339257,63.74836800505067 L379.3975944004544,64.3740467697206 M399.78147394922115,61.53059475049372 L400.29102879860693,60.54359709140473 L400.429428333585,59.59558470791161 L401.7748910155428,57.61618948874587 L402.4134571314929,55.938098240442784 L403.72243224983686,53.669797495907055 L404.55638133458626,52.183491269779395 L405.71494409613086,50.38124516919281 L407.10455739991755,49.12378014815144 L407.888314626885,47.86910677945919 L408.48979196501466,47.7776960359471 L408.23130007944485,47.42932695212323 L408.2270371608005,48.62949857343579 L408.4253748727744,50.2476259674238 L407.8827771556143,52.333471247493996 L407.18343026819815,54.54773935149801 L406.71105601407794,56.88070681101238 L405.9203986375616,59.659975504772135 L405.0275022027639,61.799939451631715 L404.556718339825,63.37371711023419 L404.78287568762175,64.10927703471984 M407.70714730043284,53.57945415633182 L408.21087333026054,52.96600583062337 L408.6718927990993,52.14759779443234 L409.32094934987913,51.79524309207743 L410.3507108015292,51.620079309025144 L411.38982845328167,50.99427596620814 L413.2808781357008,51.38958223327324 L414.5719738913357,51.42199057670176 L415.8825007507811,52.118876913491846 L416.17083710484604,53.032275658716785 L416.79896001013867,54.392175434987884 L416.9119684060767,55.869665425518484 L416.57917426180154,57.365024178509536 L415.3246317895598,58.72801517811462 L414.7872132389984,60.35620282503772 L413.09113124648894,62.23764393074879 L412.36319881394365,63.830864461458475 L411.88838732601994,64.93271327113392 L411.62821070186067,66.05684587369916 L412.1619698892797,66.51046326347115 L413.15763048827114,66.12192842452751 L414.5872416004688,66.04131648455244 L416.77158461737116,65.49213111795879 L418.6886040061732,65.22892312137981 L419.61784490185926,65.02631867611468 M421.5371247706487,54.67034165473948 L421.8232299761345,54.70919087597378 L422.3027096600042,54.77738191347117 L422.8035253882216,54.85054680628762 L423.1536387267505,54.90431759347911 M428.39359262754397,61.756646174273754 L428.484494987876,61.79478917422073 L428.5954209334837,61.82679231731801 L428.69152343847844,61.84253330109273 M440.01956067766787,50.912035375517505 L439.8159845867945,51.13698900541982 L440.0029852853463,50.85127846432323 L440.2108474728137,51.228143166206515 L439.55740118850986,51.28447719405536 L439.28174935011486,52.61853827060902 L439.24278440732235,53.53393601307348 L438.83131801410127,54.78670180742996 L438.6405254722632,56.069146718988165 L438.69300289539245,58.12290634887397 L438.5829337579253,59.5982786109815 L439.7252200226161,61.301619939951465 L440.70486767136464,62.441555113665466 L441.91016749554956,63.182078396997944 L443.1602244282338,63.92323142060269 L443.7335806587124,64.61266013106281 L445.0005772134672,64.50392311164654 L445.6812626894261,63.7159483255177 L446.31816360322796,62.85465986658488 L446.6290930210019,62.06393334590146 L446.4362461127398,60.56829171679743 L445.49448888906636,59.501361893912765 L445.03201391362234,57.77269287613712 L443.19800654318556,56.59223876016497 L441.39780157522716,55.25807456667158 L440.25622584256655,54.33988678723006 L438.28760493340894,54.18099780350223 L437.6480674270581,53.81786532430033 L437.1830710888993,53.81828703037906 L437.39405632658213,53.4274831397502 L437.48456283199005,53.11442033166914 L439.00685967656966,53.15223592807704 L439.7444675857647,52.99849981248518 M450.085738557834,49.716146267944666 L450.11515603858226,49.8311278845341 L449.7212508378542,50.362724696746405 L449.93350139555935,51.50754525239249 L449.772839010843,53.272416982637885 L449.4969229308324,54.438221067453746 L449.77671035900295,56.6400345122093 L449.95673432071357,58.49275704128459 L450.1373157250827,60.494369258655844 L450.50256480969927,62.34858129900998 L450.8866542846481,63.333653101423586 L451.61052702253835,63.92936948620067 L451.69999434061623,63.68020834317723 M454.1246076468615,57.12363924850609 L454.46326463293076,56.83604966525573 L454.6901343209688,57.1808111737023 L455.49595370941574,57.20016757290595 L456.7052910945505,57.468314448795574 L458.4944090216721,57.42536207705197 L459.8435653681751,56.96239599195912 L461.2386694776452,57.1506166613404 L462.12606190053873,56.69509213956818 L463.11359033569204,55.96959028133629 L463.06879182677005,55.821289233649495 L463.1412476666229,55.2368538424693 L463.0397244958232,55.44148366248662 L462.496411504334,55.883432442649195 L461.83852184485056,56.80464274804568 L461.6932129656044,57.77144496934072 L461.8584282378864,58.69931257143758 L461.8916688990172,59.87126600004227 L463.1686500798751,60.817932748742365 L463.49594497790105,61.0932114880829 L464.5494343717807,60.878476874477336 L465.53286090463143,61.078318398238416 L466.6946555915438,59.559210353121976 L467.9500563990215,58.83646741875466 L468.66580704530804,57.88280284556052 L469.01929215049995,56.57170151732782 L469.74247873263494,56.63565283898067 L470.1043398095444,55.88076357684405 L470.360998554399,56.16592647379899 L470.10960745152204,57.065981511975345 L470.34895212877757,57.875289391257475 L471.0040573079742,59.98197507873804 L471.00667293359356,62.65332823693832 L470.426176315215,65.5591540823279 L470.33061490891953,68.07005926759717 L469.6139882204851,69.99669614912757 L469.0550304167251,71.78226111639441 L468.2696654479369,73.68287229257636 L467.2674027786146,74.42172672726163 L465.57949555273785,74.88453594013407 L464.5115606676335,74.21535538227384 L463.1095667385348,73.52502033579924 L462.5146242865477,71.93324162846736 L462.4140856575557,70.37885072765282 L461.75798408273454,69.56101800659492 M475.76852417045205,48.52748868213443 L475.483433407288,48.915218838849746 L476.12209774824305,49.692884508338125 L476.33840432908204,50.80225783736483 L476.3143106425327,52.90892540885863 L476.29375682702255,54.3585201384368 L476.6137665798958,56.55153290655696 L476.87370224392924,58.239499500687565 L477.6806457955201,59.41323733585067 L477.7513506133994,60.105900342553575 L479.4383416273122,60.642919288960094 L481.0002198591901,60.61139131528848 L482.35171552009325,59.46489237869953 L483.85198756637476,58.151000354955755 L484.96656226467843,56.44246933569546 L485.6800768961856,54.55474752034302 L486.0020871138571,52.90527584907705 L486.0837364549203,52.17152711286034 L485.7361533860769,51.035956345799875 L485.50881862761287,50.89104023869877 L484.64815041428324,50.80398142311761 L483.25271570919887,52.26562310771506 L482.60355473676174,53.193667517954594 L482.54470433304704,54.62760090305474 L482.5536385247615,56.17225253630715 L483.82560984188194,57.818482385132924 L485.4242832070761,59.10059657793147 L487.1892928630694,60.25017736583105 L487.8918401171628,59.88648735763818 M513.710420522309,57.442301625700985 L513.3225898270258,57.213457585109225 L513.3499038471474,56.697502063251164 L511.8262683783555,56.589226318431386 L511.5281876826086,56.314118767263274 L510.1996336909355,56.9206307985104 L508.79379446891994,57.39174978247846 L507.73420130568854,58.89205415743966 L506.7733971471072,59.80325274557363 L506.3463507613137,61.286004817610554 L506.6196360626656,62.93987335106939 L506.4661855440172,63.58529546832932 L507.66307211362107,64.05931984541952 L508.7762061115278,64.40362247468491 L510.2771658772365,63.196805810264394 L511.3566784349887,62.052078447280074 L513.0271721506034,61.01292048014694 L513.7928990634447,59.2124616424345 L514.5359223353332,57.56284073693031 L514.9796916880123,56.19134806982043 L515.5233429474971,55.31691649763648 L515.0215833663146,55.243123350532954 L514.9619377277052,55.72392379473099 L514.8655942510042,56.324305683907966 L514.8129489710991,57.70746164803085 L514.6681672507683,58.70046644038575 L515.168838542241,60.23188559462571 L515.3224739024722,62.20200628217751 L516.1700483089876,63.24699400829779 L516.8156511525304,63.3874777659935 L517.819208516916,63.335419169146626 L519.4275458007509,63.15606775051097 L520.2386511507264,61.45577165493502 L521.4018251935743,59.926189610014724 L522.4247322415847,58.15754144534164 L523.4131054504503,56.71417417814842 L523.8972027112175,55.407943310558935 L524.3202366876997,54.47664317207013 L524.5589410451303,54.879909260534134 L524.923267929553,55.709251805968975 L524.0101468053185,55.74011112681627 L524.3321836989645,57.77456655433632 L523.8846482018503,58.781261997254745 L524.2108039682082,60.313393154042416 L524.4764044437658,61.36525317325789 L524.5991769061044,62.013715572274855 L524.7997812643422,61.91278770734038 L526.220197473694,61.24948802053859 L527.0962680487728,60.652924976885224 L528.1518983391338,58.78691712843903 L529.3628530293364,57.68398043047267 L530.3903518120478,56.46398412035369 L531.3907528979188,55.23994245050231 L531.6871252961546,54.47138641876928 L532.5280900420933,54.547804775217344 L532.8966106298369,54.609023941809596 L533.1788307973833,55.136241194794884 L533.2545827416884,56.604574347833804 L532.8568739318508,58.2663314809116 L532.830162735208,59.17743024519371 L533.1447691119552,59.68908976378621 M544.2614638393426,56.561233785561946 L543.9688953059213,56.59163270921356 L543.4513220917571,55.85262900873738 L542.6051964923814,56.072437170713144 L541.4825356391336,55.69588988700577 L540.1007898910902,56.39730399727073 L538.4558514589638,57.267993836224925 L537.651375778262,58.68778861991542 L537.0541486567588,59.73184825101957 L536.8872900116402,60.28261817529009 L537.1786905104962,61.68633609768765 L538.5033384279114,61.80651116638067 L539.6078597605091,61.84619730509026 L541.4702743550346,60.77871374468269 L542.8722125669656,59.056367997218786 L545.0161593972805,57.19640149365793 L546.227991718818,54.565644366710984 L547.9480770495163,52.219685919892044 L548.9795144117242,49.52173846474652 L549.5242600628092,47.73829041251053 L549.4366838098449,46.13504734613873 L549.1676002412686,45.17417201336178 L549.1411171044165,45.0 L548.9215741043952,45.717807077325006 L548.8059506708694,47.125358983167686 L548.2175046050294,49.31329809887549 L547.8251243744644,52.06131258670426 L548.0786476509892,54.72894218757413 L548.5144719056225,57.30294308603484 L548.4835491335618,60.22178779156702 L549.6780900115948,62.398964682034965 L550.467625709586,63.72861544811984 L550.2272246907164,64.7404457951691 M566.6240466881629,55.66527060677033 L566.3610151285789,56.97233878348923 L566.8280778096105,57.14892150856241 L566.7627166722509,58.826670990560245 L566.6794222392859,60.00390336488477 L567.0829624500054,61.31000196574944 L567.0136635502608,62.91318990287046 L566.9880057999258,64.13859904168126 L566.6306861897197,65.29097042945294 L566.7564734019741,65.99835204125826 L566.863916626055,65.43157827406114 L567.2656893457809,64.29772817720239 L567.8301614171019,63.08175831177603 L568.6895674239986,61.558062780582645 L569.1322375466618,59.57592928871868 L570.7356338957782,58.07146898503315 L571.2397881882953,56.28413398170826 L572.7130399398943,55.72498765199552 L573.5543716135569,55.204859360999144 L573.9475938277762,55.48944638650363 L574.6228502986778,56.219469754864306 L574.6891608969829,58.04866765208818 L574.3856451086519,59.80136279399367 L574.3892721361124,61.24473174851856 L574.5315221045223,62.52948946703904 L573.9964787022836,63.4019218769311 L574.0478135842955,64.05775957787823 L574.8193524797753,63.714250313358335 L575.0872794808281,62.75944616616763 L575.4741502349652,61.75863867165619 L576.4769326302285,59.53067369383093 L577.114770102306,58.53262863902037 L578.5543807347449,56.91152722925107 L579.5038486441663,55.82168898622945 L580.3313279348004,55.135215450623534 L581.1596096921126,55.17556250849532 L581.9883203970762,56.18107758378664 L581.7316579816365,56.51186982373565 L582.0434779557204,58.11646850885042 L581.6741746131459,60.399877752110974 L581.4504109482887,61.455919596325764 L581.6533172247634,62.57691169236616 L582.3411370125996,64.07805573531704 L583.159136654522,64.51161603996863 L584.2534538873028,63.93742370814505 L586.1584575564796,63.47157455136595 L587.5492220527835,61.99011973534981 L589.3627896255982,60.31692666017551 L590.0088643951585,58.532744882496694 L590.4291565349749,56.34937929776149 L590.5670640626827,55.186574099929125 L590.0420464759568,54.58286980153921 L589.5111270337904,54.087315397191986 L588.1175503337975,54.59450541936941 L587.267905404819,55.494502578263706 L586.3072810173944,57.083950952451666 L585.5623139549978,58.81190069795023 L585.4073765824483,61.006052607609675 L585.7546884873013,62.45398036860376 L586.7397706853371,63.69545620537524 L588.3235554970647,64.74407158420196 L589.9026118757131,64.7622567312117 L592.0674094103745,63.45968476119491 L594.1744878181146,62.25560878181612 L595.8677690342956,60.424144421810084 L597.9806144175348,58.64940058933502 L599.1168370186545,57.07991706812758 L599.9419612640952,55.26356735933894 L600.2809423657284,53.5419912079929 L600.5611678794967,52.97906127598315 L600.534425762085,52.83772167638183 L600.683165398533,52.82152772784406 L600.4344531587165,53.360784468308765 L600.3424807827382,55.330059098554486 L600.5059686234615,56.91626942219502 L600.6878854998229,58.481808688018745 L600.8745679180715,60.603038384288254 L601.2708930131112,62.21790772268487 L601.3858090706972,63.4379043453928 L600.7983719140036,64.38399868117166 L600.4315678480568,64.58145259165951 L599.6779490261583,65.18956461075696 L599.4487821843097,64.21179833816295 L598.5928519583927,64.13999964703721 L598.0557928677711,63.58863548918031 L597.9789014323687,62.594302750232025 L598.3371407849049,61.49175393892181 L599.5552483696465,60.114027546390254 L601.083870287812,59.306314881837764 L602.3045457716344,58.38945385231334 L604.0663843693587,57.093748742210714 L605.6159094626641,56.37230566651555 L607.14195412647,55.01345486428515 L608.280071401621,54.20500221173444 L609.2265746962767,53.340439248711206 L609.81360063895,52.941918017129765 L609.9083428391832,52.41387978014607 L609.6059429994098,52.6246683263526 L609.7984346337926,52.295786898410896 L608.914070363249,52.588995675452836 L608.2359518305122,53.52519081132946 L607.8904112037617,54.366226496819294 L608.23826835248,55.22884166052321 L608.1128751484598,56.280823251906575 L607.8749158153742,57.03701727296015 L608.3193176263512,58.96935924426152 L608.8573100497242,60.55014012100634 L609.8380010090764,61.774365280768635 L610.2365777691471,62.02505610274845 L610.8506927519743,63.06868902283097 L610.2596893794341,63.4872552653689 L610.246214692376,64.25775313907737 L609.6007723766027,64.73428303362364 L608.4143642410911,64.49369481326703 L607.5168646836737,64.55855045656423 L606.0048071175929,63.75081263018712 L605.8438462752983,63.81025975307487 M619.006209396634,57.521669683076304 L619.1555679861028,57.037173505562464 L619.2357740769689,57.999900006206246 L618.9435844041286,58.48363445279303 L618.4556321365767,59.38084785347613 L618.4181114126709,60.68939141656007 L618.5422523533716,61.58120128398948 L617.9370485866025,63.047370313624704 L618.3915729880691,63.599563427392006 M621.136969913427,51.67590956631269 L621.1831170770834,51.40181663734815 L621.2667811616225,51.10127553556302 L621.3570868007132,50.86757096621853 L621.4233573298127,50.79398592805254 M626.5382987834046,57.153197262555665 L626.7096890975788,57.84654325850896 L626.8632939639474,58.24546169244378 L627.1353280361061,59.826689812338515 L626.777803884507,60.80605717963158 L626.7000459507738,61.71608372847199 L626.3710928281168,62.73762780654793 L626.3247575608502,63.33906442478593 L626.2935688059472,64.06873072080988 L626.4781497177123,64.337344082991 L626.3647379626871,64.1326215317988 L626.5552711114101,63.619723488120535 L627.262874950432,62.21678586069705 L627.8603865906182,60.919135093251484 L628.6989940796323,60.114916479354434 L629.9107238999688,58.79668534213146 L630.6494833241823,57.5322848384949 L631.5229821104715,57.04048670674719 L632.4583779756042,57.1653489418801 L632.7332320628279,56.528448177989006 L633.3614908186569,57.12414082799339 L633.9699452032651,58.321954438184406 L633.8992222160948,59.72462026365189 L634.248330072913,61.164130395804705 L634.1901914828486,62.76333566689034 L634.1582642850337,63.928648385915636 L634.9348100220441,64.62994847039495 L635.5018587856039,64.66132197984201 L636.3969844877129,63.843408097446876 L637.5593318919287,62.9550036278157 L639.0944126824704,61.777931074874836 L640.0191277382719,60.119471204400114 L640.8219777884267,58.29167001969963 L641.7033650959715,57.20243882880936 L641.9281256040656,55.94346973136043 L641.6236603906107,55.13044513739632 L641.3300940290708,54.94415459998255 L640.3071205136616,55.280237500502906 L639.5737871035692,56.1051320713714 L639.0691993220739,56.99710350529331 L637.9078317676681,58.560027556995024 L638.0763335687639,59.66338001210665 L637.8399851894644,61.4825248414221 L639.0844845377267,62.508915797068276 L639.7692791651543,63.22988124459997 L640.9162873240334,63.76099778326609 L642.4766269758845,63.02803671877203 L643.8864949150798,61.91954302322243 L645.8168311997172,60.25725216347739 L646.8662454468927,59.37035484086727 L648.0460703317608,58.07178740260404 L648.897727225451,56.48528894573847 L649.8176860569242,55.598360675765164 L649.6984738450724,54.59847956056143 L649.7311702553632,54.72740136199695 L649.7913480197913,54.61799331170212 L649.4991475030452,54.567900854042826 L649.8953391382681,55.24526446431358 L649.8791692279503,56.47213127682797 L650.2005325625589,57.81951148042371 L651.017969287662,58.876398237667715 L651.6214777049527,60.31352110282858 L651.5587744200204,61.69028665499538 L651.9428403536845,63.116773996639026 L652.1545618348155,63.29766971805249 L651.3585935553601,63.57231065032965 L650.9391037750338,63.82903389361277 L650.2729576025079,64.43126111691888 L649.4027936657894,64.2977694562335 L648.629107942551,63.49245873645849 L648.9546982954798,62.659165685215015 L648.3237608834281,62.07124297085851 L648.9544584267089,62.088174944042116 M658.0882748097565,53.90331049677916 L657.7088915497354,54.043327404800884 L656.5164349898355,53.67470839865592 L656.2399820760979,54.43469677987979 L655.1010609846624,54.43953797113188 L654.042206238516,54.7215993908444 L653.6347624342684,55.6439024615775 L653.347922723847,56.572059908186894 L654.7352105858179,57.67048736943089 L655.1867615379733,58.72086185548073 L656.6645377129782,60.06929670349253 L657.6943421626852,60.515224477678956 L658.4329949726164,61.2026134351745 L658.8197440086929,62.001179397601376 L658.4368324627196,62.58021939157756 L657.6722199226883,62.65472805148051 L656.492831487486,62.6611182582379 L655.3060716491336,62.75432346515106 L653.2497931322835,62.89847534590568 L652.6107555924334,62.52591318510175 L652.0597084490955,62.31779606943581 M675.0268704125979,48.54720306498859 L674.9988472906398,48.87756179044328 L675.4751949299637,48.50794089363242 L675.0073373412974,49.20367617147829 L674.8506589428814,50.22749737960046 L674.5761114126228,51.27938988434637 L673.8676072611436,52.53512412520745 L673.5590346626007,54.856312990792645 L672.7900444995976,56.99698571203695 L672.4848211030376,58.819504206684925 L672.6837111592129,60.63784848680254 L672.8477397953457,61.49224725914123 L672.2798537396623,62.4571469335923 M672.4251363022174,57.241602137845966 L672.3304508733893,57.22315721599979 L672.9325246970986,57.57144047260279 L673.9866238001812,57.64560800390939 L675.6495738741403,58.01999346449572 L677.5769502018741,58.10288280709543 L679.847658834854,58.02416781021247 L682.2522290600614,58.05385606638567 L683.7468626611653,58.033494119929244 L685.3002230861857,57.196730405620514 L686.4896886384183,56.596421052793524 L686.6769310431346,55.5132376896487 L686.7366298203724,55.12832113026356 L686.3819545398608,54.95773412672221 L685.3979299981361,54.442217633415254 L684.4898780485985,54.59957439694183 L683.0695437878228,55.57878974993811 L682.1793032765843,56.27566831525092 L681.3609424161316,57.59814843563747 L680.9117675702403,59.01925734927246 L681.1716934759027,60.00355728341553 L682.4867107297405,61.038735021047884 L683.3981369299395,62.231366148615585 L684.7697648646849,62.59192509910984 L686.0508868413069,62.589530342568715 M695.4338750320624,52.2394476324904 L695.2024993752887,52.66453643708822 L694.4423840794836,51.79928021050954 L693.6645279048098,51.928444609441534 L692.5892450284828,51.972484988779975 L691.8622702876714,53.10027613040134 L691.60940290744,54.123223407471656 L691.6374059245841,55.79668172146841 L692.3202278468859,56.700732199862344 L693.6179657680132,58.47659374598811 L694.7421999916273,59.23435132649449 L695.7348345382893,60.33188933363017 L696.6130598192258,61.064287538186306 L696.5087738606303,61.111715756529826 L696.6479465784396,61.88317962074558 L695.7652550067914,61.89130403571522 L693.8884676685789,61.905399340882894 L692.5310332372771,62.136576981915354 L690.8215013476888,61.98087149221094 L689.4007371625316,61.706203353400426 L689.0153261158007,61.787720451562514 M703.0618052969803,47.37440770939949 L703.1936412344803,47.18124002293709 L703.3504710684647,47.06181806401375 L703.4466624747147,47.22263807133797 L703.3548961172928,47.871171892443925 L703.0357127676834,49.05959504918221 L702.5072398672928,50.69446891621712 L701.8793712149491,52.64137834385994 L701.2940745840897,54.77536910847786 L700.8933177481522,56.95037049130562 L700.7577891836991,59.01306593493584 L700.9082713614334,60.85147970990303 L701.3348155508866,62.25550597981575 L702.0336986075272,63.04958146885994 L702.7389903555741,63.329455793658525 L703.2686229239334,63.29057258443001 " fill="none" stroke="black" stroke-linecap="round" stroke-width="2" /></svg>